M48
;Layer_Color=9474304
;FILE_FORMAT=2:4
INCH
;TYPE=PLATED
T1F00S00C0.0079
T2F00S00C0.0300
%
T01
X012650Y012580
X012540Y013880
X012530Y014790
X013590Y014430
X014100Y014380
X014890Y014390
X014840Y013850
X014910Y013550
X015250Y012970
X014350Y015296
X016200Y015050
X016227Y013447
X016220Y013170
X018042Y013192
X018410Y012990
X018710Y013400
X018730Y014470
Y014730
X019790Y014890
X019820Y014470
X020100Y014490
X021550Y014540
X021530Y014920
X021020Y015200
X021142Y013670
X021760Y013740
X022570Y013600
X022550Y013290
X022215Y013095
X023245
X023840Y013260
X024252Y013802
X024448Y013818
X025330Y013790
X025490Y013370
Y012910
X024982Y014352
X023770Y014350
X023620Y014760
X022140Y014370
X020790Y012710
X020070Y012850
X018127Y015542
X017900Y015560
X017670Y015620
X017452Y015508
X016260Y015830
X018780Y016130
X019710Y015790
X022726Y015984
X023750Y015950
X024070Y015910
X013292Y015628
X012930Y016630
T02
X014100Y012980
X016990Y012880
X017070Y016220
X014340Y016170
M30
