M48
;Layer_Color=9474304
;FILE_FORMAT=2:4
INCH,LZ
;TYPE=PLATED
T1F00S00C0.0118
T2F00S00C0.0280
T3F00S00C0.0315
T4F00S00C0.0354
T5F00S00C0.0866
T6F00S00C0.0907
T7F00S00C0.1006
T8F00S00C0.1181
%
T01
X-016469Y-013017
Y-011836
Y-010655
Y-009474
Y-008293
Y-007112
Y-005931
Y-00475
Y-003569
Y-002388
X-015288
Y-003569
Y-00475
Y-005931
Y-007112
Y-008293
Y-009474
Y-010655
Y-011836
Y-013017
X-014107Y-011836
Y-010655
Y-009474
Y-008293
Y-007112
Y-005931
Y-00475
Y-003569
Y-002388
X-012926
Y-003569
Y-00475
Y-005931
Y-007112
Y-008293
Y-009474
Y-010655
Y-011836
X-011745Y-010655
Y-009474
Y-008293
Y-007112
X-010564
Y-008293
Y-009474
Y-010655
X-009383Y-009474
Y-008293
Y-007112
Y-005931
X-010564
Y-00475
X-011745
Y-003569
Y-002388
X-008202Y-005931
Y-007112
Y-008293
Y-009474
X-00702
Y-008293
Y-007112
Y-005931
X-005839
Y-007112
Y-008293
Y-009474
X-004658Y-008293
Y-007112
Y-005931
Y-00475
X-005839
X-003477
Y-005931
Y-007112
Y-008293
X-002296
Y-007112
Y-005931
Y-00475
Y-003569
Y-002388
X-003477
X-004658
Y-003569
X-003477
X-001115
Y-00475
Y-005931
Y-007112
Y-008293
Y-002388
X000066
Y-003569
Y-00475
Y-005931
Y-007112
Y-008293
X001247
Y-009474
X002428
Y-008293
Y-007112
X001247
Y-005931
Y-00475
Y-003569
Y-002388
X002428
X003609
Y-003569
Y-00475
X002428
Y-005931
X003609
Y-007112
Y-008293
Y-009474
X004791
Y-008293
Y-007112
Y-005931
Y-00475
X005972
Y-005931
Y-007112
Y-009474
Y-010655
X007153
Y-009474
Y-008293
X008334
Y-009474
Y-010655
Y-011836
X009515
Y-010655
Y-009474
X010696
Y-010655
Y-011836
Y-013017
X011877
Y-011836
Y-010655
Y-009474
Y-008293
X010696
X011877Y-007112
Y-005931
Y-00475
X010696
X007153
X008334Y-005931
Y-007112
X002428Y-003569
Y-001206
X001247
X000066
Y-000025
X001247
X002428
X003609
Y001156
X002428Y002337
X001247
X000066
Y003518
X001247
X002428
Y00588
X001247
X000066
Y008242
X001247
X002428
X003609
Y00588
Y010605
X002428
X001247
X000066
Y011786
Y012967
X001247
Y011786
X002428
Y012967
X003609
Y011786
X004791Y012967
X005972
X007153
X008334
Y011786
X009515Y012967
X010696
X011877
Y010605
Y009423
X010696Y007061
X008334Y004699
X00715Y00235
X00595Y00245
X009515Y002337
X005972Y010605
X-001115
X-002296
X-003477
X-004658
X-005839
X-00702
Y011786
Y012967
X-005839
Y011786
X-004658
Y012967
X-003477
Y011786
X-002296
Y012967
X-001115
Y011786
Y008242
X-002296
X-003477
X-004658
X-005839
X-00702
X-010564
X-011745
X-012926
X-014107
X-015288
Y009423
X-014107
Y010605
X-015288Y011786
Y012967
X-011745Y010605
Y009423
X-010564
Y010605
Y011786
X-009383
Y010605
Y009423
X-011745Y007061
X-012926
X-014107
X-015288Y00588
Y004699
Y003518
Y002337
Y001156
Y-000025
Y-001206
X-014107
X-012926
Y-000025
Y001156
X-014107
Y002337
X-012926
Y003518
X-011745
Y002337
Y001156
Y-000025
Y-001206
X-010564
X-008202
X-00702
X-005839Y-000025
X-004658
X-003477
Y-001206
X-002296
Y-000025
X-001115
Y-001206
Y002337
X-002296
X-003477
X-005839
X-008202
X-009383
Y003518
X-010564
X-005839Y004699
Y00588
X-004658
X-003477
X-002296
X-001115
Y003518
X-004658Y004699
Y-001206
X-016469
Y-000025
Y001156
Y002337
Y003518
Y004699
Y00588
Y007061
Y008242
Y009423
Y010605
Y011786
Y012967
Y014148
Y015329
Y01651
Y017691
X-015288
Y01651
Y015329
Y014148
X-014107
Y015329
X-012926
Y014148
X-011745
Y015329
X-010564
Y014148
X-009383
Y015329
X-008202Y014148
X-00702
X-005839
X-004658
X-003477
X-012926Y01651
X-014107Y017691
X000066Y014148
X001247
X002428
X003609
X004791
X005972
Y015329
X007153
Y014148
X008334
Y015329
Y01651
X009515
Y015329
Y014148
X010696Y015329
X011877
Y014148
Y01651
Y017691
X010696
T02
X-01065Y-00315
X-0073Y-0026
X-0065Y-003
X-00505Y-0033
X-00725Y-00405
X-0079Y-00475
X00295Y-00395
X0039Y-00535
X0033Y-00745
X0016Y-0075
X00205Y-00865
X0102Y-003212
X010745Y-002035
X0091Y-0004
X0066Y00065
X007Y0011
X0062Y0014
X00625Y00605
X0063Y008
X003855Y009019
X00275Y00995
X0028Y008
X0042Y00505
X0029Y0034
X00205Y003
X0016Y00405
X0083Y0061
X-00495Y0055
X-00535Y0047
X-0062Y00435
X-0068Y00485
X-0071Y00385
X-0079Y00325
Y0055
X-00735Y00645
X-0068Y0073
X-0062Y00895
X-008Y0129
X-01275Y01225
X-0132Y01165
X-01315Y00895
X-01235Y00805
X-01247Y00425
X-0116Y00475
X-01085Y0046
X-01015Y0053
X-0097Y0015
X-0084Y00055
X-0079Y-00045
X-0072Y-00005
X-0066Y00045
X-0055Y00195
X-005Y-0008
X-0074Y-002
T03
X009268Y005565
Y006565
Y007565
Y008565
Y009565
Y010565
Y011565
X010017Y012015
Y011015
Y010015
Y009015
Y008015
Y007015
Y006015
Y005015
X010767Y005515
Y006515
Y007515
Y008515
Y009515
Y010515
Y011515
X011517Y012015
Y011015
Y010015
Y009015
Y008015
Y007015
Y006015
Y005015
T04
X-009Y-004
Y-003
X005
Y-004
X00925Y-00585
X01025
X01125
Y-0072
X01025
X00925
Y-0086
X01025
X01125
X005Y-002
Y-001
Y0
Y001
Y002
Y003
Y004
Y005
Y006
Y007
Y008
Y009
Y01
X-009
Y009
Y008
Y007
Y006
Y005
Y004
Y003
Y002
Y001
Y0
Y-001
Y-002
T05
X010392Y003015
Y014015
T06
X010382Y000378
X-014421
T07
X-014421Y016519
X010382
T08
X-011271Y-006414
X007233
Y011303
X-011271
M30
