%FSLAX42Y42*%
%MOMM*%
G71*
G01*
G75*
G04 Layer_Color=8388736*
%ADD10C,0.20*%
%ADD11C,0.25*%
%ADD12C,1.50*%
%ADD13C,0.50*%
%ADD14C,1.30*%
%ADD15C,2.55*%
%ADD16C,2.30*%
%ADD17C,3.00*%
%ADD18R,1.50X1.50*%
%ADD19C,1.50*%
%ADD20R,1.50X1.50*%
%ADD21C,2.54*%
%ADD22C,1.27*%
%ADD23C,0.60*%
G04:AMPARAMS|DCode=24|XSize=0.61mm|YSize=1.7mm|CornerRadius=0.3mm|HoleSize=0mm|Usage=FLASHONLY|Rotation=90.000|XOffset=0mm|YOffset=0mm|HoleType=Round|Shape=RoundedRectangle|*
%AMROUNDEDRECTD24*
21,1,0.61,1.09,0,0,90.0*
21,1,0.00,1.70,0,0,90.0*
1,1,0.61,0.55,0.00*
1,1,0.61,0.55,0.00*
1,1,0.61,-0.55,0.00*
1,1,0.61,-0.55,0.00*
%
%ADD24ROUNDEDRECTD24*%
G04:AMPARAMS|DCode=25|XSize=2.82mm|YSize=1.02mm|CornerRadius=0.51mm|HoleSize=0mm|Usage=FLASHONLY|Rotation=0.000|XOffset=0mm|YOffset=0mm|HoleType=Round|Shape=RoundedRectangle|*
%AMROUNDEDRECTD25*
21,1,2.82,0.00,0,0,0.0*
21,1,1.80,1.02,0,0,0.0*
1,1,1.02,0.90,0.00*
1,1,1.02,-0.90,0.00*
1,1,1.02,-0.90,0.00*
1,1,1.02,0.90,0.00*
%
%ADD25ROUNDEDRECTD25*%
%ADD26R,1.70X0.46*%
%ADD27R,1.70X0.40*%
%ADD28R,2.11X1.50*%
%ADD29R,1.91X2.39*%
%ADD30R,1.91X1.19*%
%ADD31R,1.70X1.20*%
G04:AMPARAMS|DCode=32|XSize=0.5mm|YSize=1mm|CornerRadius=0.25mm|HoleSize=0mm|Usage=FLASHONLY|Rotation=270.000|XOffset=0mm|YOffset=0mm|HoleType=Round|Shape=RoundedRectangle|*
%AMROUNDEDRECTD32*
21,1,0.50,0.50,0,0,270.0*
21,1,0.00,1.00,0,0,270.0*
1,1,0.50,-0.25,0.00*
1,1,0.50,-0.25,0.00*
1,1,0.50,0.25,0.00*
1,1,0.50,0.25,0.00*
%
%ADD32ROUNDEDRECTD32*%
%ADD33R,1.00X0.50*%
%ADD34R,1.22X0.71*%
%ADD35C,0.38*%
%ADD36C,0.13*%
%ADD37C,1.50*%
%ADD38C,2.76*%
%ADD39C,2.51*%
%ADD40C,3.20*%
%ADD41R,1.70X1.70*%
%ADD42C,1.70*%
%ADD43R,1.70X1.70*%
%ADD44C,2.74*%
D37*
X2925Y1274D02*
D03*
X2735Y1401D02*
D03*
X2354Y1414D02*
D03*
Y1668D02*
D03*
Y1922D02*
D03*
Y2176D02*
D03*
Y2430D02*
D03*
Y2684D02*
D03*
Y2938D02*
D03*
X2544Y1274D02*
D03*
Y1528D02*
D03*
Y1782D02*
D03*
Y2036D02*
D03*
Y2290D02*
D03*
Y2544D02*
D03*
Y2798D02*
D03*
Y3052D02*
D03*
X2735Y2925D02*
D03*
Y2671D02*
D03*
Y2417D02*
D03*
Y2163D02*
D03*
Y1909D02*
D03*
Y1655D02*
D03*
X2925Y3052D02*
D03*
Y2798D02*
D03*
Y2544D02*
D03*
Y2290D02*
D03*
Y2036D02*
D03*
Y1782D02*
D03*
Y1528D02*
D03*
D38*
X2637Y4196D02*
D03*
X-3663D02*
D03*
D39*
Y96D02*
D03*
X2637D02*
D03*
D40*
X-2863Y-1629D02*
D03*
Y2871D02*
D03*
X1837D02*
D03*
Y-1629D02*
D03*
D41*
X1270Y-1016D02*
D03*
X-2286D02*
D03*
D42*
X1270Y-762D02*
D03*
Y-508D02*
D03*
Y-254D02*
D03*
Y0D02*
D03*
Y254D02*
D03*
Y508D02*
D03*
Y762D02*
D03*
Y1016D02*
D03*
Y1270D02*
D03*
Y1524D02*
D03*
Y1778D02*
D03*
Y2032D02*
D03*
Y2286D02*
D03*
Y2540D02*
D03*
X-2286Y-762D02*
D03*
Y-508D02*
D03*
Y-254D02*
D03*
Y0D02*
D03*
Y254D02*
D03*
Y508D02*
D03*
Y762D02*
D03*
Y1016D02*
D03*
Y1270D02*
D03*
Y1524D02*
D03*
Y1778D02*
D03*
Y2032D02*
D03*
Y2286D02*
D03*
Y2540D02*
D03*
X2858Y-1486D02*
D03*
X2603D02*
D03*
X2858Y-2184D02*
D03*
X2603D02*
D03*
X2858Y-1829D02*
D03*
X2603D02*
D03*
D43*
X2350Y-1486D02*
D03*
Y-2184D02*
D03*
Y-1829D02*
D03*
D44*
X2640Y766D02*
D03*
Y3560D02*
D03*
M02*
