%FSLAX44Y44*%
%MOMM*%
G71*
G01*
G75*
G04 Layer_Physical_Order=3*
G04 Layer_Color=16440176*
%ADD10C,1.0000*%
%ADD11R,0.6000X0.5000*%
G04:AMPARAMS|DCode=12|XSize=0.508mm|YSize=0.6096mm|CornerRadius=0.127mm|HoleSize=0mm|Usage=FLASHONLY|Rotation=0.000|XOffset=0mm|YOffset=0mm|HoleType=Round|Shape=RoundedRectangle|*
%AMROUNDEDRECTD12*
21,1,0.5080,0.3556,0,0,0.0*
21,1,0.2540,0.6096,0,0,0.0*
1,1,0.2540,0.1270,-0.1778*
1,1,0.2540,-0.1270,-0.1778*
1,1,0.2540,-0.1270,0.1778*
1,1,0.2540,0.1270,0.1778*
%
%ADD12ROUNDEDRECTD12*%
%ADD13P,1.7321X8X22.5*%
G04:AMPARAMS|DCode=14|XSize=0.508mm|YSize=0.6096mm|CornerRadius=0.127mm|HoleSize=0mm|Usage=FLASHONLY|Rotation=270.000|XOffset=0mm|YOffset=0mm|HoleType=Round|Shape=RoundedRectangle|*
%AMROUNDEDRECTD14*
21,1,0.5080,0.3556,0,0,270.0*
21,1,0.2540,0.6096,0,0,270.0*
1,1,0.2540,-0.1778,-0.1270*
1,1,0.2540,-0.1778,0.1270*
1,1,0.2540,0.1778,0.1270*
1,1,0.2540,0.1778,-0.1270*
%
%ADD14ROUNDEDRECTD14*%
G04:AMPARAMS|DCode=15|XSize=0.7112mm|YSize=1.3208mm|CornerRadius=0.1778mm|HoleSize=0mm|Usage=FLASHONLY|Rotation=0.000|XOffset=0mm|YOffset=0mm|HoleType=Round|Shape=RoundedRectangle|*
%AMROUNDEDRECTD15*
21,1,0.7112,0.9652,0,0,0.0*
21,1,0.3556,1.3208,0,0,0.0*
1,1,0.3556,0.1778,-0.4826*
1,1,0.3556,-0.1778,-0.4826*
1,1,0.3556,-0.1778,0.4826*
1,1,0.3556,0.1778,0.4826*
%
%ADD15ROUNDEDRECTD15*%
G04:AMPARAMS|DCode=16|XSize=0.275mm|YSize=0.275mm|CornerRadius=0.0688mm|HoleSize=0mm|Usage=FLASHONLY|Rotation=90.000|XOffset=0mm|YOffset=0mm|HoleType=Round|Shape=RoundedRectangle|*
%AMROUNDEDRECTD16*
21,1,0.2750,0.1375,0,0,90.0*
21,1,0.1375,0.2750,0,0,90.0*
1,1,0.1375,0.0688,0.0688*
1,1,0.1375,0.0688,-0.0688*
1,1,0.1375,-0.0688,-0.0688*
1,1,0.1375,-0.0688,0.0688*
%
%ADD16ROUNDEDRECTD16*%
G04:AMPARAMS|DCode=17|XSize=0.275mm|YSize=0.275mm|CornerRadius=0.0688mm|HoleSize=0mm|Usage=FLASHONLY|Rotation=180.000|XOffset=0mm|YOffset=0mm|HoleType=Round|Shape=RoundedRectangle|*
%AMROUNDEDRECTD17*
21,1,0.2750,0.1375,0,0,180.0*
21,1,0.1375,0.2750,0,0,180.0*
1,1,0.1375,-0.0688,0.0688*
1,1,0.1375,0.0688,0.0688*
1,1,0.1375,0.0688,-0.0688*
1,1,0.1375,-0.0688,-0.0688*
%
%ADD17ROUNDEDRECTD17*%
%ADD18R,0.6096X0.5080*%
%ADD19R,0.5000X0.6000*%
%ADD20R,1.0000X0.6000*%
%ADD21R,0.8500X0.3000*%
%ADD22R,1.3000X2.0000*%
%ADD23R,0.4000X0.4000*%
%ADD24R,0.6000X0.5500*%
%ADD25R,1.4000X1.2000*%
%ADD26R,3.4500X3.4500*%
%ADD27O,0.3000X0.6000*%
%ADD28O,0.6000X0.3000*%
%ADD29C,0.1270*%
%ADD30C,0.2540*%
%ADD31C,0.3000*%
%ADD32C,1.5240*%
%ADD33C,0.4500*%
G36*
X680590Y429909D02*
X693053Y417446D01*
X693143Y417229D01*
Y316577D01*
X693053Y316360D01*
X680590Y303897D01*
X680373Y303807D01*
X325213D01*
X324996Y303897D01*
X313030Y315862D01*
X313033Y315871D01*
D01*
D01*
D01*
X313033Y315871D01*
X313033Y315871D01*
X312897Y316199D01*
X312897D01*
X312869Y316202D01*
X312840Y316230D01*
X312840Y316230D01*
X312840Y316230D01*
X312840Y316230D01*
X312830Y316255D01*
D01*
D01*
D01*
X312830Y316255D01*
X312774Y316391D01*
X312774D01*
X312774Y316391D01*
X312705Y316556D01*
Y316556D01*
D01*
X312697Y316577D01*
Y417229D01*
X312787Y417446D01*
X325250Y429909D01*
X325467Y429999D01*
X680373D01*
X680590Y429909D01*
D02*
G37*
%LPC*%
G36*
X646176Y344229D02*
X645577Y344110D01*
X643993Y343051D01*
X642934Y341467D01*
X642815Y340868D01*
X646176D01*
Y344229D01*
D02*
G37*
G36*
X383345Y342900D02*
X379984D01*
Y339539D01*
X380583Y339658D01*
X382167Y340717D01*
X383226Y342301D01*
X383345Y342900D01*
D02*
G37*
G36*
X648716Y344229D02*
Y340868D01*
X652077D01*
X651958Y341467D01*
X650899Y343051D01*
X649315Y344110D01*
X648716Y344229D01*
D02*
G37*
G36*
X413432Y346181D02*
Y342820D01*
X416793D01*
X416674Y343419D01*
X415615Y345003D01*
X414031Y346062D01*
X413432Y346181D01*
D02*
G37*
G36*
X410892D02*
X410293Y346062D01*
X408709Y345003D01*
X407650Y343419D01*
X407531Y342820D01*
X410892D01*
Y346181D01*
D02*
G37*
G36*
X573278Y349029D02*
X571905Y348756D01*
X570740Y347978D01*
X569962Y346813D01*
X569689Y345440D01*
X569962Y344067D01*
X570740Y342902D01*
X571841Y342166D01*
X571594Y340921D01*
X571397Y340882D01*
X570232Y340104D01*
X569454Y338939D01*
X569181Y337566D01*
X569454Y336193D01*
X569454Y336193D01*
X568648Y335214D01*
X566710D01*
X565623Y335940D01*
X564250Y336213D01*
X562877Y335940D01*
X561712Y335162D01*
X560934Y333997D01*
X560661Y332624D01*
X560934Y331251D01*
X561712Y330086D01*
X562877Y329308D01*
X564250Y329035D01*
X565623Y329308D01*
X566710Y330034D01*
X587952D01*
X589039Y329308D01*
X590412Y329035D01*
X591785Y329308D01*
X592950Y330086D01*
X593728Y331251D01*
X594001Y332624D01*
X593728Y333997D01*
X592950Y335162D01*
X591785Y335940D01*
X590412Y336213D01*
X589039Y335940D01*
X587952Y335214D01*
X576892D01*
X576086Y336193D01*
X576086Y336193D01*
X576359Y337566D01*
X576086Y338939D01*
X575308Y340104D01*
X574207Y340840D01*
X574454Y342085D01*
X574651Y342124D01*
X575816Y342902D01*
X576594Y344067D01*
X576867Y345440D01*
X576594Y346813D01*
X575816Y347978D01*
X574651Y348756D01*
X573278Y349029D01*
D02*
G37*
G36*
X652077Y338328D02*
X648716D01*
Y334967D01*
X649315Y335086D01*
X650899Y336145D01*
X651958Y337729D01*
X652077Y338328D01*
D02*
G37*
G36*
X416793Y340280D02*
X407531D01*
X407650Y339681D01*
X408709Y338097D01*
X409339Y337676D01*
X408970Y336460D01*
X392430D01*
X392430Y336460D01*
X391687Y336312D01*
X391057Y335891D01*
X388052Y332887D01*
X387350Y333027D01*
X385977Y332754D01*
X384812Y331976D01*
X384034Y330811D01*
X383761Y329438D01*
X384034Y328065D01*
X384812Y326900D01*
X385977Y326122D01*
X387350Y325849D01*
X388723Y326122D01*
X389888Y326900D01*
X390666Y328065D01*
X390939Y329438D01*
X390799Y330140D01*
X393234Y332576D01*
X409052D01*
X409450Y331980D01*
X410615Y331202D01*
X411988Y330929D01*
X413361Y331202D01*
X414526Y331980D01*
X415304Y333145D01*
X415577Y334518D01*
X415304Y335891D01*
X414880Y336525D01*
X415128Y337771D01*
X415615Y338097D01*
X416674Y339681D01*
X416793Y340280D01*
D02*
G37*
G36*
X377444Y342900D02*
X374083D01*
X374202Y342301D01*
X375261Y340717D01*
X376845Y339658D01*
X377444Y339539D01*
Y342900D01*
D02*
G37*
G36*
X475234Y343949D02*
X473861Y343676D01*
X472696Y342898D01*
X471918Y341733D01*
X471645Y340360D01*
X471918Y338987D01*
X472696Y337822D01*
X473861Y337044D01*
X475234Y336771D01*
X476607Y337044D01*
X477772Y337822D01*
X478550Y338987D01*
X478823Y340360D01*
X478550Y341733D01*
X477772Y342898D01*
X476607Y343676D01*
X475234Y343949D01*
D02*
G37*
G36*
X537004Y350807D02*
X535630Y350534D01*
X534466Y349756D01*
X533688Y348591D01*
X533415Y347218D01*
X533688Y345845D01*
X534466Y344680D01*
X535630Y343902D01*
X537004Y343629D01*
X538377Y343902D01*
X539541Y344680D01*
X540319Y345845D01*
X540592Y347218D01*
X540319Y348591D01*
X539541Y349756D01*
X538377Y350534D01*
X537004Y350807D01*
D02*
G37*
G36*
X318516Y356141D02*
X317143Y355868D01*
X315978Y355090D01*
X315200Y353925D01*
X314927Y352552D01*
X315200Y351179D01*
X315978Y350014D01*
X317143Y349236D01*
X318516Y348963D01*
X319889Y349236D01*
X321054Y350014D01*
X321832Y351179D01*
X322105Y352552D01*
X321832Y353925D01*
X321054Y355090D01*
X319889Y355868D01*
X318516Y356141D01*
D02*
G37*
G36*
X625621Y349718D02*
X622260D01*
Y346357D01*
X622859Y346476D01*
X624443Y347535D01*
X625502Y349119D01*
X625621Y349718D01*
D02*
G37*
G36*
X642112Y354897D02*
X641513Y354778D01*
X639929Y353719D01*
X638870Y352135D01*
X638751Y351536D01*
X642112D01*
Y354897D01*
D02*
G37*
G36*
X614720Y355191D02*
X614121Y355072D01*
X612537Y354013D01*
X611478Y352429D01*
X611359Y351830D01*
X614720D01*
Y355191D01*
D02*
G37*
G36*
X644652Y354897D02*
Y351536D01*
X648013D01*
X647894Y352135D01*
X646835Y353719D01*
X645251Y354778D01*
X644652Y354897D01*
D02*
G37*
G36*
X376936Y355379D02*
X375563Y355106D01*
X374398Y354328D01*
X373620Y353163D01*
X373347Y351790D01*
X373620Y350417D01*
X374398Y349252D01*
X375000Y348850D01*
X375248Y347604D01*
X374202Y346039D01*
X374083Y345440D01*
X383345D01*
X383226Y346039D01*
X382167Y347623D01*
X380583Y348682D01*
X380389Y348721D01*
X379903Y349894D01*
X380252Y350417D01*
X380525Y351790D01*
X380252Y353163D01*
X379474Y354328D01*
X378309Y355106D01*
X376936Y355379D01*
D02*
G37*
G36*
X552704Y352585D02*
X551331Y352312D01*
X550166Y351534D01*
X549388Y350369D01*
X549115Y348996D01*
X549388Y347623D01*
X550166Y346458D01*
X551331Y345680D01*
X552704Y345407D01*
X554077Y345680D01*
X555242Y346458D01*
X556020Y347623D01*
X556293Y348996D01*
X556020Y350369D01*
X555242Y351534D01*
X554077Y352312D01*
X552704Y352585D01*
D02*
G37*
G36*
X642112Y348996D02*
X638751D01*
X638870Y348397D01*
X639929Y346813D01*
X641513Y345754D01*
X642112Y345635D01*
Y348996D01*
D02*
G37*
G36*
X614720Y349290D02*
X611359D01*
X611478Y348691D01*
X612537Y347107D01*
X614121Y346048D01*
X614720Y345929D01*
Y349290D01*
D02*
G37*
G36*
X648013Y348996D02*
X644652D01*
Y345635D01*
X645251Y345754D01*
X646835Y346813D01*
X647894Y348397D01*
X648013Y348996D01*
D02*
G37*
G36*
X646176Y338328D02*
X642815D01*
X642934Y337729D01*
X643993Y336145D01*
X645577Y335086D01*
X646176Y334967D01*
Y338328D01*
D02*
G37*
G36*
X508508Y325120D02*
X505147D01*
X505266Y324521D01*
X506325Y322937D01*
X507909Y321878D01*
X508508Y321759D01*
Y325120D01*
D02*
G37*
G36*
X368220Y328422D02*
X359410D01*
Y319611D01*
X360792Y319793D01*
X363264Y320817D01*
X365386Y322446D01*
X367015Y324568D01*
X368038Y327040D01*
X368220Y328422D01*
D02*
G37*
G36*
X514409Y325120D02*
X511048D01*
Y321759D01*
X511647Y321878D01*
X513231Y322937D01*
X514290Y324521D01*
X514409Y325120D01*
D02*
G37*
G36*
X466344Y328676D02*
X462983D01*
X463102Y328077D01*
X464161Y326493D01*
X465745Y325434D01*
X466344Y325315D01*
Y328676D01*
D02*
G37*
G36*
X647446Y331503D02*
X646073Y331230D01*
X644908Y330452D01*
X644130Y329287D01*
X643857Y327914D01*
X644130Y326541D01*
X644908Y325376D01*
X646073Y324598D01*
X647446Y324325D01*
X648819Y324598D01*
X649984Y325376D01*
X650762Y326541D01*
X651035Y327914D01*
X650762Y329287D01*
X649984Y330452D01*
X648819Y331230D01*
X647446Y331503D01*
D02*
G37*
G36*
X430276Y325882D02*
X421465D01*
X421647Y324500D01*
X422671Y322028D01*
X424300Y319906D01*
X426422Y318277D01*
X428894Y317253D01*
X430276Y317071D01*
Y325882D01*
D02*
G37*
G36*
X321310Y323121D02*
X319937Y322848D01*
X318772Y322070D01*
X317994Y320905D01*
X317721Y319532D01*
X317994Y318159D01*
X318772Y316994D01*
X319937Y316216D01*
X321310Y315943D01*
X322683Y316216D01*
X323848Y316994D01*
X324626Y318159D01*
X324899Y319532D01*
X324626Y320905D01*
X323848Y322070D01*
X322683Y322848D01*
X321310Y323121D01*
D02*
G37*
G36*
X441627Y325882D02*
X432816D01*
Y317071D01*
X434198Y317253D01*
X436670Y318277D01*
X438792Y319906D01*
X440421Y322028D01*
X441445Y324500D01*
X441627Y325882D01*
D02*
G37*
G36*
X356870Y328422D02*
X348060D01*
X348242Y327040D01*
X349265Y324568D01*
X350894Y322446D01*
X353016Y320817D01*
X355488Y319793D01*
X356870Y319611D01*
Y328422D01*
D02*
G37*
G36*
X528066Y326423D02*
X526693Y326150D01*
X525528Y325372D01*
X524750Y324207D01*
X524477Y322834D01*
X524750Y321461D01*
X525528Y320296D01*
X526693Y319518D01*
X528066Y319245D01*
X529439Y319518D01*
X530604Y320296D01*
X531382Y321461D01*
X531655Y322834D01*
X531382Y324207D01*
X530604Y325372D01*
X529439Y326150D01*
X528066Y326423D01*
D02*
G37*
G36*
X472245Y328676D02*
X468884D01*
Y325315D01*
X469483Y325434D01*
X471067Y326493D01*
X472126Y328077D01*
X472245Y328676D01*
D02*
G37*
G36*
X466344Y334577D02*
X465745Y334458D01*
X464161Y333399D01*
X463102Y331815D01*
X462983Y331216D01*
X466344D01*
Y334577D01*
D02*
G37*
G36*
X359410Y339772D02*
Y330962D01*
X368220D01*
X368038Y332344D01*
X367015Y334816D01*
X365386Y336938D01*
X363264Y338567D01*
X360792Y339590D01*
X359410Y339772D01*
D02*
G37*
G36*
X468884Y334577D02*
Y331216D01*
X472245D01*
X472126Y331815D01*
X471067Y333399D01*
X469483Y334458D01*
X468884Y334577D01*
D02*
G37*
G36*
X605536Y340393D02*
X604163Y340120D01*
X602998Y339342D01*
X602220Y338177D01*
X601947Y336804D01*
X602220Y335431D01*
X602998Y334266D01*
X604163Y333488D01*
X605536Y333215D01*
X606909Y333488D01*
X608074Y334266D01*
X608852Y335431D01*
X609125Y336804D01*
X608852Y338177D01*
X608074Y339342D01*
X606909Y340120D01*
X605536Y340393D01*
D02*
G37*
G36*
X458270Y338669D02*
X456897Y338396D01*
X455732Y337618D01*
X454954Y336453D01*
X454681Y335080D01*
X454954Y333707D01*
X455732Y332542D01*
X456897Y331764D01*
X458270Y331491D01*
X459643Y331764D01*
X460808Y332542D01*
X461586Y333707D01*
X461859Y335080D01*
X461586Y336453D01*
X460808Y337618D01*
X459643Y338396D01*
X458270Y338669D01*
D02*
G37*
G36*
X511048Y331021D02*
Y327660D01*
X514409D01*
X514290Y328259D01*
X513231Y329843D01*
X511647Y330902D01*
X511048Y331021D01*
D02*
G37*
G36*
X508508D02*
X507909Y330902D01*
X506325Y329843D01*
X505266Y328259D01*
X505147Y327660D01*
X508508D01*
Y331021D01*
D02*
G37*
G36*
X430276Y337233D02*
X428894Y337051D01*
X426422Y336027D01*
X424300Y334398D01*
X422671Y332276D01*
X421647Y329804D01*
X421465Y328422D01*
X430276D01*
Y337233D01*
D02*
G37*
G36*
X356870Y339772D02*
X355488Y339590D01*
X353016Y338567D01*
X350894Y336938D01*
X349265Y334816D01*
X348242Y332344D01*
X348060Y330962D01*
X356870D01*
Y339772D01*
D02*
G37*
G36*
X432816Y337233D02*
Y328422D01*
X441627D01*
X441445Y329804D01*
X440421Y332276D01*
X438792Y334398D01*
X436670Y336027D01*
X434198Y337051D01*
X432816Y337233D01*
D02*
G37*
G36*
X622260Y355619D02*
Y352258D01*
X625621D01*
X625502Y352857D01*
X624443Y354441D01*
X622859Y355500D01*
X622260Y355619D01*
D02*
G37*
G36*
X448818Y400337D02*
X447445Y400064D01*
X446280Y399286D01*
X445502Y398121D01*
X445474Y397980D01*
X444418Y397275D01*
X443270Y397503D01*
X441897Y397230D01*
X440732Y396452D01*
X439954Y395287D01*
X439681Y393914D01*
X439954Y392541D01*
X440732Y391376D01*
X441897Y390598D01*
X443270Y390325D01*
X444643Y390598D01*
X445808Y391376D01*
X446586Y392541D01*
X446614Y392682D01*
X447670Y393387D01*
X448818Y393159D01*
X450191Y393432D01*
X450435Y393595D01*
X451681Y393347D01*
X452122Y392686D01*
X453287Y391908D01*
X454660Y391635D01*
X456033Y391908D01*
X457198Y392686D01*
X457892Y392228D01*
X457892Y392228D01*
X459057Y391450D01*
X460430Y391176D01*
X461803Y391450D01*
X462968Y392228D01*
X463746Y393392D01*
X464019Y394765D01*
X463746Y396139D01*
X462968Y397303D01*
X461803Y398081D01*
X460430Y398354D01*
X459057Y398081D01*
X457892Y397303D01*
X457198Y397762D01*
X457198Y397762D01*
X456033Y398540D01*
X454660Y398813D01*
X453287Y398540D01*
X453043Y398377D01*
X451797Y398625D01*
X451356Y399286D01*
X450191Y400064D01*
X448818Y400337D01*
D02*
G37*
G36*
X505265Y399796D02*
X501904D01*
Y396435D01*
X502503Y396554D01*
X504087Y397613D01*
X505146Y399197D01*
X505265Y399796D01*
D02*
G37*
G36*
X413004Y405671D02*
X411631Y405398D01*
X410466Y404620D01*
X409688Y403455D01*
X409415Y402082D01*
X409688Y400709D01*
X410466Y399544D01*
X411631Y398766D01*
X413004Y398493D01*
X414377Y398766D01*
X415542Y399544D01*
X416320Y400709D01*
X416593Y402082D01*
X416320Y403455D01*
X415542Y404620D01*
X414377Y405398D01*
X413004Y405671D01*
D02*
G37*
G36*
X362966Y409448D02*
X354156D01*
X354338Y408066D01*
X355361Y405594D01*
X356990Y403472D01*
X359112Y401843D01*
X361584Y400820D01*
X362966Y400638D01*
Y409448D01*
D02*
G37*
G36*
X577250Y409573D02*
X575877Y409300D01*
X574712Y408522D01*
X573934Y407357D01*
X573661Y405984D01*
X573934Y404611D01*
X574712Y403446D01*
X575877Y402668D01*
X577250Y402395D01*
X577980Y402540D01*
X600790D01*
X601877Y401814D01*
X603250Y401541D01*
X604623Y401814D01*
X605788Y402592D01*
X606566Y403757D01*
X606578Y403818D01*
X607848D01*
X608062Y402741D01*
X608840Y401576D01*
X610005Y400798D01*
X611378Y400525D01*
X612751Y400798D01*
X613916Y401576D01*
X614694Y402741D01*
X614967Y404114D01*
X614694Y405487D01*
X613916Y406652D01*
X612751Y407430D01*
X611378Y407703D01*
X610005Y407430D01*
X608840Y406652D01*
X608062Y405487D01*
X608050Y405426D01*
X606780D01*
X606566Y406503D01*
X605788Y407668D01*
X604623Y408446D01*
X603250Y408719D01*
X601877Y408446D01*
X600790Y407720D01*
X580324D01*
X579788Y408522D01*
X578623Y409300D01*
X577250Y409573D01*
D02*
G37*
G36*
X499364Y399796D02*
X496003D01*
X496122Y399197D01*
X497181Y397613D01*
X498765Y396554D01*
X499364Y396435D01*
Y399796D01*
D02*
G37*
G36*
X535178Y390711D02*
Y387350D01*
X538539D01*
X538420Y387949D01*
X537361Y389533D01*
X535777Y390592D01*
X535178Y390711D01*
D02*
G37*
G36*
X532638D02*
X532039Y390592D01*
X530455Y389533D01*
X529396Y387949D01*
X529277Y387350D01*
X532638D01*
Y390711D01*
D02*
G37*
G36*
X363220Y393147D02*
X362621Y393028D01*
X361037Y391969D01*
X359978Y390385D01*
X359859Y389786D01*
X363220D01*
Y393147D01*
D02*
G37*
G36*
X337616Y400541D02*
X336243Y400268D01*
X335078Y399490D01*
X334300Y398325D01*
X334027Y396952D01*
X334300Y395579D01*
X335078Y394414D01*
X336243Y393636D01*
X337616Y393363D01*
X338989Y393636D01*
X340154Y394414D01*
X340932Y395579D01*
X341205Y396952D01*
X340932Y398325D01*
X340154Y399490D01*
X338989Y400268D01*
X337616Y400541D01*
D02*
G37*
G36*
X365760Y393147D02*
Y389786D01*
X369121D01*
X369002Y390385D01*
X367943Y391969D01*
X366359Y393028D01*
X365760Y393147D01*
D02*
G37*
G36*
X365506Y420798D02*
Y411988D01*
X374316D01*
X374134Y413370D01*
X373111Y415842D01*
X371482Y417964D01*
X369360Y419593D01*
X366888Y420616D01*
X365506Y420798D01*
D02*
G37*
G36*
X362966D02*
X361584Y420616D01*
X359112Y419593D01*
X356990Y417964D01*
X355361Y415842D01*
X354338Y413370D01*
X354156Y411988D01*
X362966D01*
Y420798D01*
D02*
G37*
G36*
X432308Y422068D02*
X430926Y421886D01*
X428454Y420863D01*
X426332Y419234D01*
X424703Y417112D01*
X423680Y414640D01*
X423498Y413258D01*
X432308D01*
Y422068D01*
D02*
G37*
G36*
X328422Y425991D02*
X327049Y425718D01*
X325884Y424940D01*
X325106Y423775D01*
X324833Y422402D01*
X325106Y421029D01*
X325884Y419864D01*
X327049Y419086D01*
X328422Y418813D01*
X329795Y419086D01*
X330960Y419864D01*
X331738Y421029D01*
X332011Y422402D01*
X331738Y423775D01*
X330960Y424940D01*
X329795Y425718D01*
X328422Y425991D01*
D02*
G37*
G36*
X434848Y422068D02*
Y413258D01*
X443658D01*
X443476Y414640D01*
X442453Y417112D01*
X440824Y419234D01*
X438702Y420863D01*
X436230Y421886D01*
X434848Y422068D01*
D02*
G37*
G36*
X477012Y413291D02*
X475639Y413018D01*
X474474Y412240D01*
X473696Y411075D01*
X473423Y409702D01*
X473696Y408329D01*
X474474Y407164D01*
X475639Y406386D01*
X477012Y406113D01*
X478385Y406386D01*
X479550Y407164D01*
X480328Y408329D01*
X480601Y409702D01*
X480328Y411075D01*
X479550Y412240D01*
X478385Y413018D01*
X477012Y413291D01*
D02*
G37*
G36*
X432308Y410718D02*
X423498D01*
X423680Y409336D01*
X424703Y406864D01*
X426332Y404742D01*
X428454Y403113D01*
X430926Y402090D01*
X432308Y401908D01*
Y410718D01*
D02*
G37*
G36*
X374316Y409448D02*
X365506D01*
Y400638D01*
X366888Y400820D01*
X369360Y401843D01*
X371482Y403472D01*
X373111Y405594D01*
X374134Y408066D01*
X374316Y409448D01*
D02*
G37*
G36*
X443658Y410718D02*
X434848D01*
Y401908D01*
X436230Y402090D01*
X438702Y403113D01*
X440824Y404742D01*
X442453Y406864D01*
X443476Y409336D01*
X443658Y410718D01*
D02*
G37*
G36*
X501904Y405697D02*
Y402336D01*
X505265D01*
X505146Y402935D01*
X504087Y404519D01*
X502503Y405578D01*
X501904Y405697D01*
D02*
G37*
G36*
X499364D02*
X498765Y405578D01*
X497181Y404519D01*
X496122Y402935D01*
X496003Y402336D01*
X499364D01*
Y405697D01*
D02*
G37*
G36*
X345186Y370111D02*
X343813Y369838D01*
X342648Y369060D01*
X341870Y367895D01*
X341597Y366522D01*
X341870Y365149D01*
X342648Y363984D01*
X343813Y363206D01*
X345186Y362933D01*
X346559Y363206D01*
X347724Y363984D01*
X348502Y365149D01*
X348775Y366522D01*
X348502Y367895D01*
X347724Y369060D01*
X346559Y369838D01*
X345186Y370111D01*
D02*
G37*
G36*
X378206Y369095D02*
X376833Y368822D01*
X375668Y368044D01*
X374890Y366879D01*
X374617Y365506D01*
X374890Y364133D01*
X375668Y362968D01*
X376833Y362190D01*
X378206Y361917D01*
X379579Y362190D01*
X380744Y362968D01*
X381522Y364133D01*
X381795Y365506D01*
X381522Y366879D01*
X380744Y368044D01*
X379579Y368822D01*
X378206Y369095D01*
D02*
G37*
G36*
X475742Y377731D02*
X474369Y377458D01*
X473204Y376680D01*
X472426Y375515D01*
X472153Y374142D01*
X472426Y372769D01*
X473204Y371604D01*
X473398Y371475D01*
Y370205D01*
X473204Y370076D01*
X472426Y368911D01*
X472153Y367538D01*
X472426Y366165D01*
X473204Y365000D01*
X474369Y364222D01*
X475742Y363949D01*
X477115Y364222D01*
X478280Y365000D01*
X479058Y366165D01*
X479331Y367538D01*
X479058Y368911D01*
X478280Y370076D01*
X478086Y370205D01*
Y371475D01*
X478280Y371604D01*
X479058Y372769D01*
X479331Y374142D01*
X479058Y375515D01*
X478280Y376680D01*
X477115Y377458D01*
X475742Y377731D01*
D02*
G37*
G36*
X602488Y369121D02*
X601889Y369002D01*
X600305Y367943D01*
X599246Y366359D01*
X599127Y365760D01*
X602488D01*
Y369121D01*
D02*
G37*
G36*
X547370Y372905D02*
X545997Y372632D01*
X544832Y371854D01*
X544054Y370689D01*
X543781Y369316D01*
X544054Y367943D01*
X544832Y366778D01*
X545997Y366000D01*
X547370Y365727D01*
X548743Y366000D01*
X549908Y366778D01*
X550686Y367943D01*
X550959Y369316D01*
X550686Y370689D01*
X549908Y371854D01*
X548743Y372632D01*
X547370Y372905D01*
D02*
G37*
G36*
X358140Y368841D02*
X356767Y368568D01*
X355602Y367790D01*
X354824Y366625D01*
X354551Y365252D01*
X354824Y363879D01*
X355602Y362714D01*
X356767Y361936D01*
X358140Y361663D01*
X359513Y361936D01*
X360678Y362714D01*
X361456Y363879D01*
X361729Y365252D01*
X361456Y366625D01*
X360678Y367790D01*
X359513Y368568D01*
X358140Y368841D01*
D02*
G37*
G36*
X602488Y363220D02*
X599127D01*
X599246Y362621D01*
X600305Y361037D01*
X601889Y359978D01*
X602488Y359859D01*
Y363220D01*
D02*
G37*
G36*
X619720Y355619D02*
X619121Y355500D01*
X618170Y354864D01*
X617859Y355072D01*
X617260Y355191D01*
Y350560D01*
Y345929D01*
X617859Y346048D01*
X618810Y346684D01*
X619121Y346476D01*
X619720Y346357D01*
Y350988D01*
Y355619D01*
D02*
G37*
G36*
X608389Y363220D02*
X605028D01*
Y359859D01*
X605627Y359978D01*
X607211Y361037D01*
X608270Y362621D01*
X608389Y363220D01*
D02*
G37*
G36*
X562356Y368587D02*
X560983Y368314D01*
X559818Y367536D01*
X559040Y366371D01*
X558767Y364998D01*
X559040Y363625D01*
X559818Y362460D01*
X560983Y361682D01*
X562356Y361409D01*
X563729Y361682D01*
X564894Y362460D01*
X565672Y363625D01*
X565945Y364998D01*
X565672Y366371D01*
X564894Y367536D01*
X563729Y368314D01*
X562356Y368587D01*
D02*
G37*
G36*
X634532Y368119D02*
X633159Y367846D01*
X631994Y367068D01*
X631216Y365903D01*
X630943Y364530D01*
X631216Y363157D01*
X631994Y361992D01*
X633159Y361214D01*
X634532Y360941D01*
X635905Y361214D01*
X637070Y361992D01*
X637848Y363157D01*
X638121Y364530D01*
X637848Y365903D01*
X637070Y367068D01*
X635905Y367846D01*
X634532Y368119D01*
D02*
G37*
G36*
X532638Y384810D02*
X529277D01*
X529396Y384211D01*
X530455Y382627D01*
X532039Y381568D01*
X532638Y381449D01*
Y384810D01*
D02*
G37*
G36*
X411480Y385859D02*
X410107Y385586D01*
X408942Y384808D01*
X408164Y383643D01*
X407891Y382270D01*
X408164Y380897D01*
X408942Y379732D01*
X410107Y378954D01*
X411480Y378681D01*
X412853Y378954D01*
X414018Y379732D01*
X414796Y380897D01*
X415069Y382270D01*
X414796Y383643D01*
X414018Y384808D01*
X412853Y385586D01*
X411480Y385859D01*
D02*
G37*
G36*
X538539Y384810D02*
X535178D01*
Y381449D01*
X535777Y381568D01*
X537361Y382627D01*
X538420Y384211D01*
X538539Y384810D01*
D02*
G37*
G36*
X369121Y387246D02*
X365760D01*
Y383885D01*
X366359Y384004D01*
X367943Y385063D01*
X369002Y386647D01*
X369121Y387246D01*
D02*
G37*
G36*
X363220D02*
X359859D01*
X359978Y386647D01*
X361037Y385063D01*
X362621Y384004D01*
X363220Y383885D01*
Y387246D01*
D02*
G37*
G36*
X546862Y382557D02*
X545489Y382284D01*
X544324Y381506D01*
X543546Y380341D01*
X543273Y378968D01*
X543546Y377595D01*
X544324Y376430D01*
X545489Y375652D01*
X546862Y375379D01*
X548235Y375652D01*
X549400Y376430D01*
X550178Y377595D01*
X550451Y378968D01*
X550178Y380341D01*
X549400Y381506D01*
X548235Y382284D01*
X546862Y382557D01*
D02*
G37*
G36*
X510540Y371635D02*
X509167Y371362D01*
X508002Y370584D01*
X507449Y369756D01*
X506179D01*
X505966Y370076D01*
X504801Y370854D01*
X503428Y371127D01*
X502055Y370854D01*
X500890Y370076D01*
X500112Y368911D01*
X499839Y367538D01*
X500112Y366165D01*
X500890Y365000D01*
X502055Y364222D01*
X503428Y363949D01*
X504801Y364222D01*
X505966Y365000D01*
X506519Y365828D01*
X507789D01*
X508002Y365508D01*
X509167Y364730D01*
X510540Y364457D01*
X511913Y364730D01*
X513078Y365508D01*
X513856Y366673D01*
X514129Y368046D01*
X513856Y369419D01*
X513078Y370584D01*
X511913Y371362D01*
X510540Y371635D01*
D02*
G37*
G36*
X605028Y369121D02*
Y365760D01*
X608389D01*
X608270Y366359D01*
X607211Y367943D01*
X605627Y369002D01*
X605028Y369121D01*
D02*
G37*
G36*
X599948Y378493D02*
X598575Y378220D01*
X597410Y377442D01*
X596632Y376277D01*
X596359Y374904D01*
X596632Y373531D01*
X597410Y372366D01*
X598575Y371588D01*
X599948Y371315D01*
X601321Y371588D01*
X602486Y372366D01*
X603264Y373531D01*
X603537Y374904D01*
X603264Y376277D01*
X602486Y377442D01*
X601321Y378220D01*
X599948Y378493D01*
D02*
G37*
G36*
X502666Y381795D02*
X501293Y381522D01*
X500128Y380744D01*
X499350Y379579D01*
X499077Y378206D01*
X499350Y376833D01*
X500128Y375668D01*
X501293Y374890D01*
X502666Y374617D01*
X504039Y374890D01*
X505204Y375668D01*
X505982Y376833D01*
X506255Y378206D01*
X505982Y379579D01*
X505204Y380744D01*
X504039Y381522D01*
X502666Y381795D01*
D02*
G37*
G36*
X318262Y379255D02*
X316889Y378982D01*
X315724Y378204D01*
X314946Y377039D01*
X314673Y375666D01*
X314946Y374293D01*
X315724Y373128D01*
X316889Y372350D01*
X318262Y372077D01*
X319635Y372350D01*
X320800Y373128D01*
X321578Y374293D01*
X321851Y375666D01*
X321578Y377039D01*
X320800Y378204D01*
X319635Y378982D01*
X318262Y379255D01*
D02*
G37*
%LPD*%
D29*
X392430Y334518D02*
X411988D01*
X387350Y329438D02*
X392430Y334518D01*
D30*
X564250Y332624D02*
X590412D01*
X577088Y405130D02*
X603250D01*
D32*
X433578Y411988D02*
D03*
X431546Y327152D02*
D03*
X358140Y329692D02*
D03*
X364236Y410718D02*
D03*
D33*
X387350Y329438D02*
D03*
X364490Y388516D02*
D03*
X590412Y332624D02*
D03*
X564250D02*
D03*
X603250Y405130D02*
D03*
X577250Y405984D02*
D03*
X533908Y386080D02*
D03*
X509778Y326390D02*
D03*
X378714Y344170D02*
D03*
X467614Y329946D02*
D03*
X412162Y341550D02*
D03*
X500634Y401066D02*
D03*
X411988Y334518D02*
D03*
X603758Y364490D02*
D03*
X615990Y350560D02*
D03*
X620990Y350988D02*
D03*
X643382Y350266D02*
D03*
X647446Y339598D02*
D03*
M02*
