M48
;Layer_Color=9474304
;FILE_FORMAT=4:4
METRIC,LZ
;TYPE=PLATED
T1F00S00C0.2000
T2F00S00C0.7620
%
T01
X0080752Y00694998
X00816864Y00689864
X00824484Y00700278
X00824992Y00727456
Y0073406
X00851916Y00738124
X00852678Y00727456
X0085979Y00727964
X0089662Y00729234
X00896112Y00738886
X00883158Y00745998
X00886254Y00707136
X00901954Y00708914
X00922528Y00705358
X0092202Y00697484
X009135Y00692542
X00939662
X00954786Y00696722
X0096524Y00710478
X0097024Y00710906
X00992632Y00710184
X00996696Y00699516
Y00687832
X00983782Y00724448
X00953008Y00724408
X00949198Y00734822
X009525Y00765048
X00960628Y00764032
X009265Y00765902
X00911606Y00724916
X00877316Y00682752
X00859028Y00686308
X00849884Y00760984
X00826262Y0076962
X0080968Y00754683
X0080391Y00755142
X00798068Y00756666
X0079252Y00753832
X00762254Y00762
X0076073Y00742188
X00761412Y00701468
X00761238Y00694436
X007366Y00689356
X00727964Y00704088
X00726186Y00711708
X00727456Y00725424
X0070739Y0072517
X00694436Y0072644
X00667512Y00735584
X00667766Y0071247
X0067056Y0067945
X00686866Y0075687
X00677672Y0078232
X0071374Y00748434
T02
X0070739Y0068961
X00780796Y0068707
X00782828Y00771906
X00713486Y00770636
M30
