%FSLAX44Y44*%
%MOMM*%
G71*
G01*
G75*
G04 Layer_Physical_Order=4*
G04 Layer_Color=16711680*
%ADD10C,1.0000*%
%ADD11R,0.6000X0.5000*%
G04:AMPARAMS|DCode=12|XSize=0.508mm|YSize=0.6096mm|CornerRadius=0.127mm|HoleSize=0mm|Usage=FLASHONLY|Rotation=0.000|XOffset=0mm|YOffset=0mm|HoleType=Round|Shape=RoundedRectangle|*
%AMROUNDEDRECTD12*
21,1,0.5080,0.3556,0,0,0.0*
21,1,0.2540,0.6096,0,0,0.0*
1,1,0.2540,0.1270,-0.1778*
1,1,0.2540,-0.1270,-0.1778*
1,1,0.2540,-0.1270,0.1778*
1,1,0.2540,0.1270,0.1778*
%
%ADD12ROUNDEDRECTD12*%
%ADD13P,1.7321X8X22.5*%
G04:AMPARAMS|DCode=14|XSize=0.508mm|YSize=0.6096mm|CornerRadius=0.127mm|HoleSize=0mm|Usage=FLASHONLY|Rotation=270.000|XOffset=0mm|YOffset=0mm|HoleType=Round|Shape=RoundedRectangle|*
%AMROUNDEDRECTD14*
21,1,0.5080,0.3556,0,0,270.0*
21,1,0.2540,0.6096,0,0,270.0*
1,1,0.2540,-0.1778,-0.1270*
1,1,0.2540,-0.1778,0.1270*
1,1,0.2540,0.1778,0.1270*
1,1,0.2540,0.1778,-0.1270*
%
%ADD14ROUNDEDRECTD14*%
G04:AMPARAMS|DCode=15|XSize=0.7112mm|YSize=1.3208mm|CornerRadius=0.1778mm|HoleSize=0mm|Usage=FLASHONLY|Rotation=0.000|XOffset=0mm|YOffset=0mm|HoleType=Round|Shape=RoundedRectangle|*
%AMROUNDEDRECTD15*
21,1,0.7112,0.9652,0,0,0.0*
21,1,0.3556,1.3208,0,0,0.0*
1,1,0.3556,0.1778,-0.4826*
1,1,0.3556,-0.1778,-0.4826*
1,1,0.3556,-0.1778,0.4826*
1,1,0.3556,0.1778,0.4826*
%
%ADD15ROUNDEDRECTD15*%
G04:AMPARAMS|DCode=16|XSize=0.275mm|YSize=0.275mm|CornerRadius=0.0688mm|HoleSize=0mm|Usage=FLASHONLY|Rotation=90.000|XOffset=0mm|YOffset=0mm|HoleType=Round|Shape=RoundedRectangle|*
%AMROUNDEDRECTD16*
21,1,0.2750,0.1375,0,0,90.0*
21,1,0.1375,0.2750,0,0,90.0*
1,1,0.1375,0.0688,0.0688*
1,1,0.1375,0.0688,-0.0688*
1,1,0.1375,-0.0688,-0.0688*
1,1,0.1375,-0.0688,0.0688*
%
%ADD16ROUNDEDRECTD16*%
G04:AMPARAMS|DCode=17|XSize=0.275mm|YSize=0.275mm|CornerRadius=0.0688mm|HoleSize=0mm|Usage=FLASHONLY|Rotation=180.000|XOffset=0mm|YOffset=0mm|HoleType=Round|Shape=RoundedRectangle|*
%AMROUNDEDRECTD17*
21,1,0.2750,0.1375,0,0,180.0*
21,1,0.1375,0.2750,0,0,180.0*
1,1,0.1375,-0.0688,0.0688*
1,1,0.1375,0.0688,0.0688*
1,1,0.1375,0.0688,-0.0688*
1,1,0.1375,-0.0688,-0.0688*
%
%ADD17ROUNDEDRECTD17*%
%ADD18R,0.6096X0.5080*%
%ADD19R,0.5000X0.6000*%
%ADD20R,1.0000X0.6000*%
%ADD21R,0.8500X0.3000*%
%ADD22R,1.3000X2.0000*%
%ADD23R,0.4000X0.4000*%
%ADD24R,0.6000X0.5500*%
%ADD25R,1.4000X1.2000*%
%ADD26R,3.4500X3.4500*%
%ADD27O,0.3000X0.6000*%
%ADD28O,0.6000X0.3000*%
%ADD29C,0.1270*%
%ADD30C,0.2540*%
%ADD31C,0.3000*%
%ADD32C,1.5240*%
%ADD33C,0.4500*%
G04:AMPARAMS|DCode=34|XSize=0.7mm|YSize=1.8mm|CornerRadius=0.175mm|HoleSize=0mm|Usage=FLASHONLY|Rotation=270.000|XOffset=0mm|YOffset=0mm|HoleType=Round|Shape=RoundedRectangle|*
%AMROUNDEDRECTD34*
21,1,0.7000,1.4500,0,0,270.0*
21,1,0.3500,1.8000,0,0,270.0*
1,1,0.3500,-0.7250,-0.1750*
1,1,0.3500,-0.7250,0.1750*
1,1,0.3500,0.7250,0.1750*
1,1,0.3500,0.7250,-0.1750*
%
%ADD34ROUNDEDRECTD34*%
G04:AMPARAMS|DCode=35|XSize=1.6mm|YSize=2.2mm|CornerRadius=0.4mm|HoleSize=0mm|Usage=FLASHONLY|Rotation=270.000|XOffset=0mm|YOffset=0mm|HoleType=Round|Shape=RoundedRectangle|*
%AMROUNDEDRECTD35*
21,1,1.6000,1.4000,0,0,270.0*
21,1,0.8000,2.2000,0,0,270.0*
1,1,0.8000,-0.7000,-0.4000*
1,1,0.8000,-0.7000,0.4000*
1,1,0.8000,0.7000,0.4000*
1,1,0.8000,0.7000,-0.4000*
%
%ADD35ROUNDEDRECTD35*%
%ADD36O,0.6000X1.6500*%
G04:AMPARAMS|DCode=37|XSize=0.6096mm|YSize=1.7018mm|CornerRadius=0.3048mm|HoleSize=0mm|Usage=FLASHONLY|Rotation=270.000|XOffset=0mm|YOffset=0mm|HoleType=Round|Shape=RoundedRectangle|*
%AMROUNDEDRECTD37*
21,1,0.6096,1.0922,0,0,270.0*
21,1,0.0000,1.7018,0,0,270.0*
1,1,0.6096,-0.5461,0.0000*
1,1,0.6096,-0.5461,0.0000*
1,1,0.6096,0.5461,0.0000*
1,1,0.6096,0.5461,0.0000*
%
%ADD37ROUNDEDRECTD37*%
G04:AMPARAMS|DCode=38|XSize=2.8194mm|YSize=1.016mm|CornerRadius=0.508mm|HoleSize=0mm|Usage=FLASHONLY|Rotation=180.000|XOffset=0mm|YOffset=0mm|HoleType=Round|Shape=RoundedRectangle|*
%AMROUNDEDRECTD38*
21,1,2.8194,0.0000,0,0,180.0*
21,1,1.8034,1.0160,0,0,180.0*
1,1,1.0160,-0.9017,0.0000*
1,1,1.0160,0.9017,0.0000*
1,1,1.0160,0.9017,0.0000*
1,1,1.0160,-0.9017,0.0000*
%
%ADD38ROUNDEDRECTD38*%
G36*
X680590Y429909D02*
X693053Y417446D01*
X693143Y417229D01*
Y316577D01*
X693053Y316360D01*
X680590Y303897D01*
X680373Y303807D01*
X325213D01*
X324996Y303897D01*
X313030Y315862D01*
X313033Y315871D01*
D01*
D01*
D01*
X313033Y315871D01*
X313033Y315871D01*
X312897Y316199D01*
X312897D01*
X312869Y316202D01*
X312840Y316230D01*
X312840Y316230D01*
X312840Y316230D01*
X312840Y316230D01*
X312830Y316255D01*
D01*
D01*
D01*
X312830Y316255D01*
X312774Y316391D01*
X312774D01*
X312774Y316391D01*
X312705Y316556D01*
Y316556D01*
D01*
X312697Y316577D01*
Y417229D01*
X312787Y417446D01*
X325250Y429909D01*
X325467Y429999D01*
X680373D01*
X680590Y429909D01*
D02*
G37*
%LPC*%
G36*
X383345Y342900D02*
X374083D01*
X374202Y342301D01*
X374521Y341823D01*
X374453Y341306D01*
X374038Y340530D01*
X366604D01*
Y334114D01*
X381870D01*
X381775Y334833D01*
X381007Y336687D01*
X379786Y338279D01*
X379743Y338311D01*
X380031Y339548D01*
X380583Y339658D01*
X382167Y340717D01*
X383226Y342301D01*
X383345Y342900D01*
D02*
G37*
G36*
X364064Y340530D02*
X359410D01*
Y334114D01*
X364064D01*
Y340530D01*
D02*
G37*
G36*
X652077Y338328D02*
X648716D01*
Y334967D01*
X649315Y335086D01*
X650899Y336145D01*
X651958Y337729D01*
X652077Y338328D01*
D02*
G37*
G36*
X646176D02*
X642815D01*
X642934Y337729D01*
X643993Y336145D01*
X645577Y335086D01*
X646176Y334967D01*
Y338328D01*
D02*
G37*
G36*
X356870Y340530D02*
X356317D01*
X354328Y340268D01*
X352474Y339500D01*
X350882Y338279D01*
X349661Y336687D01*
X348893Y334833D01*
X348798Y334114D01*
X356870D01*
Y340530D01*
D02*
G37*
G36*
X466344Y334577D02*
X465745Y334458D01*
X464161Y333399D01*
X463102Y331815D01*
X462983Y331216D01*
X466344D01*
Y334577D01*
D02*
G37*
G36*
X356870Y331574D02*
X348140D01*
X348060Y330962D01*
X356870D01*
Y331574D01*
D02*
G37*
G36*
X440137Y339768D02*
X432390D01*
Y333352D01*
X447656D01*
X447561Y334071D01*
X446793Y335925D01*
X445572Y337517D01*
X443980Y338738D01*
X442126Y339506D01*
X440137Y339768D01*
D02*
G37*
G36*
X468884Y334577D02*
Y331216D01*
X472245D01*
X472126Y331815D01*
X471067Y333399D01*
X469483Y334458D01*
X468884Y334577D01*
D02*
G37*
G36*
X614720Y349290D02*
X611359D01*
X611478Y348691D01*
X612537Y347107D01*
X614121Y346048D01*
X614720Y345929D01*
Y349290D01*
D02*
G37*
G36*
X648013Y348996D02*
X644652D01*
Y345635D01*
X645251Y345754D01*
X646835Y346813D01*
X647894Y348397D01*
X648013Y348996D01*
D02*
G37*
G36*
X642112Y354897D02*
X641513Y354778D01*
X639929Y353719D01*
X638870Y352135D01*
X638751Y351536D01*
X642112D01*
Y354897D01*
D02*
G37*
G36*
X625621Y349718D02*
X622260D01*
Y346357D01*
X622859Y346476D01*
X624443Y347535D01*
X625502Y349119D01*
X625621Y349718D01*
D02*
G37*
G36*
X642112Y348996D02*
X638751D01*
X638870Y348397D01*
X639929Y346813D01*
X641513Y345754D01*
X642112Y345635D01*
Y348996D01*
D02*
G37*
G36*
X648716Y344229D02*
Y340868D01*
X652077D01*
X651958Y341467D01*
X650899Y343051D01*
X649315Y344110D01*
X648716Y344229D01*
D02*
G37*
G36*
X646176D02*
X645577Y344110D01*
X643993Y343051D01*
X642934Y341467D01*
X642815Y340868D01*
X646176D01*
Y344229D01*
D02*
G37*
G36*
X413432Y346181D02*
Y342820D01*
X416793D01*
X416674Y343419D01*
X415615Y345003D01*
X414031Y346062D01*
X413432Y346181D01*
D02*
G37*
G36*
X410892D02*
X410293Y346062D01*
X408709Y345003D01*
X407650Y343419D01*
X407531Y342820D01*
X410892D01*
Y346181D01*
D02*
G37*
G36*
X647446Y331503D02*
X646073Y331230D01*
X644908Y330452D01*
X644130Y329287D01*
X643991Y328587D01*
X643916Y328556D01*
X642250Y328888D01*
X640584Y328556D01*
X639171Y327612D01*
X638228Y326200D01*
X637896Y324534D01*
Y314034D01*
X638228Y312368D01*
X639171Y310956D01*
X640584Y310012D01*
X642250Y309680D01*
X643916Y310012D01*
X645329Y310956D01*
X646272Y312368D01*
X646604Y314034D01*
Y320090D01*
X647446Y324325D01*
X648819Y324598D01*
X649984Y325376D01*
X650762Y326541D01*
X651035Y327914D01*
X650762Y329287D01*
X649984Y330452D01*
X648819Y331230D01*
X647446Y331503D01*
D02*
G37*
G36*
X528066Y326423D02*
X526693Y326150D01*
X525528Y325372D01*
X524750Y324207D01*
X524477Y322834D01*
X524750Y321461D01*
X525528Y320296D01*
X526693Y319518D01*
X528066Y319245D01*
X529439Y319518D01*
X530604Y320296D01*
X531382Y321461D01*
X531655Y322834D01*
X531382Y324207D01*
X530604Y325372D01*
X529439Y326150D01*
X528066Y326423D01*
D02*
G37*
G36*
X416793Y340280D02*
X407531D01*
X407650Y339681D01*
X408709Y338097D01*
X408955Y337932D01*
X409203Y336686D01*
X408672Y335891D01*
X408399Y334518D01*
X408672Y333145D01*
X409450Y331980D01*
X410615Y331202D01*
X411988Y330929D01*
X413361Y331202D01*
X413438Y331254D01*
X414595Y330730D01*
X414679Y330093D01*
X415447Y328239D01*
X416668Y326647D01*
X418260Y325426D01*
X420114Y324658D01*
X421667Y324454D01*
X422671Y322028D01*
X424300Y319906D01*
X426422Y318277D01*
X428894Y317253D01*
X430276Y317071D01*
Y327152D01*
X432816D01*
Y317071D01*
X434198Y317253D01*
X436670Y318277D01*
X438792Y319906D01*
X440421Y322028D01*
X441445Y324500D01*
X441454Y324570D01*
X442126Y324658D01*
X443980Y325426D01*
X445572Y326647D01*
X446793Y328239D01*
X447561Y330093D01*
X447656Y330812D01*
X431120D01*
Y332082D01*
X429850D01*
Y339768D01*
X422103D01*
X420114Y339506D01*
X418260Y338738D01*
X416805Y337621D01*
X415878Y338490D01*
X416674Y339681D01*
X416793Y340280D01*
D02*
G37*
G36*
X381870Y331574D02*
X359410D01*
Y329692D01*
Y319611D01*
X360792Y319793D01*
X363264Y320817D01*
X365386Y322446D01*
X367015Y324568D01*
X367259Y325158D01*
X374351D01*
X376340Y325420D01*
X378194Y326188D01*
X379786Y327409D01*
X381007Y329001D01*
X381775Y330855D01*
X381870Y331574D01*
D02*
G37*
G36*
X356870Y328422D02*
X348060D01*
X348242Y327040D01*
X349265Y324568D01*
X350894Y322446D01*
X353016Y320817D01*
X355488Y319793D01*
X356870Y319611D01*
Y328422D01*
D02*
G37*
G36*
X492506Y323510D02*
X480180D01*
Y320780D01*
X480404Y319073D01*
X481063Y317482D01*
X482112Y316116D01*
X483478Y315067D01*
X485069Y314408D01*
X486776Y314184D01*
X492506D01*
Y323510D01*
D02*
G37*
G36*
X634898Y318014D02*
X630520D01*
Y308638D01*
X631412Y308815D01*
X633244Y310040D01*
X634469Y311872D01*
X634898Y314034D01*
Y318014D01*
D02*
G37*
G36*
X627980D02*
X623601D01*
Y314034D01*
X624031Y311872D01*
X625256Y310040D01*
X627088Y308815D01*
X627980Y308638D01*
Y318014D01*
D02*
G37*
G36*
X590412Y336213D02*
X589039Y335940D01*
X587874Y335162D01*
X587096Y333997D01*
X586823Y332624D01*
X587096Y331251D01*
X587822Y330164D01*
Y328047D01*
X587172Y327612D01*
X586228Y326200D01*
X585896Y324534D01*
Y314034D01*
X586228Y312368D01*
X587172Y310956D01*
X588584Y310012D01*
X590250Y309680D01*
X591916Y310012D01*
X593329Y310956D01*
X594272Y312368D01*
X594604Y314034D01*
Y324534D01*
X594272Y326200D01*
X593329Y327612D01*
X593002Y327831D01*
Y330164D01*
X593728Y331251D01*
X594001Y332624D01*
X593728Y333997D01*
X592950Y335162D01*
X591785Y335940D01*
X590412Y336213D01*
D02*
G37*
G36*
X564250D02*
X562877Y335940D01*
X561712Y335162D01*
X560934Y333997D01*
X560661Y332624D01*
X560934Y331251D01*
X561660Y330164D01*
Y327939D01*
X561171Y327612D01*
X560228Y326200D01*
X559896Y324534D01*
Y314034D01*
X560228Y312368D01*
X561171Y310956D01*
X562584Y310012D01*
X564250Y309680D01*
X565916Y310012D01*
X567328Y310956D01*
X568272Y312368D01*
X568604Y314034D01*
Y324534D01*
X568272Y326200D01*
X567328Y327612D01*
X566840Y327939D01*
Y330164D01*
X567566Y331251D01*
X567839Y332624D01*
X567566Y333997D01*
X566788Y335162D01*
X565623Y335940D01*
X564250Y336213D01*
D02*
G37*
G36*
X387350Y333027D02*
X385977Y332754D01*
X384812Y331976D01*
X384034Y330811D01*
X383761Y329438D01*
X384034Y328065D01*
X384812Y326900D01*
X385977Y326122D01*
X387350Y325849D01*
X388723Y326122D01*
X389888Y326900D01*
X390666Y328065D01*
X390939Y329438D01*
X390666Y330811D01*
X389888Y331976D01*
X388723Y332754D01*
X387350Y333027D01*
D02*
G37*
G36*
X472245Y328676D02*
X468884D01*
Y325315D01*
X469483Y325434D01*
X471067Y326493D01*
X472126Y328077D01*
X472245Y328676D01*
D02*
G37*
G36*
X511048Y331021D02*
Y327660D01*
X514409D01*
X514290Y328259D01*
X513231Y329843D01*
X511647Y330902D01*
X511048Y331021D01*
D02*
G37*
G36*
X492506Y335376D02*
X486776D01*
X485069Y335152D01*
X483478Y334493D01*
X482112Y333444D01*
X481063Y332078D01*
X480404Y330487D01*
X480180Y328780D01*
Y326050D01*
X492506D01*
Y335376D01*
D02*
G37*
G36*
X466344Y328676D02*
X462983D01*
X463102Y328077D01*
X464161Y326493D01*
X465745Y325434D01*
X466344Y325315D01*
Y328676D01*
D02*
G37*
G36*
X630520Y329930D02*
Y320554D01*
X634898D01*
Y324534D01*
X634469Y326696D01*
X633244Y328528D01*
X631412Y329753D01*
X630520Y329930D01*
D02*
G37*
G36*
X627980D02*
X627088Y329753D01*
X625256Y328528D01*
X624031Y326696D01*
X623601Y324534D01*
Y320554D01*
X627980D01*
Y329930D01*
D02*
G37*
G36*
X500776Y335376D02*
X495046D01*
Y324780D01*
Y314184D01*
X500776D01*
X502483Y314408D01*
X504074Y315067D01*
X505440Y316116D01*
X506489Y317482D01*
X507148Y319073D01*
X507372Y320780D01*
Y320984D01*
X508354Y321789D01*
X508508Y321759D01*
Y326390D01*
Y331021D01*
X507909Y330902D01*
D01*
Y330902D01*
X507909D01*
Y330902D01*
Y330902D01*
X506816Y331288D01*
X506489Y332078D01*
X505440Y333444D01*
X504074Y334493D01*
X502483Y335152D01*
X500776Y335376D01*
D02*
G37*
G36*
X514409Y325120D02*
X511048D01*
Y321759D01*
X511647Y321878D01*
X513231Y322937D01*
X514290Y324521D01*
X514409Y325120D01*
D02*
G37*
G36*
X644652Y354897D02*
Y351536D01*
X648013D01*
X647894Y352135D01*
X646835Y353719D01*
X645251Y354778D01*
X644652Y354897D01*
D02*
G37*
G36*
X337616Y400541D02*
X336243Y400268D01*
X335078Y399490D01*
X334300Y398325D01*
X334027Y396952D01*
X334103Y396569D01*
X333298Y395588D01*
X333104D01*
Y391160D01*
X342740D01*
X342559Y392070D01*
X341324Y393919D01*
X340286Y394612D01*
X340932Y395579D01*
X341205Y396952D01*
X340932Y398325D01*
X340154Y399490D01*
X338989Y400268D01*
X337616Y400541D01*
D02*
G37*
G36*
X330564Y395588D02*
X326373D01*
X324193Y395154D01*
X322344Y393919D01*
X321109Y392070D01*
X320928Y391160D01*
X330564D01*
Y395588D01*
D02*
G37*
G36*
X362966Y408178D02*
X348798D01*
X348893Y407459D01*
X349661Y405605D01*
X350882Y404013D01*
X352474Y402792D01*
X354328Y402024D01*
X356317Y401762D01*
X359308D01*
X361584Y400820D01*
X362966Y400638D01*
Y408178D01*
D02*
G37*
G36*
X590250Y424888D02*
X588584Y424556D01*
X587172Y423613D01*
X586228Y422200D01*
X585896Y420534D01*
Y410034D01*
X586228Y408368D01*
X587172Y406955D01*
X587660Y406629D01*
Y402347D01*
X585667Y400354D01*
X569271D01*
X566840Y402785D01*
Y406629D01*
X567328Y406955D01*
X568272Y408368D01*
X568604Y410034D01*
Y420534D01*
X568272Y422200D01*
X567328Y423613D01*
X565916Y424556D01*
X564250Y424888D01*
X562584Y424556D01*
X561171Y423613D01*
X560228Y422200D01*
X559896Y420534D01*
Y410034D01*
X560228Y408368D01*
X561171Y406955D01*
X561660Y406629D01*
Y401712D01*
X561660Y401712D01*
X561660D01*
X561857Y400721D01*
X562419Y399881D01*
X566367Y395933D01*
X567207Y395371D01*
X568198Y395174D01*
X586740D01*
X587731Y395371D01*
X588571Y395933D01*
X588571Y395933D01*
X588571Y395933D01*
X592081Y399443D01*
X592643Y400283D01*
X592840Y401274D01*
X592840Y401274D01*
X592840Y401274D01*
Y401274D01*
Y406629D01*
X593329Y406955D01*
X594272Y408368D01*
X594604Y410034D01*
Y420534D01*
X594272Y422200D01*
X593329Y423613D01*
X591916Y424556D01*
X590250Y424888D01*
D02*
G37*
G36*
X403081Y394826D02*
X398890D01*
Y390398D01*
X408526D01*
X408345Y391308D01*
X407110Y393157D01*
X405261Y394392D01*
X403081Y394826D01*
D02*
G37*
G36*
X363220Y393147D02*
X362621Y393028D01*
X361037Y391969D01*
X359978Y390385D01*
X359859Y389786D01*
X363220D01*
Y393147D01*
D02*
G37*
G36*
X342740Y388620D02*
X333104D01*
Y384193D01*
X337295D01*
X339475Y384626D01*
X341324Y385861D01*
X342559Y387710D01*
X342740Y388620D01*
D02*
G37*
G36*
X396350Y394826D02*
X392159D01*
X389979Y394392D01*
X388130Y393157D01*
X386895Y391308D01*
X386714Y390398D01*
X396350D01*
Y394826D01*
D02*
G37*
G36*
X365760Y393147D02*
Y389786D01*
X369121D01*
X369002Y390385D01*
X367943Y391969D01*
X366359Y393028D01*
X365760Y393147D01*
D02*
G37*
G36*
X381870Y408178D02*
X366604D01*
Y400782D01*
X366888Y400820D01*
X369164Y401762D01*
X374351D01*
X376340Y402024D01*
X378194Y402792D01*
X379786Y404013D01*
X381007Y405605D01*
X381775Y407459D01*
X381870Y408178D01*
D02*
G37*
G36*
X362966Y420798D02*
X361584Y420616D01*
X359112Y419593D01*
X356990Y417964D01*
X356353Y417134D01*
X356317D01*
X354328Y416872D01*
X352474Y416104D01*
X350882Y414883D01*
X349661Y413291D01*
X348893Y411437D01*
X348798Y410718D01*
X362966D01*
Y420798D01*
D02*
G37*
G36*
X500776Y419876D02*
X495046D01*
Y410550D01*
X507372D01*
Y413280D01*
X507148Y414987D01*
X506489Y416578D01*
X505440Y417944D01*
X504074Y418993D01*
X502483Y419652D01*
X500776Y419876D01*
D02*
G37*
G36*
X328422Y425991D02*
X327049Y425718D01*
X325884Y424940D01*
X325106Y423775D01*
X324833Y422402D01*
X325106Y421029D01*
X325884Y419864D01*
X327049Y419086D01*
X328422Y418813D01*
X329795Y419086D01*
X330960Y419864D01*
X331738Y421029D01*
X332011Y422402D01*
X331738Y423775D01*
X330960Y424940D01*
X329795Y425718D01*
X328422Y425991D01*
D02*
G37*
G36*
X365506Y420798D02*
Y410718D01*
X381870D01*
X381775Y411437D01*
X381007Y413291D01*
X379786Y414883D01*
X378194Y416104D01*
X376340Y416872D01*
X374351Y417134D01*
X372119D01*
X371482Y417964D01*
X369360Y419593D01*
X366888Y420616D01*
X365506Y420798D01*
D02*
G37*
G36*
X434848Y422068D02*
Y411988D01*
Y409956D01*
X447656D01*
X447561Y410675D01*
X446793Y412529D01*
X445572Y414121D01*
X443980Y415342D01*
X443021Y415739D01*
X442453Y417112D01*
X440824Y419234D01*
X438702Y420863D01*
X436230Y421886D01*
X434848Y422068D01*
D02*
G37*
G36*
X577250Y424888D02*
X575584Y424556D01*
X574171Y423613D01*
X573228Y422200D01*
X572896Y420534D01*
Y410034D01*
X573228Y408368D01*
X573927Y407321D01*
X573661Y405984D01*
X573934Y404611D01*
X574712Y403446D01*
X575877Y402668D01*
X577250Y402395D01*
X578623Y402668D01*
X579788Y403446D01*
X580566Y404611D01*
X580839Y405984D01*
X580573Y407321D01*
X581272Y408368D01*
X581604Y410034D01*
Y420534D01*
X581272Y422200D01*
X580328Y423613D01*
X578916Y424556D01*
X577250Y424888D01*
D02*
G37*
G36*
X447656Y407416D02*
X434848D01*
Y401000D01*
X440137D01*
X442126Y401262D01*
X443980Y402030D01*
X445572Y403251D01*
X446793Y404843D01*
X447561Y406697D01*
X447656Y407416D01*
D02*
G37*
G36*
X432308Y422068D02*
X430926Y421886D01*
X428454Y420863D01*
X426332Y419234D01*
X424703Y417112D01*
X424397Y416372D01*
X422103D01*
X420114Y416110D01*
X418260Y415342D01*
X416668Y414121D01*
X415447Y412529D01*
X414679Y410675D01*
X414584Y409956D01*
X432308D01*
Y411988D01*
Y422068D01*
D02*
G37*
G36*
X429850Y407416D02*
X414584D01*
X414679Y406697D01*
X414777Y406460D01*
X413971Y405479D01*
X413004Y405671D01*
X411631Y405398D01*
X410466Y404620D01*
X409688Y403455D01*
X409415Y402082D01*
X409688Y400709D01*
X410466Y399544D01*
X411631Y398766D01*
X413004Y398493D01*
X414377Y398766D01*
X415542Y399544D01*
X416320Y400709D01*
X416570Y401967D01*
X417191Y402201D01*
X417863Y402335D01*
X418260Y402030D01*
X420114Y401262D01*
X422103Y401000D01*
X429850D01*
Y407416D01*
D02*
G37*
G36*
X602488Y369121D02*
X601889Y369002D01*
X600305Y367943D01*
X599246Y366359D01*
X599127Y365760D01*
X602488D01*
Y369121D01*
D02*
G37*
G36*
X634532Y368119D02*
X633159Y367846D01*
X631994Y367068D01*
X631216Y365903D01*
X630943Y364530D01*
X631216Y363157D01*
X631994Y361992D01*
X633159Y361214D01*
X634532Y360941D01*
X635905Y361214D01*
X637070Y361992D01*
X637848Y363157D01*
X638121Y364530D01*
X637848Y365903D01*
X637070Y367068D01*
X635905Y367846D01*
X634532Y368119D01*
D02*
G37*
G36*
X337295Y381847D02*
X326373D01*
X324688Y381511D01*
X323260Y380557D01*
X322306Y379129D01*
X322142Y378307D01*
X320896Y378059D01*
X320800Y378204D01*
X319635Y378982D01*
X318262Y379255D01*
X316889Y378982D01*
X315724Y378204D01*
X314946Y377039D01*
X314673Y375666D01*
X314946Y374293D01*
X315724Y373128D01*
X316889Y372350D01*
X318262Y372077D01*
X319635Y372350D01*
X320800Y373128D01*
X321468Y374128D01*
X323564D01*
X324688Y373377D01*
X326373Y373041D01*
X337295D01*
X338980Y373377D01*
X340408Y374331D01*
X341362Y375759D01*
X341412Y376010D01*
X387890D01*
X388092Y374997D01*
X389046Y373569D01*
X390474Y372615D01*
X392159Y372279D01*
X403081D01*
X404766Y372615D01*
X406194Y373569D01*
X407149Y374997D01*
X407484Y376682D01*
X407149Y378367D01*
X406194Y379795D01*
X404766Y380750D01*
X403081Y381085D01*
X392159D01*
X390474Y380750D01*
X389194Y379894D01*
X340851D01*
X340408Y380557D01*
X338980Y381511D01*
X337295Y381847D01*
D02*
G37*
G36*
X605028Y369121D02*
Y365760D01*
X608389D01*
X608270Y366359D01*
X607211Y367943D01*
X605627Y369002D01*
X605028Y369121D01*
D02*
G37*
G36*
X608389Y363220D02*
X605028D01*
Y359859D01*
X605627Y359978D01*
X607211Y361037D01*
X608270Y362621D01*
X608389Y363220D01*
D02*
G37*
G36*
X622260Y355619D02*
Y352258D01*
X625621D01*
X625502Y352857D01*
X624443Y354441D01*
X622859Y355500D01*
X622260Y355619D01*
D02*
G37*
G36*
X614720Y355191D02*
X614121Y355072D01*
X612537Y354013D01*
X611478Y352429D01*
X611359Y351830D01*
X614720D01*
Y355191D01*
D02*
G37*
G36*
X602488Y363220D02*
X599127D01*
X599246Y362621D01*
X600305Y361037D01*
X601889Y359978D01*
X602488Y359859D01*
Y363220D01*
D02*
G37*
G36*
X619720Y355619D02*
X619121Y355500D01*
X618170Y354864D01*
X617859Y355072D01*
X617260Y355191D01*
Y350560D01*
Y345929D01*
X617859Y346048D01*
X618810Y346684D01*
X619121Y346476D01*
X619720Y346357D01*
Y350988D01*
Y355619D01*
D02*
G37*
G36*
X411480Y385859D02*
X410107Y385586D01*
X408942Y384808D01*
X408164Y383643D01*
X407891Y382270D01*
X408164Y380897D01*
X408942Y379732D01*
X410107Y378954D01*
X411480Y378681D01*
X412853Y378954D01*
X414018Y379732D01*
X414796Y380897D01*
X415069Y382270D01*
X414796Y383643D01*
X414018Y384808D01*
X412853Y385586D01*
X411480Y385859D01*
D02*
G37*
G36*
X363220Y387246D02*
X359859D01*
X359978Y386647D01*
X361037Y385063D01*
X362621Y384004D01*
X363220Y383885D01*
Y387246D01*
D02*
G37*
G36*
X408526Y387858D02*
X398890D01*
Y383430D01*
X403081D01*
X405261Y383864D01*
X407110Y385099D01*
X408345Y386948D01*
X408526Y387858D01*
D02*
G37*
G36*
X330564Y388620D02*
X320928D01*
X321109Y387710D01*
X322344Y385861D01*
X324193Y384626D01*
X326373Y384193D01*
X330564D01*
Y388620D01*
D02*
G37*
G36*
X369121Y387246D02*
X365760D01*
Y383885D01*
X366359Y384004D01*
X367943Y385063D01*
X369002Y386647D01*
X369121Y387246D01*
D02*
G37*
G36*
X396350Y387858D02*
X386714D01*
X386895Y386948D01*
X388130Y385099D01*
X389979Y383864D01*
X392159Y383430D01*
X396350D01*
Y387858D01*
D02*
G37*
G36*
X642250Y424888D02*
X640584Y424556D01*
X639171Y423613D01*
X638228Y422200D01*
X637896Y420534D01*
Y410034D01*
X638228Y408368D01*
X639171Y406955D01*
X639660Y406629D01*
Y402277D01*
X620719Y383336D01*
X615480D01*
X614994Y384509D01*
X631081Y400597D01*
X631643Y401437D01*
X631840Y402428D01*
X631840Y402428D01*
X631840Y402428D01*
Y402428D01*
Y406629D01*
X632328Y406955D01*
X633272Y408368D01*
X633604Y410034D01*
Y420534D01*
X633272Y422200D01*
X632328Y423613D01*
X630916Y424556D01*
X629250Y424888D01*
X627584Y424556D01*
X626171Y423613D01*
X625228Y422200D01*
X624896Y420534D01*
Y410034D01*
X625228Y408368D01*
X626171Y406955D01*
X626660Y406629D01*
Y403501D01*
X611829Y388670D01*
X599732D01*
X599246Y389843D01*
X610168Y400766D01*
X611378Y400525D01*
X612751Y400798D01*
X613916Y401576D01*
X614694Y402741D01*
X614967Y404114D01*
X614813Y404890D01*
X615711Y405788D01*
X616250Y405680D01*
X617916Y406012D01*
X619328Y406955D01*
X620272Y408368D01*
X620604Y410034D01*
Y420534D01*
X620272Y422200D01*
X619328Y423613D01*
X617916Y424556D01*
X616250Y424888D01*
X614584Y424556D01*
X613172Y423613D01*
X612228Y422200D01*
X611896Y420534D01*
Y410034D01*
X611932Y409855D01*
X607853Y405775D01*
X606950Y406049D01*
X606522Y407245D01*
X607272Y408368D01*
X607604Y410034D01*
Y420534D01*
X607272Y422200D01*
X606329Y423613D01*
X604916Y424556D01*
X603250Y424888D01*
X601584Y424556D01*
X600172Y423613D01*
X599228Y422200D01*
X598896Y420534D01*
Y410034D01*
X599228Y408368D01*
X600172Y406955D01*
X600216Y406926D01*
X599934Y406503D01*
X599661Y405130D01*
X599934Y403757D01*
X600712Y402592D01*
X601877Y401814D01*
X602236Y401743D01*
X602605Y400527D01*
X595573Y393496D01*
X564391D01*
X562609Y395277D01*
X561769Y395839D01*
X560778Y396036D01*
X503915D01*
X503546Y397251D01*
X504087Y397613D01*
X505146Y399197D01*
X505426Y400605D01*
X505440Y400616D01*
X506489Y401982D01*
X507148Y403573D01*
X507372Y405280D01*
Y408010D01*
X493776D01*
Y409280D01*
X492506D01*
Y419876D01*
X486776D01*
X485069Y419652D01*
X483478Y418993D01*
X482112Y417944D01*
X481063Y416578D01*
X480404Y414987D01*
X480180Y413280D01*
Y413166D01*
X479059Y412567D01*
X478385Y413018D01*
X477012Y413291D01*
X475639Y413018D01*
X474474Y412240D01*
X473696Y411075D01*
X473423Y409702D01*
X473696Y408329D01*
X474474Y407164D01*
X474485Y407157D01*
X474116Y405942D01*
X458724D01*
X457733Y405745D01*
X456893Y405183D01*
X451777Y400067D01*
X451359Y399443D01*
X451286Y399333D01*
X450191Y400064D01*
X448818Y400337D01*
X447445Y400064D01*
X446280Y399286D01*
X445502Y398121D01*
X445474Y397980D01*
X444418Y397275D01*
X443270Y397503D01*
X441897Y397230D01*
X440732Y396452D01*
X439954Y395287D01*
X439681Y393914D01*
X439954Y392541D01*
X440732Y391376D01*
X441328Y390978D01*
Y382992D01*
X441328Y382992D01*
X441328D01*
X441475Y382249D01*
X441897Y381619D01*
X446592Y376924D01*
X447222Y376502D01*
X447965Y376355D01*
X471592D01*
X472398Y375373D01*
X472153Y374142D01*
X472414Y372832D01*
X460652Y361071D01*
X407610D01*
X407011Y362191D01*
X407149Y362397D01*
X407484Y364082D01*
X407149Y365767D01*
X406194Y367195D01*
X404766Y368149D01*
X403081Y368485D01*
X392159D01*
X390474Y368149D01*
X389046Y367195D01*
X388634Y366579D01*
X387370Y366455D01*
X382028Y371796D01*
X381398Y372217D01*
X380655Y372365D01*
X357435D01*
X357435Y372365D01*
X356692Y372217D01*
X356062Y371796D01*
X356062Y371796D01*
X352612Y368346D01*
X352543Y368244D01*
X349814Y365514D01*
X348694Y366113D01*
X348775Y366522D01*
X348502Y367895D01*
X347724Y369060D01*
X346559Y369838D01*
X345186Y370111D01*
X343813Y369838D01*
X342648Y369060D01*
X341870Y367895D01*
X341868Y367884D01*
X340622Y367636D01*
X340408Y367957D01*
X338980Y368912D01*
X337295Y369247D01*
X326373D01*
X324688Y368912D01*
X323260Y367957D01*
X322306Y366529D01*
X321972Y364851D01*
X317143Y360021D01*
X316721Y359391D01*
X316574Y358648D01*
Y355488D01*
X315978Y355090D01*
X315200Y353925D01*
X314927Y352552D01*
X315200Y351179D01*
X315978Y350014D01*
X316574Y349616D01*
Y323596D01*
X316721Y322853D01*
X317143Y322223D01*
X318181Y321184D01*
X317994Y320905D01*
X317721Y319532D01*
X317994Y318159D01*
X318772Y316994D01*
X319937Y316216D01*
X321310Y315943D01*
X322683Y316216D01*
X323707Y316900D01*
X324085Y316975D01*
X324715Y317397D01*
X325136Y318027D01*
X325284Y318770D01*
X325136Y319513D01*
X324804Y320011D01*
X324626Y320905D01*
X323848Y322070D01*
X322683Y322848D01*
X321844Y323015D01*
X320458Y324400D01*
Y349616D01*
X321054Y350014D01*
X321260Y350323D01*
X322530D01*
X323260Y349231D01*
X324688Y348276D01*
X326373Y347941D01*
X337295D01*
X338980Y348276D01*
X340391Y349220D01*
X374447D01*
X375000Y348850D01*
X375248Y347604D01*
X374202Y346039D01*
X374083Y345440D01*
X383345D01*
X383226Y346039D01*
X382371Y347318D01*
X382970Y348438D01*
X389092D01*
X390474Y347514D01*
X392159Y347179D01*
X403081D01*
X404766Y347514D01*
X406148Y348438D01*
X471412D01*
X471780Y347223D01*
X471419Y346981D01*
X466625Y342188D01*
X459994D01*
X459003Y341991D01*
X458163Y341429D01*
X456439Y339705D01*
X455877Y338865D01*
X455680Y337874D01*
Y337540D01*
X454954Y336453D01*
X454681Y335080D01*
X454954Y333707D01*
X455732Y332542D01*
X456897Y331764D01*
X458270Y331491D01*
X459643Y331764D01*
X460808Y332542D01*
X461586Y333707D01*
X461859Y335080D01*
X461671Y336026D01*
X462476Y337008D01*
X467698D01*
X468689Y337205D01*
X469529Y337767D01*
X470742Y338980D01*
X472006Y338855D01*
X472696Y337822D01*
X473861Y337044D01*
X475234Y336771D01*
X476607Y337044D01*
X477772Y337822D01*
X478458Y338850D01*
X479704Y339098D01*
X480255Y338729D01*
X481246Y338532D01*
X529685D01*
X530676Y338729D01*
X531516Y339291D01*
X531516Y339291D01*
X531516Y339291D01*
X532634Y340409D01*
X532634Y340409D01*
X532634Y340409D01*
X533298Y341072D01*
X555752D01*
X556743Y341269D01*
X557583Y341831D01*
X557583Y341831D01*
X557583Y341831D01*
X558603Y342850D01*
X570818D01*
X571841Y342166D01*
X571594Y340921D01*
X571397Y340882D01*
X570232Y340104D01*
X569454Y338939D01*
X569181Y337566D01*
X569454Y336193D01*
X570232Y335028D01*
X571397Y334250D01*
X572770Y333977D01*
X573679Y334158D01*
X574660Y333352D01*
Y327939D01*
X574171Y327612D01*
X573228Y326200D01*
X572896Y324534D01*
Y314034D01*
X573228Y312368D01*
X574171Y310956D01*
X575584Y310012D01*
X577250Y309680D01*
X578916Y310012D01*
X580328Y310956D01*
X581272Y312368D01*
X581604Y314034D01*
Y324534D01*
X581272Y326200D01*
X580328Y327612D01*
X579840Y327939D01*
Y337404D01*
X579643Y338395D01*
X579081Y339235D01*
X578241Y339797D01*
X577250Y339994D01*
X575381D01*
X575308Y340104D01*
X574207Y340840D01*
X574454Y342085D01*
X574651Y342124D01*
X575816Y342902D01*
X576594Y344067D01*
X576867Y345440D01*
X576594Y346813D01*
X575816Y347978D01*
X574651Y348756D01*
X573278Y349029D01*
X571905Y348756D01*
X570818Y348030D01*
X557530D01*
X557163Y347957D01*
X556265Y348855D01*
X556293Y348996D01*
X556052Y350206D01*
X557079Y351232D01*
X594811D01*
X604679Y341365D01*
X604310Y340149D01*
X604163Y340120D01*
X602998Y339342D01*
X602220Y338177D01*
X601965Y336896D01*
X601419Y336349D01*
X600857Y335509D01*
X600660Y334518D01*
Y327939D01*
X600172Y327612D01*
X599228Y326200D01*
X598896Y324534D01*
Y314034D01*
X599228Y312368D01*
X600172Y310956D01*
X601584Y310012D01*
X603250Y309680D01*
X604916Y310012D01*
X606329Y310956D01*
X607272Y312368D01*
X607604Y314034D01*
Y324534D01*
X607272Y326200D01*
X606329Y327612D01*
X605840Y327939D01*
Y333275D01*
X606909Y333488D01*
X608074Y334266D01*
X608852Y335431D01*
X609125Y336804D01*
X608977Y337551D01*
X609782Y338532D01*
X614308D01*
Y328372D01*
X613172Y327612D01*
X612228Y326200D01*
X611896Y324534D01*
Y314034D01*
X612228Y312368D01*
X613172Y310956D01*
X614584Y310012D01*
X616250Y309680D01*
X617916Y310012D01*
X619328Y310956D01*
X620272Y312368D01*
X620604Y314034D01*
Y324534D01*
X620272Y326200D01*
X619328Y327612D01*
X618192Y328372D01*
Y339457D01*
X618643Y340131D01*
X618840Y341122D01*
X618643Y342113D01*
X618081Y342953D01*
X617241Y343515D01*
X616250Y343712D01*
X609657D01*
X597715Y355653D01*
X596875Y356215D01*
X595884Y356412D01*
X556006D01*
X555015Y356215D01*
X554175Y355653D01*
X552081Y353560D01*
X550730D01*
X549739Y353363D01*
X548899Y352801D01*
X548337Y351961D01*
X548140Y350970D01*
X548337Y349979D01*
X548899Y349139D01*
X549133Y348904D01*
X549388Y347623D01*
X549556Y347372D01*
X548957Y346252D01*
X541385D01*
X540592Y347218D01*
X540319Y348591D01*
X539541Y349756D01*
X538377Y350534D01*
X537004Y350807D01*
X535630Y350534D01*
X534466Y349756D01*
X534029Y349102D01*
X533950Y349049D01*
X533279Y348378D01*
X532105Y348864D01*
Y350030D01*
X531871Y351208D01*
X532402Y352203D01*
X540835D01*
X541578Y352351D01*
X542208Y352772D01*
X556810Y367374D01*
X558504D01*
X559040Y366371D01*
X558767Y364998D01*
X559040Y363625D01*
X559818Y362460D01*
X560983Y361682D01*
X562356Y361409D01*
X563729Y361682D01*
X564894Y362460D01*
X565672Y363625D01*
X565945Y364998D01*
X565672Y366371D01*
X566208Y367374D01*
X594360D01*
X595103Y367522D01*
X595733Y367943D01*
X599246Y371455D01*
X599948Y371315D01*
X601321Y371588D01*
X602486Y372366D01*
X603264Y373531D01*
X603537Y374904D01*
X603264Y376277D01*
X602757Y377036D01*
X603355Y378156D01*
X621792D01*
X622783Y378353D01*
X623623Y378915D01*
X623623Y378915D01*
X623623Y378915D01*
X644081Y399373D01*
X644643Y400213D01*
X644840Y401204D01*
X644840Y401204D01*
X644840Y401204D01*
Y401204D01*
Y406629D01*
X645329Y406955D01*
X646272Y408368D01*
X646604Y410034D01*
Y420534D01*
X646272Y422200D01*
X645329Y423613D01*
X643916Y424556D01*
X642250Y424888D01*
D02*
G37*
%LPD*%
G36*
X483055Y391615D02*
X483895Y391053D01*
X484886Y390856D01*
X510242D01*
X510841Y389736D01*
X510485Y389204D01*
X510152Y387530D01*
Y387050D01*
X521776D01*
Y385780D01*
X523046D01*
Y379656D01*
X529026D01*
X530700Y379989D01*
X532119Y380937D01*
X532482Y381480D01*
X532638Y381449D01*
Y386080D01*
X533908D01*
Y387350D01*
X538539D01*
X538420Y387949D01*
X537361Y389533D01*
X537200Y389641D01*
X537569Y390856D01*
X559705D01*
X560718Y389843D01*
X560232Y388670D01*
X554174D01*
X553183Y388473D01*
X552343Y387911D01*
X546967Y382536D01*
X546862Y382557D01*
X545489Y382284D01*
X544324Y381506D01*
X543546Y380341D01*
X543273Y378968D01*
X543294Y378863D01*
X540301Y375870D01*
X531938D01*
X531871Y376208D01*
X531203Y377207D01*
X530204Y377875D01*
X529026Y378109D01*
X514526D01*
X513348Y377875D01*
X512349Y377207D01*
X511681Y376208D01*
X511485Y375222D01*
X506253D01*
X505654Y376342D01*
X505982Y376833D01*
X506255Y378206D01*
X505982Y379579D01*
X505204Y380744D01*
X504039Y381522D01*
X502666Y381795D01*
X501293Y381522D01*
X500128Y380744D01*
X499730Y380148D01*
X488739D01*
X471273Y397613D01*
X470643Y398035D01*
X469900Y398182D01*
X461905D01*
X461600Y398122D01*
X460430Y398354D01*
X459057Y398081D01*
X458594Y397772D01*
X457788Y398753D01*
X459797Y400762D01*
X473907D01*
X483055Y391615D01*
D02*
G37*
%LPC*%
G36*
X520506Y384510D02*
X510152D01*
Y384030D01*
X510485Y382356D01*
X511433Y380937D01*
X512852Y379989D01*
X514526Y379656D01*
X520506D01*
Y384510D01*
D02*
G37*
G36*
X538539Y384810D02*
X535178D01*
Y381449D01*
X535777Y381568D01*
X537361Y382627D01*
X538420Y384211D01*
X538539Y384810D01*
D02*
G37*
%LPD*%
D29*
X318516Y323596D02*
Y352552D01*
X332740Y377952D02*
X401828D01*
X474055Y371693D02*
X475742Y373380D01*
X474021Y371693D02*
X474055D01*
X501615Y354145D02*
X540835D01*
X616250Y319284D02*
Y341122D01*
X642250Y322718D02*
X647446Y327914D01*
X642250Y319284D02*
Y322718D01*
X521776Y385780D02*
X533608D01*
X533908Y386080D01*
X493776Y324780D02*
X495386Y326390D01*
X509778D01*
X510186Y360780D02*
X521776D01*
X503428Y367538D02*
X510186Y360780D01*
X487934Y378206D02*
X502666D01*
X469900Y396240D02*
X487934Y378206D01*
X461905Y396240D02*
X469900D01*
X460430Y394765D02*
X461905Y396240D01*
X486072Y373280D02*
X521776D01*
X478515Y380837D02*
X486072Y373280D01*
X450342Y380837D02*
X478515D01*
X448818Y382361D02*
X450342Y380837D01*
X448818Y382361D02*
Y396748D01*
X477463Y378297D02*
X501615Y354145D01*
X447965Y378297D02*
X477463D01*
X443270Y382992D02*
X447965Y378297D01*
X443270Y382992D02*
Y393914D01*
X318262Y376070D02*
X331326D01*
Y376538D01*
X467269Y329601D02*
X467614Y329946D01*
X500394Y400826D02*
X500634Y401066D01*
X364490Y388366D02*
Y388516D01*
X375158Y361188D02*
X381254Y355092D01*
X463296D02*
X475742Y367538D01*
X381254Y355092D02*
X388664D01*
X390107Y356535D01*
X405133D01*
X406576Y355092D01*
X461484Y359156D02*
X474021Y371693D01*
X406576Y355092D02*
X463296D01*
X384329Y359129D02*
X461457D01*
X331326Y376538D02*
X332740Y377952D01*
X387350Y363728D02*
X401066D01*
X380655Y370423D02*
X387350Y363728D01*
X362204Y361188D02*
X375158D01*
X358140Y365252D02*
X362204Y361188D01*
X353985Y366939D02*
Y366973D01*
X357435Y370423D01*
X380655D01*
X318516Y352552D02*
Y358648D01*
X324612Y364744D01*
X341088D01*
X343465Y362367D01*
X349413D01*
X353985Y366939D01*
X318516Y323596D02*
X323342Y318770D01*
X377952Y365506D02*
X384329Y359129D01*
X556006Y369316D02*
X594360D01*
X540835Y354145D02*
X556006Y369316D01*
X594360D02*
X599948Y374904D01*
X629250Y319284D02*
Y326990D01*
X641858Y339598D01*
X647446D01*
D30*
X616250Y410510D02*
Y415284D01*
X572770Y337566D02*
X572932Y337404D01*
X577250D01*
X521776Y373280D02*
X541374D01*
X467698Y339598D02*
X473250Y345150D01*
X459994Y339598D02*
X467698D01*
X458270Y337874D02*
X459994Y339598D01*
X477218Y345150D02*
X481246Y341122D01*
X529685D01*
X530803Y342240D01*
X482824Y344932D02*
X518428D01*
X473250Y345150D02*
X477218D01*
X518428Y344932D02*
X521776Y348280D01*
X590250Y319284D02*
X590412Y319446D01*
Y332624D01*
X564250Y319284D02*
Y332624D01*
X577250Y319284D02*
Y337404D01*
X603250Y334518D02*
X605536Y336804D01*
X603250Y319284D02*
Y334518D01*
X532225Y343662D02*
X555752D01*
X530803Y342240D02*
X532225Y343662D01*
X555752D02*
X557530Y345440D01*
X573278D01*
X556006Y353822D02*
X595884D01*
X553154Y350970D02*
X556006Y353822D01*
X550730Y350970D02*
X553154D01*
X550730D02*
X552704Y348996D01*
X621792Y380746D02*
X642250Y401204D01*
X559054Y380746D02*
X621792D01*
X603250Y405130D02*
Y415284D01*
X577250Y405984D02*
Y415284D01*
X590250Y401274D02*
Y415284D01*
X586740Y397764D02*
X590250Y401274D01*
X568198Y397764D02*
X586740D01*
X564250Y401712D02*
X568198Y397764D01*
X564250Y401712D02*
Y415284D01*
X535781Y347218D02*
X537004D01*
X530803Y342240D02*
X535781Y347218D01*
X595884Y353822D02*
X608584Y341122D01*
X616250D01*
X458270Y335080D02*
Y337874D01*
X474980Y403352D02*
X484886Y393446D01*
X458724Y403352D02*
X474980D01*
X453608Y398236D02*
X458724Y403352D01*
X453608Y396276D02*
Y398236D01*
Y396276D02*
X454660Y395224D01*
X629250Y402428D02*
Y415284D01*
X612902Y386080D02*
X629250Y402428D01*
X642250Y401204D02*
Y415284D01*
X366268Y408940D02*
X430022D01*
X376936Y352806D02*
X378714Y351028D01*
X476728D02*
X482824Y344932D01*
X378714Y351028D02*
X476728D01*
X521776Y360780D02*
X539088D01*
X596646Y390906D02*
X616250Y410510D01*
X563318Y390906D02*
X596646D01*
X484886Y393446D02*
X560778D01*
X563318Y390906D01*
X541374Y373280D02*
X554174Y386080D01*
X612902D01*
X539088Y360780D02*
X559054Y380746D01*
D31*
X376936Y352044D02*
Y352806D01*
X411480Y382270D02*
Y382778D01*
X325882Y352044D02*
X376936D01*
D32*
X433578Y411988D02*
D03*
X431546Y327152D02*
D03*
X358140Y329692D02*
D03*
X364236Y410718D02*
D03*
D33*
X387350Y329438D02*
D03*
X364490Y388516D02*
D03*
X358140Y365252D02*
D03*
X510540Y368046D02*
D03*
X572770Y337566D02*
D03*
X590412Y332624D02*
D03*
X564250D02*
D03*
X573278Y345440D02*
D03*
X605536Y336804D02*
D03*
X552704Y348996D02*
D03*
X611378Y404114D02*
D03*
X603250Y405130D02*
D03*
X577250Y405984D02*
D03*
X537004Y347218D02*
D03*
X475234Y340360D02*
D03*
X528066Y322834D02*
D03*
X647446Y327914D02*
D03*
X533908Y386080D02*
D03*
X509778Y326390D02*
D03*
X458270Y335080D02*
D03*
X503428Y367538D02*
D03*
X502666Y378206D02*
D03*
X460430Y394765D02*
D03*
X448818Y396748D02*
D03*
X454660Y395224D02*
D03*
X443270Y393914D02*
D03*
X328422Y422402D02*
D03*
X321310Y319532D02*
D03*
X318262Y375666D02*
D03*
X378714Y344170D02*
D03*
X475742Y367538D02*
D03*
Y374142D02*
D03*
X411480Y382270D02*
D03*
X337616Y396952D02*
D03*
X477012Y409702D02*
D03*
X413004Y402082D02*
D03*
X345186Y366522D02*
D03*
X467614Y329946D02*
D03*
X412162Y341550D02*
D03*
X376936Y351790D02*
D03*
X500634Y401066D02*
D03*
X318516Y352552D02*
D03*
X411988Y334518D02*
D03*
X378206Y365506D02*
D03*
X546862Y378968D02*
D03*
X603758Y364490D02*
D03*
X615990Y350560D02*
D03*
X620990Y350988D02*
D03*
X599948Y374904D02*
D03*
X547370Y369316D02*
D03*
X634532Y364530D02*
D03*
X562356Y364998D02*
D03*
X643382Y350266D02*
D03*
X647446Y339598D02*
D03*
D34*
X521776Y385780D02*
D03*
Y373280D02*
D03*
Y348280D02*
D03*
Y360780D02*
D03*
D35*
X493776Y324780D02*
D03*
Y409280D02*
D03*
D36*
X564250Y415284D02*
D03*
X577250D02*
D03*
X590250D02*
D03*
X603250D02*
D03*
X616250D02*
D03*
X629250D02*
D03*
X642250D02*
D03*
X564250Y319284D02*
D03*
X577250D02*
D03*
X590250D02*
D03*
X603250D02*
D03*
X616250D02*
D03*
X629250D02*
D03*
X642250D02*
D03*
D37*
X331834Y352344D02*
D03*
Y364844D02*
D03*
Y377444D02*
D03*
Y389890D02*
D03*
X397620Y389128D02*
D03*
Y376682D02*
D03*
Y364082D02*
D03*
Y351582D02*
D03*
D38*
X365334Y332844D02*
D03*
Y409448D02*
D03*
X431120Y408686D02*
D03*
Y332082D02*
D03*
M02*
