M48
;Layer_Color=9474304
;FILE_FORMAT=4:4
METRIC,LZ
;TYPE=PLATED
T1F00S00C0.2000
T2F00S00C0.7620
%
T01
X0080752Y00694998
X00816864Y00689864
X00824484Y00700278
X00824992Y00727456
Y0073406
X00851916Y00738124
X00852678Y00727456
X0085979Y00727964
X00883158Y00745998
X00886254Y00707136
X00901954Y00708914
X00922528Y00705358
X0092202Y00697484
X009135Y00692542
X00939662
X00941578Y00708152
X00948944Y00718566
X00941578Y00727964
X0094615Y0073406
X0096012Y00745998
X00976376Y0075311
X0099568Y00752792
X01007618Y00747522
X01003808Y00733044
X00996696Y00728218
X00997204Y00718312
X01003808Y00707136
X00996696Y00687832
X00983488Y00696468
X00964438Y0070612
X00954786Y00696722
X009525Y00765048
X009265Y00765902
X009271Y00743712
X00849884Y00760984
X00826262Y0076962
X0080968Y00754683
X0080391Y00755142
X00798068Y00756666
X00859028Y00686308
X00877316Y00682752
X00761412Y00701468
X00741374Y00698632
X00727964Y00704088
X00726186Y00711708
X00723646Y00724408
X00703834Y00726186
X0068961Y00729742
X00667512Y00735584
X00667766Y0071247
X00671068Y0068707
X00686866Y0075687
X00692912Y00769366
X00714502Y00747522
X0076073Y00742188
X00762254Y00762
X0079252Y00753832
T02
X0071247Y00689864
X00772922Y00688594
X00791718Y0071882
X00779272Y00768858
X0071374Y0076708
M30
