%FSLAX44Y44*%
%MOMM*%
G71*
G01*
G75*
G04 Layer_Physical_Order=4*
G04 Layer_Color=16711680*
%ADD10R,0.4572X0.3048*%
%ADD11R,0.3048X0.4572*%
G04:AMPARAMS|DCode=12|XSize=0.508mm|YSize=0.6096mm|CornerRadius=0.127mm|HoleSize=0mm|Usage=FLASHONLY|Rotation=180.000|XOffset=0mm|YOffset=0mm|HoleType=Round|Shape=RoundedRectangle|*
%AMROUNDEDRECTD12*
21,1,0.5080,0.3556,0,0,180.0*
21,1,0.2540,0.6096,0,0,180.0*
1,1,0.2540,-0.1270,0.1778*
1,1,0.2540,0.1270,0.1778*
1,1,0.2540,0.1270,-0.1778*
1,1,0.2540,-0.1270,-0.1778*
%
%ADD12ROUNDEDRECTD12*%
%ADD13R,1.2192X0.8128*%
%ADD14P,1.7321X8X22.5*%
%ADD15C,1.0000*%
G04:AMPARAMS|DCode=16|XSize=0.508mm|YSize=0.6096mm|CornerRadius=0.127mm|HoleSize=0mm|Usage=FLASHONLY|Rotation=270.000|XOffset=0mm|YOffset=0mm|HoleType=Round|Shape=RoundedRectangle|*
%AMROUNDEDRECTD16*
21,1,0.5080,0.3556,0,0,270.0*
21,1,0.2540,0.6096,0,0,270.0*
1,1,0.2540,-0.1778,-0.1270*
1,1,0.2540,-0.1778,0.1270*
1,1,0.2540,0.1778,0.1270*
1,1,0.2540,0.1778,-0.1270*
%
%ADD16ROUNDEDRECTD16*%
G04:AMPARAMS|DCode=17|XSize=0.7112mm|YSize=1.3208mm|CornerRadius=0.1778mm|HoleSize=0mm|Usage=FLASHONLY|Rotation=0.000|XOffset=0mm|YOffset=0mm|HoleType=Round|Shape=RoundedRectangle|*
%AMROUNDEDRECTD17*
21,1,0.7112,0.9652,0,0,0.0*
21,1,0.3556,1.3208,0,0,0.0*
1,1,0.3556,0.1778,-0.4826*
1,1,0.3556,-0.1778,-0.4826*
1,1,0.3556,-0.1778,0.4826*
1,1,0.3556,0.1778,0.4826*
%
%ADD17ROUNDEDRECTD17*%
%ADD18R,0.4000X0.4000*%
%ADD19R,0.6000X0.5500*%
%ADD20R,0.5000X0.6000*%
%ADD21R,0.6000X0.5000*%
%ADD22R,3.4500X3.4500*%
%ADD23O,0.3000X0.6000*%
%ADD24O,0.6000X0.3000*%
%ADD25R,1.4000X1.2000*%
%ADD26R,0.8500X0.3000*%
%ADD27R,1.3000X2.0000*%
%ADD28R,1.0000X0.6000*%
%ADD29C,0.2540*%
%ADD30C,0.1270*%
%ADD31C,0.3000*%
%ADD32C,1.5240*%
%ADD33C,0.4500*%
%ADD34O,0.6000X1.6500*%
G04:AMPARAMS|DCode=35|XSize=0.7mm|YSize=1.8mm|CornerRadius=0.175mm|HoleSize=0mm|Usage=FLASHONLY|Rotation=270.000|XOffset=0mm|YOffset=0mm|HoleType=Round|Shape=RoundedRectangle|*
%AMROUNDEDRECTD35*
21,1,0.7000,1.4500,0,0,270.0*
21,1,0.3500,1.8000,0,0,270.0*
1,1,0.3500,-0.7250,-0.1750*
1,1,0.3500,-0.7250,0.1750*
1,1,0.3500,0.7250,0.1750*
1,1,0.3500,0.7250,-0.1750*
%
%ADD35ROUNDEDRECTD35*%
G04:AMPARAMS|DCode=36|XSize=1.6mm|YSize=2.2mm|CornerRadius=0.4mm|HoleSize=0mm|Usage=FLASHONLY|Rotation=270.000|XOffset=0mm|YOffset=0mm|HoleType=Round|Shape=RoundedRectangle|*
%AMROUNDEDRECTD36*
21,1,1.6000,1.4000,0,0,270.0*
21,1,0.8000,2.2000,0,0,270.0*
1,1,0.8000,-0.7000,-0.4000*
1,1,0.8000,-0.7000,0.4000*
1,1,0.8000,0.7000,0.4000*
1,1,0.8000,0.7000,-0.4000*
%
%ADD36ROUNDEDRECTD36*%
G04:AMPARAMS|DCode=37|XSize=0.6096mm|YSize=1.7018mm|CornerRadius=0.3048mm|HoleSize=0mm|Usage=FLASHONLY|Rotation=270.000|XOffset=0mm|YOffset=0mm|HoleType=Round|Shape=RoundedRectangle|*
%AMROUNDEDRECTD37*
21,1,0.6096,1.0922,0,0,270.0*
21,1,0.0000,1.7018,0,0,270.0*
1,1,0.6096,-0.5461,0.0000*
1,1,0.6096,-0.5461,0.0000*
1,1,0.6096,0.5461,0.0000*
1,1,0.6096,0.5461,0.0000*
%
%ADD37ROUNDEDRECTD37*%
G04:AMPARAMS|DCode=38|XSize=2.8194mm|YSize=1.016mm|CornerRadius=0.508mm|HoleSize=0mm|Usage=FLASHONLY|Rotation=180.000|XOffset=0mm|YOffset=0mm|HoleType=Round|Shape=RoundedRectangle|*
%AMROUNDEDRECTD38*
21,1,2.8194,0.0000,0,0,180.0*
21,1,1.8034,1.0160,0,0,180.0*
1,1,1.0160,-0.9017,0.0000*
1,1,1.0160,0.9017,0.0000*
1,1,1.0160,0.9017,0.0000*
1,1,1.0160,-0.9017,0.0000*
%
%ADD38ROUNDEDRECTD38*%
G36*
X1029840Y789827D02*
X1042303Y777364D01*
X1042393Y777147D01*
Y676495D01*
X1042303Y676278D01*
X1029840Y663815D01*
X1029623Y663725D01*
X674463D01*
X674246Y663815D01*
X662280Y675780D01*
X662283Y675789D01*
D01*
D01*
D01*
X662283Y675789D01*
X662283Y675789D01*
X662147Y676117D01*
X662147D01*
X662119Y676120D01*
X662091Y676148D01*
X662091Y676148D01*
X662091Y676148D01*
X662091Y676148D01*
X662080Y676173D01*
D01*
D01*
D01*
X662080Y676173D01*
X662024Y676309D01*
X662024D01*
X662024Y676309D01*
X661955Y676474D01*
Y676474D01*
D01*
X661947Y676495D01*
Y777147D01*
X662037Y777364D01*
X674500Y789827D01*
X674717Y789917D01*
X1029623D01*
X1029840Y789827D01*
D02*
G37*
%LPC*%
G36*
X982218Y695198D02*
X978857D01*
X978976Y694599D01*
X980035Y693015D01*
X981619Y691956D01*
X982218Y691837D01*
Y695198D01*
D02*
G37*
G36*
X818134Y694495D02*
Y691134D01*
X821495D01*
X821376Y691733D01*
X820317Y693317D01*
X818733Y694376D01*
X818134Y694495D01*
D02*
G37*
G36*
X710806Y699893D02*
X709818Y699762D01*
X708155Y699074D01*
X703059D01*
X701070Y698812D01*
X699216Y698044D01*
X697624Y696823D01*
X696403Y695231D01*
X695635Y693377D01*
X695540Y692658D01*
X710806D01*
Y699893D01*
D02*
G37*
G36*
X988119Y695198D02*
X984758D01*
Y691837D01*
X985357Y691956D01*
X986941Y693015D01*
X988000Y694599D01*
X988119Y695198D01*
D02*
G37*
G36*
X996696Y691421D02*
X995323Y691148D01*
X994158Y690370D01*
X993380Y689205D01*
X993241Y688505D01*
X993166Y688474D01*
X991500Y688806D01*
X989834Y688474D01*
X988421Y687531D01*
X987478Y686118D01*
X987146Y684452D01*
Y673952D01*
X987478Y672286D01*
X988421Y670873D01*
X989834Y669930D01*
X991500Y669598D01*
X993166Y669930D01*
X994578Y670873D01*
X995522Y672286D01*
X995854Y673952D01*
Y680008D01*
X996696Y684243D01*
X998069Y684516D01*
X999234Y685294D01*
X1000012Y686459D01*
X1000285Y687832D01*
X1000012Y689205D01*
X999234Y690370D01*
X998069Y691148D01*
X996696Y691421D01*
D02*
G37*
G36*
X860298Y690939D02*
Y687578D01*
X863659D01*
X863540Y688177D01*
X862481Y689761D01*
X860897Y690820D01*
X860298Y690939D01*
D02*
G37*
G36*
X815594Y694495D02*
X814995Y694376D01*
X813411Y693317D01*
X812352Y691733D01*
X812233Y691134D01*
X815594D01*
Y694495D01*
D02*
G37*
G36*
X771652Y690118D02*
X762875D01*
X762841Y689864D01*
X771652D01*
Y690118D01*
D02*
G37*
G36*
X760142Y700198D02*
X756781D01*
X756900Y699599D01*
X757959Y698015D01*
X759543Y696956D01*
X760142Y696837D01*
Y700198D01*
D02*
G37*
G36*
X741374Y702221D02*
X740001Y701948D01*
X738836Y701170D01*
X738058Y700005D01*
X737785Y698632D01*
X738058Y697259D01*
X738836Y696094D01*
X740001Y695316D01*
X741374Y695043D01*
X742747Y695316D01*
X743912Y696094D01*
X744690Y697259D01*
X744963Y698632D01*
X744690Y700005D01*
X743912Y701170D01*
X742747Y701948D01*
X741374Y702221D01*
D02*
G37*
G36*
X984758Y701099D02*
Y697738D01*
X988119D01*
X988000Y698337D01*
X986941Y699921D01*
X985357Y700980D01*
X984758Y701099D01*
D02*
G37*
G36*
X982218D02*
X981619Y700980D01*
X980035Y699921D01*
X978976Y698337D01*
X978857Y697738D01*
X982218D01*
Y701099D01*
D02*
G37*
G36*
X771652Y699074D02*
X771385D01*
X769396Y698812D01*
X767542Y698044D01*
X765950Y696823D01*
X764729Y695231D01*
X764167Y693874D01*
X764047Y693718D01*
X763608Y692658D01*
X771652D01*
Y699074D01*
D02*
G37*
G36*
X713740Y699945D02*
Y692658D01*
X728612D01*
X728517Y693377D01*
X727749Y695231D01*
X726528Y696823D01*
X724936Y698044D01*
X723082Y698812D01*
X721093Y699074D01*
X716785D01*
X715122Y699762D01*
X713740Y699945D01*
D02*
G37*
G36*
X789419Y699074D02*
X781672D01*
Y692658D01*
X796938D01*
X796843Y693377D01*
X796075Y695231D01*
X794854Y696823D01*
X793262Y698044D01*
X791408Y698812D01*
X789419Y699074D01*
D02*
G37*
G36*
X779132D02*
X774192D01*
Y692658D01*
X779132D01*
Y699074D01*
D02*
G37*
G36*
X841756Y695294D02*
X836026D01*
X834319Y695070D01*
X832728Y694411D01*
X831362Y693362D01*
X830313Y691996D01*
X829654Y690405D01*
X829430Y688698D01*
Y685968D01*
X841756D01*
Y695294D01*
D02*
G37*
G36*
X771652Y687324D02*
X762841D01*
X763024Y685942D01*
X764047Y683470D01*
X765676Y681348D01*
X767798Y679719D01*
X770270Y678696D01*
X771652Y678513D01*
Y687324D01*
D02*
G37*
G36*
X841756Y683428D02*
X829430D01*
Y680698D01*
X829654Y678991D01*
X830313Y677400D01*
X831362Y676034D01*
X832728Y674985D01*
X834319Y674326D01*
X836026Y674102D01*
X841756D01*
Y683428D01*
D02*
G37*
G36*
X877316Y686341D02*
X875943Y686068D01*
X874778Y685290D01*
X874000Y684125D01*
X873727Y682752D01*
X874000Y681379D01*
X874778Y680214D01*
X875943Y679436D01*
X877316Y679163D01*
X878689Y679436D01*
X879854Y680214D01*
X880632Y681379D01*
X880905Y682752D01*
X880632Y684125D01*
X879854Y685290D01*
X878689Y686068D01*
X877316Y686341D01*
D02*
G37*
G36*
X796938Y690118D02*
X774192D01*
Y688594D01*
Y678513D01*
X775574Y678696D01*
X778046Y679719D01*
X780168Y681348D01*
X781797Y683470D01*
X781893Y683702D01*
X789419D01*
X791408Y683964D01*
X793262Y684732D01*
X794854Y685953D01*
X796075Y687545D01*
X796843Y689399D01*
X796938Y690118D01*
D02*
G37*
G36*
X984148Y677932D02*
X979770D01*
Y668556D01*
X980662Y668733D01*
X982494Y669958D01*
X983719Y671790D01*
X984148Y673952D01*
Y677932D01*
D02*
G37*
G36*
X977230D02*
X972851D01*
Y673952D01*
X973281Y671790D01*
X974506Y669958D01*
X976338Y668733D01*
X977230Y668556D01*
Y677932D01*
D02*
G37*
G36*
X939662Y696131D02*
X938289Y695858D01*
X937124Y695080D01*
X936346Y693915D01*
X936073Y692542D01*
X936346Y691169D01*
X937072Y690082D01*
Y687965D01*
X936422Y687531D01*
X935478Y686118D01*
X935146Y684452D01*
Y673952D01*
X935478Y672286D01*
X936422Y670873D01*
X937834Y669930D01*
X939500Y669598D01*
X941166Y669930D01*
X942579Y670873D01*
X943522Y672286D01*
X943854Y673952D01*
Y684452D01*
X943522Y686118D01*
X942579Y687531D01*
X942252Y687749D01*
Y690082D01*
X942978Y691169D01*
X943251Y692542D01*
X942978Y693915D01*
X942200Y695080D01*
X941035Y695858D01*
X939662Y696131D01*
D02*
G37*
G36*
X913500D02*
X912127Y695858D01*
X910962Y695080D01*
X910184Y693915D01*
X909911Y692542D01*
X910184Y691169D01*
X910910Y690082D01*
Y687857D01*
X910422Y687531D01*
X909478Y686118D01*
X909146Y684452D01*
Y673952D01*
X909478Y672286D01*
X910422Y670873D01*
X911834Y669930D01*
X913500Y669598D01*
X915166Y669930D01*
X916579Y670873D01*
X917522Y672286D01*
X917854Y673952D01*
Y684452D01*
X917522Y686118D01*
X916579Y687531D01*
X916090Y687857D01*
Y690082D01*
X916816Y691169D01*
X917089Y692542D01*
X916816Y693915D01*
X916038Y695080D01*
X914873Y695858D01*
X913500Y696131D01*
D02*
G37*
G36*
X863659Y685038D02*
X860298D01*
Y681677D01*
X860897Y681796D01*
X862481Y682855D01*
X863540Y684439D01*
X863659Y685038D01*
D02*
G37*
G36*
X850026Y695294D02*
X844296D01*
Y684698D01*
Y674102D01*
X850026D01*
X851733Y674326D01*
X853324Y674985D01*
X854690Y676034D01*
X855739Y677400D01*
X856398Y678991D01*
X856622Y680698D01*
Y680902D01*
X857604Y681707D01*
X857758Y681677D01*
Y686308D01*
Y690939D01*
X857159Y690820D01*
D01*
Y690820D01*
X857159D01*
Y690820D01*
Y690820D01*
X856066Y691206D01*
X855739Y691996D01*
X854690Y693362D01*
X853324Y694411D01*
X851733Y695070D01*
X850026Y695294D01*
D02*
G37*
G36*
X821495Y688594D02*
X818134D01*
Y685233D01*
X818733Y685352D01*
X820317Y686411D01*
X821376Y687995D01*
X821495Y688594D01*
D02*
G37*
G36*
X815594D02*
X812233D01*
X812352Y687995D01*
X813411Y686411D01*
X814995Y685352D01*
X815594Y685233D01*
Y688594D01*
D02*
G37*
G36*
X728612Y690118D02*
X713740D01*
Y689864D01*
Y679783D01*
X715122Y679966D01*
X717594Y680989D01*
X719716Y682618D01*
X720548Y683702D01*
X721093D01*
X723082Y683964D01*
X724936Y684732D01*
X726528Y685953D01*
X727749Y687545D01*
X728517Y689399D01*
X728612Y690118D01*
D02*
G37*
G36*
X711200D02*
X695540D01*
X695635Y689399D01*
X696403Y687545D01*
X697624Y685953D01*
X699216Y684732D01*
X701070Y683964D01*
X703059Y683702D01*
X704392D01*
X705224Y682618D01*
X707346Y680989D01*
X709818Y679966D01*
X711200Y679783D01*
Y689864D01*
Y690118D01*
D02*
G37*
G36*
X979770Y689848D02*
Y680472D01*
X984148D01*
Y684452D01*
X983719Y686614D01*
X982494Y688446D01*
X980662Y689671D01*
X979770Y689848D01*
D02*
G37*
G36*
X977230D02*
X976338Y689671D01*
X974506Y688446D01*
X973281Y686614D01*
X972851Y684452D01*
Y680472D01*
X977230D01*
Y689848D01*
D02*
G37*
G36*
X991500Y784806D02*
X989834Y784474D01*
X988421Y783531D01*
X987478Y782118D01*
X987146Y780452D01*
Y769952D01*
X987478Y768286D01*
X988421Y766873D01*
X988910Y766547D01*
Y762195D01*
X980848Y754133D01*
X979692Y754483D01*
X978914Y755648D01*
X977749Y756426D01*
X977399Y757582D01*
X980331Y760515D01*
X980893Y761355D01*
X981090Y762346D01*
Y766547D01*
X981579Y766873D01*
X982522Y768286D01*
X982854Y769952D01*
Y780452D01*
X982522Y782118D01*
X981579Y783531D01*
X980166Y784474D01*
X978500Y784806D01*
X976834Y784474D01*
X975422Y783531D01*
X974478Y782118D01*
X974146Y780452D01*
Y769952D01*
X974478Y768286D01*
X975422Y766873D01*
X975910Y766547D01*
Y763419D01*
X961680Y749189D01*
X961493Y749314D01*
X960120Y749587D01*
X958747Y749314D01*
X957660Y748588D01*
X956094D01*
X955608Y749761D01*
X967331Y761485D01*
X967893Y762325D01*
X968090Y763316D01*
X968090Y763316D01*
X968090Y763316D01*
Y763316D01*
Y766547D01*
X968578Y766873D01*
X969522Y768286D01*
X969854Y769952D01*
Y780452D01*
X969522Y782118D01*
X968578Y783531D01*
X967166Y784474D01*
X965500Y784806D01*
X963834Y784474D01*
X962421Y783531D01*
X961478Y782118D01*
X961146Y780452D01*
Y769952D01*
X961478Y768286D01*
X962421Y766873D01*
X962910Y766547D01*
Y764389D01*
X951935Y753414D01*
X947112D01*
X946121Y753217D01*
X945281Y752655D01*
X939943Y747318D01*
X926084D01*
X925093Y747121D01*
X924253Y746559D01*
X924081Y746302D01*
X896677D01*
X887783Y755195D01*
X886943Y755757D01*
X885952Y755954D01*
X853165D01*
X852796Y757169D01*
X853337Y757531D01*
X854396Y759115D01*
X854676Y760523D01*
X854690Y760534D01*
X855739Y761900D01*
X856398Y763491D01*
X856622Y765198D01*
Y767928D01*
X843026D01*
Y769198D01*
X841756D01*
Y779794D01*
X836026D01*
X834319Y779570D01*
X832728Y778911D01*
X831362Y777862D01*
X830313Y776496D01*
X829654Y774905D01*
X829430Y773198D01*
Y773084D01*
X828309Y772485D01*
X827635Y772936D01*
X826262Y773209D01*
X824889Y772936D01*
X823724Y772158D01*
X822946Y770993D01*
X822673Y769620D01*
X822946Y768247D01*
X823724Y767082D01*
X823735Y767075D01*
X823366Y765860D01*
X807974D01*
X806983Y765663D01*
X806143Y765101D01*
X801027Y759985D01*
X800610Y759361D01*
X800536Y759250D01*
X799441Y759982D01*
X798068Y760255D01*
X796695Y759982D01*
X795530Y759204D01*
X794752Y758039D01*
X794724Y757898D01*
X793668Y757193D01*
X792520Y757421D01*
X791147Y757148D01*
X789982Y756370D01*
X789204Y755205D01*
X788931Y753832D01*
X789204Y752459D01*
X789982Y751294D01*
X790578Y750896D01*
Y742910D01*
X790578Y742910D01*
X790578D01*
X790725Y742167D01*
X791147Y741537D01*
X795842Y736842D01*
X796419Y736456D01*
X796050Y735240D01*
X774446D01*
X773703Y735092D01*
X773073Y734671D01*
X759562Y721161D01*
X758442Y721759D01*
X758766Y723388D01*
X758430Y725073D01*
X757476Y726501D01*
X756048Y727456D01*
X754363Y727791D01*
X743441D01*
X741756Y727456D01*
X740328Y726501D01*
X739546Y725330D01*
X732582D01*
X726198Y731714D01*
X725568Y732135D01*
X724825Y732283D01*
X702113D01*
X701370Y732135D01*
X700740Y731714D01*
X697407Y728382D01*
X693929D01*
X693124Y729364D01*
X693199Y729742D01*
X692926Y731115D01*
X692148Y732280D01*
X690983Y733058D01*
X690641Y733126D01*
X690087Y734268D01*
X690105Y734303D01*
X690105Y734303D01*
X690105Y734303D01*
X690440Y735988D01*
X690105Y737673D01*
X690665Y738722D01*
X738813D01*
X739374Y737673D01*
X739038Y735988D01*
X739374Y734303D01*
X740328Y732875D01*
X741756Y731921D01*
X743441Y731585D01*
X754363D01*
X756048Y731921D01*
X757476Y732875D01*
X758430Y734303D01*
X758766Y735988D01*
X758430Y737673D01*
X758044Y738251D01*
X758942Y739149D01*
X759357Y738872D01*
X760730Y738599D01*
X762103Y738872D01*
X763268Y739650D01*
X764046Y740815D01*
X764319Y742188D01*
X764046Y743561D01*
X763268Y744726D01*
X762103Y745504D01*
X760730Y745777D01*
X760604Y745752D01*
X759706Y746650D01*
X759808Y747164D01*
X737996D01*
X738177Y746254D01*
X739412Y744405D01*
X740286Y743822D01*
X739917Y742606D01*
X717954D01*
X717586Y743822D01*
X717955Y744069D01*
X719014Y745653D01*
X719133Y746252D01*
X709871D01*
X709990Y745653D01*
X711049Y744069D01*
X711418Y743822D01*
X711050Y742606D01*
X689561D01*
X689192Y743822D01*
X690066Y744405D01*
X691301Y746254D01*
X691482Y747164D01*
X681846D01*
Y742737D01*
X682450D01*
X682936Y741563D01*
X681764Y740391D01*
X675115D01*
X673430Y740055D01*
X672002Y739101D01*
X671334Y738101D01*
X670064Y738101D01*
X670050Y738122D01*
X668885Y738900D01*
X667512Y739173D01*
X666139Y738900D01*
X664974Y738122D01*
X664196Y736957D01*
X663923Y735584D01*
X664196Y734211D01*
X664974Y733046D01*
X666139Y732268D01*
X667512Y731995D01*
X668885Y732268D01*
X670050Y733046D01*
X670334Y733471D01*
X671604Y733471D01*
X672002Y732875D01*
X673430Y731921D01*
X675115Y731585D01*
X685387D01*
X686192Y730604D01*
X686021Y729742D01*
X686214Y728772D01*
X685408Y727791D01*
X675115D01*
X673430Y727456D01*
X672002Y726501D01*
X671048Y725073D01*
X670712Y723388D01*
X671048Y721703D01*
X672002Y720275D01*
X672076Y719527D01*
X668468Y715919D01*
X667766Y716059D01*
X666393Y715786D01*
X665228Y715008D01*
X664450Y713843D01*
X664177Y712470D01*
X664450Y711097D01*
X665228Y709932D01*
X666393Y709154D01*
X667766Y708881D01*
X667766Y708881D01*
X667766Y708881D01*
X668220Y708836D01*
X668220D01*
X668220Y708836D01*
X668367Y708093D01*
X668789Y707463D01*
X669126Y707126D01*
Y690006D01*
X668530Y689608D01*
X667752Y688443D01*
X667479Y687070D01*
X667752Y685697D01*
X668530Y684532D01*
X669695Y683754D01*
X671068Y683481D01*
X672441Y683754D01*
X673606Y684532D01*
X674384Y685697D01*
X674657Y687070D01*
X674384Y688443D01*
X673606Y689608D01*
X673010Y690006D01*
Y705903D01*
X673992Y706709D01*
X675115Y706485D01*
X686037D01*
X687722Y706821D01*
X689150Y707775D01*
X689343Y708064D01*
X723512D01*
X724111Y706944D01*
X723452Y705957D01*
X723333Y705358D01*
X732595D01*
X732476Y705957D01*
X731817Y706944D01*
X732415Y708064D01*
X740135D01*
X740328Y707775D01*
X741756Y706821D01*
X743441Y706485D01*
X754363D01*
X756048Y706821D01*
X757476Y707775D01*
X758150Y707841D01*
X759116Y706876D01*
X758992Y705612D01*
X757959Y704921D01*
X756900Y703337D01*
X756781Y702738D01*
X761412D01*
Y701468D01*
X762682D01*
Y696837D01*
X763281Y696956D01*
X764865Y698015D01*
X765924Y699599D01*
X766157Y700770D01*
X766328Y700736D01*
X805085D01*
X805684Y699616D01*
X805127Y698783D01*
X804930Y697792D01*
Y697458D01*
X804204Y696371D01*
X803931Y694998D01*
X804204Y693625D01*
X804982Y692460D01*
X806147Y691682D01*
X807520Y691409D01*
X808893Y691682D01*
X810058Y692460D01*
X810836Y693625D01*
X811109Y694998D01*
X810921Y695945D01*
X811726Y696926D01*
X816948D01*
X817939Y697123D01*
X818779Y697685D01*
X819992Y698898D01*
X821256Y698773D01*
X821946Y697740D01*
X823111Y696962D01*
X824484Y696689D01*
X825857Y696962D01*
X827022Y697740D01*
X827708Y698768D01*
X828954Y699016D01*
X829505Y698647D01*
X830496Y698450D01*
X878935D01*
X879926Y698647D01*
X880766Y699209D01*
X880766Y699209D01*
X880766Y699209D01*
X881884Y700327D01*
X881884Y700327D01*
X881884Y700327D01*
X882548Y700990D01*
X905002D01*
X905993Y701187D01*
X906833Y701749D01*
X906833Y701749D01*
X906833Y701749D01*
X907853Y702768D01*
X920068D01*
X921091Y702085D01*
X920844Y700839D01*
X920647Y700800D01*
X919482Y700022D01*
X918704Y698857D01*
X918431Y697484D01*
X918704Y696111D01*
X919482Y694946D01*
X920647Y694168D01*
X922020Y693895D01*
X922928Y694076D01*
X923910Y693270D01*
Y687857D01*
X923421Y687531D01*
X922478Y686118D01*
X922146Y684452D01*
Y673952D01*
X922478Y672286D01*
X923421Y670873D01*
X924834Y669930D01*
X926500Y669598D01*
X928166Y669930D01*
X929578Y670873D01*
X930522Y672286D01*
X930854Y673952D01*
Y684452D01*
X930522Y686118D01*
X929578Y687531D01*
X929090Y687857D01*
Y697322D01*
X928893Y698313D01*
X928331Y699153D01*
X927491Y699715D01*
X926500Y699912D01*
X924631D01*
X924558Y700022D01*
X923457Y700758D01*
X923705Y702003D01*
X923901Y702042D01*
X925066Y702820D01*
X925844Y703985D01*
X926117Y705358D01*
X925844Y706731D01*
X925066Y707896D01*
X923901Y708674D01*
X922528Y708947D01*
X921155Y708674D01*
X920068Y707948D01*
X906780D01*
X906413Y707875D01*
X905515Y708773D01*
X905543Y708914D01*
X905302Y710124D01*
X906329Y711150D01*
X938001D01*
X938599Y710030D01*
X938262Y709525D01*
X937989Y708152D01*
X938262Y706779D01*
X939040Y705614D01*
X940205Y704836D01*
X941578Y704563D01*
X942951Y704836D01*
X944116Y705614D01*
X944894Y706779D01*
X945167Y708152D01*
X945124Y708369D01*
X946244Y708968D01*
X953929Y701283D01*
X953560Y700067D01*
X953413Y700038D01*
X952248Y699260D01*
X951470Y698095D01*
X951215Y696814D01*
X950669Y696267D01*
X950107Y695427D01*
X949910Y694436D01*
Y687857D01*
X949421Y687531D01*
X948478Y686118D01*
X948146Y684452D01*
Y673952D01*
X948478Y672286D01*
X949421Y670873D01*
X950834Y669930D01*
X952500Y669598D01*
X954166Y669930D01*
X955579Y670873D01*
X956522Y672286D01*
X956854Y673952D01*
Y684452D01*
X956522Y686118D01*
X955579Y687531D01*
X955090Y687857D01*
Y693194D01*
X956159Y693406D01*
X957324Y694184D01*
X958102Y695349D01*
X958375Y696722D01*
X958226Y697468D01*
X959032Y698450D01*
X963558D01*
Y688290D01*
X962421Y687531D01*
X961478Y686118D01*
X961146Y684452D01*
Y673952D01*
X961478Y672286D01*
X962421Y670873D01*
X963834Y669930D01*
X965500Y669598D01*
X967166Y669930D01*
X968578Y670873D01*
X969522Y672286D01*
X969854Y673952D01*
Y684452D01*
X969522Y686118D01*
X968578Y687531D01*
X967442Y688290D01*
Y699375D01*
X967893Y700049D01*
X968090Y701040D01*
X967893Y702031D01*
X967442Y702705D01*
Y704280D01*
X967754Y704747D01*
X968027Y706120D01*
X967754Y707493D01*
X966976Y708658D01*
X965811Y709436D01*
X964438Y709709D01*
X963065Y709436D01*
X961900Y708658D01*
X961122Y707493D01*
X960849Y706120D01*
X961122Y704747D01*
X960525Y703630D01*
X958907D01*
X948742Y713795D01*
X949110Y715010D01*
X950317Y715250D01*
X951482Y716028D01*
X952260Y717193D01*
X952533Y718566D01*
X952260Y719939D01*
X951482Y721104D01*
X950317Y721882D01*
X948944Y722155D01*
X947571Y721882D01*
X946406Y721104D01*
X946008Y720508D01*
X894588D01*
X893845Y720360D01*
X893215Y719939D01*
X889280Y716005D01*
X881289D01*
X880747Y717019D01*
X881400Y718108D01*
X883512D01*
X884503Y718305D01*
X885343Y718867D01*
X897947Y731470D01*
X938340D01*
X938939Y730350D01*
X938262Y729337D01*
X937989Y727964D01*
X938262Y726591D01*
X939040Y725426D01*
X940205Y724648D01*
X941578Y724375D01*
X942951Y724648D01*
X944116Y725426D01*
X944894Y726591D01*
X945167Y727964D01*
X944894Y729337D01*
X944750Y729553D01*
X945455Y730609D01*
X946150Y730471D01*
X947523Y730744D01*
X948688Y731522D01*
X949466Y732687D01*
X949721Y733968D01*
X953827Y738074D01*
X971042D01*
X972033Y738271D01*
X972873Y738833D01*
X972873Y738833D01*
X972873Y738833D01*
X993331Y759291D01*
X993893Y760131D01*
X994090Y761122D01*
X994090Y761122D01*
X994090Y761122D01*
Y761122D01*
Y766547D01*
X994578Y766873D01*
X995522Y768286D01*
X995854Y769952D01*
Y780452D01*
X995522Y782118D01*
X994578Y783531D01*
X993166Y784474D01*
X991500Y784806D01*
D02*
G37*
G36*
X754363Y754131D02*
X750172D01*
Y749704D01*
X759808D01*
X759627Y750614D01*
X758392Y752463D01*
X756543Y753698D01*
X754363Y754131D01*
D02*
G37*
G36*
X796938Y766722D02*
X780542D01*
Y758777D01*
X781924Y758960D01*
X784396Y759983D01*
X784817Y760306D01*
X789419D01*
X791408Y760568D01*
X793262Y761336D01*
X794854Y762557D01*
X796075Y764149D01*
X796843Y766003D01*
X796938Y766722D01*
D02*
G37*
G36*
X728612D02*
X715010D01*
Y757000D01*
X716392Y757181D01*
X718864Y758205D01*
X720986Y759834D01*
X721377Y760344D01*
X723082Y760568D01*
X724936Y761336D01*
X726528Y762557D01*
X727749Y764149D01*
X728517Y766003D01*
X728612Y766722D01*
D02*
G37*
G36*
X679306Y754131D02*
X675115D01*
X672935Y753698D01*
X671086Y752463D01*
X669851Y750614D01*
X669670Y749704D01*
X679306D01*
Y754131D01*
D02*
G37*
G36*
X995680Y756381D02*
X994307Y756108D01*
X993142Y755330D01*
X992364Y754165D01*
X992091Y752792D01*
X992364Y751419D01*
X993142Y750254D01*
X994307Y749476D01*
X995680Y749203D01*
X997053Y749476D01*
X998218Y750254D01*
X998996Y751419D01*
X999269Y752792D01*
X998996Y754165D01*
X998218Y755330D01*
X997053Y756108D01*
X995680Y756381D01*
D02*
G37*
G36*
X747632Y754131D02*
X743441D01*
X741261Y753698D01*
X739412Y752463D01*
X738177Y750614D01*
X737996Y749704D01*
X747632D01*
Y754131D01*
D02*
G37*
G36*
X686866Y760459D02*
X685493Y760186D01*
X684328Y759408D01*
X683550Y758243D01*
X683277Y756870D01*
X683550Y755497D01*
X683714Y755251D01*
X683115Y754131D01*
X681846D01*
Y749704D01*
X691482D01*
X691301Y750614D01*
X690066Y752463D01*
X689286Y752984D01*
X689286Y754254D01*
X689404Y754332D01*
X690182Y755497D01*
X690455Y756870D01*
X690182Y758243D01*
X689404Y759408D01*
X688239Y760186D01*
X686866Y760459D01*
D02*
G37*
G36*
X939500Y784806D02*
X937834Y784474D01*
X936422Y783531D01*
X935478Y782118D01*
X935146Y780452D01*
Y769952D01*
X935478Y768286D01*
X936422Y766873D01*
X936910Y766547D01*
Y762265D01*
X934917Y760272D01*
X918521D01*
X916090Y762703D01*
Y766547D01*
X916579Y766873D01*
X917522Y768286D01*
X917854Y769952D01*
Y780452D01*
X917522Y782118D01*
X916579Y783531D01*
X915166Y784474D01*
X913500Y784806D01*
X911834Y784474D01*
X910422Y783531D01*
X909478Y782118D01*
X909146Y780452D01*
Y769952D01*
X909478Y768286D01*
X910422Y766873D01*
X910910Y766547D01*
Y761630D01*
X910910Y761630D01*
X910910D01*
X911107Y760639D01*
X911669Y759799D01*
X915617Y755851D01*
X916457Y755289D01*
X917448Y755092D01*
X935990D01*
X936981Y755289D01*
X937821Y755851D01*
X937821Y755851D01*
X937821Y755851D01*
X941331Y759361D01*
X941893Y760201D01*
X942090Y761192D01*
X942090Y761192D01*
X942090Y761192D01*
Y761192D01*
Y766547D01*
X942579Y766873D01*
X943522Y768286D01*
X943854Y769952D01*
Y780452D01*
X943522Y782118D01*
X942579Y783531D01*
X941166Y784474D01*
X939500Y784806D01*
D02*
G37*
G36*
X780542Y778939D02*
Y769262D01*
X796938D01*
X796843Y769981D01*
X796075Y771835D01*
X794854Y773427D01*
X793262Y774648D01*
X791408Y775416D01*
X789419Y775678D01*
X786845D01*
X786518Y776104D01*
X784396Y777733D01*
X781924Y778756D01*
X780542Y778939D01*
D02*
G37*
G36*
X778002D02*
X776620Y778756D01*
X774148Y777733D01*
X772026Y776104D01*
X771699Y775678D01*
X771385D01*
X769396Y775416D01*
X767542Y774648D01*
X765950Y773427D01*
X764729Y771835D01*
X763961Y769981D01*
X763866Y769262D01*
X778002D01*
Y778939D01*
D02*
G37*
G36*
X712470Y777160D02*
X711088Y776979D01*
X708616Y775955D01*
X708255Y775678D01*
X703059D01*
X701070Y775416D01*
X699216Y774648D01*
X697624Y773427D01*
X697514Y773283D01*
X695450Y771904D01*
X694285Y772682D01*
X692912Y772955D01*
X691539Y772682D01*
X690374Y771904D01*
X689596Y770739D01*
X689323Y769366D01*
X689596Y767993D01*
X690374Y766828D01*
X691539Y766050D01*
X692912Y765777D01*
X694285Y766050D01*
X694495Y766190D01*
X695710Y765822D01*
X696403Y764149D01*
X697624Y762557D01*
X699216Y761336D01*
X701070Y760568D01*
X703059Y760306D01*
X706131D01*
X706494Y759834D01*
X708616Y758205D01*
X711088Y757181D01*
X712470Y757000D01*
Y766722D01*
X712076D01*
Y769262D01*
X712470D01*
Y777160D01*
D02*
G37*
G36*
X850026Y779794D02*
X844296D01*
Y770468D01*
X856622D01*
Y773198D01*
X856398Y774905D01*
X855739Y776496D01*
X854690Y777862D01*
X853324Y778911D01*
X851733Y779570D01*
X850026Y779794D01*
D02*
G37*
G36*
X926500Y784806D02*
X924834Y784474D01*
X923421Y783531D01*
X922478Y782118D01*
X922146Y780452D01*
Y769952D01*
X922478Y768286D01*
X923177Y767239D01*
X922911Y765902D01*
X923184Y764529D01*
X923962Y763364D01*
X925127Y762586D01*
X926500Y762313D01*
X927873Y762586D01*
X929038Y763364D01*
X929816Y764529D01*
X930089Y765902D01*
X929823Y767239D01*
X930522Y768286D01*
X930854Y769952D01*
Y780452D01*
X930522Y782118D01*
X929578Y783531D01*
X928166Y784474D01*
X926500Y784806D01*
D02*
G37*
G36*
X952500D02*
X950834Y784474D01*
X949421Y783531D01*
X948478Y782118D01*
X948146Y780452D01*
Y769952D01*
X948478Y768286D01*
X949421Y766873D01*
X949466Y766844D01*
X949184Y766421D01*
X948911Y765048D01*
X949184Y763675D01*
X949962Y762510D01*
X951127Y761732D01*
X952500Y761459D01*
X953873Y761732D01*
X955038Y762510D01*
X955816Y763675D01*
X956089Y765048D01*
X955816Y766421D01*
X955534Y766844D01*
X955579Y766873D01*
X956522Y768286D01*
X956854Y769952D01*
Y780452D01*
X956522Y782118D01*
X955579Y783531D01*
X954166Y784474D01*
X952500Y784806D01*
D02*
G37*
G36*
X715010Y777160D02*
Y769262D01*
X728612D01*
X728517Y769981D01*
X727749Y771835D01*
X726528Y773427D01*
X724936Y774648D01*
X723082Y775416D01*
X721093Y775678D01*
X719225D01*
X718864Y775955D01*
X716392Y776979D01*
X715010Y777160D01*
D02*
G37*
G36*
X778002Y766722D02*
X763866D01*
X763921Y766310D01*
X763301Y765729D01*
X762732Y765494D01*
X762254Y765589D01*
X760881Y765316D01*
X759716Y764538D01*
X758938Y763373D01*
X758665Y762000D01*
X758938Y760627D01*
X759716Y759462D01*
X760881Y758684D01*
X762254Y758411D01*
X763627Y758684D01*
X764792Y759462D01*
X765570Y760627D01*
X765719Y761376D01*
X766907Y761823D01*
X767542Y761336D01*
X769396Y760568D01*
X771385Y760306D01*
X773727D01*
X774148Y759983D01*
X776620Y758960D01*
X778002Y758777D01*
Y766722D01*
D02*
G37*
G36*
X732595Y702818D02*
X729234D01*
Y699457D01*
X729833Y699576D01*
X731417Y700635D01*
X732476Y702219D01*
X732595Y702818D01*
D02*
G37*
G36*
X726694D02*
X723333D01*
X723452Y702219D01*
X724511Y700635D01*
X726095Y699576D01*
X726694Y699457D01*
Y702818D01*
D02*
G37*
G36*
X679306Y747164D02*
X669670D01*
X669851Y746254D01*
X671086Y744405D01*
X672935Y743170D01*
X675115Y742737D01*
X679306D01*
Y747164D01*
D02*
G37*
G36*
X995934Y717042D02*
X992573D01*
X992692Y716443D01*
X993751Y714859D01*
X995335Y713800D01*
X995934Y713681D01*
Y717042D01*
D02*
G37*
G36*
X995426Y732849D02*
X994827Y732730D01*
X993243Y731671D01*
X992184Y730087D01*
X992065Y729488D01*
X995426D01*
Y732849D01*
D02*
G37*
G36*
X1003808Y736633D02*
X1002435Y736360D01*
X1001270Y735582D01*
X1000492Y734417D01*
X1000219Y733044D01*
X1000221Y733035D01*
X999165Y732329D01*
X998565Y732730D01*
X997966Y732849D01*
Y728218D01*
X996696D01*
Y726948D01*
X992065D01*
X992184Y726349D01*
X993243Y724765D01*
X994791Y723730D01*
Y723523D01*
X994547Y722297D01*
X993751Y721765D01*
X992692Y720181D01*
X992573Y719582D01*
X997204D01*
Y718312D01*
X998474D01*
Y713681D01*
X999073Y713800D01*
X1000657Y714859D01*
X1001866Y714051D01*
Y710072D01*
X1001270Y709674D01*
X1000492Y708509D01*
X1000219Y707136D01*
X1000492Y705763D01*
X1001270Y704598D01*
X1002435Y703820D01*
X1003808Y703547D01*
X1005181Y703820D01*
X1006346Y704598D01*
X1007124Y705763D01*
X1007397Y707136D01*
X1007124Y708509D01*
X1006346Y709674D01*
X1005750Y710072D01*
Y730108D01*
X1006346Y730506D01*
X1007124Y731671D01*
X1007397Y733044D01*
X1007124Y734417D01*
X1006346Y735582D01*
X1005181Y736360D01*
X1003808Y736633D01*
D02*
G37*
G36*
X715772Y752153D02*
Y748792D01*
X719133D01*
X719014Y749391D01*
X717955Y750975D01*
X716371Y752034D01*
X715772Y752153D01*
D02*
G37*
G36*
X1006348D02*
X1005749Y752034D01*
X1004165Y750975D01*
X1003106Y749391D01*
X1002987Y748792D01*
X1006348D01*
Y752153D01*
D02*
G37*
G36*
X1008888D02*
Y748792D01*
X1012249D01*
X1012130Y749391D01*
X1011071Y750975D01*
X1009487Y752034D01*
X1008888Y752153D01*
D02*
G37*
G36*
X1006348Y746252D02*
X1002987D01*
X1003106Y745653D01*
X1004165Y744069D01*
X1005749Y743010D01*
X1006348Y742891D01*
Y746252D01*
D02*
G37*
G36*
X1012249D02*
X1008888D01*
Y742891D01*
X1009487Y743010D01*
X1011071Y744069D01*
X1012130Y745653D01*
X1012249Y746252D01*
D02*
G37*
G36*
X713232Y752153D02*
X712633Y752034D01*
X711049Y750975D01*
X709990Y749391D01*
X709871Y748792D01*
X713232D01*
Y752153D01*
D02*
G37*
%LPD*%
G36*
X832305Y751533D02*
X833145Y750971D01*
X834136Y750774D01*
X859492D01*
X860091Y749654D01*
X859735Y749122D01*
X859402Y747448D01*
Y746968D01*
X871026D01*
Y745698D01*
X872296D01*
Y739574D01*
X878276D01*
X879950Y739907D01*
X881369Y740855D01*
X881732Y741398D01*
X881888Y741367D01*
Y745998D01*
X884428D01*
Y741367D01*
X885027Y741486D01*
X886611Y742545D01*
X887670Y744129D01*
X888042Y745998D01*
X889388Y746266D01*
X893773Y741881D01*
X894015Y741719D01*
X894299Y740290D01*
Y740259D01*
X893465Y739701D01*
X889551Y735788D01*
X881188D01*
X881121Y736126D01*
X880453Y737125D01*
X879454Y737793D01*
X878276Y738027D01*
X863776D01*
X862598Y737793D01*
X861599Y737125D01*
X860931Y736126D01*
X860735Y735140D01*
X855503D01*
X854904Y736260D01*
X855232Y736751D01*
X855505Y738124D01*
X855232Y739497D01*
X854454Y740662D01*
X853289Y741440D01*
X851916Y741713D01*
X850543Y741440D01*
X849378Y740662D01*
X848980Y740066D01*
X837989D01*
X820523Y757531D01*
X819893Y757952D01*
X819150Y758100D01*
X811155D01*
X810850Y758040D01*
X809680Y758272D01*
X808307Y757999D01*
X807844Y757690D01*
X807038Y758671D01*
X809047Y760680D01*
X823157D01*
X832305Y751533D01*
D02*
G37*
G36*
X849492Y712690D02*
X849492Y712690D01*
X850122Y712269D01*
X850122Y712269D01*
X850122Y712269D01*
D01*
X850122Y712269D01*
X850122Y712269D01*
X850865Y712121D01*
X850865Y712121D01*
X860400D01*
X860931Y711126D01*
X860697Y709948D01*
Y707440D01*
X833147D01*
X829877Y710709D01*
X829037Y711271D01*
X828046Y711468D01*
X820922D01*
X819931Y711271D01*
X819090Y710709D01*
X814297Y705916D01*
X767401D01*
X760597Y712719D01*
X760581Y713899D01*
D01*
X760581Y713899D01*
X761324Y714047D01*
X761954Y714468D01*
X775541Y728054D01*
X785086D01*
X785495Y726851D01*
X784472Y726066D01*
X782843Y723944D01*
X781820Y721472D01*
X781637Y720090D01*
X801798D01*
X801617Y721472D01*
X800593Y723944D01*
X798964Y726066D01*
X797941Y726851D01*
X798350Y728054D01*
X809709D01*
X811681Y726083D01*
X811681Y726083D01*
X812311Y725661D01*
X813054Y725514D01*
X822056D01*
X822454Y724918D01*
X823619Y724140D01*
X824992Y723867D01*
X826365Y724140D01*
X827530Y724918D01*
X828308Y726083D01*
X828581Y727456D01*
X828308Y728829D01*
X827530Y729994D01*
X827336Y730123D01*
Y731393D01*
X827530Y731522D01*
X828227Y732566D01*
X829491Y732690D01*
X849492Y712690D01*
D02*
G37*
%LPC*%
G36*
X869756Y744428D02*
X859402D01*
Y743948D01*
X859735Y742274D01*
X860683Y740855D01*
X862102Y739907D01*
X863776Y739574D01*
X869756D01*
Y744428D01*
D02*
G37*
G36*
X801798Y717550D02*
X792988D01*
Y708739D01*
X794370Y708922D01*
X796842Y709945D01*
X798964Y711574D01*
X800593Y713696D01*
X801617Y716168D01*
X801798Y717550D01*
D02*
G37*
G36*
X790448D02*
X781637D01*
X781820Y716168D01*
X782843Y713696D01*
X784472Y711574D01*
X786594Y709945D01*
X789066Y708922D01*
X790448Y708739D01*
Y717550D01*
D02*
G37*
%LPD*%
D29*
X758766Y710888D02*
X766328Y703326D01*
X748902Y710888D02*
X758766D01*
X922020Y697484D02*
X922182Y697322D01*
X926500D01*
X939546Y737870D02*
X947674Y745998D01*
X895296Y737870D02*
X939546D01*
X890624Y733198D02*
X895296Y737870D01*
X871026Y733198D02*
X890624D01*
X896874Y734060D02*
X946150D01*
X883512Y720698D02*
X896874Y734060D01*
X816948Y699516D02*
X822500Y705068D01*
X809244Y699516D02*
X816948D01*
X807520Y697792D02*
X809244Y699516D01*
X815370Y703326D02*
X820922Y708878D01*
X766328Y703326D02*
X815370D01*
X826468Y705068D02*
X830496Y701040D01*
X878935D01*
X880053Y702158D01*
X832074Y704850D02*
X867678D01*
X828046Y708878D02*
X832074Y704850D01*
X820922Y708878D02*
X828046D01*
X822500Y705068D02*
X826468D01*
X867678Y704850D02*
X871026Y708198D01*
X939500Y679202D02*
X939662Y679364D01*
Y692542D01*
X913500Y679202D02*
Y692542D01*
X926500Y679202D02*
Y697322D01*
X952500Y694436D02*
X954786Y696722D01*
X952500Y679202D02*
Y694436D01*
X881475Y703580D02*
X905002D01*
X880053Y702158D02*
X881475Y703580D01*
X905002D02*
X906780Y705358D01*
X922528D01*
X905256Y713740D02*
X945134D01*
X902404Y710888D02*
X905256Y713740D01*
X899980Y710888D02*
X902404D01*
X871026Y720698D02*
X883512D01*
X899980Y710888D02*
X901954Y708914D01*
X953008Y750824D02*
X965500Y763316D01*
X947112Y750824D02*
X953008D01*
X941016Y744728D02*
X947112Y750824D01*
X960120Y745998D02*
X962152D01*
X947674D02*
X960120D01*
X971042Y740664D02*
X991500Y761122D01*
X952754Y740664D02*
X971042D01*
X946150Y734060D02*
X952754Y740664D01*
X895604Y743712D02*
X927100D01*
X885952Y753364D02*
X895604Y743712D01*
X834136Y753364D02*
X885952D01*
X926084Y744728D02*
X941016D01*
X952500Y765048D02*
Y775202D01*
X926500Y765902D02*
Y775202D01*
X939500Y761192D02*
Y775202D01*
X935990Y757682D02*
X939500Y761192D01*
X917448Y757682D02*
X935990D01*
X913500Y761630D02*
X917448Y757682D01*
X913500Y761630D02*
Y775202D01*
X885031Y707136D02*
X886254D01*
X880053Y702158D02*
X885031Y707136D01*
X945134Y713740D02*
X957834Y701040D01*
X965500D01*
X807520Y694998D02*
Y697792D01*
X824230Y763270D02*
X834136Y753364D01*
X807974Y763270D02*
X824230D01*
X802858Y758154D02*
X807974Y763270D01*
X802858Y756194D02*
Y758154D01*
Y756194D02*
X803910Y755142D01*
X965500Y763316D02*
Y775202D01*
X978500Y762346D02*
Y775202D01*
X962152Y745998D02*
X978500Y762346D01*
X991500Y761122D02*
Y775202D01*
X715518Y768858D02*
X779272D01*
X712076Y691388D02*
X722376D01*
X727964Y696976D01*
Y704088D01*
D30*
X894588Y718566D02*
X948944D01*
X890085Y714063D02*
X894588Y718566D01*
X850865Y714063D02*
X890085D01*
X926084Y744728D02*
X927100Y743712D01*
X773847Y689519D02*
X816519D01*
X965500Y701040D02*
Y705058D01*
Y679202D02*
Y701040D01*
X978500Y690210D02*
X997204Y708914D01*
X1003808Y707136D02*
Y733044D01*
X996696Y736600D02*
X1007618Y747522D01*
X996696Y728218D02*
Y736600D01*
Y718820D02*
Y728218D01*
X997204Y708914D02*
Y718312D01*
X978500Y679202D02*
Y690210D01*
X964438Y706120D02*
X965500Y705058D01*
X991500Y682636D02*
X996696Y687832D01*
X991500Y679202D02*
Y682636D01*
X871026Y745698D02*
X882858D01*
X883158Y745998D01*
X843026Y684698D02*
X844636Y686308D01*
X859028D01*
X859436Y720698D02*
X871026D01*
X852678Y727456D02*
X859436Y720698D01*
X837184Y738124D02*
X851916D01*
X819150Y756158D02*
X837184Y738124D01*
X811155Y756158D02*
X819150D01*
X809680Y754683D02*
X811155Y756158D01*
X835322Y733198D02*
X871026D01*
X827765Y740755D02*
X835322Y733198D01*
X799592Y740755D02*
X827765D01*
X798068Y742279D02*
X799592Y740755D01*
X798068Y742279D02*
Y756666D01*
X826713Y738215D02*
X850865Y714063D01*
X797215Y738215D02*
X826713D01*
X792520Y742910D02*
X797215Y738215D01*
X792520Y742910D02*
Y753832D01*
X813054Y727456D02*
X824992D01*
X810514Y729996D02*
X813054Y727456D01*
X774736Y729996D02*
X810514D01*
X667766Y712470D02*
X670162Y710074D01*
Y708836D02*
Y710074D01*
Y708836D02*
X671068Y707930D01*
Y686816D02*
Y707930D01*
X692187Y760045D02*
X699222Y767080D01*
X689567Y760045D02*
X692187D01*
X688587Y761025D02*
X689567Y760045D01*
X685145Y761025D02*
X688587D01*
X682711Y758591D02*
X685145Y761025D01*
X682711Y755149D02*
Y758591D01*
Y755149D02*
X685001Y752859D01*
X680576Y748434D02*
X685001Y752859D01*
X699222Y767080D02*
X713740D01*
X667512Y735988D02*
X680576D01*
X723646Y718403D02*
Y724408D01*
X724825Y730341D02*
X731778Y723388D01*
X774446Y733298D02*
X824992D01*
X759529Y718381D02*
X774446Y733298D01*
X760581Y715841D02*
X774736Y729996D01*
X771492Y691388D02*
X780402D01*
X731778Y723388D02*
X748902D01*
X744226Y740664D02*
X748902Y735988D01*
X684784Y740664D02*
X744226D01*
X680576Y736456D02*
X684784Y740664D01*
X680576Y735988D02*
Y736456D01*
X698212Y726440D02*
X702113Y730341D01*
X692658Y726440D02*
X698212D01*
X702113Y730341D02*
X724825D01*
X689606Y723388D02*
X692658Y726440D01*
X703580D02*
X714157Y715863D01*
X727907D01*
X772922Y688594D02*
X773847Y689519D01*
X816519D02*
X816864Y689864D01*
X761412Y701468D02*
X771492Y691388D01*
X723646Y718403D02*
X728959D01*
X727929Y715841D02*
X760581D01*
X728981Y718381D02*
X759529D01*
X727907Y715863D02*
X727929Y715841D01*
X728959Y718403D02*
X728981Y718381D01*
X680576Y723388D02*
X689606D01*
X714502Y748434D02*
X748902D01*
X849644Y760744D02*
X849884Y760984D01*
X680576Y748434D02*
X713740D01*
Y748284D02*
Y748434D01*
X678684Y723388D02*
X680576D01*
X667766Y712470D02*
X678684Y723388D01*
D31*
X760730Y742188D02*
Y742696D01*
X680576Y710888D02*
X728726D01*
X727710Y711708D02*
Y711904D01*
X728726Y710888D01*
X748902D01*
D32*
X791718Y718820D02*
D03*
X779272Y768858D02*
D03*
X772922Y688594D02*
D03*
X712470Y689864D02*
D03*
X713740Y767080D02*
D03*
D33*
X859790Y727964D02*
D03*
X922020Y697484D02*
D03*
X995680Y752792D02*
D03*
X976376Y753110D02*
D03*
X941578Y727964D02*
D03*
X939662Y692542D02*
D03*
X913500D02*
D03*
X922528Y705358D02*
D03*
X954786Y696722D02*
D03*
X901954Y708914D02*
D03*
X960120Y745998D02*
D03*
X927100Y743712D02*
D03*
X952500Y765048D02*
D03*
X926500Y765902D02*
D03*
X886254Y707136D02*
D03*
X824484Y700278D02*
D03*
X877316Y682752D02*
D03*
X983488Y696468D02*
D03*
X941578Y708152D02*
D03*
X946150Y734060D02*
D03*
X1003808Y707136D02*
D03*
Y733044D02*
D03*
X1007618Y747522D02*
D03*
X996696Y728218D02*
D03*
X997204Y718312D02*
D03*
X964438Y706120D02*
D03*
X996696Y687832D02*
D03*
X883158Y745998D02*
D03*
X859028Y686308D02*
D03*
X807520Y694998D02*
D03*
X852678Y727456D02*
D03*
X851916Y738124D02*
D03*
X809680Y754683D02*
D03*
X798068Y756666D02*
D03*
X803910Y755142D02*
D03*
X948944Y718566D02*
D03*
X792520Y753832D02*
D03*
X692912Y769366D02*
D03*
X671068Y687070D02*
D03*
X667512Y735584D02*
D03*
X727964Y704088D02*
D03*
X723646Y724408D02*
D03*
X824992Y727456D02*
D03*
Y734060D02*
D03*
X760730Y742188D02*
D03*
X686866Y756870D02*
D03*
X826262Y769620D02*
D03*
X762254Y762000D02*
D03*
X741374Y698632D02*
D03*
X689610Y729742D02*
D03*
X703834Y726186D02*
D03*
X816864Y689864D02*
D03*
X761412Y701468D02*
D03*
X726186Y711708D02*
D03*
X849884Y760984D02*
D03*
X667766Y712470D02*
D03*
X714502Y747522D02*
D03*
D34*
X913500Y775202D02*
D03*
X926500D02*
D03*
X939500D02*
D03*
X952500D02*
D03*
X965500D02*
D03*
X978500D02*
D03*
X991500D02*
D03*
X913500Y679202D02*
D03*
X926500D02*
D03*
X939500D02*
D03*
X952500D02*
D03*
X965500D02*
D03*
X978500D02*
D03*
X991500D02*
D03*
D35*
X871026Y745698D02*
D03*
Y733198D02*
D03*
Y708198D02*
D03*
Y720698D02*
D03*
D36*
X843026Y684698D02*
D03*
Y769198D02*
D03*
D37*
X748902Y710888D02*
D03*
Y723388D02*
D03*
Y735988D02*
D03*
Y748434D02*
D03*
X680576Y710888D02*
D03*
Y723388D02*
D03*
Y735988D02*
D03*
Y748434D02*
D03*
D38*
X780402Y691388D02*
D03*
Y767992D02*
D03*
X712076Y691388D02*
D03*
Y767992D02*
D03*
M02*
