%FSLAX44Y44*%
%MOMM*%
G71*
G01*
G75*
G04 Layer_Physical_Order=1*
G04 Layer_Color=255*
%ADD10C,1.0000*%
%ADD11R,0.6000X0.5000*%
G04:AMPARAMS|DCode=12|XSize=0.508mm|YSize=0.6096mm|CornerRadius=0.127mm|HoleSize=0mm|Usage=FLASHONLY|Rotation=0.000|XOffset=0mm|YOffset=0mm|HoleType=Round|Shape=RoundedRectangle|*
%AMROUNDEDRECTD12*
21,1,0.5080,0.3556,0,0,0.0*
21,1,0.2540,0.6096,0,0,0.0*
1,1,0.2540,0.1270,-0.1778*
1,1,0.2540,-0.1270,-0.1778*
1,1,0.2540,-0.1270,0.1778*
1,1,0.2540,0.1270,0.1778*
%
%ADD12ROUNDEDRECTD12*%
%ADD13P,1.7321X8X22.5*%
G04:AMPARAMS|DCode=14|XSize=0.508mm|YSize=0.6096mm|CornerRadius=0.127mm|HoleSize=0mm|Usage=FLASHONLY|Rotation=270.000|XOffset=0mm|YOffset=0mm|HoleType=Round|Shape=RoundedRectangle|*
%AMROUNDEDRECTD14*
21,1,0.5080,0.3556,0,0,270.0*
21,1,0.2540,0.6096,0,0,270.0*
1,1,0.2540,-0.1778,-0.1270*
1,1,0.2540,-0.1778,0.1270*
1,1,0.2540,0.1778,0.1270*
1,1,0.2540,0.1778,-0.1270*
%
%ADD14ROUNDEDRECTD14*%
G04:AMPARAMS|DCode=15|XSize=0.7112mm|YSize=1.3208mm|CornerRadius=0.1778mm|HoleSize=0mm|Usage=FLASHONLY|Rotation=0.000|XOffset=0mm|YOffset=0mm|HoleType=Round|Shape=RoundedRectangle|*
%AMROUNDEDRECTD15*
21,1,0.7112,0.9652,0,0,0.0*
21,1,0.3556,1.3208,0,0,0.0*
1,1,0.3556,0.1778,-0.4826*
1,1,0.3556,-0.1778,-0.4826*
1,1,0.3556,-0.1778,0.4826*
1,1,0.3556,0.1778,0.4826*
%
%ADD15ROUNDEDRECTD15*%
G04:AMPARAMS|DCode=16|XSize=0.275mm|YSize=0.275mm|CornerRadius=0.0688mm|HoleSize=0mm|Usage=FLASHONLY|Rotation=90.000|XOffset=0mm|YOffset=0mm|HoleType=Round|Shape=RoundedRectangle|*
%AMROUNDEDRECTD16*
21,1,0.2750,0.1375,0,0,90.0*
21,1,0.1375,0.2750,0,0,90.0*
1,1,0.1375,0.0688,0.0688*
1,1,0.1375,0.0688,-0.0688*
1,1,0.1375,-0.0688,-0.0688*
1,1,0.1375,-0.0688,0.0688*
%
%ADD16ROUNDEDRECTD16*%
G04:AMPARAMS|DCode=17|XSize=0.275mm|YSize=0.275mm|CornerRadius=0.0688mm|HoleSize=0mm|Usage=FLASHONLY|Rotation=180.000|XOffset=0mm|YOffset=0mm|HoleType=Round|Shape=RoundedRectangle|*
%AMROUNDEDRECTD17*
21,1,0.2750,0.1375,0,0,180.0*
21,1,0.1375,0.2750,0,0,180.0*
1,1,0.1375,-0.0688,0.0688*
1,1,0.1375,0.0688,0.0688*
1,1,0.1375,0.0688,-0.0688*
1,1,0.1375,-0.0688,-0.0688*
%
%ADD17ROUNDEDRECTD17*%
%ADD18R,0.6096X0.5080*%
%ADD19R,0.5000X0.6000*%
%ADD20R,1.0000X0.6000*%
%ADD21R,0.8500X0.3000*%
%ADD22R,1.3000X2.0000*%
%ADD23R,0.4000X0.4000*%
%ADD24R,0.6000X0.5500*%
%ADD25R,1.4000X1.2000*%
%ADD26R,3.4500X3.4500*%
%ADD27O,0.3000X0.6000*%
%ADD28O,0.6000X0.3000*%
%ADD29C,0.1270*%
%ADD30C,0.2540*%
%ADD31C,0.3000*%
%ADD32C,1.5240*%
%ADD33C,0.4500*%
G36*
X680590Y429909D02*
X693053Y417446D01*
X693143Y417229D01*
Y316577D01*
X693053Y316360D01*
X680590Y303897D01*
X680373Y303807D01*
X325213D01*
X324996Y303897D01*
X313030Y315862D01*
X313033Y315871D01*
D01*
D01*
D01*
X313033Y315871D01*
X313033Y315871D01*
X312897Y316199D01*
X312897D01*
X312869Y316202D01*
X312840Y316230D01*
X312840Y316230D01*
X312840Y316230D01*
X312840Y316230D01*
X312830Y316255D01*
D01*
D01*
D01*
X312830Y316255D01*
X312774Y316391D01*
X312774D01*
X312774Y316391D01*
X312705Y316556D01*
Y316556D01*
D01*
X312697Y316577D01*
Y417229D01*
X312787Y417446D01*
X322620Y427279D01*
X323601Y426473D01*
X322516Y424848D01*
X322029Y422402D01*
X322516Y419956D01*
X323902Y417882D01*
X325976Y416496D01*
X326480Y416395D01*
Y415031D01*
X320429Y408979D01*
X320313Y408956D01*
X319683Y408535D01*
X315008Y403860D01*
X314587Y403230D01*
X314439Y402487D01*
Y390766D01*
X314439Y390766D01*
X314439D01*
X314587Y390022D01*
X315008Y389392D01*
X316320Y388080D01*
Y378602D01*
X315724Y378204D01*
X314946Y377039D01*
X314673Y375666D01*
X314946Y374293D01*
X315724Y373128D01*
X316889Y372350D01*
X318262Y372077D01*
X319114Y371378D01*
Y364513D01*
X319079Y364337D01*
Y359759D01*
X319079Y359759D01*
X319079D01*
X319114Y359583D01*
Y359146D01*
X318516Y356141D01*
X317143Y355868D01*
X315978Y355090D01*
X315200Y353925D01*
X314927Y352552D01*
X315200Y351179D01*
X315978Y350014D01*
X317143Y349236D01*
X318516Y348963D01*
X319218Y349103D01*
X320647Y347675D01*
Y347675D01*
X320386Y346588D01*
X320386Y346588D01*
X320386D01*
Y343818D01*
X327176D01*
Y342548D01*
X328446D01*
Y338508D01*
X333966D01*
Y339758D01*
X340106D01*
Y352298D01*
X342646D01*
Y339758D01*
X350416D01*
Y339778D01*
X352514D01*
X353016Y338567D01*
X350894Y336938D01*
X349265Y334816D01*
X348242Y332344D01*
X348060Y330962D01*
X368220D01*
X368038Y332344D01*
X367015Y334816D01*
X365386Y336938D01*
X363264Y338567D01*
X361096Y339465D01*
Y339535D01*
X361214Y340731D01*
X361325Y340754D01*
X361955Y341175D01*
X366302Y345521D01*
X367422Y344922D01*
X367234Y343980D01*
Y341440D01*
X367431Y340449D01*
X367993Y339609D01*
X368833Y339047D01*
X369824Y338850D01*
X372651D01*
X383437Y328065D01*
X384067Y327644D01*
X384354Y327586D01*
X384812Y326900D01*
X385977Y326122D01*
X387350Y325849D01*
X388723Y326122D01*
X389888Y326900D01*
X390666Y328065D01*
X390939Y329438D01*
X390666Y330811D01*
X389888Y331976D01*
X388723Y332754D01*
X387350Y333027D01*
X385977Y332754D01*
X384936Y332059D01*
X383522Y333473D01*
X384008Y334646D01*
X389088D01*
Y338221D01*
X389339Y338388D01*
X394860D01*
X395306Y338477D01*
X396288Y337671D01*
Y336472D01*
X404828D01*
Y344202D01*
X406478D01*
X407201Y343718D01*
X407610Y343220D01*
X407531Y342820D01*
X412162D01*
Y340280D01*
X407531D01*
X407650Y339681D01*
X408709Y338097D01*
X408955Y337932D01*
X409203Y336686D01*
X408672Y335891D01*
X408399Y334518D01*
X408497Y334025D01*
X407691Y333044D01*
X407352D01*
X406361Y332847D01*
X406081Y332659D01*
X404835Y332907D01*
X404639Y333201D01*
X403379Y334043D01*
X401892Y334339D01*
Y328676D01*
Y323013D01*
X403379Y323309D01*
X404639Y324151D01*
X404835Y324445D01*
X406081Y324693D01*
X406361Y324505D01*
X407352Y324308D01*
X409892D01*
X410883Y324505D01*
X411723Y325067D01*
X412285Y325907D01*
X412449Y326734D01*
X416052D01*
X416795Y326881D01*
X417425Y327303D01*
X420431Y330308D01*
X421647Y329804D01*
X421465Y328422D01*
X441627D01*
X441445Y329804D01*
X440421Y332276D01*
X438792Y334398D01*
X436670Y336027D01*
X434755Y336820D01*
X434682Y337568D01*
X435534Y338509D01*
X436273D01*
X437189Y337897D01*
X438270Y337682D01*
X439351Y337897D01*
X440267Y338509D01*
X441273D01*
X442189Y337897D01*
X443270Y337682D01*
X444351Y337897D01*
X445267Y338509D01*
X446273D01*
X447189Y337897D01*
X448270Y337682D01*
X449351Y337897D01*
X450267Y338509D01*
X451273D01*
X452189Y337897D01*
X453270Y337682D01*
X454351Y337897D01*
X454477Y337981D01*
X455375Y337083D01*
X454954Y336453D01*
X454681Y335080D01*
X454954Y333707D01*
X455732Y332542D01*
X456897Y331764D01*
X458270Y331491D01*
X459643Y331764D01*
X460808Y332542D01*
X461586Y333707D01*
X461859Y335080D01*
X461753Y335612D01*
X462000Y335859D01*
Y342006D01*
X463270D01*
Y343276D01*
X467389D01*
Y343506D01*
X467251Y344200D01*
X468057Y345182D01*
X472644D01*
Y342820D01*
X471918Y341733D01*
X471645Y340360D01*
X471918Y338987D01*
X472696Y337822D01*
X473861Y337044D01*
X475234Y336771D01*
X476607Y337044D01*
X477772Y337822D01*
X478465Y338859D01*
X479680Y338491D01*
Y337860D01*
X487512D01*
X487512Y337860D01*
Y337860D01*
X488220Y337860D01*
X488410Y337670D01*
Y336590D01*
X492680D01*
Y341630D01*
Y346670D01*
X488410D01*
Y345590D01*
X488220Y345400D01*
X487512Y345400D01*
X487512Y345400D01*
Y345400D01*
X485897D01*
X485781Y345573D01*
X484941Y346135D01*
X483950Y346332D01*
X482959Y346135D01*
X482742Y345990D01*
X478729Y350003D01*
X477813Y350615D01*
X476732Y350830D01*
X476732Y350830D01*
X475018D01*
X473379Y351925D01*
X473594Y353006D01*
X473379Y354087D01*
X472767Y355003D01*
Y356009D01*
X473379Y356925D01*
X473594Y358006D01*
X473379Y359087D01*
X472767Y360003D01*
Y361009D01*
X473379Y361925D01*
X473594Y363006D01*
X473586Y363050D01*
X474217Y363995D01*
X474431Y364210D01*
X475742Y363949D01*
X477115Y364222D01*
X478280Y365000D01*
X478455Y365262D01*
X479719Y365387D01*
X480695Y364410D01*
Y364045D01*
X480695Y364045D01*
X480695Y364045D01*
Y354775D01*
X485331Y350139D01*
X494602D01*
X499237Y354775D01*
Y364045D01*
X494602Y368681D01*
X485331D01*
X484259Y367610D01*
X482989D01*
X481839Y368759D01*
Y374831D01*
X483013Y375317D01*
X485584Y372745D01*
X494855D01*
X498479Y376369D01*
X499743Y376244D01*
X500128Y375668D01*
X501293Y374890D01*
X501486Y374852D01*
Y370474D01*
X500890Y370076D01*
X500112Y368911D01*
X499839Y367538D01*
X500112Y366165D01*
X500890Y365000D01*
X502055Y364222D01*
X503428Y363949D01*
X504801Y364222D01*
X505966Y365000D01*
X506519Y365828D01*
X507789D01*
X508002Y365508D01*
X509167Y364730D01*
X509667Y364631D01*
X509735Y364465D01*
X509538Y363474D01*
Y359918D01*
X509735Y358927D01*
X510297Y358087D01*
X511137Y357525D01*
X512128Y357328D01*
X514668D01*
X515659Y357525D01*
X516499Y358087D01*
X516763Y358481D01*
X518033D01*
X518297Y358087D01*
X518808Y357745D01*
Y354893D01*
X517593Y354524D01*
X517415Y354791D01*
X516155Y355633D01*
X514668Y355929D01*
Y350266D01*
Y344603D01*
X516155Y344899D01*
X517415Y345741D01*
X517611Y346035D01*
X518857Y346283D01*
X519137Y346095D01*
X520128Y345898D01*
X522103D01*
X522615Y345387D01*
X522615D01*
X522615Y345387D01*
X522615Y345387D01*
Y345387D01*
X523455Y344825D01*
X524446Y344628D01*
X534544D01*
X535630Y343902D01*
X537004Y343629D01*
X538377Y343902D01*
X539541Y344680D01*
X540319Y345845D01*
X540592Y347218D01*
X540319Y348591D01*
X539541Y349756D01*
X538377Y350534D01*
X537004Y350807D01*
X535630Y350534D01*
X534544Y349808D01*
X525519D01*
X525258Y350069D01*
Y352044D01*
X525061Y353035D01*
X524499Y353875D01*
X523988Y354217D01*
Y357745D01*
X524499Y358087D01*
X525061Y358927D01*
X525258Y359918D01*
Y363474D01*
X525061Y364465D01*
X524499Y365305D01*
X523659Y365867D01*
X522668Y366064D01*
X520128D01*
X519137Y365867D01*
X518297Y365305D01*
X518033Y364911D01*
X516763D01*
X516499Y365305D01*
X515988Y365647D01*
Y368046D01*
Y369683D01*
X516499Y370025D01*
X516763Y370420D01*
X518033D01*
X518297Y370025D01*
X519137Y369463D01*
X520128Y369266D01*
X522668D01*
X523659Y369463D01*
X524499Y370025D01*
X525061Y370865D01*
X525147Y371298D01*
X526739D01*
X549133Y348904D01*
X549388Y347623D01*
X550166Y346458D01*
X551331Y345680D01*
X552704Y345407D01*
X554077Y345680D01*
X555242Y346458D01*
X556020Y347623D01*
X556293Y348996D01*
X556020Y350369D01*
X555242Y351534D01*
X554077Y352312D01*
X552796Y352567D01*
X529643Y375719D01*
X528803Y376281D01*
X527812Y376478D01*
X525011D01*
X524499Y377243D01*
X523734Y377755D01*
Y381113D01*
X524245Y381455D01*
X524807Y382295D01*
X525004Y383286D01*
Y386842D01*
X524807Y387833D01*
X524245Y388673D01*
X523405Y389235D01*
X522414Y389432D01*
X519874D01*
X518883Y389235D01*
X518603Y389047D01*
X517357Y389295D01*
X517161Y389589D01*
X515901Y390431D01*
X514414Y390727D01*
Y385064D01*
Y379401D01*
X515901Y379697D01*
X517161Y380539D01*
X517339Y380806D01*
X518554Y380437D01*
Y377415D01*
X518297Y377243D01*
X518033Y376848D01*
X516763D01*
X516499Y377243D01*
X515659Y377805D01*
X514668Y378002D01*
X512128D01*
X511137Y377805D01*
X510297Y377243D01*
X509735Y376403D01*
X509538Y375412D01*
Y371856D01*
X509619Y371452D01*
X509167Y371362D01*
X508002Y370584D01*
X507449Y369756D01*
X506179D01*
X505966Y370076D01*
X505370Y370474D01*
Y375918D01*
X505982Y376833D01*
X506255Y378206D01*
X505982Y379579D01*
X505204Y380744D01*
X504039Y381522D01*
X502666Y381795D01*
X501293Y381522D01*
X500611Y381066D01*
X499491Y381665D01*
Y386651D01*
X494855Y391287D01*
X485584D01*
X480949Y386651D01*
Y384948D01*
X472804D01*
X472767Y385003D01*
X471851Y385615D01*
X470770Y385830D01*
X467770D01*
X466799Y385637D01*
X465901Y386535D01*
X466094Y387506D01*
Y390506D01*
X465879Y391587D01*
X465267Y392503D01*
X464351Y393115D01*
X464351Y393115D01*
X464351D01*
X463746Y393392D01*
X463746Y393392D01*
X464019Y394765D01*
X463746Y396139D01*
X462968Y397303D01*
X461803Y398081D01*
X460430Y398354D01*
X459057Y398081D01*
X457892Y397303D01*
X457198Y397762D01*
X457198Y397762D01*
X456033Y398540D01*
X454660Y398813D01*
X453287Y398540D01*
X453043Y398377D01*
X451797Y398625D01*
X451356Y399286D01*
X450191Y400064D01*
X448818Y400337D01*
X447445Y400064D01*
X446280Y399286D01*
X445502Y398121D01*
X445474Y397980D01*
X444418Y397275D01*
X443270Y397503D01*
X441897Y397230D01*
X440732Y396452D01*
X439954Y395287D01*
X439681Y393914D01*
X439681Y393914D01*
X439681Y393914D01*
X439522Y393529D01*
X438276Y393776D01*
Y395732D01*
X432736D01*
Y398272D01*
X438276D01*
Y402042D01*
X438276D01*
Y402937D01*
X438702Y403113D01*
X440824Y404742D01*
X442453Y406864D01*
X443476Y409336D01*
X443658Y410718D01*
X423498D01*
X423680Y409336D01*
X424703Y406864D01*
X426332Y404742D01*
X428283Y403245D01*
X427875Y402042D01*
X427196D01*
Y400772D01*
X427006D01*
Y400772D01*
X418466D01*
Y399826D01*
X417145D01*
X416339Y400808D01*
X416593Y402082D01*
X416320Y403455D01*
X415542Y404620D01*
X415510Y404641D01*
Y405406D01*
X414336D01*
X413004Y405671D01*
X411672Y405406D01*
X398970D01*
Y391324D01*
X394780D01*
Y396866D01*
X375700D01*
Y394748D01*
X374527Y394262D01*
X371567Y397221D01*
X370651Y397833D01*
X369570Y398048D01*
X369570Y398048D01*
X360346D01*
Y400189D01*
X361402Y400895D01*
X361584Y400820D01*
X362966Y400638D01*
Y409448D01*
X354156D01*
X354338Y408066D01*
X355361Y405594D01*
X356990Y403472D01*
X358354Y402425D01*
X357946Y401222D01*
X349076D01*
Y402952D01*
X342710D01*
X340058Y405603D01*
X339142Y406215D01*
X338061Y406430D01*
X338061Y406430D01*
X325033D01*
X324547Y407604D01*
X329795Y412853D01*
X330216Y413483D01*
X330364Y414226D01*
Y416395D01*
X330868Y416496D01*
X332942Y417882D01*
X334328Y419956D01*
X334815Y422402D01*
X334328Y424848D01*
X332942Y426922D01*
X330868Y428308D01*
X328722Y428735D01*
X328846Y429999D01*
X680373D01*
X680590Y429909D01*
D02*
G37*
%LPC*%
G36*
X652077Y338328D02*
X648716D01*
Y334967D01*
X649315Y335086D01*
X650899Y336145D01*
X651958Y337729D01*
X652077Y338328D01*
D02*
G37*
G36*
X499490Y340360D02*
X495220D01*
Y336590D01*
X499490D01*
Y340360D01*
D02*
G37*
G36*
X467389Y340736D02*
X464540D01*
Y336640D01*
X464846Y336700D01*
X466183Y337593D01*
X467076Y338930D01*
X467389Y340506D01*
Y340736D01*
D02*
G37*
G36*
X399352Y334339D02*
X397865Y334043D01*
X396605Y333201D01*
X395763Y331941D01*
X395467Y330454D01*
Y329946D01*
X399352D01*
Y334339D01*
D02*
G37*
G36*
X466344Y334577D02*
X465745Y334458D01*
X464161Y333399D01*
X463102Y331815D01*
X462983Y331216D01*
X466344D01*
Y334577D01*
D02*
G37*
G36*
X468884D02*
Y331216D01*
X472245D01*
X472126Y331815D01*
X471067Y333399D01*
X469483Y334458D01*
X468884Y334577D01*
D02*
G37*
G36*
X499490Y346670D02*
X495220D01*
Y342900D01*
X499490D01*
Y346670D01*
D02*
G37*
G36*
X512128Y348996D02*
X508243D01*
Y348488D01*
X508539Y347001D01*
X509381Y345741D01*
X510641Y344899D01*
X512128Y344603D01*
Y348996D01*
D02*
G37*
G36*
X642112Y348996D02*
X638751D01*
X638870Y348397D01*
X639929Y346813D01*
X641513Y345754D01*
X642112Y345635D01*
Y348996D01*
D02*
G37*
G36*
X325906Y341278D02*
X320386D01*
Y338508D01*
X325906D01*
Y341278D01*
D02*
G37*
G36*
X620966Y344499D02*
Y340106D01*
X624851D01*
Y340614D01*
X624555Y342101D01*
X623713Y343361D01*
X622453Y344203D01*
X620966Y344499D01*
D02*
G37*
G36*
X648716Y344229D02*
Y340868D01*
X652077D01*
X651958Y341467D01*
X650899Y343051D01*
X649315Y344110D01*
X648716Y344229D01*
D02*
G37*
G36*
X564250Y336213D02*
X562877Y335940D01*
X561712Y335162D01*
X560934Y333997D01*
X560661Y332624D01*
X560934Y331251D01*
X561712Y330086D01*
X562877Y329308D01*
X564250Y329035D01*
X565623Y329308D01*
X566788Y330086D01*
X567566Y331251D01*
X567839Y332624D01*
X567566Y333997D01*
X566788Y335162D01*
X565623Y335940D01*
X564250Y336213D01*
D02*
G37*
G36*
X528066Y326423D02*
X526693Y326150D01*
X525528Y325372D01*
X524750Y324207D01*
X524477Y322834D01*
X524750Y321461D01*
X525528Y320296D01*
X526693Y319518D01*
X528066Y319245D01*
X529439Y319518D01*
X530604Y320296D01*
X531382Y321461D01*
X531655Y322834D01*
X531382Y324207D01*
X530604Y325372D01*
X529439Y326150D01*
X528066Y326423D01*
D02*
G37*
G36*
X356870Y328422D02*
X348060D01*
X348242Y327040D01*
X349265Y324568D01*
X350894Y322446D01*
X353016Y320817D01*
X355488Y319793D01*
X356870Y319611D01*
Y328422D01*
D02*
G37*
G36*
X368220D02*
X359410D01*
Y319611D01*
X360792Y319793D01*
X363264Y320817D01*
X365386Y322446D01*
X367015Y324568D01*
X368038Y327040D01*
X368220Y328422D01*
D02*
G37*
G36*
X321310Y325925D02*
X318864Y325438D01*
X316790Y324052D01*
X315404Y321978D01*
X314917Y319532D01*
X315404Y317086D01*
X316790Y315012D01*
X318864Y313626D01*
X321310Y313139D01*
X323756Y313626D01*
X325830Y315012D01*
X327216Y317086D01*
X327703Y319532D01*
X327216Y321978D01*
X325830Y324052D01*
X323756Y325438D01*
X321310Y325925D01*
D02*
G37*
G36*
X430276Y325882D02*
X421465D01*
X421647Y324500D01*
X422671Y322028D01*
X424300Y319906D01*
X426422Y318277D01*
X428894Y317253D01*
X430276Y317071D01*
Y325882D01*
D02*
G37*
G36*
X441627D02*
X432816D01*
Y317071D01*
X434198Y317253D01*
X436670Y318277D01*
X438792Y319906D01*
X440421Y322028D01*
X441445Y324500D01*
X441627Y325882D01*
D02*
G37*
G36*
X508508Y325120D02*
X505147D01*
X505266Y324521D01*
X506325Y322937D01*
X507909Y321878D01*
X508508Y321759D01*
Y325120D01*
D02*
G37*
G36*
X472245Y328676D02*
X468884D01*
Y325315D01*
X469483Y325434D01*
X471067Y326493D01*
X472126Y328077D01*
X472245Y328676D01*
D02*
G37*
G36*
X508508Y331021D02*
X507909Y330902D01*
X506325Y329843D01*
X505266Y328259D01*
X505147Y327660D01*
X508508D01*
Y331021D01*
D02*
G37*
G36*
X511048D02*
Y327660D01*
X514409D01*
X514290Y328259D01*
X513231Y329843D01*
X511647Y330902D01*
X511048Y331021D01*
D02*
G37*
G36*
X514409Y325120D02*
X511048D01*
Y321759D01*
X511647Y321878D01*
X513231Y322937D01*
X514290Y324521D01*
X514409Y325120D01*
D02*
G37*
G36*
X399352Y327406D02*
X395467D01*
Y326898D01*
X395763Y325411D01*
X396605Y324151D01*
X397865Y323309D01*
X399352Y323013D01*
Y327406D01*
D02*
G37*
G36*
X466344Y328676D02*
X462983D01*
X463102Y328077D01*
X464161Y326493D01*
X465745Y325434D01*
X466344Y325315D01*
Y328676D01*
D02*
G37*
G36*
X505265Y399796D02*
X501904D01*
Y396435D01*
X502503Y396554D01*
X504087Y397613D01*
X505146Y399197D01*
X505265Y399796D01*
D02*
G37*
G36*
X383970Y406676D02*
X375700D01*
Y399406D01*
X383970D01*
Y406676D01*
D02*
G37*
G36*
X394780D02*
X386510D01*
Y399406D01*
X394780D01*
Y406676D01*
D02*
G37*
G36*
X492886Y403098D02*
X487975D01*
Y399542D01*
X488311Y397857D01*
X489265Y396429D01*
X490693Y395475D01*
X492378Y395139D01*
X492886D01*
Y403098D01*
D02*
G37*
G36*
X477012Y413291D02*
X475639Y413018D01*
X474474Y412240D01*
X473696Y411075D01*
X473581Y410494D01*
X473507Y410383D01*
X473270Y409194D01*
Y399542D01*
X473507Y398353D01*
X474180Y397345D01*
X475189Y396671D01*
X476378Y396434D01*
X479934D01*
X481123Y396671D01*
X482132Y397345D01*
X482805Y398353D01*
X483042Y399542D01*
Y409194D01*
X482805Y410383D01*
X482132Y411391D01*
X481123Y412065D01*
X479934Y412302D01*
X479457D01*
X478385Y413018D01*
X477012Y413291D01*
D02*
G37*
G36*
X495934Y413597D02*
X495426D01*
Y404368D01*
Y395139D01*
X495934D01*
X497619Y395475D01*
X499047Y396429D01*
X499088Y396490D01*
X499364Y396435D01*
Y401066D01*
X500634D01*
Y402336D01*
X505265D01*
X505146Y402935D01*
X504087Y404519D01*
X502503Y405578D01*
X500634Y405950D01*
X500337Y406194D01*
Y409194D01*
X500001Y410879D01*
X499047Y412307D01*
X497619Y413261D01*
X495934Y413597D01*
D02*
G37*
G36*
X374316Y409448D02*
X365506D01*
Y400638D01*
X366888Y400820D01*
X369360Y401843D01*
X371482Y403472D01*
X373111Y405594D01*
X374134Y408066D01*
X374316Y409448D01*
D02*
G37*
G36*
X365506Y420798D02*
Y411988D01*
X374316D01*
X374134Y413370D01*
X373111Y415842D01*
X371482Y417964D01*
X369360Y419593D01*
X366888Y420616D01*
X365506Y420798D01*
D02*
G37*
G36*
X432308Y422068D02*
X430926Y421886D01*
X428454Y420863D01*
X426332Y419234D01*
X424703Y417112D01*
X423680Y414640D01*
X423498Y413258D01*
X432308D01*
Y422068D01*
D02*
G37*
G36*
X434848D02*
Y413258D01*
X443658D01*
X443476Y414640D01*
X442453Y417112D01*
X440824Y419234D01*
X438702Y420863D01*
X436230Y421886D01*
X434848Y422068D01*
D02*
G37*
G36*
X577250Y409573D02*
X575877Y409300D01*
X574712Y408522D01*
X573934Y407357D01*
X573661Y405984D01*
X573934Y404611D01*
X574712Y403446D01*
X575877Y402668D01*
X577250Y402395D01*
X578623Y402668D01*
X579788Y403446D01*
X580566Y404611D01*
X580839Y405984D01*
X580566Y407357D01*
X579788Y408522D01*
X578623Y409300D01*
X577250Y409573D01*
D02*
G37*
G36*
X492886Y413597D02*
X492378D01*
X490693Y413261D01*
X489265Y412307D01*
X488311Y410879D01*
X487975Y409194D01*
Y405638D01*
X492886D01*
Y413597D01*
D02*
G37*
G36*
X362966Y420798D02*
X361584Y420616D01*
X359112Y419593D01*
X356990Y417964D01*
X355361Y415842D01*
X354338Y413370D01*
X354156Y411988D01*
X362966D01*
Y420798D01*
D02*
G37*
G36*
X535178Y390711D02*
Y387350D01*
X538539D01*
X538420Y387949D01*
X537361Y389533D01*
X535777Y390592D01*
X535178Y390711D01*
D02*
G37*
G36*
X512128Y355929D02*
X510641Y355633D01*
X509381Y354791D01*
X508539Y353531D01*
X508243Y352044D01*
Y351536D01*
X512128D01*
Y355929D01*
D02*
G37*
G36*
X648422Y357966D02*
X638342D01*
Y353696D01*
X638566D01*
X639165Y352576D01*
X638870Y352135D01*
X638751Y351536D01*
X648013D01*
X647894Y352135D01*
X647599Y352576D01*
X648198Y353696D01*
X648422D01*
Y357966D01*
D02*
G37*
G36*
X654558Y359220D02*
X650165D01*
X650461Y357733D01*
X651303Y356473D01*
X652563Y355631D01*
X654050Y355335D01*
X654558D01*
Y359220D01*
D02*
G37*
G36*
X648013Y348996D02*
X644652D01*
Y345635D01*
X645251Y345754D01*
X646835Y346813D01*
X647894Y348397D01*
X648013Y348996D01*
D02*
G37*
G36*
X614720Y349290D02*
X611359D01*
X611478Y348691D01*
X612537Y347107D01*
X614121Y346048D01*
X614720Y345929D01*
Y349290D01*
D02*
G37*
G36*
X625621Y349718D02*
X622260D01*
Y346357D01*
X622859Y346476D01*
X624443Y347535D01*
X625502Y349119D01*
X625621Y349718D01*
D02*
G37*
G36*
X661491Y359220D02*
X657098D01*
Y355335D01*
X657606D01*
X659093Y355631D01*
X660353Y356473D01*
X661195Y357733D01*
X661491Y359220D01*
D02*
G37*
G36*
X538539Y384810D02*
X535178D01*
Y381449D01*
X535777Y381568D01*
X537361Y382627D01*
X538420Y384211D01*
X538539Y384810D01*
D02*
G37*
G36*
X511874Y390727D02*
X510387Y390431D01*
X509127Y389589D01*
X508285Y388329D01*
X507989Y386842D01*
Y386334D01*
X511874D01*
Y390727D01*
D02*
G37*
G36*
X532638Y390711D02*
X532039Y390592D01*
X530455Y389533D01*
X529396Y387949D01*
X529277Y387350D01*
X532638D01*
Y390711D01*
D02*
G37*
G36*
X603250Y408719D02*
X601877Y408446D01*
X600712Y407668D01*
X599934Y406503D01*
X599661Y405130D01*
X599934Y403757D01*
X600712Y402592D01*
X601877Y401814D01*
X603250Y401541D01*
X604623Y401814D01*
X605788Y402592D01*
X606566Y403757D01*
X606578Y403818D01*
X607848D01*
X608062Y402741D01*
X608840Y401576D01*
X610005Y400798D01*
X611378Y400525D01*
X612080Y400665D01*
X614048Y398698D01*
Y377335D01*
X612928Y376736D01*
X612441Y377061D01*
X611678Y377213D01*
X610303D01*
X609539Y377061D01*
X608891Y376629D01*
X608787Y376472D01*
X603134D01*
X602486Y377442D01*
X601321Y378220D01*
X599948Y378493D01*
X598575Y378220D01*
X597410Y377442D01*
X596845Y376596D01*
X595630Y376965D01*
Y379476D01*
X586994D01*
Y371973D01*
X584543D01*
X576175Y380341D01*
X575545Y380762D01*
X574802Y380910D01*
X549798D01*
X549400Y381506D01*
X548235Y382284D01*
X546862Y382557D01*
X545489Y382284D01*
X544324Y381506D01*
X543546Y380341D01*
X543273Y378968D01*
X543546Y377595D01*
X544324Y376430D01*
X545489Y375652D01*
X546862Y375379D01*
X548235Y375652D01*
X549400Y376430D01*
X549798Y377026D01*
X573997D01*
X582366Y368658D01*
X582873Y368319D01*
X582504Y367103D01*
X565183D01*
X564894Y367536D01*
X563729Y368314D01*
X562356Y368587D01*
X560983Y368314D01*
X559818Y367536D01*
X559040Y366371D01*
X558767Y364998D01*
X559040Y363625D01*
X559730Y362592D01*
X559131Y361472D01*
X557961D01*
X550819Y368614D01*
X550959Y369316D01*
X550686Y370689D01*
X549908Y371854D01*
X548743Y372632D01*
X547370Y372905D01*
X545997Y372632D01*
X544832Y371854D01*
X544054Y370689D01*
X543781Y369316D01*
X544054Y367943D01*
X544832Y366778D01*
X545997Y366000D01*
X547370Y365727D01*
X548072Y365867D01*
X555783Y358157D01*
X555783Y358157D01*
X556413Y357736D01*
X556413Y357735D01*
X556413Y357735D01*
D01*
X556413Y357735D01*
X556413Y357735D01*
X557156Y357588D01*
X557156Y357588D01*
X608787D01*
X608891Y357431D01*
X609539Y356998D01*
X610303Y356847D01*
X611678D01*
X612441Y356998D01*
X612441Y356998D01*
X612441Y356998D01*
X612685Y356950D01*
X612976Y356516D01*
X613678Y356046D01*
X613678Y354776D01*
X612537Y354013D01*
X611478Y352429D01*
X611359Y351830D01*
X615990D01*
Y350560D01*
X617260D01*
Y345929D01*
X617859Y346048D01*
X618810Y346684D01*
X619121Y346476D01*
X619720Y346357D01*
Y350988D01*
X620990D01*
Y352258D01*
X625621D01*
X625502Y352857D01*
X624443Y354441D01*
X623622Y354990D01*
X623622Y356180D01*
X624604Y356986D01*
X625303Y356847D01*
X626180D01*
X629566Y353461D01*
Y343070D01*
X629247Y343007D01*
X628407Y342445D01*
X627845Y341605D01*
X627648Y340614D01*
Y337058D01*
X627845Y336067D01*
X628407Y335227D01*
X629247Y334665D01*
X630238Y334468D01*
X632778D01*
X633769Y334665D01*
X634049Y334853D01*
X634725Y334718D01*
X635378Y333629D01*
X635200Y333044D01*
X624004D01*
X623635Y334259D01*
X623713Y334311D01*
X624555Y335571D01*
X624851Y337058D01*
Y337566D01*
X619696D01*
Y338836D01*
X618426D01*
Y344499D01*
X616939Y344203D01*
X615679Y343361D01*
X615483Y343067D01*
X614237Y342819D01*
X613957Y343007D01*
X612966Y343204D01*
X610426D01*
X609435Y343007D01*
X608595Y342445D01*
X608033Y341605D01*
X607882Y340842D01*
X606826Y340136D01*
X605536Y340393D01*
X604163Y340120D01*
X602998Y339342D01*
X602580Y338715D01*
X601316Y338591D01*
X598223Y341683D01*
X597383Y342245D01*
X596392Y342442D01*
X579939D01*
X576849Y345532D01*
X576594Y346813D01*
X575816Y347978D01*
X574651Y348756D01*
X573278Y349029D01*
X571905Y348756D01*
X570740Y347978D01*
X569962Y346813D01*
X569689Y345440D01*
X569962Y344067D01*
X570740Y342902D01*
X571841Y342166D01*
X571594Y340921D01*
X571397Y340882D01*
X570232Y340104D01*
X569454Y338939D01*
X569181Y337566D01*
X569454Y336193D01*
X570232Y335028D01*
X571397Y334250D01*
X572770Y333977D01*
X574143Y334250D01*
X575308Y335028D01*
X576086Y336193D01*
X576295Y337245D01*
X577468Y337731D01*
X577875Y337459D01*
X578866Y337262D01*
X589209D01*
X589333Y335998D01*
X589039Y335940D01*
X587874Y335162D01*
X587096Y333997D01*
X586823Y332624D01*
X587096Y331251D01*
X587874Y330086D01*
X589039Y329308D01*
X590412Y329035D01*
X591785Y329308D01*
X592950Y330086D01*
X593728Y331251D01*
X594001Y332624D01*
X593728Y333997D01*
X592950Y335162D01*
X591785Y335940D01*
X591491Y335998D01*
X591615Y337262D01*
X595319D01*
X598254Y334327D01*
X598327Y333960D01*
X598353Y333829D01*
X598915Y332989D01*
X601721Y330183D01*
X602561Y329621D01*
X603059Y329522D01*
X603959Y328623D01*
X604799Y328061D01*
X605790Y327864D01*
X643833D01*
X643875Y327822D01*
X644130Y326541D01*
X644908Y325376D01*
X646073Y324598D01*
X647446Y324325D01*
X648819Y324598D01*
X649984Y325376D01*
X650762Y326541D01*
X651035Y327914D01*
X650762Y329287D01*
X649984Y330452D01*
X648819Y331230D01*
X647538Y331485D01*
X646737Y332285D01*
X645897Y332847D01*
X644906Y333044D01*
X643816D01*
X643528Y333991D01*
X644181Y335081D01*
X645263Y335296D01*
X645577Y335086D01*
X646176Y334967D01*
Y339598D01*
Y344229D01*
X645577Y344110D01*
X643993Y343051D01*
D01*
X643525Y343361D01*
X643525Y343361D01*
Y343361D01*
X642265Y344203D01*
X640778Y344499D01*
Y338836D01*
X638238D01*
Y344499D01*
X636751Y344203D01*
X635491Y343361D01*
X635295Y343067D01*
X634432Y342896D01*
X633450Y343701D01*
Y354266D01*
X633302Y355009D01*
X632881Y355639D01*
X628673Y359847D01*
Y360218D01*
X628521Y360981D01*
X628196Y361468D01*
X628795Y362588D01*
X631596D01*
X631994Y361992D01*
X633159Y361214D01*
X634532Y360941D01*
X635905Y361214D01*
X637070Y361992D01*
X637127Y362077D01*
X638342Y361709D01*
Y360506D01*
X648422D01*
Y364776D01*
X647342D01*
X647152Y364966D01*
X647152Y365650D01*
X648050Y366548D01*
X650963D01*
X651768Y365566D01*
X651597Y364703D01*
X651303Y364507D01*
X650461Y363247D01*
X650165Y361760D01*
X661491D01*
X661195Y363247D01*
X660353Y364507D01*
X660059Y364703D01*
X659811Y365949D01*
X659999Y366229D01*
X660196Y367220D01*
Y369760D01*
X659999Y370751D01*
X659437Y371591D01*
X658597Y372153D01*
X657606Y372350D01*
X654050D01*
X653059Y372153D01*
X652219Y371591D01*
X651657Y370751D01*
X651594Y370432D01*
X647152D01*
Y373506D01*
X639612D01*
Y371472D01*
X628795D01*
X628196Y372592D01*
X628521Y373079D01*
X628673Y373843D01*
Y375218D01*
X628521Y375981D01*
X628089Y376629D01*
X627441Y377061D01*
X626678Y377213D01*
X625303D01*
X624539Y377061D01*
X623891Y376629D01*
X623089D01*
Y376629D01*
X622441Y377062D01*
X621678Y377213D01*
X620303D01*
X619539Y377062D01*
X619052Y376736D01*
X617932Y377335D01*
Y399502D01*
X617785Y400245D01*
X617363Y400875D01*
X614827Y403412D01*
X614967Y404114D01*
X614694Y405487D01*
X613916Y406652D01*
X612751Y407430D01*
X611378Y407703D01*
X610005Y407430D01*
X608840Y406652D01*
X608062Y405487D01*
X608050Y405426D01*
X606780D01*
X606566Y406503D01*
X605788Y407668D01*
X604623Y408446D01*
X603250Y408719D01*
D02*
G37*
G36*
X511874Y383794D02*
X507989D01*
Y383286D01*
X508285Y381799D01*
X509127Y380539D01*
X510387Y379697D01*
X511874Y379401D01*
Y383794D01*
D02*
G37*
G36*
X532638Y384810D02*
X529277D01*
X529396Y384211D01*
X530455Y382627D01*
X532039Y381568D01*
X532638Y381449D01*
Y384810D01*
D02*
G37*
%LPD*%
D10*
X414060Y368006D02*
D03*
X328422Y422402D02*
D03*
X321310Y319532D02*
D03*
D11*
X483950Y341630D02*
D03*
X493950D02*
D03*
X400478Y367792D02*
D03*
X390478D02*
D03*
X432736Y397002D02*
D03*
X422736D02*
D03*
D12*
X521398Y361696D02*
D03*
X513398D02*
D03*
X521398Y350266D02*
D03*
X513398D02*
D03*
Y373634D02*
D03*
X521398D02*
D03*
X513144Y385064D02*
D03*
X521144D02*
D03*
X619696Y338836D02*
D03*
X611696D02*
D03*
X631508D02*
D03*
X639508D02*
D03*
X408622Y328676D02*
D03*
X400622D02*
D03*
D13*
X489966Y359410D02*
D03*
X490220Y382016D02*
D03*
D14*
X371602Y350710D02*
D03*
Y342710D02*
D03*
X655828Y360490D02*
D03*
Y368490D02*
D03*
D15*
X494156Y404368D02*
D03*
X478156D02*
D03*
D16*
X610990Y359530D02*
D03*
Y364530D02*
D03*
Y369530D02*
D03*
Y374530D02*
D03*
X625990D02*
D03*
Y369530D02*
D03*
Y364530D02*
D03*
Y359530D02*
D03*
D17*
X615990Y374530D02*
D03*
X620990D02*
D03*
Y359530D02*
D03*
X615990D02*
D03*
D18*
X591312Y375666D02*
D03*
Y365586D02*
D03*
D19*
X643382Y359236D02*
D03*
Y369236D02*
D03*
X366776Y363808D02*
D03*
Y373808D02*
D03*
X385318Y338916D02*
D03*
Y348916D02*
D03*
X412750Y357552D02*
D03*
Y347552D02*
D03*
D20*
X354076Y377952D02*
D03*
Y387452D02*
D03*
Y396952D02*
D03*
X329076D02*
D03*
Y377952D02*
D03*
Y387452D02*
D03*
D21*
X355576Y342548D02*
D03*
Y349048D02*
D03*
Y355548D02*
D03*
Y362048D02*
D03*
X327176Y342548D02*
D03*
Y349048D02*
D03*
Y355548D02*
D03*
Y362048D02*
D03*
D22*
X341376Y352298D02*
D03*
D23*
X396558Y348742D02*
D03*
X404558D02*
D03*
D24*
X400558Y356992D02*
D03*
Y340492D02*
D03*
D25*
X407240Y398136D02*
D03*
X385240Y398136D02*
D03*
X407240Y381136D02*
D03*
X385240Y381136D02*
D03*
D26*
X445770Y365506D02*
D03*
D27*
X428270Y389006D02*
D03*
X433270D02*
D03*
X438270D02*
D03*
X443270D02*
D03*
X448270D02*
D03*
X453270D02*
D03*
X458270D02*
D03*
X463270D02*
D03*
Y342006D02*
D03*
X458270D02*
D03*
X453270D02*
D03*
X448270D02*
D03*
X443270D02*
D03*
X438270D02*
D03*
X433270D02*
D03*
X428270D02*
D03*
D28*
X469270Y383006D02*
D03*
Y378006D02*
D03*
Y373006D02*
D03*
Y368006D02*
D03*
Y363006D02*
D03*
Y358006D02*
D03*
Y353006D02*
D03*
Y348006D02*
D03*
X422270D02*
D03*
Y353006D02*
D03*
Y358006D02*
D03*
Y363006D02*
D03*
Y368006D02*
D03*
Y373006D02*
D03*
Y378006D02*
D03*
Y383006D02*
D03*
D29*
X338126Y349048D02*
X355576D01*
X336736D02*
X338126D01*
X321056Y407162D02*
X321358D01*
X328422Y414226D01*
Y423926D01*
X531876Y386080D02*
X533908D01*
X458270Y335080D02*
Y342006D01*
X503428Y367538D02*
Y377444D01*
X502666Y378206D02*
X503428Y377444D01*
X458270Y389006D02*
Y392605D01*
X460430Y394765D01*
X489230Y383006D02*
X490220Y382016D01*
X469270Y383006D02*
X489230D01*
X469270Y378006D02*
X469561Y378297D01*
X477463D01*
X479897Y375863D01*
Y367955D02*
Y375863D01*
Y367955D02*
X490220Y357632D01*
X453270Y393834D02*
X454660Y395224D01*
X453270Y389006D02*
Y393834D01*
X448270Y396200D02*
X448818Y396748D01*
X448270Y389006D02*
Y396200D01*
X443270Y389006D02*
Y393914D01*
X471721Y374142D02*
X475742D01*
X470117Y367538D02*
X475742D01*
X316381Y402487D02*
X321056Y407162D01*
X316381Y390766D02*
Y402487D01*
Y390766D02*
X318262Y388885D01*
Y375666D02*
Y388885D01*
X319024Y375666D02*
X321056Y373634D01*
X318262Y375666D02*
X319024D01*
X321056Y364372D02*
Y373634D01*
X321021Y364337D02*
X321056Y364372D01*
X321021Y359759D02*
Y364337D01*
Y359759D02*
X321056Y359724D01*
Y356616D02*
Y359724D01*
X412750Y357552D02*
X414702D01*
X420156Y363006D01*
X422270D01*
X385240Y381136D02*
Y387272D01*
X387350Y389382D01*
X414688D01*
X416145Y387925D01*
Y382177D02*
Y387925D01*
Y382177D02*
X420316Y378006D01*
X422270D01*
X438270Y340691D02*
Y342006D01*
X414060Y368006D02*
X422270D01*
X364998Y346964D02*
Y352988D01*
X365252Y387604D02*
X366776Y386080D01*
Y373808D02*
Y386080D01*
X360582Y342548D02*
X364998Y346964D01*
X355576Y342548D02*
X360582D01*
X469270Y378006D02*
X470585D01*
X432736Y389006D02*
Y397002D01*
Y386230D02*
Y389006D01*
X433270Y378006D02*
Y389006D01*
X428270Y383006D02*
Y389006D01*
X432736D02*
X433270D01*
X428270D02*
X432736D01*
X422270Y358006D02*
X438270D01*
X371602Y342646D02*
Y342710D01*
X420955Y358006D02*
X422270D01*
X417365Y354416D02*
X420955Y358006D01*
X417365Y353101D02*
Y354416D01*
X412750Y348486D02*
X417365Y353101D01*
X412750Y347552D02*
Y348486D01*
X401320Y355214D02*
X403658Y357552D01*
X412750D01*
X364490Y407162D02*
X373516Y398136D01*
X385240D01*
X432736Y397002D02*
Y406226D01*
X318516Y352552D02*
X322020Y349048D01*
X327176D01*
X326108Y356616D02*
X327176Y355548D01*
X321056Y356616D02*
X326108D01*
X365100Y387452D02*
X365252Y387604D01*
X354076Y387452D02*
X365100D01*
X469270Y353006D02*
X471624D01*
X469270Y358006D02*
X470585D01*
Y373006D02*
X471721Y374142D01*
X469270Y373006D02*
X470585D01*
X470117Y367538D02*
X470585Y368006D01*
X469270D02*
X470585D01*
X469270Y363006D02*
X470585D01*
X371602Y342646D02*
X384810Y329438D01*
X387350D01*
X422270Y334894D02*
Y348006D01*
X416052Y328676D02*
X422270Y334894D01*
X408622Y328676D02*
X416052D01*
X411988Y332042D02*
Y334518D01*
X408622Y328676D02*
X411988Y332042D01*
X364998Y352988D02*
X365688D01*
X378206Y365506D01*
X412162Y341550D02*
Y348742D01*
X396558D02*
X412162D01*
X615990Y350560D02*
Y359530D01*
X620990Y350988D02*
Y359530D01*
X603798Y364530D02*
X610990D01*
X591566Y374530D02*
X610990D01*
X557156Y359530D02*
X610990D01*
X547370Y369316D02*
X557156Y359530D01*
X615990Y374530D02*
Y399502D01*
X611378Y404114D02*
X615990Y399502D01*
X625990Y364530D02*
X634532D01*
X634746Y364744D02*
Y369530D01*
X625990D02*
X634746D01*
X643088D01*
X590887Y365161D02*
X591312Y365586D01*
X562519Y365161D02*
X590887D01*
X562356Y364998D02*
X562519Y365161D01*
X610489Y370031D02*
X610990Y369530D01*
X583739Y370031D02*
X610489D01*
X574802Y378968D02*
X583739Y370031D01*
X546862Y378968D02*
X574802D01*
X643382Y350266D02*
Y359236D01*
X625990Y359530D02*
X626244D01*
X631508Y354266D01*
Y338836D02*
Y354266D01*
X639508Y338836D02*
X643382Y342710D01*
Y350266D01*
X644334Y342710D02*
X647446Y339598D01*
X643382Y342710D02*
X644334D01*
X644128Y368490D02*
X655828D01*
X644636Y360490D02*
X655828D01*
D30*
X338126Y349048D02*
X341376Y352298D01*
X331626Y342548D02*
X338126Y349048D01*
X327176Y342548D02*
X331626D01*
X387684Y340614D02*
X388048Y340978D01*
X390398Y358394D02*
X398780Y366776D01*
Y372676D01*
X385318Y348916D02*
Y359805D01*
X390854Y342016D02*
X400050D01*
X513398Y368046D02*
Y373634D01*
Y361696D02*
Y368046D01*
X510540D02*
X513398D01*
X604230Y332014D02*
X605790Y330454D01*
X603552Y332014D02*
X604230D01*
X600746Y334820D02*
X603552Y332014D01*
X600746Y334820D02*
Y335498D01*
X596392Y339852D02*
X600746Y335498D01*
X605790Y330454D02*
X644906D01*
X578866Y339852D02*
X596392D01*
X573278Y345440D02*
X578866Y339852D01*
X605536Y336804D02*
X605790Y336550D01*
X610934D01*
X497332Y404368D02*
X500634Y401066D01*
X494156Y404368D02*
X497332D01*
X644906Y330454D02*
X647446Y327914D01*
X527812Y373888D02*
X552704Y348996D01*
X521144Y373888D02*
X527812D01*
X602742Y404622D02*
X603250Y405130D01*
X521398Y349948D02*
Y361696D01*
X524446Y347218D02*
X537004D01*
X521398Y350266D02*
X524446Y347218D01*
X483950Y341630D02*
Y343742D01*
X494538Y341630D02*
X495300Y340868D01*
X493950Y341630D02*
X494538D01*
X521144Y373888D02*
Y385064D01*
X478156Y404368D02*
Y408558D01*
Y400430D02*
Y404368D01*
X475234Y346508D02*
X476732Y348006D01*
X475234Y340360D02*
Y346508D01*
X378714Y344170D02*
X383460Y348916D01*
X385318D01*
X398780Y372676D02*
X407240Y381136D01*
X477012Y409702D02*
X478156Y408558D01*
X388048Y340978D02*
X394860D01*
X390398Y345440D02*
X394860Y340978D01*
X390398Y345440D02*
Y358394D01*
X339852Y369316D02*
X342646Y366522D01*
X345186D01*
X385318Y359805D02*
X390398Y364885D01*
Y367792D01*
X603758Y364490D02*
X603798Y364530D01*
D31*
X387016Y340614D02*
X387684D01*
X385318Y338916D02*
X387016Y340614D01*
X381278Y361479D02*
X383226Y363427D01*
X381278Y356132D02*
Y361479D01*
X376936Y351790D02*
X381278Y356132D01*
X373888Y375571D02*
Y390906D01*
Y375571D02*
X377093Y372366D01*
X380998D02*
X383226Y370138D01*
X377093Y372366D02*
X380998D01*
X322315Y403606D02*
X338061D01*
X319786Y401077D02*
X322315Y403606D01*
X319786Y392176D02*
Y401077D01*
X338061Y403606D02*
X344715Y396952D01*
X354076D01*
X422736Y390064D02*
Y397002D01*
Y383472D02*
Y389890D01*
X422910D01*
X422736Y390064D02*
X422910Y389890D01*
X476732Y348006D02*
X482934Y341804D01*
X329076Y369316D02*
Y377952D01*
X358982Y371602D02*
X366776Y363808D01*
X345694Y371602D02*
X358982D01*
X339344Y377952D02*
X345694Y371602D01*
X366776Y360426D02*
Y363808D01*
X361898Y355548D02*
X366776Y360426D01*
X355576Y355548D02*
X361898D01*
X337616Y396952D02*
X339344Y395224D01*
Y377952D02*
Y395224D01*
X369570D02*
X373888Y390906D01*
X355804Y395224D02*
X369570D01*
X354076Y396952D02*
X355804Y395224D01*
X373698Y351790D02*
X376936D01*
X346914Y396952D02*
X354076D01*
X344424Y394462D02*
X346914Y396952D01*
X344424Y382524D02*
Y394462D01*
Y382524D02*
X348996Y377952D01*
X354076D01*
X319786Y392176D02*
X324510Y387452D01*
X329076D01*
Y396952D02*
X337616D01*
X372364Y350456D02*
X373698Y351790D01*
X408374Y397002D02*
X422736D01*
X327176Y362048D02*
X329076Y363948D01*
X469270Y348006D02*
X476732D01*
X383226Y363427D02*
Y367585D01*
X329076Y363948D02*
Y369316D01*
X339852D01*
X383226Y367030D02*
Y370138D01*
D32*
X433578Y411988D02*
D03*
X431546Y327152D02*
D03*
X358140Y329692D02*
D03*
X364236Y410718D02*
D03*
D33*
X387350Y329438D02*
D03*
X364490Y388516D02*
D03*
X358140Y365252D02*
D03*
X510540Y368046D02*
D03*
X572770Y337566D02*
D03*
X590412Y332624D02*
D03*
X564250D02*
D03*
X573278Y345440D02*
D03*
X605536Y336804D02*
D03*
X552704Y348996D02*
D03*
X611378Y404114D02*
D03*
X603250Y405130D02*
D03*
X577250Y405984D02*
D03*
X537004Y347218D02*
D03*
X475234Y340360D02*
D03*
X528066Y322834D02*
D03*
X647446Y327914D02*
D03*
X533908Y386080D02*
D03*
X509778Y326390D02*
D03*
X458270Y335080D02*
D03*
X503428Y367538D02*
D03*
X502666Y378206D02*
D03*
X460430Y394765D02*
D03*
X448818Y396748D02*
D03*
X454660Y395224D02*
D03*
X443270Y393914D02*
D03*
X318262Y375666D02*
D03*
X378714Y344170D02*
D03*
X475742Y367538D02*
D03*
Y374142D02*
D03*
X411480Y382270D02*
D03*
X337616Y396952D02*
D03*
X477012Y409702D02*
D03*
X413004Y402082D02*
D03*
X345186Y366522D02*
D03*
X467614Y329946D02*
D03*
X412162Y341550D02*
D03*
X376936Y351790D02*
D03*
X500634Y401066D02*
D03*
X318516Y352552D02*
D03*
X411988Y334518D02*
D03*
X378206Y365506D02*
D03*
X546862Y378968D02*
D03*
X603758Y364490D02*
D03*
X615990Y350560D02*
D03*
X620990Y350988D02*
D03*
X599948Y374904D02*
D03*
X547370Y369316D02*
D03*
X634532Y364530D02*
D03*
X562356Y364998D02*
D03*
X643382Y350266D02*
D03*
X647446Y339598D02*
D03*
M02*
