%FSLAX44Y44*%
%MOMM*%
G71*
G01*
G75*
G04 Layer_Color=32896*
%ADD10R,0.4572X0.3048*%
%ADD11R,0.3048X0.4572*%
G04:AMPARAMS|DCode=12|XSize=0.508mm|YSize=0.6096mm|CornerRadius=0.127mm|HoleSize=0mm|Usage=FLASHONLY|Rotation=180.000|XOffset=0mm|YOffset=0mm|HoleType=Round|Shape=RoundedRectangle|*
%AMROUNDEDRECTD12*
21,1,0.5080,0.3556,0,0,180.0*
21,1,0.2540,0.6096,0,0,180.0*
1,1,0.2540,-0.1270,0.1778*
1,1,0.2540,0.1270,0.1778*
1,1,0.2540,0.1270,-0.1778*
1,1,0.2540,-0.1270,-0.1778*
%
%ADD12ROUNDEDRECTD12*%
%ADD13R,1.2192X0.8128*%
%ADD14P,1.7321X8X22.5*%
%ADD15C,1.0000*%
G04:AMPARAMS|DCode=16|XSize=0.508mm|YSize=0.6096mm|CornerRadius=0.127mm|HoleSize=0mm|Usage=FLASHONLY|Rotation=270.000|XOffset=0mm|YOffset=0mm|HoleType=Round|Shape=RoundedRectangle|*
%AMROUNDEDRECTD16*
21,1,0.5080,0.3556,0,0,270.0*
21,1,0.2540,0.6096,0,0,270.0*
1,1,0.2540,-0.1778,-0.1270*
1,1,0.2540,-0.1778,0.1270*
1,1,0.2540,0.1778,0.1270*
1,1,0.2540,0.1778,-0.1270*
%
%ADD16ROUNDEDRECTD16*%
G04:AMPARAMS|DCode=17|XSize=0.7112mm|YSize=1.3208mm|CornerRadius=0.1778mm|HoleSize=0mm|Usage=FLASHONLY|Rotation=0.000|XOffset=0mm|YOffset=0mm|HoleType=Round|Shape=RoundedRectangle|*
%AMROUNDEDRECTD17*
21,1,0.7112,0.9652,0,0,0.0*
21,1,0.3556,1.3208,0,0,0.0*
1,1,0.3556,0.1778,-0.4826*
1,1,0.3556,-0.1778,-0.4826*
1,1,0.3556,-0.1778,0.4826*
1,1,0.3556,0.1778,0.4826*
%
%ADD17ROUNDEDRECTD17*%
%ADD18R,0.4000X0.4000*%
%ADD19R,0.6000X0.5500*%
%ADD20R,0.5000X0.6000*%
%ADD21R,0.6000X0.5000*%
%ADD22R,3.4500X3.4500*%
%ADD23O,0.3000X0.6000*%
%ADD24O,0.6000X0.3000*%
%ADD25R,1.4000X1.2000*%
%ADD26R,0.8500X0.3000*%
%ADD27R,1.3000X2.0000*%
%ADD28R,1.0000X0.6000*%
%ADD29C,0.2540*%
%ADD30C,0.1270*%
%ADD31C,0.3000*%
%ADD32C,1.5240*%
%ADD33C,0.4500*%
%ADD34O,0.6000X1.6500*%
G04:AMPARAMS|DCode=35|XSize=0.7mm|YSize=1.8mm|CornerRadius=0.175mm|HoleSize=0mm|Usage=FLASHONLY|Rotation=270.000|XOffset=0mm|YOffset=0mm|HoleType=Round|Shape=RoundedRectangle|*
%AMROUNDEDRECTD35*
21,1,0.7000,1.4500,0,0,270.0*
21,1,0.3500,1.8000,0,0,270.0*
1,1,0.3500,-0.7250,-0.1750*
1,1,0.3500,-0.7250,0.1750*
1,1,0.3500,0.7250,0.1750*
1,1,0.3500,0.7250,-0.1750*
%
%ADD35ROUNDEDRECTD35*%
G04:AMPARAMS|DCode=36|XSize=1.6mm|YSize=2.2mm|CornerRadius=0.4mm|HoleSize=0mm|Usage=FLASHONLY|Rotation=270.000|XOffset=0mm|YOffset=0mm|HoleType=Round|Shape=RoundedRectangle|*
%AMROUNDEDRECTD36*
21,1,1.6000,1.4000,0,0,270.0*
21,1,0.8000,2.2000,0,0,270.0*
1,1,0.8000,-0.7000,-0.4000*
1,1,0.8000,-0.7000,0.4000*
1,1,0.8000,0.7000,0.4000*
1,1,0.8000,0.7000,-0.4000*
%
%ADD36ROUNDEDRECTD36*%
G04:AMPARAMS|DCode=37|XSize=0.6096mm|YSize=1.7018mm|CornerRadius=0.3048mm|HoleSize=0mm|Usage=FLASHONLY|Rotation=270.000|XOffset=0mm|YOffset=0mm|HoleType=Round|Shape=RoundedRectangle|*
%AMROUNDEDRECTD37*
21,1,0.6096,1.0922,0,0,270.0*
21,1,0.0000,1.7018,0,0,270.0*
1,1,0.6096,-0.5461,0.0000*
1,1,0.6096,-0.5461,0.0000*
1,1,0.6096,0.5461,0.0000*
1,1,0.6096,0.5461,0.0000*
%
%ADD37ROUNDEDRECTD37*%
G04:AMPARAMS|DCode=38|XSize=2.8194mm|YSize=1.016mm|CornerRadius=0.508mm|HoleSize=0mm|Usage=FLASHONLY|Rotation=180.000|XOffset=0mm|YOffset=0mm|HoleType=Round|Shape=RoundedRectangle|*
%AMROUNDEDRECTD38*
21,1,2.8194,0.0000,0,0,180.0*
21,1,1.8034,1.0160,0,0,180.0*
1,1,1.0160,-0.9017,0.0000*
1,1,1.0160,0.9017,0.0000*
1,1,1.0160,0.9017,0.0000*
1,1,1.0160,-0.9017,0.0000*
%
%ADD38ROUNDEDRECTD38*%
%ADD39C,0.1016*%
%ADD40C,0.2500*%
%ADD41C,0.1000*%
%ADD42C,0.3000*%
%ADD43C,0.3000*%
%ADD44C,0.1500*%
%ADD45C,0.1524*%
%ADD46C,0.7620*%
%ADD47C,0.2000*%
%ADD48C,0.0518*%
%ADD49R,0.1524X0.5049*%
%ADD50R,0.5049X0.1524*%
%ADD51R,0.4500X0.4500*%
%ADD52R,0.4500X0.4500*%
%ADD53R,0.4500X0.4500*%
%ADD54R,0.4500X0.4500*%
%ADD55R,0.5080X0.3556*%
%ADD56R,0.3556X0.5080*%
G04:AMPARAMS|DCode=57|XSize=0.5588mm|YSize=0.6604mm|CornerRadius=0.1524mm|HoleSize=0mm|Usage=FLASHONLY|Rotation=180.000|XOffset=0mm|YOffset=0mm|HoleType=Round|Shape=RoundedRectangle|*
%AMROUNDEDRECTD57*
21,1,0.5588,0.3556,0,0,180.0*
21,1,0.2540,0.6604,0,0,180.0*
1,1,0.3048,-0.1270,0.1778*
1,1,0.3048,0.1270,0.1778*
1,1,0.3048,0.1270,-0.1778*
1,1,0.3048,-0.1270,-0.1778*
%
%ADD57ROUNDEDRECTD57*%
%ADD58R,1.2700X0.8636*%
%ADD59P,1.9520X8X22.5*%
%ADD60C,1.2032*%
%ADD61R,0.6032X0.6032*%
%ADD62R,0.8032X0.7532*%
%ADD63R,0.7032X0.8032*%
%ADD64R,0.8032X0.7032*%
%ADD65R,3.6532X3.6532*%
%ADD66O,0.5032X0.8032*%
%ADD67O,0.8032X0.5032*%
%ADD68R,1.6032X1.4032*%
%ADD69R,1.0532X0.5032*%
%ADD70R,1.5032X2.2032*%
%ADD71R,1.2032X0.8032*%
%ADD72C,1.7272*%
%ADD73O,0.8032X1.8532*%
G04:AMPARAMS|DCode=74|XSize=0.9032mm|YSize=2.0032mm|CornerRadius=0.2766mm|HoleSize=0mm|Usage=FLASHONLY|Rotation=270.000|XOffset=0mm|YOffset=0mm|HoleType=Round|Shape=RoundedRectangle|*
%AMROUNDEDRECTD74*
21,1,0.9032,1.4500,0,0,270.0*
21,1,0.3500,2.0032,0,0,270.0*
1,1,0.5532,-0.7250,-0.1750*
1,1,0.5532,-0.7250,0.1750*
1,1,0.5532,0.7250,0.1750*
1,1,0.5532,0.7250,-0.1750*
%
%ADD74ROUNDEDRECTD74*%
G04:AMPARAMS|DCode=75|XSize=1.8032mm|YSize=2.4032mm|CornerRadius=0.5016mm|HoleSize=0mm|Usage=FLASHONLY|Rotation=270.000|XOffset=0mm|YOffset=0mm|HoleType=Round|Shape=RoundedRectangle|*
%AMROUNDEDRECTD75*
21,1,1.8032,1.4000,0,0,270.0*
21,1,0.8000,2.4032,0,0,270.0*
1,1,1.0032,-0.7000,-0.4000*
1,1,1.0032,-0.7000,0.4000*
1,1,1.0032,0.7000,0.4000*
1,1,1.0032,0.7000,-0.4000*
%
%ADD75ROUNDEDRECTD75*%
G04:AMPARAMS|DCode=76|XSize=0.8128mm|YSize=1.905mm|CornerRadius=0.4064mm|HoleSize=0mm|Usage=FLASHONLY|Rotation=270.000|XOffset=0mm|YOffset=0mm|HoleType=Round|Shape=RoundedRectangle|*
%AMROUNDEDRECTD76*
21,1,0.8128,1.0922,0,0,270.0*
21,1,0.0000,1.9050,0,0,270.0*
1,1,0.8128,-0.5461,0.0000*
1,1,0.8128,-0.5461,0.0000*
1,1,0.8128,0.5461,0.0000*
1,1,0.8128,0.5461,0.0000*
%
%ADD76ROUNDEDRECTD76*%
G04:AMPARAMS|DCode=77|XSize=3.0226mm|YSize=1.2192mm|CornerRadius=0.6096mm|HoleSize=0mm|Usage=FLASHONLY|Rotation=180.000|XOffset=0mm|YOffset=0mm|HoleType=Round|Shape=RoundedRectangle|*
%AMROUNDEDRECTD77*
21,1,3.0226,0.0000,0,0,180.0*
21,1,1.8034,1.2192,0,0,180.0*
1,1,1.2192,-0.9017,0.0000*
1,1,1.2192,0.9017,0.0000*
1,1,1.2192,0.9017,0.0000*
1,1,1.2192,-0.9017,0.0000*
%
%ADD77ROUNDEDRECTD77*%
%ADD78C,0.6000*%
%ADD79C,0.0127*%
%ADD80C,0.0130*%
%ADD81C,0.3048*%
%ADD82R,0.1174X0.5265*%
%ADD83R,0.7193X0.1174*%
%ADD84R,0.1174X0.5265*%
%ADD85R,0.1154X0.0734*%
%ADD86R,0.7209X0.1174*%
%ADD87R,0.0587X0.0587*%
%ADD88R,0.1174X0.0587*%
%ADD89R,0.0432X0.0393*%
%ADD90R,0.0077X0.0288*%
%ADD91R,0.0019X0.0732*%
%ADD92R,0.1143X0.0771*%
%ADD93R,0.0876X0.0324*%
%ADD94R,0.0735X0.0567*%
%ADD95R,0.0039X0.0299*%
%ADD96R,0.0356X0.1063*%
%ADD97R,0.0521X0.0883*%
%ADD98R,0.0227X0.0739*%
%ADD99R,0.0168X0.0271*%
%ADD100R,0.0278X0.0228*%
%ADD101R,0.0294X0.1092*%
%ADD102R,0.0304X0.0082*%
%ADD103R,0.0479X0.0922*%
%ADD104R,0.0541X0.0810*%
%ADD105R,0.0484X0.0328*%
%ADD106R,0.0393X0.0104*%
%ADD107R,0.0288X0.0181*%
%ADD108R,0.0732X0.0568*%
%ADD109R,0.0398X0.0221*%
%ADD110R,0.0335X0.0872*%
%ADD111R,0.0572X0.0286*%
%ADD112R,0.0427X0.0300*%
%ADD113R,0.0472X0.0218*%
%ADD114R,0.0497X0.0384*%
%ADD115R,0.0049X0.0274*%
%ADD116R,0.0337X0.0459*%
%ADD117R,0.0044X0.0416*%
%ADD118R,0.0254X0.0212*%
%ADD119R,0.0082X0.0146*%
%ADD120R,0.0323X0.0207*%
%ADD121R,0.0323X0.0218*%
%ADD122R,0.0245X0.0060*%
%ADD123R,0.0126X0.0144*%
%ADD124R,0.0405X0.0331*%
%ADD125R,0.7226X0.1174*%
%ADD126R,0.0055X0.0608*%
%ADD127R,1.3257X0.0530*%
%ADD128R,0.0225X0.1053*%
%ADD129R,0.0122X0.1005*%
%ADD130R,0.0232X0.0193*%
%ADD131R,0.0124X0.0218*%
G36*
X1032505Y746252D02*
X1032490Y746246D01*
X1032490Y746246D01*
X1032505Y746252D01*
X1032505Y746252D01*
D02*
G37*
G36*
X1032518Y746242D02*
X1032505Y746252D01*
X1032525Y746258D01*
X1032518Y746242D01*
D02*
G37*
G36*
X1025273Y743937D02*
X1013186Y709077D01*
X1003889Y694984D01*
X1005674Y711095D01*
X1013082Y762224D01*
X1025273Y743937D01*
D02*
G37*
G36*
X1032493Y746276D02*
D01*
D01*
D01*
D02*
G37*
G36*
X1032532Y746274D02*
X1032539Y746290D01*
D01*
X1032532Y746274D01*
D02*
G37*
G36*
X1028035Y715869D02*
X1028033Y715868D01*
X1028033Y715874D01*
X1028035Y715869D01*
D02*
G37*
G36*
X1031852Y730503D02*
X1031837Y730497D01*
X1031844Y730526D01*
X1031852Y730503D01*
D02*
G37*
G36*
X1028037Y715870D02*
X1028035Y715869D01*
X1028035Y715873D01*
X1028037Y715870D01*
D02*
G37*
G36*
X1028033Y715876D02*
X1028033Y715874D01*
X1028033Y715874D01*
X1028033Y715876D01*
X1028033Y715876D01*
D02*
G37*
G36*
X1028035Y715874D02*
X1028035Y715873D01*
X1028033Y715876D01*
X1028033Y715879D01*
X1028035Y715874D01*
D02*
G37*
G36*
X1032495Y746306D02*
X1032495D01*
X1032495Y746307D01*
X1032495Y746306D01*
D02*
G37*
G36*
X1039742Y729056D02*
X1039742Y729056D01*
X1039802Y729031D01*
X1039800Y729026D01*
X1039802Y729031D01*
X1039843Y729014D01*
X1039845Y729013D01*
X1039845Y729013D01*
X1039883Y728997D01*
X1039883D01*
X1039922Y728981D01*
X1039921Y728980D01*
X1039922Y728981D01*
X1039964Y728964D01*
X1039961Y728959D01*
X1039961Y728959D01*
X1039964Y728964D01*
X1040131Y728895D01*
X1040180Y728779D01*
X1040180Y728779D01*
X1040180Y728779D01*
X1040201Y728725D01*
X1040201Y728725D01*
D01*
X1040196Y728722D01*
X1040201Y728725D01*
X1040219Y728683D01*
X1040218Y728682D01*
X1040219Y728683D01*
X1040234Y728646D01*
X1040234Y728646D01*
X1040235Y728644D01*
X1040235Y728644D01*
X1040251Y728605D01*
X1040269Y728561D01*
X1040269Y728561D01*
X1040338Y728395D01*
X1040338D01*
X1040338Y728395D01*
X1040290Y728279D01*
X1040276Y728282D01*
X1040290Y728279D01*
X1040267Y728223D01*
X1040267Y728223D01*
X1040249Y728181D01*
X1040250D01*
X1040234Y728142D01*
X1040234Y728142D01*
X1040218Y728104D01*
X1040218D01*
X1040200Y728061D01*
X1040200Y728061D01*
X1040200Y728061D01*
X1040199Y728059D01*
X1040131Y727895D01*
X1040021Y727850D01*
X1040021Y727850D01*
X1039967Y727827D01*
X1039963Y727834D01*
X1039967Y727827D01*
X1039924Y727810D01*
X1039924Y727810D01*
X1039884Y727793D01*
X1039884Y727793D01*
X1039884Y727793D01*
X1039884D01*
D01*
X1039845Y727777D01*
X1039845Y727778D01*
X1039845Y727777D01*
X1039802Y727759D01*
X1039802Y727759D01*
X1039632Y727689D01*
X1031835Y727741D01*
Y727689D01*
X1031835D01*
X1031727Y727734D01*
X1031729Y727750D01*
X1031727Y727734D01*
X1031668Y727758D01*
X1031669Y727763D01*
X1031668Y727758D01*
X1031628Y727775D01*
X1031626Y727775D01*
X1031628Y727776D01*
X1031628Y727775D01*
X1031628Y727776D01*
X1031628Y727776D01*
X1031626Y727776D01*
X1031626Y727775D01*
X1031588Y727791D01*
Y727791D01*
X1031588Y727791D01*
X1031551Y727806D01*
X1031551Y727808D01*
X1031551Y727806D01*
X1031510Y727823D01*
X1031510Y727823D01*
X1031461Y727844D01*
X1031469Y727856D01*
X1031468Y727855D01*
X1031460Y727843D01*
X1031336Y727895D01*
X1031322Y727928D01*
X1031322Y727928D01*
Y727928D01*
X1031353Y727957D01*
X1031322Y727928D01*
X1031284Y728020D01*
X1031284Y728020D01*
X1031263Y728071D01*
X1031268Y728074D01*
X1031263Y728071D01*
X1031246Y728111D01*
Y728111D01*
X1031230Y728150D01*
X1031230Y728150D01*
Y728150D01*
X1031214Y728189D01*
X1031215Y728189D01*
X1031214Y728189D01*
X1031196Y728232D01*
X1031197Y728232D01*
X1031130Y728393D01*
X1031176Y728393D01*
X1031176Y728395D01*
X1031129D01*
Y728395D01*
X1031174Y728504D01*
X1031190Y728501D01*
X1031174Y728504D01*
X1031198Y728562D01*
X1031198D01*
X1031215Y728604D01*
X1031216Y728604D01*
X1031215Y728604D01*
X1031231Y728642D01*
X1031231D01*
X1031231Y728642D01*
X1031247Y728680D01*
X1031248Y728679D01*
X1031247Y728680D01*
X1031264Y728720D01*
X1031264Y728721D01*
X1031284Y728770D01*
X1031296Y728761D01*
X1031295Y728762D01*
X1031296Y728761D01*
X1031284Y728770D01*
X1031336Y728895D01*
X1031369Y728909D01*
X1031397Y728877D01*
X1031369Y728909D01*
X1031460Y728947D01*
X1031461Y728947D01*
X1031511Y728967D01*
X1031514Y728962D01*
X1031511Y728967D01*
X1031550Y728983D01*
X1031550Y728982D01*
X1031552Y728983D01*
X1031552Y728983D01*
X1031552Y728984D01*
X1031590Y729000D01*
Y729000D01*
X1031629Y729016D01*
X1031672Y729034D01*
X1031672Y729034D01*
X1031835Y729101D01*
X1039632Y729049D01*
Y729101D01*
X1039742Y729056D01*
D02*
G37*
G36*
X1032493Y746311D02*
X1032493Y746311D01*
X1032495Y746314D01*
X1032493Y746311D01*
D02*
G37*
G36*
X1039649Y748526D02*
D01*
X1039651Y748527D01*
X1039649Y748526D01*
D02*
G37*
G36*
D02*
X1039649D01*
X1039649D01*
D01*
D02*
G37*
G36*
X1032546Y746305D02*
X1032539Y746290D01*
X1032539Y746290D01*
D01*
D01*
X1032539D01*
X1032494Y746299D01*
X1032495Y746306D01*
X1032546Y746305D01*
D02*
G37*
G36*
X1031166Y746291D02*
X1031153Y746281D01*
X1031152Y746281D01*
X1031145Y746297D01*
X1031166Y746291D01*
D02*
G37*
G36*
X1032495Y746294D02*
X1032494Y746292D01*
X1032494Y746296D01*
X1032495Y746294D01*
D02*
G37*
G36*
X1029890Y729049D02*
Y729101D01*
X1029890D01*
X1030001Y729056D01*
X1030001Y729056D01*
X1030060Y729031D01*
X1030059Y729026D01*
X1030060Y729031D01*
X1030104Y729013D01*
Y729013D01*
X1030142Y728997D01*
D01*
X1030142D01*
Y728997D01*
X1030142Y728997D01*
X1030181Y728981D01*
X1030180Y728980D01*
X1030181Y728981D01*
X1030223Y728964D01*
X1030219Y728959D01*
X1030219Y728959D01*
X1030223Y728964D01*
X1030390Y728895D01*
X1030438Y728779D01*
X1030438Y728779D01*
X1030438Y728779D01*
X1030459Y728727D01*
X1030460Y728725D01*
X1030454Y728722D01*
X1030460Y728725D01*
X1030478Y728683D01*
X1030476Y728682D01*
X1030478Y728683D01*
X1030494Y728644D01*
X1030510Y728605D01*
X1030528Y728561D01*
X1030528Y728561D01*
X1030597Y728395D01*
X1030597D01*
X1030597Y728395D01*
X1030549Y728279D01*
X1030534Y728282D01*
X1030549Y728279D01*
X1030526Y728223D01*
X1030526Y728223D01*
X1030508Y728181D01*
X1030492Y728142D01*
X1030492Y728142D01*
X1030476Y728104D01*
X1030474Y728105D01*
X1030476Y728104D01*
D01*
X1030476D01*
X1030459Y728061D01*
X1030453Y728064D01*
X1030453Y728064D01*
X1030459Y728061D01*
X1030390Y727895D01*
X1030280Y727850D01*
X1030269Y727865D01*
X1030280Y727850D01*
X1030227Y727828D01*
X1030225Y727827D01*
Y727827D01*
D01*
Y727827D01*
Y727827D01*
X1030183Y727810D01*
X1030183Y727810D01*
X1030143Y727793D01*
X1030104Y727777D01*
Y727777D01*
X1030104D01*
X1030060Y727759D01*
X1030060Y727759D01*
X1029890Y727689D01*
X1028918Y727741D01*
Y727735D01*
X1028917Y727736D01*
X1028912Y727738D01*
X1028913Y727737D01*
X1028908Y727736D01*
X1028907Y727736D01*
X1028907Y727736D01*
X1028907Y727741D01*
X1028906Y727689D01*
X1028887Y727697D01*
X1028891Y727736D01*
X1028892Y727736D01*
Y727741D01*
X1028891Y727736D01*
X1028889Y727737D01*
X1028887Y727697D01*
X1028867Y727706D01*
X1028867D01*
X1028873Y727737D01*
X1028874Y727737D01*
Y727742D01*
X1028873Y727737D01*
X1028869Y727739D01*
X1028869Y727743D01*
X1028867Y727706D01*
X1028845Y727715D01*
X1028853Y727739D01*
X1028847Y727742D01*
X1028845Y727716D01*
X1028820Y727726D01*
X1028823Y727747D01*
X1028820Y727726D01*
X1028793Y727737D01*
X1028793Y727737D01*
X1028760Y727751D01*
X1028760Y727751D01*
X1028761Y727751D01*
X1028762Y727759D01*
X1028760Y727751D01*
X1028424Y727890D01*
X1028459Y727927D01*
X1028423Y727890D01*
X1028417Y727892D01*
X1028336Y728088D01*
X1028257Y728280D01*
X1028257Y728280D01*
X1028229Y728347D01*
X1028229Y728347D01*
X1028210Y728393D01*
X1028259Y728393D01*
X1028258Y728395D01*
X1028208D01*
X1028214Y728409D01*
X1028214D01*
Y728409D01*
X1028264Y728408D01*
X1028214Y728409D01*
X1028236Y728461D01*
X1028264Y728458D01*
X1028264Y728460D01*
X1028237Y728463D01*
X1028271Y728544D01*
X1028271Y728544D01*
X1028373Y728792D01*
X1028374Y728791D01*
X1028374Y728791D01*
X1028388Y728781D01*
X1028374Y728791D01*
X1028418Y728897D01*
X1028695Y729012D01*
X1028695Y729011D01*
X1028695Y729011D01*
X1028695Y729011D01*
X1028695Y729012D01*
X1028745Y729033D01*
X1028746Y729027D01*
D01*
X1028746Y729027D01*
X1028746Y729027D01*
X1028748Y729028D01*
X1028746Y729034D01*
X1028782Y729048D01*
X1028784Y729037D01*
X1028786Y729038D01*
X1028783Y729049D01*
X1028811Y729060D01*
X1028813Y729041D01*
X1028811Y729060D01*
X1028811D01*
X1028811Y729060D01*
X1028835Y729071D01*
Y729071D01*
X1028856Y729079D01*
X1028858Y729050D01*
X1028860Y729050D01*
X1028858Y729081D01*
X1028878Y729089D01*
Y729089D01*
X1028898Y729098D01*
Y729098D01*
X1028918Y729106D01*
X1029890Y729049D01*
D02*
G37*
G36*
X1032494Y746299D02*
X1032494Y746296D01*
X1032493Y746299D01*
X1032494Y746299D01*
D02*
G37*
G36*
X1027928Y715823D02*
D01*
X1027944Y715829D01*
X1027928Y715823D01*
D02*
G37*
G36*
D02*
X1027928D01*
X1027928D01*
D01*
D02*
G37*
G36*
X1027684Y713004D02*
X1029873D01*
Y712953D01*
X1039750Y706374D01*
D01*
X1039967Y706230D01*
X1039750Y706374D01*
X1039631Y705157D01*
X1028003D01*
X1027981Y705104D01*
X1027928Y705082D01*
X1027913Y705089D01*
X1027912Y705089D01*
X1027912Y705044D01*
X1027886Y705055D01*
X1027891Y705085D01*
X1027892Y705085D01*
Y705090D01*
X1027891Y705085D01*
X1027888Y705087D01*
X1027886Y705055D01*
X1027682Y705140D01*
X1027631Y705161D01*
X1027629Y705162D01*
X1027587Y705179D01*
X1027592Y705188D01*
X1027587Y705179D01*
X1027544Y705197D01*
X1027555Y705213D01*
X1027543Y705197D01*
X1027497Y705216D01*
X1027496Y705216D01*
X1027447Y705237D01*
X1027445Y705241D01*
X1027444Y705241D01*
X1027416Y705309D01*
X1027436Y705324D01*
X1027438Y705326D01*
X1027416Y705309D01*
X1027366Y705428D01*
X1027366D01*
X1027262Y705680D01*
X1027262Y705679D01*
X1027236Y705741D01*
X1027236Y705743D01*
X1027236Y705743D01*
X1027244Y705743D01*
X1027236Y705741D01*
X1027262Y705742D01*
X1027244Y705743D01*
X1027286Y705752D01*
X1027286Y705744D01*
X1027286Y705744D01*
X1027285Y705743D01*
X1027286Y705743D01*
X1027262Y705742D01*
X1027286Y705741D01*
X1027286Y705743D01*
X1027291Y705743D01*
X1027288Y705748D01*
X1027291Y705753D01*
X1027286Y705754D01*
X1027286Y705754D01*
X1027291Y705754D01*
X1027286Y705754D01*
Y705754D01*
X1027241Y705755D01*
X1027272Y705831D01*
X1027296Y705828D01*
X1027272Y705831D01*
X1027397Y706133D01*
X1027410Y706124D01*
X1027409Y706125D01*
X1027397Y706133D01*
X1027432Y706216D01*
X1027432Y706216D01*
X1027446Y706250D01*
X1027474Y706261D01*
X1027474Y706261D01*
X1027522Y706281D01*
X1027524Y706282D01*
X1027540Y706261D01*
X1027524Y706281D01*
X1027569Y706300D01*
X1027576Y706290D01*
X1027578Y706290D01*
X1027571Y706301D01*
X1027612Y706318D01*
X1027612Y706318D01*
D01*
X1027615Y706313D01*
X1027612Y706318D01*
X1027660Y706337D01*
X1027660Y706337D01*
X1027660Y706337D01*
X1027660D01*
D01*
X1027805Y706397D01*
Y706398D01*
X1027864Y706422D01*
X1027864Y706422D01*
X1027897Y706436D01*
X1027898Y706400D01*
X1027900Y706401D01*
X1027899Y706437D01*
X1027912Y706443D01*
X1027913Y706398D01*
X1027928Y706404D01*
X1027981Y706383D01*
X1028003Y706330D01*
X1037703D01*
X1027609Y713053D01*
X1027684Y713004D01*
D02*
G37*
G36*
X1027288Y705749D02*
X1027288Y705749D01*
X1027288Y705749D01*
X1027287Y705748D01*
X1027286Y705752D01*
X1027291Y705753D01*
X1027288Y705749D01*
D02*
G37*
G36*
X1027286Y705752D02*
X1027286Y705752D01*
X1027286Y705752D01*
Y705752D01*
X1027286Y705753D01*
X1027286Y705754D01*
Y705752D01*
D02*
G37*
G36*
X1031903Y745663D02*
X1031903Y745660D01*
X1031904Y745659D01*
X1031912Y745663D01*
X1031906Y745648D01*
X1031915Y745635D01*
X1031898Y745629D01*
X1031906Y745648D01*
X1031897Y745661D01*
X1031902Y745663D01*
X1031903Y745663D01*
D02*
G37*
G36*
X1027443Y735755D02*
X1032408Y735756D01*
X1032422Y735762D01*
X1032437Y735756D01*
X1032436Y735755D01*
X1039649Y735760D01*
X1039700Y735739D01*
X1039721Y735688D01*
X1039700Y735636D01*
X1039649Y735615D01*
Y735620D01*
X1032491D01*
X1032491Y734502D01*
X1032497Y734514D01*
X1032491Y734499D01*
Y734502D01*
X1032489Y734500D01*
X1032492Y731211D01*
X1032495D01*
X1032492Y731204D01*
Y731211D01*
X1032489D01*
X1032491Y731200D01*
X1032493Y731205D01*
X1032495Y731200D01*
X1032495Y731211D01*
X1032550D01*
X1032544Y731197D01*
X1032494Y731198D01*
D01*
D01*
D01*
X1032495Y731199D01*
X1032495Y731200D01*
X1032494Y731198D01*
D01*
X1032494Y731196D01*
X1032491Y731197D01*
X1032492Y731191D01*
X1032494Y731196D01*
X1032514Y731189D01*
X1032544Y731197D01*
X1032537Y731182D01*
X1032514Y731189D01*
X1032494Y731185D01*
X1032495Y731186D01*
X1032493Y731191D01*
X1032492Y731190D01*
X1032492Y731191D01*
X1032491Y731190D01*
X1032492Y731190D01*
X1032492Y731184D01*
X1032494Y731185D01*
X1032493Y731183D01*
X1032492Y731183D01*
X1032493Y731181D01*
X1032493Y731183D01*
X1032530Y731166D01*
X1032536Y731180D01*
X1032530Y731166D01*
X1032530Y731166D01*
X1032523Y731150D01*
X1032530Y731166D01*
X1032487Y731153D01*
X1032506Y731140D01*
X1032523Y731150D01*
X1032516Y731134D01*
X1032506Y731140D01*
X1032488Y731130D01*
X1032488Y731136D01*
X1032485Y731129D01*
X1032488Y731130D01*
X1032486Y731121D01*
X1032490Y731129D01*
X1032497Y731112D01*
X1032509Y731118D01*
X1032502Y731101D01*
X1032497Y731112D01*
X1032481Y731104D01*
X1032495Y731083D01*
X1032494Y731083D01*
X1032487Y731065D01*
X1032487Y731065D01*
X1032479Y731046D01*
X1032487Y731065D01*
X1032471Y731048D01*
X1032471Y731026D01*
X1032479Y731046D01*
X1032471Y731026D01*
Y731026D01*
X1032462Y731005D01*
X1032471Y731026D01*
X1032452Y730982D01*
X1032462Y731005D01*
X1032451Y730982D01*
X1032452Y730982D01*
X1032441Y730956D01*
X1032429Y730927D01*
X1032415Y730893D01*
X1032413Y730894D01*
X1032415Y730893D01*
X1032397Y730849D01*
X1032397Y730850D01*
X1032338Y730708D01*
X1032270Y730679D01*
X1032253Y730700D01*
X1032270Y730679D01*
X1032198Y730649D01*
X1032198Y730649D01*
X1032154Y730631D01*
X1032154Y730631D01*
X1032120Y730617D01*
X1032120Y730618D01*
X1032120Y730617D01*
X1032092Y730605D01*
X1032090Y730605D01*
X1032045Y730586D01*
X1032066Y730595D01*
X1032044Y730588D01*
X1032044Y730588D01*
X1032043Y730587D01*
X1032044Y730588D01*
X1032022Y730576D01*
X1032043Y730585D01*
X1032002Y730568D01*
X1032022Y730576D01*
X1032002Y730568D01*
X1031981Y730572D01*
X1031965Y730553D01*
X1031962Y730568D01*
X1031947Y730545D01*
X1031965Y730553D01*
X1031947Y730545D01*
X1031927Y730563D01*
X1031923Y730560D01*
X1031928Y730560D01*
X1031919Y730557D01*
X1031923Y730560D01*
X1031912Y730558D01*
X1031919Y730561D01*
X1031911Y730561D01*
X1031898Y730524D01*
X1031915Y730531D01*
X1031883Y730517D01*
X1031898Y730524D01*
X1031869Y730511D01*
X1031883Y730517D01*
X1031869Y730511D01*
X1031869Y730511D01*
X1031867Y730510D01*
X1031869Y730511D01*
X1031867Y730510D01*
X1031851Y730557D01*
X1031844Y730526D01*
X1031836Y730549D01*
X1031818Y730509D01*
X1031797Y730518D01*
X1031818Y730509D01*
X1031801Y730553D01*
X1031803Y730552D01*
Y730558D01*
X1031801Y730555D01*
X1031799Y730558D01*
X1031799Y730554D01*
X1031799Y730554D01*
X1031801Y730555D01*
X1031801Y730553D01*
X1031799Y730554D01*
X1031775Y730527D01*
Y730527D01*
Y730527D01*
X1031775Y730527D01*
X1031775D01*
X1031777Y730559D01*
X1031762Y730546D01*
X1031753Y730559D01*
X1031751Y730538D01*
X1031723Y730549D01*
X1031723Y730549D01*
X1031693Y730562D01*
Y730562D01*
X1031656Y730578D01*
Y730578D01*
X1031352Y730703D01*
X1031352Y730703D01*
X1031351Y730704D01*
X1031318Y730782D01*
X1031318Y730782D01*
X1031317Y730784D01*
X1031326Y730789D01*
X1031318Y730782D01*
D01*
X1031337Y730797D01*
X1031335Y730795D01*
X1031334Y730797D01*
X1031327Y730790D01*
X1031335Y730795D01*
X1031335Y730795D01*
X1031326Y730789D01*
X1031327Y730790D01*
X1031317Y730784D01*
X1031295Y730837D01*
X1031295Y730837D01*
X1031277Y730880D01*
X1031277Y730880D01*
X1031262Y730917D01*
X1031249Y730949D01*
X1031249D01*
X1031237Y730977D01*
Y730977D01*
X1031237Y730977D01*
X1031237Y730977D01*
X1031238Y730977D01*
Y730977D01*
X1031237D01*
X1031237Y730978D01*
X1031237Y730977D01*
X1031236Y730979D01*
X1031237Y730978D01*
X1031237Y730979D01*
X1031238Y730977D01*
X1031238Y730977D01*
X1031226Y731003D01*
X1031236Y730979D01*
X1031217Y731026D01*
X1031226Y731003D01*
X1031217Y731026D01*
Y731026D01*
X1031208Y731048D01*
X1031217Y731026D01*
X1031215Y731052D01*
X1031215Y731050D01*
X1031216Y731052D01*
X1031199Y731069D01*
X1031207Y731050D01*
X1031199Y731069D01*
X1031199Y731069D01*
X1031190Y731088D01*
X1031199Y731069D01*
X1031190Y731088D01*
X1031190Y731088D01*
X1031183Y731107D01*
X1031190Y731088D01*
X1031205Y731110D01*
X1031175Y731125D01*
X1031182Y731107D01*
X1031175Y731125D01*
X1031175D01*
X1031175D01*
D01*
Y731125D01*
Y731125D01*
X1031203Y731128D01*
X1031187Y731135D01*
X1031175Y731125D01*
X1031168Y731142D01*
X1031187Y731135D01*
X1031201Y731145D01*
X1031178Y731153D01*
X1031167Y731142D01*
X1031160Y731160D01*
X1031178Y731153D01*
X1031186Y731162D01*
X1031160Y731160D01*
X1031152Y731177D01*
X1031181Y731173D01*
X1031165Y731182D01*
X1031152Y731177D01*
X1031145Y731193D01*
X1031165Y731182D01*
X1031198Y731194D01*
X1031171Y731202D01*
X1031145Y731193D01*
X1031137Y731211D01*
X1031171Y731202D01*
X1031198Y731211D01*
Y734447D01*
X1028096D01*
X1028142Y730207D01*
X1028149Y730222D01*
X1028142Y730205D01*
X1028142Y730207D01*
X1028096Y730206D01*
X1028141Y730205D01*
X1028128Y730172D01*
X1028127Y730172D01*
X1028058Y730005D01*
Y730005D01*
X1028034Y729947D01*
X1028034D01*
X1028016Y729902D01*
X1028010Y729905D01*
X1028016Y729902D01*
X1027999Y729862D01*
X1027988Y729867D01*
X1027998Y729860D01*
X1027980Y729816D01*
X1027980Y729816D01*
X1027960Y729768D01*
X1027929Y729796D01*
X1027961Y729767D01*
X1027949Y729740D01*
X1027916Y729726D01*
X1027889Y729757D01*
X1027917Y729726D01*
X1027834Y729692D01*
X1027825Y729705D01*
X1027834Y729692D01*
X1027515Y729559D01*
X1027515Y729560D01*
X1027515Y729559D01*
X1027443Y729529D01*
X1027443Y729529D01*
X1027414Y729541D01*
X1027414Y729541D01*
X1027414Y729541D01*
X1027418Y729579D01*
X1027419Y729579D01*
Y729585D01*
X1027418Y729579D01*
X1027416Y729581D01*
X1027416Y729585D01*
X1027414Y729541D01*
X1027302Y729587D01*
X1027305Y729599D01*
X1027302Y729587D01*
X1027019Y729705D01*
X1027031Y729721D01*
X1027019Y729705D01*
X1026947Y729735D01*
X1026948Y729735D01*
D01*
X1026982Y729770D01*
X1026948Y729735D01*
X1026936Y729740D01*
X1026918Y729784D01*
X1026918Y729784D01*
X1026898Y729831D01*
X1026899Y729831D01*
D01*
X1026916Y729844D01*
X1026899Y729831D01*
X1026881Y729874D01*
X1026891Y729880D01*
X1026881Y729874D01*
X1026864Y729916D01*
X1026864Y729916D01*
D01*
X1026867Y729918D01*
X1026867Y729918D01*
X1026864Y729916D01*
X1026844Y729964D01*
X1026844Y729964D01*
X1026793Y730088D01*
X1026797Y730089D01*
X1026793Y730088D01*
X1026764Y730157D01*
X1026764Y730157D01*
X1026750Y730190D01*
X1026767Y730192D01*
X1026786Y730192D01*
X1026785Y730194D01*
X1026767Y730192D01*
X1026749Y730192D01*
X1026736Y730222D01*
X1026788Y730222D01*
X1026736Y735101D01*
X1026784Y735217D01*
X1026799Y735214D01*
X1026784Y735217D01*
X1026807Y735273D01*
X1026807Y735273D01*
X1026825Y735315D01*
X1026841Y735353D01*
X1026841Y735353D01*
X1026841Y735353D01*
D01*
X1026841D01*
X1026857Y735392D01*
X1026859Y735391D01*
X1026857Y735392D01*
D01*
X1026857D01*
X1026874Y735435D01*
X1026877Y735433D01*
X1026874Y735435D01*
X1026943Y735601D01*
X1027053Y735646D01*
X1027053Y735646D01*
X1027107Y735669D01*
X1027111Y735662D01*
X1027107Y735669D01*
X1027150Y735686D01*
X1027150Y735686D01*
X1027190Y735703D01*
X1027190Y735703D01*
X1027190Y735703D01*
X1027190D01*
D01*
X1027229Y735719D01*
X1027230Y735718D01*
X1027229Y735719D01*
X1027272Y735737D01*
X1027272Y735737D01*
X1027443Y735807D01*
Y735755D01*
D02*
G37*
G36*
X1031947Y745650D02*
X1031933Y745643D01*
X1031940Y745657D01*
X1031947Y745650D01*
D02*
G37*
G36*
X1031835Y745661D02*
X1031834Y745657D01*
X1031832Y745661D01*
X1031835Y745661D01*
D02*
G37*
G36*
X1039718Y714064D02*
Y714064D01*
X1039718Y714064D01*
X1039720Y714063D01*
X1039763Y714045D01*
X1039765Y714045D01*
X1039799Y714031D01*
Y714031D01*
X1039801Y714030D01*
X1039828Y714019D01*
X1039830Y714018D01*
X1039831Y714017D01*
X1039859Y714006D01*
X1039858Y714005D01*
X1039859Y714005D01*
X1039858Y714005D01*
X1039860Y714004D01*
X1039859Y714005D01*
X1039861Y714005D01*
X1039894Y713992D01*
X1039891Y713987D01*
X1039894Y713992D01*
X1039894Y713992D01*
X1039894Y713992D01*
X1040028Y713936D01*
X1040066Y713845D01*
X1040066Y713843D01*
X1040066Y713843D01*
X1040053Y713836D01*
X1040054Y713834D01*
X1040066Y713843D01*
X1040066Y713843D01*
X1040084Y713801D01*
X1040085Y713799D01*
X1040097Y713768D01*
X1040098Y713767D01*
X1040096Y713768D01*
X1040096Y713768D01*
X1040096Y713768D01*
X1040097Y713766D01*
X1040096Y713768D01*
X1040098Y713767D01*
X1040111Y713736D01*
X1040111Y713734D01*
X1040123Y713705D01*
X1040123Y713705D01*
X1040123Y713705D01*
X1040138Y713671D01*
X1040134Y713669D01*
X1040133Y713669D01*
X1040133Y713669D01*
X1040134Y713669D01*
X1040138Y713670D01*
X1040192Y713540D01*
X1040192D01*
Y713540D01*
X1040151D01*
X1040192Y713540D01*
D01*
X1040155Y713451D01*
X1040154Y713448D01*
X1040143Y713453D01*
X1040142Y713452D01*
X1040142Y713453D01*
X1040141Y713451D01*
X1040142Y713452D01*
X1040143Y713450D01*
X1040154Y713448D01*
X1040136Y713404D01*
X1040134Y713404D01*
X1040132Y713405D01*
X1040132Y713405D01*
X1040132Y713405D01*
X1040131Y713404D01*
X1040132Y713405D01*
X1040134Y713404D01*
X1040132Y713403D01*
X1040134Y713404D01*
D01*
X1040134Y713404D01*
D01*
X1040136Y713404D01*
X1040135Y713402D01*
X1040134Y713404D01*
X1040134Y713404D01*
X1040135Y713402D01*
X1040123Y713372D01*
X1040122Y713371D01*
X1040122Y713373D01*
Y713373D01*
X1040121Y713371D01*
X1040122Y713373D01*
Y713373D01*
X1040122Y713371D01*
X1040109Y713340D01*
Y713340D01*
X1040097Y713309D01*
X1040095Y713310D01*
X1040094Y713309D01*
X1040094Y713309D01*
X1040097Y713309D01*
D01*
X1040097D01*
X1040096Y713308D01*
X1040083Y713276D01*
X1040078Y713278D01*
X1040083Y713275D01*
X1040083Y713276D01*
X1040083Y713275D01*
X1040028Y713143D01*
X1039940Y713106D01*
X1039939Y713106D01*
X1039939Y713106D01*
X1039931Y713118D01*
X1039930Y713120D01*
X1039927Y713119D01*
X1039929Y713117D01*
X1039939Y713106D01*
X1039937Y713105D01*
X1039896Y713088D01*
X1039896Y713089D01*
X1039896D01*
X1039893Y713093D01*
X1039893Y713094D01*
X1039891Y713093D01*
X1039892Y713093D01*
X1039896Y713089D01*
X1039894Y713088D01*
X1039864Y713075D01*
X1039862Y713074D01*
X1039864Y713077D01*
X1039864Y713077D01*
X1039864Y713077D01*
X1039861Y713076D01*
X1039864Y713077D01*
X1039862Y713074D01*
X1039832Y713062D01*
X1039831Y713061D01*
X1039832Y713062D01*
X1039831Y713061D01*
X1039799Y713048D01*
D01*
X1039799Y713049D01*
X1039799Y713049D01*
X1039797Y713048D01*
Y713048D01*
X1039799Y713048D01*
Y713048D01*
X1039798Y713048D01*
X1039767Y713035D01*
X1039765Y713034D01*
X1039766Y713038D01*
X1039765D01*
X1039766Y713039D01*
X1039764Y713038D01*
X1039765Y713038D01*
X1039765Y713034D01*
X1039631Y712979D01*
X1029940Y713020D01*
X1029941Y713020D01*
X1029926Y713056D01*
X1029873Y713078D01*
X1027684Y713073D01*
X1027677Y713074D01*
X1027675Y713072D01*
X1027675Y713072D01*
X1027674Y713072D01*
X1027675Y713072D01*
X1027661Y713105D01*
X1027649Y713110D01*
X1027641Y713099D01*
X1027619Y713108D01*
X1027617Y713108D01*
X1027630Y713122D01*
Y713122D01*
X1027618Y713109D01*
X1027544Y713139D01*
X1027478Y713299D01*
X1027477Y713300D01*
D01*
X1027402Y713482D01*
X1027402Y713482D01*
X1027423Y713484D01*
X1027426Y713485D01*
X1027425Y713486D01*
X1027423Y713486D01*
X1027402Y713482D01*
X1027402Y713482D01*
X1027402Y713484D01*
X1027376Y713546D01*
X1027382Y713561D01*
X1027383Y713561D01*
X1027383Y713563D01*
X1027402Y713609D01*
X1027414Y713608D01*
X1027425Y713606D01*
X1027426Y713608D01*
X1027414Y713608D01*
X1027403Y713610D01*
X1027420Y713651D01*
X1027420Y713651D01*
D01*
X1027430Y713649D01*
X1027420Y713651D01*
X1027421Y713652D01*
X1027436Y713688D01*
X1027436Y713690D01*
X1027440Y713689D01*
X1027441Y713691D01*
X1027444Y713700D01*
X1027441Y713693D01*
X1027443Y713700D01*
X1027444Y713702D01*
X1027450Y713718D01*
X1027450D01*
X1027458Y713736D01*
X1027465Y713753D01*
X1027466Y713755D01*
Y713755D01*
X1027473Y713773D01*
X1027474Y713774D01*
X1027474Y713774D01*
X1027474Y713776D01*
X1027482Y713794D01*
X1027486Y713792D01*
X1027482Y713794D01*
X1027483Y713796D01*
X1027490Y713814D01*
X1027490Y713814D01*
Y713814D01*
X1027497Y713810D01*
X1027498Y713811D01*
X1027497Y713812D01*
X1027490Y713814D01*
X1027491Y713816D01*
X1027498Y713833D01*
X1027499Y713835D01*
X1027499Y713835D01*
X1027508Y713855D01*
X1027515Y713851D01*
X1027522Y713845D01*
X1027523Y713847D01*
X1027515Y713851D01*
X1027508Y713857D01*
X1027516Y713875D01*
X1027517Y713877D01*
X1027534Y713864D01*
X1027517Y713877D01*
X1027525Y713897D01*
X1027538Y713888D01*
X1027526Y713899D01*
X1027535Y713920D01*
X1027561Y713896D01*
X1027562Y713896D01*
X1027565Y713892D01*
X1027566Y713894D01*
X1027562Y713896D01*
X1027536Y713922D01*
X1027545Y713942D01*
X1027548Y713944D01*
X1027548Y713943D01*
X1027550Y713944D01*
X1027572Y713953D01*
X1027573Y713953D01*
X1027574Y713954D01*
X1027595Y713962D01*
X1027597Y713963D01*
X1027597Y713963D01*
X1027599Y713963D01*
X1027621Y713972D01*
X1027621Y713972D01*
X1027645Y713982D01*
X1027645Y713982D01*
X1027648Y713983D01*
X1027668Y713992D01*
X1027670Y713993D01*
X1027673Y713988D01*
X1027670Y713993D01*
X1027697Y714004D01*
Y714004D01*
X1027699Y714005D01*
X1027729Y714017D01*
X1027729Y714017D01*
X1027729Y714016D01*
X1027729Y714017D01*
X1027729Y714017D01*
X1027729Y714017D01*
X1027858Y714071D01*
X1027860Y714054D01*
X1027861Y714054D01*
X1027861Y714052D01*
X1027862Y714052D01*
X1027861Y714054D01*
X1027860Y714071D01*
X1027900Y714088D01*
X1027902Y714072D01*
Y714054D01*
X1027904Y714055D01*
X1027902Y714072D01*
X1027902Y714089D01*
X1027928Y714100D01*
X1039629Y714059D01*
X1039629Y714059D01*
X1039631Y714100D01*
X1039631Y714100D01*
X1039718Y714064D01*
D02*
G37*
G36*
X1031775Y730528D02*
X1031753Y730537D01*
X1031762Y730546D01*
X1031775Y730528D01*
D02*
G37*
G36*
X1031947Y730545D02*
X1031931Y730538D01*
X1031947Y730545D01*
X1031947Y730545D01*
D02*
G37*
G36*
X1031797Y730518D02*
X1031775Y730527D01*
D01*
X1031797Y730518D01*
D02*
G37*
G36*
X1031835Y730502D02*
X1031818Y730509D01*
X1031818Y730509D01*
X1031835Y730502D01*
D02*
G37*
G36*
X1031867Y730510D02*
X1031852Y730504D01*
X1031867Y730510D01*
X1031867Y730510D01*
D02*
G37*
G36*
X1027286Y705744D02*
Y705744D01*
X1027286Y705744D01*
X1027286Y705744D01*
D02*
G37*
G36*
X1027288Y705748D02*
X1027286Y705744D01*
X1027288Y705749D01*
X1027288Y705749D01*
X1027288Y705748D01*
D02*
G37*
G36*
X1039718Y703419D02*
X1039718Y703412D01*
X1039716Y703406D01*
X1039718Y703405D01*
X1039718Y703412D01*
X1039720Y703419D01*
X1039763Y703401D01*
X1039765Y703400D01*
D01*
X1039762Y703397D01*
X1039764Y703396D01*
X1039765Y703400D01*
X1039765Y703400D01*
X1039799Y703386D01*
Y703386D01*
X1039801Y703385D01*
X1039828Y703374D01*
Y703374D01*
X1039829Y703374D01*
X1039828Y703374D01*
X1039830Y703373D01*
X1039829Y703374D01*
X1039830Y703373D01*
X1039831Y703373D01*
X1039859Y703361D01*
X1039861Y703361D01*
X1039858Y703360D01*
X1039859Y703360D01*
X1039858Y703360D01*
X1039860Y703359D01*
X1039859Y703360D01*
X1039861Y703361D01*
X1039894Y703347D01*
X1039894Y703347D01*
X1040028Y703292D01*
X1040066Y703200D01*
X1040060Y703195D01*
X1040066Y703198D01*
X1040084Y703156D01*
X1040085Y703154D01*
X1040097Y703124D01*
X1040098Y703122D01*
X1040096Y703123D01*
X1040096Y703123D01*
X1040096Y703123D01*
X1040097Y703121D01*
X1040096Y703123D01*
X1040098Y703122D01*
X1040111Y703091D01*
X1040111Y703090D01*
X1040123Y703061D01*
X1040123Y703060D01*
X1040123Y703061D01*
X1040138Y703026D01*
X1040134Y703025D01*
X1040133Y703025D01*
X1040133Y703025D01*
X1040134Y703025D01*
X1040138Y703026D01*
X1040191Y702897D01*
X1040192Y702895D01*
X1040146D01*
Y702897D01*
X1040145Y702895D01*
X1040146D01*
X1040151Y695099D01*
X1040150Y695099D01*
X1040191Y695097D01*
X1040153Y695005D01*
X1040153Y695005D01*
X1040135Y694960D01*
X1040134Y694959D01*
X1040131Y694961D01*
X1040130Y694959D01*
X1040134Y694958D01*
Y694959D01*
X1040134Y694958D01*
X1040120Y694924D01*
Y694924D01*
X1040119Y694924D01*
X1040119Y694924D01*
X1040118Y694922D01*
X1040118Y694922D01*
X1040120Y694924D01*
X1040120D01*
X1040119Y694921D01*
X1040107Y694892D01*
X1040106Y694893D01*
X1040106Y694892D01*
X1040106Y694891D01*
X1040107Y694892D01*
Y694892D01*
X1040107D01*
X1040106Y694891D01*
X1040094Y694862D01*
X1040093Y694860D01*
X1040091Y694861D01*
X1040093Y694860D01*
X1040078Y694824D01*
X1040072Y694828D01*
X1040072Y694828D01*
X1040071Y694828D01*
X1040070Y694827D01*
X1040072Y694828D01*
X1040078Y694822D01*
X1040028Y694702D01*
X1039957Y694673D01*
X1039955Y694672D01*
X1039945Y694688D01*
X1039944Y694688D01*
X1039944Y694689D01*
X1039942Y694688D01*
X1039944Y694688D01*
X1039943Y694687D01*
X1039955Y694672D01*
X1039905Y694651D01*
X1039904Y694651D01*
D01*
X1039901Y694657D01*
X1039900Y694658D01*
X1039898Y694657D01*
X1039899Y694656D01*
X1039904Y694651D01*
X1039902Y694650D01*
X1039870Y694637D01*
X1039868Y694636D01*
Y694636D01*
D01*
X1039867Y694638D01*
X1039868Y694636D01*
X1039838Y694624D01*
X1039836Y694623D01*
Y694623D01*
X1039804Y694609D01*
X1039804Y694610D01*
Y694610D01*
X1039802Y694609D01*
X1039804Y694609D01*
X1039802Y694609D01*
X1039771Y694596D01*
X1039769Y694595D01*
X1039769Y694597D01*
X1039769Y694595D01*
X1039633Y694539D01*
X1039631Y694538D01*
Y694538D01*
X1039631D01*
X1039534Y694578D01*
X1039535Y694584D01*
X1039533Y694579D01*
X1039493Y694595D01*
X1039492Y694597D01*
X1039491Y694596D01*
X1039458Y694610D01*
X1039458Y694610D01*
X1039458Y694610D01*
X1039456Y694610D01*
X1039427Y694622D01*
X1039426Y694623D01*
X1039397Y694635D01*
X1039397Y694636D01*
X1039398Y694637D01*
X1039397Y694637D01*
X1039397Y694636D01*
X1039396Y694635D01*
X1039360Y694650D01*
X1039360Y694650D01*
X1039358Y694651D01*
X1039234Y694702D01*
X1039203Y694777D01*
X1039211Y694784D01*
X1039203Y694778D01*
X1039183Y694826D01*
X1039183Y694826D01*
D01*
X1039189Y694830D01*
X1039183Y694826D01*
X1039183Y694828D01*
X1039168Y694862D01*
X1039168Y694862D01*
X1039156Y694892D01*
X1039155Y694894D01*
X1039155D01*
X1039142Y694925D01*
X1039142Y694926D01*
X1039142Y694925D01*
X1039141Y694928D01*
X1039129Y694958D01*
X1039130Y694959D01*
X1039132Y694959D01*
X1039131Y694961D01*
X1039130Y694959D01*
X1039128Y694960D01*
X1039070Y695099D01*
X1039112Y702308D01*
X1039117D01*
X1039096Y702359D01*
X1039044Y702381D01*
X1028515Y702375D01*
Y702381D01*
X1028464Y702359D01*
X1028442Y702308D01*
X1028448Y695099D01*
X1028492D01*
X1028488Y695088D01*
X1028487Y695086D01*
X1028487D01*
X1028486Y695084D01*
X1028470Y695047D01*
X1028470D01*
X1028469Y695044D01*
X1028447Y694992D01*
X1028447Y694990D01*
X1028446Y694990D01*
D01*
X1028388Y694848D01*
X1028387Y694847D01*
X1028385Y694850D01*
X1028385Y694849D01*
X1028385Y694848D01*
X1028387Y694847D01*
X1028326Y694700D01*
X1028100Y694606D01*
X1028098Y694605D01*
X1028099Y694607D01*
X1028098Y694607D01*
X1028098Y694605D01*
X1028098Y694605D01*
X1028098Y694605D01*
X1028063Y694591D01*
X1028061Y694590D01*
X1028062Y694597D01*
X1028060Y694596D01*
X1028061Y694590D01*
D01*
Y694590D01*
X1028037Y694580D01*
X1028035Y694585D01*
X1028035Y694590D01*
X1028033Y694591D01*
X1028034Y694591D01*
X1028033Y694591D01*
D01*
D01*
D01*
X1028031Y694590D01*
X1028033Y694591D01*
X1028033Y694586D01*
X1028031Y694589D01*
X1028033Y694584D01*
X1028033Y694578D01*
X1028014Y694570D01*
X1028013Y694570D01*
X1028013Y694570D01*
Y694570D01*
X1028013D01*
X1028013Y694570D01*
X1028011Y694569D01*
X1027993Y694561D01*
X1027993Y694561D01*
X1027991Y694560D01*
X1027978Y694555D01*
X1027976Y694554D01*
D01*
X1027976Y694581D01*
X1027974Y694583D01*
X1027973Y694581D01*
X1027976Y694554D01*
D01*
D01*
X1027976Y694554D01*
X1027959Y694547D01*
X1027958Y694580D01*
X1027957Y694584D01*
X1027956Y694583D01*
X1027956Y694580D01*
X1027959Y694547D01*
D01*
X1027959Y694547D01*
X1027958Y694546D01*
X1027956Y694583D01*
X1027950Y694581D01*
X1027950Y694583D01*
X1027944Y694585D01*
X1027944D01*
X1027942Y694584D01*
X1027943Y694579D01*
X1027958Y694546D01*
X1027945Y694541D01*
X1027944Y694540D01*
X1027932Y694558D01*
X1027928Y694533D01*
D01*
Y694538D01*
X1027920Y694541D01*
X1027918Y694542D01*
Y694542D01*
X1027916Y694543D01*
X1027895Y694552D01*
X1027896Y694565D01*
X1027897Y694584D01*
X1027897Y694584D01*
X1027896Y694565D01*
X1027895Y694553D01*
X1027736Y694619D01*
Y694619D01*
X1027735Y694619D01*
X1027734Y694619D01*
X1027698Y694634D01*
X1027695Y694635D01*
X1027661Y694650D01*
X1027665Y694657D01*
X1027664Y694658D01*
X1027663Y694657D01*
X1027661Y694650D01*
D01*
X1027661Y694650D01*
X1027659Y694650D01*
X1027626Y694664D01*
X1027626Y694664D01*
X1027625Y694664D01*
X1027591Y694678D01*
X1027589Y694679D01*
X1027611Y694701D01*
X1027609Y694702D01*
X1027589Y694679D01*
X1027589D01*
X1027589Y694679D01*
X1027550Y694695D01*
X1027548Y694699D01*
X1027564Y694716D01*
X1027547Y694700D01*
X1027526Y694751D01*
X1027525Y694752D01*
X1027525Y694752D01*
X1027544Y694765D01*
X1027544Y694766D01*
X1027543Y694766D01*
X1027525Y694752D01*
X1027525Y694752D01*
D01*
X1027525Y694752D01*
X1027486Y694846D01*
X1027489Y694847D01*
X1027489Y694847D01*
X1027489Y694847D01*
X1027488Y694849D01*
X1027489Y694847D01*
X1027486Y694847D01*
X1027403Y695046D01*
X1027428Y695048D01*
X1027428Y695048D01*
X1027402Y695048D01*
X1027381Y695099D01*
X1027381Y695099D01*
X1027426Y695101D01*
Y702895D01*
X1027381D01*
X1027388Y702910D01*
X1027426Y702909D01*
X1027426Y702909D01*
X1027389Y702912D01*
X1027424Y702997D01*
X1027435Y702995D01*
X1027424Y702997D01*
X1027425Y702999D01*
X1027521Y703230D01*
X1027530Y703225D01*
X1027522Y703232D01*
X1027543Y703285D01*
X1027570Y703259D01*
X1027573Y703258D01*
X1027574Y703255D01*
X1027575Y703256D01*
X1027575Y703257D01*
X1027573Y703258D01*
X1027572Y703261D01*
X1027545Y703287D01*
X1027550Y703299D01*
X1027582Y703312D01*
X1027602Y703289D01*
X1027582Y703312D01*
X1027584Y703312D01*
X1027619Y703327D01*
X1027619Y703327D01*
X1027653Y703341D01*
X1027653Y703341D01*
X1027686Y703355D01*
Y703355D01*
X1027688Y703355D01*
X1027722Y703369D01*
X1027722Y703369D01*
X1027724Y703370D01*
X1027724Y703370D01*
X1027825Y703412D01*
X1027827Y703413D01*
Y703413D01*
X1027877Y703434D01*
X1027877Y703431D01*
X1027877Y703434D01*
X1027877Y703434D01*
X1027877Y703434D01*
X1027879Y703435D01*
X1027905Y703446D01*
Y703446D01*
X1027928Y703455D01*
X1039629Y703415D01*
X1039629Y703414D01*
X1039631Y703456D01*
X1039631Y703456D01*
X1039718Y703419D01*
D02*
G37*
G36*
X1031928Y745663D02*
X1031933Y745643D01*
X1031931Y745643D01*
X1031928Y745662D01*
X1031923Y745652D01*
X1031931Y745642D01*
X1031915Y745636D01*
X1031923Y745652D01*
X1031913Y745663D01*
X1031919Y745665D01*
X1031919Y745665D01*
X1031919Y745661D01*
X1031928Y745665D01*
Y745665D01*
X1031928D01*
X1031928Y745665D01*
X1031928Y745665D01*
X1031930Y745666D01*
X1031928Y745663D01*
D02*
G37*
G36*
X1032002Y730568D02*
X1031983Y730560D01*
X1032002Y730568D01*
X1032002D01*
D02*
G37*
G36*
X854685Y780587D02*
X854678Y780305D01*
X854671Y780038D01*
X854650Y779785D01*
X854629Y779553D01*
X854601Y779334D01*
X854573Y779137D01*
X854537Y778955D01*
X854502Y778786D01*
X854467Y778638D01*
X854432Y778511D01*
X854404Y778399D01*
X854376Y778307D01*
X854354Y778237D01*
X854333Y778188D01*
X854326Y778160D01*
X854319Y778146D01*
X854242Y777984D01*
X854157Y777836D01*
X854066Y777688D01*
X853967Y777561D01*
X853869Y777435D01*
X853763Y777329D01*
X853658Y777224D01*
X853559Y777132D01*
X853461Y777055D01*
X853376Y776985D01*
X853292Y776921D01*
X853222Y776872D01*
X853165Y776837D01*
X853116Y776809D01*
X853088Y776795D01*
X853081Y776788D01*
X852912Y776703D01*
X852736Y776633D01*
X852546Y776570D01*
X852363Y776513D01*
X852173Y776471D01*
X851990Y776429D01*
X851807Y776401D01*
X851631Y776373D01*
X851470Y776358D01*
X851315Y776344D01*
X851181Y776330D01*
X851062Y776323D01*
X850970Y776316D01*
X850836D01*
X850576Y776323D01*
X850337Y776337D01*
X850105Y776365D01*
X849887Y776401D01*
X849683Y776443D01*
X849500Y776485D01*
X849331Y776534D01*
X849169Y776583D01*
X849035Y776633D01*
X848909Y776682D01*
X848810Y776724D01*
X848719Y776767D01*
X848655Y776802D01*
X848606Y776830D01*
X848571Y776844D01*
X848564Y776851D01*
X848409Y776956D01*
X848261Y777069D01*
X848135Y777182D01*
X848015Y777301D01*
X847903Y777421D01*
X847804Y777533D01*
X847720Y777646D01*
X847642Y777758D01*
X847572Y777864D01*
X847516Y777955D01*
X847473Y778040D01*
X847431Y778117D01*
X847403Y778174D01*
X847382Y778223D01*
X847375Y778251D01*
X847368Y778258D01*
X847311Y778427D01*
X847255Y778610D01*
X847213Y778793D01*
X847171Y778990D01*
X847114Y779377D01*
X847093Y779567D01*
X847072Y779750D01*
X847058Y779919D01*
X847044Y780080D01*
X847037Y780221D01*
Y780348D01*
X847030Y780446D01*
Y780488D01*
Y780524D01*
Y780552D01*
Y780573D01*
Y780580D01*
Y780587D01*
Y786216D01*
X848318D01*
Y780594D01*
X848325Y780263D01*
X848346Y779961D01*
X848374Y779686D01*
X848409Y779433D01*
X848458Y779208D01*
X848508Y779004D01*
X848564Y778828D01*
X848620Y778673D01*
X848677Y778532D01*
X848733Y778420D01*
X848782Y778321D01*
X848831Y778244D01*
X848866Y778188D01*
X848895Y778146D01*
X848916Y778124D01*
X848923Y778117D01*
X849042Y778005D01*
X849183Y777906D01*
X849331Y777822D01*
X849493Y777744D01*
X849661Y777688D01*
X849830Y777632D01*
X849999Y777590D01*
X850161Y777554D01*
X850323Y777533D01*
X850471Y777512D01*
X850597Y777498D01*
X850717Y777484D01*
X850815D01*
X850886Y777477D01*
X850949D01*
X851104Y777484D01*
X851245Y777491D01*
X851385Y777505D01*
X851519Y777526D01*
X851646Y777554D01*
X851758Y777583D01*
X851864Y777611D01*
X851962Y777639D01*
X852054Y777667D01*
X852131Y777695D01*
X852194Y777723D01*
X852251Y777751D01*
X852300Y777773D01*
X852328Y777787D01*
X852349Y777801D01*
X852356D01*
X852462Y777864D01*
X852553Y777934D01*
X852645Y778005D01*
X852722Y778082D01*
X852799Y778160D01*
X852863Y778237D01*
X852975Y778385D01*
X853060Y778518D01*
X853095Y778575D01*
X853116Y778624D01*
X853137Y778666D01*
X853151Y778694D01*
X853165Y778715D01*
Y778722D01*
X853207Y778842D01*
X853243Y778976D01*
X853271Y779124D01*
X853299Y779271D01*
X853341Y779581D01*
X853355Y779736D01*
X853369Y779883D01*
X853376Y780031D01*
X853383Y780165D01*
X853390Y780284D01*
Y780390D01*
X853398Y780474D01*
Y780538D01*
Y780580D01*
Y780594D01*
Y786216D01*
X854685D01*
Y780587D01*
D02*
G37*
G36*
X1039718Y724709D02*
X1039718Y724709D01*
X1039720Y724709D01*
X1039763Y724691D01*
X1039765Y724690D01*
D01*
X1039762Y724687D01*
X1039764Y724686D01*
X1039765Y724690D01*
X1039765Y724690D01*
X1039799Y724676D01*
Y724676D01*
X1039801Y724675D01*
X1039828Y724664D01*
X1039830Y724663D01*
X1039831Y724663D01*
X1039858Y724651D01*
X1039859Y724650D01*
X1039858Y724650D01*
X1039860Y724649D01*
X1039859Y724650D01*
X1039861Y724650D01*
X1039894Y724637D01*
X1039891Y724632D01*
X1039894Y724637D01*
X1039894Y724637D01*
X1039894Y724637D01*
X1040028Y724582D01*
X1040066Y724490D01*
X1040066Y724488D01*
X1040084Y724446D01*
X1040084Y724446D01*
X1040084Y724446D01*
X1040085Y724444D01*
X1040097Y724414D01*
X1040096Y724413D01*
X1040096Y724413D01*
X1040096Y724413D01*
X1040097Y724411D01*
X1040096Y724413D01*
X1040098Y724412D01*
X1040111Y724381D01*
X1040111Y724380D01*
X1040123Y724351D01*
X1040123D01*
D01*
X1040123Y724350D01*
X1040123Y724351D01*
X1040124Y724349D01*
X1040138Y724316D01*
X1040134Y724315D01*
X1040133Y724314D01*
X1040133Y724314D01*
X1040134Y724315D01*
X1040138Y724316D01*
X1040191Y724187D01*
X1040192Y724185D01*
X1040146D01*
X1040151Y716389D01*
X1040192D01*
Y716389D01*
X1040191Y716387D01*
X1040153Y716295D01*
X1040142Y716297D01*
X1040153Y716295D01*
Y716295D01*
X1040153Y716295D01*
X1040135Y716250D01*
X1040134Y716248D01*
D01*
X1040134Y716248D01*
X1040120Y716214D01*
X1040119Y716213D01*
X1040119Y716214D01*
X1040118Y716212D01*
X1040119Y716213D01*
X1040119Y716212D01*
X1040107Y716182D01*
X1040107D01*
X1040106Y716181D01*
X1040094Y716152D01*
X1040093Y716150D01*
X1040091Y716151D01*
X1040093Y716150D01*
X1040078Y716114D01*
X1040078Y716114D01*
X1040078Y716112D01*
X1040028Y715992D01*
X1039957Y715962D01*
X1039955Y715961D01*
X1039945Y715978D01*
X1039944Y715978D01*
X1039944Y715979D01*
X1039942Y715978D01*
X1039944Y715978D01*
X1039943Y715976D01*
X1039955Y715962D01*
X1039905Y715941D01*
X1039904Y715941D01*
X1039904D01*
X1039900Y715948D01*
X1039899Y715947D01*
X1039899Y715946D01*
X1039904Y715941D01*
X1039903Y715940D01*
X1039868Y715926D01*
X1039867Y715928D01*
X1039867Y715928D01*
X1039865Y715927D01*
X1039866Y715927D01*
X1039868Y715926D01*
X1039866Y715925D01*
X1039838Y715913D01*
X1039836Y715912D01*
Y715913D01*
X1039804Y715899D01*
Y715899D01*
D01*
X1039804Y715899D01*
X1039804Y715899D01*
X1039769Y715885D01*
X1039769Y715885D01*
D01*
X1039767Y715884D01*
X1039633Y715829D01*
X1039631Y715828D01*
Y715828D01*
X1039631D01*
X1039534Y715868D01*
X1039534Y715868D01*
X1039534D01*
X1039493Y715885D01*
X1039494Y715888D01*
X1039493Y715889D01*
X1039494Y715889D01*
X1039492Y715889D01*
X1039493Y715889D01*
X1039492Y715889D01*
X1039491Y715886D01*
X1039489Y715887D01*
X1039458Y715900D01*
X1039458Y715900D01*
X1039458Y715900D01*
X1039427Y715912D01*
X1039426Y715913D01*
X1039397Y715925D01*
X1039397Y715926D01*
X1039398Y715927D01*
X1039397Y715927D01*
X1039397Y715926D01*
X1039396Y715925D01*
X1039360Y715940D01*
X1039360Y715940D01*
X1039358Y715940D01*
X1039234Y715992D01*
X1039203Y716066D01*
X1039203Y716068D01*
X1039203Y716068D01*
X1039184Y716114D01*
X1039190Y716118D01*
Y716118D01*
X1039191Y716118D01*
X1039190Y716120D01*
X1039190Y716118D01*
X1039183Y716116D01*
X1039168Y716152D01*
X1039168Y716152D01*
Y716152D01*
X1039170Y716152D01*
X1039168Y716152D01*
X1039156Y716182D01*
X1039156Y716182D01*
X1039155Y716184D01*
X1039142Y716215D01*
X1039142Y716215D01*
X1039142Y716215D01*
X1039141Y716217D01*
X1039129Y716248D01*
X1039128Y716250D01*
X1039128Y716250D01*
X1039128D01*
X1039070Y716389D01*
X1039112Y723598D01*
X1039117D01*
X1039096Y723649D01*
X1039044Y723671D01*
X1028515Y723665D01*
Y723671D01*
X1028464Y723649D01*
X1028442Y723598D01*
X1028448Y716389D01*
X1028448Y716382D01*
X1028488Y716378D01*
X1028492Y716389D01*
X1028488Y716378D01*
X1028488D01*
D01*
X1028488D01*
X1028487Y716376D01*
X1028488Y716378D01*
X1028448Y716377D01*
X1028487Y716376D01*
X1028486Y716374D01*
X1028470Y716337D01*
X1028470D01*
X1028469Y716334D01*
X1028447Y716282D01*
X1028447Y716280D01*
X1028446Y716280D01*
D01*
X1028388Y716138D01*
X1028387Y716137D01*
X1028385Y716140D01*
X1028385Y716139D01*
X1028385Y716138D01*
X1028387Y716137D01*
X1028326Y715990D01*
X1028098Y715895D01*
X1028098Y715895D01*
X1028096Y715894D01*
X1028063Y715881D01*
X1028061Y715880D01*
X1028062Y715887D01*
X1028060Y715886D01*
X1028061Y715880D01*
D01*
Y715880D01*
X1028037Y715870D01*
X1028035Y715874D01*
X1028035Y715880D01*
X1028033Y715881D01*
X1028034Y715881D01*
X1028033Y715881D01*
D01*
D01*
D01*
X1028031Y715880D01*
X1028033Y715881D01*
X1028033Y715876D01*
X1028031Y715879D01*
X1028033Y715874D01*
X1028033Y715868D01*
X1028015Y715861D01*
X1028013Y715860D01*
X1028013Y715860D01*
X1027993Y715851D01*
X1027993Y715851D01*
X1027991Y715850D01*
X1027977Y715845D01*
X1027976Y715844D01*
Y715844D01*
X1027976Y715844D01*
X1027974Y715843D01*
X1027961Y715837D01*
X1027959Y715837D01*
Y715837D01*
Y715870D01*
X1027957Y715874D01*
X1027959Y715875D01*
X1027950Y715872D01*
X1027950Y715872D01*
X1027944Y715875D01*
X1027944D01*
X1027942Y715874D01*
X1027943Y715869D01*
X1027950Y715872D01*
X1027950Y715871D01*
X1027957Y715874D01*
X1027959Y715837D01*
Y715837D01*
D01*
X1027959Y715836D01*
X1027945Y715831D01*
X1027944Y715830D01*
X1027932Y715847D01*
X1027928Y715823D01*
D01*
Y715828D01*
X1027920Y715831D01*
X1027918Y715832D01*
Y715832D01*
X1027916Y715833D01*
X1027895Y715842D01*
X1027896Y715855D01*
X1027895Y715843D01*
X1027736Y715909D01*
Y715909D01*
X1027735Y715909D01*
X1027734Y715909D01*
X1027697Y715925D01*
X1027695Y715925D01*
Y715925D01*
X1027662Y715939D01*
X1027661Y715940D01*
X1027666Y715945D01*
X1027666Y715946D01*
X1027667Y715946D01*
X1027665Y715947D01*
X1027666Y715946D01*
X1027665Y715946D01*
X1027661Y715939D01*
X1027626Y715954D01*
X1027636Y715966D01*
X1027626Y715954D01*
D01*
X1027626Y715954D01*
X1027625Y715954D01*
X1027589Y715969D01*
X1027607Y715989D01*
X1027589Y715969D01*
X1027589D01*
X1027589Y715968D01*
X1027587Y715969D01*
X1027550Y715985D01*
X1027549Y715987D01*
X1027578Y716017D01*
X1027582Y716019D01*
X1027581Y716021D01*
X1027578Y716017D01*
X1027577Y716017D01*
X1027548Y715988D01*
X1027526Y716040D01*
X1027525Y716042D01*
X1027543Y716056D01*
X1027525Y716042D01*
D01*
X1027525Y716042D01*
X1027486Y716137D01*
X1027487Y716139D01*
X1027485Y716139D01*
X1027403Y716336D01*
X1027428Y716338D01*
X1027428Y716338D01*
X1027402Y716338D01*
X1027381Y716389D01*
X1027381Y716389D01*
X1027426D01*
Y724185D01*
X1027381D01*
X1027388Y724200D01*
X1027426Y724199D01*
X1027426Y724199D01*
X1027389Y724202D01*
X1027424Y724287D01*
X1027435Y724285D01*
X1027424Y724287D01*
X1027425Y724289D01*
X1027521Y724520D01*
X1027521Y724520D01*
X1027522Y724523D01*
X1027543Y724574D01*
X1027570Y724549D01*
X1027573Y724548D01*
X1027572Y724550D01*
X1027545Y724576D01*
X1027550Y724588D01*
X1027582Y724602D01*
X1027602Y724579D01*
X1027582Y724602D01*
X1027584Y724602D01*
X1027619Y724617D01*
X1027619Y724617D01*
X1027653Y724631D01*
X1027653Y724631D01*
X1027653D01*
X1027658Y724623D01*
X1027653Y724631D01*
X1027655Y724631D01*
X1027685Y724644D01*
X1027687Y724642D01*
X1027686Y724644D01*
X1027724Y724660D01*
X1027724Y724660D01*
X1027724Y724660D01*
X1027725Y724661D01*
X1027825Y724702D01*
X1027827Y724703D01*
Y724703D01*
X1027877Y724724D01*
X1027877Y724724D01*
X1027877Y724724D01*
X1027905Y724735D01*
X1027904Y724704D01*
X1027906Y724701D01*
X1027907Y724702D01*
X1027905Y724736D01*
X1027907Y724736D01*
X1027926Y724744D01*
X1027928Y724699D01*
X1027926D01*
X1027928Y724699D01*
X1027928Y724699D01*
X1039631Y724704D01*
Y724745D01*
X1039718Y724709D01*
D02*
G37*
G36*
X863571Y783676D02*
X863824Y783648D01*
X864064Y783598D01*
X864296Y783535D01*
X864507Y783465D01*
X864697Y783380D01*
X864880Y783289D01*
X865042Y783197D01*
X865190Y783106D01*
X865316Y783014D01*
X865422Y782937D01*
X865513Y782859D01*
X865591Y782796D01*
X865640Y782747D01*
X865668Y782719D01*
X865682Y782705D01*
X865844Y782515D01*
X865984Y782304D01*
X866104Y782085D01*
X866210Y781860D01*
X866301Y781628D01*
X866372Y781396D01*
X866435Y781171D01*
X866484Y780960D01*
X866519Y780749D01*
X866547Y780559D01*
X866569Y780390D01*
X866583Y780242D01*
X866590Y780172D01*
Y780116D01*
Y780066D01*
X866597Y780024D01*
Y779989D01*
Y779968D01*
Y779954D01*
Y779947D01*
X866590Y779630D01*
X866554Y779334D01*
X866512Y779060D01*
X866456Y778800D01*
X866386Y778561D01*
X866308Y778343D01*
X866231Y778146D01*
X866146Y777963D01*
X866062Y777801D01*
X865977Y777667D01*
X865907Y777547D01*
X865837Y777449D01*
X865780Y777372D01*
X865731Y777315D01*
X865703Y777287D01*
X865696Y777273D01*
X865520Y777104D01*
X865330Y776956D01*
X865133Y776830D01*
X864929Y776724D01*
X864725Y776633D01*
X864521Y776555D01*
X864317Y776492D01*
X864127Y776443D01*
X863944Y776401D01*
X863775Y776373D01*
X863627Y776351D01*
X863494Y776337D01*
X863388Y776330D01*
X863346D01*
X863311Y776323D01*
X863241D01*
X863015Y776330D01*
X862797Y776351D01*
X862593Y776379D01*
X862403Y776415D01*
X862227Y776464D01*
X862059Y776513D01*
X861911Y776570D01*
X861770Y776626D01*
X861643Y776675D01*
X861538Y776731D01*
X861439Y776780D01*
X861362Y776830D01*
X861299Y776865D01*
X861256Y776893D01*
X861228Y776914D01*
X861221Y776921D01*
X861081Y777041D01*
X860947Y777168D01*
X860827Y777301D01*
X860722Y777435D01*
X860623Y777576D01*
X860532Y777716D01*
X860454Y777857D01*
X860384Y777984D01*
X860321Y778110D01*
X860272Y778230D01*
X860229Y778335D01*
X860194Y778427D01*
X860173Y778497D01*
X860152Y778554D01*
X860138Y778589D01*
Y778603D01*
X861369Y778765D01*
X861425Y778624D01*
X861482Y778497D01*
X861538Y778378D01*
X861601Y778265D01*
X861665Y778167D01*
X861721Y778075D01*
X861784Y777998D01*
X861840Y777920D01*
X861897Y777857D01*
X861946Y777801D01*
X861988Y777758D01*
X862030Y777716D01*
X862066Y777688D01*
X862087Y777667D01*
X862101Y777660D01*
X862108Y777653D01*
X862199Y777590D01*
X862291Y777540D01*
X862382Y777491D01*
X862481Y777456D01*
X862671Y777393D01*
X862847Y777350D01*
X862924Y777336D01*
X863001Y777329D01*
X863065Y777322D01*
X863121Y777315D01*
X863170Y777308D01*
X863233D01*
X863395Y777315D01*
X863550Y777336D01*
X863698Y777365D01*
X863839Y777407D01*
X863972Y777449D01*
X864092Y777505D01*
X864204Y777554D01*
X864303Y777618D01*
X864394Y777674D01*
X864479Y777730D01*
X864549Y777780D01*
X864605Y777822D01*
X864648Y777864D01*
X864683Y777892D01*
X864704Y777913D01*
X864711Y777920D01*
X864817Y778040D01*
X864908Y778174D01*
X864993Y778314D01*
X865063Y778462D01*
X865126Y778610D01*
X865175Y778758D01*
X865225Y778898D01*
X865260Y779046D01*
X865288Y779180D01*
X865316Y779299D01*
X865330Y779412D01*
X865344Y779510D01*
X865358Y779588D01*
Y779651D01*
X865365Y779686D01*
Y779700D01*
X860103D01*
Y779778D01*
X860096Y779841D01*
Y779890D01*
Y779940D01*
Y779975D01*
Y779996D01*
Y780010D01*
Y780017D01*
X860103Y780334D01*
X860131Y780636D01*
X860180Y780918D01*
X860236Y781178D01*
X860307Y781417D01*
X860377Y781642D01*
X860461Y781846D01*
X860546Y782029D01*
X860630Y782191D01*
X860708Y782332D01*
X860785Y782451D01*
X860855Y782550D01*
X860912Y782627D01*
X860954Y782684D01*
X860989Y782712D01*
X860996Y782726D01*
X861172Y782895D01*
X861355Y783042D01*
X861538Y783176D01*
X861735Y783282D01*
X861925Y783380D01*
X862122Y783457D01*
X862305Y783521D01*
X862488Y783570D01*
X862657Y783612D01*
X862811Y783640D01*
X862945Y783662D01*
X863072Y783676D01*
X863170Y783683D01*
X863241Y783690D01*
X863304D01*
X863571Y783676D01*
D02*
G37*
G36*
X1034318Y756461D02*
X1034317Y756461D01*
X1034318Y756461D01*
X1034317Y756461D01*
D01*
X1034310Y756470D01*
X1034318Y756461D01*
D02*
G37*
G36*
X913638Y785069D02*
X910430D01*
Y776478D01*
X909142D01*
Y785069D01*
X905920D01*
Y786216D01*
X913638D01*
Y785069D01*
D02*
G37*
G36*
X904752Y776478D02*
X903556D01*
Y780334D01*
Y780488D01*
X903549Y780629D01*
X903535Y780763D01*
X903528Y780889D01*
X903506Y781002D01*
X903492Y781108D01*
X903478Y781206D01*
X903457Y781298D01*
X903436Y781375D01*
X903422Y781445D01*
X903401Y781502D01*
X903387Y781551D01*
X903380Y781586D01*
X903366Y781614D01*
X903359Y781628D01*
Y781635D01*
X903274Y781804D01*
X903169Y781952D01*
X903063Y782078D01*
X902951Y782184D01*
X902852Y782269D01*
X902775Y782332D01*
X902739Y782353D01*
X902718Y782367D01*
X902704Y782381D01*
X902697D01*
X902521Y782473D01*
X902338Y782543D01*
X902170Y782592D01*
X902015Y782627D01*
X901945Y782641D01*
X901888Y782648D01*
X901832Y782655D01*
X901783D01*
X901740Y782663D01*
X901691D01*
X901565Y782655D01*
X901438Y782641D01*
X901325Y782627D01*
X901220Y782599D01*
X901121Y782564D01*
X901030Y782529D01*
X900953Y782494D01*
X900875Y782458D01*
X900812Y782416D01*
X900755Y782381D01*
X900706Y782346D01*
X900664Y782311D01*
X900636Y782282D01*
X900615Y782269D01*
X900601Y782254D01*
X900594Y782247D01*
X900523Y782163D01*
X900460Y782072D01*
X900411Y781973D01*
X900368Y781874D01*
X900298Y781656D01*
X900249Y781445D01*
X900235Y781347D01*
X900221Y781248D01*
X900214Y781164D01*
X900207Y781094D01*
X900200Y781030D01*
Y780988D01*
Y780953D01*
Y780946D01*
Y776478D01*
X899004D01*
Y780946D01*
Y781136D01*
X899018Y781312D01*
X899025Y781473D01*
X899046Y781628D01*
X899060Y781769D01*
X899081Y781903D01*
X899109Y782015D01*
X899130Y782121D01*
X899151Y782212D01*
X899179Y782297D01*
X899201Y782367D01*
X899215Y782423D01*
X899236Y782466D01*
X899243Y782494D01*
X899257Y782515D01*
Y782522D01*
X899306Y782620D01*
X899362Y782719D01*
X899489Y782888D01*
X899630Y783035D01*
X899763Y783155D01*
X899890Y783253D01*
X899946Y783289D01*
X899988Y783324D01*
X900031Y783345D01*
X900059Y783366D01*
X900080Y783380D01*
X900087D01*
X900200Y783436D01*
X900312Y783486D01*
X900544Y783556D01*
X900770Y783612D01*
X900981Y783654D01*
X901079Y783662D01*
X901171Y783676D01*
X901248Y783683D01*
X901311D01*
X901368Y783690D01*
X901445D01*
X901677Y783676D01*
X901902Y783648D01*
X902113Y783598D01*
X902310Y783535D01*
X902500Y783465D01*
X902669Y783380D01*
X902831Y783296D01*
X902979Y783204D01*
X903105Y783113D01*
X903225Y783028D01*
X903324Y782944D01*
X903408Y782874D01*
X903471Y782810D01*
X903521Y782761D01*
X903549Y782733D01*
X903556Y782719D01*
Y786216D01*
X904752D01*
Y776478D01*
D02*
G37*
G36*
X1027928Y694533D02*
X1027928D01*
X1027928D01*
D01*
D02*
G37*
G36*
D02*
D01*
X1027944Y694539D01*
X1027928Y694533D01*
D02*
G37*
G36*
X1032961Y751440D02*
X1032961Y751440D01*
X1032980Y751448D01*
X1032961Y751440D01*
D02*
G37*
G36*
X876777Y784844D02*
X875581D01*
Y786216D01*
X876777D01*
Y784844D01*
D02*
G37*
G36*
X897181D02*
X895985D01*
Y786216D01*
X897181D01*
Y784844D01*
D02*
G37*
G36*
X869284Y782712D02*
X869411Y782867D01*
X869545Y783007D01*
X869678Y783127D01*
X869812Y783225D01*
X869925Y783310D01*
X869974Y783338D01*
X870016Y783366D01*
X870051Y783387D01*
X870079Y783401D01*
X870093Y783415D01*
X870100D01*
X870290Y783507D01*
X870487Y783577D01*
X870677Y783626D01*
X870853Y783654D01*
X870931Y783669D01*
X871001Y783676D01*
X871071Y783683D01*
X871128D01*
X871170Y783690D01*
X871233D01*
X871395Y783683D01*
X871550Y783669D01*
X871698Y783648D01*
X871845Y783619D01*
X871979Y783584D01*
X872113Y783542D01*
X872232Y783500D01*
X872345Y783457D01*
X872443Y783415D01*
X872535Y783373D01*
X872612Y783331D01*
X872676Y783296D01*
X872732Y783268D01*
X872767Y783246D01*
X872795Y783232D01*
X872802Y783225D01*
X872929Y783134D01*
X873048Y783035D01*
X873161Y782937D01*
X873267Y782824D01*
X873358Y782719D01*
X873443Y782606D01*
X873527Y782501D01*
X873590Y782395D01*
X873653Y782297D01*
X873710Y782205D01*
X873752Y782121D01*
X873794Y782050D01*
X873822Y781994D01*
X873844Y781945D01*
X873851Y781917D01*
X873858Y781910D01*
X873921Y781748D01*
X873970Y781579D01*
X874019Y781417D01*
X874055Y781248D01*
X874118Y780925D01*
X874139Y780777D01*
X874160Y780629D01*
X874174Y780495D01*
X874181Y780376D01*
X874188Y780270D01*
X874195Y780172D01*
X874202Y780101D01*
Y780045D01*
Y780010D01*
Y779996D01*
X874195Y779799D01*
X874188Y779602D01*
X874167Y779419D01*
X874139Y779243D01*
X874111Y779074D01*
X874083Y778912D01*
X874048Y778765D01*
X874005Y778631D01*
X873970Y778511D01*
X873935Y778399D01*
X873907Y778307D01*
X873879Y778230D01*
X873851Y778167D01*
X873829Y778117D01*
X873822Y778089D01*
X873815Y778082D01*
X873738Y777934D01*
X873661Y777787D01*
X873569Y777653D01*
X873485Y777533D01*
X873393Y777414D01*
X873302Y777308D01*
X873210Y777210D01*
X873126Y777125D01*
X873041Y777048D01*
X872971Y776977D01*
X872901Y776921D01*
X872837Y776872D01*
X872795Y776837D01*
X872753Y776809D01*
X872732Y776795D01*
X872725Y776788D01*
X872591Y776703D01*
X872458Y776633D01*
X872317Y776570D01*
X872183Y776520D01*
X872049Y776471D01*
X871923Y776436D01*
X871803Y776408D01*
X871684Y776379D01*
X871578Y776365D01*
X871479Y776351D01*
X871395Y776337D01*
X871318Y776330D01*
X871261Y776323D01*
X871177D01*
X870938Y776337D01*
X870720Y776365D01*
X870508Y776422D01*
X870319Y776485D01*
X870143Y776570D01*
X869981Y776654D01*
X869833Y776752D01*
X869699Y776851D01*
X869587Y776942D01*
X869481Y777041D01*
X869397Y777125D01*
X869326Y777210D01*
X869270Y777273D01*
X869228Y777329D01*
X869207Y777357D01*
X869200Y777372D01*
Y776478D01*
X868088D01*
Y786216D01*
X869284D01*
Y782712D01*
D02*
G37*
G36*
X881477Y783683D02*
X881667Y783669D01*
X881843Y783640D01*
X881998Y783619D01*
X882061Y783605D01*
X882125Y783591D01*
X882181Y783577D01*
X882223Y783563D01*
X882258Y783556D01*
X882287Y783549D01*
X882300Y783542D01*
X882308D01*
X882476Y783486D01*
X882631Y783429D01*
X882758Y783373D01*
X882863Y783317D01*
X882955Y783268D01*
X883018Y783232D01*
X883053Y783204D01*
X883067Y783197D01*
X883201Y783092D01*
X883314Y782979D01*
X883419Y782867D01*
X883504Y782761D01*
X883567Y782670D01*
X883616Y782599D01*
X883637Y782571D01*
X883651Y782550D01*
X883659Y782536D01*
Y782529D01*
X883729Y782374D01*
X883778Y782226D01*
X883820Y782078D01*
X883841Y781945D01*
X883856Y781825D01*
X883863Y781776D01*
Y781734D01*
X883869Y781706D01*
Y781677D01*
Y781663D01*
Y781656D01*
X883856Y781466D01*
X883827Y781291D01*
X883785Y781129D01*
X883736Y780988D01*
X883715Y780925D01*
X883694Y780868D01*
X883672Y780819D01*
X883651Y780784D01*
X883630Y780749D01*
X883623Y780728D01*
X883609Y780714D01*
Y780706D01*
X883504Y780552D01*
X883377Y780418D01*
X883250Y780305D01*
X883131Y780214D01*
X883018Y780137D01*
X882969Y780108D01*
X882927Y780080D01*
X882892Y780066D01*
X882863Y780052D01*
X882849Y780038D01*
X882842D01*
X882737Y779996D01*
X882617Y779947D01*
X882484Y779897D01*
X882343Y779848D01*
X882040Y779750D01*
X881738Y779658D01*
X881590Y779616D01*
X881456Y779581D01*
X881337Y779546D01*
X881224Y779518D01*
X881140Y779496D01*
X881069Y779475D01*
X881027Y779468D01*
X881020Y779461D01*
X881013D01*
X880837Y779419D01*
X880675Y779377D01*
X880535Y779334D01*
X880408Y779299D01*
X880295Y779264D01*
X880190Y779229D01*
X880105Y779201D01*
X880028Y779173D01*
X879972Y779145D01*
X879915Y779124D01*
X879873Y779102D01*
X879838Y779088D01*
X879817Y779074D01*
X879803Y779067D01*
X879789Y779060D01*
X879725Y779018D01*
X879669Y778969D01*
X879620Y778912D01*
X879578Y778863D01*
X879514Y778758D01*
X879472Y778659D01*
X879451Y778568D01*
X879437Y778490D01*
X879430Y778469D01*
Y778448D01*
Y778434D01*
Y778427D01*
X879437Y778343D01*
X879444Y778265D01*
X879465Y778188D01*
X879493Y778117D01*
X879557Y777977D01*
X879627Y777864D01*
X879704Y777773D01*
X879768Y777702D01*
X879796Y777674D01*
X879817Y777653D01*
X879824Y777646D01*
X879831Y777639D01*
X879908Y777583D01*
X880000Y777533D01*
X880190Y777449D01*
X880394Y777393D01*
X880591Y777350D01*
X880689Y777336D01*
X880774Y777329D01*
X880851Y777315D01*
X880921D01*
X880978Y777308D01*
X881055D01*
X881203Y777315D01*
X881344Y777322D01*
X881477Y777343D01*
X881604Y777365D01*
X881717Y777393D01*
X881822Y777428D01*
X881921Y777463D01*
X882005Y777498D01*
X882082Y777526D01*
X882146Y777561D01*
X882202Y777597D01*
X882251Y777625D01*
X882287Y777646D01*
X882315Y777667D01*
X882329Y777674D01*
X882336Y777681D01*
X882413Y777758D01*
X882490Y777836D01*
X882554Y777920D01*
X882610Y778012D01*
X882709Y778195D01*
X882779Y778371D01*
X882807Y778448D01*
X882828Y778525D01*
X882849Y778596D01*
X882863Y778652D01*
X882870Y778701D01*
X882878Y778744D01*
X882885Y778765D01*
Y778772D01*
X884066Y778589D01*
X884024Y778385D01*
X883968Y778195D01*
X883912Y778012D01*
X883841Y777850D01*
X883764Y777695D01*
X883694Y777554D01*
X883609Y777435D01*
X883532Y777322D01*
X883462Y777217D01*
X883391Y777132D01*
X883321Y777062D01*
X883264Y776999D01*
X883222Y776956D01*
X883180Y776921D01*
X883159Y776900D01*
X883152Y776893D01*
X883011Y776795D01*
X882856Y776703D01*
X882688Y776626D01*
X882519Y776562D01*
X882343Y776506D01*
X882167Y776464D01*
X881998Y776422D01*
X881829Y776394D01*
X881667Y776373D01*
X881520Y776351D01*
X881393Y776344D01*
X881273Y776330D01*
X881182D01*
X881112Y776323D01*
X881048D01*
X880746Y776337D01*
X880464Y776365D01*
X880338Y776394D01*
X880211Y776415D01*
X880098Y776443D01*
X879993Y776471D01*
X879901Y776492D01*
X879817Y776520D01*
X879740Y776548D01*
X879676Y776570D01*
X879627Y776583D01*
X879592Y776598D01*
X879571Y776612D01*
X879564D01*
X879444Y776668D01*
X879331Y776731D01*
X879226Y776795D01*
X879127Y776858D01*
X879036Y776928D01*
X878951Y776999D01*
X878874Y777062D01*
X878811Y777125D01*
X878747Y777189D01*
X878698Y777245D01*
X878649Y777294D01*
X878614Y777343D01*
X878586Y777379D01*
X878565Y777407D01*
X878558Y777421D01*
X878550Y777428D01*
X878487Y777526D01*
X878431Y777625D01*
X878389Y777730D01*
X878346Y777829D01*
X878283Y778019D01*
X878241Y778188D01*
X878227Y778265D01*
X878220Y778335D01*
X878206Y778399D01*
Y778455D01*
X878199Y778497D01*
Y778525D01*
Y778547D01*
Y778554D01*
X878213Y778772D01*
X878241Y778969D01*
X878290Y779137D01*
X878318Y779215D01*
X878339Y779285D01*
X878367Y779349D01*
X878396Y779405D01*
X878417Y779454D01*
X878445Y779496D01*
X878459Y779525D01*
X878473Y779546D01*
X878487Y779560D01*
Y779567D01*
X878607Y779715D01*
X878733Y779841D01*
X878860Y779947D01*
X878987Y780038D01*
X879099Y780108D01*
X879148Y780137D01*
X879191Y780158D01*
X879226Y780179D01*
X879254Y780193D01*
X879268Y780200D01*
X879275D01*
X879381Y780242D01*
X879493Y780284D01*
X879627Y780334D01*
X879761Y780376D01*
X880056Y780474D01*
X880352Y780559D01*
X880485Y780601D01*
X880619Y780636D01*
X880739Y780671D01*
X880844Y780699D01*
X880929Y780721D01*
X880992Y780742D01*
X881034Y780749D01*
X881041Y780756D01*
X881048D01*
X881203Y780798D01*
X881351Y780840D01*
X881477Y780875D01*
X881590Y780903D01*
X881688Y780932D01*
X881773Y780960D01*
X881850Y780981D01*
X881914Y780995D01*
X881963Y781016D01*
X882005Y781023D01*
X882040Y781037D01*
X882068Y781044D01*
X882089Y781051D01*
X882104Y781058D01*
X882111D01*
X882223Y781108D01*
X882315Y781164D01*
X882399Y781213D01*
X882462Y781262D01*
X882512Y781312D01*
X882547Y781347D01*
X882568Y781368D01*
X882575Y781375D01*
X882624Y781445D01*
X882659Y781523D01*
X882681Y781593D01*
X882695Y781656D01*
X882709Y781713D01*
X882716Y781755D01*
Y781790D01*
Y781797D01*
X882709Y781860D01*
X882702Y781931D01*
X882659Y782050D01*
X882603Y782156D01*
X882540Y782247D01*
X882476Y782325D01*
X882420Y782381D01*
X882378Y782416D01*
X882371Y782430D01*
X882364D01*
X882293Y782479D01*
X882209Y782522D01*
X882125Y782557D01*
X882033Y782592D01*
X881836Y782641D01*
X881639Y782670D01*
X881548Y782684D01*
X881463Y782691D01*
X881386Y782698D01*
X881316D01*
X881259Y782705D01*
X881055D01*
X880936Y782691D01*
X880823Y782676D01*
X880717Y782655D01*
X880626Y782634D01*
X880535Y782606D01*
X880457Y782578D01*
X880380Y782550D01*
X880316Y782522D01*
X880260Y782494D01*
X880218Y782466D01*
X880176Y782444D01*
X880148Y782423D01*
X880119Y782409D01*
X880112Y782402D01*
X880105Y782395D01*
X880035Y782339D01*
X879972Y782275D01*
X879866Y782135D01*
X879789Y781994D01*
X879725Y781860D01*
X879683Y781741D01*
X879662Y781684D01*
X879655Y781642D01*
X879641Y781600D01*
Y781572D01*
X879634Y781558D01*
Y781551D01*
X878466Y781713D01*
X878515Y781959D01*
X878550Y782064D01*
X878586Y782170D01*
X878614Y782269D01*
X878649Y782360D01*
X878684Y782437D01*
X878719Y782515D01*
X878755Y782578D01*
X878783Y782641D01*
X878811Y782691D01*
X878839Y782726D01*
X878860Y782761D01*
X878874Y782782D01*
X878881Y782796D01*
X878888Y782803D01*
X878944Y782881D01*
X879015Y782951D01*
X879156Y783078D01*
X879310Y783190D01*
X879458Y783282D01*
X879599Y783352D01*
X879655Y783380D01*
X879704Y783408D01*
X879747Y783429D01*
X879782Y783436D01*
X879803Y783450D01*
X879810D01*
X880049Y783528D01*
X880302Y783591D01*
X880549Y783633D01*
X880668Y783648D01*
X880774Y783662D01*
X880879Y783669D01*
X880978Y783676D01*
X881062Y783683D01*
X881133Y783690D01*
X881273D01*
X881477Y783683D01*
D02*
G37*
G36*
X746252Y701993D02*
X742737D01*
Y705508D01*
X746252D01*
Y701993D01*
D02*
G37*
G36*
X677926D02*
X674411D01*
Y705508D01*
X677926D01*
Y701993D01*
D02*
G37*
G36*
X1027929Y760532D02*
X1039634Y760537D01*
X1039632Y760537D01*
X1039634Y760583D01*
X1039742Y760538D01*
X1039740Y760523D01*
X1039742Y760538D01*
X1039802Y760514D01*
X1039802Y760514D01*
X1039843Y760497D01*
X1039845Y760496D01*
X1039883Y760480D01*
X1039883Y760480D01*
X1039922Y760464D01*
X1039921Y760462D01*
X1039922Y760464D01*
X1039964Y760447D01*
X1039962Y760443D01*
X1039964Y760447D01*
X1040131Y760378D01*
X1040180Y760261D01*
X1040168Y760250D01*
X1040168Y760250D01*
X1040167Y760252D01*
X1040167Y760250D01*
X1040168Y760250D01*
Y760250D01*
X1040168Y760250D01*
X1040180Y760259D01*
X1040201Y760208D01*
X1040201Y760208D01*
X1040219Y760165D01*
X1040218Y760164D01*
X1040219Y760165D01*
X1040234Y760128D01*
X1040235Y760127D01*
X1040234Y760128D01*
X1040235Y760127D01*
X1040251Y760088D01*
X1040269Y760044D01*
X1040264Y760042D01*
X1040265Y760041D01*
X1040265Y760042D01*
X1040270Y760042D01*
X1040338Y759878D01*
X1040338Y759878D01*
X1040290Y759762D01*
X1040276Y759764D01*
X1040290Y759762D01*
X1040267Y759706D01*
X1040267Y759706D01*
X1040249Y759664D01*
X1040250D01*
X1040234Y759625D01*
X1040234Y759625D01*
X1040218Y759586D01*
X1040200Y759544D01*
X1040197Y759544D01*
X1040199Y759542D01*
X1040131Y759378D01*
X1040021Y759332D01*
X1040010Y759347D01*
X1040021Y759332D01*
X1039967Y759310D01*
X1039963Y759316D01*
X1039967Y759310D01*
X1039924Y759292D01*
X1039924Y759292D01*
X1039884Y759276D01*
X1039884Y759276D01*
X1039845Y759259D01*
X1039845Y759260D01*
X1039845Y759259D01*
X1039802Y759242D01*
X1039802Y759242D01*
X1039632Y759171D01*
Y759223D01*
X1028583D01*
Y752735D01*
X1032414D01*
X1034172Y756270D01*
X1034173Y756269D01*
X1034173Y756270D01*
X1034173Y756270D01*
X1034172Y756268D01*
X1034172Y756269D01*
X1034173Y756271D01*
X1034173Y756270D01*
X1034172Y756270D01*
X1034171Y756272D01*
X1034253Y756470D01*
X1034294Y756488D01*
X1034320Y756458D01*
X1034318Y756461D01*
X1034320Y756458D01*
X1034318Y756461D01*
D01*
X1034309Y756471D01*
X1034294Y756488D01*
X1034650Y756636D01*
X1034650Y756635D01*
D01*
X1034653Y756620D01*
X1034650Y756635D01*
X1034712Y756661D01*
X1034712Y756661D01*
D01*
X1034714Y756628D01*
X1034712Y756661D01*
X1034766Y756683D01*
Y756683D01*
X1034772Y756685D01*
X1034818Y756666D01*
X1034816Y756629D01*
X1034818Y756665D01*
X1034871Y756644D01*
X1034871Y756643D01*
X1035050Y756569D01*
X1035050Y756569D01*
X1035054Y756570D01*
X1035252Y756488D01*
X1035271Y756442D01*
X1035242Y756417D01*
X1035271Y756443D01*
X1035415Y756096D01*
X1035400Y756094D01*
X1035414Y756096D01*
X1035440Y756034D01*
X1035440Y756034D01*
X1035440Y756034D01*
X1035462Y755980D01*
X1035412Y755979D01*
X1035462Y755980D01*
X1035467Y755969D01*
X1035449Y755927D01*
X1035449Y755927D01*
D01*
X1035411Y755930D01*
X1035449Y755927D01*
X1035427Y755874D01*
X1035427Y755874D01*
X1035427Y755874D01*
X1035405Y755877D01*
X1035427Y755874D01*
X1035351Y755691D01*
X1035350Y755691D01*
Y755691D01*
Y755691D01*
X1035350Y755691D01*
X1035350Y755690D01*
X1035350Y755691D01*
D01*
X1035349Y755689D01*
X1035350Y755690D01*
X1035349Y755689D01*
X1033387Y751782D01*
X1033388Y751784D01*
X1033387Y751782D01*
X1033387Y751781D01*
X1033388Y751783D01*
X1033384Y751773D01*
X1033387Y751781D01*
X1033382Y751773D01*
X1033383Y751763D01*
X1033384Y751765D01*
X1033376Y751747D01*
X1033383Y751763D01*
X1033369Y751751D01*
X1033369Y751727D01*
X1033377Y751747D01*
X1033369Y751727D01*
X1033369Y751727D01*
X1033360Y751706D01*
X1033369Y751727D01*
X1033349Y751680D01*
X1033360Y751705D01*
X1033349Y751680D01*
X1033349Y751680D01*
X1033336Y751647D01*
X1033349Y751680D01*
X1033313Y751667D01*
X1033310Y751669D01*
X1033336Y751647D01*
X1033310Y751585D01*
X1033227Y751550D01*
X1033210Y751572D01*
X1033227Y751550D01*
X1033176Y751529D01*
X1033176Y751529D01*
X1033143Y751516D01*
X1033117Y751505D01*
X1033143Y751516D01*
X1033094Y751495D01*
X1033073Y751487D01*
X1033073Y751487D01*
X1033053Y751479D01*
X1033073Y751487D01*
X1033040Y751473D01*
X1033034Y751470D01*
X1033034Y751470D01*
X1033016Y751463D01*
X1033034Y751470D01*
X1033015Y751464D01*
X1032998Y751456D01*
X1033016Y751463D01*
X1032998Y751456D01*
X1032998Y751456D01*
X1032980Y751448D01*
X1032998Y751456D01*
X1032979Y751452D01*
X1032961Y751440D01*
X1032942Y751432D01*
X1032961Y751440D01*
X1032940Y751442D01*
X1032933Y751435D01*
X1032942Y751432D01*
X1032922Y751424D01*
X1032933Y751435D01*
X1032919Y751438D01*
X1032911Y751429D01*
X1032922Y751424D01*
X1032900Y751415D01*
X1032911Y751429D01*
X1032897Y751434D01*
X1032878Y751406D01*
X1032900Y751415D01*
X1032876Y751405D01*
X1032878Y751406D01*
X1032873Y751431D01*
X1032876Y751406D01*
X1032847Y751394D01*
X1032847Y751394D01*
X1032808Y751378D01*
Y751427D01*
X1027927Y751380D01*
X1027922Y751402D01*
X1027927Y751422D01*
X1027923Y751424D01*
X1027923Y751424D01*
X1027918Y751422D01*
X1027917Y751423D01*
X1027922Y751402D01*
X1027916Y751381D01*
X1027886Y751393D01*
X1027886Y751394D01*
X1027683Y751478D01*
X1027683Y751478D01*
X1027683Y751478D01*
X1027632Y751499D01*
X1027633Y751502D01*
X1027631Y751502D01*
X1027633Y751502D01*
X1027630Y751500D01*
X1027587Y751517D01*
X1027587Y751517D01*
X1027544Y751535D01*
X1027556Y751551D01*
X1027544Y751535D01*
X1027497Y751554D01*
X1027497Y751554D01*
X1027447Y751575D01*
X1027445Y751579D01*
X1027445Y751579D01*
X1027417Y751647D01*
X1027434Y751661D01*
X1027417Y751647D01*
X1027367Y751767D01*
X1027370Y751768D01*
X1027367Y751767D01*
X1027263Y752018D01*
X1027263Y752018D01*
X1027236Y752082D01*
X1027291Y752082D01*
X1027245Y759899D01*
X1027245Y759899D01*
X1027290Y760006D01*
X1027290Y760006D01*
X1027411Y760298D01*
X1027425Y760288D01*
X1027428Y760285D01*
D01*
X1027430Y760284D01*
X1027428Y760285D01*
Y760285D01*
X1027425Y760288D01*
X1027411Y760298D01*
X1027440Y760369D01*
X1027441Y760369D01*
X1027447Y760385D01*
X1027488Y760401D01*
X1027513Y760373D01*
X1027488Y760401D01*
X1027535Y760421D01*
X1027549Y760403D01*
X1027535Y760420D01*
X1027578Y760438D01*
X1027584Y760428D01*
X1027578Y760438D01*
X1027620Y760456D01*
X1027623Y760451D01*
X1027620Y760455D01*
X1027668Y760475D01*
X1027668Y760475D01*
X1027800Y760530D01*
Y760530D01*
X1027862Y760556D01*
X1027864Y760531D01*
X1027864Y760531D01*
X1027864Y760543D01*
X1027862Y760556D01*
X1027864Y760556D01*
Y760557D01*
X1027899Y760571D01*
X1027899Y760572D01*
X1027929Y760584D01*
X1027929Y760532D01*
D02*
G37*
G36*
X892059Y783683D02*
X892249Y783669D01*
X892425Y783640D01*
X892580Y783619D01*
X892643Y783605D01*
X892707Y783591D01*
X892763Y783577D01*
X892805Y783563D01*
X892840Y783556D01*
X892868Y783549D01*
X892882Y783542D01*
X892889D01*
X893058Y783486D01*
X893213Y783429D01*
X893340Y783373D01*
X893445Y783317D01*
X893537Y783268D01*
X893600Y783232D01*
X893635Y783204D01*
X893649Y783197D01*
X893783Y783092D01*
X893895Y782979D01*
X894001Y782867D01*
X894085Y782761D01*
X894149Y782670D01*
X894198Y782599D01*
X894219Y782571D01*
X894233Y782550D01*
X894240Y782536D01*
Y782529D01*
X894311Y782374D01*
X894360Y782226D01*
X894402Y782078D01*
X894423Y781945D01*
X894437Y781825D01*
X894444Y781776D01*
Y781734D01*
X894451Y781706D01*
Y781677D01*
Y781663D01*
Y781656D01*
X894437Y781466D01*
X894409Y781291D01*
X894367Y781129D01*
X894318Y780988D01*
X894297Y780925D01*
X894276Y780868D01*
X894254Y780819D01*
X894233Y780784D01*
X894212Y780749D01*
X894205Y780728D01*
X894191Y780714D01*
Y780706D01*
X894085Y780552D01*
X893959Y780418D01*
X893832Y780305D01*
X893713Y780214D01*
X893600Y780137D01*
X893551Y780108D01*
X893509Y780080D01*
X893473Y780066D01*
X893445Y780052D01*
X893431Y780038D01*
X893424D01*
X893319Y779996D01*
X893199Y779947D01*
X893065Y779897D01*
X892925Y779848D01*
X892622Y779750D01*
X892319Y779658D01*
X892172Y779616D01*
X892038Y779581D01*
X891918Y779546D01*
X891806Y779518D01*
X891721Y779496D01*
X891651Y779475D01*
X891609Y779468D01*
X891602Y779461D01*
X891595D01*
X891419Y779419D01*
X891257Y779377D01*
X891116Y779334D01*
X890990Y779299D01*
X890877Y779264D01*
X890772Y779229D01*
X890687Y779201D01*
X890610Y779173D01*
X890554Y779145D01*
X890497Y779124D01*
X890455Y779102D01*
X890420Y779088D01*
X890399Y779074D01*
X890385Y779067D01*
X890371Y779060D01*
X890307Y779018D01*
X890251Y778969D01*
X890202Y778912D01*
X890160Y778863D01*
X890096Y778758D01*
X890054Y778659D01*
X890033Y778568D01*
X890019Y778490D01*
X890012Y778469D01*
Y778448D01*
Y778434D01*
Y778427D01*
X890019Y778343D01*
X890026Y778265D01*
X890047Y778188D01*
X890075Y778117D01*
X890138Y777977D01*
X890209Y777864D01*
X890286Y777773D01*
X890350Y777702D01*
X890378Y777674D01*
X890399Y777653D01*
X890406Y777646D01*
X890413Y777639D01*
X890490Y777583D01*
X890582Y777533D01*
X890772Y777449D01*
X890976Y777393D01*
X891173Y777350D01*
X891271Y777336D01*
X891356Y777329D01*
X891433Y777315D01*
X891503D01*
X891560Y777308D01*
X891637D01*
X891785Y777315D01*
X891926Y777322D01*
X892059Y777343D01*
X892186Y777365D01*
X892298Y777393D01*
X892404Y777428D01*
X892503Y777463D01*
X892587Y777498D01*
X892664Y777526D01*
X892728Y777561D01*
X892784Y777597D01*
X892833Y777625D01*
X892868Y777646D01*
X892896Y777667D01*
X892911Y777674D01*
X892918Y777681D01*
X892995Y777758D01*
X893072Y777836D01*
X893136Y777920D01*
X893192Y778012D01*
X893290Y778195D01*
X893361Y778371D01*
X893389Y778448D01*
X893410Y778525D01*
X893431Y778596D01*
X893445Y778652D01*
X893452Y778701D01*
X893459Y778744D01*
X893466Y778765D01*
Y778772D01*
X894648Y778589D01*
X894606Y778385D01*
X894550Y778195D01*
X894494Y778012D01*
X894423Y777850D01*
X894346Y777695D01*
X894276Y777554D01*
X894191Y777435D01*
X894114Y777322D01*
X894043Y777217D01*
X893973Y777132D01*
X893903Y777062D01*
X893846Y776999D01*
X893804Y776956D01*
X893762Y776921D01*
X893741Y776900D01*
X893734Y776893D01*
X893593Y776795D01*
X893438Y776703D01*
X893269Y776626D01*
X893101Y776562D01*
X892925Y776506D01*
X892749Y776464D01*
X892580Y776422D01*
X892411Y776394D01*
X892249Y776373D01*
X892101Y776351D01*
X891975Y776344D01*
X891855Y776330D01*
X891764D01*
X891693Y776323D01*
X891630D01*
X891328Y776337D01*
X891046Y776365D01*
X890919Y776394D01*
X890793Y776415D01*
X890680Y776443D01*
X890575Y776471D01*
X890483Y776492D01*
X890399Y776520D01*
X890321Y776548D01*
X890258Y776570D01*
X890209Y776583D01*
X890174Y776598D01*
X890153Y776612D01*
X890145D01*
X890026Y776668D01*
X889913Y776731D01*
X889808Y776795D01*
X889709Y776858D01*
X889618Y776928D01*
X889533Y776999D01*
X889456Y777062D01*
X889393Y777125D01*
X889329Y777189D01*
X889280Y777245D01*
X889231Y777294D01*
X889196Y777343D01*
X889167Y777379D01*
X889146Y777407D01*
X889139Y777421D01*
X889132Y777428D01*
X889069Y777526D01*
X889013Y777625D01*
X888970Y777730D01*
X888928Y777829D01*
X888865Y778019D01*
X888823Y778188D01*
X888809Y778265D01*
X888802Y778335D01*
X888788Y778399D01*
Y778455D01*
X888781Y778497D01*
Y778525D01*
Y778547D01*
Y778554D01*
X888795Y778772D01*
X888823Y778969D01*
X888872Y779137D01*
X888900Y779215D01*
X888921Y779285D01*
X888949Y779349D01*
X888978Y779405D01*
X888999Y779454D01*
X889027Y779496D01*
X889041Y779525D01*
X889055Y779546D01*
X889069Y779560D01*
Y779567D01*
X889189Y779715D01*
X889315Y779841D01*
X889442Y779947D01*
X889568Y780038D01*
X889681Y780108D01*
X889730Y780137D01*
X889773Y780158D01*
X889808Y780179D01*
X889836Y780193D01*
X889850Y780200D01*
X889857D01*
X889962Y780242D01*
X890075Y780284D01*
X890209Y780334D01*
X890342Y780376D01*
X890638Y780474D01*
X890934Y780559D01*
X891067Y780601D01*
X891201Y780636D01*
X891320Y780671D01*
X891426Y780699D01*
X891510Y780721D01*
X891574Y780742D01*
X891616Y780749D01*
X891623Y780756D01*
X891630D01*
X891785Y780798D01*
X891933Y780840D01*
X892059Y780875D01*
X892172Y780903D01*
X892270Y780932D01*
X892355Y780960D01*
X892432Y780981D01*
X892495Y780995D01*
X892545Y781016D01*
X892587Y781023D01*
X892622Y781037D01*
X892650Y781044D01*
X892671Y781051D01*
X892685Y781058D01*
X892692D01*
X892805Y781108D01*
X892896Y781164D01*
X892981Y781213D01*
X893044Y781262D01*
X893093Y781312D01*
X893129Y781347D01*
X893150Y781368D01*
X893157Y781375D01*
X893206Y781445D01*
X893241Y781523D01*
X893262Y781593D01*
X893276Y781656D01*
X893290Y781713D01*
X893298Y781755D01*
Y781790D01*
Y781797D01*
X893290Y781860D01*
X893283Y781931D01*
X893241Y782050D01*
X893185Y782156D01*
X893122Y782247D01*
X893058Y782325D01*
X893002Y782381D01*
X892960Y782416D01*
X892953Y782430D01*
X892946D01*
X892875Y782479D01*
X892791Y782522D01*
X892707Y782557D01*
X892615Y782592D01*
X892418Y782641D01*
X892221Y782670D01*
X892130Y782684D01*
X892045Y782691D01*
X891968Y782698D01*
X891897D01*
X891841Y782705D01*
X891637D01*
X891517Y782691D01*
X891405Y782676D01*
X891299Y782655D01*
X891208Y782634D01*
X891116Y782606D01*
X891039Y782578D01*
X890962Y782550D01*
X890898Y782522D01*
X890842Y782494D01*
X890800Y782466D01*
X890758Y782444D01*
X890729Y782423D01*
X890701Y782409D01*
X890694Y782402D01*
X890687Y782395D01*
X890617Y782339D01*
X890554Y782275D01*
X890448Y782135D01*
X890371Y781994D01*
X890307Y781860D01*
X890265Y781741D01*
X890244Y781684D01*
X890237Y781642D01*
X890223Y781600D01*
Y781572D01*
X890216Y781558D01*
Y781551D01*
X889048Y781713D01*
X889097Y781959D01*
X889132Y782064D01*
X889167Y782170D01*
X889196Y782269D01*
X889231Y782360D01*
X889266Y782437D01*
X889301Y782515D01*
X889336Y782578D01*
X889364Y782641D01*
X889393Y782691D01*
X889421Y782726D01*
X889442Y782761D01*
X889456Y782782D01*
X889463Y782796D01*
X889470Y782803D01*
X889526Y782881D01*
X889597Y782951D01*
X889737Y783078D01*
X889892Y783190D01*
X890040Y783282D01*
X890181Y783352D01*
X890237Y783380D01*
X890286Y783408D01*
X890328Y783429D01*
X890364Y783436D01*
X890385Y783450D01*
X890392D01*
X890631Y783528D01*
X890884Y783591D01*
X891131Y783633D01*
X891250Y783648D01*
X891356Y783662D01*
X891461Y783669D01*
X891560Y783676D01*
X891644Y783683D01*
X891714Y783690D01*
X891855D01*
X892059Y783683D01*
D02*
G37*
G36*
X897181Y776478D02*
X895985D01*
Y783535D01*
X897181D01*
Y776478D01*
D02*
G37*
G36*
X1034309Y756471D02*
X1034310Y756470D01*
X1034294Y756488D01*
X1034309Y756471D01*
D02*
G37*
G36*
X876777Y776478D02*
X875581D01*
Y783535D01*
X876777D01*
Y776478D01*
D02*
G37*
G36*
X1027245Y759899D02*
X1027236Y759878D01*
X1027245Y759899D01*
Y759899D01*
D02*
G37*
G36*
X844884Y776478D02*
X843597D01*
Y780439D01*
X840916D01*
X840733Y780446D01*
X840557Y780460D01*
X840388Y780474D01*
X840227Y780495D01*
X840072Y780517D01*
X839783Y780573D01*
X839530Y780636D01*
X839291Y780714D01*
X839087Y780791D01*
X838904Y780868D01*
X838742Y780946D01*
X838608Y781023D01*
X838496Y781100D01*
X838404Y781164D01*
X838334Y781220D01*
X838285Y781262D01*
X838256Y781291D01*
X838249Y781298D01*
X838109Y781459D01*
X837989Y781635D01*
X837884Y781811D01*
X837792Y781987D01*
X837715Y782163D01*
X837651Y782339D01*
X837595Y782508D01*
X837553Y782670D01*
X837518Y782817D01*
X837497Y782958D01*
X837476Y783078D01*
X837468Y783190D01*
X837461Y783275D01*
X837454Y783338D01*
Y783380D01*
Y783394D01*
X837468Y783662D01*
X837504Y783908D01*
X837525Y784027D01*
X837546Y784133D01*
X837574Y784239D01*
X837602Y784330D01*
X837630Y784414D01*
X837658Y784492D01*
X837680Y784562D01*
X837701Y784618D01*
X837722Y784661D01*
X837736Y784696D01*
X837743Y784717D01*
X837750Y784724D01*
X837869Y784935D01*
X837996Y785125D01*
X838130Y785287D01*
X838193Y785357D01*
X838249Y785421D01*
X838306Y785477D01*
X838362Y785526D01*
X838411Y785568D01*
X838453Y785596D01*
X838482Y785624D01*
X838510Y785646D01*
X838524Y785653D01*
X838531Y785660D01*
X838721Y785779D01*
X838925Y785871D01*
X839122Y785955D01*
X839312Y786019D01*
X839403Y786040D01*
X839481Y786061D01*
X839551Y786082D01*
X839614Y786096D01*
X839664Y786103D01*
X839699Y786110D01*
X839727Y786117D01*
X839734D01*
X839833Y786131D01*
X839945Y786152D01*
X840184Y786173D01*
X840431Y786194D01*
X840670Y786201D01*
X840782Y786208D01*
X840881D01*
X840979Y786216D01*
X844884D01*
Y776478D01*
D02*
G37*
G36*
X1039663Y749933D02*
X1039663Y749932D01*
X1039695Y749919D01*
X1039695Y749919D01*
X1039867Y749848D01*
X1039868Y749847D01*
X1039924Y749824D01*
X1039924Y749823D01*
X1039924Y749824D01*
X1039926Y749823D01*
X1039968Y749806D01*
X1039965Y749800D01*
X1039968Y749806D01*
X1040010Y749788D01*
X1040002Y749777D01*
X1040010Y749789D01*
X1040053Y749771D01*
X1040053Y749771D01*
X1040101Y749751D01*
X1040072Y749720D01*
X1040101Y749751D01*
D01*
X1040101Y749752D01*
X1040130Y749739D01*
X1040142Y749711D01*
X1040142Y749711D01*
X1040143Y749709D01*
X1040175Y749633D01*
X1040175Y749633D01*
X1040310Y749308D01*
X1040310Y749308D01*
X1040341Y749233D01*
X1040341Y749232D01*
X1040341D01*
X1040330Y749207D01*
X1040330D01*
X1040221Y748945D01*
X1040159Y748795D01*
X1040159Y748795D01*
X1040131Y748728D01*
X1040094Y748765D01*
X1040131Y748728D01*
X1040130Y748726D01*
X1040079Y748705D01*
X1040079Y748705D01*
X1040033Y748686D01*
X1040021Y748702D01*
X1040033Y748686D01*
X1039991Y748669D01*
X1039991Y748669D01*
X1039948Y748651D01*
Y748651D01*
X1039901Y748632D01*
X1039795Y748588D01*
X1039793Y748595D01*
X1039795Y748588D01*
X1039715Y748554D01*
X1039715Y748554D01*
X1039678Y748539D01*
X1039678Y748539D01*
X1039678Y748539D01*
X1039676Y748538D01*
X1039651Y748527D01*
X1039650Y748551D01*
X1039649Y748526D01*
D01*
X1039649Y748573D01*
X1032489Y748578D01*
Y746315D01*
X1032495D01*
X1032495Y746314D01*
X1032492Y746314D01*
X1032493Y746311D01*
X1032493Y746310D01*
X1032491Y746306D01*
X1032493Y746311D01*
X1032495Y746307D01*
X1032495Y746307D01*
X1032492Y746299D01*
X1032489Y746305D01*
X1032489Y746284D01*
X1032491Y746284D01*
X1032490Y746284D01*
X1032489Y746284D01*
X1032488Y746277D01*
X1032493Y746278D01*
X1032494Y746280D01*
X1032492Y746284D01*
X1032491Y746284D01*
X1032494Y746292D01*
X1032539Y746290D01*
X1032539Y746290D01*
Y746290D01*
D01*
Y746290D01*
D01*
D01*
X1032493Y746278D01*
X1032493Y746276D01*
D01*
Y746276D01*
X1032493Y746276D01*
X1032493D01*
X1032487Y746261D01*
X1032492Y746269D01*
X1032493Y746276D01*
X1032532Y746274D01*
X1032525Y746259D01*
X1032525Y746258D01*
X1032525Y746259D01*
X1032505Y746252D01*
X1032491Y746261D01*
X1032488Y746253D01*
X1032491Y746254D01*
X1032492Y746252D01*
X1032490Y746246D01*
X1032486Y746245D01*
X1032490Y746246D01*
X1032489Y746245D01*
Y746245D01*
X1032518Y746242D01*
X1032511Y746226D01*
X1032511Y746226D01*
X1032504Y746209D01*
X1032504Y746209D01*
X1032496Y746191D01*
X1032479Y746194D01*
X1032496Y746191D01*
X1032488Y746173D01*
X1032488Y746173D01*
X1032480Y746154D01*
X1032480Y746154D01*
X1032472Y746134D01*
X1032472Y746134D01*
D01*
X1032467Y746136D01*
X1032472Y746134D01*
X1032463Y746113D01*
X1032463D01*
X1032454Y746090D01*
X1032452Y746090D01*
X1032454Y746090D01*
X1032443Y746064D01*
X1032431Y746035D01*
X1032431D01*
X1032417Y746001D01*
Y746001D01*
X1032399Y745958D01*
X1032399Y745958D01*
X1032338Y745812D01*
X1032271Y745784D01*
X1032254Y745805D01*
X1032271Y745784D01*
X1032199Y745754D01*
X1032199Y745754D01*
X1032155Y745736D01*
X1032154Y745739D01*
X1032155Y745736D01*
X1032121Y745722D01*
X1032121Y745722D01*
X1032092Y745710D01*
X1032066Y745699D01*
X1032066Y745700D01*
X1032066Y745699D01*
X1032043Y745690D01*
X1032042Y745692D01*
X1032043Y745690D01*
X1032022Y745681D01*
Y745681D01*
Y745681D01*
X1032002Y745673D01*
X1032002Y745673D01*
X1031983Y745665D01*
X1031981Y745676D01*
X1031983Y745665D01*
D01*
X1031983Y745665D01*
X1031965Y745657D01*
X1031962Y745673D01*
X1031965Y745657D01*
X1031947Y745650D01*
X1031940Y745658D01*
X1031945Y745668D01*
X1031936Y745664D01*
X1031936Y745668D01*
X1031931Y745666D01*
X1031940Y745658D01*
X1031940Y745657D01*
X1031931Y745666D01*
X1031930Y745666D01*
X1031919Y745665D01*
Y745666D01*
X1031920Y745666D01*
X1031919Y745667D01*
X1031919Y745666D01*
X1031919Y745665D01*
X1031911Y745665D01*
X1031913Y745663D01*
X1031912Y745663D01*
X1031903Y745663D01*
Y745664D01*
X1031904Y745664D01*
X1031903Y745665D01*
X1031903Y745664D01*
X1031902Y745663D01*
X1031895Y745664D01*
X1031897Y745661D01*
X1031896Y745660D01*
X1031890Y745644D01*
X1031898Y745628D01*
X1031883Y745622D01*
X1031890Y745644D01*
X1031882Y745659D01*
X1031887Y745662D01*
X1031888Y745662D01*
X1031888Y745662D01*
X1031887Y745662D01*
X1031880Y745663D01*
X1031882Y745659D01*
X1031880Y745659D01*
X1031875Y745659D01*
X1031875Y745659D01*
X1031872Y745658D01*
X1031876Y745657D01*
X1031875Y745659D01*
X1031880Y745659D01*
X1031876Y745657D01*
X1031883Y745621D01*
X1031869Y745616D01*
X1031867Y745615D01*
Y745614D01*
X1031852Y745608D01*
Y745608D01*
X1031835Y745601D01*
X1031835Y745601D01*
Y745656D01*
X1031835Y745656D01*
X1031834Y745657D01*
X1031835Y745657D01*
X1031835Y745661D01*
X1031835D01*
X1031835Y745661D01*
X1031832Y745661D01*
X1031832Y745661D01*
X1031832D01*
X1031834Y745656D01*
D01*
D01*
X1031834Y745656D01*
X1031834D01*
X1031834Y745656D01*
X1031834Y745657D01*
X1031834Y745657D01*
X1031834Y745656D01*
X1031834Y745656D01*
X1031835Y745656D01*
X1031834Y745656D01*
X1031832Y745656D01*
X1031832Y745656D01*
X1031832Y745608D01*
X1031832Y745608D01*
X1031812Y745616D01*
X1031815Y745656D01*
X1031815Y745656D01*
Y745660D01*
X1031815D01*
X1031815Y745656D01*
X1031813Y745657D01*
X1031812Y745617D01*
X1031790Y745626D01*
X1031792Y745659D01*
X1031796Y745657D01*
X1031795Y745659D01*
X1031815Y745660D01*
X1031815Y745662D01*
Y745660D01*
X1031830Y745661D01*
X1031792Y745663D01*
X1031795Y745659D01*
X1031792Y745659D01*
X1031792Y745663D01*
X1031792Y745659D01*
D01*
D01*
D01*
D01*
D01*
D01*
X1031790Y745626D01*
X1031766Y745636D01*
X1031774Y745659D01*
X1031776Y745659D01*
Y745664D01*
X1031774Y745659D01*
X1031769Y745662D01*
X1031766Y745636D01*
X1031740Y745647D01*
X1031743Y745668D01*
X1031740Y745647D01*
X1031712Y745658D01*
X1031712Y745658D01*
X1031679Y745672D01*
Y745672D01*
X1031638Y745690D01*
Y745689D01*
X1031397Y745789D01*
X1031419Y745815D01*
X1031397Y745789D01*
X1031351Y745808D01*
X1031328Y745862D01*
X1031328Y745862D01*
X1031302Y745925D01*
X1031314Y745933D01*
X1031302Y745925D01*
D01*
X1031302Y745925D01*
X1031282Y745972D01*
X1031282Y745972D01*
X1031266Y746010D01*
X1031268Y746011D01*
X1031267Y746012D01*
X1031267Y746012D01*
X1031266Y746012D01*
X1031252Y746046D01*
X1031252D01*
X1031240Y746075D01*
X1031240D01*
X1031229Y746102D01*
X1031219Y746126D01*
X1031218D01*
X1031209Y746148D01*
X1031209D01*
X1031200Y746169D01*
X1031200Y746169D01*
X1031192Y746189D01*
X1031192Y746189D01*
X1031184Y746209D01*
X1031183Y746209D01*
X1031176Y746228D01*
X1031203Y746231D01*
X1031175Y746228D01*
X1031168Y746246D01*
X1031201Y746250D01*
X1031168Y746246D01*
D01*
X1031167Y746246D01*
X1031167Y746248D01*
X1031160Y746264D01*
X1031199Y746267D01*
X1031160Y746264D01*
X1031153Y746281D01*
X1031153Y746281D01*
X1031173Y746289D01*
X1031166Y746291D01*
X1031181Y746303D01*
X1031193Y746300D01*
X1031193Y746298D01*
X1031198Y746299D01*
D01*
X1031193Y746300D01*
Y746300D01*
X1031196Y746307D01*
X1031196Y746306D01*
X1031193Y746313D01*
X1031198Y746317D01*
X1031192Y746315D01*
Y746315D01*
X1031193Y746313D01*
X1031181Y746303D01*
X1031168Y746307D01*
X1031145Y746297D01*
X1031138Y746315D01*
Y746315D01*
X1031168Y746307D01*
X1031192Y746317D01*
X1031198Y749232D01*
X1031143D01*
X1031153Y749258D01*
X1031154D01*
X1031154Y749258D01*
X1031198Y749257D01*
X1031154Y749258D01*
X1031262Y749520D01*
X1031324Y749670D01*
X1031324Y749670D01*
X1031352Y749737D01*
X1031353Y749737D01*
X1031354Y749739D01*
X1031404Y749760D01*
X1031427Y749734D01*
X1031405Y749760D01*
X1031451Y749779D01*
X1031451Y749779D01*
X1031493Y749796D01*
X1031493Y749796D01*
X1031535Y749814D01*
X1031537Y749811D01*
X1031535Y749814D01*
X1031583Y749834D01*
X1031583Y749833D01*
X1031583Y749834D01*
X1031583D01*
D01*
X1031688Y749877D01*
X1031690Y749870D01*
X1031689Y749877D01*
X1031769Y749911D01*
X1031769Y749911D01*
X1031806Y749926D01*
Y749927D01*
Y749927D01*
X1031835Y749939D01*
X1039649Y749887D01*
X1039662Y749887D01*
X1039656Y749890D01*
X1039656Y749889D01*
X1039649Y749892D01*
X1039655Y749892D01*
X1039649Y749939D01*
X1039663Y749933D01*
D02*
G37*
G36*
X1028037Y694580D02*
X1028035Y694579D01*
X1028035Y694583D01*
X1028037Y694580D01*
D02*
G37*
G36*
X1028035Y694585D02*
X1028035Y694583D01*
X1028033Y694586D01*
X1028033Y694584D01*
X1028035Y694579D01*
X1028033Y694578D01*
X1028033Y694584D01*
X1028033Y694584D01*
X1028033Y694586D01*
X1028033Y694586D01*
X1028033Y694589D01*
X1028035Y694585D01*
D02*
G37*
G36*
X1027929Y751375D02*
X1027916Y751380D01*
X1027927Y751380D01*
X1027929Y751375D01*
D02*
G37*
%LPC*%
G36*
X1039131Y716251D02*
X1039128Y716250D01*
X1039132Y716249D01*
X1039131Y716251D01*
D02*
G37*
G36*
X1040131Y716251D02*
X1040130Y716249D01*
X1040134Y716248D01*
X1040131Y716251D01*
D02*
G37*
G36*
X1040106Y716182D02*
X1040106Y716181D01*
X1040107Y716182D01*
D01*
X1040106Y716182D01*
D02*
G37*
G36*
X1039631Y715875D02*
Y715828D01*
X1039633Y715874D01*
X1039631Y715875D01*
D02*
G37*
G36*
X1028437Y716284D02*
X1028436Y716282D01*
X1028446Y716280D01*
X1028437Y716284D01*
D02*
G37*
G36*
X1039364Y715946D02*
X1039360Y715940D01*
X1039360Y715940D01*
X1039364Y715946D01*
D02*
G37*
G36*
X1027645Y713982D02*
D01*
X1027651Y713973D01*
X1027645Y713982D01*
D02*
G37*
G36*
X1040092Y716153D02*
X1040091Y716151D01*
X1040091Y716151D01*
X1040091Y716151D01*
X1040092Y716153D01*
D02*
G37*
G36*
X1039718Y714064D02*
X1039716Y714050D01*
X1039718Y714049D01*
X1039718Y714052D01*
X1039718Y714064D01*
D02*
G37*
G36*
X1027488Y716140D02*
X1027487Y716139D01*
X1027488Y716139D01*
X1027488Y716140D01*
D02*
G37*
G36*
X1028385Y716140D02*
X1028384Y716138D01*
X1028385Y716139D01*
X1028385Y716140D01*
D02*
G37*
G36*
X1040072Y716118D02*
X1040078Y716114D01*
Y716114D01*
X1040072Y716118D01*
D02*
G37*
G36*
X1039629Y714059D02*
X1039629Y714054D01*
X1039631Y714054D01*
X1039629Y714059D01*
D02*
G37*
G36*
X1027697Y714004D02*
D01*
X1027698Y714002D01*
X1027697Y714004D01*
D02*
G37*
G36*
X1028442Y716339D02*
X1028441Y716337D01*
X1028445Y716337D01*
X1028470Y716337D01*
Y716337D01*
X1028446Y716339D01*
X1028442Y716339D01*
D02*
G37*
G36*
X1039490Y715890D02*
X1039490Y715889D01*
X1039492Y715889D01*
X1039492Y715889D01*
X1039490Y715890D01*
D02*
G37*
G36*
X1028442Y716389D02*
X1028444Y716379D01*
X1028443Y716377D01*
X1028442Y716375D01*
X1028442Y716375D01*
X1028448Y716375D01*
X1028446Y716377D01*
X1028443Y716377D01*
X1028444Y716379D01*
X1028444D01*
X1028445Y716382D01*
D01*
X1028445Y716383D01*
X1028445Y716382D01*
X1028445Y716382D01*
X1028442Y716389D01*
D02*
G37*
G36*
X1040084Y724446D02*
X1040079Y724443D01*
X1040079Y724441D01*
X1040080Y724442D01*
X1040084Y724446D01*
D02*
G37*
G36*
X1039536Y715878D02*
X1039534Y715868D01*
X1039534D01*
X1039536Y715878D01*
D02*
G37*
G36*
X1027430Y724201D02*
X1027426Y724199D01*
X1027430Y724199D01*
X1027430Y724201D01*
D02*
G37*
G36*
X1040146Y724187D02*
X1040145Y724185D01*
X1040146D01*
Y724187D01*
D02*
G37*
G36*
X1039768Y715889D02*
X1039766Y715888D01*
X1039766Y715888D01*
X1039769Y715885D01*
X1039768Y715889D01*
D02*
G37*
G36*
X1028445Y716382D02*
X1028444Y716379D01*
X1028446Y716377D01*
X1028448Y716377D01*
Y716377D01*
X1028448D01*
X1028448Y716377D01*
X1028448Y716382D01*
X1028445Y716382D01*
D02*
G37*
G36*
X1027431Y716340D02*
X1027428Y716338D01*
X1027432Y716338D01*
X1027431Y716340D01*
D02*
G37*
G36*
X1027973Y715874D02*
X1027971Y715873D01*
X1027972Y715871D01*
X1027976Y715844D01*
X1027973Y715871D01*
X1027973Y715874D01*
D02*
G37*
G36*
X1039804Y715900D02*
Y715900D01*
X1039804Y715899D01*
X1039804Y715900D01*
X1039804Y715900D01*
D02*
G37*
G36*
X1028097Y715896D02*
X1028096Y715896D01*
X1028096Y715896D01*
X1028098Y715895D01*
X1028098Y715895D01*
X1028098Y715896D01*
X1028097Y715896D01*
D02*
G37*
G36*
X1027897Y715874D02*
X1027896Y715855D01*
X1027897Y715874D01*
X1027897Y715874D01*
D02*
G37*
G36*
X1027521Y724520D02*
D01*
X1027536Y724509D01*
X1027521Y724520D01*
D02*
G37*
G36*
X1027918Y715875D02*
X1027917Y715874D01*
X1027917Y715869D01*
X1027928Y715853D01*
X1027928Y715828D01*
D01*
X1027932Y715848D01*
X1027932Y715847D01*
X1027933Y715852D01*
X1027936Y715871D01*
X1027942Y715874D01*
X1027928Y715875D01*
X1027936Y715872D01*
X1027936Y715871D01*
X1027935Y715871D01*
X1027933Y715852D01*
X1027932Y715848D01*
X1027928Y715853D01*
Y715875D01*
X1027923Y715873D01*
X1027924Y715872D01*
X1027921Y715873D01*
X1027919Y715874D01*
X1027918Y715875D01*
D02*
G37*
G36*
X1027597Y713963D02*
D01*
X1027612Y713944D01*
X1027597Y713963D01*
D02*
G37*
G36*
X1039362Y694657D02*
X1039362Y694657D01*
X1039360Y694650D01*
X1039360Y694650D01*
X1039364Y694656D01*
X1039364Y694657D01*
X1039362Y694657D01*
D02*
G37*
G36*
X1027636Y694676D02*
X1027626Y694664D01*
D01*
X1027636Y694676D01*
D02*
G37*
G36*
X1027697Y694638D02*
X1027697Y694638D01*
X1027698Y694634D01*
X1027699Y694637D01*
X1027697Y694638D01*
D02*
G37*
G36*
X1039492Y694599D02*
X1039492Y694597D01*
X1039494Y694599D01*
X1039492Y694599D01*
D02*
G37*
G36*
X1039426Y694623D02*
X1039427Y694622D01*
X1039427Y694622D01*
X1039426Y694623D01*
D02*
G37*
G36*
X1027579Y694732D02*
X1027564Y694716D01*
X1027581Y694731D01*
X1027581Y694732D01*
X1027579Y694732D01*
D02*
G37*
G36*
X1040092Y694863D02*
X1040091Y694861D01*
X1040091Y694861D01*
X1040091Y694861D01*
X1040092Y694863D01*
D02*
G37*
G36*
X1039170Y694863D02*
X1039168Y694862D01*
Y694862D01*
X1039170Y694863D01*
D02*
G37*
G36*
X1028385Y694850D02*
X1028384Y694848D01*
X1028385Y694849D01*
X1028385Y694850D01*
D02*
G37*
G36*
X1027545Y694768D02*
X1027544Y694766D01*
X1027545Y694766D01*
X1027545Y694768D01*
D02*
G37*
G36*
X1039219Y694791D02*
X1039211Y694784D01*
X1039220Y694789D01*
X1039219Y694791D01*
D02*
G37*
G36*
X1039770Y694599D02*
X1039768Y694599D01*
X1039769Y694597D01*
X1039768Y694598D01*
X1039770Y694599D01*
D02*
G37*
G36*
X1039631Y694585D02*
Y694538D01*
X1039633Y694584D01*
X1039631Y694585D01*
D02*
G37*
G36*
X1027918Y694585D02*
X1027917Y694585D01*
X1027917Y694579D01*
X1027928Y694563D01*
X1027928Y694538D01*
D01*
X1027932Y694558D01*
X1027932Y694558D01*
X1027933Y694563D01*
X1027936Y694581D01*
X1027935Y694581D01*
X1027933Y694563D01*
X1027932Y694558D01*
X1027928Y694563D01*
Y694585D01*
X1027923Y694583D01*
X1027924Y694582D01*
X1027921Y694584D01*
X1027919Y694584D01*
X1027918Y694585D01*
D02*
G37*
G36*
X843597Y785069D02*
X840951D01*
X840810Y785062D01*
X840677D01*
X840557Y785055D01*
X840445Y785048D01*
X840346Y785041D01*
X840262Y785033D01*
X840184Y785026D01*
X840114Y785012D01*
X840058Y785005D01*
X840008Y784998D01*
X839973Y784991D01*
X839945Y784984D01*
X839924D01*
X839917Y784977D01*
X839910D01*
X839727Y784914D01*
X839565Y784829D01*
X839431Y784731D01*
X839312Y784640D01*
X839220Y784548D01*
X839150Y784471D01*
X839129Y784443D01*
X839108Y784421D01*
X839094Y784407D01*
Y784400D01*
X839037Y784316D01*
X838988Y784231D01*
X838918Y784056D01*
X838861Y783880D01*
X838819Y783718D01*
X838812Y783648D01*
X838798Y783577D01*
X838791Y783514D01*
Y783465D01*
X838784Y783415D01*
Y783387D01*
Y783366D01*
Y783359D01*
X838791Y783204D01*
X838805Y783064D01*
X838833Y782923D01*
X838869Y782796D01*
X838904Y782684D01*
X838953Y782571D01*
X838995Y782479D01*
X839044Y782388D01*
X839094Y782311D01*
X839143Y782240D01*
X839192Y782184D01*
X839227Y782135D01*
X839263Y782100D01*
X839291Y782072D01*
X839305Y782057D01*
X839312Y782050D01*
X839417Y781966D01*
X839537Y781896D01*
X839671Y781832D01*
X839811Y781783D01*
X839959Y781734D01*
X840107Y781699D01*
X840395Y781642D01*
X840536Y781628D01*
X840663Y781614D01*
X840782Y781600D01*
X840881Y781593D01*
X840965Y781586D01*
X843597D01*
Y785069D01*
D02*
G37*
G36*
X871149Y782698D02*
X871114D01*
X870966Y782691D01*
X870818Y782670D01*
X870684Y782634D01*
X870558Y782592D01*
X870431Y782543D01*
X870319Y782479D01*
X870213Y782423D01*
X870122Y782360D01*
X870037Y782290D01*
X869960Y782233D01*
X869896Y782177D01*
X869840Y782121D01*
X869798Y782078D01*
X869770Y782043D01*
X869749Y782022D01*
X869742Y782015D01*
X869643Y781881D01*
X869559Y781734D01*
X869481Y781572D01*
X869418Y781403D01*
X869362Y781227D01*
X869313Y781051D01*
X869277Y780875D01*
X869249Y780706D01*
X869228Y780538D01*
X869207Y780390D01*
X869193Y780256D01*
X869186Y780137D01*
X869179Y780038D01*
Y779961D01*
Y779933D01*
Y779911D01*
Y779904D01*
Y779897D01*
X869186Y779658D01*
X869200Y779433D01*
X869228Y779229D01*
X869263Y779039D01*
X869305Y778863D01*
X869355Y778701D01*
X869404Y778554D01*
X869453Y778427D01*
X869502Y778314D01*
X869552Y778216D01*
X869601Y778131D01*
X869643Y778061D01*
X869678Y778012D01*
X869706Y777970D01*
X869721Y777949D01*
X869728Y777941D01*
X869833Y777829D01*
X869939Y777730D01*
X870051Y777646D01*
X870164Y777576D01*
X870276Y777512D01*
X870389Y777463D01*
X870495Y777421D01*
X870600Y777386D01*
X870692Y777365D01*
X870783Y777343D01*
X870860Y777329D01*
X870924Y777315D01*
X870980D01*
X871022Y777308D01*
X871057D01*
X871198Y777315D01*
X871339Y777336D01*
X871465Y777372D01*
X871592Y777414D01*
X871712Y777463D01*
X871824Y777519D01*
X871923Y777583D01*
X872021Y777646D01*
X872106Y777702D01*
X872183Y777766D01*
X872246Y777822D01*
X872303Y777871D01*
X872345Y777913D01*
X872373Y777949D01*
X872394Y777970D01*
X872401Y777977D01*
X872500Y778110D01*
X872591Y778258D01*
X872669Y778413D01*
X872732Y778575D01*
X872788Y778744D01*
X872830Y778912D01*
X872873Y779074D01*
X872901Y779236D01*
X872922Y779391D01*
X872943Y779531D01*
X872950Y779665D01*
X872964Y779778D01*
Y779869D01*
X872971Y779940D01*
Y779961D01*
Y779982D01*
Y779989D01*
Y779996D01*
X872964Y780249D01*
X872950Y780488D01*
X872922Y780706D01*
X872887Y780903D01*
X872851Y781094D01*
X872802Y781262D01*
X872753Y781410D01*
X872704Y781544D01*
X872654Y781663D01*
X872612Y781762D01*
X872563Y781853D01*
X872528Y781924D01*
X872493Y781973D01*
X872465Y782015D01*
X872450Y782036D01*
X872443Y782043D01*
X872338Y782156D01*
X872232Y782261D01*
X872120Y782346D01*
X872007Y782423D01*
X871895Y782487D01*
X871789Y782536D01*
X871684Y782578D01*
X871578Y782613D01*
X871479Y782641D01*
X871395Y782663D01*
X871311Y782676D01*
X871247Y782691D01*
X871191D01*
X871149Y782698D01*
D02*
G37*
G36*
X863374Y782705D02*
X863297D01*
X863128Y782698D01*
X862973Y782676D01*
X862818Y782641D01*
X862678Y782599D01*
X862544Y782543D01*
X862424Y782487D01*
X862312Y782423D01*
X862213Y782360D01*
X862122Y782297D01*
X862037Y782233D01*
X861974Y782177D01*
X861918Y782121D01*
X861869Y782078D01*
X861840Y782043D01*
X861819Y782022D01*
X861812Y782015D01*
X861749Y781931D01*
X861686Y781832D01*
X861580Y781621D01*
X861503Y781403D01*
X861446Y781185D01*
X861418Y781086D01*
X861404Y780988D01*
X861383Y780903D01*
X861376Y780833D01*
X861362Y780770D01*
Y780728D01*
X861355Y780692D01*
Y780685D01*
X865302D01*
X865288Y780854D01*
X865260Y781009D01*
X865225Y781164D01*
X865182Y781298D01*
X865133Y781431D01*
X865084Y781551D01*
X865028Y781663D01*
X864971Y781762D01*
X864915Y781846D01*
X864866Y781924D01*
X864817Y781994D01*
X864774Y782050D01*
X864732Y782093D01*
X864704Y782121D01*
X864690Y782142D01*
X864683Y782149D01*
X864577Y782247D01*
X864465Y782332D01*
X864345Y782409D01*
X864226Y782473D01*
X864113Y782522D01*
X863993Y782571D01*
X863888Y782606D01*
X863775Y782634D01*
X863677Y782655D01*
X863585Y782676D01*
X863508Y782691D01*
X863430Y782698D01*
X863374Y782705D01*
D02*
G37*
G36*
X1028010Y694587D02*
X1028010Y694586D01*
X1028010Y694585D01*
X1028013Y694570D01*
X1028012Y694586D01*
X1028010Y694587D01*
D02*
G37*
G36*
X1028010Y694587D02*
X1028008Y694587D01*
X1028009Y694585D01*
X1028010Y694586D01*
X1028010Y694587D01*
D02*
G37*
G36*
X1028012Y694588D02*
X1028010Y694587D01*
X1028010Y694587D01*
X1028012Y694588D01*
D02*
G37*
G36*
X1039535Y694590D02*
X1039535Y694584D01*
X1039537Y694590D01*
X1039535Y694590D01*
D02*
G37*
G36*
X1027928Y694585D02*
X1027936Y694582D01*
X1027936Y694581D01*
X1027942Y694584D01*
X1027928Y694585D01*
D02*
G37*
G36*
X1027976Y694585D02*
X1027973Y694584D01*
X1027974Y694583D01*
X1027976Y694585D01*
D02*
G37*
G36*
X1028437Y694995D02*
X1028436Y694992D01*
X1028446Y694990D01*
X1028437Y694995D01*
D02*
G37*
G36*
X1027684Y713078D02*
X1027674Y713074D01*
X1027677Y713074D01*
X1027684Y713078D01*
D02*
G37*
G36*
X1027630Y713125D02*
X1027630Y713122D01*
X1027632Y713124D01*
X1027630Y713125D01*
D02*
G37*
G36*
X1027888Y705091D02*
X1027888Y705087D01*
D01*
X1027888Y705091D01*
D02*
G37*
G36*
X1027877Y703431D02*
X1027873Y703412D01*
X1027873Y703411D01*
X1027873Y703406D01*
X1027879Y703409D01*
X1027873Y703411D01*
X1027877Y703431D01*
D02*
G37*
G36*
X1039629Y703414D02*
X1039629Y703410D01*
X1039631Y703409D01*
X1039629Y703414D01*
D02*
G37*
G36*
X1027479Y713301D02*
X1027479Y713300D01*
X1027478Y713300D01*
X1027479Y713300D01*
X1027479Y713300D01*
X1027480Y713300D01*
X1027479Y713301D01*
D02*
G37*
G36*
X1027538Y713888D02*
X1027550Y713876D01*
X1027550Y713878D01*
X1027538Y713888D01*
D02*
G37*
G36*
X1027548Y713943D02*
X1027548D01*
X1027578Y713913D01*
X1027548Y713943D01*
D02*
G37*
G36*
X1027499Y713835D02*
D01*
X1027508Y713828D01*
X1027499Y713835D01*
D02*
G37*
G36*
X1027477Y713300D02*
Y713300D01*
X1027478Y713300D01*
X1027477Y713300D01*
D02*
G37*
G36*
X1027442Y713693D02*
X1027441Y713691D01*
X1027440Y713689D01*
X1027442Y713693D01*
D02*
G37*
G36*
X1027686Y703355D02*
D01*
X1027688Y703351D01*
X1027686Y703355D01*
D02*
G37*
G36*
X1028443Y695087D02*
X1028442Y695085D01*
X1028442Y695085D01*
X1028448Y695085D01*
X1028487Y695086D01*
X1028487Y695086D01*
X1028443Y695087D01*
D02*
G37*
G36*
X1040145Y695099D02*
X1040146Y695097D01*
X1040150Y695099D01*
X1040145Y695099D01*
D02*
G37*
G36*
X1027431Y695050D02*
X1027428Y695048D01*
X1027432Y695048D01*
X1027431Y695050D01*
D02*
G37*
G36*
X1040142Y695007D02*
X1040153Y695005D01*
Y695005D01*
X1040142Y695007D01*
D02*
G37*
G36*
X1028442Y695049D02*
X1028441Y695047D01*
X1028445Y695047D01*
X1028470Y695047D01*
Y695047D01*
X1028446Y695049D01*
X1028442Y695049D01*
D02*
G37*
G36*
X1027430Y695101D02*
X1027426Y695101D01*
Y695099D01*
X1027431D01*
X1027430Y695101D01*
D02*
G37*
G36*
X1040060Y703195D02*
X1040053Y703191D01*
X1040054Y703190D01*
X1040060Y703195D01*
D02*
G37*
G36*
X1027530Y703225D02*
X1027538Y703217D01*
X1027538Y703219D01*
X1027530Y703225D01*
D02*
G37*
G36*
X1040084Y703156D02*
X1040079Y703153D01*
X1040079Y703153D01*
X1040079Y703151D01*
X1040080Y703152D01*
X1040084Y703156D01*
D02*
G37*
G36*
X1027430Y702911D02*
X1027426Y702909D01*
X1027430Y702909D01*
X1027430Y702911D01*
D02*
G37*
G36*
X1040111Y703091D02*
X1040111Y703090D01*
X1040111D01*
X1040111Y703091D01*
D02*
G37*
G36*
X1027573Y724548D02*
X1027574Y724545D01*
X1027575Y724546D01*
X1027575Y724547D01*
X1027573Y724548D01*
D02*
G37*
G36*
X1031198Y746299D02*
X1031193Y746298D01*
D01*
X1031193D01*
X1031194Y746297D01*
X1031198Y746299D01*
D02*
G37*
G36*
X1031198D02*
X1031198D01*
D01*
X1031198D01*
D02*
G37*
G36*
X1032493Y746310D02*
X1032489Y746307D01*
X1032489Y746305D01*
X1032489Y746307D01*
X1032493Y746310D01*
D02*
G37*
G36*
X1032488Y746277D02*
X1032489Y746269D01*
X1032493Y746276D01*
X1032488Y746277D01*
D02*
G37*
G36*
X1032489Y746284D02*
X1032488Y746284D01*
X1032489Y746284D01*
Y746284D01*
D02*
G37*
G36*
X1031194Y746297D02*
X1031173Y746289D01*
X1031194Y746283D01*
X1031193Y746286D01*
X1031195Y746291D01*
X1031196Y746291D01*
X1031197Y746291D01*
X1031199Y746291D01*
X1031196Y746291D01*
X1031194Y746297D01*
D02*
G37*
G36*
X1032492Y746315D02*
X1032489Y746314D01*
X1032492D01*
X1032492Y746315D01*
D02*
G37*
G36*
X1039947Y748654D02*
X1039948Y748651D01*
D01*
X1039947Y748654D01*
D02*
G37*
G36*
X1040057Y748731D02*
X1040079Y748705D01*
D01*
X1040057Y748731D01*
D02*
G37*
G36*
X1040285Y749208D02*
X1040330Y749207D01*
X1040330Y749207D01*
X1040285Y749208D01*
D02*
G37*
G36*
X1031193Y746317D02*
X1031192Y746317D01*
Y746315D01*
X1031192Y746315D01*
X1031192D01*
Y746315D01*
X1031193Y746317D01*
D02*
G37*
G36*
X1039649Y748578D02*
Y748573D01*
X1039649D01*
X1039649Y748573D01*
X1039650Y748551D01*
X1039651Y748574D01*
X1039649Y748573D01*
X1039649Y748578D01*
D02*
G37*
G36*
X1039676Y748579D02*
X1039674Y748574D01*
D01*
X1039673Y748579D01*
X1039674Y748574D01*
X1039673Y748573D01*
X1039674Y748574D01*
D01*
X1039674Y748574D01*
D01*
X1039674Y748574D01*
X1039678Y748539D01*
X1039676Y748579D01*
D02*
G37*
G36*
X1032492Y746269D02*
X1032492Y746269D01*
X1032491Y746261D01*
X1032493Y746266D01*
X1032492Y746269D01*
D02*
G37*
G36*
X1031638Y745692D02*
X1031638Y745690D01*
X1031638D01*
X1031638Y745692D01*
D02*
G37*
G36*
X1032121Y745723D02*
X1032121Y745722D01*
D01*
X1032121Y745723D01*
D02*
G37*
G36*
X1032392Y745962D02*
X1032399Y745958D01*
D01*
X1032392Y745962D01*
D02*
G37*
G36*
X1031929Y745667D02*
X1031931Y745666D01*
X1031931Y745666D01*
X1031929Y745667D01*
D02*
G37*
G36*
X1031936Y745669D02*
X1031936Y745668D01*
X1031936Y745668D01*
X1031936Y745669D01*
D02*
G37*
G36*
X1032021Y745686D02*
X1032022Y745681D01*
X1032022D01*
X1032021Y745686D01*
D02*
G37*
G36*
X1032431Y746035D02*
X1032431Y746035D01*
D01*
X1032431Y746035D01*
D02*
G37*
G36*
X1032490Y746237D02*
X1032486Y746232D01*
X1032487Y746229D01*
X1032490Y746237D01*
D02*
G37*
G36*
X1032486Y746234D02*
X1032484Y746229D01*
X1032486Y746232D01*
X1032486Y746234D01*
D02*
G37*
G36*
X1032486Y746245D02*
X1032486Y746239D01*
X1032485Y746237D01*
X1032486Y746234D01*
X1032489Y746245D01*
X1032489D01*
X1032486Y746237D01*
X1032486Y746239D01*
X1032489Y746245D01*
D01*
X1032489Y746245D01*
X1032489Y746245D01*
X1032486Y746245D01*
D02*
G37*
G36*
X1031252Y746046D02*
X1031252Y746046D01*
D01*
X1031252Y746046D01*
D02*
G37*
G36*
X1031240Y746075D02*
X1031240Y746075D01*
Y746075D01*
X1031240Y746075D01*
D02*
G37*
G36*
X1032487Y746229D02*
X1032484Y746221D01*
X1032486Y746221D01*
X1032485Y746216D01*
X1032488Y746221D01*
X1032485Y746214D01*
X1032484Y746213D01*
X1032485Y746216D01*
X1032482Y746212D01*
X1032484Y746213D01*
X1032484Y746212D01*
X1032485Y746214D01*
X1032511Y746226D01*
X1032511Y746226D01*
X1032486Y746221D01*
X1032487Y746229D01*
D02*
G37*
G36*
X1035440Y756034D02*
X1035409Y756031D01*
X1035426Y756033D01*
X1035409Y756031D01*
X1035440Y756034D01*
X1035426Y756033D01*
X1035440Y756034D01*
D01*
D02*
G37*
G36*
X1034173Y756270D02*
X1034172Y756269D01*
X1034172Y756268D01*
X1034173Y756269D01*
X1034173Y756270D01*
D02*
G37*
G36*
X1034871Y756643D02*
X1034868Y756623D01*
X1034871Y756643D01*
X1034871D01*
D02*
G37*
G36*
X1033369Y751727D02*
Y751727D01*
Y751727D01*
D01*
D02*
G37*
G36*
X1033382Y751774D02*
X1033380Y751767D01*
X1033382Y751773D01*
X1033382Y751774D01*
D02*
G37*
G36*
X1027294Y752020D02*
X1027263Y752018D01*
Y752018D01*
X1027294Y752020D01*
D02*
G37*
G36*
X1039800Y759246D02*
X1039802Y759242D01*
X1039802D01*
X1039800Y759246D01*
D02*
G37*
G36*
X1027864Y760531D02*
X1027864Y760531D01*
X1027864Y760531D01*
X1027865Y760529D01*
X1027864Y760531D01*
X1027864Y760531D01*
X1027864Y760531D01*
D02*
G37*
G36*
X1027866Y760532D02*
Y760532D01*
X1027864Y760531D01*
X1027864Y760531D01*
X1027866Y760529D01*
X1027866Y760532D01*
X1027866D01*
X1027866Y760532D01*
D02*
G37*
G36*
X1027864Y760556D02*
X1027864D01*
X1027864Y760543D01*
X1027866Y760532D01*
X1027864Y760556D01*
D02*
G37*
G36*
X1040194Y759547D02*
X1040194Y759545D01*
X1040197Y759544D01*
X1040194Y759547D01*
D02*
G37*
G36*
X1027428Y760285D02*
D01*
X1027430Y760284D01*
X1027428Y760285D01*
D02*
G37*
G36*
X1039962Y760443D02*
X1039961Y760441D01*
X1039961Y760441D01*
X1039962Y760443D01*
D02*
G37*
G36*
X1027438Y751664D02*
X1027436Y751663D01*
X1027434Y751661D01*
X1027438Y751664D01*
D02*
G37*
G36*
X1039656Y749890D02*
X1039655Y749890D01*
X1039656Y749890D01*
X1039656Y749890D01*
D02*
G37*
G36*
X1039655Y749892D02*
X1039656Y749890D01*
X1039660Y749892D01*
X1039655Y749892D01*
D02*
G37*
G36*
X1039661Y749892D02*
X1039660Y749892D01*
X1039662Y749892D01*
X1039661Y749892D01*
D02*
G37*
G36*
X1040310Y749308D02*
X1040282Y749305D01*
X1040310Y749308D01*
Y749308D01*
D02*
G37*
G36*
X1031353Y749737D02*
D01*
X1031390Y749700D01*
X1031353Y749737D01*
D02*
G37*
G36*
X1039695Y749919D02*
X1039693Y749885D01*
X1039695Y749919D01*
X1039695Y749919D01*
D02*
G37*
G36*
X1032842Y751423D02*
X1032841Y751423D01*
X1032847Y751394D01*
X1032847D01*
X1032842Y751423D01*
D02*
G37*
G36*
X1033053Y751478D02*
X1033034Y751470D01*
X1033040Y751473D01*
X1033053Y751478D01*
D02*
G37*
G36*
X1033117Y751505D02*
X1033093Y751497D01*
X1033073Y751487D01*
X1033094Y751495D01*
X1033117Y751505D01*
D02*
G37*
G36*
X1027593Y751526D02*
X1027587Y751517D01*
X1027587D01*
X1027593Y751526D01*
D02*
G37*
G36*
X1027929Y751427D02*
X1027927Y751422D01*
X1027929Y751422D01*
Y751427D01*
D02*
G37*
G36*
X1027888Y751429D02*
X1027886Y751394D01*
X1027886Y751394D01*
X1027892Y751423D01*
X1027893Y751423D01*
Y751429D01*
X1027892Y751423D01*
X1027888Y751425D01*
X1027888Y751429D01*
D02*
G37*
G36*
X1032841Y751428D02*
X1032842Y751423D01*
X1032846Y751425D01*
X1032841Y751428D01*
D02*
G37*
G36*
X1031928Y745665D02*
X1031928Y745662D01*
X1031928Y745663D01*
X1031928Y745665D01*
D02*
G37*
G36*
X1027505Y729588D02*
X1027507Y729583D01*
X1027512Y729585D01*
X1027505Y729588D01*
D02*
G37*
G36*
X1027032Y729723D02*
D01*
X1027031Y729721D01*
X1027032Y729723D01*
D02*
G37*
G36*
X1027034Y729725D02*
X1027032Y729723D01*
X1027032D01*
X1027034Y729725D01*
D02*
G37*
G36*
X1040269Y728561D02*
X1040264Y728560D01*
X1040269Y728561D01*
Y728561D01*
D02*
G37*
G36*
X1031672Y729034D02*
X1031672D01*
X1031674Y729028D01*
X1031672Y729034D01*
D02*
G37*
G36*
X1027507Y729583D02*
X1027505Y729582D01*
X1027515Y729560D01*
X1027507Y729583D01*
D02*
G37*
G36*
X1027988Y729867D02*
Y729867D01*
X1027988Y729867D01*
X1027988Y729867D01*
D02*
G37*
G36*
X1026792Y730159D02*
X1026764Y730157D01*
Y730157D01*
X1026792Y730159D01*
D02*
G37*
G36*
X1028095Y730174D02*
X1028127Y730172D01*
X1028127Y730172D01*
X1028095Y730174D01*
D02*
G37*
G36*
X1031837Y730552D02*
X1031835Y730551D01*
X1031836Y730549D01*
X1031837Y730552D01*
D02*
G37*
G36*
X1027989Y729869D02*
X1027987Y729868D01*
X1027988Y729867D01*
X1027989Y729869D01*
D02*
G37*
G36*
X1026844Y729964D02*
X1026844Y729964D01*
D01*
X1026844Y729964D01*
D02*
G37*
G36*
X1026801Y730089D02*
X1026797Y730089D01*
X1026801Y730089D01*
Y730089D01*
D02*
G37*
G36*
X1030528Y728561D02*
X1030523Y728560D01*
X1030528Y728561D01*
Y728561D01*
D02*
G37*
G36*
X1028855Y727744D02*
X1028853Y727739D01*
X1028855Y727739D01*
Y727744D01*
D02*
G37*
G36*
X1039800Y727764D02*
X1039802Y727759D01*
X1039802D01*
X1039800Y727764D01*
D02*
G37*
G36*
X1030103Y727778D02*
X1030104Y727777D01*
D01*
X1030103Y727778D01*
D02*
G37*
G36*
X1027687Y724642D02*
X1027687Y724640D01*
X1027689Y724641D01*
X1027687Y724642D01*
D02*
G37*
G36*
X1039830Y724663D02*
X1039830Y724663D01*
X1039831Y724663D01*
X1039830Y724663D01*
D02*
G37*
G36*
X1027908Y724704D02*
X1027907Y724702D01*
X1027907Y724700D01*
X1027906Y724701D01*
X1027904Y724698D01*
X1027907Y724700D01*
Y724700D01*
X1027907Y724700D01*
X1027907D01*
Y724699D01*
X1027908Y724700D01*
X1027908Y724704D01*
D02*
G37*
G36*
X1030224Y727834D02*
X1030222Y727833D01*
X1030225Y727827D01*
X1030224Y727834D01*
D02*
G37*
G36*
X1030492Y728142D02*
X1030492Y728142D01*
Y728142D01*
X1030492Y728142D01*
D02*
G37*
G36*
X1040234D02*
X1040234Y728142D01*
Y728142D01*
X1040234Y728142D01*
D02*
G37*
G36*
X1031202Y728233D02*
X1031197Y728232D01*
Y728232D01*
X1031202Y728233D01*
D02*
G37*
G36*
X1040194Y728064D02*
X1040194Y728063D01*
X1040194Y728063D01*
X1040194Y728063D01*
X1040194Y728063D01*
X1040200Y728061D01*
X1040194Y728064D01*
D02*
G37*
G36*
X1040194Y728065D02*
X1040194Y728064D01*
X1040193Y728063D01*
X1040194Y728063D01*
X1040194Y728064D01*
X1040194Y728064D01*
X1040194Y728064D01*
X1040194Y728064D01*
X1040194Y728064D01*
X1040194Y728065D01*
D02*
G37*
G36*
X1040216Y728105D02*
X1040218Y728104D01*
D01*
X1040216Y728105D01*
D02*
G37*
G36*
X1031754Y730562D02*
X1031753Y730559D01*
X1031753D01*
X1031753Y730559D01*
Y730559D01*
X1031755Y730558D01*
X1031754Y730562D01*
D02*
G37*
G36*
X1031837Y745661D02*
X1031843Y745659D01*
X1031835Y745656D01*
X1031849Y745656D01*
X1031843Y745659D01*
X1031851Y745657D01*
X1031849Y745656D01*
X1031851Y745657D01*
X1031851D01*
X1031858Y745660D01*
X1031851Y745657D01*
X1031862Y745656D01*
X1031858Y745658D01*
X1031863Y745658D01*
X1031864Y745660D01*
X1031837Y745661D01*
D02*
G37*
G36*
X1031888Y745662D02*
X1031888Y745659D01*
X1031890Y745658D01*
X1031896Y745660D01*
X1031888Y745662D01*
D02*
G37*
G36*
X1031873Y745663D02*
X1031869Y745659D01*
X1031867Y745659D01*
X1031867Y745658D01*
X1031865Y745658D01*
X1031870Y745659D01*
D01*
X1031873Y745661D01*
X1031870Y745659D01*
X1031875Y745659D01*
X1031873Y745663D01*
D02*
G37*
G36*
X1027272Y735737D02*
D01*
X1027274Y735732D01*
X1027272Y735737D01*
D02*
G37*
G36*
X1031863Y745658D02*
X1031862Y745656D01*
X1031865Y745658D01*
X1031863Y745658D01*
D02*
G37*
G36*
X1031832Y745657D02*
X1031834Y745656D01*
D01*
X1031832Y745657D01*
D02*
G37*
G36*
X1031865Y745662D02*
X1031864Y745660D01*
X1031867Y745659D01*
X1031865Y745662D01*
D02*
G37*
G36*
X1031832Y745661D02*
Y745661D01*
X1031832Y745661D01*
X1031832Y745661D01*
D02*
G37*
G36*
X1031835Y745661D02*
X1031835Y745661D01*
X1031835D01*
Y745661D01*
D02*
G37*
G36*
X1031769Y745665D02*
X1031769Y745662D01*
D01*
X1031769Y745665D01*
D02*
G37*
G36*
X1031835Y745661D02*
X1031835Y745661D01*
X1031835Y745661D01*
X1031837Y745661D01*
X1031835Y745661D01*
D02*
G37*
G36*
X1031832Y745661D02*
X1031830Y745661D01*
X1031832Y745661D01*
X1031832Y745661D01*
D02*
G37*
G36*
X1031832Y745661D02*
X1031832Y745661D01*
D01*
X1031832Y745661D01*
D02*
G37*
G36*
X1031281Y730882D02*
X1031277Y730880D01*
D01*
X1031281Y730882D01*
D02*
G37*
G36*
X1032478Y731086D02*
X1032487Y731065D01*
X1032494Y731083D01*
D01*
Y731083D01*
Y731083D01*
X1032478Y731086D01*
D02*
G37*
G36*
X1031197Y731164D02*
X1031196Y731162D01*
X1031199Y731163D01*
X1031197Y731164D01*
D02*
G37*
G36*
X1031657Y730582D02*
X1031656Y730578D01*
X1031656D01*
X1031657Y730582D01*
D02*
G37*
G36*
X1032092Y730605D02*
X1032066Y730595D01*
X1032090Y730605D01*
X1032092Y730605D01*
D02*
G37*
G36*
X1032390Y730854D02*
X1032397Y730850D01*
Y730850D01*
X1032390Y730854D01*
D02*
G37*
G36*
X1031194Y731179D02*
X1031198Y731171D01*
X1031195Y731171D01*
X1031194Y731167D01*
X1031195Y731165D01*
X1031192Y731167D01*
X1031186Y731162D01*
X1031196Y731162D01*
D01*
D01*
D01*
X1031195Y731165D01*
X1031197Y731164D01*
X1031199Y731171D01*
X1031194Y731179D01*
D02*
G37*
G36*
X1032491Y731200D02*
X1032489Y731198D01*
D01*
D01*
D01*
X1032491Y731198D01*
X1032491Y731200D01*
D02*
G37*
G36*
X1032489Y731198D02*
Y731198D01*
X1032491Y731197D01*
X1032491Y731198D01*
X1032494Y731198D01*
Y731198D01*
X1032491Y731198D01*
D01*
X1032489Y731198D01*
D02*
G37*
G36*
X1032492Y731184D02*
X1032489Y731183D01*
X1032492Y731183D01*
X1032492Y731184D01*
D02*
G37*
G36*
X1026877Y735433D02*
X1026880Y735432D01*
X1026880Y735432D01*
X1026877Y735433D01*
D02*
G37*
G36*
X1031181Y731173D02*
X1031192Y731167D01*
X1031195Y731171D01*
X1031195D01*
X1031195Y731171D01*
X1031195Y731171D01*
X1031181Y731173D01*
D02*
G37*
%LPD*%
G36*
X1031870Y745659D02*
X1031867Y745658D01*
X1031869Y745659D01*
X1031870Y745659D01*
D02*
G37*
G36*
X1039674Y748574D02*
D01*
X1039676Y748575D01*
X1039674Y748574D01*
D02*
G37*
D29*
X715772Y777240D02*
X716026Y784098D01*
X691388Y777494D02*
X716026Y784098D01*
X691388Y777494D02*
X761238D01*
D40*
X907150Y775202D02*
G03*
X907150Y775202I-1250J0D01*
G01*
D47*
X872026Y699448D02*
G03*
X872026Y699448I-1000J0D01*
G01*
X827026Y759448D02*
X833026D01*
X827026Y694448D02*
Y759448D01*
Y694448D02*
X833026D01*
X853026D02*
X859026D01*
Y759448D01*
X853026D02*
X859026D01*
D78*
X902500Y753452D02*
G03*
X902500Y753452I-3000J0D01*
G01*
D79*
X1040208Y694995D02*
G03*
X1040218Y695099I-558J104D01*
G01*
X1040196Y694941D02*
G03*
X1040208Y694995I-549J159D01*
G01*
X1040182Y694901D02*
G03*
X1040196Y694941I-542J201D01*
G01*
X1040168Y694865D02*
G03*
X1040182Y694901I-533J238D01*
G01*
X1040151Y694830D02*
G03*
X1040168Y694865I-521J276D01*
G01*
X1040129Y694792D02*
G03*
X1040151Y694830I-504J317D01*
G01*
X1039984Y694633D02*
G03*
X1040129Y694792I-369J481D01*
G01*
X1039936Y694600D02*
G03*
X1039984Y694633I-318J511D01*
G01*
X1039899Y694578D02*
G03*
X1039936Y694600I-277J527D01*
G01*
X1039863Y694561D02*
G03*
X1039899Y694578I-239J539D01*
G01*
X1039827Y694547D02*
G03*
X1039863Y694561I-200J548D01*
G01*
X1039786Y694533D02*
G03*
X1039827Y694547I-158J556D01*
G01*
X1039631Y694512D02*
G03*
X1039786Y694534I-0J568D01*
G01*
X1039523Y694522D02*
G03*
X1039631Y694512I108J556D01*
G01*
X1039473Y694534D02*
G03*
X1039524Y694522I159J549D01*
G01*
X1039435Y694547D02*
G03*
X1039473Y694534I199J542D01*
G01*
X1039400Y694561D02*
G03*
X1039435Y694547I236J534D01*
G01*
X1039365Y694577D02*
G03*
X1039400Y694561I273J523D01*
G01*
X1039328Y694599D02*
G03*
X1039365Y694577I312J507D01*
G01*
X1039163Y694749D02*
G03*
X1039328Y694599I484J366D01*
G01*
X1039132Y694794D02*
G03*
X1039164Y694749I511J318D01*
G01*
X1039111Y694831D02*
G03*
X1039132Y694794I527J277D01*
G01*
X1039094Y694867D02*
G03*
X1039111Y694831I539J239D01*
G01*
X1039079Y694902D02*
G03*
X1039094Y694867I547J201D01*
G01*
X1039066Y694942D02*
G03*
X1039079Y694902I555J159D01*
G01*
X1039044Y695099D02*
G03*
X1039066Y694942I568J0D01*
G01*
X1028515Y695085D02*
G03*
X1028515Y695099I-606J13D01*
G01*
X1028512Y695043D02*
G03*
X1028515Y695085I-599J56D01*
G01*
X1028503Y694978D02*
G03*
X1028513Y695043I-583J120D01*
G01*
X1028444Y694816D02*
G03*
X1028503Y694978I-517J280D01*
G01*
X1028119Y694543D02*
G03*
X1028444Y694816I-185J549D01*
G01*
X1028077Y694530D02*
G03*
X1028119Y694543I-143J565D01*
G01*
X1028046Y694523D02*
G03*
X1028077Y694530I-114J578D01*
G01*
X1028020Y694519D02*
G03*
X1028046Y694523I-90J588D01*
G01*
X1027998Y694516D02*
G03*
X1028020Y694519I-68J597D01*
G01*
X1027979Y694514D02*
G03*
X1027998Y694516I-50J605D01*
G01*
X1027961Y694513D02*
G03*
X1027979Y694514I-32J613D01*
G01*
X1027944Y694512D02*
G03*
X1027961Y694513I-16J620D01*
G01*
X1027928Y694512D02*
G03*
X1027944Y694512I0J626D01*
G01*
X1027918Y694512D02*
G03*
X1027928Y694512I10J567D01*
G01*
X1027892Y694513D02*
G03*
X1027918Y694512I36J562D01*
G01*
X1027709Y694557D02*
G03*
X1027892Y694513I218J507D01*
G01*
X1027665Y694578D02*
G03*
X1027709Y694557I265J490D01*
G01*
X1027628Y694600D02*
G03*
X1027665Y694578I303J474D01*
G01*
X1027596Y694622D02*
G03*
X1027628Y694600I340J457D01*
G01*
X1027563Y694648D02*
G03*
X1027596Y694622I376J435D01*
G01*
X1027529Y694680D02*
G03*
X1027563Y694648I413J408D01*
G01*
X1027490Y694724D02*
G03*
X1027529Y694680I457J368D01*
G01*
X1027429Y694817D02*
G03*
X1027490Y694724I523J279D01*
G01*
X1027361Y695044D02*
G03*
X1027429Y694817I594J54D01*
G01*
X1027358Y695099D02*
G03*
X1027361Y695044I604J-0D01*
G01*
X1027358Y702913D02*
G03*
X1027358Y702895I604J-18D01*
G01*
X1027369Y703008D02*
G03*
X1027358Y702913I589J-113D01*
G01*
X1027483Y703260D02*
G03*
X1027369Y703008I472J-364D01*
G01*
X1027523Y703307D02*
G03*
X1027483Y703260I425J-407D01*
G01*
X1027557Y703340D02*
G03*
X1027523Y703307I387J-435D01*
G01*
X1027589Y703366D02*
G03*
X1027557Y703340I351J-458D01*
G01*
X1027621Y703389D02*
G03*
X1027589Y703366I315J-476D01*
G01*
X1027655Y703410D02*
G03*
X1027621Y703389I278J-492D01*
G01*
X1027696Y703431D02*
G03*
X1027655Y703410I235J-507D01*
G01*
X1027815Y703470D02*
G03*
X1027696Y703431I112J-540D01*
G01*
X1027873Y703479D02*
G03*
X1027815Y703470I55J-550D01*
G01*
X1027904Y703481D02*
G03*
X1027873Y703479I24J-558D01*
G01*
X1027928Y703482D02*
G03*
X1027904Y703481I-0J-565D01*
G01*
X1039728Y703473D02*
G03*
X1039631Y703482I-97J-558D01*
G01*
X1039782Y703461D02*
G03*
X1039728Y703474I-152J-550D01*
G01*
X1039821Y703449D02*
G03*
X1039782Y703461I-193J-543D01*
G01*
X1039856Y703435D02*
G03*
X1039821Y703449I-230J-535D01*
G01*
X1039890Y703419D02*
G03*
X1039856Y703435I-266J-525D01*
G01*
X1039926Y703400D02*
G03*
X1039890Y703419I-304J-511D01*
G01*
X1040110Y703230D02*
G03*
X1039926Y703400I-495J-351D01*
G01*
X1040137Y703187D02*
G03*
X1040110Y703230I-517J-305D01*
G01*
X1040157Y703152D02*
G03*
X1040137Y703188I-531J-266D01*
G01*
X1040173Y703118D02*
G03*
X1040157Y703152I-541J-229D01*
G01*
X1040186Y703083D02*
G03*
X1040173Y703118I-549J-192D01*
G01*
X1040199Y703042D02*
G03*
X1040186Y703083I-556J-149D01*
G01*
X1040218Y702895D02*
G03*
X1040199Y703042I-567J-0D01*
G01*
X1027918Y705157D02*
G03*
X1027928Y705157I10J567D01*
G01*
X1027892Y705158D02*
G03*
X1027918Y705157I36J562D01*
G01*
X1027709Y705202D02*
G03*
X1027892Y705158I218J507D01*
G01*
X1027665Y705223D02*
G03*
X1027709Y705202I265J490D01*
G01*
X1027628Y705244D02*
G03*
X1027665Y705223I303J474D01*
G01*
X1027596Y705267D02*
G03*
X1027628Y705244I340J457D01*
G01*
X1027563Y705293D02*
G03*
X1027596Y705267I376J435D01*
G01*
X1027529Y705325D02*
G03*
X1027563Y705293I413J408D01*
G01*
X1027490Y705368D02*
G03*
X1027529Y705325I457J368D01*
G01*
X1027429Y705462D02*
G03*
X1027490Y705368I523J279D01*
G01*
X1027361Y705688D02*
G03*
X1027429Y705462I594J54D01*
G01*
X1027358Y705743D02*
G03*
X1027361Y705688I604J-0D01*
G01*
X1027363Y705820D02*
G03*
X1027358Y705753I596J-76D01*
G01*
X1027466Y706085D02*
G03*
X1027363Y705820I488J-341D01*
G01*
X1027512Y706144D02*
G03*
X1027466Y706085I437J-396D01*
G01*
X1027549Y706180D02*
G03*
X1027512Y706144I396J-429D01*
G01*
X1027581Y706209D02*
G03*
X1027549Y706180I359J-452D01*
G01*
X1027614Y706233D02*
G03*
X1027581Y706209I322J-472D01*
G01*
X1027649Y706255D02*
G03*
X1027614Y706233I284J-489D01*
G01*
X1027689Y706276D02*
G03*
X1027649Y706255I241J-505D01*
G01*
X1027820Y706319D02*
G03*
X1027689Y706276I107J-542D01*
G01*
X1027874Y706327D02*
G03*
X1027820Y706319I54J-551D01*
G01*
X1027904Y706329D02*
G03*
X1027874Y706327I24J-559D01*
G01*
X1027928Y706330D02*
G03*
X1027904Y706329I-0J-566D01*
G01*
X1027588Y713069D02*
G03*
X1027609Y713053I367J482D01*
G01*
X1027419Y713271D02*
G03*
X1027588Y713069I527J271D01*
G01*
X1027356Y713477D02*
G03*
X1027419Y713271I598J69D01*
G01*
X1027353Y713562D02*
G03*
X1027356Y713477I600J-17D01*
G01*
X1027356Y713616D02*
G03*
X1027353Y713562I590J-70D01*
G01*
X1027364Y713662D02*
G03*
X1027356Y713616I576J-115D01*
G01*
X1027375Y713707D02*
G03*
X1027364Y713662I560J-160D01*
G01*
X1027380Y713723D02*
G03*
X1027375Y713707I642J-232D01*
G01*
X1027388Y713743D02*
G03*
X1027380Y713723I629J-249D01*
G01*
X1027396Y713763D02*
G03*
X1027388Y713743I614J-267D01*
G01*
X1027406Y713784D02*
G03*
X1027396Y713763I599J-285D01*
G01*
X1027416Y713804D02*
G03*
X1027406Y713784I582J-303D01*
G01*
X1027427Y713825D02*
G03*
X1027416Y713804I565J-320D01*
G01*
X1027439Y713846D02*
G03*
X1027427Y713825I547J-338D01*
G01*
X1027452Y713866D02*
G03*
X1027439Y713846I528J-355D01*
G01*
X1027466Y713886D02*
G03*
X1027452Y713866I509J-371D01*
G01*
X1027481Y713905D02*
G03*
X1027466Y713886I489J-386D01*
G01*
X1027497Y713924D02*
G03*
X1027481Y713905I469J-402D01*
G01*
X1027513Y713943D02*
G03*
X1027497Y713924I447J-416D01*
G01*
X1027531Y713961D02*
G03*
X1027513Y713943I425J-430D01*
G01*
X1027550Y713979D02*
G03*
X1027531Y713961I402J-443D01*
G01*
X1027569Y713996D02*
G03*
X1027550Y713979I378J-456D01*
G01*
X1027590Y714013D02*
G03*
X1027569Y713996I353J-468D01*
G01*
X1027613Y714029D02*
G03*
X1027590Y714013I327J-480D01*
G01*
X1027638Y714045D02*
G03*
X1027613Y714029I298J-491D01*
G01*
X1027667Y714061D02*
G03*
X1027638Y714045I267J-502D01*
G01*
X1027701Y714078D02*
G03*
X1027667Y714061I230J-514D01*
G01*
X1027853Y714121D02*
G03*
X1027701Y714078I74J-549D01*
G01*
X1027898Y714126D02*
G03*
X1027853Y714121I30J-556D01*
G01*
X1027928Y714127D02*
G03*
X1027898Y714126I-0J-563D01*
G01*
X1039728Y714118D02*
G03*
X1039631Y714126I-97J-558D01*
G01*
X1039782Y714106D02*
G03*
X1039728Y714118I-152J-550D01*
G01*
X1039821Y714094D02*
G03*
X1039782Y714106I-193J-543D01*
G01*
X1039856Y714080D02*
G03*
X1039821Y714094I-230J-535D01*
G01*
X1039890Y714064D02*
G03*
X1039856Y714080I-266J-525D01*
G01*
X1039926Y714045D02*
G03*
X1039890Y714064I-304J-511D01*
G01*
X1040110Y713874D02*
G03*
X1039926Y714045I-495J-351D01*
G01*
X1040137Y713832D02*
G03*
X1040110Y713874I-517J-305D01*
G01*
X1040157Y713796D02*
G03*
X1040137Y713832I-531J-266D01*
G01*
X1040173Y713762D02*
G03*
X1040157Y713796I-541J-229D01*
G01*
X1040186Y713727D02*
G03*
X1040173Y713762I-549J-192D01*
G01*
X1040199Y713687D02*
G03*
X1040186Y713727I-556J-149D01*
G01*
X1040218Y713540D02*
G03*
X1040199Y713687I-567J-0D01*
G01*
X1040209Y713438D02*
G03*
X1040218Y713540I-557J101D01*
G01*
X1040197Y713387D02*
G03*
X1040209Y713438I-550J153D01*
G01*
X1040185Y713348D02*
G03*
X1040197Y713387I-543J193D01*
G01*
X1040171Y713314D02*
G03*
X1040185Y713348I-535J230D01*
G01*
X1040155Y713280D02*
G03*
X1040171Y713314I-525J267D01*
G01*
X1040135Y713244D02*
G03*
X1040155Y713280I-510J305D01*
G01*
X1039970Y713064D02*
G03*
X1040135Y713244I-355J492D01*
G01*
X1039928Y713036D02*
G03*
X1039970Y713064I-309J515D01*
G01*
X1039892Y713016D02*
G03*
X1039928Y713036I-270J529D01*
G01*
X1039857Y713000D02*
G03*
X1039892Y713016I-233J540D01*
G01*
X1039821Y712986D02*
G03*
X1039857Y713000I-195J549D01*
G01*
X1039782Y712973D02*
G03*
X1039821Y712986I-153J556D01*
G01*
X1039631Y712953D02*
G03*
X1039782Y712973I-0J567D01*
G01*
X1039977Y706221D02*
G03*
X1039967Y706230I-416J-511D01*
G01*
X1039994Y706207D02*
G03*
X1039977Y706221I-435J-501D01*
G01*
X1040013Y706190D02*
G03*
X1039994Y706207I-459J-489D01*
G01*
X1040096Y706096D02*
G03*
X1040013Y706190I-550J-403D01*
G01*
X1040117Y706065D02*
G03*
X1040096Y706096I-568J-370D01*
G01*
X1040131Y706044D02*
G03*
X1040117Y706065I-576J-345D01*
G01*
X1040141Y706026D02*
G03*
X1040131Y706044I-580J-323D01*
G01*
X1040149Y706011D02*
G03*
X1040141Y706026I-582J-305D01*
G01*
X1040156Y705996D02*
G03*
X1040149Y706011I-584J-287D01*
G01*
X1040163Y705983D02*
G03*
X1040156Y705996I-584J-271D01*
G01*
X1040169Y705971D02*
G03*
X1040163Y705983I-584J-256D01*
G01*
X1040174Y705959D02*
G03*
X1040169Y705971I-583J-242D01*
G01*
X1040178Y705947D02*
G03*
X1040174Y705959I-582J-228D01*
G01*
X1040182Y705936D02*
G03*
X1040178Y705947I-580J-214D01*
G01*
X1040186Y705926D02*
G03*
X1040182Y705936I-578J-201D01*
G01*
X1040190Y705915D02*
G03*
X1040186Y705926I-576J-189D01*
G01*
X1040193Y705905D02*
G03*
X1040190Y705915I-573J-177D01*
G01*
X1040196Y705895D02*
G03*
X1040193Y705905I-570J-165D01*
G01*
X1040199Y705884D02*
G03*
X1040196Y705894I-567J-153D01*
G01*
X1040206Y705855D02*
G03*
X1040204Y705865I-557J-119D01*
G01*
X1040208Y705845D02*
G03*
X1040206Y705855I-553J-108D01*
G01*
X1040210Y705835D02*
G03*
X1040208Y705845I-549J-97D01*
G01*
X1040211Y705826D02*
G03*
X1040210Y705835I-545J-86D01*
G01*
X1040213Y705816D02*
G03*
X1040211Y705826I-541J-75D01*
G01*
X1040214Y705806D02*
G03*
X1040213Y705816I-536J-65D01*
G01*
X1040215Y705796D02*
G03*
X1040214Y705806I-532J-54D01*
G01*
X1040216Y705786D02*
G03*
X1040215Y705796I-527J-44D01*
G01*
X1040217Y705776D02*
G03*
X1040216Y705786I-523J-33D01*
G01*
X1040218Y705766D02*
G03*
X1040217Y705776I-518J-22D01*
G01*
X1040218Y705755D02*
G03*
X1040218Y705766I-513J-12D01*
G01*
X1040218Y705743D02*
G03*
X1040218Y705755I-507J0D01*
G01*
X1040195Y705557D02*
G03*
X1040200Y705573I-640J234D01*
G01*
X1040188Y705541D02*
G03*
X1040195Y705557I-627J248D01*
G01*
X1040182Y705525D02*
G03*
X1040188Y705541I-614J261D01*
G01*
X1040175Y705508D02*
G03*
X1040182Y705525I-601J275D01*
G01*
X1040167Y705492D02*
G03*
X1040175Y705508I-587J289D01*
G01*
X1040158Y705475D02*
G03*
X1040167Y705492I-572J302D01*
G01*
X1040149Y705459D02*
G03*
X1040158Y705475I-557J316D01*
G01*
X1040139Y705441D02*
G03*
X1040149Y705459I-542J330D01*
G01*
X1040128Y705424D02*
G03*
X1040139Y705441I-525J344D01*
G01*
X1040116Y705406D02*
G03*
X1040128Y705424I-507J359D01*
G01*
X1040102Y705388D02*
G03*
X1040116Y705406I-489J373D01*
G01*
X1040088Y705369D02*
G03*
X1040102Y705388I-469J388D01*
G01*
X1040070Y705349D02*
G03*
X1040088Y705369I-447J404D01*
G01*
X1040051Y705328D02*
G03*
X1040070Y705349I-423J421D01*
G01*
X1040027Y705306D02*
G03*
X1040051Y705328I-395J439D01*
G01*
X1039996Y705280D02*
G03*
X1040027Y705306I-360J461D01*
G01*
X1039885Y705212D02*
G03*
X1039996Y705280I-244J522D01*
G01*
X1039826Y705188D02*
G03*
X1039885Y705212I-185J547D01*
G01*
X1039793Y705178D02*
G03*
X1039826Y705188I-154J563D01*
G01*
X1039767Y705172D02*
G03*
X1039793Y705178I-130J576D01*
G01*
X1039744Y705167D02*
G03*
X1039767Y705172I-109J586D01*
G01*
X1039725Y705164D02*
G03*
X1039744Y705167I-90J596D01*
G01*
X1039707Y705161D02*
G03*
X1039725Y705164I-74J604D01*
G01*
X1039691Y705159D02*
G03*
X1039707Y705161I-58J612D01*
G01*
X1039675Y705158D02*
G03*
X1039691Y705159I-43J619D01*
G01*
X1039660Y705157D02*
G03*
X1039675Y705158I-28J627D01*
G01*
X1039646Y705157D02*
G03*
X1039660Y705157I-14J634D01*
G01*
X1039631Y705157D02*
G03*
X1039646Y705157I0J641D01*
G01*
X1040208Y716285D02*
G03*
X1040218Y716389I-558J104D01*
G01*
X1040196Y716231D02*
G03*
X1040208Y716285I-549J159D01*
G01*
X1040182Y716190D02*
G03*
X1040196Y716231I-542J201D01*
G01*
X1040168Y716155D02*
G03*
X1040182Y716190I-533J238D01*
G01*
X1040151Y716120D02*
G03*
X1040168Y716155I-521J276D01*
G01*
X1040129Y716082D02*
G03*
X1040151Y716120I-504J317D01*
G01*
X1039984Y715923D02*
G03*
X1040129Y716082I-369J481D01*
G01*
X1039936Y715890D02*
G03*
X1039984Y715923I-318J511D01*
G01*
X1039899Y715868D02*
G03*
X1039936Y715890I-277J527D01*
G01*
X1039863Y715851D02*
G03*
X1039899Y715868I-239J539D01*
G01*
X1039827Y715836D02*
G03*
X1039863Y715851I-200J548D01*
G01*
X1039786Y715823D02*
G03*
X1039827Y715836I-158J556D01*
G01*
X1039631Y715802D02*
G03*
X1039786Y715823I-0J568D01*
G01*
X1039523Y715812D02*
G03*
X1039631Y715802I108J556D01*
G01*
X1039473Y715824D02*
G03*
X1039524Y715812I159J549D01*
G01*
X1039435Y715837D02*
G03*
X1039473Y715824I199J542D01*
G01*
X1039400Y715851D02*
G03*
X1039435Y715837I236J534D01*
G01*
X1039365Y715867D02*
G03*
X1039400Y715851I273J523D01*
G01*
X1039328Y715889D02*
G03*
X1039365Y715867I312J507D01*
G01*
X1039163Y716038D02*
G03*
X1039328Y715889I484J366D01*
G01*
X1039132Y716084D02*
G03*
X1039164Y716038I511J318D01*
G01*
X1039111Y716121D02*
G03*
X1039132Y716084I527J277D01*
G01*
X1039094Y716156D02*
G03*
X1039111Y716121I539J239D01*
G01*
X1039079Y716192D02*
G03*
X1039094Y716156I547J201D01*
G01*
X1039066Y716232D02*
G03*
X1039079Y716192I555J159D01*
G01*
X1039044Y716389D02*
G03*
X1039066Y716232I568J0D01*
G01*
X1028515Y716375D02*
G03*
X1028515Y716389I-606J13D01*
G01*
X1028512Y716333D02*
G03*
X1028515Y716375I-599J56D01*
G01*
X1028503Y716268D02*
G03*
X1028513Y716333I-583J120D01*
G01*
X1028444Y716106D02*
G03*
X1028503Y716268I-517J280D01*
G01*
X1028119Y715833D02*
G03*
X1028444Y716106I-185J549D01*
G01*
X1028077Y715820D02*
G03*
X1028119Y715833I-143J565D01*
G01*
X1028046Y715813D02*
G03*
X1028077Y715820I-114J578D01*
G01*
X1028020Y715809D02*
G03*
X1028046Y715813I-90J588D01*
G01*
X1027998Y715806D02*
G03*
X1028020Y715809I-68J597D01*
G01*
X1027979Y715804D02*
G03*
X1027998Y715806I-50J605D01*
G01*
X1027961Y715803D02*
G03*
X1027979Y715804I-32J613D01*
G01*
X1027944Y715802D02*
G03*
X1027961Y715803I-16J620D01*
G01*
X1027928Y715802D02*
G03*
X1027944Y715802I0J626D01*
G01*
X1027918Y715802D02*
G03*
X1027928Y715802I10J567D01*
G01*
X1027892Y715803D02*
G03*
X1027918Y715802I36J562D01*
G01*
X1027709Y715847D02*
G03*
X1027892Y715803I218J507D01*
G01*
X1027665Y715868D02*
G03*
X1027709Y715847I265J490D01*
G01*
X1027628Y715890D02*
G03*
X1027665Y715868I303J474D01*
G01*
X1027596Y715912D02*
G03*
X1027628Y715890I340J457D01*
G01*
X1027563Y715938D02*
G03*
X1027596Y715912I376J435D01*
G01*
X1027529Y715970D02*
G03*
X1027563Y715938I413J408D01*
G01*
X1027490Y716014D02*
G03*
X1027529Y715970I457J368D01*
G01*
X1027429Y716107D02*
G03*
X1027490Y716014I523J279D01*
G01*
X1027361Y716334D02*
G03*
X1027429Y716107I594J54D01*
G01*
X1027358Y716389D02*
G03*
X1027361Y716334I604J-0D01*
G01*
X1027358Y724203D02*
G03*
X1027358Y724185I604J-18D01*
G01*
X1027369Y724298D02*
G03*
X1027358Y724203I589J-113D01*
G01*
X1027483Y724550D02*
G03*
X1027369Y724298I472J-364D01*
G01*
X1027523Y724597D02*
G03*
X1027483Y724550I425J-407D01*
G01*
X1027557Y724630D02*
G03*
X1027523Y724597I387J-435D01*
G01*
X1027589Y724656D02*
G03*
X1027557Y724630I351J-458D01*
G01*
X1027621Y724679D02*
G03*
X1027589Y724656I315J-476D01*
G01*
X1027655Y724700D02*
G03*
X1027621Y724679I278J-492D01*
G01*
X1027696Y724721D02*
G03*
X1027655Y724700I235J-507D01*
G01*
X1027815Y724760D02*
G03*
X1027696Y724721I112J-540D01*
G01*
X1027873Y724769D02*
G03*
X1027815Y724760I55J-550D01*
G01*
X1027904Y724771D02*
G03*
X1027873Y724769I24J-558D01*
G01*
X1027928Y724772D02*
G03*
X1027904Y724771I-0J-565D01*
G01*
X1039728Y724763D02*
G03*
X1039631Y724772I-97J-558D01*
G01*
X1039782Y724751D02*
G03*
X1039728Y724763I-152J-550D01*
G01*
X1039821Y724739D02*
G03*
X1039782Y724751I-193J-543D01*
G01*
X1039856Y724725D02*
G03*
X1039821Y724739I-230J-535D01*
G01*
X1039890Y724709D02*
G03*
X1039856Y724725I-266J-525D01*
G01*
X1039926Y724690D02*
G03*
X1039890Y724709I-304J-511D01*
G01*
X1040110Y724519D02*
G03*
X1039926Y724690I-495J-351D01*
G01*
X1040137Y724477D02*
G03*
X1040110Y724519I-517J-305D01*
G01*
X1040157Y724441D02*
G03*
X1040137Y724477I-531J-266D01*
G01*
X1040173Y724407D02*
G03*
X1040157Y724441I-541J-229D01*
G01*
X1040186Y724372D02*
G03*
X1040173Y724407I-549J-192D01*
G01*
X1040199Y724332D02*
G03*
X1040186Y724372I-556J-149D01*
G01*
X1040218Y724185D02*
G03*
X1040199Y724332I-567J-0D01*
G01*
X1031740Y727816D02*
G03*
X1031835Y727808I95J558D01*
G01*
X1031687Y727828D02*
G03*
X1031740Y727816I149J550D01*
G01*
X1031648Y727840D02*
G03*
X1031687Y727828I189J544D01*
G01*
X1031614Y727853D02*
G03*
X1031648Y727840I225J536D01*
G01*
X1031581Y727868D02*
G03*
X1031614Y727853I261J527D01*
G01*
X1031546Y727887D02*
G03*
X1031581Y727868I298J513D01*
G01*
X1031507Y727912D02*
G03*
X1031546Y727887I340J494D01*
G01*
X1031403Y728003D02*
G03*
X1031507Y727912I449J409D01*
G01*
X1031352Y728067D02*
G03*
X1031403Y728003I499J344D01*
G01*
X1031326Y728107D02*
G03*
X1031352Y728067I519J300D01*
G01*
X1031308Y728142D02*
G03*
X1031326Y728107I532J262D01*
G01*
X1031292Y728176D02*
G03*
X1031308Y728142I542J226D01*
G01*
X1031279Y728211D02*
G03*
X1031292Y728176I550J188D01*
G01*
X1031267Y728251D02*
G03*
X1031279Y728211I556J147D01*
G01*
X1031248Y728395D02*
G03*
X1031267Y728251I567J0D01*
G01*
X1031256Y728490D02*
G03*
X1031248Y728395I558J-95D01*
G01*
X1031268Y728543D02*
G03*
X1031256Y728490I550J-149D01*
G01*
X1031280Y728582D02*
G03*
X1031268Y728543I544J-189D01*
G01*
X1031293Y728616D02*
G03*
X1031280Y728582I536J-225D01*
G01*
X1031308Y728649D02*
G03*
X1031293Y728616I527J-261D01*
G01*
X1031327Y728684D02*
G03*
X1031308Y728649I513J-298D01*
G01*
X1031352Y728723D02*
G03*
X1031327Y728684I494J-340D01*
G01*
X1031443Y728827D02*
G03*
X1031352Y728723I409J-449D01*
G01*
X1031507Y728879D02*
G03*
X1031443Y728827I344J-499D01*
G01*
X1031547Y728904D02*
G03*
X1031507Y728879I300J-519D01*
G01*
X1031582Y728922D02*
G03*
X1031547Y728904I262J-532D01*
G01*
X1031616Y728938D02*
G03*
X1031582Y728923I226J-542D01*
G01*
X1031651Y728951D02*
G03*
X1031616Y728938I188J-550D01*
G01*
X1031691Y728963D02*
G03*
X1031651Y728951I147J-556D01*
G01*
X1031835Y728982D02*
G03*
X1031691Y728963I0J-567D01*
G01*
X1039728Y728974D02*
G03*
X1039632Y728982I-97J-558D01*
G01*
X1039782Y728961D02*
G03*
X1039728Y728974I-152J-550D01*
G01*
X1039822Y728949D02*
G03*
X1039782Y728961I-193J-543D01*
G01*
X1039857Y728935D02*
G03*
X1039822Y728949I-230J-535D01*
G01*
X1039891Y728920D02*
G03*
X1039857Y728935I-266J-525D01*
G01*
X1039926Y728900D02*
G03*
X1039891Y728920I-304J-511D01*
G01*
X1040111Y728730D02*
G03*
X1039926Y728900I-495J-351D01*
G01*
X1040138Y728688D02*
G03*
X1040111Y728730I-517J-305D01*
G01*
X1040157Y728652D02*
G03*
X1040138Y728688I-531J-266D01*
G01*
X1040173Y728618D02*
G03*
X1040157Y728652I-541J-229D01*
G01*
X1040187Y728583D02*
G03*
X1040173Y728618I-549J-192D01*
G01*
X1040199Y728542D02*
G03*
X1040187Y728583I-556J-149D01*
G01*
X1040219Y728395D02*
G03*
X1040199Y728542I-567J-0D01*
G01*
X1040209Y728294D02*
G03*
X1040219Y728395I-557J101D01*
G01*
X1040198Y728242D02*
G03*
X1040209Y728294I-550J153D01*
G01*
X1040185Y728204D02*
G03*
X1040198Y728242I-543J193D01*
G01*
X1040172Y728169D02*
G03*
X1040185Y728204I-535J230D01*
G01*
X1040156Y728135D02*
G03*
X1040172Y728169I-525J267D01*
G01*
X1040136Y728099D02*
G03*
X1040156Y728135I-510J305D01*
G01*
X1039971Y727919D02*
G03*
X1040136Y728099I-355J492D01*
G01*
X1039928Y727891D02*
G03*
X1039971Y727919I-309J515D01*
G01*
X1039893Y727871D02*
G03*
X1039928Y727891I-270J529D01*
G01*
X1039858Y727855D02*
G03*
X1039893Y727871I-233J540D01*
G01*
X1039822Y727841D02*
G03*
X1039858Y727855I-195J549D01*
G01*
X1039782Y727829D02*
G03*
X1039822Y727841I-153J556D01*
G01*
X1039632Y727808D02*
G03*
X1039782Y727829I-0J567D01*
G01*
X1028892Y727809D02*
G03*
X1028908Y727808I26J621D01*
G01*
X1028874Y727810D02*
G03*
X1028892Y727809I43J613D01*
G01*
X1028855Y727812D02*
G03*
X1028874Y727810I63J605D01*
G01*
X1028832Y727814D02*
G03*
X1028855Y727811I84J596D01*
G01*
X1028808Y727818D02*
G03*
X1028832Y727814I108J586D01*
G01*
X1028778Y727824D02*
G03*
X1028808Y727818I137J574D01*
G01*
X1028506Y727975D02*
G03*
X1028778Y727824I405J411D01*
G01*
X1028398Y728121D02*
G03*
X1028506Y727975I518J271D01*
G01*
X1028340Y728294D02*
G03*
X1028398Y728121I580J99D01*
G01*
X1028333Y728354D02*
G03*
X1028340Y728294I594J40D01*
G01*
X1028331Y728395D02*
G03*
X1028333Y728354I602J-0D01*
G01*
X1028331Y728407D02*
G03*
X1028331Y728395I604J-11D01*
G01*
X1028334Y728452D02*
G03*
X1028331Y728407I597J-57D01*
G01*
X1028346Y728527D02*
G03*
X1028334Y728452I579J-131D01*
G01*
X1028443Y728742D02*
G03*
X1028346Y728527I476J-344D01*
G01*
X1028718Y728948D02*
G03*
X1028443Y728742I194J-545D01*
G01*
X1028765Y728962D02*
G03*
X1028718Y728948I148J-563D01*
G01*
X1028797Y728970D02*
G03*
X1028765Y728962I117J-576D01*
G01*
X1028824Y728975D02*
G03*
X1028797Y728970I91J-587D01*
G01*
X1028846Y728978D02*
G03*
X1028824Y728975I70J-596D01*
G01*
X1028866Y728980D02*
G03*
X1028846Y728978I50J-604D01*
G01*
X1028884Y728981D02*
G03*
X1028866Y728980I33J-611D01*
G01*
X1028901Y728982D02*
G03*
X1028884Y728981I17J-618D01*
G01*
X1028918Y728982D02*
G03*
X1028901Y728982I-0J-625D01*
G01*
X1029987Y728974D02*
G03*
X1029890Y728982I-97J-558D01*
G01*
X1030041Y728961D02*
G03*
X1029987Y728974I-152J-550D01*
G01*
X1030081Y728949D02*
G03*
X1030041Y728961I-193J-543D01*
G01*
X1030116Y728935D02*
G03*
X1030081Y728949I-230J-535D01*
G01*
X1030150Y728920D02*
G03*
X1030116Y728935I-266J-525D01*
G01*
X1030185Y728900D02*
G03*
X1030150Y728920I-304J-511D01*
G01*
X1030369Y728730D02*
G03*
X1030185Y728900I-495J-351D01*
G01*
X1030396Y728688D02*
G03*
X1030369Y728730I-517J-305D01*
G01*
X1030416Y728652D02*
G03*
X1030396Y728688I-531J-266D01*
G01*
X1030432Y728618D02*
G03*
X1030416Y728652I-541J-229D01*
G01*
X1030445Y728583D02*
G03*
X1030432Y728618I-549J-192D01*
G01*
X1030458Y728542D02*
G03*
X1030445Y728583I-556J-149D01*
G01*
X1030477Y728395D02*
G03*
X1030458Y728542I-567J-0D01*
G01*
X1030468Y728294D02*
G03*
X1030477Y728395I-557J101D01*
G01*
X1030456Y728242D02*
G03*
X1030468Y728294I-550J153D01*
G01*
X1030444Y728204D02*
G03*
X1030456Y728242I-543J193D01*
G01*
X1030430Y728169D02*
G03*
X1030444Y728204I-535J230D01*
G01*
X1030414Y728135D02*
G03*
X1030430Y728169I-525J267D01*
G01*
X1030395Y728099D02*
G03*
X1030414Y728135I-510J305D01*
G01*
X1030229Y727919D02*
G03*
X1030395Y728099I-355J492D01*
G01*
X1030187Y727891D02*
G03*
X1030229Y727919I-309J515D01*
G01*
X1030151Y727871D02*
G03*
X1030187Y727891I-270J529D01*
G01*
X1030117Y727855D02*
G03*
X1030151Y727871I-233J540D01*
G01*
X1030081Y727841D02*
G03*
X1030117Y727855I-195J549D01*
G01*
X1030041Y727829D02*
G03*
X1030081Y727841I-153J556D01*
G01*
X1029890Y727808D02*
G03*
X1030041Y727829I-0J567D01*
G01*
X1027419Y729652D02*
G03*
X1027443Y729652I24J604D01*
G01*
X1027319Y729665D02*
G03*
X1027419Y729652I124J586D01*
G01*
X1027075Y729778D02*
G03*
X1027319Y729665I366J470D01*
G01*
X1027028Y729818D02*
G03*
X1027075Y729778I409J423D01*
G01*
X1026996Y729853D02*
G03*
X1027028Y729818I437J384D01*
G01*
X1026969Y729885D02*
G03*
X1026996Y729853I459J348D01*
G01*
X1026947Y729917D02*
G03*
X1026969Y729885I477J313D01*
G01*
X1026926Y729951D02*
G03*
X1026947Y729917I493J275D01*
G01*
X1026906Y729992D02*
G03*
X1026926Y729951I508J232D01*
G01*
X1026868Y730104D02*
G03*
X1026906Y729992I539J117D01*
G01*
X1026859Y730166D02*
G03*
X1026868Y730104I550J55D01*
G01*
X1026856Y730197D02*
G03*
X1026859Y730166I558J24D01*
G01*
X1026856Y730222D02*
G03*
X1026856Y730197I564J-0D01*
G01*
X1026865Y735202D02*
G03*
X1026856Y735101I557J-101D01*
G01*
X1026877Y735253D02*
G03*
X1026865Y735202I550J-153D01*
G01*
X1026889Y735292D02*
G03*
X1026877Y735253I543J-193D01*
G01*
X1026903Y735327D02*
G03*
X1026889Y735292I535J-230D01*
G01*
X1026918Y735361D02*
G03*
X1026903Y735327I525J-267D01*
G01*
X1026938Y735397D02*
G03*
X1026918Y735361I510J-305D01*
G01*
X1027104Y735577D02*
G03*
X1026938Y735397I355J-492D01*
G01*
X1027146Y735605D02*
G03*
X1027104Y735577I309J-515D01*
G01*
X1027182Y735624D02*
G03*
X1027146Y735605I270J-529D01*
G01*
X1027216Y735641D02*
G03*
X1027182Y735624I233J-540D01*
G01*
X1027252Y735655D02*
G03*
X1027216Y735641I195J-549D01*
G01*
X1027292Y735667D02*
G03*
X1027252Y735655I153J-556D01*
G01*
X1027443Y735688D02*
G03*
X1027292Y735667I0J-567D01*
G01*
X1039661Y735688D02*
G03*
X1039649Y735688I-12J-565D01*
G01*
X1039688Y735686D02*
G03*
X1039661Y735688I-40J-559D01*
G01*
X1039845Y735652D02*
G03*
X1039688Y735686I-195J-515D01*
G01*
X1039894Y735631D02*
G03*
X1039845Y735652I-246J-498D01*
G01*
X1039931Y735611D02*
G03*
X1039894Y735630I-285J-483D01*
G01*
X1039964Y735590D02*
G03*
X1039931Y735611I-321J-467D01*
G01*
X1039995Y735566D02*
G03*
X1039964Y735590I-356J-448D01*
G01*
X1040027Y735539D02*
G03*
X1039995Y735566I-391J-426D01*
G01*
X1040061Y735505D02*
G03*
X1040027Y735539I-430J-396D01*
G01*
X1040105Y735451D02*
G03*
X1040061Y735505I-478J-346D01*
G01*
X1040215Y735166D02*
G03*
X1040105Y735451I-593J-65D01*
G01*
X1040219Y735101D02*
G03*
X1040215Y735166I-601J0D01*
G01*
X1040218Y735079D02*
G03*
X1040219Y735101I-603J22D01*
G01*
X1040160Y734843D02*
G03*
X1040218Y735079I-538J258D01*
G01*
X1040085Y734724D02*
G03*
X1040160Y734843I-461J375D01*
G01*
X1040046Y734681D02*
G03*
X1040085Y734724I-417J414D01*
G01*
X1040013Y734650D02*
G03*
X1040046Y734681I-380J441D01*
G01*
X1039981Y734624D02*
G03*
X1040013Y734650I-344J462D01*
G01*
X1039949Y734602D02*
G03*
X1039981Y734624I-308J479D01*
G01*
X1039914Y734582D02*
G03*
X1039949Y734602I-270J495D01*
G01*
X1039874Y734561D02*
G03*
X1039914Y734582I-227J510D01*
G01*
X1039778Y734529D02*
G03*
X1039874Y734562I-128J536D01*
G01*
X1039705Y734517D02*
G03*
X1039778Y734529I-56J549D01*
G01*
X1039673Y734514D02*
G03*
X1039705Y734517I-24J558D01*
G01*
X1039649Y734514D02*
G03*
X1039673Y734514I0J564D01*
G01*
X1032422Y731199D02*
G03*
X1032422Y731211I-667J12D01*
G01*
X1032422Y731186D02*
G03*
X1032422Y731199I-660J25D01*
G01*
X1032421Y731172D02*
G03*
X1032422Y731186I-653J38D01*
G01*
X1032420Y731158D02*
G03*
X1032421Y731172I-645J52D01*
G01*
X1032419Y731144D02*
G03*
X1032420Y731158I-637J66D01*
G01*
X1032417Y731129D02*
G03*
X1032419Y731144I-628J80D01*
G01*
X1032415Y731114D02*
G03*
X1032417Y731129I-620J94D01*
G01*
X1032412Y731098D02*
G03*
X1032415Y731114I-611J109D01*
G01*
X1032409Y731081D02*
G03*
X1032412Y731098I-601J125D01*
G01*
X1032405Y731064D02*
G03*
X1032409Y731081I-591J141D01*
G01*
X1032400Y731045D02*
G03*
X1032405Y731064I-581J158D01*
G01*
X1032395Y731026D02*
G03*
X1032400Y731045I-569J176D01*
G01*
X1032388Y731004D02*
G03*
X1032395Y731026I-556J195D01*
G01*
X1032379Y730981D02*
G03*
X1032388Y731004I-542J217D01*
G01*
X1032368Y730955D02*
G03*
X1032379Y730981I-525J240D01*
G01*
X1032353Y730926D02*
G03*
X1032368Y730955I-505J267D01*
G01*
X1032333Y730890D02*
G03*
X1032353Y730926I-479J301D01*
G01*
X1032211Y730752D02*
G03*
X1032333Y730890I-350J433D01*
G01*
X1032157Y730714D02*
G03*
X1032211Y730752I-298J474D01*
G01*
X1032121Y730693D02*
G03*
X1032157Y730714I-265J499D01*
G01*
X1032092Y730679D02*
G03*
X1032121Y730693I-239J519D01*
G01*
X1032067Y730668D02*
G03*
X1032092Y730679I-216J535D01*
G01*
X1032044Y730659D02*
G03*
X1032067Y730668I-195J549D01*
G01*
X1032022Y730652D02*
G03*
X1032044Y730659I-176J562D01*
G01*
X1032003Y730646D02*
G03*
X1032022Y730652I-158J574D01*
G01*
X1031984Y730642D02*
G03*
X1032003Y730646I-142J584D01*
G01*
X1031967Y730638D02*
G03*
X1031984Y730641I-125J594D01*
G01*
X1031950Y730634D02*
G03*
X1031967Y730638I-110J604D01*
G01*
X1031934Y730632D02*
G03*
X1031950Y730634I-95J613D01*
G01*
X1031919Y730629D02*
G03*
X1031934Y730632I-81J621D01*
G01*
X1031904Y730628D02*
G03*
X1031919Y730629I-67J629D01*
G01*
X1031890Y730626D02*
G03*
X1031904Y730628I-53J637D01*
G01*
X1031876Y730625D02*
G03*
X1031890Y730626I-40J645D01*
G01*
X1031862Y730625D02*
G03*
X1031876Y730625I-26J652D01*
G01*
X1031849Y730624D02*
G03*
X1031862Y730625I-14J659D01*
G01*
X1031835Y730624D02*
G03*
X1031849Y730624I0J667D01*
G01*
X1031821D02*
G03*
X1031835Y730624I14J602D01*
G01*
X1031803Y730625D02*
G03*
X1031821Y730624I32J596D01*
G01*
X1031783Y730626D02*
G03*
X1031803Y730625I51J588D01*
G01*
X1031762Y730629D02*
G03*
X1031783Y730626I72J580D01*
G01*
X1031737Y730632D02*
G03*
X1031762Y730629I96J571D01*
G01*
X1031710Y730638D02*
G03*
X1031737Y730632I123J559D01*
G01*
X1031675Y730646D02*
G03*
X1031710Y730638I156J545D01*
G01*
X1031436Y730787D02*
G03*
X1031675Y730646I392J394D01*
G01*
X1031390Y730838D02*
G03*
X1031436Y730787I441J346D01*
G01*
X1031361Y730879D02*
G03*
X1031390Y730838I475J309D01*
G01*
X1031339Y730915D02*
G03*
X1031361Y730879I501J276D01*
G01*
X1031323Y730946D02*
G03*
X1031339Y730915I523J248D01*
G01*
X1031311Y730974D02*
G03*
X1031323Y730946I540J222D01*
G01*
X1031301Y731000D02*
G03*
X1031311Y730974I556J199D01*
G01*
X1031293Y731024D02*
G03*
X1031301Y731000I569J177D01*
G01*
X1031287Y731045D02*
G03*
X1031293Y731024I581J157D01*
G01*
X1031282Y731065D02*
G03*
X1031287Y731045I592J139D01*
G01*
X1031278Y731085D02*
G03*
X1031282Y731065I603J121D01*
G01*
X1031274Y731103D02*
G03*
X1031278Y731085I612J104D01*
G01*
X1031272Y731120D02*
G03*
X1031274Y731103I621J88D01*
G01*
X1031270Y731136D02*
G03*
X1031272Y731120I629J73D01*
G01*
X1031268Y731152D02*
G03*
X1031270Y731136I637J58D01*
G01*
X1031267Y731167D02*
G03*
X1031268Y731152I645J43D01*
G01*
X1031266Y731182D02*
G03*
X1031267Y731167I653J29D01*
G01*
X1031265Y731196D02*
G03*
X1031266Y731182I660J15D01*
G01*
X1031265Y731211D02*
G03*
X1031265Y731196I667J-0D01*
G01*
X1028029Y730207D02*
G03*
X1028029Y730222I-565J14D01*
G01*
X1028028Y730179D02*
G03*
X1028029Y730207I-559J42D01*
G01*
X1027995Y730028D02*
G03*
X1028028Y730179I-517J192D01*
G01*
X1027972Y729977D02*
G03*
X1027995Y730028I-498J245D01*
G01*
X1027952Y729939D02*
G03*
X1027972Y729977I-483J285D01*
G01*
X1027931Y729906D02*
G03*
X1027952Y729939I-467J321D01*
G01*
X1027907Y729874D02*
G03*
X1027931Y729906I-448J356D01*
G01*
X1027880Y729842D02*
G03*
X1027907Y729874I-425J392D01*
G01*
X1027844Y729806D02*
G03*
X1027880Y729842I-393J432D01*
G01*
X1027786Y729760D02*
G03*
X1027844Y729806I-340J483D01*
G01*
X1027505Y729655D02*
G03*
X1027786Y729760I-62J593D01*
G01*
X1027443Y729652D02*
G03*
X1027505Y729655I0J601D01*
G01*
X1031740Y737371D02*
G03*
X1031835Y737363I95J558D01*
G01*
X1031687Y737383D02*
G03*
X1031740Y737371I149J550D01*
G01*
X1031648Y737395D02*
G03*
X1031687Y737383I189J544D01*
G01*
X1031614Y737408D02*
G03*
X1031648Y737395I225J536D01*
G01*
X1031581Y737423D02*
G03*
X1031614Y737408I261J527D01*
G01*
X1031546Y737441D02*
G03*
X1031581Y737423I298J513D01*
G01*
X1031507Y737466D02*
G03*
X1031546Y737441I340J494D01*
G01*
X1031403Y737557D02*
G03*
X1031507Y737466I449J409D01*
G01*
X1031352Y737622D02*
G03*
X1031403Y737557I499J344D01*
G01*
X1031326Y737662D02*
G03*
X1031352Y737622I519J300D01*
G01*
X1031308Y737697D02*
G03*
X1031326Y737662I532J262D01*
G01*
X1031292Y737730D02*
G03*
X1031308Y737696I542J226D01*
G01*
X1031279Y737766D02*
G03*
X1031292Y737730I550J188D01*
G01*
X1031267Y737805D02*
G03*
X1031279Y737766I556J147D01*
G01*
X1031248Y737950D02*
G03*
X1031267Y737805I567J0D01*
G01*
X1031256Y743896D02*
G03*
X1031248Y743801I558J-95D01*
G01*
X1031268Y743949D02*
G03*
X1031256Y743896I550J-149D01*
G01*
X1031280Y743988D02*
G03*
X1031268Y743949I544J-189D01*
G01*
X1031293Y744022D02*
G03*
X1031280Y743988I536J-225D01*
G01*
X1031308Y744055D02*
G03*
X1031293Y744022I527J-261D01*
G01*
X1031327Y744090D02*
G03*
X1031308Y744055I513J-298D01*
G01*
X1031352Y744129D02*
G03*
X1031327Y744090I494J-340D01*
G01*
X1031443Y744234D02*
G03*
X1031352Y744129I409J-449D01*
G01*
X1031507Y744285D02*
G03*
X1031443Y744234I344J-499D01*
G01*
X1031547Y744310D02*
G03*
X1031507Y744285I300J-519D01*
G01*
X1031582Y744329D02*
G03*
X1031547Y744310I262J-532D01*
G01*
X1031616Y744344D02*
G03*
X1031582Y744329I226J-542D01*
G01*
X1031651Y744357D02*
G03*
X1031616Y744344I188J-550D01*
G01*
X1031691Y744369D02*
G03*
X1031651Y744357I147J-556D01*
G01*
X1031835Y744388D02*
G03*
X1031691Y744369I0J-567D01*
G01*
X1039728Y744380D02*
G03*
X1039632Y744388I-97J-558D01*
G01*
X1039782Y744368D02*
G03*
X1039728Y744380I-152J-550D01*
G01*
X1039822Y744355D02*
G03*
X1039782Y744368I-193J-543D01*
G01*
X1039857Y744342D02*
G03*
X1039822Y744355I-230J-535D01*
G01*
X1039891Y744326D02*
G03*
X1039857Y744342I-266J-525D01*
G01*
X1039926Y744306D02*
G03*
X1039891Y744326I-304J-511D01*
G01*
X1040111Y744136D02*
G03*
X1039926Y744306I-495J-351D01*
G01*
X1040138Y744094D02*
G03*
X1040111Y744136I-517J-305D01*
G01*
X1040157Y744058D02*
G03*
X1040138Y744094I-531J-266D01*
G01*
X1040173Y744024D02*
G03*
X1040157Y744058I-541J-229D01*
G01*
X1040187Y743989D02*
G03*
X1040173Y744024I-549J-192D01*
G01*
X1040199Y743949D02*
G03*
X1040187Y743989I-556J-149D01*
G01*
X1040219Y743801D02*
G03*
X1040199Y743949I-567J-0D01*
G01*
X1040209Y737849D02*
G03*
X1040219Y737950I-557J101D01*
G01*
X1040198Y737797D02*
G03*
X1040209Y737849I-550J153D01*
G01*
X1040185Y737759D02*
G03*
X1040198Y737797I-543J193D01*
G01*
X1040172Y737724D02*
G03*
X1040185Y737759I-535J230D01*
G01*
X1040156Y737690D02*
G03*
X1040172Y737724I-525J267D01*
G01*
X1040136Y737654D02*
G03*
X1040156Y737690I-510J305D01*
G01*
X1039971Y737474D02*
G03*
X1040136Y737654I-355J492D01*
G01*
X1039928Y737446D02*
G03*
X1039971Y737474I-309J515D01*
G01*
X1039893Y737426D02*
G03*
X1039928Y737446I-270J529D01*
G01*
X1039858Y737410D02*
G03*
X1039893Y737426I-233J540D01*
G01*
X1039822Y737396D02*
G03*
X1039858Y737410I-195J549D01*
G01*
X1039782Y737383D02*
G03*
X1039822Y737396I-153J556D01*
G01*
X1039632Y737363D02*
G03*
X1039782Y737383I-0J567D01*
G01*
X1039661Y749819D02*
G03*
X1039649Y749819I-12J-565D01*
G01*
X1039688Y749818D02*
G03*
X1039661Y749819I-40J-559D01*
G01*
X1039845Y749784D02*
G03*
X1039688Y749818I-195J-515D01*
G01*
X1039894Y749762D02*
G03*
X1039845Y749784I-246J-498D01*
G01*
X1039931Y749742D02*
G03*
X1039894Y749762I-285J-483D01*
G01*
X1039964Y749721D02*
G03*
X1039931Y749742I-321J-467D01*
G01*
X1039995Y749698D02*
G03*
X1039964Y749721I-356J-448D01*
G01*
X1040027Y749671D02*
G03*
X1039995Y749698I-391J-426D01*
G01*
X1040061Y749636D02*
G03*
X1040027Y749671I-430J-396D01*
G01*
X1040105Y749583D02*
G03*
X1040061Y749636I-478J-346D01*
G01*
X1040215Y749298D02*
G03*
X1040105Y749583I-593J-65D01*
G01*
X1040219Y749232D02*
G03*
X1040215Y749298I-601J0D01*
G01*
X1040218Y749211D02*
G03*
X1040219Y749232I-603J22D01*
G01*
X1040160Y748974D02*
G03*
X1040218Y749211I-538J258D01*
G01*
X1040085Y748856D02*
G03*
X1040160Y748974I-461J375D01*
G01*
X1040046Y748813D02*
G03*
X1040085Y748856I-417J414D01*
G01*
X1040013Y748782D02*
G03*
X1040046Y748813I-380J441D01*
G01*
X1039981Y748756D02*
G03*
X1040013Y748782I-344J462D01*
G01*
X1039949Y748734D02*
G03*
X1039981Y748756I-308J479D01*
G01*
X1039914Y748714D02*
G03*
X1039949Y748734I-270J495D01*
G01*
X1039874Y748693D02*
G03*
X1039914Y748714I-227J510D01*
G01*
X1039778Y748661D02*
G03*
X1039874Y748693I-128J536D01*
G01*
X1039705Y748649D02*
G03*
X1039778Y748661I-56J549D01*
G01*
X1039673Y748646D02*
G03*
X1039705Y748649I-24J558D01*
G01*
X1039649Y748646D02*
G03*
X1039673Y748646I0J564D01*
G01*
X1032422Y746294D02*
G03*
X1032422Y746307I-661J21D01*
G01*
X1032421Y746280D02*
G03*
X1032422Y746294I-653J34D01*
G01*
X1032420Y746266D02*
G03*
X1032421Y746280I-645J48D01*
G01*
X1032419Y746252D02*
G03*
X1032420Y746266I-637J62D01*
G01*
X1032418Y746237D02*
G03*
X1032419Y746252I-629J76D01*
G01*
X1032415Y746222D02*
G03*
X1032418Y746237I-621J90D01*
G01*
X1032413Y746206D02*
G03*
X1032415Y746222I-612J106D01*
G01*
X1032410Y746189D02*
G03*
X1032413Y746206I-602J121D01*
G01*
X1032406Y746171D02*
G03*
X1032410Y746189I-592J138D01*
G01*
X1032401Y746153D02*
G03*
X1032406Y746171I-582J155D01*
G01*
X1032396Y746133D02*
G03*
X1032401Y746153I-570J173D01*
G01*
X1032389Y746112D02*
G03*
X1032396Y746133I-558J192D01*
G01*
X1032380Y746089D02*
G03*
X1032389Y746112I-543J214D01*
G01*
X1032369Y746063D02*
G03*
X1032380Y746089I-527J237D01*
G01*
X1032355Y746033D02*
G03*
X1032369Y746063I-507J264D01*
G01*
X1032335Y745997D02*
G03*
X1032355Y746033I-481J298D01*
G01*
X1032212Y745857D02*
G03*
X1032335Y745997I-351J433D01*
G01*
X1032158Y745819D02*
G03*
X1032212Y745858I-299J474D01*
G01*
X1032122Y745798D02*
G03*
X1032158Y745819I-266J499D01*
G01*
X1032093Y745784D02*
G03*
X1032122Y745798I-240J519D01*
G01*
X1032067Y745772D02*
G03*
X1032093Y745784I-216J535D01*
G01*
X1032044Y745764D02*
G03*
X1032067Y745772I-195J550D01*
G01*
X1032022Y745757D02*
G03*
X1032044Y745764I-176J562D01*
G01*
X1032003Y745751D02*
G03*
X1032022Y745757I-158J574D01*
G01*
X1031984Y745746D02*
G03*
X1032003Y745751I-142J584D01*
G01*
X1031967Y745742D02*
G03*
X1031984Y745746I-125J594D01*
G01*
X1031950Y745739D02*
G03*
X1031967Y745742I-110J604D01*
G01*
X1031934Y745736D02*
G03*
X1031950Y745739I-95J613D01*
G01*
X1031919Y745734D02*
G03*
X1031934Y745736I-81J621D01*
G01*
X1031904Y745732D02*
G03*
X1031919Y745734I-67J629D01*
G01*
X1031890Y745731D02*
G03*
X1031904Y745732I-53J637D01*
G01*
X1031876Y745730D02*
G03*
X1031890Y745731I-40J645D01*
G01*
X1031862Y745729D02*
G03*
X1031876Y745730I-26J652D01*
G01*
X1031849Y745729D02*
G03*
X1031862Y745729I-14J659D01*
G01*
X1031835Y745729D02*
G03*
X1031849Y745729I0J667D01*
G01*
X1031815Y745729D02*
G03*
X1031832Y745729I20J600D01*
G01*
X1031796Y745730D02*
G03*
X1031815Y745729I39J593D01*
G01*
X1031776Y745732D02*
G03*
X1031796Y745730I59J586D01*
G01*
X1031753Y745734D02*
G03*
X1031776Y745732I81J577D01*
G01*
X1031727Y745739D02*
G03*
X1031753Y745734I106J567D01*
G01*
X1031697Y745745D02*
G03*
X1031727Y745739I135J554D01*
G01*
X1031659Y745756D02*
G03*
X1031697Y745745I172J538D01*
G01*
X1031463Y745865D02*
G03*
X1031659Y745756I364J419D01*
G01*
X1031404Y745926D02*
G03*
X1031463Y745865I426J361D01*
G01*
X1031369Y745971D02*
G03*
X1031404Y745926I465J320D01*
G01*
X1031345Y746009D02*
G03*
X1031369Y745971I494J286D01*
G01*
X1031327Y746042D02*
G03*
X1031345Y746009I517J255D01*
G01*
X1031314Y746072D02*
G03*
X1031327Y746042I536J228D01*
G01*
X1031303Y746098D02*
G03*
X1031314Y746072I551J204D01*
G01*
X1031295Y746123D02*
G03*
X1031303Y746098I565J182D01*
G01*
X1031288Y746145D02*
G03*
X1031295Y746123I578J161D01*
G01*
X1031283Y746166D02*
G03*
X1031288Y746145I589J142D01*
G01*
X1031278Y746185D02*
G03*
X1031283Y746166I600J124D01*
G01*
X1031275Y746204D02*
G03*
X1031278Y746185I609J107D01*
G01*
X1031272Y746222D02*
G03*
X1031275Y746204I618J90D01*
G01*
X1031270Y746239D02*
G03*
X1031272Y746222I627J74D01*
G01*
X1031268Y746256D02*
G03*
X1031270Y746239I635J58D01*
G01*
X1031267Y746271D02*
G03*
X1031268Y746256I643J43D01*
G01*
X1031266Y746286D02*
G03*
X1031267Y746271I651J28D01*
G01*
X1031265Y746300D02*
G03*
X1031266Y746286I658J15D01*
G01*
X1031265Y746315D02*
G03*
X1031265Y746300I665J-0D01*
G01*
X1031266Y749254D02*
G03*
X1031265Y749232I603J-22D01*
G01*
X1031324Y749491D02*
G03*
X1031266Y749254I538J-258D01*
G01*
X1031399Y749609D02*
G03*
X1031324Y749491I461J-375D01*
G01*
X1031438Y749652D02*
G03*
X1031399Y749609I417J-414D01*
G01*
X1031471Y749683D02*
G03*
X1031438Y749652I380J-441D01*
G01*
X1031503Y749709D02*
G03*
X1031471Y749683I344J-462D01*
G01*
X1031535Y749731D02*
G03*
X1031503Y749709I308J-479D01*
G01*
X1031569Y749752D02*
G03*
X1031535Y749731I270J-495D01*
G01*
X1031610Y749772D02*
G03*
X1031569Y749752I227J-510D01*
G01*
X1031706Y749804D02*
G03*
X1031610Y749772I128J-536D01*
G01*
X1031779Y749817D02*
G03*
X1031706Y749804I56J-549D01*
G01*
X1031811Y749819D02*
G03*
X1031779Y749817I24J-558D01*
G01*
X1031835Y749819D02*
G03*
X1031811Y749819I-0J-564D01*
G01*
X1039728Y760456D02*
G03*
X1039632Y760465I-97J-558D01*
G01*
X1039782Y760444D02*
G03*
X1039728Y760456I-152J-550D01*
G01*
X1039822Y760432D02*
G03*
X1039782Y760444I-193J-543D01*
G01*
X1039857Y760418D02*
G03*
X1039822Y760432I-230J-535D01*
G01*
X1039891Y760402D02*
G03*
X1039857Y760418I-266J-525D01*
G01*
X1039926Y760383D02*
G03*
X1039891Y760402I-304J-511D01*
G01*
X1040111Y760212D02*
G03*
X1039926Y760383I-495J-351D01*
G01*
X1040138Y760170D02*
G03*
X1040111Y760212I-517J-305D01*
G01*
X1040157Y760134D02*
G03*
X1040138Y760170I-531J-266D01*
G01*
X1040173Y760100D02*
G03*
X1040157Y760134I-541J-229D01*
G01*
X1040187Y760065D02*
G03*
X1040173Y760100I-549J-192D01*
G01*
X1040199Y760025D02*
G03*
X1040187Y760065I-556J-149D01*
G01*
X1040219Y759878D02*
G03*
X1040199Y760025I-567J-0D01*
G01*
X1040209Y759777D02*
G03*
X1040219Y759878I-557J101D01*
G01*
X1040198Y759725D02*
G03*
X1040209Y759777I-550J153D01*
G01*
X1040185Y759687D02*
G03*
X1040198Y759725I-543J193D01*
G01*
X1040172Y759652D02*
G03*
X1040185Y759687I-535J230D01*
G01*
X1040156Y759618D02*
G03*
X1040172Y759652I-525J267D01*
G01*
X1040136Y759582D02*
G03*
X1040156Y759618I-510J305D01*
G01*
X1039971Y759402D02*
G03*
X1040136Y759582I-355J492D01*
G01*
X1039928Y759374D02*
G03*
X1039971Y759402I-309J515D01*
G01*
X1039893Y759354D02*
G03*
X1039928Y759374I-270J529D01*
G01*
X1039858Y759338D02*
G03*
X1039893Y759354I-233J540D01*
G01*
X1039822Y759324D02*
G03*
X1039858Y759338I-195J549D01*
G01*
X1039782Y759311D02*
G03*
X1039822Y759324I-153J556D01*
G01*
X1039632Y759291D02*
G03*
X1039782Y759311I-0J567D01*
G01*
X1034365Y756408D02*
G03*
X1034233Y756239I400J-450D01*
G01*
X1034665Y756553D02*
G03*
X1034365Y756408I109J-606D01*
G01*
X1034720Y756561D02*
G03*
X1034665Y756553I52J-607D01*
G01*
X1034767Y756563D02*
G03*
X1034720Y756561I5J-603D01*
G01*
X1034811Y756562D02*
G03*
X1034767Y756563I-39J-595D01*
G01*
X1034858Y756557D02*
G03*
X1034811Y756562I-86J-584D01*
G01*
X1035021Y756508D02*
G03*
X1034858Y756557I-247J-526D01*
G01*
X1035192Y756373D02*
G03*
X1035021Y756508I-452J-397D01*
G01*
X1035334Y756081D02*
G03*
X1035192Y756373I-605J-114D01*
G01*
X1035342Y756025D02*
G03*
X1035334Y756081I-607J-57D01*
G01*
X1035344Y755978D02*
G03*
X1035342Y756025I-603J-9D01*
G01*
X1035343Y755934D02*
G03*
X1035344Y755978I-596J35D01*
G01*
X1035339Y755887D02*
G03*
X1035343Y755934I-585J82D01*
G01*
X1035289Y755719D02*
G03*
X1035339Y755887I-526J247D01*
G01*
X1033321Y751801D02*
G03*
X1033327Y751813I-513J296D01*
G01*
X1033312Y751786D02*
G03*
X1033321Y751801I-509J313D01*
G01*
X1033302Y751771D02*
G03*
X1033312Y751786I-505J332D01*
G01*
X1033291Y751754D02*
G03*
X1033302Y751771I-498J352D01*
G01*
X1033277Y751735D02*
G03*
X1033291Y751754I-490J375D01*
G01*
X1033259Y751713D02*
G03*
X1033277Y751735I-476J401D01*
G01*
X1033168Y751625D02*
G03*
X1033259Y751713I-393J496D01*
G01*
X1033130Y751597D02*
G03*
X1033168Y751625I-353J521D01*
G01*
X1033104Y751580D02*
G03*
X1033130Y751597I-323J532D01*
G01*
X1033082Y751568D02*
G03*
X1033104Y751580I-299J539D01*
G01*
X1033063Y751557D02*
G03*
X1033082Y751568I-276J544D01*
G01*
X1033044Y751548D02*
G03*
X1033063Y751557I-255J547D01*
G01*
X1033027Y751540D02*
G03*
X1033044Y751548I-235J550D01*
G01*
X1033010Y751533D02*
G03*
X1033027Y751540I-215J551D01*
G01*
X1032993Y751527D02*
G03*
X1033010Y751533I-196J552D01*
G01*
X1032977Y751522D02*
G03*
X1032993Y751527I-178J552D01*
G01*
X1032960Y751516D02*
G03*
X1032977Y751522I-159J551D01*
G01*
X1032943Y751512D02*
G03*
X1032960Y751516I-140J550D01*
G01*
X1032925Y751508D02*
G03*
X1032943Y751512I-121J549D01*
G01*
X1032907Y751504D02*
G03*
X1032925Y751508I-102J547D01*
G01*
X1032887Y751501D02*
G03*
X1032907Y751504I-81J545D01*
G01*
X1032866Y751498D02*
G03*
X1032887Y751501I-59J542D01*
G01*
X1032841Y751496D02*
G03*
X1032866Y751498I-34J538D01*
G01*
X1032808Y751495D02*
G03*
X1032841Y751496I-0J534D01*
G01*
X1027918Y751495D02*
G03*
X1027929Y751495I10J567D01*
G01*
X1027893Y751496D02*
G03*
X1027918Y751495I36J562D01*
G01*
X1027709Y751540D02*
G03*
X1027893Y751496I218J507D01*
G01*
X1027665Y751561D02*
G03*
X1027709Y751540I265J490D01*
G01*
X1027629Y751582D02*
G03*
X1027665Y751561I303J474D01*
G01*
X1027596Y751605D02*
G03*
X1027629Y751582I340J457D01*
G01*
X1027564Y751631D02*
G03*
X1027596Y751605I376J435D01*
G01*
X1027530Y751663D02*
G03*
X1027564Y751631I413J408D01*
G01*
X1027491Y751707D02*
G03*
X1027530Y751663I457J368D01*
G01*
X1027429Y751800D02*
G03*
X1027491Y751707I523J279D01*
G01*
X1027361Y752027D02*
G03*
X1027429Y751800I594J54D01*
G01*
X1027359Y752082D02*
G03*
X1027361Y752027I604J-0D01*
G01*
X1027359Y759896D02*
G03*
X1027359Y759878I604J-18D01*
G01*
X1027369Y759991D02*
G03*
X1027359Y759896I589J-113D01*
G01*
X1027483Y760243D02*
G03*
X1027370Y759991I472J-364D01*
G01*
X1027524Y760290D02*
G03*
X1027483Y760243I425J-407D01*
G01*
X1027558Y760323D02*
G03*
X1027524Y760290I387J-435D01*
G01*
X1027590Y760349D02*
G03*
X1027558Y760323I351J-458D01*
G01*
X1027622Y760372D02*
G03*
X1027590Y760349I315J-476D01*
G01*
X1027656Y760393D02*
G03*
X1027622Y760372I278J-492D01*
G01*
X1027696Y760414D02*
G03*
X1027656Y760393I235J-507D01*
G01*
X1027815Y760453D02*
G03*
X1027696Y760414I112J-540D01*
G01*
X1027873Y760462D02*
G03*
X1027815Y760453I55J-550D01*
G01*
X1027904Y760464D02*
G03*
X1027873Y760462I24J-558D01*
G01*
X1027929Y760465D02*
G03*
X1027904Y760464I-0J-565D01*
G01*
X1040218Y695099D02*
Y702895D01*
X1039044Y695099D02*
Y702308D01*
X1028515D02*
X1039044D01*
X1028515Y695099D02*
Y702308D01*
X1027358Y695099D02*
Y702895D01*
X1027928Y703482D02*
X1039631D01*
X1027358Y705743D02*
X1027358Y705753D01*
X1027928Y706330D02*
X1037703D01*
X1027609Y713053D02*
X1037703Y706330D01*
X1027928Y714127D02*
X1039631D01*
X1029873Y712953D02*
X1039631D01*
X1029873D02*
X1039967Y706230D01*
X1040199Y705884D02*
X1040201Y705875D01*
X1040204Y705865D01*
X1040218Y705743D02*
Y705743D01*
Y705743D02*
Y705743D01*
Y705743D02*
Y705743D01*
Y705743D02*
Y705743D01*
Y705743D02*
Y705743D01*
Y705743D02*
Y705743D01*
Y705742D02*
Y705743D01*
Y705742D02*
Y705742D01*
Y705742D02*
Y705742D01*
Y705742D02*
Y705742D01*
Y705742D02*
Y705742D01*
Y705742D02*
Y705742D01*
Y705742D02*
Y705742D01*
Y705741D02*
Y705742D01*
Y705741D02*
Y705741D01*
Y705741D02*
Y705741D01*
Y705741D02*
Y705741D01*
Y705741D02*
Y705741D01*
Y705741D02*
Y705741D01*
Y705740D02*
Y705741D01*
Y705740D02*
Y705740D01*
Y705740D02*
Y705740D01*
Y705740D02*
Y705740D01*
Y705740D02*
Y705740D01*
Y705740D02*
Y705740D01*
Y705740D02*
Y705740D01*
Y705739D02*
Y705740D01*
Y705739D02*
Y705739D01*
Y705739D02*
Y705739D01*
Y705739D02*
Y705739D01*
Y705739D02*
Y705739D01*
Y705739D02*
Y705739D01*
Y705738D02*
Y705739D01*
Y705738D02*
Y705738D01*
Y705738D02*
Y705738D01*
Y705738D02*
Y705738D01*
Y705738D02*
Y705738D01*
Y705738D02*
Y705738D01*
Y705738D02*
Y705738D01*
Y705737D02*
Y705738D01*
Y705737D02*
Y705737D01*
Y705737D02*
Y705737D01*
Y705737D02*
Y705737D01*
Y705737D02*
Y705737D01*
Y705736D02*
Y705737D01*
Y705736D02*
Y705736D01*
Y705736D02*
Y705736D01*
Y705736D02*
Y705736D01*
Y705736D02*
Y705736D01*
Y705736D02*
Y705736D01*
Y705736D02*
Y705736D01*
Y705735D02*
Y705736D01*
Y705735D02*
Y705735D01*
Y705735D02*
Y705735D01*
Y705735D02*
Y705735D01*
Y705735D02*
Y705735D01*
Y705735D02*
Y705735D01*
Y705734D02*
Y705735D01*
Y705734D02*
Y705734D01*
Y705734D02*
Y705734D01*
Y705734D02*
Y705734D01*
Y705734D02*
Y705734D01*
Y705734D02*
Y705734D01*
Y705734D02*
Y705734D01*
Y705733D02*
Y705734D01*
Y705733D02*
Y705733D01*
Y705733D02*
Y705733D01*
Y705733D02*
Y705733D01*
Y705733D02*
Y705733D01*
Y705733D02*
Y705733D01*
Y705732D02*
Y705733D01*
Y705732D02*
Y705732D01*
Y705732D02*
Y705732D01*
Y705732D02*
Y705732D01*
Y705732D02*
Y705732D01*
Y705732D02*
Y705732D01*
Y705732D02*
Y705732D01*
Y705731D02*
Y705732D01*
Y705731D02*
Y705731D01*
Y705731D02*
Y705731D01*
Y705731D02*
Y705731D01*
Y705731D02*
Y705731D01*
Y705731D02*
Y705731D01*
Y705730D02*
Y705731D01*
Y705730D02*
Y705730D01*
Y705730D02*
Y705730D01*
Y705730D02*
Y705730D01*
Y705730D02*
Y705730D01*
Y705729D02*
Y705730D01*
Y705729D02*
Y705729D01*
Y705729D02*
Y705729D01*
Y705729D02*
Y705729D01*
Y705728D02*
Y705729D01*
Y705728D02*
Y705728D01*
Y705727D02*
Y705728D01*
Y705727D02*
Y705727D01*
Y705727D02*
Y705727D01*
Y705726D02*
Y705727D01*
Y705726D02*
Y705726D01*
Y705726D02*
Y705726D01*
X1040218Y705726D02*
X1040218Y705726D01*
X1040218Y705725D02*
Y705726D01*
Y705725D02*
Y705725D01*
Y705725D02*
Y705725D01*
Y705724D02*
Y705725D01*
Y705724D02*
Y705724D01*
Y705724D02*
Y705724D01*
Y705723D02*
Y705724D01*
Y705723D02*
Y705723D01*
Y705723D02*
Y705723D01*
Y705722D02*
Y705723D01*
Y705722D02*
Y705722D01*
Y705722D02*
Y705722D01*
Y705721D02*
Y705722D01*
Y705721D02*
Y705721D01*
X1040218Y705721D02*
X1040218Y705721D01*
X1040218Y705720D02*
Y705721D01*
Y705720D02*
Y705720D01*
Y705720D02*
Y705720D01*
Y705719D02*
Y705720D01*
Y705719D02*
Y705719D01*
Y705719D02*
Y705719D01*
Y705718D02*
Y705719D01*
Y705718D02*
Y705718D01*
Y705718D02*
Y705718D01*
Y705717D02*
Y705718D01*
X1040218Y705717D02*
X1040218Y705717D01*
X1040218Y705717D02*
Y705717D01*
Y705716D02*
Y705717D01*
Y705716D02*
Y705716D01*
Y705715D02*
Y705716D01*
Y705715D02*
Y705715D01*
X1040218Y705714D02*
X1040218Y705715D01*
X1040218Y705714D02*
Y705714D01*
Y705713D02*
Y705714D01*
Y705713D02*
Y705713D01*
Y705712D02*
Y705713D01*
X1040218Y705712D02*
X1040218Y705712D01*
X1040218Y705711D02*
Y705712D01*
Y705711D02*
Y705711D01*
Y705710D02*
Y705711D01*
X1040218Y705710D02*
X1040218Y705710D01*
X1040218Y705709D02*
Y705710D01*
Y705709D02*
Y705709D01*
X1040218Y705708D02*
X1040218Y705709D01*
X1040218Y705708D02*
Y705708D01*
Y705707D02*
Y705708D01*
Y705707D02*
Y705707D01*
X1040218Y705706D02*
X1040218Y705707D01*
X1040218Y705706D02*
Y705706D01*
Y705705D02*
Y705706D01*
X1040218Y705705D02*
X1040218Y705705D01*
X1040218Y705704D02*
Y705705D01*
Y705704D02*
Y705704D01*
X1040218Y705703D02*
X1040218Y705704D01*
X1040218Y705703D02*
Y705703D01*
X1040218Y705702D02*
X1040218Y705703D01*
X1040218Y705701D02*
Y705702D01*
X1040218Y705701D02*
X1040218Y705701D01*
X1040218Y705700D02*
Y705701D01*
X1040218Y705699D02*
X1040218Y705700D01*
X1040218Y705699D02*
Y705699D01*
X1040218Y705698D02*
X1040218Y705699D01*
X1040218Y705697D02*
X1040218Y705698D01*
X1040218Y705697D02*
Y705697D01*
X1040218Y705696D02*
X1040218Y705697D01*
X1040218Y705695D02*
X1040218Y705696D01*
X1040218Y705695D02*
Y705695D01*
X1040218Y705694D02*
X1040218Y705695D01*
X1040218Y705693D02*
X1040218Y705694D01*
X1040218Y705693D02*
X1040218Y705693D01*
X1040218Y705692D02*
Y705693D01*
X1040218Y705691D02*
X1040218Y705692D01*
X1040217Y705690D02*
X1040218Y705691D01*
X1040217Y705690D02*
X1040217Y705690D01*
X1040217Y705689D02*
X1040217Y705690D01*
X1040217Y705688D02*
Y705689D01*
X1040217Y705688D02*
X1040217Y705688D01*
X1040217Y705687D02*
X1040217Y705688D01*
X1040217Y705686D02*
X1040217Y705687D01*
X1040217Y705686D02*
X1040217Y705686D01*
X1040217Y705685D02*
X1040217Y705686D01*
X1040217Y705684D02*
X1040217Y705685D01*
X1040217Y705684D02*
X1040217Y705684D01*
X1040217Y705683D02*
X1040217Y705684D01*
X1040217Y705682D02*
X1040217Y705683D01*
X1040217Y705681D02*
X1040217Y705682D01*
X1040217Y705681D02*
X1040217Y705681D01*
X1040217Y705680D02*
X1040217Y705681D01*
X1040217Y705679D02*
X1040217Y705680D01*
X1040217Y705678D02*
X1040217Y705679D01*
X1040217Y705677D02*
X1040217Y705678D01*
X1040217Y705676D02*
X1040217Y705677D01*
X1040217Y705675D02*
X1040217Y705676D01*
X1040217Y705675D02*
X1040217Y705675D01*
X1040217Y705674D02*
X1040217Y705675D01*
X1040217Y705673D02*
X1040217Y705674D01*
X1040217Y705672D02*
X1040217Y705673D01*
X1040217Y705671D02*
X1040217Y705672D01*
X1040217Y705670D02*
X1040217Y705671D01*
X1040217Y705669D02*
X1040217Y705670D01*
X1040217Y705668D02*
X1040217Y705669D01*
X1040216Y705667D02*
X1040217Y705668D01*
X1040216Y705667D02*
X1040216Y705667D01*
X1040216Y705666D02*
X1040216Y705667D01*
X1040216Y705665D02*
X1040216Y705666D01*
X1040216Y705664D02*
X1040216Y705665D01*
X1040216Y705663D02*
X1040216Y705664D01*
X1040216Y705662D02*
X1040216Y705663D01*
X1040216Y705661D02*
X1040216Y705662D01*
X1040216Y705660D02*
X1040216Y705661D01*
X1040216Y705660D02*
X1040216Y705660D01*
X1040216Y705659D02*
X1040216Y705660D01*
X1040216Y705658D02*
X1040216Y705659D01*
X1040216Y705657D02*
X1040216Y705658D01*
X1040216Y705656D02*
X1040216Y705657D01*
X1040216Y705655D02*
X1040216Y705656D01*
X1040216Y705654D02*
X1040216Y705655D01*
X1040215Y705654D02*
X1040216Y705654D01*
X1040215Y705653D02*
X1040215Y705654D01*
X1040215Y705652D02*
X1040215Y705653D01*
X1040215Y705651D02*
X1040215Y705652D01*
X1040215Y705650D02*
X1040215Y705651D01*
X1040215Y705649D02*
X1040215Y705650D01*
X1040215Y705648D02*
X1040215Y705649D01*
X1040215Y705647D02*
X1040215Y705648D01*
X1040215Y705646D02*
X1040215Y705647D01*
X1040215Y705646D02*
X1040215Y705646D01*
X1040215Y705645D02*
X1040215Y705646D01*
X1040215Y705644D02*
X1040215Y705645D01*
X1040214Y705643D02*
X1040215Y705644D01*
X1040214Y705642D02*
X1040214Y705643D01*
X1040214Y705641D02*
X1040214Y705642D01*
X1040214Y705640D02*
X1040214Y705641D01*
X1040214Y705639D02*
X1040214Y705640D01*
X1040214Y705639D02*
X1040214Y705639D01*
X1040214Y705638D02*
X1040214Y705639D01*
X1040214Y705637D02*
X1040214Y705638D01*
X1040214Y705636D02*
X1040214Y705637D01*
X1040214Y705635D02*
X1040214Y705636D01*
X1040213Y705634D02*
X1040214Y705635D01*
X1040213Y705633D02*
X1040213Y705634D01*
X1040213Y705632D02*
X1040213Y705633D01*
X1040213Y705632D02*
X1040213Y705632D01*
X1040213Y705631D02*
X1040213Y705632D01*
X1040213Y705630D02*
X1040213Y705631D01*
X1040213Y705629D02*
X1040213Y705630D01*
X1040213Y705628D02*
X1040213Y705629D01*
X1040213Y705627D02*
X1040213Y705628D01*
X1040212Y705626D02*
X1040213Y705627D01*
X1040212Y705626D02*
X1040212Y705626D01*
X1040212Y705625D02*
X1040212Y705626D01*
X1040212Y705624D02*
X1040212Y705625D01*
X1040212Y705623D02*
X1040212Y705624D01*
X1040212Y705622D02*
X1040212Y705623D01*
X1040212Y705621D02*
X1040212Y705622D01*
X1040212Y705620D02*
X1040212Y705621D01*
X1040211Y705620D02*
X1040212Y705620D01*
X1040211Y705619D02*
X1040211Y705620D01*
X1040211Y705618D02*
X1040211Y705619D01*
X1040211Y705617D02*
X1040211Y705618D01*
X1040211Y705616D02*
X1040211Y705617D01*
X1040211Y705615D02*
X1040211Y705616D01*
X1040211Y705614D02*
X1040211Y705615D01*
X1040210Y705614D02*
X1040211Y705614D01*
X1040210Y705613D02*
X1040210Y705614D01*
X1040210Y705612D02*
X1040210Y705613D01*
X1040210Y705611D02*
X1040210Y705612D01*
X1040210Y705610D02*
X1040210Y705611D01*
X1040210Y705609D02*
X1040210Y705610D01*
X1040210Y705609D02*
X1040210Y705609D01*
X1040209Y705608D02*
X1040210Y705609D01*
X1040209Y705607D02*
X1040209Y705608D01*
X1040209Y705606D02*
X1040209Y705607D01*
X1040209Y705605D02*
X1040209Y705606D01*
X1040209Y705604D02*
X1040209Y705605D01*
X1040209Y705604D02*
X1040209Y705604D01*
X1040208Y705603D02*
X1040209Y705604D01*
X1040208Y705602D02*
X1040208Y705603D01*
X1040208Y705601D02*
X1040208Y705602D01*
X1040208Y705600D02*
X1040208Y705601D01*
X1040208Y705600D02*
X1040208Y705600D01*
X1040208Y705599D02*
X1040208Y705600D01*
X1040207Y705598D02*
X1040208Y705599D01*
X1040207Y705597D02*
X1040207Y705598D01*
X1040207Y705596D02*
X1040207Y705597D01*
X1040207Y705595D02*
X1040207Y705596D01*
X1040207Y705595D02*
X1040207Y705595D01*
X1040206Y705594D02*
X1040207Y705595D01*
X1040206Y705593D02*
X1040206Y705594D01*
X1040206Y705592D02*
X1040206Y705593D01*
X1040206Y705592D02*
X1040206Y705592D01*
X1040206Y705591D02*
X1040206Y705592D01*
X1040205Y705590D02*
X1040206Y705591D01*
X1040205Y705589D02*
X1040205Y705590D01*
X1040205Y705588D02*
X1040205Y705589D01*
X1040205Y705587D02*
X1040205Y705588D01*
X1040204Y705587D02*
X1040205Y705587D01*
X1040204Y705586D02*
X1040204Y705587D01*
X1040204Y705585D02*
X1040204Y705586D01*
X1040204Y705584D02*
X1040204Y705585D01*
X1040204Y705584D02*
X1040204Y705584D01*
X1040203Y705583D02*
X1040204Y705584D01*
X1040203Y705582D02*
X1040203Y705583D01*
X1040203Y705581D02*
X1040203Y705582D01*
X1040203Y705581D02*
X1040203Y705581D01*
X1040202Y705580D02*
X1040203Y705581D01*
X1040202Y705579D02*
X1040202Y705580D01*
X1040202Y705578D02*
X1040202Y705579D01*
X1040202Y705577D02*
X1040202Y705578D01*
X1040201Y705577D02*
X1040202Y705577D01*
X1040201Y705576D02*
X1040201Y705577D01*
X1040200Y705573D02*
X1040201Y705576D01*
X1027928Y705157D02*
X1039631D01*
X1040218Y716389D02*
Y724185D01*
X1039044Y716389D02*
Y723598D01*
X1028515D02*
X1039044D01*
X1028515Y716389D02*
Y723598D01*
X1027358Y716389D02*
Y724185D01*
X1027928Y724772D02*
X1039631D01*
X1031835Y728982D02*
X1039632D01*
X1031835Y727808D02*
X1039632D01*
X1028908Y727808D02*
X1028918Y727808D01*
Y728982D02*
X1029890D01*
X1028918Y727808D02*
X1029890D01*
X1026856Y730222D02*
Y735101D01*
X1027443Y735688D02*
X1039649D01*
X1032422Y734514D02*
X1039649D01*
X1032422Y731211D02*
Y734514D01*
X1031265Y731211D02*
Y734514D01*
X1028029D02*
X1031265D01*
X1028029Y730222D02*
Y734514D01*
X1032422Y738537D02*
X1039045D01*
Y743214D01*
X1032422D02*
X1039045D01*
X1032422Y738537D02*
Y743214D01*
X1039615Y737363D02*
X1039632D01*
X1031835D02*
X1039615D01*
X1031248Y737950D02*
Y743801D01*
X1031835Y744388D02*
X1039632D01*
X1040219Y737950D02*
Y743801D01*
X1032422Y748646D02*
X1039649D01*
X1032422Y746315D02*
Y748646D01*
X1032422Y746307D02*
X1032422Y746315D01*
X1031832Y745729D02*
X1031835Y745729D01*
X1031265Y746315D02*
Y749232D01*
X1031835Y749819D02*
X1039649D01*
X1028516Y759291D02*
X1039632D01*
X1028516Y752668D02*
Y759291D01*
Y752668D02*
X1032456D01*
X1034233Y756239D01*
X1033327Y751813D02*
X1035289Y755719D01*
X1027929Y751495D02*
X1032808D01*
X1027359Y752082D02*
Y759878D01*
X1027929Y760465D02*
X1039632D01*
X1004199Y694413D02*
X1013402Y708364D01*
X1004199Y694413D02*
X1020855Y701149D01*
X1013402Y708364D02*
X1020855Y701149D01*
X1004199Y694413D02*
X1013402Y708364D01*
X1004199Y694413D02*
X1020855Y701149D01*
X1013402Y708364D02*
X1020855Y701149D01*
X1003889Y694984D02*
X1005674Y711095D01*
X1003889Y694984D02*
X1013186Y709077D01*
X1025273Y743937D01*
X1013082Y762224D02*
X1025273Y743937D01*
X1005674Y711095D02*
X1013082Y762224D01*
D80*
X1029873Y712953D02*
Y713004D01*
X1027684D02*
X1029873D01*
X1037703Y706330D02*
Y706374D01*
X1039750D01*
X1027928Y705157D02*
Y706330D01*
X1039631Y705157D02*
Y706459D01*
X1032422Y734514D02*
Y735688D01*
D81*
X748902Y771548D02*
X803402D01*
X748902Y755292D02*
Y771548D01*
Y687888D02*
Y704038D01*
Y687888D02*
X803402D01*
Y771548D01*
X680576D02*
X735076D01*
X680576Y755292D02*
Y771548D01*
Y687888D02*
Y704038D01*
Y687888D02*
X735076D01*
Y771548D01*
D82*
X1031834Y741168D02*
D03*
D83*
X1036018Y737949D02*
D03*
D84*
X1039631Y740582D02*
D03*
D85*
X1039621Y743581D02*
D03*
D86*
X1036026Y743801D02*
D03*
D87*
X1032128Y744094D02*
D03*
X1032128Y737656D02*
D03*
D88*
X1031835Y738243D02*
D03*
D89*
X1031619Y737753D02*
D03*
D90*
X1031364Y737806D02*
D03*
D91*
X1031257Y738171D02*
D03*
D92*
X1031850Y738151D02*
D03*
D93*
X1031984Y737603D02*
D03*
D94*
X1032054Y737666D02*
D03*
D95*
X1031532Y737615D02*
D03*
D96*
X1039793Y738001D02*
D03*
D97*
X1039875Y738095D02*
D03*
D98*
X1040084Y738167D02*
D03*
D99*
X1039698Y737518D02*
D03*
D100*
X1039754Y737540D02*
D03*
D101*
X1039778Y743760D02*
D03*
D102*
X1039773Y744346D02*
D03*
D103*
X1039871Y743675D02*
D03*
D104*
X1039902Y743619D02*
D03*
D105*
X1031593Y743969D02*
D03*
D106*
X1031638Y744180D02*
D03*
D107*
X1031690Y744219D02*
D03*
D108*
X1032056Y744084D02*
D03*
D109*
X1031491Y743911D02*
D03*
D110*
X1039798Y705794D02*
D03*
D111*
X1039916Y705724D02*
D03*
D112*
X1039903Y705916D02*
D03*
D113*
X1039927Y705875D02*
D03*
D114*
X1039879Y705616D02*
D03*
D115*
X1040142Y705629D02*
D03*
D116*
X1039858Y705536D02*
D03*
D117*
X1040048Y705558D02*
D03*
D118*
X1039758Y705318D02*
D03*
D119*
X1039925Y705285D02*
D03*
D120*
X1039851Y706087D02*
D03*
D121*
Y705875D02*
D03*
D122*
X1039753Y706260D02*
D03*
D123*
X1039812Y706302D02*
D03*
D124*
X1039893Y705931D02*
D03*
D125*
X1036035Y735100D02*
D03*
D126*
X1040132Y735150D02*
D03*
D127*
X1033476Y735107D02*
D03*
D128*
X1039760Y735088D02*
D03*
D129*
X1039934Y735059D02*
D03*
D130*
X1039989Y735469D02*
D03*
D131*
X1040042Y734733D02*
D03*
M02*
