M48
;Layer_Color=9474304
;FILE_FORMAT=4:4
METRIC,LZ
;TYPE=PLATED
T1F00S00C0.2000
T2F00S00C0.3000
T3F00S00C0.8000
T4F00S00C0.9000
T5F00S00C2.2000
T6F00S00C2.3048
T7F00S00C2.5000
T8F00S00C2.5548
T9F00S00C3.0000
%
T01
X00015334Y00230314
X0006842Y00244792
X00068674Y00265112
X00071976Y00189674
X-00386238Y00077734
T02
X-0014478Y-0012573
X-0012319Y-001143
X-0004826Y-0006858
X-0001905Y-0006731
X-0001143Y-0007239
X0020701Y-000762
X0023241Y-0008255
X0023368Y-000635
X0025273Y-0009906
X0031242Y-0011684
Y-0003048
X00272923Y-00046863
X0028575Y0000381
X0017018Y0009525
X0017526Y0013716
X0014478Y0014478
X0013081Y0012319
X00118364Y00090424
X00042418Y00012192
X0000889Y0001524
X000127Y0000254
X-0001397Y0000762
X-0001561Y0003138
X-0001651Y0004953
X-0001143Y-000381
Y-0005461
X-0000254Y0014986
X00098806Y00277876
X00162306Y0033401
X-0012319Y0027813
X-0013462Y0026797
X-0014478Y0028321
X-001651Y0026924
X-0018564Y00266421
X-0015494Y0024638
X-0014351
X-0012827Y0024765
X-0011049Y00254
X-002159Y0024384
X-0026162Y0024638
X-00293614Y00239786
X-0033274Y002667
X-0023876Y003048
X-002286Y0029845
X-0020955Y0032766
X-0020447Y0034036
X-0014605Y0006223
X-0013843Y0005461
X-0012954Y0007112
X-0009525Y000635
X-0009779Y000508
Y0000381
X-0009652Y-0001016
X-0007112Y-0000635
X-0006985Y-000254
X-0004953Y-0001397
X-0004699Y0000254
X-0005207Y0002286
X-0007239
X-00020859Y00014509
X-0001905Y-0001651
Y-0003048
X-00047585Y-00036235
X-0004826Y-000508
X-0012065Y-000254
X-0014986Y0003175
X-0008128Y0009017
X-0034798Y0006985
X-0035433Y0011557
X-0035687Y0034798
Y0036957
T03
X002354Y0014136
Y0016676
Y0019216
Y0021756
Y0024296
Y0026836
Y0029376
X0025444Y0030519
Y0027979
Y0025439
Y0022899
Y0020359
Y0017819
Y0015279
Y0012739
X0027349Y0014009
Y0016549
Y0019089
Y0021629
Y0024169
Y0026709
Y0029249
X0029252Y0027979
Y0025439
Y0022899
Y0020359
Y0017819
Y0015279
Y0012739
Y0030519
T04
X0023495Y-0021844
X0026035
X0028575
Y-0018288
X0026035
X0023495
Y-0014859
X0026035
X0028575
T05
X0026396Y0007659
Y0035599
T06
X0026371Y0000959
X-0036629
T07
X-00092806Y-00095768
X-00298546Y0019049
T08
X-0036629Y0041959
X0026371
T09
X-0028629Y-0016291
X0018371
Y0028709
X-0028629
M30
