%FSLAX42Y42*%
%MOMM*%
G71*
G01*
G75*
G04 Layer_Color=65535*
%ADD10C,0.15*%
%ADD11C,0.50*%
%ADD12C,0.80*%
%ADD13C,0.20*%
%ADD14C,0.25*%
%ADD15C,1.00*%
%ADD16C,4.10*%
%ADD17C,1.30*%
%ADD18C,2.54*%
%ADD19R,1.50X1.50*%
%ADD20C,1.50*%
%ADD21C,2.30*%
%ADD22C,2.55*%
%ADD23C,3.00*%
%ADD24C,0.60*%
%ADD25C,0.50*%
%ADD26R,0.61X0.51*%
%ADD27R,0.71X1.32*%
G04:AMPARAMS|DCode=28|XSize=0.51mm|YSize=0.61mm|CornerRadius=0.13mm|HoleSize=0mm|Usage=FLASHONLY|Rotation=0.000|XOffset=0mm|YOffset=0mm|HoleType=Round|Shape=RoundedRectangle|*
%AMROUNDEDRECTD28*
21,1,0.51,0.36,0,0,0.0*
21,1,0.25,0.61,0,0,0.0*
1,1,0.25,0.13,-0.18*
1,1,0.25,-0.13,-0.18*
1,1,0.25,-0.13,0.18*
1,1,0.25,0.13,0.18*
%
%ADD28ROUNDEDRECTD28*%
%ADD29R,0.30X0.30*%
%ADD30R,0.30X0.50*%
%ADD31R,0.30X0.30*%
%ADD32R,0.50X0.30*%
%ADD33R,3.30X3.30*%
%ADD34R,0.30X0.45*%
%ADD35R,0.45X0.30*%
%ADD36R,0.98X3.40*%
%ADD37R,1.42X1.07*%
%ADD38R,1.91X1.19*%
%ADD39R,1.91X2.39*%
%ADD40R,2.11X1.50*%
%ADD41R,1.70X0.46*%
%ADD42R,0.51X0.61*%
%ADD43R,0.61X0.91*%
G04:AMPARAMS|DCode=44|XSize=0.71mm|YSize=1.32mm|CornerRadius=0.18mm|HoleSize=0mm|Usage=FLASHONLY|Rotation=0.000|XOffset=0mm|YOffset=0mm|HoleType=Round|Shape=RoundedRectangle|*
%AMROUNDEDRECTD44*
21,1,0.71,0.97,0,0,0.0*
21,1,0.36,1.32,0,0,0.0*
1,1,0.36,0.18,-0.48*
1,1,0.36,-0.18,-0.48*
1,1,0.36,-0.18,0.48*
1,1,0.36,0.18,0.48*
%
%ADD44ROUNDEDRECTD44*%
G04:AMPARAMS|DCode=45|XSize=0.61mm|YSize=0.91mm|CornerRadius=0.15mm|HoleSize=0mm|Usage=FLASHONLY|Rotation=90.000|XOffset=0mm|YOffset=0mm|HoleType=Round|Shape=RoundedRectangle|*
%AMROUNDEDRECTD45*
21,1,0.61,0.61,0,0,90.0*
21,1,0.30,0.91,0,0,90.0*
1,1,0.30,0.30,0.15*
1,1,0.30,0.30,-0.15*
1,1,0.30,-0.30,-0.15*
1,1,0.30,-0.30,0.15*
%
%ADD45ROUNDEDRECTD45*%
%ADD46R,0.71X0.20*%
%ADD47O,0.28X0.85*%
%ADD48O,0.85X0.28*%
%ADD49R,1.70X1.70*%
%ADD50R,3.02X0.76*%
%ADD51R,1.22X0.71*%
%ADD52R,1.70X0.40*%
G04:AMPARAMS|DCode=53|XSize=0.61mm|YSize=1.7mm|CornerRadius=0.3mm|HoleSize=0mm|Usage=FLASHONLY|Rotation=0.000|XOffset=0mm|YOffset=0mm|HoleType=Round|Shape=RoundedRectangle|*
%AMROUNDEDRECTD53*
21,1,0.61,1.09,0,0,0.0*
21,1,0.00,1.70,0,0,0.0*
1,1,0.61,0.00,-0.55*
1,1,0.61,0.00,-0.55*
1,1,0.61,0.00,0.55*
1,1,0.61,0.00,0.55*
%
%ADD53ROUNDEDRECTD53*%
G04:AMPARAMS|DCode=54|XSize=2.82mm|YSize=1.02mm|CornerRadius=0.51mm|HoleSize=0mm|Usage=FLASHONLY|Rotation=270.000|XOffset=0mm|YOffset=0mm|HoleType=Round|Shape=RoundedRectangle|*
%AMROUNDEDRECTD54*
21,1,2.82,0.00,0,0,270.0*
21,1,1.80,1.02,0,0,270.0*
1,1,1.02,0.00,-0.90*
1,1,1.02,0.00,0.90*
1,1,1.02,0.00,0.90*
1,1,1.02,0.00,-0.90*
%
%ADD54ROUNDEDRECTD54*%
%ADD55C,0.38*%
%ADD56C,0.60*%
%ADD57C,0.13*%
%ADD58R,0.60X0.15*%
D14*
X819Y1693D02*
Y1698D01*
X-1499Y-3137D02*
X-1600D01*
Y-3213D01*
X-1549D01*
X-1600D01*
Y-3289D01*
X-1448Y-3188D02*
Y-3289D01*
Y-3239D01*
X-1422Y-3213D01*
X-1397Y-3188D01*
X-1372D01*
X-1270Y-3289D02*
X-1219D01*
X-1194Y-3264D01*
Y-3213D01*
X-1219Y-3188D01*
X-1270D01*
X-1295Y-3213D01*
Y-3264D01*
X-1270Y-3289D01*
X-1143D02*
Y-3188D01*
X-1118D01*
X-1092Y-3213D01*
Y-3289D01*
Y-3213D01*
X-1067Y-3188D01*
X-1042Y-3213D01*
Y-3289D01*
X-813Y-3162D02*
Y-3188D01*
X-838D01*
X-788D01*
X-813D01*
Y-3264D01*
X-788Y-3289D01*
X-711Y-3137D02*
Y-3289D01*
Y-3213D01*
X-686Y-3188D01*
X-635D01*
X-610Y-3213D01*
Y-3289D01*
X-559D02*
X-508D01*
X-534D01*
Y-3188D01*
X-559D01*
X-432Y-3289D02*
X-356D01*
X-331Y-3264D01*
X-356Y-3239D01*
X-407D01*
X-432Y-3213D01*
X-407Y-3188D01*
X-331D01*
X-127Y-3289D02*
X-51D01*
X-26Y-3264D01*
X-51Y-3239D01*
X-102D01*
X-127Y-3213D01*
X-102Y-3188D01*
X-26D01*
X25Y-3289D02*
X76D01*
X50D01*
Y-3188D01*
X25D01*
X253Y-3137D02*
Y-3289D01*
X177D01*
X152Y-3264D01*
Y-3213D01*
X177Y-3188D01*
X253D01*
X380Y-3289D02*
X330D01*
X304Y-3264D01*
Y-3213D01*
X330Y-3188D01*
X380D01*
X406Y-3213D01*
Y-3239D01*
X304D01*
X-1486Y-2870D02*
X-1511Y-2845D01*
X-1562D01*
X-1588Y-2870D01*
Y-2972D01*
X-1562Y-2997D01*
X-1511D01*
X-1486Y-2972D01*
X-1410Y-2997D02*
X-1359D01*
X-1334Y-2972D01*
Y-2921D01*
X-1359Y-2896D01*
X-1410D01*
X-1435Y-2921D01*
Y-2972D01*
X-1410Y-2997D01*
X-1283Y-2896D02*
Y-2972D01*
X-1257Y-2997D01*
X-1181D01*
Y-2896D01*
X-1130Y-2997D02*
Y-2896D01*
X-1054D01*
X-1029Y-2921D01*
Y-2997D01*
X-953Y-2870D02*
Y-2896D01*
X-978D01*
X-927D01*
X-953D01*
Y-2972D01*
X-927Y-2997D01*
X-775D02*
X-826D01*
X-851Y-2972D01*
Y-2921D01*
X-826Y-2896D01*
X-775D01*
X-750Y-2921D01*
Y-2946D01*
X-851D01*
X-699Y-2896D02*
Y-2997D01*
Y-2946D01*
X-673Y-2921D01*
X-648Y-2896D01*
X-623D01*
X-546Y-2997D02*
X-470D01*
X-445Y-2972D01*
X-470Y-2946D01*
X-521D01*
X-546Y-2921D01*
X-521Y-2896D01*
X-445D01*
X-394Y-2997D02*
X-343D01*
X-369D01*
Y-2896D01*
X-394D01*
X-267Y-2997D02*
Y-2896D01*
X-191D01*
X-166Y-2921D01*
Y-2997D01*
X-115D02*
Y-2845D01*
Y-2946D02*
X-39Y-2896D01*
X-115Y-2946D02*
X-39Y-2997D01*
X190Y-2896D02*
X291Y-2997D01*
X241Y-2946D01*
X291Y-2896D01*
X190Y-2997D01*
X418D02*
Y-2845D01*
X342Y-2921D01*
X444D01*
X1997Y1007D02*
Y956D01*
Y981D01*
X2124D01*
X2150Y956D01*
Y931D01*
X2124Y905D01*
X2150Y1058D02*
X2048D01*
X1997Y1108D01*
X2048Y1159D01*
X2150D01*
X2074D01*
Y1058D01*
X1997Y1312D02*
Y1210D01*
X2150D01*
Y1312D01*
X2074Y1210D02*
Y1261D01*
X2175Y1362D02*
Y1464D01*
X1997Y1515D02*
Y1616D01*
Y1565D01*
X2150D01*
X1997Y1667D02*
X2150Y1769D01*
X1997D02*
X2150Y1667D01*
Y1921D02*
Y1819D01*
X2048Y1921D01*
X2023D01*
X1997Y1896D01*
Y1845D01*
X2023Y1819D01*
X2150Y2048D02*
X1997D01*
X2074Y1972D01*
Y2073D01*
X2354Y3986D02*
X2303D01*
X2329D01*
Y3859D01*
X2303Y3833D01*
X2278D01*
X2252Y3859D01*
X2405Y3833D02*
X2456D01*
X2430D01*
Y3986D01*
X2405Y3960D01*
D57*
X2233Y575D02*
X2944D01*
X3046Y677D01*
Y3750D01*
X2233Y3750D02*
X3046Y3750D01*
X2233Y3750D02*
X2233Y575D01*
D58*
X-1346Y-1346D02*
D03*
X-1117Y-1346D02*
D03*
M02*
