%FSLAX42Y42*%
%MOMM*%
G71*
G01*
G75*
G04 Layer_Physical_Order=2*
G04 Layer_Color=16711680*
%ADD10C,0.15*%
%ADD11C,0.50*%
%ADD12C,0.80*%
%ADD13C,0.20*%
%ADD14C,0.25*%
%ADD15C,1.00*%
%ADD16C,4.10*%
%ADD17C,1.30*%
%ADD18C,2.54*%
%ADD19R,1.50X1.50*%
%ADD20C,1.50*%
%ADD21C,2.30*%
%ADD22C,2.55*%
%ADD23C,3.00*%
%ADD24C,0.60*%
%ADD25C,0.50*%
%ADD26R,0.61X0.51*%
%ADD27R,0.71X1.32*%
G04:AMPARAMS|DCode=28|XSize=0.51mm|YSize=0.61mm|CornerRadius=0.13mm|HoleSize=0mm|Usage=FLASHONLY|Rotation=0.000|XOffset=0mm|YOffset=0mm|HoleType=Round|Shape=RoundedRectangle|*
%AMROUNDEDRECTD28*
21,1,0.51,0.36,0,0,0.0*
21,1,0.25,0.61,0,0,0.0*
1,1,0.25,0.13,-0.18*
1,1,0.25,-0.13,-0.18*
1,1,0.25,-0.13,0.18*
1,1,0.25,0.13,0.18*
%
%ADD28ROUNDEDRECTD28*%
%ADD29R,0.30X0.30*%
%ADD30R,0.30X0.50*%
%ADD31R,0.30X0.30*%
%ADD32R,0.50X0.30*%
%ADD33R,3.30X3.30*%
%ADD34R,0.30X0.45*%
%ADD35R,0.45X0.30*%
%ADD36R,0.98X3.40*%
%ADD37R,1.42X1.07*%
%ADD38R,1.91X1.19*%
%ADD39R,1.91X2.39*%
%ADD40R,2.11X1.50*%
%ADD41R,1.70X0.46*%
%ADD42R,0.51X0.61*%
%ADD43R,0.61X0.91*%
G04:AMPARAMS|DCode=44|XSize=0.71mm|YSize=1.32mm|CornerRadius=0.18mm|HoleSize=0mm|Usage=FLASHONLY|Rotation=0.000|XOffset=0mm|YOffset=0mm|HoleType=Round|Shape=RoundedRectangle|*
%AMROUNDEDRECTD44*
21,1,0.71,0.97,0,0,0.0*
21,1,0.36,1.32,0,0,0.0*
1,1,0.36,0.18,-0.48*
1,1,0.36,-0.18,-0.48*
1,1,0.36,-0.18,0.48*
1,1,0.36,0.18,0.48*
%
%ADD44ROUNDEDRECTD44*%
G04:AMPARAMS|DCode=45|XSize=0.61mm|YSize=0.91mm|CornerRadius=0.15mm|HoleSize=0mm|Usage=FLASHONLY|Rotation=90.000|XOffset=0mm|YOffset=0mm|HoleType=Round|Shape=RoundedRectangle|*
%AMROUNDEDRECTD45*
21,1,0.61,0.61,0,0,90.0*
21,1,0.30,0.91,0,0,90.0*
1,1,0.30,0.30,0.15*
1,1,0.30,0.30,-0.15*
1,1,0.30,-0.30,-0.15*
1,1,0.30,-0.30,0.15*
%
%ADD45ROUNDEDRECTD45*%
%ADD46R,0.71X0.20*%
%ADD47O,0.28X0.85*%
%ADD48O,0.85X0.28*%
%ADD49R,1.70X1.70*%
%ADD50R,3.02X0.76*%
%ADD51R,1.22X0.71*%
%ADD52R,1.70X0.40*%
G04:AMPARAMS|DCode=53|XSize=0.61mm|YSize=1.7mm|CornerRadius=0.3mm|HoleSize=0mm|Usage=FLASHONLY|Rotation=0.000|XOffset=0mm|YOffset=0mm|HoleType=Round|Shape=RoundedRectangle|*
%AMROUNDEDRECTD53*
21,1,0.61,1.09,0,0,0.0*
21,1,0.00,1.70,0,0,0.0*
1,1,0.61,0.00,-0.55*
1,1,0.61,0.00,-0.55*
1,1,0.61,0.00,0.55*
1,1,0.61,0.00,0.55*
%
%ADD53ROUNDEDRECTD53*%
G04:AMPARAMS|DCode=54|XSize=2.82mm|YSize=1.02mm|CornerRadius=0.51mm|HoleSize=0mm|Usage=FLASHONLY|Rotation=270.000|XOffset=0mm|YOffset=0mm|HoleType=Round|Shape=RoundedRectangle|*
%AMROUNDEDRECTD54*
21,1,2.82,0.00,0,0,270.0*
21,1,1.80,1.02,0,0,270.0*
1,1,1.02,0.00,-0.90*
1,1,1.02,0.00,0.90*
1,1,1.02,0.00,0.90*
1,1,1.02,0.00,-0.90*
%
%ADD54ROUNDEDRECTD54*%
%ADD55C,0.38*%
%ADD56C,0.60*%
G36*
X3040Y4653D02*
X3041Y4649D01*
X3042Y4645D01*
X3042Y4645D01*
X3042Y4645D01*
X3044Y4642D01*
X3046Y4639D01*
X3046Y4639D01*
X3046Y4639D01*
X3049Y4637D01*
X3052Y4635D01*
X3052Y4635D01*
X3052Y4635D01*
X3056Y4634D01*
X3059Y4633D01*
X3277D01*
X3286Y2146D01*
X3284Y1607D01*
X3275Y1585D01*
X3003Y1585D01*
X3002Y1584D01*
X3000Y1584D01*
X2997Y1582D01*
X2993Y1581D01*
Y1581D01*
X2984Y1578D01*
X2984Y1578D01*
X2981Y1583D01*
X2964Y1596D01*
X2945Y1604D01*
X2925Y1606D01*
X2905Y1604D01*
X2886Y1596D01*
X2870Y1583D01*
X2866Y1578D01*
X2866Y1578D01*
X2857Y1581D01*
Y1581D01*
X2854Y1582D01*
X2850Y1584D01*
X2849Y1584D01*
X2848Y1585D01*
X2791Y1585D01*
X2787Y1597D01*
X2790Y1599D01*
X2803Y1616D01*
X2811Y1635D01*
X2813Y1655D01*
X2811Y1675D01*
X2803Y1694D01*
X2790Y1710D01*
X2774Y1723D01*
X2755Y1731D01*
X2735Y1733D01*
X2715Y1731D01*
X2696Y1723D01*
X2679Y1710D01*
X2667Y1694D01*
X2659Y1675D01*
X2657Y1655D01*
X2659Y1635D01*
X2667Y1616D01*
X2679Y1599D01*
X2683Y1597D01*
X2679Y1585D01*
X2622Y1585D01*
X2621Y1584D01*
X2619Y1584D01*
X2616Y1582D01*
X2612Y1581D01*
Y1581D01*
X2604Y1578D01*
X2604Y1578D01*
X2600Y1583D01*
X2584Y1596D01*
X2565Y1604D01*
X2544Y1606D01*
X2524Y1604D01*
X2505Y1596D01*
X2489Y1583D01*
X2477Y1567D01*
X2469Y1548D01*
X2466Y1528D01*
X2469Y1508D01*
X2477Y1489D01*
X2489Y1472D01*
X2505Y1460D01*
X2524Y1452D01*
X2524Y1452D01*
X2524Y1439D01*
X2427D01*
X2422Y1453D01*
X2409Y1469D01*
X2393Y1481D01*
X2374Y1489D01*
X2354Y1492D01*
X2334Y1489D01*
X2315Y1481D01*
X2299Y1469D01*
X2286Y1453D01*
X2278Y1434D01*
X2276Y1414D01*
X2278Y1393D01*
X2286Y1374D01*
X2299Y1358D01*
X2315Y1346D01*
X2334Y1338D01*
X2354Y1335D01*
X2374Y1338D01*
X2393Y1346D01*
X2409Y1358D01*
X2422Y1374D01*
X2427Y1388D01*
X2455D01*
X2464Y1379D01*
X2464Y1049D01*
X2397Y982D01*
X2392Y974D01*
X2390Y965D01*
X2390Y965D01*
X2390D01*
X2390Y965D01*
X2390D01*
Y372D01*
X1993Y-24D01*
X1777Y-24D01*
X1772Y-13D01*
X2007Y223D01*
X2012Y229D01*
X2013Y237D01*
X2013Y237D01*
X2013Y237D01*
Y237D01*
Y1926D01*
X2264Y2177D01*
X2276Y2173D01*
X2278Y2155D01*
X2286Y2136D01*
X2299Y2120D01*
X2315Y2108D01*
X2334Y2100D01*
X2354Y2097D01*
X2374Y2100D01*
X2393Y2108D01*
X2409Y2120D01*
X2422Y2136D01*
X2430Y2155D01*
X2432Y2176D01*
X2430Y2196D01*
X2422Y2215D01*
X2409Y2231D01*
X2393Y2243D01*
X2374Y2251D01*
X2357Y2254D01*
X2353Y2266D01*
X2483Y2396D01*
X2659D01*
X2667Y2378D01*
X2679Y2361D01*
X2696Y2349D01*
X2715Y2341D01*
X2735Y2339D01*
X2755Y2341D01*
X2774Y2349D01*
X2790Y2361D01*
X2803Y2378D01*
X2811Y2397D01*
X2813Y2417D01*
X2811Y2437D01*
X2803Y2456D01*
X2790Y2472D01*
X2774Y2485D01*
X2755Y2493D01*
X2735Y2495D01*
X2715Y2493D01*
X2696Y2485D01*
X2679Y2472D01*
X2667Y2456D01*
X2659Y2437D01*
X2475D01*
X2467Y2436D01*
X2460Y2431D01*
X2442Y2414D01*
X2431Y2419D01*
X2432Y2430D01*
X2430Y2450D01*
X2422Y2469D01*
X2409Y2485D01*
X2393Y2497D01*
X2374Y2505D01*
X2354Y2508D01*
X2334Y2505D01*
X2315Y2497D01*
X2299Y2485D01*
X2286Y2469D01*
X2278Y2450D01*
X2276Y2430D01*
X2278Y2409D01*
X2286Y2391D01*
X1965Y2070D01*
X1953Y2075D01*
Y2192D01*
X2285Y2523D01*
X2469D01*
X2477Y2505D01*
X2489Y2488D01*
X2505Y2476D01*
X2524Y2468D01*
X2544Y2466D01*
X2565Y2468D01*
X2584Y2476D01*
X2600Y2488D01*
X2612Y2505D01*
X2620Y2524D01*
X2623Y2544D01*
X2621Y2556D01*
X2630Y2565D01*
X2840D01*
X2848Y2556D01*
X2847Y2544D01*
X2850Y2524D01*
X2857Y2505D01*
X2870Y2488D01*
X2886Y2476D01*
X2905Y2468D01*
X2925Y2466D01*
X2945Y2468D01*
X2964Y2476D01*
X2981Y2488D01*
X2993Y2505D01*
X3001Y2524D01*
X3004Y2544D01*
X3001Y2564D01*
X2993Y2583D01*
X2981Y2599D01*
X2964Y2612D01*
X2945Y2620D01*
X2925Y2622D01*
X2905Y2620D01*
X2886Y2612D01*
X2879Y2606D01*
X2798D01*
X2792Y2618D01*
X2803Y2632D01*
X2811Y2651D01*
X2813Y2671D01*
X2811Y2691D01*
X2803Y2710D01*
X2790Y2726D01*
X2774Y2739D01*
X2755Y2747D01*
X2735Y2749D01*
X2715Y2747D01*
X2696Y2739D01*
X2679Y2726D01*
X2667Y2710D01*
X2659Y2691D01*
X2657Y2671D01*
X2659Y2651D01*
X2667Y2632D01*
X2678Y2618D01*
X2672Y2606D01*
X2632D01*
X2594Y2644D01*
X2588Y2648D01*
X2580Y2650D01*
X2509D01*
X2501Y2648D01*
X2495Y2644D01*
X2470Y2619D01*
X2417D01*
X2411Y2630D01*
X2422Y2644D01*
X2430Y2663D01*
X2432Y2684D01*
X2430Y2704D01*
X2422Y2723D01*
X2409Y2739D01*
X2393Y2751D01*
X2374Y2759D01*
X2354Y2762D01*
X2334Y2759D01*
X2315Y2751D01*
X2299Y2739D01*
X2286Y2723D01*
X2278Y2704D01*
X2276Y2684D01*
X2278Y2663D01*
X2286Y2644D01*
X2297Y2630D01*
X2291Y2619D01*
X2205D01*
X2197Y2617D01*
X2190Y2613D01*
X1890Y2313D01*
X1886Y2307D01*
X1884Y2299D01*
Y275D01*
X1185Y-424D01*
X374D01*
X0Y-51D01*
X-6Y-46D01*
X-14Y-45D01*
X-20D01*
Y23D01*
X-30D01*
Y381D01*
X-30Y381D01*
X-32Y389D01*
X-36Y396D01*
X-36Y396D01*
X-56Y416D01*
X-63Y420D01*
X-71Y422D01*
X-509D01*
X-509Y422D01*
X-517Y420D01*
X-523Y416D01*
X-532Y407D01*
X-775D01*
Y447D01*
X-872D01*
Y445D01*
X-896D01*
X-904Y444D01*
X-911Y439D01*
X-992Y357D01*
X-997Y351D01*
X-998Y343D01*
Y76D01*
X-1009Y69D01*
X-1018Y55D01*
X-1021Y38D01*
X-1018Y21D01*
X-1009Y7D01*
X-995Y-2D01*
X-978Y-5D01*
X-961Y-2D01*
X-947Y7D01*
X-938Y21D01*
X-934Y38D01*
X-938Y55D01*
X-947Y69D01*
X-957Y76D01*
Y334D01*
X-888Y404D01*
X-872D01*
Y402D01*
Y364D01*
Y323D01*
Y282D01*
Y242D01*
Y204D01*
Y163D01*
Y122D01*
Y82D01*
Y43D01*
Y3D01*
Y-38D01*
Y-78D01*
Y-117D01*
Y-157D01*
Y-198D01*
Y-238D01*
Y-279D01*
Y-319D01*
Y-359D01*
Y-399D01*
Y-439D01*
Y-479D01*
Y-519D01*
Y-559D01*
Y-599D01*
Y-639D01*
X-830D01*
X-577Y-892D01*
Y-1359D01*
X-640D01*
Y-1491D01*
X-473D01*
Y-1359D01*
X-536D01*
Y-883D01*
X-538Y-875D01*
X-542Y-868D01*
X-775Y-635D01*
Y-599D01*
Y-559D01*
Y-557D01*
X-717D01*
X-635Y-638D01*
X-629Y-643D01*
X-621Y-644D01*
X-429D01*
Y-652D01*
X-359D01*
D01*
X-359D01*
X-351Y-659D01*
Y-696D01*
X-359D01*
Y-696D01*
X-429D01*
Y-752D01*
X-363D01*
Y-1410D01*
X-386D01*
Y-1486D01*
X-300D01*
Y-1410D01*
X-322D01*
Y-732D01*
X-316Y-726D01*
X-311Y-719D01*
X-310Y-711D01*
X-310Y-711D01*
Y-533D01*
X-310Y-533D01*
X-310Y-533D01*
Y-516D01*
X-294D01*
Y-524D01*
Y-574D01*
X-223D01*
Y-567D01*
X-152D01*
X-145Y-577D01*
X-131Y-586D01*
X-114Y-590D01*
X-98Y-586D01*
X-84Y-577D01*
X-74Y-563D01*
X-71Y-546D01*
X-74Y-529D01*
X-84Y-515D01*
X-98Y-506D01*
X-114Y-503D01*
X-131Y-506D01*
X-145Y-515D01*
X-152Y-526D01*
X-223D01*
Y-524D01*
Y-474D01*
Y-467D01*
X-23D01*
X40Y-530D01*
X41Y-539D01*
X-22Y-602D01*
X-223D01*
Y-596D01*
X-294D01*
Y-652D01*
X-223D01*
Y-643D01*
X-13D01*
X-5Y-642D01*
X1Y-637D01*
X1Y-637D01*
X1Y-637D01*
X85Y-554D01*
X945D01*
X951Y-563D01*
X951Y-563D01*
X951D01*
D01*
X951Y-1091D01*
X953Y-1096D01*
X954Y-1100D01*
X955Y-1100D01*
X955Y-1101D01*
X959Y-1103D01*
X964Y-1105D01*
X2152Y-1121D01*
X2161Y-1144D01*
Y-1512D01*
X2149Y-1515D01*
X2134Y-1478D01*
X2106Y-1434D01*
X2072Y-1394D01*
X2033Y-1360D01*
X1988Y-1333D01*
X1940Y-1313D01*
X1889Y-1300D01*
X1837Y-1296D01*
X1785Y-1300D01*
X1734Y-1313D01*
X1686Y-1333D01*
X1642Y-1360D01*
X1602Y-1394D01*
X1568Y-1434D01*
X1541Y-1478D01*
X1521Y-1526D01*
X1508Y-1577D01*
X1504Y-1629D01*
X1508Y-1681D01*
X1521Y-1732D01*
X1541Y-1780D01*
X1568Y-1825D01*
X1602Y-1864D01*
X1642Y-1898D01*
X1686Y-1926D01*
X1734Y-1946D01*
X1785Y-1958D01*
X1837Y-1962D01*
X1889Y-1958D01*
X1940Y-1946D01*
X1988Y-1926D01*
X2033Y-1898D01*
X2072Y-1864D01*
X2106Y-1825D01*
X2134Y-1780D01*
X2149Y-1743D01*
X2161Y-1746D01*
Y-2019D01*
X2163Y-2028D01*
X2168Y-2036D01*
X2262Y-2129D01*
Y-2272D01*
X2437D01*
Y-2097D01*
X2295D01*
X2208Y-2010D01*
Y-1611D01*
X2216Y-1606D01*
X2219Y-1604D01*
X2326Y-1711D01*
Y-1741D01*
X2262D01*
Y-1917D01*
X2437D01*
Y-1741D01*
X2373D01*
Y-1702D01*
D01*
Y-1702D01*
X2373D01*
D01*
Y-1702D01*
X2373D01*
Y-1702D01*
X2373Y-1702D01*
X2373Y-1702D01*
D01*
D01*
D01*
D01*
X2371Y-1693D01*
X2369Y-1690D01*
X2369Y-1690D01*
X2366Y-1685D01*
Y-1685D01*
X2366Y-1685D01*
X2266Y-1585D01*
X2271Y-1574D01*
X2437D01*
Y-1398D01*
X2373D01*
Y-1133D01*
X2382Y-1124D01*
X2485Y-1125D01*
X2494Y-1148D01*
Y-1171D01*
X2459D01*
Y-1267D01*
X2494D01*
Y-1415D01*
X2494Y-1415D01*
X2497Y-1427D01*
X2497Y-1430D01*
X2506Y-1442D01*
X2520Y-1457D01*
X2518Y-1463D01*
X2515Y-1486D01*
X2518Y-1509D01*
X2527Y-1530D01*
X2541Y-1548D01*
X2559Y-1563D01*
X2565Y-1565D01*
Y-1750D01*
X2559Y-1752D01*
X2541Y-1766D01*
X2527Y-1785D01*
X2518Y-1806D01*
X2515Y-1829D01*
X2518Y-1852D01*
X2527Y-1873D01*
X2541Y-1891D01*
X2559Y-1905D01*
X2565Y-1908D01*
Y-2105D01*
X2559Y-2108D01*
X2541Y-2122D01*
X2527Y-2140D01*
X2518Y-2162D01*
X2515Y-2184D01*
X2518Y-2207D01*
X2527Y-2229D01*
X2541Y-2247D01*
X2559Y-2261D01*
X2581Y-2270D01*
X2603Y-2273D01*
X2626Y-2270D01*
X2648Y-2261D01*
X2666Y-2247D01*
X2680Y-2229D01*
X2689Y-2207D01*
X2692Y-2184D01*
X2689Y-2162D01*
X2680Y-2140D01*
X2666Y-2122D01*
X2648Y-2108D01*
X2642Y-2105D01*
Y-1908D01*
X2648Y-1905D01*
X2666Y-1891D01*
X2680Y-1873D01*
X2689Y-1852D01*
X2692Y-1829D01*
X2689Y-1806D01*
X2680Y-1785D01*
X2666Y-1766D01*
X2648Y-1752D01*
X2642Y-1750D01*
Y-1565D01*
X2648Y-1563D01*
X2666Y-1548D01*
X2680Y-1530D01*
X2689Y-1509D01*
X2692Y-1486D01*
X2689Y-1463D01*
X2680Y-1442D01*
X2666Y-1423D01*
X2648Y-1409D01*
X2626Y-1400D01*
X2603Y-1397D01*
X2581Y-1400D01*
X2580Y-1400D01*
X2571Y-1378D01*
Y-1267D01*
X2606D01*
Y-1171D01*
X2571D01*
Y-1135D01*
X2580Y-1126D01*
X2886Y-1130D01*
X2886Y-1130D01*
X2886Y-1130D01*
X2891Y-1128D01*
X2896Y-1127D01*
X2896Y-1126D01*
X2896Y-1126D01*
X2905Y-1118D01*
X2905Y-1117D01*
X2905Y-1117D01*
X2907Y-1113D01*
X2909Y-1108D01*
X2909Y-1108D01*
X2909Y-1108D01*
Y-1023D01*
X2905Y-1014D01*
X2895Y-1010D01*
X2814D01*
Y-862D01*
X3037D01*
X3037Y-862D01*
X3042D01*
X3051Y-858D01*
X3055Y-848D01*
Y-845D01*
Y-842D01*
Y-842D01*
X3217D01*
X3244Y-851D01*
Y-851D01*
X3244Y-851D01*
Y-851D01*
Y-1113D01*
X3244Y-1113D01*
Y-1114D01*
X3245Y-1116D01*
X3245Y-1119D01*
X3247Y-1121D01*
X3248Y-1123D01*
X3250Y-1124D01*
X3252Y-1126D01*
X3264Y-1131D01*
X3267Y-1131D01*
X3269Y-1132D01*
X3269Y-1132D01*
Y-1132D01*
X3275Y-1146D01*
X3270Y-2504D01*
X3270Y-2504D01*
X3270Y-2504D01*
X3270Y-3392D01*
X3051D01*
X3051Y-3392D01*
X3051Y-3392D01*
X3047Y-3392D01*
X3044Y-3393D01*
X3044Y-3393D01*
X3044Y-3393D01*
X3041Y-3395D01*
X3037Y-3397D01*
X3037Y-3397D01*
X3037Y-3397D01*
X3035Y-3401D01*
X3033Y-3404D01*
X3033Y-3404D01*
X3033Y-3404D01*
X3032Y-3407D01*
X3032Y-3411D01*
X3032Y-3411D01*
X3032Y-3411D01*
X3032Y-3444D01*
X3023Y-3453D01*
X2754D01*
X2562Y-3318D01*
X2561Y-3318D01*
X2561Y-3317D01*
X2358Y-3188D01*
X2358Y-3188D01*
X2357Y-3187D01*
X2149Y-3067D01*
X2149Y-3067D01*
X2148Y-3066D01*
X1935Y-2955D01*
X1935Y-2955D01*
X1934Y-2955D01*
X1716Y-2853D01*
X1716Y-2853D01*
X1716Y-2852D01*
X1493Y-2760D01*
X1493Y-2760D01*
X1493Y-2760D01*
X1266Y-2677D01*
X1266Y-2677D01*
X1266Y-2677D01*
X1036Y-2604D01*
X1036Y-2604D01*
X1035Y-2604D01*
X803Y-2542D01*
X803Y-2542D01*
X802Y-2542D01*
X567Y-2489D01*
X567Y-2489D01*
X566Y-2489D01*
X329Y-2447D01*
X329Y-2447D01*
X329Y-2447D01*
X90Y-2416D01*
X90Y-2416D01*
X89Y-2416D01*
X-150Y-2395D01*
X-151Y-2395D01*
X-151Y-2395D01*
X-392Y-2384D01*
X-392Y-2384D01*
X-393Y-2384D01*
X-633D01*
X-634Y-2384D01*
X-634Y-2384D01*
X-874Y-2395D01*
X-875Y-2395D01*
X-875Y-2395D01*
X-1115Y-2416D01*
X-1115Y-2416D01*
X-1116Y-2416D01*
X-1354Y-2447D01*
X-1355Y-2447D01*
X-1355Y-2447D01*
X-1592Y-2489D01*
X-1593Y-2489D01*
X-1593Y-2489D01*
X-1828Y-2542D01*
X-1828Y-2542D01*
X-1829Y-2542D01*
X-2061Y-2604D01*
X-2062Y-2604D01*
X-2062Y-2604D01*
X-2291Y-2677D01*
X-2292Y-2677D01*
X-2292Y-2677D01*
X-2518Y-2760D01*
X-2519Y-2760D01*
X-2519Y-2760D01*
X-2741Y-2852D01*
X-2742Y-2853D01*
X-2742Y-2853D01*
X-2960Y-2955D01*
X-2960Y-2955D01*
X-2961Y-2955D01*
X-3174Y-3066D01*
X-3175Y-3067D01*
X-3175Y-3067D01*
X-3383Y-3187D01*
X-3384Y-3188D01*
X-3384Y-3188D01*
X-3587Y-3317D01*
X-3587Y-3318D01*
X-3587Y-3318D01*
X-3779Y-3453D01*
X-4048D01*
X-4057Y-3444D01*
X-4057Y-3411D01*
X-4057Y-3411D01*
X-4057Y-3411D01*
X-4058Y-3407D01*
X-4059Y-3404D01*
X-4059Y-3404D01*
X-4059Y-3404D01*
X-4061Y-3401D01*
X-4063Y-3397D01*
X-4063Y-3397D01*
X-4063Y-3397D01*
X-4066Y-3395D01*
X-4069Y-3393D01*
X-4069Y-3393D01*
X-4069Y-3393D01*
X-4073Y-3392D01*
X-4077Y-3392D01*
X-4077Y-3392D01*
X-4077Y-3392D01*
X-4296D01*
X-4296Y-2504D01*
X-4296Y-2504D01*
X-4296Y-2504D01*
X-4304Y-178D01*
D01*
X-4312Y2146D01*
X-4303Y4633D01*
X-4085D01*
X-4082Y4634D01*
X-4078Y4635D01*
X-4078Y4635D01*
X-4078Y4635D01*
X-4075Y4637D01*
X-4072Y4639D01*
X-4072Y4639D01*
X-4071Y4639D01*
X-4069Y4642D01*
X-4067Y4645D01*
X-4067Y4645D01*
X-4067Y4645D01*
X-4067Y4649D01*
X-4066Y4653D01*
X-4066Y4695D01*
X-3779D01*
X-3580Y4555D01*
X-3580Y4555D01*
X-3580Y4554D01*
X-3369Y4421D01*
X-3369Y4421D01*
X-3368Y4420D01*
X-3152Y4296D01*
X-3152Y4296D01*
X-3151Y4296D01*
X-2930Y4182D01*
X-2930Y4182D01*
X-2929Y4181D01*
X-2703Y4077D01*
X-2702Y4077D01*
X-2702Y4077D01*
X-2471Y3983D01*
X-2470Y3983D01*
X-2470Y3983D01*
X-2235Y3900D01*
X-2235Y3900D01*
X-2234Y3900D01*
X-1996Y3827D01*
X-1995Y3827D01*
X-1995Y3827D01*
X-1753Y3766D01*
X-1753Y3766D01*
X-1752Y3765D01*
X-1508Y3715D01*
X-1508Y3715D01*
X-1508Y3715D01*
X-1261Y3675D01*
X-1261Y3676D01*
X-1261Y3675D01*
X-1013Y3647D01*
X-1012Y3647D01*
X-1012Y3647D01*
X-763Y3630D01*
X-763Y3630D01*
X-763Y3630D01*
X-513Y3625D01*
X-513Y3625D01*
X-512Y3625D01*
X-263Y3630D01*
X-263Y3630D01*
X-262Y3630D01*
X-14Y3647D01*
X-13Y3647D01*
X-13Y3647D01*
X235Y3675D01*
X235Y3676D01*
X236Y3675D01*
X482Y3715D01*
X482Y3715D01*
X483Y3715D01*
X727Y3765D01*
X727Y3766D01*
X728Y3766D01*
X969Y3827D01*
X969Y3827D01*
X970Y3827D01*
X1208Y3900D01*
X1209Y3900D01*
X1209Y3900D01*
X1444Y3983D01*
X1445Y3983D01*
X1445Y3983D01*
X1676Y4077D01*
X1676Y4077D01*
X1677Y4077D01*
X1903Y4181D01*
X1904Y4182D01*
X1904Y4182D01*
X2126Y4296D01*
X2126Y4296D01*
X2126Y4296D01*
X2343Y4420D01*
X2343Y4421D01*
X2343Y4421D01*
X2554Y4554D01*
X2554Y4555D01*
X2554Y4555D01*
X2754Y4695D01*
X3040D01*
X3040Y4653D01*
D02*
G37*
G36*
X-71Y372D02*
Y23D01*
X-107D01*
Y-45D01*
X-223D01*
Y-37D01*
X-294D01*
Y-93D01*
Y-95D01*
X-301Y-96D01*
X-307Y-101D01*
X-344Y-137D01*
X-359Y-137D01*
Y-137D01*
X-429D01*
Y-145D01*
X-448D01*
X-452Y-140D01*
X-455Y-123D01*
X-465Y-109D01*
X-479Y-99D01*
X-492Y-97D01*
X-492Y-97D01*
X-492Y-97D01*
X-491Y-84D01*
X-429D01*
Y-93D01*
X-359D01*
Y-37D01*
X-429D01*
Y-43D01*
X-674D01*
X-680Y-33D01*
X-695Y-23D01*
X-711Y-20D01*
X-728Y-23D01*
X-742Y-33D01*
X-751Y-47D01*
X-755Y-63D01*
X-751Y-80D01*
X-742Y-94D01*
X-728Y-104D01*
X-711Y-107D01*
X-695Y-104D01*
X-680Y-94D01*
X-674Y-84D01*
X-499D01*
X-499Y-85D01*
X-498Y-97D01*
X-512Y-99D01*
X-526Y-109D01*
X-536Y-123D01*
X-539Y-140D01*
X-536Y-156D01*
X-526Y-170D01*
X-512Y-180D01*
X-495Y-183D01*
X-483Y-181D01*
X-478Y-184D01*
X-470Y-186D01*
X-429D01*
Y-193D01*
X-359D01*
Y-186D01*
X-343D01*
X-335Y-184D01*
X-328Y-180D01*
X-306Y-157D01*
X-294Y-162D01*
Y-193D01*
X-224D01*
X-223Y-193D01*
Y-193D01*
X-223Y-193D01*
X-221Y-196D01*
X-207Y-205D01*
X-190Y-209D01*
X-174Y-205D01*
X-160Y-196D01*
X-150Y-182D01*
X-147Y-165D01*
X-150Y-148D01*
X-151Y-147D01*
X-145Y-135D01*
X-107D01*
Y-154D01*
X-20D01*
Y-105D01*
X-9Y-100D01*
X331Y-440D01*
X326Y-452D01*
X213D01*
X1Y-240D01*
X-5Y-236D01*
X-13Y-234D01*
X-223D01*
Y-228D01*
X-294D01*
Y-283D01*
X-223D01*
Y-275D01*
X-22D01*
X176Y-473D01*
X171Y-485D01*
X65D01*
X57Y-487D01*
X56Y-487D01*
X0Y-432D01*
X-6Y-427D01*
X-14Y-426D01*
X-82D01*
X-86Y-413D01*
X-84Y-412D01*
X-74Y-398D01*
X-71Y-381D01*
X-74Y-364D01*
X-84Y-350D01*
X-98Y-341D01*
X-114Y-337D01*
X-131Y-341D01*
X-145Y-350D01*
X-152Y-360D01*
X-223D01*
Y-328D01*
X-294D01*
Y-383D01*
X-260D01*
X-248Y-396D01*
X-241Y-400D01*
X-233Y-402D01*
X-152D01*
X-145Y-412D01*
X-143Y-413D01*
X-146Y-426D01*
X-223D01*
Y-418D01*
X-294D01*
Y-474D01*
Y-475D01*
X-310D01*
Y-356D01*
X-311Y-348D01*
X-316Y-341D01*
X-322Y-337D01*
X-330Y-335D01*
X-359D01*
Y-328D01*
X-429D01*
Y-335D01*
X-443D01*
X-445Y-332D01*
X-459Y-322D01*
X-476Y-319D01*
X-479Y-305D01*
X-450Y-276D01*
X-429D01*
Y-283D01*
X-359D01*
Y-228D01*
X-429D01*
Y-235D01*
X-459D01*
X-467Y-237D01*
X-473Y-241D01*
X-504Y-272D01*
X-516Y-267D01*
Y-216D01*
X-602D01*
Y-233D01*
X-661D01*
X-668Y-223D01*
X-682Y-214D01*
X-699Y-210D01*
X-715Y-214D01*
X-729Y-223D01*
X-739Y-237D01*
X-742Y-254D01*
X-739Y-271D01*
X-729Y-285D01*
X-715Y-294D01*
X-699Y-298D01*
X-682Y-294D01*
X-668Y-285D01*
X-661Y-275D01*
X-648D01*
X-644Y-287D01*
X-650Y-290D01*
X-688Y-328D01*
X-692Y-335D01*
X-694Y-343D01*
Y-372D01*
X-757Y-435D01*
X-775D01*
Y-399D01*
Y-359D01*
Y-319D01*
Y-279D01*
Y-238D01*
Y-198D01*
Y-157D01*
Y-117D01*
Y-78D01*
Y-38D01*
Y3D01*
Y43D01*
Y82D01*
Y122D01*
Y124D01*
X-246D01*
X-239Y114D01*
X-225Y105D01*
X-209Y102D01*
X-192Y105D01*
X-178Y114D01*
X-168Y128D01*
X-165Y145D01*
X-168Y162D01*
X-178Y176D01*
X-192Y185D01*
X-209Y189D01*
X-225Y185D01*
X-239Y176D01*
X-246Y166D01*
X-775D01*
Y204D01*
Y206D01*
X-760D01*
X-755Y198D01*
X-741Y188D01*
X-724Y185D01*
X-707Y188D01*
X-693Y198D01*
X-684Y212D01*
X-680Y229D01*
X-684Y245D01*
X-693Y259D01*
X-707Y269D01*
X-723Y272D01*
X-721Y285D01*
X-669D01*
X-599Y214D01*
X-592Y210D01*
X-584Y208D01*
X-584Y208D01*
X-558D01*
X-551Y198D01*
X-537Y188D01*
X-521Y185D01*
X-504Y188D01*
X-490Y198D01*
X-480Y212D01*
X-477Y229D01*
X-480Y245D01*
X-490Y259D01*
X-504Y269D01*
X-521Y272D01*
X-537Y269D01*
X-551Y259D01*
X-558Y249D01*
X-576D01*
X-640Y313D01*
X-635Y325D01*
X-513D01*
Y317D01*
X-427D01*
Y381D01*
X-80D01*
X-71Y372D01*
D02*
G37*
G36*
X-429Y-474D02*
X-359D01*
D01*
X-359D01*
X-351Y-482D01*
Y-495D01*
Y-518D01*
X-359D01*
Y-518D01*
X-429D01*
Y-574D01*
X-359D01*
D01*
X-359D01*
X-351Y-582D01*
Y-596D01*
X-359D01*
Y-596D01*
X-429D01*
Y-603D01*
X-612D01*
X-687Y-528D01*
X-682Y-517D01*
X-585D01*
X-577Y-515D01*
X-570Y-510D01*
X-570Y-510D01*
X-570Y-510D01*
X-526Y-467D01*
X-429D01*
Y-474D01*
D02*
G37*
G36*
X2672Y889D02*
X2692Y880D01*
X2696D01*
X2700Y880D01*
X2701Y880D01*
X2703D01*
X2706Y883D01*
X2709Y885D01*
X2722Y887D01*
X2760Y848D01*
X2759Y835D01*
X2757Y832D01*
X2754Y829D01*
Y828D01*
X2753Y827D01*
X2754Y823D01*
Y819D01*
X2762Y799D01*
X2767Y766D01*
X2762Y733D01*
X2750Y702D01*
X2729Y676D01*
X2703Y656D01*
X2672Y643D01*
X2640Y639D01*
X2607Y643D01*
X2576Y656D01*
X2550Y676D01*
X2530Y702D01*
X2517Y733D01*
X2513Y766D01*
X2517Y799D01*
X2530Y829D01*
X2550Y856D01*
X2576Y876D01*
X2607Y889D01*
X2640Y893D01*
X2672Y889D01*
D02*
G37*
G36*
X2848Y1571D02*
X2855Y1560D01*
X2850Y1548D01*
X2847Y1528D01*
X2850Y1508D01*
X2857Y1489D01*
X2870Y1472D01*
X2886Y1460D01*
X2905Y1452D01*
X2925Y1450D01*
X2945Y1452D01*
X2964Y1460D01*
X2981Y1472D01*
X2993Y1489D01*
X3001Y1508D01*
X3004Y1528D01*
X3001Y1548D01*
X2996Y1560D01*
X3003Y1571D01*
X3275Y1571D01*
X3284Y1562D01*
X3278Y-178D01*
D01*
X3275Y-1113D01*
X3269Y-1118D01*
X3258Y-1114D01*
Y-1113D01*
X3258D01*
Y-851D01*
X3258Y-851D01*
D01*
D01*
X3258Y-849D01*
Y-847D01*
Y-845D01*
Y-844D01*
Y-842D01*
X3258Y-840D01*
X3258Y-840D01*
X3258Y-840D01*
X3258D01*
Y-697D01*
X3042D01*
Y-840D01*
X3042Y-840D01*
X3042D01*
X3042Y-842D01*
Y-845D01*
Y-848D01*
X3037D01*
D01*
D01*
X3037D01*
Y-848D01*
X2800D01*
Y-1023D01*
X2895D01*
Y-1108D01*
X2886Y-1117D01*
X2571Y-1112D01*
Y-985D01*
X2568Y-970D01*
X2560Y-958D01*
X2548Y-950D01*
X2533Y-947D01*
X2529Y-947D01*
X2527Y-947D01*
X2511Y-950D01*
X2497Y-960D01*
X2487Y-974D01*
X2484Y-991D01*
X2487Y-1007D01*
X2494Y-1018D01*
Y-1102D01*
X2485Y-1111D01*
X2373Y-1110D01*
Y-851D01*
X2371Y-842D01*
X2369Y-840D01*
X2366Y-835D01*
X2366Y-835D01*
X2368Y-826D01*
X2364Y-809D01*
X2355Y-795D01*
X2341Y-785D01*
X2324Y-782D01*
X2307Y-785D01*
X2293Y-795D01*
X2284Y-809D01*
X2281Y-826D01*
X2284Y-842D01*
X2293Y-856D01*
X2307Y-866D01*
X2324Y-869D01*
X2326Y-871D01*
Y-1100D01*
X2317Y-1109D01*
X2258Y-1108D01*
Y-784D01*
X2353Y-689D01*
X2357Y-684D01*
X2358Y-682D01*
X2360Y-673D01*
Y-671D01*
X2368Y-666D01*
X2377Y-652D01*
X2380Y-635D01*
X2377Y-618D01*
X2368Y-604D01*
X2353Y-595D01*
X2337Y-591D01*
X2320Y-595D01*
X2306Y-604D01*
X2297Y-618D01*
X2293Y-635D01*
X2297Y-652D01*
X2306Y-666D01*
X2306Y-671D01*
X2219Y-758D01*
X2214Y-766D01*
X2212Y-775D01*
Y-852D01*
X2203Y-858D01*
X2200Y-859D01*
X2112Y-771D01*
X2114Y-762D01*
X2110Y-745D01*
X2101Y-731D01*
X2087Y-722D01*
X2070Y-718D01*
X2053Y-722D01*
X2039Y-731D01*
X2030Y-745D01*
X2027Y-762D01*
X2030Y-779D01*
X2039Y-793D01*
X2053Y-802D01*
X2070Y-806D01*
X2079Y-804D01*
X2161Y-886D01*
Y-1098D01*
X2152Y-1107D01*
X964Y-1091D01*
X964Y-563D01*
X973Y-554D01*
X1222D01*
X1230Y-552D01*
X1237Y-548D01*
X1747Y-38D01*
X1999Y-38D01*
X2478Y441D01*
Y885D01*
X2478Y1388D01*
X2525D01*
X2628Y1285D01*
Y991D01*
X2630Y981D01*
X2636Y972D01*
X2705Y904D01*
X2698Y893D01*
X2676Y902D01*
X2640Y907D01*
X2603Y902D01*
X2569Y888D01*
X2540Y866D01*
X2518Y836D01*
X2503Y802D01*
X2499Y766D01*
X2503Y729D01*
X2518Y695D01*
X2540Y666D01*
X2569Y644D01*
X2603Y630D01*
X2640Y625D01*
X2676Y630D01*
X2710Y644D01*
X2739Y666D01*
X2762Y695D01*
X2776Y729D01*
X2781Y766D01*
X2776Y802D01*
X2767Y824D01*
X2777Y831D01*
X2832Y777D01*
Y72D01*
X2827Y69D01*
X2817Y55D01*
X2814Y38D01*
X2817Y21D01*
X2827Y7D01*
X2841Y-2D01*
X2858Y-5D01*
X2874Y-2D01*
X2888Y7D01*
X2898Y21D01*
X2901Y38D01*
X2898Y55D01*
X2888Y69D01*
X2883Y72D01*
Y787D01*
X2881Y797D01*
X2876Y806D01*
X2680Y1001D01*
Y1295D01*
X2678Y1305D01*
X2673Y1314D01*
X2554Y1432D01*
X2546Y1438D01*
X2549Y1450D01*
X2565Y1452D01*
X2584Y1460D01*
X2600Y1472D01*
X2612Y1489D01*
X2620Y1508D01*
X2623Y1528D01*
X2620Y1548D01*
X2615Y1560D01*
X2622Y1571D01*
X2848Y1571D01*
D02*
G37*
%LPC*%
G36*
X1308Y1275D02*
X1291Y1272D01*
X1277Y1263D01*
X1268Y1249D01*
X1265Y1232D01*
X1268Y1215D01*
X1277Y1201D01*
X1284Y1197D01*
Y1184D01*
X1277Y1179D01*
X1267Y1165D01*
X1264Y1148D01*
Y1039D01*
X1267Y1022D01*
X1277Y1008D01*
X1291Y998D01*
X1308Y995D01*
X1325Y998D01*
X1339Y1008D01*
X1349Y1022D01*
X1352Y1039D01*
Y1148D01*
X1349Y1165D01*
X1339Y1179D01*
X1332Y1184D01*
Y1197D01*
X1339Y1201D01*
X1348Y1215D01*
X1352Y1232D01*
X1348Y1249D01*
X1339Y1263D01*
X1325Y1272D01*
X1308Y1275D01*
D02*
G37*
G36*
X-4026Y1162D02*
X-4242D01*
Y1017D01*
X-4026D01*
Y1162D01*
D02*
G37*
G36*
Y995D02*
X-4242D01*
Y850D01*
X-4026D01*
Y995D01*
D02*
G37*
G36*
X-406Y983D02*
X-482D01*
Y956D01*
X-498Y940D01*
X-793D01*
X-796Y942D01*
X-813Y945D01*
X-829Y942D01*
X-844Y932D01*
X-853Y918D01*
X-856Y902D01*
X-853Y885D01*
X-844Y871D01*
X-829Y861D01*
X-813Y858D01*
X-796Y861D01*
X-793Y863D01*
X-482D01*
X-482Y863D01*
X-470Y866D01*
X-467Y866D01*
X-455Y875D01*
X-455Y875D01*
X-455Y875D01*
X-433Y897D01*
X-406D01*
Y938D01*
X-405Y940D01*
X-406Y942D01*
Y983D01*
D02*
G37*
G36*
X1448Y1491D02*
X1431Y1488D01*
X1417Y1479D01*
X1408Y1464D01*
X1404Y1448D01*
X1408Y1431D01*
X1411Y1426D01*
Y1184D01*
X1403Y1179D01*
X1393Y1165D01*
X1390Y1148D01*
Y1039D01*
X1393Y1022D01*
X1403Y1008D01*
X1417Y998D01*
X1434Y995D01*
X1451Y998D01*
X1465Y1008D01*
X1475Y1022D01*
X1478Y1039D01*
Y1148D01*
X1475Y1165D01*
X1465Y1179D01*
X1457Y1184D01*
Y1406D01*
X1464Y1408D01*
X1479Y1417D01*
X1488Y1431D01*
X1491Y1448D01*
X1488Y1464D01*
X1479Y1479D01*
X1464Y1488D01*
X1448Y1491D01*
D02*
G37*
G36*
X-3277Y1252D02*
X-3594D01*
X-3602Y1251D01*
X-3609Y1246D01*
X-3609Y1246D01*
X-3750Y1105D01*
X-3754Y1107D01*
Y1107D01*
X-3754Y1107D01*
X-3950D01*
Y1035D01*
Y970D01*
Y904D01*
Y838D01*
X-3754D01*
Y853D01*
X-3752D01*
X-3744Y855D01*
X-3738Y859D01*
X-3721Y876D01*
X-3468D01*
X-2963Y372D01*
X-2957Y367D01*
X-2949Y366D01*
X-2949Y366D01*
X-1525D01*
X-1521Y354D01*
X-1529Y348D01*
X-1539Y334D01*
X-1542Y317D01*
X-1539Y301D01*
X-1529Y287D01*
X-1515Y277D01*
X-1499Y274D01*
X-1482Y277D01*
X-1468Y287D01*
X-1458Y301D01*
X-1455Y317D01*
X-1449Y325D01*
X-1154D01*
Y323D01*
Y282D01*
Y242D01*
Y204D01*
Y163D01*
Y122D01*
Y84D01*
X-1181D01*
X-1189Y83D01*
X-1196Y78D01*
X-1221Y53D01*
X-1226Y46D01*
X-1227Y38D01*
Y-216D01*
X-1237Y-223D01*
X-1247Y-237D01*
X-1250Y-254D01*
X-1247Y-271D01*
X-1237Y-285D01*
X-1223Y-294D01*
X-1206Y-298D01*
X-1190Y-294D01*
X-1176Y-285D01*
X-1166Y-271D01*
X-1166D01*
D01*
X-1154Y-274D01*
Y-279D01*
Y-319D01*
Y-359D01*
Y-399D01*
Y-439D01*
Y-479D01*
Y-519D01*
Y-559D01*
Y-599D01*
Y-639D01*
X-1058D01*
Y-599D01*
Y-559D01*
Y-519D01*
Y-479D01*
Y-439D01*
Y-399D01*
Y-359D01*
Y-319D01*
Y-279D01*
Y-238D01*
Y-198D01*
Y-157D01*
Y-155D01*
X-998D01*
X-990Y-153D01*
X-983Y-149D01*
X-983Y-149D01*
X-983Y-149D01*
X-977Y-143D01*
X-965Y-145D01*
X-949Y-142D01*
X-934Y-132D01*
X-925Y-118D01*
X-922Y-102D01*
X-925Y-85D01*
X-934Y-71D01*
X-949Y-61D01*
X-965Y-58D01*
X-982Y-61D01*
X-996Y-71D01*
X-1005Y-85D01*
X-1009Y-102D01*
X-1008Y-104D01*
X-1016Y-114D01*
X-1058D01*
Y-78D01*
Y-38D01*
Y3D01*
Y43D01*
Y82D01*
Y122D01*
Y163D01*
Y204D01*
Y242D01*
Y282D01*
Y323D01*
Y364D01*
Y402D01*
Y442D01*
Y483D01*
Y524D01*
Y526D01*
X-1038D01*
X-1021Y509D01*
X-1021Y508D01*
X-1018Y491D01*
X-1009Y477D01*
X-995Y468D01*
X-978Y464D01*
X-961Y468D01*
X-947Y477D01*
X-938Y491D01*
X-934Y508D01*
X-938Y525D01*
X-947Y539D01*
X-961Y548D01*
X-978Y552D01*
X-993Y548D01*
X-1003Y557D01*
Y560D01*
X-1002Y564D01*
X-995Y565D01*
X-988Y570D01*
X-988Y570D01*
X-988Y570D01*
X-965Y594D01*
X-952Y591D01*
X-936Y595D01*
X-922Y604D01*
X-912Y618D01*
X-909Y635D01*
X-912Y652D01*
X-922Y666D01*
X-936Y675D01*
X-952Y679D01*
X-969Y675D01*
X-983Y666D01*
X-990Y656D01*
X-1058D01*
Y684D01*
Y722D01*
Y767D01*
X-1058D01*
Y771D01*
X-1049Y780D01*
X-1025D01*
X-937Y692D01*
X-937Y692D01*
X-930Y687D01*
X-930Y687D01*
X-930Y687D01*
D01*
X-930Y687D01*
X-930Y687D01*
X-922Y686D01*
X-872D01*
Y684D01*
X-775D01*
Y729D01*
X-872D01*
Y727D01*
X-914D01*
X-1001Y815D01*
X-1008Y819D01*
X-1016Y821D01*
X-2836D01*
X-3262Y1246D01*
X-3269Y1251D01*
X-3277Y1252D01*
D02*
G37*
G36*
X199Y2626D02*
X113D01*
Y2550D01*
X135D01*
Y2536D01*
X135Y2535D01*
X135Y2533D01*
Y2523D01*
X113D01*
Y2447D01*
X115D01*
X119Y2435D01*
X111Y2430D01*
X109Y2428D01*
X95Y2408D01*
X91Y2383D01*
Y2309D01*
X89Y2303D01*
X94Y2279D01*
X108Y2258D01*
X129Y2244D01*
X153Y2239D01*
X178Y2244D01*
X199Y2258D01*
X200Y2259D01*
X214Y2280D01*
X218Y2304D01*
X218Y2304D01*
D01*
X228Y2308D01*
X228Y2308D01*
Y2308D01*
X355D01*
X363Y2302D01*
Y1935D01*
X365Y1931D01*
X367Y1926D01*
X377Y1915D01*
X377Y1915D01*
X377Y1915D01*
X382Y1913D01*
X387Y1911D01*
X387Y1911D01*
X387Y1911D01*
X534D01*
X535Y1911D01*
X535Y1911D01*
X539Y1913D01*
X544Y1915D01*
X544Y1915D01*
X544Y1915D01*
X560Y1931D01*
X561Y1936D01*
X563Y1941D01*
Y1976D01*
X569D01*
Y2341D01*
X563D01*
Y2463D01*
X561Y2468D01*
X560Y2473D01*
X524Y2509D01*
X524Y2509D01*
X524Y2509D01*
X522Y2510D01*
X522Y2510D01*
X513Y2516D01*
X503Y2518D01*
X492Y2516D01*
X488Y2513D01*
X467D01*
X463Y2516D01*
X453Y2518D01*
X442Y2516D01*
X438Y2513D01*
X423D01*
X422Y2512D01*
X421Y2513D01*
X418Y2512D01*
X413Y2516D01*
X403Y2518D01*
X392Y2516D01*
X383Y2510D01*
X380Y2505D01*
X372Y2510D01*
X372Y2510D01*
Y2510D01*
X363Y2516D01*
X353Y2518D01*
X343Y2516D01*
X334Y2525D01*
X336Y2535D01*
X334Y2545D01*
X328Y2554D01*
X319Y2560D01*
X309Y2562D01*
X252D01*
X241Y2560D01*
X234Y2555D01*
X199D01*
Y2626D01*
D02*
G37*
G36*
X2735Y1987D02*
X2715Y1985D01*
X2696Y1977D01*
X2679Y1964D01*
X2667Y1948D01*
X2659Y1929D01*
X2657Y1909D01*
X2659Y1889D01*
X2667Y1870D01*
X2679Y1853D01*
X2696Y1841D01*
X2715Y1833D01*
X2735Y1831D01*
X2755Y1833D01*
X2774Y1841D01*
X2790Y1853D01*
X2803Y1870D01*
X2811Y1889D01*
X2813Y1909D01*
X2811Y1929D01*
X2803Y1948D01*
X2790Y1964D01*
X2774Y1977D01*
X2755Y1985D01*
X2735Y1987D01*
D02*
G37*
G36*
X2925Y2114D02*
X2905Y2112D01*
X2886Y2104D01*
X2870Y2091D01*
X2857Y2075D01*
X2850Y2056D01*
X2847Y2036D01*
X2850Y2016D01*
X2857Y1997D01*
X2870Y1980D01*
X2886Y1968D01*
X2905Y1960D01*
X2925Y1958D01*
X2945Y1960D01*
X2964Y1968D01*
X2981Y1980D01*
X2993Y1997D01*
X3001Y2016D01*
X3004Y2036D01*
X3001Y2056D01*
X2993Y2075D01*
X2981Y2091D01*
X2964Y2104D01*
X2945Y2112D01*
X2925Y2114D01*
D02*
G37*
G36*
X2544Y2114D02*
X2524Y2112D01*
X2505Y2104D01*
X2489Y2091D01*
X2477Y2075D01*
X2469Y2056D01*
X2466Y2036D01*
X2469Y2016D01*
X2477Y1997D01*
X2489Y1980D01*
X2505Y1968D01*
X2524Y1960D01*
X2544Y1958D01*
X2565Y1960D01*
X2584Y1968D01*
X2600Y1980D01*
X2612Y1997D01*
X2620Y2016D01*
X2623Y2036D01*
X2620Y2056D01*
X2612Y2075D01*
X2600Y2091D01*
X2584Y2104D01*
X2565Y2112D01*
X2544Y2114D01*
D02*
G37*
G36*
X821Y2510D02*
X760D01*
X749Y2508D01*
X740Y2502D01*
X737Y2497D01*
X656D01*
X653Y2496D01*
X650Y2496D01*
X645Y2493D01*
X644Y2492D01*
X642Y2491D01*
X641Y2488D01*
X639Y2485D01*
X639Y2483D01*
X638Y2481D01*
Y2383D01*
X642Y2374D01*
X652Y2370D01*
X685D01*
Y2341D01*
X683D01*
Y1976D01*
X683D01*
X683Y1969D01*
X-303Y983D01*
X-343D01*
X-345Y983D01*
X-381D01*
Y960D01*
X-383Y956D01*
X-386Y940D01*
X-383Y923D01*
X-381Y920D01*
Y897D01*
X-345D01*
X-343Y896D01*
X-285D01*
X-268Y900D01*
X-254Y909D01*
X680Y1843D01*
X692Y1843D01*
X712Y1823D01*
X712Y1823D01*
X712Y1823D01*
X717Y1821D01*
X722Y1819D01*
X722Y1819D01*
X722Y1819D01*
X852D01*
X862Y1823D01*
X866Y1833D01*
Y2472D01*
X866Y2472D01*
X866Y2472D01*
X864Y2477D01*
X862Y2482D01*
X862Y2482D01*
X862Y2482D01*
X850Y2493D01*
X846Y2495D01*
X841Y2502D01*
X832Y2508D01*
X821Y2510D01*
D02*
G37*
G36*
X2354Y1746D02*
X2334Y1743D01*
X2315Y1735D01*
X2299Y1723D01*
X2286Y1707D01*
X2278Y1688D01*
X2276Y1668D01*
X2278Y1647D01*
X2286Y1628D01*
X2299Y1612D01*
X2315Y1600D01*
X2334Y1592D01*
X2354Y1589D01*
X2374Y1592D01*
X2393Y1600D01*
X2409Y1612D01*
X2422Y1628D01*
X2430Y1647D01*
X2432Y1668D01*
X2430Y1688D01*
X2422Y1707D01*
X2409Y1723D01*
X2393Y1735D01*
X2374Y1743D01*
X2354Y1746D01*
D02*
G37*
G36*
X2735Y1479D02*
X2715Y1477D01*
X2696Y1469D01*
X2679Y1456D01*
X2667Y1440D01*
X2659Y1421D01*
X2657Y1401D01*
X2659Y1381D01*
X2667Y1362D01*
X2679Y1345D01*
X2696Y1333D01*
X2703Y1330D01*
Y1075D01*
X2705Y1063D01*
X2712Y1052D01*
X2978Y787D01*
Y1D01*
X2819Y-158D01*
X2603D01*
X2590Y-161D01*
X2580Y-168D01*
X2485Y-262D01*
X2485Y-262D01*
X2466Y-281D01*
X2459Y-292D01*
X2457Y-304D01*
Y-623D01*
X2459Y-636D01*
X2466Y-646D01*
X2485Y-665D01*
X2485Y-665D01*
X2529Y-709D01*
X2539Y-716D01*
X2552Y-718D01*
X2770D01*
Y-721D01*
X2965D01*
Y-650D01*
X2965D01*
Y-589D01*
Y-522D01*
X3037D01*
Y-522D01*
X3042D01*
X3042Y-525D01*
X3042Y-530D01*
X3042Y-530D01*
X3042Y-530D01*
X3042D01*
Y-674D01*
X3258D01*
Y-530D01*
X3258Y-530D01*
D01*
D01*
X3258Y-530D01*
X3258Y-527D01*
Y-525D01*
X3258Y-524D01*
X3258Y-521D01*
X3258Y-521D01*
X3258Y-521D01*
X3258Y-521D01*
X3258D01*
Y-257D01*
X3042D01*
Y-347D01*
X3037D01*
Y-347D01*
X2800D01*
Y-518D01*
X2770D01*
X2770Y-518D01*
Y-518D01*
X2768Y-519D01*
X2755Y-506D01*
X2760Y-499D01*
X2760Y-499D01*
X2760D01*
X2769Y-485D01*
X2773Y-469D01*
X2769Y-452D01*
X2760Y-438D01*
X2746Y-428D01*
X2729Y-425D01*
X2713Y-428D01*
X2698Y-438D01*
X2689Y-452D01*
X2686Y-469D01*
X2689Y-485D01*
X2698Y-499D01*
X2703Y-503D01*
Y-517D01*
X2703Y-517D01*
X2703D01*
X2705Y-527D01*
X2711Y-535D01*
X2748Y-572D01*
X2748Y-572D01*
X2748D01*
X2748Y-572D01*
X2748D01*
X2748Y-572D01*
Y-572D01*
Y-572D01*
D01*
D01*
X2748D01*
Y-572D01*
X2753Y-575D01*
X2749Y-587D01*
X2589D01*
X2585Y-583D01*
Y-344D01*
X2642Y-286D01*
X2858D01*
X2871Y-284D01*
X2881Y-277D01*
X3096Y-62D01*
X3103Y-51D01*
X3106Y-39D01*
X3106Y-39D01*
X3106Y-39D01*
Y-39D01*
Y826D01*
X3103Y839D01*
X3096Y849D01*
X2897Y1049D01*
Y1178D01*
X2904Y1196D01*
X2906Y1198D01*
X2925Y1196D01*
X2945Y1198D01*
X2964Y1206D01*
X2981Y1218D01*
X2993Y1235D01*
X3001Y1254D01*
X3004Y1274D01*
X3001Y1294D01*
X2993Y1313D01*
X2981Y1329D01*
X2964Y1342D01*
X2945Y1350D01*
X2925Y1352D01*
X2905Y1350D01*
X2886Y1342D01*
X2870Y1329D01*
X2857Y1313D01*
X2850Y1294D01*
X2847Y1274D01*
X2850Y1254D01*
X2852Y1247D01*
X2841Y1236D01*
X2834Y1225D01*
X2832Y1213D01*
Y1040D01*
X2820Y1036D01*
X2767Y1089D01*
Y1330D01*
X2774Y1333D01*
X2790Y1345D01*
X2803Y1362D01*
X2811Y1381D01*
X2813Y1401D01*
X2811Y1421D01*
X2803Y1440D01*
X2790Y1456D01*
X2774Y1469D01*
X2755Y1477D01*
X2735Y1479D01*
D02*
G37*
G36*
X2925Y1860D02*
X2905Y1858D01*
X2886Y1850D01*
X2870Y1837D01*
X2857Y1821D01*
X2850Y1802D01*
X2847Y1782D01*
X2850Y1762D01*
X2857Y1743D01*
X2870Y1726D01*
X2886Y1714D01*
X2905Y1706D01*
X2925Y1704D01*
X2945Y1706D01*
X2964Y1714D01*
X2981Y1726D01*
X2993Y1743D01*
X3001Y1762D01*
X3004Y1782D01*
X3001Y1802D01*
X2993Y1821D01*
X2981Y1837D01*
X2964Y1850D01*
X2945Y1858D01*
X2925Y1860D01*
D02*
G37*
G36*
X2544D02*
X2524Y1858D01*
X2505Y1850D01*
X2489Y1837D01*
X2477Y1821D01*
X2469Y1802D01*
X2466Y1782D01*
X2469Y1762D01*
X2477Y1743D01*
X2489Y1726D01*
X2505Y1714D01*
X2524Y1706D01*
X2544Y1704D01*
X2565Y1706D01*
X2584Y1714D01*
X2600Y1726D01*
X2612Y1743D01*
X2620Y1762D01*
X2623Y1782D01*
X2620Y1802D01*
X2612Y1821D01*
X2600Y1837D01*
X2584Y1850D01*
X2565Y1858D01*
X2544Y1860D01*
D02*
G37*
G36*
X632Y850D02*
X465D01*
Y718D01*
X632D01*
Y850D01*
D02*
G37*
G36*
X-833Y-1359D02*
X-1001D01*
Y-1491D01*
X-833D01*
Y-1359D01*
D02*
G37*
G36*
X-1849D02*
X-2017D01*
Y-1491D01*
X-1849D01*
Y-1359D01*
D02*
G37*
G36*
X-1232Y-1099D02*
X-1249Y-1103D01*
X-1263Y-1112D01*
X-1272Y-1126D01*
X-1275Y-1143D01*
X-1272Y-1160D01*
X-1263Y-1174D01*
X-1249Y-1183D01*
X-1232Y-1187D01*
X-1220Y-1184D01*
X-1156Y-1248D01*
X-1161Y-1258D01*
X-1161D01*
X-1161Y-1258D01*
Y-1334D01*
X-1074D01*
Y-1258D01*
X-1097D01*
Y-1257D01*
X-1099Y-1249D01*
X-1103Y-1243D01*
X-1191Y-1155D01*
X-1188Y-1143D01*
X-1192Y-1126D01*
X-1201Y-1112D01*
X-1215Y-1103D01*
X-1232Y-1099D01*
D02*
G37*
G36*
X-1303Y-1358D02*
X-1389D01*
Y-1404D01*
X-1489D01*
Y-1359D01*
X-1656D01*
Y-1491D01*
X-1489D01*
Y-1446D01*
X-1375D01*
X-1367Y-1444D01*
X-1360Y-1440D01*
X-1360Y-1440D01*
X-1360Y-1440D01*
X-1355Y-1434D01*
X-1303D01*
Y-1417D01*
X-1161D01*
Y-1435D01*
X-1074D01*
Y-1359D01*
X-1161D01*
Y-1376D01*
X-1303D01*
Y-1358D01*
D02*
G37*
G36*
X-1849Y-1505D02*
X-2017D01*
Y-1637D01*
X-1849D01*
Y-1505D01*
D02*
G37*
G36*
X-2863Y-1296D02*
X-2915Y-1300D01*
X-2966Y-1313D01*
X-3014Y-1333D01*
X-3058Y-1360D01*
X-3098Y-1394D01*
X-3132Y-1434D01*
X-3159Y-1478D01*
X-3179Y-1526D01*
X-3192Y-1577D01*
X-3196Y-1629D01*
X-3192Y-1681D01*
X-3179Y-1732D01*
X-3159Y-1780D01*
X-3132Y-1825D01*
X-3098Y-1864D01*
X-3058Y-1898D01*
X-3014Y-1926D01*
X-2966Y-1946D01*
X-2915Y-1958D01*
X-2863Y-1962D01*
X-2811Y-1958D01*
X-2760Y-1946D01*
X-2712Y-1926D01*
X-2667Y-1898D01*
X-2628Y-1864D01*
X-2594Y-1825D01*
X-2566Y-1780D01*
X-2546Y-1732D01*
X-2534Y-1681D01*
X-2530Y-1629D01*
X-2534Y-1577D01*
X-2546Y-1526D01*
X-2566Y-1478D01*
X-2594Y-1434D01*
X-2628Y-1394D01*
X-2667Y-1360D01*
X-2712Y-1333D01*
X-2760Y-1313D01*
X-2811Y-1300D01*
X-2863Y-1296D01*
D02*
G37*
G36*
X-473Y-1505D02*
X-640D01*
Y-1637D01*
X-473D01*
Y-1569D01*
X-386D01*
Y-1587D01*
X-300D01*
Y-1510D01*
X-386D01*
Y-1528D01*
X-473D01*
Y-1505D01*
D02*
G37*
G36*
X-833D02*
X-1001D01*
Y-1637D01*
X-833D01*
Y-1505D01*
D02*
G37*
G36*
X272Y704D02*
X104D01*
Y583D01*
X74Y553D01*
X70Y546D01*
X68Y538D01*
Y190D01*
X58Y183D01*
X49Y169D01*
X45Y152D01*
X49Y136D01*
X58Y122D01*
X72Y112D01*
X89Y109D01*
X106Y112D01*
X120Y122D01*
X129Y136D01*
X132Y152D01*
X129Y169D01*
X120Y183D01*
X109Y190D01*
Y530D01*
X151Y572D01*
X272D01*
Y704D01*
D02*
G37*
G36*
X601Y178D02*
X273D01*
Y76D01*
X601D01*
Y178D01*
D02*
G37*
G36*
X-775Y648D02*
X-872D01*
Y602D01*
X-775D01*
Y648D01*
D02*
G37*
G36*
X632Y704D02*
X465D01*
Y572D01*
X632D01*
Y704D01*
D02*
G37*
G36*
X-114Y-680D02*
X-131Y-684D01*
X-145Y-693D01*
X-152Y-703D01*
X-223D01*
Y-696D01*
X-294D01*
Y-752D01*
X-223D01*
Y-744D01*
X-152D01*
X-145Y-755D01*
X-131Y-764D01*
X-114Y-767D01*
X-98Y-764D01*
X-84Y-755D01*
X-74Y-741D01*
X-71Y-724D01*
X-74Y-707D01*
X-84Y-693D01*
X-98Y-684D01*
X-114Y-680D01*
D02*
G37*
G36*
X-1448Y-1214D02*
X-1464Y-1217D01*
X-1479Y-1227D01*
X-1488Y-1241D01*
X-1491Y-1257D01*
X-1488Y-1274D01*
X-1479Y-1288D01*
X-1464Y-1298D01*
X-1448Y-1301D01*
X-1431Y-1298D01*
X-1428Y-1296D01*
X-1400D01*
X-1389Y-1307D01*
Y-1334D01*
X-1348D01*
X-1346Y-1334D01*
X-1344Y-1334D01*
X-1303D01*
Y-1257D01*
X-1330D01*
X-1357Y-1230D01*
X-1370Y-1222D01*
X-1372Y-1221D01*
X-1384Y-1219D01*
X-1384Y-1219D01*
X-1428D01*
X-1431Y-1217D01*
X-1448Y-1214D01*
D02*
G37*
G36*
X2637Y225D02*
X2604Y221D01*
X2573Y208D01*
X2546Y187D01*
X2525Y160D01*
X2512Y129D01*
X2508Y96D01*
X2512Y63D01*
X2525Y31D01*
X2546Y5D01*
X2573Y-16D01*
X2604Y-29D01*
X2637Y-33D01*
X2670Y-29D01*
X2702Y-16D01*
X2728Y5D01*
X2749Y31D01*
X2762Y63D01*
X2766Y96D01*
X2762Y129D01*
X2749Y160D01*
X2728Y187D01*
X2702Y208D01*
X2670Y221D01*
X2637Y225D01*
D02*
G37*
G36*
X-3663D02*
X-3696Y221D01*
X-3727Y208D01*
X-3754Y187D01*
X-3775Y160D01*
X-3788Y129D01*
X-3792Y96D01*
X-3788Y63D01*
X-3775Y31D01*
X-3754Y5D01*
X-3727Y-16D01*
X-3696Y-29D01*
X-3663Y-33D01*
X-3630Y-29D01*
X-3598Y-16D01*
X-3572Y5D01*
X-3551Y31D01*
X-3538Y63D01*
X-3534Y96D01*
X-3538Y129D01*
X-3551Y160D01*
X-3572Y187D01*
X-3598Y208D01*
X-3630Y221D01*
X-3663Y225D01*
D02*
G37*
G36*
X-2105Y3815D02*
X-4130D01*
X-4138Y3813D01*
X-4145Y3809D01*
X-4149Y3802D01*
X-4151Y3794D01*
Y3757D01*
X-4174D01*
Y3640D01*
X-4087D01*
Y3757D01*
X-4110D01*
Y3774D01*
X-2114D01*
X-1927Y3587D01*
Y3533D01*
X-1939Y3529D01*
X-1942Y3533D01*
X-1942Y3533D01*
X-1987Y3578D01*
X-1993Y3582D01*
X-2001Y3584D01*
X-4133D01*
X-4141Y3582D01*
X-4148Y3578D01*
X-4152Y3571D01*
X-4154Y3563D01*
Y3533D01*
X-4176D01*
Y3416D01*
X-4090D01*
Y3533D01*
X-4090D01*
Y3534D01*
X-4081Y3543D01*
X-4025D01*
Y3533D01*
X-4025D01*
Y3416D01*
X-3939D01*
Y3454D01*
X-3864D01*
Y3427D01*
X-3788D01*
Y3513D01*
X-3864D01*
Y3495D01*
X-3939D01*
Y3533D01*
X-3939D01*
Y3534D01*
X-3930Y3543D01*
X-2010D01*
X-1977Y3510D01*
Y3172D01*
X-1984D01*
Y3097D01*
X-1828D01*
Y3172D01*
X-1886D01*
Y3595D01*
X-1887Y3603D01*
X-1892Y3610D01*
X-2091Y3809D01*
X-2097Y3813D01*
X-2105Y3815D01*
D02*
G37*
G36*
X-3569Y3523D02*
X-3585Y3520D01*
X-3588Y3518D01*
X-3715D01*
X-3730Y3515D01*
X-3733Y3513D01*
X-3763D01*
Y3427D01*
X-3687D01*
Y3441D01*
X-3588D01*
X-3585Y3440D01*
X-3569Y3436D01*
X-3552Y3440D01*
X-3538Y3449D01*
X-3528Y3463D01*
X-3525Y3480D01*
X-3528Y3496D01*
X-3538Y3511D01*
X-3552Y3520D01*
X-3569Y3523D01*
D02*
G37*
G36*
X-1194Y2916D02*
X-1410D01*
X-1418Y2915D01*
X-1424Y2910D01*
X-1462Y2873D01*
X-1464Y2872D01*
X-1479Y2863D01*
X-1488Y2849D01*
X-1491Y2832D01*
X-1488Y2815D01*
X-1479Y2801D01*
X-1468Y2795D01*
Y2710D01*
X-1476D01*
Y2640D01*
X-1420D01*
Y2710D01*
X-1427D01*
Y2795D01*
X-1417Y2801D01*
X-1408Y2815D01*
X-1404Y2832D01*
X-1408Y2849D01*
X-1416Y2861D01*
X-1401Y2875D01*
X-1202D01*
X-1189Y2862D01*
Y2820D01*
X-1201Y2812D01*
X-1215Y2822D01*
X-1232Y2825D01*
X-1249Y2822D01*
X-1263Y2812D01*
X-1272Y2798D01*
X-1275Y2781D01*
X-1272Y2765D01*
X-1263Y2751D01*
X-1252Y2743D01*
Y2710D01*
X-1309D01*
X-1309Y2710D01*
Y2710D01*
X-1314Y2709D01*
X-1315Y2710D01*
X-1330Y2720D01*
X-1346Y2723D01*
X-1363Y2720D01*
X-1377Y2710D01*
X-1386Y2696D01*
X-1390Y2680D01*
X-1386Y2663D01*
X-1377Y2649D01*
X-1363Y2639D01*
X-1346Y2636D01*
X-1330Y2639D01*
X-1320Y2646D01*
X-1309Y2640D01*
Y2640D01*
X-1153D01*
Y2674D01*
X-1149Y2680D01*
X-1149Y2680D01*
X-1149Y2680D01*
X-1148Y2688D01*
X-1148Y2688D01*
Y2870D01*
X-1149Y2878D01*
X-1154Y2885D01*
X-1179Y2910D01*
X-1186Y2915D01*
X-1194Y2916D01*
D02*
G37*
G36*
X2925Y2876D02*
X2905Y2874D01*
X2886Y2866D01*
X2870Y2853D01*
X2857Y2837D01*
X2850Y2818D01*
X2847Y2798D01*
X2850Y2778D01*
X2857Y2759D01*
X2870Y2742D01*
X2886Y2730D01*
X2905Y2722D01*
X2925Y2720D01*
X2945Y2722D01*
X2964Y2730D01*
X2981Y2742D01*
X2993Y2759D01*
X3001Y2778D01*
X3004Y2798D01*
X3001Y2818D01*
X2993Y2837D01*
X2981Y2853D01*
X2964Y2866D01*
X2945Y2874D01*
X2925Y2876D01*
D02*
G37*
G36*
X-1105Y2584D02*
X-1122Y2580D01*
X-1136Y2571D01*
X-1141Y2562D01*
X-1153Y2566D01*
Y2575D01*
X-1209D01*
Y2505D01*
X-1153D01*
Y2514D01*
X-1141Y2518D01*
X-1136Y2509D01*
X-1122Y2500D01*
X-1105Y2496D01*
X-1088Y2500D01*
X-1074Y2509D01*
X-1065Y2523D01*
X-1061Y2540D01*
X-1065Y2557D01*
X-1074Y2571D01*
X-1088Y2580D01*
X-1105Y2584D01*
D02*
G37*
G36*
X-1733Y3027D02*
X-1809D01*
Y2972D01*
Y2922D01*
Y2872D01*
Y2822D01*
Y2772D01*
X-1789D01*
Y2754D01*
X-1801Y2749D01*
X-1801Y2750D01*
X-1811Y2754D01*
X-1811Y2754D01*
X-1821D01*
X-1827Y2751D01*
X-1828Y2752D01*
Y2752D01*
X-1934D01*
Y2677D01*
X-1907D01*
X-1899Y2667D01*
X-1900Y2664D01*
X-1897Y2648D01*
X-1887Y2633D01*
X-1873Y2624D01*
X-1870Y2623D01*
X-1866Y2611D01*
X-1894Y2583D01*
X-1896Y2584D01*
X-1921D01*
X-1931Y2582D01*
X-1939Y2576D01*
X-1945Y2568D01*
X-1947Y2558D01*
Y2522D01*
X-1945Y2512D01*
X-1939Y2504D01*
X-1931Y2498D01*
X-1921Y2496D01*
X-1896D01*
X-1886Y2498D01*
X-1877Y2504D01*
X-1872Y2512D01*
X-1870Y2522D01*
Y2549D01*
X-1792Y2628D01*
X-1787Y2634D01*
X-1786Y2642D01*
Y2659D01*
X-1678D01*
X-1668Y2652D01*
X-1651Y2649D01*
X-1634Y2652D01*
X-1620Y2662D01*
X-1611Y2676D01*
X-1607Y2692D01*
X-1611Y2709D01*
X-1620Y2723D01*
X-1634Y2733D01*
X-1651Y2736D01*
X-1668Y2733D01*
X-1682Y2723D01*
X-1691Y2709D01*
X-1693Y2700D01*
X-1778D01*
Y2717D01*
X-1777Y2720D01*
X-1777Y2720D01*
X-1777Y2720D01*
X-1776Y2722D01*
X-1733D01*
Y2772D01*
Y2822D01*
Y2829D01*
X-1626D01*
X-1568Y2771D01*
Y2710D01*
X-1576D01*
Y2640D01*
X-1520D01*
Y2710D01*
X-1527D01*
Y2780D01*
X-1529Y2788D01*
X-1533Y2794D01*
X-1603Y2864D01*
X-1610Y2869D01*
X-1618Y2870D01*
X-1733D01*
Y2872D01*
Y2922D01*
Y2972D01*
Y3027D01*
D02*
G37*
G36*
X-3936Y3757D02*
X-4022D01*
Y3640D01*
X-3936D01*
Y3678D01*
X-3859D01*
Y3645D01*
X-3783D01*
Y3731D01*
X-3859D01*
Y3719D01*
X-3936D01*
Y3757D01*
D02*
G37*
G36*
X-1733Y3127D02*
X-1789D01*
Y3072D01*
X-1733D01*
Y3127D01*
D02*
G37*
G36*
X724Y3229D02*
X471D01*
X451Y3225D01*
X442Y3219D01*
X430Y3223D01*
X430Y3223D01*
X427Y3224D01*
X424Y3227D01*
X422Y3226D01*
X420Y3227D01*
X251D01*
X250Y3227D01*
X249Y3227D01*
X246Y3225D01*
X241Y3223D01*
X241Y3222D01*
X240Y3222D01*
X230Y3208D01*
X229Y3204D01*
X227Y3200D01*
Y3129D01*
X227Y3129D01*
X219Y3127D01*
X211Y3122D01*
X205Y3113D01*
X203Y3103D01*
Y3068D01*
X205Y3058D01*
X211Y3049D01*
X219Y3044D01*
X227Y3042D01*
X227Y3042D01*
Y3005D01*
X226D01*
X216Y3003D01*
X208Y2997D01*
X202Y2989D01*
X200Y2979D01*
Y2943D01*
X202Y2933D01*
X208Y2925D01*
X216Y2919D01*
X226Y2917D01*
X252D01*
X253Y2918D01*
X332Y2839D01*
Y2803D01*
X328Y2796D01*
X325Y2786D01*
Y2729D01*
X328Y2718D01*
X333Y2709D01*
X342Y2703D01*
X353Y2701D01*
X363Y2703D01*
X372Y2709D01*
X383D01*
X392Y2703D01*
X403Y2701D01*
X413Y2703D01*
X422Y2709D01*
X433D01*
X442Y2703D01*
X453Y2701D01*
X463Y2703D01*
X465Y2705D01*
X471Y2703D01*
X488Y2707D01*
X492Y2703D01*
X503Y2701D01*
X512Y2703D01*
X521Y2694D01*
X519Y2685D01*
X522Y2674D01*
X527Y2665D01*
Y2654D01*
X522Y2645D01*
X519Y2635D01*
X522Y2624D01*
X527Y2615D01*
X536Y2609D01*
X547Y2607D01*
X604D01*
X614Y2609D01*
X617Y2611D01*
X670D01*
X679Y2613D01*
X680Y2614D01*
X687Y2613D01*
X701Y2616D01*
X714Y2624D01*
X722Y2636D01*
X725Y2651D01*
X722Y2666D01*
X714Y2678D01*
X701Y2687D01*
X687Y2690D01*
X672Y2687D01*
X660Y2679D01*
D01*
X660Y2678D01*
X651Y2666D01*
X650Y2658D01*
X631D01*
X625Y2669D01*
X627Y2672D01*
X648Y2692D01*
X648Y2692D01*
X652Y2699D01*
X654Y2707D01*
X654Y2707D01*
Y2870D01*
X652Y2877D01*
X648Y2884D01*
X623Y2910D01*
X616Y2914D01*
X608Y2916D01*
X583D01*
Y2977D01*
X580Y2989D01*
X573Y2999D01*
X563Y3005D01*
X551Y3008D01*
X525D01*
Y3073D01*
Y3121D01*
X702D01*
X1508Y2315D01*
Y1092D01*
X1512Y1072D01*
X1515Y1068D01*
Y1039D01*
X1518Y1022D01*
X1528Y1008D01*
X1542Y998D01*
X1559Y995D01*
X1576Y998D01*
X1579Y1000D01*
X1664Y915D01*
X1681Y903D01*
X1702Y899D01*
X1722Y903D01*
X1740Y915D01*
X1751Y932D01*
X1756Y952D01*
X1751Y973D01*
X1740Y990D01*
X1616Y1114D01*
Y2337D01*
X1612Y2357D01*
X1600Y2375D01*
X762Y3213D01*
X744Y3225D01*
X724Y3229D01*
D02*
G37*
G36*
X-2095Y3320D02*
X-2112Y3317D01*
X-2126Y3307D01*
X-2136Y3293D01*
X-2139Y3277D01*
X-2136Y3260D01*
X-2126Y3246D01*
X-2112Y3236D01*
X-2095Y3233D01*
X-2087Y3235D01*
X-2077Y3227D01*
Y3172D01*
X-2134D01*
Y3097D01*
X-2028D01*
Y3172D01*
X-2036D01*
Y3237D01*
X-2037Y3245D01*
X-2042Y3252D01*
X-2054Y3265D01*
X-2052Y3277D01*
X-2055Y3293D01*
X-2065Y3307D01*
X-2079Y3317D01*
X-2095Y3320D01*
D02*
G37*
G36*
X2925Y3130D02*
X2905Y3128D01*
X2886Y3120D01*
X2870Y3107D01*
X2857Y3091D01*
X2850Y3072D01*
X2847Y3052D01*
X2850Y3032D01*
X2857Y3013D01*
X2870Y2996D01*
X2886Y2984D01*
X2905Y2976D01*
X2925Y2974D01*
X2945Y2976D01*
X2964Y2984D01*
X2981Y2996D01*
X2993Y3013D01*
X3001Y3032D01*
X3004Y3052D01*
X3001Y3072D01*
X2993Y3091D01*
X2981Y3107D01*
X2964Y3120D01*
X2945Y3128D01*
X2925Y3130D01*
D02*
G37*
G36*
X-2045Y3447D02*
X-2061Y3444D01*
X-2075Y3434D01*
X-2082Y3424D01*
X-2299D01*
X-2307Y3423D01*
X-2313Y3418D01*
X-2339Y3393D01*
X-2343Y3386D01*
X-2345Y3378D01*
Y3152D01*
X-2345Y3152D01*
X-2345D01*
X-2343Y3144D01*
X-2339Y3137D01*
X-2287Y3085D01*
X-2283Y3083D01*
X-2287Y3070D01*
X-2297D01*
X-2305Y3069D01*
X-2305Y3069D01*
X-2350D01*
X-2357Y3079D01*
X-2371Y3088D01*
X-2388Y3092D01*
X-2404Y3088D01*
X-2418Y3079D01*
X-2428Y3065D01*
X-2431Y3048D01*
X-2428Y3031D01*
X-2418Y3017D01*
X-2404Y3008D01*
X-2388Y3004D01*
X-2371Y3008D01*
X-2357Y3017D01*
X-2350Y3027D01*
X-2325D01*
X-2317Y3015D01*
X-2326Y3001D01*
X-2330Y2984D01*
X-2326Y2968D01*
X-2317Y2954D01*
X-2303Y2944D01*
X-2286Y2941D01*
X-2269Y2944D01*
X-2255Y2954D01*
X-2246Y2968D01*
X-2244Y2979D01*
X-2229D01*
Y2972D01*
Y2922D01*
Y2872D01*
Y2822D01*
Y2777D01*
X-2229D01*
Y2722D01*
X-2186D01*
X-2185Y2720D01*
X-2185Y2720D01*
X-2185D01*
X-2184Y2717D01*
Y2677D01*
X-2128D01*
Y2677D01*
X-1978D01*
Y2752D01*
X-2134D01*
Y2752D01*
X-2136Y2751D01*
X-2141Y2754D01*
X-2151D01*
X-2161Y2750D01*
X-2161Y2750D01*
X-2162Y2749D01*
X-2174Y2754D01*
Y2772D01*
X-2153D01*
Y2822D01*
Y2872D01*
Y2922D01*
Y2972D01*
Y3022D01*
Y3077D01*
X-2153D01*
X-2155Y3079D01*
X-2154Y3080D01*
X-2152Y3085D01*
X-2152Y3085D01*
X-2152Y3085D01*
Y3095D01*
X-2152Y3095D01*
X-2152Y3095D01*
X-2154Y3099D01*
X-2156Y3105D01*
X-2156Y3105D01*
X-2156Y3105D01*
X-2174Y3122D01*
Y3127D01*
X-2184D01*
X-2186Y3129D01*
X-2186Y3129D01*
X-2186Y3129D01*
X-2189Y3127D01*
X-2229D01*
Y3120D01*
X-2264D01*
X-2304Y3160D01*
Y3370D01*
X-2290Y3383D01*
X-2082D01*
X-2075Y3373D01*
X-2061Y3363D01*
X-2045Y3360D01*
X-2028Y3363D01*
X-2014Y3373D01*
X-2004Y3387D01*
X-2001Y3404D01*
X-2004Y3420D01*
X-2014Y3434D01*
X-2028Y3444D01*
X-2045Y3447D01*
D02*
G37*
G36*
X124Y2945D02*
X98D01*
X98Y2945D01*
X97Y2945D01*
X93Y2943D01*
X88Y2941D01*
X88Y2940D01*
X88Y2940D01*
X57Y2904D01*
X56Y2899D01*
X54Y2895D01*
Y2649D01*
X55Y2647D01*
Y2644D01*
X57Y2642D01*
X58Y2640D01*
X60Y2639D01*
X62Y2637D01*
X74Y2632D01*
X77D01*
X79Y2631D01*
X82Y2632D01*
X85D01*
X87Y2634D01*
X89Y2635D01*
X122Y2668D01*
X126Y2678D01*
X126Y2678D01*
Y2713D01*
X141D01*
X151Y2717D01*
X155Y2727D01*
Y2918D01*
X153Y2922D01*
X152Y2926D01*
X151Y2927D01*
X151Y2928D01*
X147Y2930D01*
X144Y2932D01*
X142Y2932D01*
X138Y2935D01*
X135Y2939D01*
X134Y2939D01*
X134Y2941D01*
X130Y2942D01*
X127Y2945D01*
X125Y2944D01*
X124Y2945D01*
D02*
G37*
G36*
X2544Y3130D02*
X2524Y3128D01*
X2505Y3120D01*
X2489Y3107D01*
X2477Y3091D01*
X2469Y3072D01*
X2466Y3052D01*
X2469Y3032D01*
X2477Y3013D01*
X2489Y2996D01*
X2505Y2984D01*
X2524Y2976D01*
X2544Y2974D01*
X2565Y2976D01*
X2584Y2984D01*
X2600Y2996D01*
X2612Y3013D01*
X2620Y3032D01*
X2623Y3052D01*
X2620Y3072D01*
X2612Y3091D01*
X2600Y3107D01*
X2584Y3120D01*
X2565Y3128D01*
X2544Y3130D01*
D02*
G37*
G36*
X1837Y3204D02*
X1785Y3200D01*
X1734Y3187D01*
X1686Y3167D01*
X1642Y3140D01*
X1602Y3106D01*
X1568Y3066D01*
X1541Y3022D01*
X1521Y2974D01*
X1508Y2923D01*
X1504Y2871D01*
X1508Y2819D01*
X1521Y2768D01*
X1541Y2720D01*
X1568Y2675D01*
X1602Y2636D01*
X1642Y2602D01*
X1686Y2574D01*
X1734Y2554D01*
X1785Y2542D01*
X1837Y2538D01*
X1889Y2542D01*
X1940Y2554D01*
X1988Y2574D01*
X2033Y2602D01*
X2072Y2636D01*
X2106Y2675D01*
X2134Y2720D01*
X2154Y2768D01*
X2166Y2819D01*
X2170Y2871D01*
X2166Y2923D01*
X2154Y2974D01*
X2134Y3022D01*
X2106Y3066D01*
X2072Y3106D01*
X2033Y3140D01*
X1988Y3167D01*
X1940Y3187D01*
X1889Y3200D01*
X1837Y3204D01*
D02*
G37*
G36*
X-3663Y4338D02*
X-3700Y4333D01*
X-3734Y4319D01*
X-3763Y4296D01*
X-3786Y4267D01*
X-3800Y4233D01*
X-3805Y4196D01*
X-3800Y4159D01*
X-3786Y4125D01*
X-3763Y4096D01*
X-3734Y4073D01*
X-3700Y4059D01*
X-3663Y4054D01*
X-3626Y4059D01*
X-3592Y4073D01*
X-3563Y4096D01*
X-3540Y4125D01*
X-3526Y4159D01*
X-3521Y4196D01*
X-3526Y4233D01*
X-3540Y4267D01*
X-3563Y4296D01*
X-3592Y4319D01*
X-3626Y4333D01*
X-3663Y4338D01*
D02*
G37*
G36*
X-4034Y2452D02*
X-4250D01*
Y2308D01*
X-4034D01*
Y2452D01*
D02*
G37*
G36*
X-3569Y3739D02*
X-3585Y3736D01*
X-3599Y3727D01*
X-3682D01*
Y3731D01*
X-3758D01*
Y3690D01*
X-3759Y3688D01*
X-3758Y3686D01*
Y3645D01*
X-3682D01*
Y3650D01*
X-3576D01*
X-3576Y3650D01*
X-3564Y3652D01*
X-3562Y3653D01*
X-3560Y3654D01*
X-3552Y3655D01*
X-3538Y3665D01*
X-3528Y3679D01*
X-3525Y3696D01*
X-3528Y3712D01*
X-3538Y3726D01*
X-3552Y3736D01*
X-3569Y3739D01*
D02*
G37*
G36*
X2925Y2368D02*
X2905Y2366D01*
X2886Y2358D01*
X2870Y2345D01*
X2857Y2329D01*
X2850Y2310D01*
X2847Y2290D01*
X2850Y2270D01*
X2857Y2251D01*
X2870Y2234D01*
X2886Y2222D01*
X2905Y2214D01*
X2925Y2212D01*
X2945Y2214D01*
X2964Y2222D01*
X2981Y2234D01*
X2993Y2251D01*
X3001Y2270D01*
X3004Y2290D01*
X3001Y2310D01*
X2993Y2329D01*
X2981Y2345D01*
X2964Y2358D01*
X2945Y2366D01*
X2925Y2368D01*
D02*
G37*
G36*
X2735Y2241D02*
X2715Y2239D01*
X2696Y2231D01*
X2679Y2218D01*
X2667Y2202D01*
X2659Y2183D01*
X2657Y2163D01*
X2659Y2143D01*
X2667Y2124D01*
X2679Y2107D01*
X2696Y2095D01*
X2715Y2087D01*
X2735Y2085D01*
X2755Y2087D01*
X2774Y2095D01*
X2790Y2107D01*
X2803Y2124D01*
X2811Y2143D01*
X2813Y2163D01*
X2811Y2183D01*
X2803Y2202D01*
X2790Y2218D01*
X2774Y2231D01*
X2755Y2239D01*
X2735Y2241D01*
D02*
G37*
G36*
X2544Y2368D02*
X2524Y2366D01*
X2505Y2358D01*
X2489Y2345D01*
X2477Y2329D01*
X2469Y2310D01*
X2466Y2290D01*
X2469Y2270D01*
X2477Y2251D01*
X2489Y2234D01*
X2505Y2222D01*
X2524Y2214D01*
X2544Y2212D01*
X2565Y2214D01*
X2584Y2222D01*
X2600Y2234D01*
X2612Y2251D01*
X2620Y2270D01*
X2623Y2290D01*
X2620Y2310D01*
X2612Y2329D01*
X2600Y2345D01*
X2584Y2358D01*
X2565Y2366D01*
X2544Y2368D01*
D02*
G37*
G36*
X2637Y4338D02*
X2600Y4333D01*
X2566Y4319D01*
X2537Y4296D01*
X2514Y4267D01*
X2500Y4233D01*
X2495Y4196D01*
X2500Y4159D01*
X2514Y4125D01*
X2537Y4096D01*
X2566Y4073D01*
X2600Y4059D01*
X2637Y4054D01*
X2674Y4059D01*
X2708Y4073D01*
X2737Y4096D01*
X2760Y4125D01*
X2774Y4159D01*
X2779Y4196D01*
X2774Y4233D01*
X2760Y4267D01*
X2737Y4296D01*
X2708Y4319D01*
X2674Y4333D01*
X2637Y4338D01*
D02*
G37*
G36*
X-2434Y2606D02*
X-2531D01*
Y2502D01*
X-2563Y2470D01*
X-2575Y2474D01*
X-2576Y2480D01*
X-2585Y2495D01*
X-2600Y2504D01*
X-2616Y2507D01*
X-2633Y2504D01*
X-2647Y2495D01*
X-2654Y2484D01*
X-3762D01*
Y2493D01*
Y2564D01*
X-3958D01*
Y2493D01*
Y2428D01*
Y2362D01*
Y2296D01*
X-3762D01*
Y2311D01*
X-2672D01*
X-2664Y2313D01*
X-2657Y2317D01*
X-2526Y2449D01*
X-2434D01*
Y2606D01*
D02*
G37*
G36*
X-4034Y2620D02*
X-4250D01*
Y2475D01*
X-4034D01*
Y2620D01*
D02*
G37*
G36*
X-2863Y3204D02*
X-2915Y3200D01*
X-2966Y3187D01*
X-3014Y3167D01*
X-3058Y3140D01*
X-3098Y3106D01*
X-3132Y3066D01*
X-3159Y3022D01*
X-3179Y2974D01*
X-3192Y2923D01*
X-3196Y2871D01*
X-3192Y2819D01*
X-3179Y2768D01*
X-3159Y2720D01*
X-3132Y2675D01*
X-3098Y2636D01*
X-3058Y2602D01*
X-3014Y2574D01*
X-2966Y2554D01*
X-2915Y2542D01*
X-2863Y2538D01*
X-2811Y2542D01*
X-2760Y2554D01*
X-2712Y2574D01*
X-2667Y2602D01*
X-2628Y2636D01*
X-2594Y2675D01*
X-2566Y2720D01*
X-2546Y2768D01*
X-2534Y2819D01*
X-2530Y2871D01*
X-2534Y2923D01*
X-2546Y2974D01*
X-2566Y3022D01*
X-2594Y3066D01*
X-2628Y3106D01*
X-2667Y3140D01*
X-2712Y3167D01*
X-2760Y3187D01*
X-2811Y3200D01*
X-2863Y3204D01*
D02*
G37*
G36*
X-1253Y2575D02*
X-1309D01*
Y2510D01*
X-1313Y2507D01*
X-1323Y2493D01*
X-1326Y2476D01*
X-1323Y2460D01*
X-1313Y2446D01*
X-1299Y2436D01*
X-1283Y2433D01*
X-1266Y2436D01*
X-1252Y2446D01*
X-1242Y2460D01*
X-1239Y2476D01*
X-1242Y2493D01*
X-1252Y2507D01*
X-1253Y2508D01*
Y2575D01*
D02*
G37*
G36*
X-2243Y2606D02*
X-2339D01*
Y2449D01*
X-2243D01*
Y2507D01*
X-2181D01*
X-2180Y2504D01*
Y2476D01*
X-2190Y2469D01*
X-2199Y2455D01*
X-2203Y2438D01*
X-2199Y2422D01*
X-2190Y2408D01*
X-2176Y2398D01*
X-2159Y2395D01*
X-2142Y2398D01*
X-2128Y2408D01*
X-2119Y2422D01*
X-2115Y2438D01*
X-2119Y2455D01*
X-2128Y2469D01*
X-2138Y2476D01*
Y2496D01*
X-2135D01*
X-2126Y2498D01*
X-2117Y2504D01*
X-2112Y2512D01*
X-2110Y2522D01*
Y2558D01*
X-2112Y2568D01*
X-2117Y2576D01*
X-2126Y2582D01*
X-2135Y2584D01*
X-2161D01*
X-2171Y2582D01*
X-2179Y2576D01*
X-2185Y2568D01*
X-2187Y2558D01*
Y2548D01*
X-2243D01*
Y2606D01*
D02*
G37*
G36*
X-1520Y2575D02*
X-1576D01*
Y2505D01*
X-1576D01*
X-1576Y2498D01*
X-1580Y2495D01*
X-1590Y2480D01*
X-1593Y2464D01*
X-1590Y2447D01*
X-1580Y2433D01*
X-1566Y2424D01*
X-1549Y2420D01*
X-1533Y2424D01*
X-1519Y2433D01*
X-1509Y2447D01*
X-1506Y2464D01*
X-1509Y2480D01*
X-1519Y2495D01*
X-1520Y2496D01*
X-1520Y2505D01*
X-1520D01*
Y2575D01*
D02*
G37*
G36*
X-1420D02*
X-1476D01*
Y2505D01*
X-1468D01*
Y2491D01*
X-1475Y2480D01*
X-1479Y2464D01*
X-1475Y2447D01*
X-1466Y2433D01*
X-1452Y2424D01*
X-1435Y2420D01*
X-1418Y2424D01*
X-1404Y2433D01*
X-1395Y2447D01*
X-1392Y2464D01*
X-1395Y2480D01*
X-1404Y2495D01*
X-1418Y2504D01*
X-1420Y2504D01*
X-1420Y2505D01*
X-1420Y2505D01*
X-1420Y2505D01*
Y2575D01*
D02*
G37*
%LPD*%
G36*
X426Y3202D02*
X422Y3196D01*
X418Y3175D01*
Y3106D01*
X280D01*
X278Y3113D01*
X273Y3122D01*
X264Y3127D01*
X254Y3129D01*
X241D01*
Y3200D01*
X251Y3213D01*
X420D01*
X426Y3202D01*
D02*
G37*
G36*
X241Y2509D02*
X252Y2507D01*
X309D01*
X318Y2509D01*
X327Y2500D01*
X325Y2491D01*
Y2434D01*
X328Y2423D01*
X333Y2414D01*
X342Y2408D01*
X353Y2406D01*
X355Y2405D01*
Y2321D01*
X228D01*
Y2400D01*
X207Y2421D01*
X201Y2430D01*
X193Y2435D01*
X197Y2447D01*
X199D01*
Y2514D01*
X234D01*
X241Y2509D01*
D02*
G37*
G36*
X128Y2925D02*
X136Y2919D01*
X141Y2918D01*
Y2727D01*
X113D01*
Y2678D01*
X79Y2645D01*
X68Y2649D01*
Y2895D01*
X98Y2931D01*
X124D01*
X128Y2925D01*
D02*
G37*
G36*
X550Y2463D02*
Y1941D01*
X534Y1925D01*
X387D01*
X377Y1935D01*
Y2422D01*
X378Y2423D01*
X380Y2434D01*
Y2491D01*
X423Y2499D01*
X514D01*
X550Y2463D01*
D02*
G37*
G36*
X841Y2483D02*
Y2483D01*
X852Y2472D01*
Y1833D01*
X722D01*
X698Y1857D01*
Y2383D01*
X652D01*
Y2481D01*
X656Y2483D01*
X841D01*
X841Y2483D01*
D02*
G37*
G36*
X-2141Y2720D02*
X-2171D01*
X-2151Y2740D01*
X-2141D01*
Y2720D01*
D02*
G37*
G36*
X-2166Y3095D02*
Y3085D01*
X-2186Y3085D01*
X-2186Y3115D01*
X-2166Y3095D01*
D02*
G37*
G36*
X3244Y-521D02*
X3244Y-521D01*
X3222Y-530D01*
X3055Y-530D01*
X3055Y-525D01*
Y-525D01*
X3055D01*
D01*
D01*
D01*
Y-525D01*
X3055Y-522D01*
D01*
X3055Y-522D01*
X3055D01*
D01*
D01*
X3055Y-522D01*
X3054Y-519D01*
X3054Y-519D01*
X3053Y-517D01*
Y-517D01*
D01*
Y-517D01*
Y-517D01*
D01*
D01*
D01*
X3053D01*
X3051Y-512D01*
X3051Y-512D01*
X3051Y-512D01*
X3046Y-510D01*
X3042Y-508D01*
X3037D01*
X3037Y-508D01*
X2965D01*
X2956Y-512D01*
X2953Y-518D01*
X2814D01*
Y-360D01*
X3037D01*
X3037Y-360D01*
X3042D01*
X3051Y-356D01*
X3055Y-347D01*
Y-270D01*
X3244D01*
Y-521D01*
D02*
G37*
G36*
X-1791Y2720D02*
X-1821D01*
Y2740D01*
X-1811D01*
X-1791Y2720D01*
D02*
G37*
G36*
X418Y2908D02*
X419Y2902D01*
X418Y2896D01*
Y2871D01*
X391Y2845D01*
X379Y2849D01*
X379Y2853D01*
X299Y2939D01*
X281Y2948D01*
X278Y2952D01*
Y2979D01*
X276Y2989D01*
X270Y2997D01*
X262Y3003D01*
X252Y3005D01*
X241D01*
Y3042D01*
X254D01*
X264Y3044D01*
X273Y3049D01*
X278Y3058D01*
X280Y3065D01*
X418D01*
Y2908D01*
D02*
G37*
D10*
X988Y2691D02*
Y2779D01*
Y1408D02*
Y2691D01*
X1651Y3368D02*
X2056D01*
X1623Y3340D02*
X1651Y3368D01*
X1184Y904D02*
Y1093D01*
X988Y1408D02*
X1184Y1213D01*
Y1093D02*
Y1213D01*
X791Y2794D02*
X838Y2841D01*
X988Y2691D01*
X-2388Y3048D02*
X-2288D01*
X-3860Y2464D02*
X-2616D01*
X791Y2794D02*
Y2831D01*
Y2606D02*
Y2794D01*
X3124Y-1006D02*
X3150Y-981D01*
X3124Y-1168D02*
Y-1006D01*
X2354Y2938D02*
X2494Y2798D01*
X2056Y3235D02*
X2354Y2938D01*
X2056Y3235D02*
Y3368D01*
X-3708Y1301D02*
X-3589D01*
X-4134D02*
X-3708D01*
Y1232D02*
Y1301D01*
X-3804Y1136D02*
X-3708Y1232D01*
X-3852Y1136D02*
X-3804D01*
X-3374Y2714D02*
X-3327Y2667D01*
X-3911Y2714D02*
X-3374D01*
X-3949Y709D02*
X-3938Y699D01*
X-3480D01*
X-4134Y709D02*
X-3949D01*
X-3589Y1301D02*
X-2985Y1905D01*
X-3956Y2167D02*
X-3695Y1905D01*
X-2985D01*
X-4142Y2167D02*
X-3956D01*
X-3860Y2594D02*
Y2663D01*
X-3911Y2714D02*
X-3860Y2663D01*
X-3956Y2759D02*
X-3911Y2714D01*
X-4142Y2759D02*
X-3956D01*
X-1295Y711D02*
X-1262Y745D01*
X-1106D01*
X1993Y237D02*
Y1935D01*
X76Y-533D02*
X1222D01*
X1960Y244D02*
Y2036D01*
X65Y-506D02*
X1211D01*
X1933Y255D02*
Y2200D01*
X204Y-472D02*
X1205D01*
X1211Y-506D02*
X1960Y244D01*
X1222Y-533D02*
X1993Y237D01*
X1205Y-472D02*
X1933Y255D01*
X1905Y267D02*
Y2299D01*
X1194Y-445D02*
X1905Y267D01*
X365Y-445D02*
X1194D01*
X55Y-515D02*
X65Y-506D01*
X55Y-515D02*
X55D01*
X-14Y-446D02*
X55Y-515D01*
X-13Y-623D02*
X76Y-533D01*
X1960Y2036D02*
X2354Y2430D01*
X1933Y2200D02*
X2276Y2544D01*
X1905Y2299D02*
X2205Y2598D01*
X-13Y-255D02*
X204Y-472D01*
X-14Y-65D02*
X365Y-445D01*
X-156Y76D02*
Y314D01*
X127Y25D02*
X177Y-24D01*
X437D01*
X-241Y-25D02*
X-156Y60D01*
X-317Y-25D02*
X-241D01*
X89Y538D02*
X188Y638D01*
X89Y152D02*
Y538D01*
X-63Y-15D02*
X-51Y-2D01*
Y381D01*
X-71Y401D02*
X-51Y381D01*
X-509Y401D02*
X-71D01*
X-524Y386D02*
X-509Y401D01*
X-165Y495D02*
X-107D01*
X181Y784D01*
X188D01*
X2205Y2598D02*
X2478D01*
X2580Y2629D02*
X2623Y2586D01*
X2883D01*
X2478Y2598D02*
X2509Y2629D01*
X2580D01*
X2883Y2586D02*
X2925Y2544D01*
X2276D02*
X2544D01*
X1993Y1935D02*
X2475Y2417D01*
X2735D01*
X-476Y-356D02*
X-394D01*
X-1384Y546D02*
X-1106D01*
X-558Y-356D02*
X-476D01*
X-258Y-623D02*
X-13D01*
X-259Y-624D02*
X-258Y-623D01*
X-259Y-446D02*
X-14D01*
X-259Y-65D02*
X-14D01*
X-259Y-115D02*
X-63D01*
X-259Y-115D02*
X-259Y-115D01*
X-293Y-115D02*
X-259D01*
X-343Y-165D02*
X-293Y-115D01*
X-495Y-140D02*
X-470Y-165D01*
X-394D02*
X-343D01*
X-394Y-356D02*
X-330D01*
X-470Y-165D02*
X-394D01*
X-260Y-495D02*
X-259Y-496D01*
X-330Y-495D02*
Y-356D01*
Y-495D02*
X-260D01*
X-330Y-533D02*
Y-495D01*
X-343Y-546D02*
X-330Y-533D01*
Y-711D02*
Y-533D01*
X-343Y-724D02*
X-330Y-711D01*
X-476Y-362D02*
Y-356D01*
X-394Y-546D02*
X-343D01*
Y-1448D02*
Y-724D01*
X-394D02*
X-343D01*
X-1231Y2675D02*
Y2781D01*
X-1181Y2540D02*
X-1105D01*
X-1106Y546D02*
X-1029D01*
X-1232Y2781D02*
X-1231Y2781D01*
X-1448Y2476D02*
Y2540D01*
Y2476D02*
X-1435Y2464D01*
X-559Y-355D02*
X-558Y-356D01*
X-1029Y546D02*
X-991Y508D01*
X-978D01*
X-1384Y546D02*
Y546D01*
X-258Y-255D02*
X-13D01*
X-259Y-256D02*
X-258Y-255D01*
X-470Y25D02*
X-419Y-25D01*
X-317D01*
Y-55D02*
Y-25D01*
X-25Y1499D02*
Y2615D01*
X-470Y456D02*
X-431Y495D01*
X-165D01*
X-824Y305D02*
X-661D01*
X-584Y229D01*
X-521D01*
X-758Y745D02*
X-679Y666D01*
X-824Y745D02*
X-758D01*
X-679Y666D02*
X-598Y585D01*
X-824Y666D02*
X-679D01*
X-598Y585D02*
X-560Y546D01*
X-824Y585D02*
X-598D01*
X-560Y546D02*
X-519Y506D01*
X-824Y546D02*
X-560D01*
X-479Y465D02*
X-470Y456D01*
X-519Y506D02*
X-479Y465D01*
X-824Y506D02*
X-519D01*
X-896Y424D02*
X-824D01*
X-978Y343D02*
X-896Y424D01*
X-978Y38D02*
Y343D01*
X-1003Y585D02*
X-952Y635D01*
X-1106Y585D02*
X-1003D01*
X-1106Y625D02*
X-1096Y635D01*
X-952D01*
X-259Y-724D02*
X-114D01*
X-259Y-546D02*
X-114D01*
X-259Y-356D02*
X-233Y-381D01*
X-114D01*
X-259Y-165D02*
X-190D01*
X-824Y145D02*
X-209D01*
X-557Y-1571D02*
X-534Y-1549D01*
X-343D01*
X-378Y-115D02*
X-317Y-55D01*
X-394Y-115D02*
X-378D01*
X-395Y-63D02*
X-394Y-65D01*
X-711Y-63D02*
X-395D01*
X-998Y-134D02*
X-965Y-102D01*
X-1106Y-134D02*
X-998D01*
X-1109Y63D02*
X-1106Y66D01*
X-1181Y63D02*
X-1109D01*
X-1206Y38D02*
X-1181Y63D01*
X-1206Y-254D02*
Y38D01*
X-699Y-254D02*
X-559D01*
X-557Y-1425D02*
Y-883D01*
X-824Y-616D02*
X-557Y-883D01*
X-471Y-496D02*
X-394D01*
X-483Y-508D02*
X-471Y-496D01*
X-483Y-686D02*
X-471Y-674D01*
X-394D01*
X-259D02*
X-191D01*
X-190Y-673D01*
X-191Y-306D02*
X-190Y-305D01*
X-259Y-306D02*
X-191D01*
X-394D02*
X-259D01*
X-459Y-256D02*
X-394D01*
X-508Y-305D02*
X-459Y-256D01*
X-635Y-305D02*
X-508D01*
X-673Y-343D02*
X-635Y-305D01*
X-673Y-381D02*
Y-343D01*
X-748Y-456D02*
X-673Y-381D01*
X-824Y-456D02*
X-748D01*
X-535Y-446D02*
X-394D01*
X-585Y-496D02*
X-535Y-446D01*
X-824Y-496D02*
X-585D01*
X-824Y-536D02*
X-709D01*
X-621Y-624D01*
X-394D01*
X-824Y386D02*
X-524D01*
X-480Y346D02*
X-470Y356D01*
X-824Y346D02*
X-480D01*
X-824Y465D02*
X-479D01*
X-1232Y-1143D02*
X-1118Y-1257D01*
Y-1296D02*
Y-1257D01*
X-1016Y-1046D02*
X-928Y-958D01*
X-1016Y-1473D02*
Y-1046D01*
X-1114Y-1571D02*
X-1016Y-1473D01*
X-1573Y-1571D02*
X-1114D01*
X-1118Y-1396D02*
X-1118Y-1397D01*
X-1346Y-1396D02*
X-1118D01*
X-1375Y-1425D02*
X-1346Y-1396D01*
X-1573Y-1425D02*
X-1375D01*
X-1448Y2832D02*
Y2858D01*
Y2675D02*
Y2832D01*
X-1458Y625D02*
X-1364D01*
X-1324Y585D01*
X-1106D01*
X-922Y706D02*
X-824D01*
X-1016Y800D02*
X-922Y706D01*
X-2845Y800D02*
X-1016D01*
X-3277Y1232D02*
X-2845Y800D01*
X-3594Y1232D02*
X-3277D01*
X-3755Y1071D02*
X-3594Y1232D01*
X-3852Y1071D02*
X-3755D01*
X-2141Y3090D02*
X-2006Y2954D01*
Y3135D01*
Y2950D02*
Y2954D01*
Y2950D02*
X-1981Y2925D01*
X-2141Y3090D02*
Y3110D01*
X-2156Y3125D02*
X-2141Y3110D01*
X-2156Y3125D02*
Y3145D01*
X-1806Y2720D02*
X-1806Y2720D01*
Y2705D02*
Y2720D01*
Y2680D02*
Y2705D01*
Y3116D02*
Y3145D01*
X-1833Y3090D02*
X-1806Y3116D01*
X-1836Y3090D02*
X-1833D01*
X-1852Y3074D02*
X-1836Y3090D01*
X-1852Y3050D02*
Y3074D01*
Y3050D02*
X-1771D01*
X-1871Y3031D02*
X-1852Y3050D01*
X-1981Y2925D02*
X-1875Y3031D01*
X-1871D01*
X-2985Y1905D02*
X-2426D01*
X-2045Y2286D01*
Y2451D01*
X-1181Y2675D02*
X-1168Y2688D01*
Y2870D01*
X-1194Y2896D02*
X-1168Y2870D01*
X-1410Y2896D02*
X-1194D01*
X-1448Y2858D02*
X-1410Y2896D01*
X-1286Y2680D02*
X-1281Y2675D01*
X-1346Y2680D02*
X-1286D01*
X-1856Y2664D02*
Y2715D01*
X-1856Y2664D02*
X-1856Y2664D01*
X-1806Y2642D02*
Y2680D01*
X-1664D01*
X-1651Y2692D01*
X-2299Y3404D02*
X-2045D01*
X-2324Y3378D02*
X-2299Y3404D01*
X-2324Y3152D02*
Y3378D01*
Y3152D02*
X-2272Y3100D01*
X-2201D01*
X-1908Y2540D02*
X-1806Y2642D01*
X-2291Y2527D02*
X-2161D01*
X-2159Y2529D01*
Y2438D02*
Y2529D01*
X-2095Y3277D02*
X-2056Y3237D01*
Y3135D02*
Y3237D01*
X-2068Y2540D02*
Y2555D01*
X-1956Y2667D01*
Y2715D01*
X-1981Y2925D02*
X-1956Y2900D01*
Y2715D02*
Y2900D01*
X694Y2929D02*
X791Y2831D01*
X162Y2694D02*
Y3085D01*
X459D02*
X471Y3073D01*
X242Y3085D02*
X459D01*
X471Y2896D02*
Y2908D01*
X403Y2827D02*
X471Y2896D01*
X403Y2757D02*
Y2827D01*
X-1771Y2850D02*
X-1618D01*
X-1548Y2780D01*
Y2675D02*
Y2780D01*
X-2916Y465D02*
X-1106D01*
X-2933Y424D02*
X-1106D01*
X-3448Y940D02*
X-2933Y424D01*
X-3457Y1006D02*
X-2916Y465D01*
X-3831Y3698D02*
X-3821Y3688D01*
X-3979Y3698D02*
X-3831D01*
Y3475D02*
X-3826Y3470D01*
X-3982Y3475D02*
X-3831D01*
X-1906Y3135D02*
Y3595D01*
X-2105Y3794D02*
X-1906Y3595D01*
X-4130Y3794D02*
X-2105D01*
X-4130Y3698D02*
Y3794D01*
X-1956Y3135D02*
Y3518D01*
X-2001Y3563D02*
X-1956Y3518D01*
X-4133Y3563D02*
X-2001D01*
X-4133Y3475D02*
Y3563D01*
X-2672Y2332D02*
X-2489Y2515D01*
X-3860Y2332D02*
X-2672D01*
X-2286Y2984D02*
X-2271Y3000D01*
X-2191D01*
X-2297Y3050D02*
X-2191D01*
X-3860Y2398D02*
X-2936D01*
X-824Y226D02*
X-726D01*
X-724Y229D01*
X-1283Y2476D02*
X-1281Y2478D01*
Y2540D01*
X-1549Y2538D02*
X-1548Y2540D01*
X-1549Y2464D02*
Y2538D01*
X-1499Y317D02*
Y343D01*
X-1496Y346D01*
X-1106D01*
X-2949Y386D02*
X-1106D01*
X-3459Y897D02*
X-2949Y386D01*
X-3852Y1006D02*
X-3457D01*
X-3852Y940D02*
X-3448D01*
X-3852Y874D02*
X-3752D01*
X-3729Y897D01*
X-3459D01*
X239Y2961D02*
X353Y2847D01*
Y2757D02*
Y2847D01*
X156Y2535D02*
X156Y2534D01*
Y2485D02*
Y2534D01*
Y2535D02*
Y2588D01*
X156Y2535D02*
X156Y2535D01*
X156Y2535D02*
X280D01*
X517Y2895D02*
X608D01*
X633Y2870D01*
Y2707D02*
Y2870D01*
X611Y2685D02*
X633Y2707D01*
X575Y2685D02*
X611D01*
D11*
X2533Y-1219D02*
Y-985D01*
X2527Y-991D02*
X2533Y-985D01*
X-1334Y745D02*
X-1295Y706D01*
X-2954Y745D02*
X-1334D01*
X-482Y902D02*
X-444Y940D01*
X-813Y902D02*
X-482D01*
X-1448Y-1257D02*
X-1384D01*
X-1346Y-1295D01*
X-1295Y706D02*
X-1255Y666D01*
X-3365Y1156D02*
X-2954Y745D01*
X-3543Y1156D02*
X-3365D01*
X-3715Y3480D02*
X-3569D01*
X-3576Y3688D02*
X-3569Y3696D01*
X-3720Y3688D02*
X-3576D01*
X2533Y-1415D02*
X2603Y-1486D01*
X2533Y-1415D02*
Y-1219D01*
X2603Y-2159D02*
Y-1486D01*
D12*
X1562Y1092D02*
Y2337D01*
Y1092D02*
X1702Y952D01*
X471Y3175D02*
X724D01*
X1562Y2337D01*
X471Y3073D02*
Y3175D01*
Y2908D02*
Y3073D01*
Y2757D02*
Y2896D01*
D13*
X1308Y1093D02*
Y1232D01*
X1434Y1434D02*
X1448Y1448D01*
X1434Y1093D02*
Y1434D01*
X2070Y-762D02*
X2184Y-876D01*
Y-2019D02*
Y-876D01*
Y-2019D02*
X2350Y-2184D01*
Y-1829D02*
Y-1702D01*
X2235Y-1588D02*
X2350Y-1702D01*
X2235Y-1588D02*
Y-775D01*
X2337Y-673D01*
X2350Y-1486D02*
Y-851D01*
X2324Y-826D02*
X2350Y-851D01*
X2337Y-673D02*
Y-635D01*
X2544Y1097D02*
Y1274D01*
X2413Y965D02*
X2544Y1097D01*
X2413Y-648D02*
Y965D01*
Y-648D02*
X2581Y-816D01*
X2868D01*
X-1295Y706D02*
X-1106D01*
X-25Y2615D02*
X83D01*
X-1231D02*
X-25D01*
X156Y2688D02*
X276D01*
X453Y2213D02*
X507Y2158D01*
X403Y2263D02*
X453Y2213D01*
X403Y2263D02*
Y2462D01*
X453Y2213D02*
Y2462D01*
X503D02*
X507Y2457D01*
Y2158D02*
Y2457D01*
X684Y2448D02*
X702Y2466D01*
X791D01*
X769Y2585D02*
X791Y2606D01*
X575Y2585D02*
X769D01*
X453D02*
X575D01*
X503Y2535D02*
X575D01*
X353Y2685D02*
X403Y2635D01*
X428Y2610D01*
X280Y2635D02*
X403D01*
X403Y2585D02*
X428Y2610D01*
X280Y2585D02*
X403D01*
X280Y2685D02*
X353D01*
X276Y2688D02*
X280Y2685D01*
X83Y2615D02*
X156Y2688D01*
X-1498Y2608D02*
X-1490Y2615D01*
X-1231D01*
Y2540D02*
Y2615D01*
X-1596Y2608D02*
X-1498D01*
X-1676Y2527D02*
X-1596Y2608D01*
X-1676Y2451D02*
Y2527D01*
X-1842Y2451D02*
X-1676D01*
X-1828Y2464D02*
Y2540D01*
X-1842Y2451D02*
X-1828Y2464D01*
X-2045Y2451D02*
X-1842D01*
X-2068Y2475D02*
X-2045Y2451D01*
X-2068Y2475D02*
Y2540D01*
X-1498Y2608D02*
Y2675D01*
Y2540D02*
Y2608D01*
X-1255Y666D02*
X-1106D01*
X670Y2635D02*
X687Y2651D01*
X575Y2635D02*
X670D01*
X2868Y-816D02*
X2868Y-816D01*
Y-751D01*
X2858Y-1486D02*
X2918Y-1425D01*
Y-936D01*
X2858Y-1829D02*
Y-1499D01*
Y-2184D02*
Y-1829D01*
X2494Y2798D02*
X2544D01*
X2354Y2176D02*
Y2178D01*
X2987Y-981D02*
X3150D01*
X2942Y-936D02*
X2987Y-981D01*
X2918Y-936D02*
X2942D01*
X2868Y-885D02*
X2918Y-936D01*
X3104Y-434D02*
X3150Y-389D01*
X2918Y-434D02*
X3104D01*
X2350Y-2184D02*
X2375D01*
D14*
X2858Y38D02*
Y787D01*
X2654Y991D02*
X2858Y787D01*
X2654Y991D02*
Y1295D01*
X2536Y1414D02*
X2654Y1295D01*
X2354Y1414D02*
X2536D01*
X2766Y-554D02*
X2868D01*
X2729Y-517D02*
Y-469D01*
Y-517D02*
X2766Y-554D01*
D15*
X155Y2383D02*
X156Y2384D01*
X153Y2303D02*
X155Y2304D01*
Y2383D01*
D16*
X-2985Y1905D02*
D03*
X-928Y-958D02*
D03*
D17*
X2925Y1528D02*
D03*
Y1782D02*
D03*
Y2036D02*
D03*
Y2290D02*
D03*
Y2544D02*
D03*
Y2798D02*
D03*
Y3052D02*
D03*
X2735Y1655D02*
D03*
Y1909D02*
D03*
Y2163D02*
D03*
Y2417D02*
D03*
Y2671D02*
D03*
Y2925D02*
D03*
X2544Y3052D02*
D03*
Y2798D02*
D03*
Y2544D02*
D03*
Y2290D02*
D03*
Y2036D02*
D03*
Y1782D02*
D03*
Y1528D02*
D03*
Y1274D02*
D03*
X2354Y2938D02*
D03*
Y2684D02*
D03*
Y2430D02*
D03*
Y2176D02*
D03*
Y1922D02*
D03*
Y1668D02*
D03*
Y1414D02*
D03*
X2735Y1401D02*
D03*
X2925Y1274D02*
D03*
D18*
X2640Y3560D02*
D03*
Y766D02*
D03*
D19*
X2350Y-1829D02*
D03*
Y-2184D02*
D03*
Y-1486D02*
D03*
D20*
X2603Y-1829D02*
D03*
X2858D02*
D03*
X2603Y-2184D02*
D03*
X2858D02*
D03*
X2603Y-1486D02*
D03*
X2858D02*
D03*
D21*
X2637Y96D02*
D03*
X-3663D02*
D03*
D22*
Y4196D02*
D03*
X2637D02*
D03*
D23*
X1837Y-1629D02*
D03*
Y2871D02*
D03*
X-2863D02*
D03*
Y-1629D02*
D03*
D24*
X1623Y3340D02*
D03*
X988Y2779D02*
D03*
X1184Y904D02*
D03*
X1702Y952D02*
D03*
X1753Y1372D02*
D03*
X1308Y1232D02*
D03*
X1448Y1448D02*
D03*
X-2388Y3048D02*
D03*
X-2616Y2464D02*
D03*
X2324Y-826D02*
D03*
X2337Y-635D02*
D03*
X2070Y-762D02*
D03*
X2527Y-991D02*
D03*
X2858Y38D02*
D03*
X3124Y-1168D02*
D03*
Y-305D02*
D03*
X2729Y-469D02*
D03*
X-3327Y2667D02*
D03*
X-3480Y699D02*
D03*
X-140Y76D02*
D03*
X127Y25D02*
D03*
X89Y152D02*
D03*
X-209Y145D02*
D03*
X-476Y-362D02*
D03*
X-1105Y2540D02*
D03*
X-1232Y2781D02*
D03*
X-1435Y2464D02*
D03*
X-495Y-140D02*
D03*
X-1384Y546D02*
D03*
X-978Y508D02*
D03*
X-470Y25D02*
D03*
X-25Y1499D02*
D03*
X-165Y495D02*
D03*
X-156Y314D02*
D03*
X-521Y229D02*
D03*
X424Y122D02*
D03*
X-813Y902D02*
D03*
X-978Y38D02*
D03*
X-952Y635D02*
D03*
X-114Y-724D02*
D03*
Y-546D02*
D03*
Y-381D02*
D03*
X-190Y-165D02*
D03*
X-711Y-63D02*
D03*
X-965Y-102D02*
D03*
X-1206Y-254D02*
D03*
X-699D02*
D03*
X-483Y-508D02*
D03*
Y-686D02*
D03*
X-190Y-673D02*
D03*
Y-305D02*
D03*
X-1232Y-1143D02*
D03*
X-1295Y711D02*
D03*
X-1448Y-1257D02*
D03*
Y2832D02*
D03*
X-1460Y622D02*
D03*
X-1346Y2680D02*
D03*
X-1856Y2664D02*
D03*
X-1651Y2692D02*
D03*
X-2045Y3404D02*
D03*
X-2159Y2438D02*
D03*
X-2095Y3277D02*
D03*
X-3543Y1156D02*
D03*
X-3569Y3480D02*
D03*
Y3696D02*
D03*
X-2286Y2984D02*
D03*
X-2936Y2398D02*
D03*
X-724Y229D02*
D03*
X-1283Y2476D02*
D03*
X-1549Y2464D02*
D03*
X-1499Y317D02*
D03*
D25*
X153Y2303D02*
D03*
X687Y2651D02*
D03*
X684Y2448D02*
D03*
X720Y1897D02*
D03*
X-3862Y777D02*
D03*
D26*
X-559Y-355D02*
D03*
Y-254D02*
D03*
X-1346Y-1396D02*
D03*
Y-1295D02*
D03*
X-1118Y-1296D02*
D03*
Y-1397D02*
D03*
X-343Y-1549D02*
D03*
Y-1448D02*
D03*
X156Y2688D02*
D03*
Y2588D02*
D03*
Y2485D02*
D03*
Y2384D02*
D03*
X-63Y-15D02*
D03*
Y-116D02*
D03*
X-470Y456D02*
D03*
Y356D02*
D03*
D27*
X-2291Y2527D02*
D03*
X-2483D02*
D03*
D28*
X-1828Y2540D02*
D03*
X-1908D02*
D03*
X162Y3085D02*
D03*
X242D02*
D03*
X159Y2961D02*
D03*
X239D02*
D03*
X-2068Y2540D02*
D03*
X-2148D02*
D03*
D29*
X-1806Y2705D02*
D03*
X-2156D02*
D03*
Y3145D02*
D03*
X-1806D02*
D03*
D30*
X-1856Y2715D02*
D03*
X-1906D02*
D03*
X-1956D02*
D03*
X-2006D02*
D03*
X-2056D02*
D03*
X-2106D02*
D03*
Y3135D02*
D03*
X-2056D02*
D03*
X-2006D02*
D03*
X-1956D02*
D03*
X-1906D02*
D03*
X-1856D02*
D03*
D31*
X-2201Y2750D02*
D03*
Y3100D02*
D03*
X-1761D02*
D03*
Y2750D02*
D03*
D32*
X-2191Y2800D02*
D03*
Y2850D02*
D03*
Y2900D02*
D03*
Y2950D02*
D03*
Y3000D02*
D03*
Y3050D02*
D03*
X-1771D02*
D03*
Y3000D02*
D03*
Y2950D02*
D03*
Y2900D02*
D03*
Y2850D02*
D03*
Y2800D02*
D03*
D33*
X-1981Y2925D02*
D03*
D34*
X-1448Y2540D02*
D03*
X-1498D02*
D03*
X-1548D02*
D03*
X-1448Y2675D02*
D03*
X-1498D02*
D03*
X-1548D02*
D03*
X-1181Y2540D02*
D03*
X-1231D02*
D03*
X-1281D02*
D03*
X-1181Y2675D02*
D03*
X-1231D02*
D03*
X-1281D02*
D03*
D35*
X-394Y-546D02*
D03*
Y-496D02*
D03*
Y-446D02*
D03*
X-259Y-546D02*
D03*
Y-496D02*
D03*
Y-446D02*
D03*
X-394Y-724D02*
D03*
Y-674D02*
D03*
Y-624D02*
D03*
X-259Y-724D02*
D03*
Y-674D02*
D03*
Y-624D02*
D03*
X-394Y-356D02*
D03*
Y-306D02*
D03*
Y-256D02*
D03*
X-259Y-356D02*
D03*
Y-306D02*
D03*
Y-256D02*
D03*
X-394Y-165D02*
D03*
Y-115D02*
D03*
Y-65D02*
D03*
X-259Y-165D02*
D03*
Y-115D02*
D03*
Y-65D02*
D03*
D36*
X507Y2158D02*
D03*
X744D02*
D03*
D37*
X549Y784D02*
D03*
X188D02*
D03*
X549Y638D02*
D03*
X188D02*
D03*
X-917Y-1571D02*
D03*
X-557D02*
D03*
X-917Y-1425D02*
D03*
X-557D02*
D03*
X-1933Y-1571D02*
D03*
X-1573D02*
D03*
X-1933Y-1425D02*
D03*
X-1573D02*
D03*
D38*
X-4142Y2380D02*
D03*
Y2548D02*
D03*
X-4134Y922D02*
D03*
Y1090D02*
D03*
X3150Y-602D02*
D03*
X3150Y-770D02*
D03*
D39*
X-4142Y2759D02*
D03*
Y2167D02*
D03*
X-4134Y1301D02*
D03*
Y709D02*
D03*
X3150Y-981D02*
D03*
X3150Y-389D02*
D03*
D40*
X-3911Y2714D02*
D03*
Y2212D02*
D03*
X-3903Y1256D02*
D03*
Y754D02*
D03*
X2918Y-936D02*
D03*
X2918Y-434D02*
D03*
D41*
X-3860Y2332D02*
D03*
Y2594D02*
D03*
Y2529D02*
D03*
Y2398D02*
D03*
Y2464D02*
D03*
X-3852Y874D02*
D03*
Y1136D02*
D03*
Y1071D02*
D03*
Y940D02*
D03*
Y1006D02*
D03*
X2868Y-554D02*
D03*
X2868Y-816D02*
D03*
X2868Y-620D02*
D03*
X2868Y-686D02*
D03*
D42*
X-444Y940D02*
D03*
X-343D02*
D03*
X-3826Y3470D02*
D03*
X-3725D02*
D03*
X-3821Y3688D02*
D03*
X-3720D02*
D03*
D43*
X-3982Y3475D02*
D03*
X-4133D02*
D03*
X-3979Y3698D02*
D03*
X-4130D02*
D03*
D44*
X534Y2929D02*
D03*
X694D02*
D03*
D45*
X791Y2606D02*
D03*
Y2466D02*
D03*
D46*
X-1106Y-616D02*
D03*
Y-576D02*
D03*
Y-536D02*
D03*
Y-496D02*
D03*
Y-456D02*
D03*
Y-416D02*
D03*
Y-376D02*
D03*
Y-336D02*
D03*
Y-296D02*
D03*
Y-256D02*
D03*
Y-216D02*
D03*
Y-175D02*
D03*
Y-134D02*
D03*
Y-94D02*
D03*
Y-56D02*
D03*
Y-15D02*
D03*
Y26D02*
D03*
Y66D02*
D03*
Y104D02*
D03*
Y145D02*
D03*
Y186D02*
D03*
Y226D02*
D03*
Y264D02*
D03*
Y305D02*
D03*
Y346D02*
D03*
Y386D02*
D03*
Y424D02*
D03*
Y465D02*
D03*
Y506D02*
D03*
Y546D02*
D03*
Y585D02*
D03*
Y625D02*
D03*
Y666D02*
D03*
Y706D02*
D03*
Y745D02*
D03*
X-824Y-616D02*
D03*
Y-576D02*
D03*
Y-536D02*
D03*
Y-496D02*
D03*
Y-456D02*
D03*
Y-416D02*
D03*
Y-376D02*
D03*
Y-336D02*
D03*
Y-296D02*
D03*
Y-256D02*
D03*
Y-216D02*
D03*
Y-175D02*
D03*
Y-134D02*
D03*
Y-94D02*
D03*
Y-56D02*
D03*
Y-15D02*
D03*
Y26D02*
D03*
Y66D02*
D03*
Y104D02*
D03*
Y145D02*
D03*
Y186D02*
D03*
Y226D02*
D03*
Y264D02*
D03*
Y305D02*
D03*
Y346D02*
D03*
Y386D02*
D03*
Y424D02*
D03*
Y465D02*
D03*
Y506D02*
D03*
Y546D02*
D03*
Y585D02*
D03*
Y625D02*
D03*
Y666D02*
D03*
Y706D02*
D03*
Y745D02*
D03*
D47*
X503Y2462D02*
D03*
X453D02*
D03*
X403D02*
D03*
X353D02*
D03*
Y2757D02*
D03*
X403D02*
D03*
X453D02*
D03*
X503D02*
D03*
D48*
X280Y2535D02*
D03*
Y2585D02*
D03*
Y2635D02*
D03*
Y2685D02*
D03*
X575D02*
D03*
Y2635D02*
D03*
Y2585D02*
D03*
Y2535D02*
D03*
D49*
X428Y2610D02*
D03*
D50*
X437Y127D02*
D03*
Y-24D02*
D03*
D51*
X2903Y-1219D02*
D03*
X2533Y-1219D02*
D03*
D52*
X2868Y-751D02*
D03*
D53*
X1559Y1093D02*
D03*
X1434Y1093D02*
D03*
X1308Y1093D02*
D03*
X1184Y1093D02*
D03*
D54*
X1754Y1408D02*
D03*
X988Y1408D02*
D03*
D55*
X2735Y1075D02*
Y1401D01*
X2864Y1213D02*
X2925Y1274D01*
X2864Y1036D02*
Y1213D01*
Y1036D02*
X3073Y826D01*
Y-39D02*
Y826D01*
X2735Y1075D02*
X3010Y800D01*
Y-13D02*
Y800D01*
X2858Y-254D02*
X3073Y-39D01*
X2832Y-190D02*
X3010Y-13D01*
X2603Y-190D02*
X2832D01*
X2508Y-285D02*
X2603Y-190D01*
X2629Y-254D02*
X2858D01*
X2553Y-330D02*
X2629Y-254D01*
X2508Y-285D02*
Y-285D01*
X2489Y-304D02*
X2508Y-285D01*
X2489Y-623D02*
Y-304D01*
Y-623D02*
X2508Y-642D01*
Y-642D02*
Y-642D01*
X2553Y-597D02*
Y-330D01*
X2508Y-642D02*
X2552Y-686D01*
X2868D01*
X2553Y-597D02*
X2576Y-620D01*
X2868D01*
D56*
X744Y1969D02*
Y2158D01*
X-343Y940D02*
X-285D01*
X744Y1969D01*
M02*
