%FSLAX42Y42*%
%MOMM*%
G71*
G01*
G75*
G04 Layer_Physical_Order=1*
G04 Layer_Color=255*
%ADD10C,0.15*%
%ADD11C,0.50*%
%ADD12C,0.80*%
%ADD13C,0.20*%
%ADD14C,0.25*%
%ADD15C,1.00*%
%ADD16C,4.10*%
%ADD17C,1.30*%
%ADD18C,2.54*%
%ADD19R,1.50X1.50*%
%ADD20C,1.50*%
%ADD21C,2.30*%
%ADD22C,2.55*%
%ADD23C,3.00*%
%ADD24C,0.60*%
%ADD25C,0.50*%
G36*
X3040Y4653D02*
X3041Y4649D01*
X3042Y4645D01*
X3042Y4645D01*
X3042Y4645D01*
X3044Y4642D01*
X3046Y4639D01*
X3046Y4639D01*
X3046Y4639D01*
X3049Y4637D01*
X3052Y4635D01*
X3052Y4635D01*
X3052Y4635D01*
X3056Y4634D01*
X3059Y4633D01*
X3277D01*
X3286Y2146D01*
X3278Y-178D01*
D01*
X3270Y-2504D01*
X3270Y-2504D01*
X3270Y-2504D01*
X3270Y-3392D01*
X3051D01*
X3051Y-3392D01*
X3051Y-3392D01*
X3047Y-3392D01*
X3044Y-3393D01*
X3044Y-3393D01*
X3044Y-3393D01*
X3041Y-3395D01*
X3037Y-3397D01*
X3037Y-3397D01*
X3037Y-3397D01*
X3035Y-3401D01*
X3033Y-3404D01*
X3033Y-3404D01*
X3033Y-3404D01*
X3032Y-3407D01*
X3032Y-3411D01*
X3032Y-3411D01*
X3032Y-3411D01*
X3032Y-3444D01*
X3023Y-3453D01*
X2754D01*
X2562Y-3318D01*
X2561Y-3318D01*
X2561Y-3317D01*
X2358Y-3188D01*
X2358Y-3188D01*
X2357Y-3187D01*
X2149Y-3067D01*
X2149Y-3067D01*
X2148Y-3066D01*
X1935Y-2955D01*
X1935Y-2955D01*
X1934Y-2955D01*
X1716Y-2853D01*
X1716Y-2853D01*
X1716Y-2852D01*
X1493Y-2760D01*
X1493Y-2760D01*
X1493Y-2760D01*
X1266Y-2677D01*
X1266Y-2677D01*
X1266Y-2677D01*
X1036Y-2604D01*
X1036Y-2604D01*
X1035Y-2604D01*
X803Y-2542D01*
X803Y-2542D01*
X802Y-2542D01*
X567Y-2489D01*
X567Y-2489D01*
X566Y-2489D01*
X329Y-2447D01*
X329Y-2447D01*
X329Y-2447D01*
X90Y-2416D01*
X90Y-2416D01*
X89Y-2416D01*
X-150Y-2395D01*
X-151Y-2395D01*
X-151Y-2395D01*
X-392Y-2384D01*
X-392Y-2384D01*
X-393Y-2384D01*
X-633D01*
X-634Y-2384D01*
X-634Y-2384D01*
X-874Y-2395D01*
X-875Y-2395D01*
X-875Y-2395D01*
X-1115Y-2416D01*
X-1115Y-2416D01*
X-1116Y-2416D01*
X-1354Y-2447D01*
X-1355Y-2447D01*
X-1355Y-2447D01*
X-1592Y-2489D01*
X-1593Y-2489D01*
X-1593Y-2489D01*
X-1828Y-2542D01*
X-1828Y-2542D01*
X-1829Y-2542D01*
X-2061Y-2604D01*
X-2062Y-2604D01*
X-2062Y-2604D01*
X-2291Y-2677D01*
X-2292Y-2677D01*
X-2292Y-2677D01*
X-2518Y-2760D01*
X-2519Y-2760D01*
X-2519Y-2760D01*
X-2741Y-2852D01*
X-2742Y-2853D01*
X-2742Y-2853D01*
X-2960Y-2955D01*
X-2960Y-2955D01*
X-2961Y-2955D01*
X-3174Y-3066D01*
X-3175Y-3067D01*
X-3175Y-3067D01*
X-3383Y-3187D01*
X-3384Y-3188D01*
X-3384Y-3188D01*
X-3587Y-3317D01*
X-3587Y-3318D01*
X-3587Y-3318D01*
X-3779Y-3453D01*
X-4048D01*
X-4057Y-3444D01*
X-4057Y-3411D01*
X-4057Y-3411D01*
X-4057Y-3411D01*
X-4058Y-3407D01*
X-4059Y-3404D01*
X-4059Y-3404D01*
X-4059Y-3404D01*
X-4061Y-3401D01*
X-4063Y-3397D01*
X-4063Y-3397D01*
X-4063Y-3397D01*
X-4066Y-3395D01*
X-4069Y-3393D01*
X-4069Y-3393D01*
X-4069Y-3393D01*
X-4073Y-3392D01*
X-4077Y-3392D01*
X-4077Y-3392D01*
X-4077Y-3392D01*
X-4296D01*
X-4296Y-2504D01*
X-4296Y-2504D01*
X-4296Y-2504D01*
X-4304Y-178D01*
D01*
X-4312Y2146D01*
X-4303Y4633D01*
X-4085D01*
X-4082Y4634D01*
X-4078Y4635D01*
X-4078Y4635D01*
X-4078Y4635D01*
X-4075Y4637D01*
X-4072Y4639D01*
X-4072Y4639D01*
X-4071Y4639D01*
X-4069Y4642D01*
X-4067Y4645D01*
X-4067Y4645D01*
X-4067Y4645D01*
X-4067Y4649D01*
X-4066Y4653D01*
X-4066Y4695D01*
X-3779D01*
X-3580Y4555D01*
X-3580Y4555D01*
X-3580Y4554D01*
X-3369Y4421D01*
X-3369Y4421D01*
X-3368Y4420D01*
X-3152Y4296D01*
X-3152Y4296D01*
X-3151Y4296D01*
X-2930Y4182D01*
X-2930Y4182D01*
X-2929Y4181D01*
X-2703Y4077D01*
X-2702Y4077D01*
X-2702Y4077D01*
X-2471Y3983D01*
X-2470Y3983D01*
X-2470Y3983D01*
X-2235Y3900D01*
X-2235Y3900D01*
X-2234Y3900D01*
X-1996Y3827D01*
X-1995Y3827D01*
X-1995Y3827D01*
X-1753Y3766D01*
X-1753Y3766D01*
X-1752Y3765D01*
X-1508Y3715D01*
X-1508Y3715D01*
X-1508Y3715D01*
X-1261Y3675D01*
X-1261Y3676D01*
X-1261Y3675D01*
X-1013Y3647D01*
X-1012Y3647D01*
X-1012Y3647D01*
X-763Y3630D01*
X-763Y3630D01*
X-763Y3630D01*
X-513Y3625D01*
X-513Y3625D01*
X-512Y3625D01*
X-263Y3630D01*
X-263Y3630D01*
X-262Y3630D01*
X-14Y3647D01*
X-13Y3647D01*
X-13Y3647D01*
X235Y3675D01*
X235Y3676D01*
X236Y3675D01*
X482Y3715D01*
X482Y3715D01*
X483Y3715D01*
X727Y3765D01*
X727Y3766D01*
X728Y3766D01*
X969Y3827D01*
X969Y3827D01*
X970Y3827D01*
X1208Y3900D01*
X1209Y3900D01*
X1209Y3900D01*
X1444Y3983D01*
X1445Y3983D01*
X1445Y3983D01*
X1676Y4077D01*
X1676Y4077D01*
X1677Y4077D01*
X1903Y4181D01*
X1904Y4182D01*
X1904Y4182D01*
X2126Y4296D01*
X2126Y4296D01*
X2126Y4296D01*
X2343Y4420D01*
X2343Y4421D01*
X2343Y4421D01*
X2554Y4554D01*
X2554Y4555D01*
X2554Y4555D01*
X2754Y4695D01*
X3040D01*
X3040Y4653D01*
D02*
G37*
%LPC*%
G36*
X-699Y-210D02*
X-715Y-214D01*
X-729Y-223D01*
X-736Y-233D01*
X-1169D01*
X-1176Y-223D01*
X-1190Y-214D01*
X-1206Y-210D01*
X-1223Y-214D01*
X-1237Y-223D01*
X-1247Y-237D01*
X-1250Y-254D01*
X-1247Y-271D01*
X-1237Y-285D01*
X-1223Y-294D01*
X-1206Y-298D01*
X-1190Y-294D01*
X-1176Y-285D01*
X-1169Y-275D01*
X-736D01*
X-729Y-285D01*
X-715Y-294D01*
X-699Y-298D01*
X-682Y-294D01*
X-668Y-285D01*
X-658Y-271D01*
X-655Y-254D01*
X-658Y-237D01*
X-668Y-223D01*
X-682Y-214D01*
X-699Y-210D01*
D02*
G37*
G36*
X-711Y-20D02*
X-728Y-23D01*
X-742Y-33D01*
X-749Y-43D01*
X-927D01*
X-935Y-44D01*
X-942Y-49D01*
X-953Y-60D01*
X-965Y-58D01*
X-982Y-61D01*
X-996Y-71D01*
X-1005Y-85D01*
X-1009Y-102D01*
X-1005Y-118D01*
X-996Y-132D01*
X-982Y-142D01*
X-965Y-145D01*
X-949Y-142D01*
X-934Y-132D01*
X-925Y-118D01*
X-922Y-102D01*
X-923Y-94D01*
X-915Y-84D01*
X-749D01*
X-742Y-94D01*
X-728Y-104D01*
X-711Y-107D01*
X-695Y-104D01*
X-680Y-94D01*
X-671Y-80D01*
X-668Y-63D01*
X-671Y-47D01*
X-680Y-33D01*
X-695Y-23D01*
X-711Y-20D01*
D02*
G37*
G36*
X-978Y552D02*
X-995Y548D01*
X-1009Y539D01*
X-1018Y525D01*
X-1021Y508D01*
X-1018Y491D01*
X-1009Y477D01*
X-998Y470D01*
Y190D01*
X-998Y190D01*
X-998D01*
X-997Y183D01*
X-992Y176D01*
X-865Y49D01*
X-859Y44D01*
X-851Y43D01*
X-851Y43D01*
X-669D01*
X-554Y-72D01*
Y-102D01*
X-552Y-109D01*
X-548Y-116D01*
X-536Y-128D01*
X-539Y-140D01*
X-536Y-156D01*
X-526Y-170D01*
X-512Y-180D01*
X-496Y-183D01*
Y-325D01*
X-507Y-332D01*
X-516Y-346D01*
X-519Y-362D01*
X-516Y-379D01*
X-507Y-393D01*
X-493Y-403D01*
X-476Y-406D01*
X-459Y-403D01*
X-445Y-393D01*
X-436Y-379D01*
X-432Y-362D01*
X-436Y-346D01*
X-445Y-332D01*
X-455Y-325D01*
Y-159D01*
X-456Y-157D01*
X-455Y-156D01*
X-452Y-140D01*
X-455Y-123D01*
X-465Y-109D01*
X-479Y-99D01*
X-495Y-96D01*
X-503Y-98D01*
X-513Y-90D01*
Y-64D01*
X-513Y-63D01*
X-514Y-56D01*
X-519Y-49D01*
X-646Y78D01*
X-653Y83D01*
X-660Y84D01*
X-842D01*
X-957Y199D01*
Y470D01*
X-947Y477D01*
X-938Y491D01*
X-934Y508D01*
X-938Y525D01*
X-947Y539D01*
X-961Y548D01*
X-978Y552D01*
D02*
G37*
G36*
X2858Y82D02*
X2841Y78D01*
X2827Y69D01*
X2817Y55D01*
X2814Y38D01*
X2817Y21D01*
X2827Y7D01*
X2832Y4D01*
Y-330D01*
X2735Y-426D01*
X2729Y-425D01*
X2713Y-428D01*
X2698Y-438D01*
X2689Y-452D01*
X2686Y-469D01*
X2689Y-485D01*
X2698Y-499D01*
X2713Y-509D01*
X2729Y-512D01*
X2746Y-509D01*
X2760Y-499D01*
X2769Y-485D01*
X2773Y-469D01*
X2772Y-463D01*
X2876Y-359D01*
X2881Y-350D01*
X2883Y-340D01*
Y4D01*
X2888Y7D01*
X2898Y21D01*
X2901Y38D01*
X2898Y55D01*
X2888Y69D01*
X2874Y78D01*
X2858Y82D01*
D02*
G37*
G36*
X-3663Y225D02*
X-3696Y221D01*
X-3727Y208D01*
X-3754Y187D01*
X-3775Y160D01*
X-3788Y129D01*
X-3792Y96D01*
X-3788Y63D01*
X-3775Y31D01*
X-3754Y5D01*
X-3727Y-16D01*
X-3696Y-29D01*
X-3663Y-33D01*
X-3630Y-29D01*
X-3598Y-16D01*
X-3572Y5D01*
X-3551Y31D01*
X-3538Y63D01*
X-3534Y96D01*
X-3538Y129D01*
X-3551Y160D01*
X-3572Y187D01*
X-3598Y208D01*
X-3630Y221D01*
X-3663Y225D01*
D02*
G37*
G36*
X-521Y272D02*
X-537Y269D01*
X-551Y259D01*
X-561Y245D01*
X-564Y229D01*
X-561Y212D01*
X-551Y198D01*
X-537Y188D01*
X-521Y185D01*
X-504Y188D01*
X-490Y198D01*
X-483Y208D01*
X85D01*
X86Y195D01*
X86Y195D01*
X86D01*
X72Y193D01*
X58Y183D01*
X49Y169D01*
X48Y166D01*
X-171D01*
X-178Y176D01*
X-192Y185D01*
X-209Y189D01*
X-225Y185D01*
X-239Y176D01*
X-249Y162D01*
X-252Y145D01*
X-249Y128D01*
X-239Y114D01*
X-225Y105D01*
X-209Y102D01*
X-192Y105D01*
X-178Y114D01*
X-171Y124D01*
X56D01*
X58Y122D01*
X72Y112D01*
X89Y109D01*
X106Y112D01*
X120Y122D01*
X129Y136D01*
X132Y152D01*
X129Y169D01*
X120Y183D01*
X106Y193D01*
X92Y195D01*
X93Y207D01*
X93Y208D01*
X309D01*
X383Y134D01*
X381Y122D01*
X384Y105D01*
X393Y91D01*
X408Y82D01*
X424Y78D01*
X441Y82D01*
X455Y91D01*
X464Y105D01*
X468Y122D01*
X464Y139D01*
X455Y153D01*
X441Y162D01*
X424Y165D01*
X412Y163D01*
X332Y243D01*
X325Y248D01*
X317Y249D01*
X-483D01*
X-490Y259D01*
X-504Y269D01*
X-521Y272D01*
D02*
G37*
G36*
X-3569Y3739D02*
X-3585Y3736D01*
X-3599Y3726D01*
X-3609Y3712D01*
X-3612Y3696D01*
X-3609Y3679D01*
X-3607Y3676D01*
Y3499D01*
X-3609Y3496D01*
X-3612Y3480D01*
X-3609Y3463D01*
X-3607Y3460D01*
Y1181D01*
X-3607Y1181D01*
X-3605Y1169D01*
X-3604Y1166D01*
X-3596Y1154D01*
X-3584Y1142D01*
X-3584Y1139D01*
X-3574Y1125D01*
X-3560Y1115D01*
X-3543Y1112D01*
X-3527Y1115D01*
X-3513Y1125D01*
X-3503Y1139D01*
X-3500Y1156D01*
X-3503Y1172D01*
X-3513Y1186D01*
X-3527Y1196D01*
X-3530Y1197D01*
X-3530Y1197D01*
Y3460D01*
X-3528Y3463D01*
X-3525Y3480D01*
X-3528Y3496D01*
X-3530Y3499D01*
Y3676D01*
X-3528Y3679D01*
X-3525Y3696D01*
X-3528Y3712D01*
X-3538Y3726D01*
X-3552Y3736D01*
X-3569Y3739D01*
D02*
G37*
G36*
X2637Y225D02*
X2604Y221D01*
X2573Y208D01*
X2546Y187D01*
X2525Y160D01*
X2512Y129D01*
X2508Y96D01*
X2512Y63D01*
X2525Y31D01*
X2546Y5D01*
X2573Y-16D01*
X2604Y-29D01*
X2637Y-33D01*
X2670Y-29D01*
X2702Y-16D01*
X2728Y5D01*
X2749Y31D01*
X2762Y63D01*
X2766Y96D01*
X2762Y129D01*
X2749Y160D01*
X2728Y187D01*
X2702Y208D01*
X2670Y221D01*
X2637Y225D01*
D02*
G37*
G36*
X-978Y82D02*
X-995Y78D01*
X-1009Y69D01*
X-1015Y59D01*
X-1067D01*
X-1075Y57D01*
X-1081Y53D01*
X-1310Y-176D01*
X-1314Y-183D01*
X-1316Y-190D01*
Y-1080D01*
X-1316Y-1080D01*
X-1316D01*
X-1314Y-1087D01*
X-1310Y-1094D01*
X-1273Y-1131D01*
X-1275Y-1143D01*
X-1272Y-1160D01*
X-1263Y-1174D01*
X-1249Y-1183D01*
X-1232Y-1187D01*
X-1215Y-1183D01*
X-1201Y-1174D01*
X-1192Y-1160D01*
X-1188Y-1143D01*
X-1192Y-1126D01*
X-1201Y-1112D01*
X-1215Y-1103D01*
X-1232Y-1099D01*
X-1244Y-1102D01*
X-1275Y-1071D01*
Y-199D01*
X-1058Y18D01*
X-1015D01*
X-1009Y7D01*
X-995Y-2D01*
X-978Y-5D01*
X-961Y-2D01*
X-947Y7D01*
X-938Y21D01*
X-934Y38D01*
X-938Y55D01*
X-947Y69D01*
X-961Y78D01*
X-978Y82D01*
D02*
G37*
G36*
X-2863Y-1296D02*
X-2915Y-1300D01*
X-2966Y-1313D01*
X-3014Y-1333D01*
X-3058Y-1360D01*
X-3098Y-1394D01*
X-3132Y-1434D01*
X-3159Y-1478D01*
X-3179Y-1526D01*
X-3192Y-1577D01*
X-3196Y-1629D01*
X-3192Y-1681D01*
X-3179Y-1732D01*
X-3159Y-1780D01*
X-3132Y-1825D01*
X-3098Y-1864D01*
X-3058Y-1898D01*
X-3014Y-1926D01*
X-2966Y-1946D01*
X-2915Y-1958D01*
X-2863Y-1962D01*
X-2811Y-1958D01*
X-2760Y-1946D01*
X-2712Y-1926D01*
X-2667Y-1898D01*
X-2628Y-1864D01*
X-2594Y-1825D01*
X-2566Y-1780D01*
X-2546Y-1732D01*
X-2534Y-1681D01*
X-2530Y-1629D01*
X-2534Y-1577D01*
X-2546Y-1526D01*
X-2566Y-1478D01*
X-2594Y-1434D01*
X-2628Y-1394D01*
X-2667Y-1360D01*
X-2712Y-1333D01*
X-2760Y-1313D01*
X-2811Y-1300D01*
X-2863Y-1296D01*
D02*
G37*
G36*
X1837D02*
X1785Y-1300D01*
X1734Y-1313D01*
X1686Y-1333D01*
X1642Y-1360D01*
X1602Y-1394D01*
X1568Y-1434D01*
X1541Y-1478D01*
X1521Y-1526D01*
X1508Y-1577D01*
X1504Y-1629D01*
X1508Y-1681D01*
X1521Y-1732D01*
X1541Y-1780D01*
X1568Y-1825D01*
X1602Y-1864D01*
X1642Y-1898D01*
X1686Y-1926D01*
X1734Y-1946D01*
X1785Y-1958D01*
X1837Y-1962D01*
X1889Y-1958D01*
X1940Y-1946D01*
X1988Y-1926D01*
X2033Y-1898D01*
X2072Y-1864D01*
X2106Y-1825D01*
X2134Y-1780D01*
X2154Y-1732D01*
X2166Y-1681D01*
X2170Y-1629D01*
X2166Y-1577D01*
X2154Y-1526D01*
X2134Y-1478D01*
X2106Y-1434D01*
X2072Y-1394D01*
X2033Y-1360D01*
X1988Y-1333D01*
X1940Y-1313D01*
X1889Y-1300D01*
X1837Y-1296D01*
D02*
G37*
G36*
X2603Y-2096D02*
X2581Y-2099D01*
X2559Y-2108D01*
X2541Y-2122D01*
X2527Y-2140D01*
X2518Y-2162D01*
X2515Y-2184D01*
X2518Y-2207D01*
X2527Y-2229D01*
X2541Y-2247D01*
X2559Y-2261D01*
X2581Y-2270D01*
X2603Y-2273D01*
X2626Y-2270D01*
X2648Y-2261D01*
X2666Y-2247D01*
X2680Y-2229D01*
X2689Y-2207D01*
X2692Y-2184D01*
X2689Y-2162D01*
X2680Y-2140D01*
X2666Y-2122D01*
X2648Y-2108D01*
X2626Y-2099D01*
X2603Y-2096D01*
D02*
G37*
G36*
X2437Y-2097D02*
X2262D01*
Y-2272D01*
X2437D01*
Y-2097D01*
D02*
G37*
G36*
X2603Y-1740D02*
X2581Y-1743D01*
X2559Y-1752D01*
X2541Y-1766D01*
X2527Y-1785D01*
X2518Y-1806D01*
X2515Y-1829D01*
X2518Y-1852D01*
X2527Y-1873D01*
X2541Y-1891D01*
X2559Y-1905D01*
X2581Y-1914D01*
X2603Y-1917D01*
X2626Y-1914D01*
X2648Y-1905D01*
X2666Y-1891D01*
X2680Y-1873D01*
X2689Y-1852D01*
X2692Y-1829D01*
X2689Y-1806D01*
X2680Y-1785D01*
X2666Y-1766D01*
X2648Y-1752D01*
X2626Y-1743D01*
X2603Y-1740D01*
D02*
G37*
G36*
X2437Y-1398D02*
X2262D01*
Y-1574D01*
X2437D01*
Y-1398D01*
D02*
G37*
G36*
X-952Y679D02*
X-969Y675D01*
X-983Y666D01*
X-993Y652D01*
X-996Y635D01*
X-993Y618D01*
X-983Y604D01*
X-969Y595D01*
X-952Y591D01*
X-940Y594D01*
X-846Y499D01*
Y190D01*
X-846Y190D01*
X-846D01*
X-845Y183D01*
X-840Y176D01*
X-777Y112D01*
X-777Y112D01*
X-770Y108D01*
X-770Y108D01*
X-770Y108D01*
D01*
X-770Y108D01*
X-770Y108D01*
X-762Y106D01*
X-491D01*
X-232Y-153D01*
X-234Y-165D01*
X-231Y-182D01*
X-221Y-196D01*
X-207Y-205D01*
X-190Y-209D01*
X-178Y-206D01*
X-135Y-250D01*
Y-343D01*
X-145Y-350D01*
X-155Y-364D01*
X-158Y-381D01*
X-155Y-398D01*
X-145Y-412D01*
X-135Y-419D01*
Y-509D01*
X-145Y-515D01*
X-155Y-529D01*
X-158Y-546D01*
X-155Y-563D01*
X-145Y-577D01*
X-135Y-584D01*
Y-686D01*
X-145Y-693D01*
X-155Y-707D01*
X-158Y-724D01*
X-155Y-741D01*
X-145Y-755D01*
X-131Y-764D01*
X-114Y-767D01*
X-98Y-764D01*
X-84Y-755D01*
X-74Y-741D01*
X-71Y-724D01*
X-74Y-707D01*
X-84Y-693D01*
X-94Y-686D01*
Y-584D01*
X-84Y-577D01*
X-74Y-563D01*
X-71Y-546D01*
X-74Y-529D01*
X-84Y-515D01*
X-94Y-509D01*
Y-419D01*
X-84Y-412D01*
X-74Y-398D01*
X-71Y-381D01*
X-74Y-364D01*
X-84Y-350D01*
X-94Y-343D01*
Y-241D01*
X-95Y-233D01*
X-100Y-227D01*
X-149Y-177D01*
X-147Y-165D01*
X-150Y-148D01*
X-160Y-134D01*
X-174Y-125D01*
X-190Y-122D01*
X-203Y-124D01*
X-468Y142D01*
X-475Y146D01*
X-483Y148D01*
X-753D01*
X-805Y199D01*
Y508D01*
X-805Y508D01*
X-806Y516D01*
X-811Y523D01*
X-911Y623D01*
X-909Y635D01*
X-912Y652D01*
X-922Y666D01*
X-936Y675D01*
X-952Y679D01*
D02*
G37*
G36*
X2437Y-1741D02*
X2262D01*
Y-1917D01*
X2437D01*
Y-1741D01*
D02*
G37*
G36*
X2603Y-1397D02*
X2581Y-1400D01*
X2559Y-1409D01*
X2541Y-1423D01*
X2527Y-1442D01*
X2518Y-1463D01*
X2515Y-1486D01*
X2518Y-1509D01*
X2527Y-1530D01*
X2541Y-1548D01*
X2559Y-1563D01*
X2581Y-1571D01*
X2603Y-1574D01*
X2626Y-1571D01*
X2648Y-1563D01*
X2666Y-1548D01*
X2680Y-1530D01*
X2689Y-1509D01*
X2692Y-1486D01*
X2689Y-1463D01*
X2680Y-1442D01*
X2666Y-1423D01*
X2648Y-1409D01*
X2626Y-1400D01*
X2603Y-1397D01*
D02*
G37*
G36*
X2354Y1492D02*
X2334Y1489D01*
X2315Y1481D01*
X2299Y1469D01*
X2286Y1453D01*
X2278Y1434D01*
X2276Y1414D01*
X2278Y1393D01*
X2286Y1374D01*
X2299Y1358D01*
X2315Y1346D01*
X2334Y1338D01*
X2354Y1335D01*
X2374Y1338D01*
X2393Y1346D01*
X2409Y1358D01*
X2422Y1374D01*
X2430Y1393D01*
X2432Y1414D01*
X2430Y1434D01*
X2422Y1453D01*
X2409Y1469D01*
X2393Y1481D01*
X2374Y1489D01*
X2354Y1492D01*
D02*
G37*
G36*
X1837Y3204D02*
X1785Y3200D01*
X1734Y3187D01*
X1686Y3167D01*
X1642Y3140D01*
X1602Y3106D01*
X1568Y3066D01*
X1541Y3022D01*
X1521Y2974D01*
X1508Y2923D01*
X1504Y2871D01*
X1508Y2819D01*
X1521Y2768D01*
X1541Y2720D01*
X1568Y2675D01*
X1602Y2636D01*
X1642Y2602D01*
X1686Y2574D01*
X1734Y2554D01*
X1785Y2542D01*
X1837Y2538D01*
X1889Y2542D01*
X1940Y2554D01*
X1988Y2574D01*
X2033Y2602D01*
X2072Y2636D01*
X2106Y2675D01*
X2134Y2720D01*
X2154Y2768D01*
X2166Y2819D01*
X2170Y2871D01*
X2166Y2923D01*
X2154Y2974D01*
X2134Y3022D01*
X2106Y3066D01*
X2072Y3106D01*
X2033Y3140D01*
X1988Y3167D01*
X1940Y3187D01*
X1889Y3200D01*
X1837Y3204D01*
D02*
G37*
G36*
X2354Y2762D02*
X2334Y2759D01*
X2315Y2751D01*
X2299Y2739D01*
X2286Y2723D01*
X2278Y2704D01*
X2276Y2684D01*
X2278Y2663D01*
X2286Y2644D01*
X2299Y2628D01*
X2315Y2616D01*
X2334Y2608D01*
X2354Y2605D01*
X2374Y2608D01*
X2393Y2616D01*
X2409Y2628D01*
X2422Y2644D01*
X2430Y2663D01*
X2432Y2684D01*
X2430Y2704D01*
X2422Y2723D01*
X2409Y2739D01*
X2393Y2751D01*
X2374Y2759D01*
X2354Y2762D01*
D02*
G37*
G36*
X-2286Y3028D02*
X-2303Y3025D01*
X-2317Y3015D01*
X-2326Y3001D01*
X-2330Y2984D01*
X-2326Y2968D01*
X-2317Y2954D01*
X-2307Y2947D01*
Y2777D01*
X-2588Y2496D01*
X-2600Y2504D01*
X-2616Y2507D01*
X-2633Y2504D01*
X-2647Y2495D01*
X-2656Y2480D01*
X-2660Y2464D01*
X-2656Y2447D01*
X-2647Y2433D01*
X-2633Y2424D01*
X-2616Y2420D01*
X-2600Y2424D01*
X-2585Y2433D01*
X-2576Y2447D01*
X-2575Y2450D01*
X-2271Y2754D01*
X-2267Y2761D01*
X-2265Y2769D01*
X-2265Y2769D01*
X-2265Y2769D01*
Y2769D01*
Y2947D01*
X-2255Y2954D01*
X-2246Y2968D01*
X-2242Y2984D01*
X-2246Y3001D01*
X-2255Y3015D01*
X-2269Y3025D01*
X-2286Y3028D01*
D02*
G37*
G36*
X-2863Y3204D02*
X-2915Y3200D01*
X-2966Y3187D01*
X-3014Y3167D01*
X-3058Y3140D01*
X-3098Y3106D01*
X-3132Y3066D01*
X-3159Y3022D01*
X-3179Y2974D01*
X-3192Y2923D01*
X-3196Y2871D01*
X-3192Y2819D01*
X-3179Y2768D01*
X-3159Y2720D01*
X-3132Y2675D01*
X-3098Y2636D01*
X-3058Y2602D01*
X-3014Y2574D01*
X-2966Y2554D01*
X-2915Y2542D01*
X-2863Y2538D01*
X-2811Y2542D01*
X-2760Y2554D01*
X-2712Y2574D01*
X-2667Y2602D01*
X-2628Y2636D01*
X-2594Y2675D01*
X-2566Y2720D01*
X-2546Y2768D01*
X-2534Y2819D01*
X-2530Y2871D01*
X-2534Y2923D01*
X-2546Y2974D01*
X-2566Y3022D01*
X-2594Y3066D01*
X-2628Y3106D01*
X-2667Y3140D01*
X-2712Y3167D01*
X-2760Y3187D01*
X-2811Y3200D01*
X-2863Y3204D01*
D02*
G37*
G36*
X-2045Y3447D02*
X-2061Y3444D01*
X-2075Y3434D01*
X-2085Y3420D01*
X-2088Y3404D01*
X-2085Y3387D01*
X-2075Y3373D01*
X-2061Y3363D01*
X-2045Y3360D01*
X-2028Y3363D01*
X-2014Y3373D01*
X-2007Y3383D01*
X-1774D01*
X-1697Y3306D01*
Y2718D01*
X-1695Y2710D01*
X-1692Y2705D01*
X-1695Y2692D01*
X-1691Y2676D01*
X-1682Y2662D01*
X-1690Y2649D01*
X-1806D01*
X-1814Y2659D01*
X-1813Y2664D01*
X-1816Y2681D01*
X-1826Y2695D01*
X-1840Y2704D01*
X-1856Y2708D01*
X-1873Y2704D01*
X-1887Y2695D01*
X-1897Y2681D01*
X-1900Y2664D01*
X-1898Y2652D01*
X-1906Y2643D01*
X-1911Y2637D01*
X-1912Y2629D01*
X-1911Y2621D01*
X-1906Y2614D01*
X-1900Y2610D01*
X-1892Y2608D01*
X-1413D01*
X-1408Y2597D01*
X-1500Y2504D01*
X-1504Y2498D01*
X-1505Y2495D01*
X-1517Y2493D01*
X-1519Y2495D01*
X-1533Y2504D01*
X-1549Y2507D01*
X-1566Y2504D01*
X-1580Y2495D01*
X-1590Y2480D01*
X-1593Y2464D01*
X-1590Y2447D01*
X-1580Y2433D01*
X-1570Y2426D01*
Y330D01*
X-1568Y322D01*
X-1564Y316D01*
X-1551Y303D01*
X-1545Y298D01*
X-1537Y297D01*
X-1537Y297D01*
X-1536D01*
X-1529Y287D01*
X-1515Y277D01*
X-1499Y274D01*
X-1482Y277D01*
X-1468Y287D01*
X-1458Y301D01*
X-1455Y317D01*
X-1458Y334D01*
X-1468Y348D01*
X-1482Y358D01*
X-1499Y361D01*
X-1515Y358D01*
X-1518Y356D01*
X-1529Y362D01*
Y2426D01*
X-1519Y2433D01*
X-1518Y2434D01*
X-1506Y2430D01*
Y647D01*
X-1504Y639D01*
X-1502Y635D01*
X-1504Y622D01*
X-1501Y606D01*
X-1491Y592D01*
X-1477Y582D01*
X-1460Y579D01*
X-1444Y582D01*
X-1430Y592D01*
X-1420Y606D01*
X-1418Y619D01*
X-1418Y619D01*
X-1418Y619D01*
X-1414Y619D01*
D01*
X-1406Y618D01*
X-1405Y617D01*
Y584D01*
X-1415Y577D01*
X-1425Y563D01*
X-1428Y546D01*
X-1425Y529D01*
X-1415Y515D01*
X-1401Y506D01*
X-1384Y503D01*
X-1368Y506D01*
X-1354Y515D01*
X-1346Y527D01*
X-1334Y523D01*
Y54D01*
X-1475Y-87D01*
X-1483Y-100D01*
X-1484Y-102D01*
X-1486Y-114D01*
X-1486Y-114D01*
Y-1238D01*
X-1488Y-1241D01*
X-1491Y-1257D01*
X-1488Y-1274D01*
X-1479Y-1288D01*
X-1464Y-1298D01*
X-1448Y-1301D01*
X-1431Y-1298D01*
X-1417Y-1288D01*
X-1408Y-1274D01*
X-1404Y-1257D01*
X-1408Y-1241D01*
X-1409Y-1238D01*
Y-130D01*
X-1268Y11D01*
X-1268Y11D01*
X-1260Y23D01*
X-1257Y38D01*
Y692D01*
X-1255Y695D01*
X-1255Y698D01*
X-1089Y863D01*
X-832D01*
X-829Y861D01*
X-813Y858D01*
X-796Y861D01*
X-782Y871D01*
X-773Y885D01*
X-769Y902D01*
X-773Y918D01*
X-782Y932D01*
X-796Y942D01*
X-813Y945D01*
X-829Y942D01*
X-832Y940D01*
X-1105D01*
X-1120Y937D01*
X-1132Y929D01*
X-1132Y929D01*
X-1309Y752D01*
X-1312Y751D01*
X-1326Y742D01*
X-1336Y728D01*
X-1339Y711D01*
X-1336Y695D01*
X-1334Y692D01*
Y569D01*
X-1346Y566D01*
X-1354Y577D01*
X-1364Y584D01*
Y2413D01*
X-1364Y2413D01*
X-1365Y2421D01*
X-1370Y2428D01*
X-1394Y2452D01*
X-1392Y2464D01*
X-1394Y2476D01*
X-1350Y2519D01*
X-1322D01*
X-1313Y2507D01*
X-1323Y2493D01*
X-1326Y2476D01*
X-1323Y2460D01*
X-1313Y2446D01*
X-1303Y2439D01*
Y1499D01*
X-1303Y1499D01*
X-1303D01*
X-1302Y1491D01*
X-1297Y1484D01*
X-744Y931D01*
Y266D01*
X-755Y259D01*
X-764Y245D01*
X-767Y229D01*
X-764Y212D01*
X-755Y198D01*
X-741Y188D01*
X-724Y185D01*
X-707Y188D01*
X-693Y198D01*
X-684Y212D01*
X-680Y229D01*
X-684Y245D01*
X-693Y259D01*
X-703Y266D01*
Y940D01*
X-705Y948D01*
X-709Y954D01*
X-1262Y1507D01*
Y2439D01*
X-1252Y2446D01*
X-1242Y2460D01*
X-1239Y2476D01*
X-1242Y2493D01*
X-1252Y2507D01*
X-1244Y2519D01*
X-1142D01*
X-1136Y2509D01*
X-1122Y2500D01*
X-1105Y2496D01*
X-1088Y2500D01*
X-1074Y2509D01*
X-1065Y2523D01*
X-1061Y2540D01*
X-1065Y2557D01*
X-1074Y2571D01*
X-1088Y2580D01*
X-1105Y2584D01*
X-1122Y2580D01*
X-1136Y2571D01*
X-1142Y2561D01*
X-1211D01*
Y2744D01*
X-1201Y2751D01*
X-1192Y2765D01*
X-1188Y2781D01*
X-1192Y2798D01*
X-1201Y2812D01*
X-1215Y2822D01*
X-1232Y2825D01*
X-1249Y2822D01*
X-1263Y2812D01*
X-1272Y2798D01*
X-1275Y2781D01*
X-1272Y2765D01*
X-1263Y2751D01*
X-1252Y2744D01*
Y2561D01*
X-1359D01*
X-1367Y2559D01*
X-1373Y2555D01*
X-1376Y2557D01*
Y2570D01*
X-1365Y2581D01*
X-1354D01*
X-1346Y2582D01*
X-1339Y2587D01*
X-1281Y2644D01*
X-1281Y2644D01*
X-1277Y2651D01*
X-1275Y2659D01*
X-1275Y2659D01*
Y2700D01*
X-1277Y2708D01*
X-1281Y2715D01*
X-1406Y2839D01*
X-1408Y2849D01*
X-1417Y2863D01*
X-1431Y2872D01*
X-1448Y2876D01*
X-1464Y2872D01*
X-1479Y2863D01*
X-1488Y2849D01*
X-1491Y2832D01*
X-1488Y2815D01*
X-1479Y2801D01*
X-1464Y2792D01*
X-1448Y2789D01*
X-1431Y2792D01*
X-1422Y2798D01*
X-1357Y2732D01*
X-1361Y2720D01*
X-1363Y2720D01*
X-1377Y2710D01*
X-1386Y2696D01*
X-1390Y2680D01*
X-1386Y2663D01*
X-1384Y2659D01*
X-1393Y2649D01*
X-1612D01*
X-1620Y2662D01*
X-1611Y2676D01*
X-1607Y2692D01*
X-1611Y2709D01*
X-1620Y2723D01*
X-1634Y2733D01*
X-1651Y2736D01*
X-1656Y2740D01*
Y3315D01*
X-1656Y3315D01*
X-1657Y3323D01*
X-1662Y3329D01*
X-1751Y3418D01*
X-1757Y3423D01*
X-1765Y3424D01*
X-2007D01*
X-2014Y3434D01*
X-2028Y3444D01*
X-2045Y3447D01*
D02*
G37*
G36*
X-3663Y4338D02*
X-3700Y4333D01*
X-3734Y4319D01*
X-3763Y4296D01*
X-3786Y4267D01*
X-3800Y4233D01*
X-3805Y4196D01*
X-3800Y4159D01*
X-3786Y4125D01*
X-3763Y4096D01*
X-3734Y4073D01*
X-3700Y4059D01*
X-3663Y4054D01*
X-3626Y4059D01*
X-3592Y4073D01*
X-3563Y4096D01*
X-3540Y4125D01*
X-3526Y4159D01*
X-3521Y4196D01*
X-3526Y4233D01*
X-3540Y4267D01*
X-3563Y4296D01*
X-3592Y4319D01*
X-3626Y4333D01*
X-3663Y4338D01*
D02*
G37*
G36*
X2637D02*
X2600Y4333D01*
X2566Y4319D01*
X2537Y4296D01*
X2514Y4267D01*
X2500Y4233D01*
X2495Y4196D01*
X2500Y4159D01*
X2514Y4125D01*
X2537Y4096D01*
X2566Y4073D01*
X2600Y4059D01*
X2637Y4054D01*
X2674Y4059D01*
X2708Y4073D01*
X2737Y4096D01*
X2760Y4125D01*
X2774Y4159D01*
X2779Y4196D01*
X2774Y4233D01*
X2760Y4267D01*
X2737Y4296D01*
X2708Y4319D01*
X2674Y4333D01*
X2637Y4338D01*
D02*
G37*
G36*
X2925Y2876D02*
X2905Y2874D01*
X2886Y2866D01*
X2870Y2853D01*
X2857Y2837D01*
X2850Y2818D01*
X2847Y2798D01*
X2850Y2778D01*
X2856Y2762D01*
X2810Y2716D01*
X2799Y2717D01*
X2797Y2718D01*
X2790Y2726D01*
X2774Y2739D01*
X2755Y2747D01*
X2735Y2749D01*
X2715Y2747D01*
X2696Y2739D01*
X2679Y2726D01*
X2667Y2710D01*
X2659Y2691D01*
X2657Y2671D01*
X2659Y2651D01*
X2666Y2635D01*
X2620Y2589D01*
X2608Y2589D01*
X2606Y2591D01*
X2600Y2599D01*
X2584Y2612D01*
X2565Y2620D01*
X2544Y2622D01*
X2524Y2620D01*
X2505Y2612D01*
X2489Y2599D01*
X2477Y2583D01*
X2469Y2564D01*
X2466Y2544D01*
X2469Y2524D01*
X2477Y2505D01*
X2489Y2488D01*
X2505Y2476D01*
X2524Y2468D01*
X2542Y2466D01*
X2546Y2454D01*
X2525Y2433D01*
X2495D01*
X2486Y2432D01*
X2478Y2427D01*
X2424Y2373D01*
X2415Y2381D01*
X2422Y2390D01*
X2430Y2409D01*
X2432Y2430D01*
X2430Y2450D01*
X2422Y2469D01*
X2409Y2485D01*
X2393Y2497D01*
X2374Y2505D01*
X2354Y2508D01*
X2334Y2505D01*
X2315Y2497D01*
X2299Y2485D01*
X2286Y2469D01*
X2278Y2450D01*
X2276Y2430D01*
X2278Y2409D01*
X2286Y2390D01*
X2299Y2374D01*
X2315Y2362D01*
X2334Y2354D01*
X2354Y2351D01*
X2374Y2354D01*
X2393Y2362D01*
X2402Y2369D01*
X2411Y2359D01*
X2371Y2319D01*
X2304D01*
X2295Y2317D01*
X2288Y2312D01*
X2217Y2242D01*
X2212Y2234D01*
X2210Y2225D01*
Y2179D01*
X1553Y1521D01*
X1498D01*
X1489Y1519D01*
X1482Y1514D01*
X1457Y1490D01*
X1448Y1491D01*
X1431Y1488D01*
X1417Y1479D01*
X1408Y1464D01*
X1404Y1448D01*
X1408Y1431D01*
X1417Y1417D01*
X1431Y1408D01*
X1448Y1404D01*
X1464Y1408D01*
X1473Y1413D01*
X1481Y1403D01*
X1411Y1333D01*
X1386D01*
X1377Y1332D01*
X1370Y1326D01*
X1317Y1274D01*
X1308Y1275D01*
X1291Y1272D01*
X1277Y1263D01*
X1268Y1249D01*
X1265Y1232D01*
X1268Y1215D01*
X1277Y1201D01*
X1291Y1192D01*
X1308Y1188D01*
X1325Y1192D01*
X1339Y1201D01*
X1348Y1215D01*
X1352Y1232D01*
X1350Y1241D01*
X1396Y1287D01*
X1420D01*
X1429Y1289D01*
X1437Y1294D01*
X2275Y2132D01*
X2279Y2133D01*
X2289Y2133D01*
X2299Y2120D01*
X2315Y2108D01*
X2334Y2100D01*
X2354Y2097D01*
X2374Y2100D01*
X2393Y2108D01*
X2409Y2120D01*
X2422Y2136D01*
X2430Y2155D01*
X2432Y2176D01*
X2430Y2196D01*
X2422Y2215D01*
X2409Y2231D01*
X2407Y2233D01*
X2408Y2245D01*
X2410Y2247D01*
X2454Y2291D01*
X2466Y2287D01*
X2469Y2270D01*
X2477Y2251D01*
X2489Y2234D01*
X2505Y2222D01*
X2524Y2214D01*
X2544Y2212D01*
X2565Y2214D01*
X2584Y2222D01*
X2600Y2234D01*
X2612Y2251D01*
X2620Y2270D01*
X2623Y2290D01*
X2620Y2310D01*
X2612Y2329D01*
X2600Y2345D01*
X2588Y2354D01*
X2588Y2367D01*
X2645Y2425D01*
X2657Y2419D01*
X2657Y2417D01*
X2659Y2397D01*
X2667Y2378D01*
X2679Y2361D01*
X2696Y2349D01*
X2715Y2341D01*
X2735Y2339D01*
X2755Y2341D01*
X2774Y2349D01*
X2790Y2361D01*
X2803Y2378D01*
X2811Y2397D01*
X2813Y2417D01*
X2811Y2437D01*
X2803Y2456D01*
X2790Y2472D01*
X2774Y2485D01*
X2755Y2493D01*
X2735Y2495D01*
X2733Y2495D01*
X2727Y2506D01*
X2839Y2618D01*
X2842Y2623D01*
X2844Y2626D01*
X2846Y2635D01*
Y2686D01*
X2889Y2729D01*
X2905Y2722D01*
X2925Y2720D01*
X2945Y2722D01*
X2964Y2730D01*
X2981Y2742D01*
X2993Y2759D01*
X3001Y2778D01*
X3004Y2798D01*
X3001Y2818D01*
X2993Y2837D01*
X2981Y2853D01*
X2964Y2866D01*
X2945Y2874D01*
X2925Y2876D01*
D02*
G37*
G36*
Y3130D02*
X2905Y3128D01*
X2886Y3120D01*
X2870Y3107D01*
X2857Y3091D01*
X2850Y3072D01*
X2620D01*
X2612Y3091D01*
X2600Y3107D01*
X2584Y3120D01*
X2565Y3128D01*
X2544Y3130D01*
X2524Y3128D01*
X2505Y3120D01*
X2489Y3107D01*
X2477Y3091D01*
X2469Y3072D01*
X2466Y3052D01*
X2469Y3032D01*
X2477Y3013D01*
X2489Y2996D01*
X2505Y2984D01*
X2524Y2976D01*
X2544Y2974D01*
X2565Y2976D01*
X2584Y2984D01*
X2600Y2996D01*
X2612Y3013D01*
X2620Y3031D01*
X2850D01*
X2857Y3013D01*
X2870Y2996D01*
X2886Y2984D01*
X2905Y2976D01*
X2925Y2974D01*
X2945Y2976D01*
X2964Y2984D01*
X2981Y2996D01*
X2993Y3013D01*
X3001Y3032D01*
X3004Y3052D01*
X3001Y3072D01*
X2993Y3091D01*
X2981Y3107D01*
X2964Y3120D01*
X2945Y3128D01*
X2925Y3130D01*
D02*
G37*
G36*
X2544Y2114D02*
X2524Y2112D01*
X2505Y2104D01*
X2489Y2091D01*
X2477Y2075D01*
X2469Y2056D01*
X2466Y2036D01*
X2469Y2016D01*
X2477Y1997D01*
X2489Y1980D01*
X2505Y1968D01*
X2524Y1960D01*
X2544Y1958D01*
X2565Y1960D01*
X2584Y1968D01*
X2600Y1980D01*
X2612Y1997D01*
X2620Y2016D01*
X2623Y2036D01*
X2620Y2056D01*
X2612Y2075D01*
X2600Y2091D01*
X2584Y2104D01*
X2565Y2112D01*
X2544Y2114D01*
D02*
G37*
G36*
X2925Y2114D02*
X2905Y2112D01*
X2886Y2104D01*
X2870Y2091D01*
X2857Y2075D01*
X2850Y2056D01*
X2847Y2036D01*
X2850Y2016D01*
X2857Y1997D01*
X2870Y1980D01*
X2886Y1968D01*
X2905Y1960D01*
X2925Y1958D01*
X2945Y1960D01*
X2964Y1968D01*
X2981Y1980D01*
X2993Y1997D01*
X3001Y2016D01*
X3004Y2036D01*
X3001Y2056D01*
X2993Y2075D01*
X2981Y2091D01*
X2964Y2104D01*
X2945Y2112D01*
X2925Y2114D01*
D02*
G37*
G36*
X2354Y1751D02*
X2333Y1747D01*
X2319Y1737D01*
X2315Y1735D01*
X2299Y1723D01*
X2286Y1707D01*
X2278Y1688D01*
X2276Y1668D01*
X2278Y1647D01*
X2279Y1647D01*
X1916Y1284D01*
X1908Y1271D01*
X1907Y1269D01*
X1905Y1257D01*
X1905Y1257D01*
Y1006D01*
X1702D01*
X1681Y1002D01*
X1664Y990D01*
X1652Y973D01*
X1648Y952D01*
X1652Y932D01*
X1664Y915D01*
X1681Y903D01*
X1702Y899D01*
X1883D01*
X1905Y877D01*
Y-864D01*
X1905Y-864D01*
X1907Y-876D01*
X1908Y-878D01*
X1916Y-891D01*
X1916Y-891D01*
X1916Y-891D01*
D01*
X1916D01*
Y-891D01*
D01*
X2043Y-1018D01*
X2043Y-1018D01*
X2051Y-1023D01*
X2055Y-1026D01*
X2070Y-1029D01*
X2070Y-1029D01*
X2508D01*
X2511Y-1031D01*
X2527Y-1034D01*
X2544Y-1031D01*
X2558Y-1021D01*
X2568Y-1007D01*
X2571Y-991D01*
X2568Y-974D01*
X2558Y-960D01*
X2544Y-950D01*
X2527Y-947D01*
X2511Y-950D01*
X2508Y-952D01*
X2086D01*
X1982Y-848D01*
Y877D01*
X1993Y894D01*
X1997Y914D01*
X1993Y935D01*
X1982Y952D01*
Y1241D01*
X2333Y1592D01*
X2334Y1592D01*
X2354Y1589D01*
X2374Y1592D01*
X2393Y1600D01*
X2409Y1612D01*
X2422Y1628D01*
X2430Y1647D01*
X2432Y1668D01*
X2430Y1688D01*
X2422Y1707D01*
X2409Y1723D01*
X2393Y1735D01*
X2389Y1737D01*
X2375Y1747D01*
X2354Y1751D01*
D02*
G37*
G36*
X2735Y2241D02*
X2715Y2239D01*
X2696Y2231D01*
X2679Y2218D01*
X2667Y2202D01*
X2659Y2183D01*
X2657Y2163D01*
X2659Y2143D01*
X2667Y2124D01*
X2679Y2107D01*
X2696Y2095D01*
X2712Y2088D01*
Y2071D01*
X2613Y1972D01*
X2608Y1965D01*
X2606Y1956D01*
Y1847D01*
X2594Y1841D01*
X2584Y1850D01*
X2565Y1858D01*
X2544Y1860D01*
X2524Y1858D01*
X2505Y1850D01*
X2489Y1837D01*
X2477Y1821D01*
X2469Y1802D01*
X2466Y1782D01*
X2469Y1762D01*
X2477Y1743D01*
X2489Y1726D01*
X2505Y1714D01*
X2524Y1706D01*
X2544Y1704D01*
X2565Y1706D01*
X2584Y1714D01*
X2595Y1723D01*
X2606Y1716D01*
X2606Y1715D01*
Y1600D01*
X2607Y1593D01*
X2596Y1586D01*
X2584Y1596D01*
X2565Y1604D01*
X2544Y1606D01*
X2524Y1604D01*
X2505Y1596D01*
X2489Y1583D01*
X2477Y1567D01*
X2469Y1548D01*
X2466Y1528D01*
X2469Y1508D01*
X2477Y1489D01*
X2489Y1472D01*
X2505Y1460D01*
X2524Y1452D01*
X2544Y1450D01*
X2565Y1452D01*
X2584Y1460D01*
X2600Y1472D01*
X2606Y1481D01*
X2612Y1479D01*
X2615Y1467D01*
X2613Y1464D01*
X2608Y1457D01*
X2606Y1448D01*
Y1339D01*
X2594Y1333D01*
X2584Y1342D01*
X2565Y1350D01*
X2544Y1352D01*
X2524Y1350D01*
X2505Y1342D01*
X2489Y1329D01*
X2477Y1313D01*
X2469Y1294D01*
X2466Y1274D01*
X2469Y1254D01*
X2477Y1235D01*
X2489Y1218D01*
X2505Y1206D01*
X2524Y1198D01*
X2544Y1196D01*
X2565Y1198D01*
X2584Y1206D01*
X2600Y1218D01*
X2612Y1235D01*
X2620Y1254D01*
X2623Y1274D01*
X2620Y1292D01*
X2632Y1298D01*
X2644Y1286D01*
Y1241D01*
X2556Y1153D01*
X2464D01*
X2455Y1152D01*
X2447Y1147D01*
X2054Y753D01*
X2049Y745D01*
X2047Y737D01*
Y-726D01*
X2039Y-731D01*
X2030Y-745D01*
X2027Y-762D01*
X2030Y-779D01*
X2039Y-793D01*
X2053Y-802D01*
X2070Y-806D01*
X2087Y-802D01*
X2101Y-793D01*
X2110Y-779D01*
X2114Y-762D01*
X2110Y-745D01*
X2101Y-731D01*
X2093Y-726D01*
Y727D01*
X2473Y1107D01*
X2531D01*
X2536Y1095D01*
X2193Y753D01*
X2188Y745D01*
X2187Y737D01*
Y-711D01*
X2187Y-711D01*
X2187D01*
X2188Y-720D01*
X2193Y-728D01*
X2282Y-816D01*
X2281Y-826D01*
X2284Y-842D01*
X2293Y-856D01*
X2307Y-866D01*
X2324Y-869D01*
X2341Y-866D01*
X2355Y-856D01*
X2364Y-842D01*
X2368Y-826D01*
X2364Y-809D01*
X2355Y-795D01*
X2341Y-785D01*
X2324Y-782D01*
X2315Y-784D01*
X2233Y-702D01*
Y727D01*
X2581Y1075D01*
X2588Y1076D01*
X2595Y1081D01*
X2839Y1325D01*
X2839Y1325D01*
X2839Y1325D01*
X2844Y1332D01*
X2846Y1341D01*
Y1484D01*
X2848Y1485D01*
X2858Y1488D01*
X2870Y1472D01*
X2886Y1460D01*
X2905Y1452D01*
X2925Y1450D01*
X2945Y1452D01*
X2964Y1460D01*
X2978Y1471D01*
X2990Y1465D01*
Y1337D01*
X2978Y1331D01*
X2964Y1342D01*
X2945Y1350D01*
X2925Y1352D01*
X2905Y1350D01*
X2886Y1342D01*
X2870Y1329D01*
X2857Y1313D01*
X2850Y1294D01*
X2847Y1274D01*
X2850Y1254D01*
X2857Y1235D01*
X2868Y1221D01*
X2862Y1209D01*
X2786D01*
X2778Y1208D01*
X2770Y1203D01*
X2320Y753D01*
X2315Y745D01*
X2314Y737D01*
Y-599D01*
X2306Y-604D01*
X2297Y-618D01*
X2293Y-635D01*
X2297Y-652D01*
X2306Y-666D01*
X2320Y-675D01*
X2337Y-679D01*
X2353Y-675D01*
X2368Y-666D01*
X2377Y-652D01*
X2380Y-635D01*
X2377Y-618D01*
X2368Y-604D01*
X2360Y-599D01*
Y727D01*
X2796Y1163D01*
X2962D01*
X2970Y1165D01*
X2978Y1170D01*
X3029Y1221D01*
X3034Y1229D01*
X3036Y1238D01*
X3036Y1238D01*
X3036Y1238D01*
Y1238D01*
Y1564D01*
X3036Y1564D01*
X3036Y1564D01*
X3034Y1573D01*
X3033Y1576D01*
X3033Y1576D01*
X3029Y1581D01*
Y1581D01*
X3029Y1581D01*
X2948Y1662D01*
Y1707D01*
X2964Y1714D01*
X2981Y1726D01*
X2993Y1743D01*
X3001Y1762D01*
X3004Y1782D01*
X3001Y1802D01*
X2993Y1821D01*
X2981Y1837D01*
X2964Y1850D01*
X2945Y1858D01*
X2925Y1860D01*
X2905Y1858D01*
X2886Y1850D01*
X2870Y1837D01*
X2857Y1821D01*
X2850Y1802D01*
X2847Y1782D01*
X2850Y1762D01*
X2857Y1743D01*
X2870Y1726D01*
X2886Y1714D01*
X2902Y1707D01*
Y1652D01*
X2902Y1652D01*
X2902D01*
X2904Y1643D01*
X2909Y1636D01*
X2926Y1618D01*
X2922Y1606D01*
X2905Y1604D01*
X2886Y1596D01*
X2870Y1583D01*
X2858Y1568D01*
X2848Y1571D01*
X2846Y1572D01*
Y1691D01*
X2846Y1691D01*
X2846Y1691D01*
X2844Y1700D01*
X2842Y1703D01*
X2842Y1703D01*
X2839Y1708D01*
Y1708D01*
X2839Y1708D01*
X2758Y1789D01*
Y1834D01*
X2774Y1841D01*
X2790Y1853D01*
X2803Y1870D01*
X2811Y1889D01*
X2813Y1909D01*
X2811Y1929D01*
X2803Y1948D01*
X2790Y1964D01*
X2774Y1977D01*
X2755Y1985D01*
X2735Y1987D01*
X2715Y1985D01*
X2703Y1980D01*
X2696Y1991D01*
X2751Y2045D01*
X2756Y2053D01*
X2758Y2062D01*
X2758Y2062D01*
X2758Y2062D01*
Y2062D01*
Y2088D01*
X2774Y2095D01*
X2790Y2107D01*
X2803Y2124D01*
X2811Y2143D01*
X2813Y2163D01*
X2811Y2183D01*
X2803Y2202D01*
X2790Y2218D01*
X2774Y2231D01*
X2755Y2239D01*
X2735Y2241D01*
D02*
G37*
G36*
X2925Y2368D02*
X2905Y2366D01*
X2886Y2358D01*
X2870Y2345D01*
X2857Y2329D01*
X2850Y2310D01*
X2847Y2290D01*
X2850Y2270D01*
X2857Y2251D01*
X2870Y2234D01*
X2886Y2222D01*
X2905Y2214D01*
X2925Y2212D01*
X2945Y2214D01*
X2964Y2222D01*
X2981Y2234D01*
X2993Y2251D01*
X3001Y2270D01*
X3004Y2290D01*
X3001Y2310D01*
X2993Y2329D01*
X2981Y2345D01*
X2964Y2358D01*
X2945Y2366D01*
X2925Y2368D01*
D02*
G37*
G36*
Y2622D02*
X2905Y2620D01*
X2886Y2612D01*
X2870Y2599D01*
X2857Y2583D01*
X2850Y2564D01*
X2847Y2544D01*
X2850Y2524D01*
X2857Y2505D01*
X2870Y2488D01*
X2886Y2476D01*
X2905Y2468D01*
X2925Y2466D01*
X2945Y2468D01*
X2964Y2476D01*
X2981Y2488D01*
X2993Y2505D01*
X3001Y2524D01*
X3004Y2544D01*
X3001Y2564D01*
X2993Y2583D01*
X2981Y2599D01*
X2964Y2612D01*
X2945Y2620D01*
X2925Y2622D01*
D02*
G37*
G36*
X-2095Y3320D02*
X-2112Y3317D01*
X-2126Y3307D01*
X-2136Y3293D01*
X-2139Y3277D01*
X-2136Y3260D01*
X-2126Y3246D01*
X-2116Y3239D01*
Y2510D01*
X-2147Y2480D01*
X-2159Y2482D01*
X-2176Y2479D01*
X-2190Y2469D01*
X-2199Y2455D01*
X-2203Y2438D01*
X-2199Y2422D01*
X-2190Y2408D01*
X-2176Y2398D01*
X-2159Y2395D01*
X-2142Y2398D01*
X-2128Y2408D01*
X-2119Y2422D01*
X-2115Y2438D01*
X-2118Y2450D01*
X-2081Y2487D01*
X-2081Y2487D01*
X-2076Y2494D01*
X-2075Y2502D01*
Y3239D01*
X-2065Y3246D01*
X-2055Y3260D01*
X-2052Y3277D01*
X-2055Y3293D01*
X-2065Y3307D01*
X-2079Y3317D01*
X-2095Y3320D01*
D02*
G37*
G36*
X687Y2690D02*
X672Y2687D01*
X660Y2678D01*
X651Y2666D01*
X648Y2651D01*
X651Y2636D01*
X660Y2624D01*
X664Y2621D01*
Y2515D01*
X665Y2506D01*
X666Y2505D01*
Y2481D01*
X657Y2475D01*
X649Y2463D01*
X646Y2448D01*
X649Y2433D01*
X657Y2421D01*
X666Y2415D01*
Y2232D01*
X664Y2230D01*
X279D01*
X217Y2292D01*
Y2303D01*
X212Y2328D01*
X199Y2348D01*
X178Y2362D01*
X153Y2367D01*
X129Y2362D01*
X108Y2348D01*
X94Y2328D01*
X89Y2303D01*
Y2265D01*
X94Y2241D01*
X108Y2220D01*
X207Y2121D01*
X228Y2107D01*
X252Y2102D01*
X637D01*
X642Y2098D01*
X656Y2088D01*
Y1897D01*
X661Y1872D01*
X675Y1852D01*
X695Y1838D01*
X720Y1833D01*
X744Y1838D01*
X765Y1852D01*
X779Y1872D01*
X784Y1897D01*
Y2110D01*
X779Y2135D01*
X765Y2155D01*
X745Y2169D01*
X732Y2188D01*
X709Y2211D01*
X707Y2212D01*
Y2418D01*
X711Y2421D01*
X720Y2433D01*
X723Y2448D01*
X720Y2463D01*
X711Y2475D01*
X707Y2478D01*
Y2505D01*
X708Y2506D01*
X710Y2515D01*
Y2621D01*
X714Y2624D01*
X722Y2636D01*
X725Y2651D01*
X722Y2666D01*
X714Y2678D01*
X701Y2687D01*
X687Y2690D01*
D02*
G37*
G36*
X-2388Y3094D02*
X-2395Y3092D01*
X-2401Y3089D01*
X-2404Y3088D01*
X-2418Y3079D01*
X-2428Y3065D01*
X-2429Y3061D01*
X-2432Y3056D01*
X-2434Y3048D01*
X-2432Y3040D01*
X-2429Y3035D01*
X-2428Y3031D01*
X-2418Y3017D01*
X-2408Y3010D01*
Y2815D01*
X-2805Y2418D01*
X-2899D01*
X-2905Y2429D01*
X-2919Y2438D01*
X-2936Y2441D01*
X-2953Y2438D01*
X-2967Y2429D01*
X-2976Y2415D01*
X-2980Y2398D01*
X-2976Y2381D01*
X-2967Y2367D01*
X-2953Y2358D01*
X-2936Y2354D01*
X-2919Y2358D01*
X-2905Y2367D01*
X-2899Y2377D01*
X-2796D01*
X-2789Y2379D01*
X-2782Y2383D01*
X-2373Y2792D01*
X-2369Y2799D01*
X-2367Y2807D01*
Y3010D01*
X-2357Y3017D01*
X-2347Y3031D01*
X-2344Y3048D01*
X-2347Y3065D01*
X-2357Y3079D01*
X-2371Y3088D01*
X-2374Y3089D01*
X-2380Y3092D01*
X-2388Y3094D01*
D02*
G37*
%LPD*%
D10*
X1549Y3340D02*
X1623D01*
X988Y2779D02*
X1549Y3340D01*
X1285Y904D02*
X1753Y1372D01*
X1184Y904D02*
X1285D01*
X1753Y1372D02*
X1804D01*
X2354Y1922D01*
X2640Y3560D02*
X3073Y3126D01*
X-2413Y3048D02*
X-2388Y3073D01*
Y2807D02*
Y3073D01*
X-2796Y2398D02*
X-2388Y2807D01*
X-2413Y3048D02*
X-2388D01*
X-2936Y2398D02*
X-2796D01*
X-2616Y2464D02*
X-2591D01*
X-2286Y2769D02*
Y2984D01*
X-2591Y2464D02*
X-2286Y2769D01*
X3073Y1200D02*
Y3126D01*
X2640Y766D02*
X3073Y1200D01*
X2693Y2967D02*
X2735Y2925D01*
X2509Y2967D02*
X2693D01*
X2459Y3017D02*
X2509Y2967D01*
X2459Y3017D02*
Y3087D01*
X2640Y3268D01*
Y3560D01*
X3124Y-305D02*
Y281D01*
Y-1168D02*
Y-305D01*
X2640Y766D02*
X3124Y281D01*
X2544Y2798D02*
X2671Y2925D01*
X2735D01*
X2544Y3052D02*
X2925D01*
X-2985Y1905D02*
Y2325D01*
X-3327Y2667D02*
X-2985Y2325D01*
X-3480Y1411D02*
X-2985Y1905D01*
X-3480Y699D02*
Y1411D01*
X687Y2143D02*
Y2515D01*
Y2143D02*
X720Y2110D01*
X-140Y76D02*
X76D01*
X127Y25D01*
X82Y145D02*
X89Y152D01*
X-209Y145D02*
X82D01*
X-495Y-140D02*
X-476Y-159D01*
Y-362D02*
Y-159D01*
X-1232Y2540D02*
X-1105D01*
X-1232D02*
Y2781D01*
X-1359Y2540D02*
X-1232D01*
X-1435Y2464D02*
X-1359Y2540D01*
X-1435Y2464D02*
X-1384Y2413D01*
X-533Y-102D02*
Y-63D01*
X-660Y63D02*
X-533Y-63D01*
Y-102D02*
X-495Y-140D01*
X-978Y190D02*
X-851Y63D01*
X-660D01*
X-1384Y546D02*
Y2413D01*
X-978Y190D02*
Y508D01*
X-190Y-305D02*
Y-254D01*
X-470Y25D02*
X-190Y-254D01*
X-156Y432D02*
Y486D01*
Y314D02*
Y432D01*
X-25Y562D02*
Y1499D01*
X-156Y432D02*
X-25Y562D01*
X-165Y495D02*
X-156Y486D01*
X-521Y229D02*
X317D01*
X424Y122D01*
X-1067Y38D02*
X-978D01*
X-1295Y-190D02*
X-1067Y38D01*
X-190Y-165D02*
X-114Y-241D01*
X-483Y127D02*
X-190Y-165D01*
X-952Y635D02*
X-826Y508D01*
Y190D02*
Y508D01*
Y190D02*
X-762Y127D01*
X-483D01*
X-114Y-724D02*
Y-546D01*
Y-381D01*
Y-241D01*
X-927Y-63D02*
X-711D01*
X-965Y-102D02*
X-927Y-63D01*
X-1206Y-254D02*
X-699D01*
X-928Y-958D02*
X-656Y-686D01*
X-483D01*
X-445Y-673D02*
X-190D01*
X-470D02*
X-445D01*
X-483Y-508D02*
X-470D01*
X-445Y-533D01*
Y-673D02*
Y-533D01*
X-483Y-686D02*
X-470Y-673D01*
X-190D02*
Y-305D01*
X-1295Y-1080D02*
Y-190D01*
Y-1080D02*
X-1232Y-1143D01*
X-1485Y647D02*
X-1460Y622D01*
X-1485Y647D02*
Y2490D01*
X-1374Y2601D01*
X-1354D01*
X-1296Y2659D01*
Y2700D01*
X-1428Y2832D02*
X-1296Y2700D01*
X-1448Y2832D02*
X-1428D01*
X-1537Y317D02*
X-1499D01*
X-1549Y330D02*
X-1537Y317D01*
X-1549Y330D02*
Y2464D01*
X-1892Y2629D02*
X-1384D01*
X-1346Y2667D02*
Y2680D01*
X-1384Y2629D02*
X-1346Y2667D01*
X-1892Y2629D02*
X-1856Y2664D01*
X-1676Y2718D02*
X-1651Y2692D01*
X-1676Y2718D02*
Y3315D01*
X-1765Y3404D02*
X-1676Y3315D01*
X-2045Y3404D02*
X-1765D01*
X-2159Y2438D02*
X-2095Y2502D01*
Y3277D01*
X-724Y229D02*
Y940D01*
X-1283Y1499D02*
X-724Y940D01*
X-1283Y1499D02*
Y2476D01*
D11*
X1943Y914D02*
Y1257D01*
Y-864D02*
Y914D01*
Y1257D02*
X2354Y1668D01*
X1943Y-864D02*
X2070Y-991D01*
X2527D01*
X-1295Y38D02*
Y711D01*
X-1448Y-114D02*
X-1295Y38D01*
X-1448Y-1257D02*
Y-114D01*
X-1105Y902D02*
X-813D01*
X-1295Y711D02*
X-1105Y902D01*
X-3569Y3480D02*
Y3696D01*
Y1181D02*
Y3480D01*
Y1181D02*
X-3543Y1156D01*
D12*
X1905Y952D02*
X1943Y914D01*
X1702Y952D02*
X1905D01*
X2354Y1668D02*
Y1697D01*
D13*
X1420Y1310D02*
X2266Y2156D01*
X1386Y1310D02*
X1420D01*
X1308Y1232D02*
X1386Y1310D01*
X1562Y1498D02*
X2234Y2170D01*
X1498Y1498D02*
X1562D01*
X1448Y1448D02*
X1498Y1498D01*
X2394Y2263D02*
X2508Y2378D01*
X2318Y2263D02*
X2394D01*
X2380Y2296D02*
X2495Y2410D01*
X2304Y2296D02*
X2380D01*
X2508Y2378D02*
X2566D01*
X2823Y2635D01*
Y2695D01*
X2925Y2798D01*
X2495Y2410D02*
X2535D01*
X2632Y2508D01*
X2234Y2170D02*
Y2225D01*
X2304Y2296D01*
X2266Y2156D02*
Y2212D01*
X2318Y2263D01*
X2632Y2508D02*
Y2568D01*
X2735Y2671D01*
X2210Y-711D02*
Y737D01*
Y-711D02*
X2324Y-826D01*
X2337Y-635D02*
Y737D01*
X2070Y-762D02*
Y737D01*
X2337D02*
X2786Y1186D01*
X2962D01*
X3013Y1238D01*
Y1564D01*
X2925Y1652D02*
X3013Y1564D01*
X2925Y1652D02*
Y1782D01*
X2210Y737D02*
X2571Y1098D01*
X2579D02*
X2823Y1341D01*
Y1691D01*
X2571Y1098D02*
X2579D01*
X2735Y1779D02*
X2823Y1691D01*
X2735Y1779D02*
Y1909D01*
X2070Y737D02*
X2464Y1130D01*
X2565D01*
X2667Y1232D01*
Y1295D01*
X2629Y1334D02*
X2667Y1295D01*
X2629Y1334D02*
Y1448D01*
X2642Y1460D01*
Y1588D01*
X2629Y1600D02*
X2642Y1588D01*
X2629Y1600D02*
Y1715D01*
X2654Y1740D01*
Y1816D01*
X2629Y1842D02*
X2654Y1816D01*
X2629Y1842D02*
Y1956D01*
X2735Y2062D01*
Y2163D01*
X687Y2515D02*
Y2651D01*
D14*
X2729Y-469D02*
X2858Y-340D01*
Y38D01*
D15*
X664Y2166D02*
X687Y2143D01*
X720Y1897D02*
Y2110D01*
X252Y2166D02*
X664D01*
X153Y2265D02*
X252Y2166D01*
X153Y2265D02*
Y2303D01*
D16*
X-2985Y1905D02*
D03*
X-928Y-958D02*
D03*
D17*
X2925Y1528D02*
D03*
Y1782D02*
D03*
Y2036D02*
D03*
Y2290D02*
D03*
Y2544D02*
D03*
Y2798D02*
D03*
Y3052D02*
D03*
X2735Y1655D02*
D03*
Y1909D02*
D03*
Y2163D02*
D03*
Y2417D02*
D03*
Y2671D02*
D03*
Y2925D02*
D03*
X2544Y3052D02*
D03*
Y2798D02*
D03*
Y2544D02*
D03*
Y2290D02*
D03*
Y2036D02*
D03*
Y1782D02*
D03*
Y1528D02*
D03*
Y1274D02*
D03*
X2354Y2938D02*
D03*
Y2684D02*
D03*
Y2430D02*
D03*
Y2176D02*
D03*
Y1922D02*
D03*
Y1668D02*
D03*
Y1414D02*
D03*
X2735Y1401D02*
D03*
X2925Y1274D02*
D03*
D18*
X2640Y3560D02*
D03*
Y766D02*
D03*
D19*
X2350Y-1829D02*
D03*
Y-2184D02*
D03*
Y-1486D02*
D03*
D20*
X2603Y-1829D02*
D03*
X2858D02*
D03*
X2603Y-2184D02*
D03*
X2858D02*
D03*
X2603Y-1486D02*
D03*
X2858D02*
D03*
D21*
X2637Y96D02*
D03*
X-3663D02*
D03*
D22*
Y4196D02*
D03*
X2637D02*
D03*
D23*
X1837Y-1629D02*
D03*
Y2871D02*
D03*
X-2863D02*
D03*
Y-1629D02*
D03*
D24*
X1623Y3340D02*
D03*
X988Y2779D02*
D03*
X1184Y904D02*
D03*
X1702Y952D02*
D03*
X1753Y1372D02*
D03*
X1308Y1232D02*
D03*
X1448Y1448D02*
D03*
X-2388Y3048D02*
D03*
X-2616Y2464D02*
D03*
X2324Y-826D02*
D03*
X2337Y-635D02*
D03*
X2070Y-762D02*
D03*
X2527Y-991D02*
D03*
X2858Y38D02*
D03*
X3124Y-1168D02*
D03*
Y-305D02*
D03*
X2729Y-469D02*
D03*
X-3327Y2667D02*
D03*
X-3480Y699D02*
D03*
X-140Y76D02*
D03*
X127Y25D02*
D03*
X89Y152D02*
D03*
X-209Y145D02*
D03*
X-476Y-362D02*
D03*
X-1105Y2540D02*
D03*
X-1232Y2781D02*
D03*
X-1435Y2464D02*
D03*
X-495Y-140D02*
D03*
X-1384Y546D02*
D03*
X-978Y508D02*
D03*
X-470Y25D02*
D03*
X-25Y1499D02*
D03*
X-165Y495D02*
D03*
X-156Y314D02*
D03*
X-521Y229D02*
D03*
X424Y122D02*
D03*
X-813Y902D02*
D03*
X-978Y38D02*
D03*
X-952Y635D02*
D03*
X-114Y-724D02*
D03*
Y-546D02*
D03*
Y-381D02*
D03*
X-190Y-165D02*
D03*
X-711Y-63D02*
D03*
X-965Y-102D02*
D03*
X-1206Y-254D02*
D03*
X-699D02*
D03*
X-483Y-508D02*
D03*
Y-686D02*
D03*
X-190Y-673D02*
D03*
Y-305D02*
D03*
X-1232Y-1143D02*
D03*
X-1295Y711D02*
D03*
X-1448Y-1257D02*
D03*
Y2832D02*
D03*
X-1460Y622D02*
D03*
X-1346Y2680D02*
D03*
X-1856Y2664D02*
D03*
X-1651Y2692D02*
D03*
X-2045Y3404D02*
D03*
X-2159Y2438D02*
D03*
X-2095Y3277D02*
D03*
X-3543Y1156D02*
D03*
X-3569Y3480D02*
D03*
Y3696D02*
D03*
X-2286Y2984D02*
D03*
X-2936Y2398D02*
D03*
X-724Y229D02*
D03*
X-1283Y2476D02*
D03*
X-1549Y2464D02*
D03*
X-1499Y317D02*
D03*
D25*
X153Y2303D02*
D03*
X687Y2651D02*
D03*
X684Y2448D02*
D03*
X720Y1897D02*
D03*
X-3862Y777D02*
D03*
M02*
