%FSLAX44Y44*%
%MOMM*%
G71*
G01*
G75*
%ADD10C,1.0000*%
%ADD11R,0.6000X0.5000*%
G04:AMPARAMS|DCode=12|XSize=0.508mm|YSize=0.6096mm|CornerRadius=0.127mm|HoleSize=0mm|Usage=FLASHONLY|Rotation=0.000|XOffset=0mm|YOffset=0mm|HoleType=Round|Shape=RoundedRectangle|*
%AMROUNDEDRECTD12*
21,1,0.5080,0.3556,0,0,0.0*
21,1,0.2540,0.6096,0,0,0.0*
1,1,0.2540,0.1270,-0.1778*
1,1,0.2540,-0.1270,-0.1778*
1,1,0.2540,-0.1270,0.1778*
1,1,0.2540,0.1270,0.1778*
%
%ADD12ROUNDEDRECTD12*%
%ADD13P,1.7321X8X22.5*%
G04:AMPARAMS|DCode=14|XSize=0.508mm|YSize=0.6096mm|CornerRadius=0.127mm|HoleSize=0mm|Usage=FLASHONLY|Rotation=270.000|XOffset=0mm|YOffset=0mm|HoleType=Round|Shape=RoundedRectangle|*
%AMROUNDEDRECTD14*
21,1,0.5080,0.3556,0,0,270.0*
21,1,0.2540,0.6096,0,0,270.0*
1,1,0.2540,-0.1778,-0.1270*
1,1,0.2540,-0.1778,0.1270*
1,1,0.2540,0.1778,0.1270*
1,1,0.2540,0.1778,-0.1270*
%
%ADD14ROUNDEDRECTD14*%
G04:AMPARAMS|DCode=15|XSize=0.7112mm|YSize=1.3208mm|CornerRadius=0.1778mm|HoleSize=0mm|Usage=FLASHONLY|Rotation=0.000|XOffset=0mm|YOffset=0mm|HoleType=Round|Shape=RoundedRectangle|*
%AMROUNDEDRECTD15*
21,1,0.7112,0.9652,0,0,0.0*
21,1,0.3556,1.3208,0,0,0.0*
1,1,0.3556,0.1778,-0.4826*
1,1,0.3556,-0.1778,-0.4826*
1,1,0.3556,-0.1778,0.4826*
1,1,0.3556,0.1778,0.4826*
%
%ADD15ROUNDEDRECTD15*%
G04:AMPARAMS|DCode=16|XSize=0.275mm|YSize=0.275mm|CornerRadius=0.0688mm|HoleSize=0mm|Usage=FLASHONLY|Rotation=90.000|XOffset=0mm|YOffset=0mm|HoleType=Round|Shape=RoundedRectangle|*
%AMROUNDEDRECTD16*
21,1,0.2750,0.1375,0,0,90.0*
21,1,0.1375,0.2750,0,0,90.0*
1,1,0.1375,0.0688,0.0688*
1,1,0.1375,0.0688,-0.0688*
1,1,0.1375,-0.0688,-0.0688*
1,1,0.1375,-0.0688,0.0688*
%
%ADD16ROUNDEDRECTD16*%
G04:AMPARAMS|DCode=17|XSize=0.275mm|YSize=0.275mm|CornerRadius=0.0688mm|HoleSize=0mm|Usage=FLASHONLY|Rotation=180.000|XOffset=0mm|YOffset=0mm|HoleType=Round|Shape=RoundedRectangle|*
%AMROUNDEDRECTD17*
21,1,0.2750,0.1375,0,0,180.0*
21,1,0.1375,0.2750,0,0,180.0*
1,1,0.1375,-0.0688,0.0688*
1,1,0.1375,0.0688,0.0688*
1,1,0.1375,0.0688,-0.0688*
1,1,0.1375,-0.0688,-0.0688*
%
%ADD17ROUNDEDRECTD17*%
%ADD18R,0.6096X0.5080*%
%ADD19R,0.5000X0.6000*%
%ADD20R,1.0000X0.6000*%
%ADD21R,0.8500X0.3000*%
%ADD22R,1.3000X2.0000*%
%ADD23R,0.4000X0.4000*%
%ADD24R,0.6000X0.5500*%
%ADD25R,1.4000X1.2000*%
%ADD26R,3.4500X3.4500*%
%ADD27O,0.3000X0.6000*%
%ADD28O,0.6000X0.3000*%
%ADD29C,0.1270*%
%ADD30C,0.2540*%
%ADD31C,0.3000*%
%ADD32C,1.5240*%
%ADD33C,0.4500*%
G04:AMPARAMS|DCode=34|XSize=0.7mm|YSize=1.8mm|CornerRadius=0.175mm|HoleSize=0mm|Usage=FLASHONLY|Rotation=270.000|XOffset=0mm|YOffset=0mm|HoleType=Round|Shape=RoundedRectangle|*
%AMROUNDEDRECTD34*
21,1,0.7000,1.4500,0,0,270.0*
21,1,0.3500,1.8000,0,0,270.0*
1,1,0.3500,-0.7250,-0.1750*
1,1,0.3500,-0.7250,0.1750*
1,1,0.3500,0.7250,0.1750*
1,1,0.3500,0.7250,-0.1750*
%
%ADD34ROUNDEDRECTD34*%
G04:AMPARAMS|DCode=35|XSize=1.6mm|YSize=2.2mm|CornerRadius=0.4mm|HoleSize=0mm|Usage=FLASHONLY|Rotation=270.000|XOffset=0mm|YOffset=0mm|HoleType=Round|Shape=RoundedRectangle|*
%AMROUNDEDRECTD35*
21,1,1.6000,1.4000,0,0,270.0*
21,1,0.8000,2.2000,0,0,270.0*
1,1,0.8000,-0.7000,-0.4000*
1,1,0.8000,-0.7000,0.4000*
1,1,0.8000,0.7000,0.4000*
1,1,0.8000,0.7000,-0.4000*
%
%ADD35ROUNDEDRECTD35*%
%ADD36O,0.6000X1.6500*%
G04:AMPARAMS|DCode=37|XSize=0.6096mm|YSize=1.7018mm|CornerRadius=0.3048mm|HoleSize=0mm|Usage=FLASHONLY|Rotation=270.000|XOffset=0mm|YOffset=0mm|HoleType=Round|Shape=RoundedRectangle|*
%AMROUNDEDRECTD37*
21,1,0.6096,1.0922,0,0,270.0*
21,1,0.0000,1.7018,0,0,270.0*
1,1,0.6096,-0.5461,0.0000*
1,1,0.6096,-0.5461,0.0000*
1,1,0.6096,0.5461,0.0000*
1,1,0.6096,0.5461,0.0000*
%
%ADD37ROUNDEDRECTD37*%
G04:AMPARAMS|DCode=38|XSize=2.8194mm|YSize=1.016mm|CornerRadius=0.508mm|HoleSize=0mm|Usage=FLASHONLY|Rotation=180.000|XOffset=0mm|YOffset=0mm|HoleType=Round|Shape=RoundedRectangle|*
%AMROUNDEDRECTD38*
21,1,2.8194,0.0000,0,0,180.0*
21,1,1.8034,1.0160,0,0,180.0*
1,1,1.0160,-0.9017,0.0000*
1,1,1.0160,0.9017,0.0000*
1,1,1.0160,0.9017,0.0000*
1,1,1.0160,-0.9017,0.0000*
%
%ADD38ROUNDEDRECTD38*%
%ADD39C,0.2500*%
%ADD40C,0.3000*%
%ADD41C,0.1000*%
%ADD42C,0.3000*%
%ADD43C,0.1524*%
%ADD44C,0.7620*%
%ADD45C,0.2000*%
%ADD46R,0.1524X0.5049*%
%ADD47R,0.5049X0.1524*%
%ADD48R,0.6048X0.1524*%
G36*
X565892Y335840D02*
X565914Y335832D01*
X565942Y335825D01*
X565977Y335818D01*
X566026Y335804D01*
X566132Y335769D01*
X566265Y335720D01*
X566413Y335664D01*
X566582Y335593D01*
X566765Y335509D01*
X566962Y335417D01*
X567159Y335312D01*
X567356Y335192D01*
X567560Y335059D01*
X567757Y334911D01*
X567947Y334749D01*
X568123Y334573D01*
X568292Y334383D01*
X568299Y334369D01*
X568327Y334334D01*
X568369Y334277D01*
X568418Y334193D01*
X568482Y334095D01*
X568552Y333968D01*
X568629Y333827D01*
X568707Y333665D01*
X568784Y333489D01*
X568862Y333293D01*
X568932Y333082D01*
X568995Y332856D01*
X569044Y332610D01*
X569087Y332357D01*
X569115Y332089D01*
X569122Y331808D01*
Y331801D01*
Y331787D01*
Y331766D01*
Y331738D01*
Y331702D01*
X569115Y331653D01*
Y331548D01*
X569101Y331414D01*
X569087Y331259D01*
X569066Y331083D01*
X569044Y330900D01*
X569009Y330696D01*
X568967Y330492D01*
X568911Y330274D01*
X568854Y330063D01*
X568777Y329852D01*
X568693Y329641D01*
X568594Y329437D01*
X568482Y329247D01*
X568475Y329233D01*
X568453Y329205D01*
X568411Y329156D01*
X568362Y329085D01*
X568299Y329001D01*
X568214Y328909D01*
X568123Y328804D01*
X568010Y328691D01*
X567883Y328572D01*
X567750Y328452D01*
X567595Y328325D01*
X567433Y328199D01*
X567250Y328079D01*
X567060Y327959D01*
X566849Y327847D01*
X566631Y327748D01*
X566624D01*
X566617Y327741D01*
X566575Y327727D01*
X566511Y327699D01*
X566420Y327671D01*
X566307Y327629D01*
X566174Y327587D01*
X566019Y327537D01*
X565850Y327495D01*
X565660Y327446D01*
X565456Y327397D01*
X565245Y327354D01*
X565013Y327312D01*
X564781Y327284D01*
X564534Y327256D01*
X564281Y327242D01*
X564021Y327235D01*
X563915D01*
X563873Y327242D01*
X563768D01*
X563634Y327256D01*
X563479Y327263D01*
X563303Y327284D01*
X563113Y327305D01*
X562916Y327340D01*
X562705Y327375D01*
X562480Y327425D01*
X562255Y327481D01*
X562030Y327544D01*
X561805Y327622D01*
X561586Y327713D01*
X561368Y327812D01*
X561354Y327819D01*
X561319Y327840D01*
X561263Y327875D01*
X561178Y327917D01*
X561087Y327980D01*
X560981Y328051D01*
X560855Y328142D01*
X560728Y328241D01*
X560594Y328346D01*
X560447Y328473D01*
X560306Y328607D01*
X560165Y328754D01*
X560024Y328916D01*
X559891Y329085D01*
X559764Y329268D01*
X559645Y329465D01*
X559638Y329479D01*
X559617Y329514D01*
X559588Y329571D01*
X559553Y329655D01*
X559504Y329753D01*
X559455Y329873D01*
X559405Y330014D01*
X559349Y330162D01*
X559293Y330331D01*
X559244Y330513D01*
X559187Y330710D01*
X559145Y330914D01*
X559110Y331133D01*
X559082Y331358D01*
X559061Y331590D01*
X559054Y331829D01*
Y331836D01*
Y331843D01*
Y331864D01*
Y331892D01*
Y331928D01*
X559061Y331970D01*
X559068Y332075D01*
X559075Y332202D01*
X559096Y332343D01*
X559117Y332505D01*
X559145Y332687D01*
X559187Y332877D01*
X559236Y333074D01*
X559293Y333279D01*
X559370Y333483D01*
X559455Y333686D01*
X559553Y333898D01*
X559666Y334095D01*
X559799Y334285D01*
X559806Y334299D01*
X559835Y334327D01*
X559877Y334383D01*
X559940Y334446D01*
X560010Y334531D01*
X560109Y334622D01*
X560215Y334721D01*
X560341Y334833D01*
X560482Y334946D01*
X560637Y335065D01*
X560812Y335178D01*
X560995Y335291D01*
X561199Y335403D01*
X561418Y335502D01*
X561650Y335600D01*
X561896Y335678D01*
X562192Y334411D01*
X562178Y334404D01*
X562142Y334397D01*
X562093Y334376D01*
X562016Y334348D01*
X561931Y334313D01*
X561833Y334271D01*
X561720Y334214D01*
X561601Y334158D01*
X561474Y334095D01*
X561347Y334017D01*
X561221Y333940D01*
X561087Y333848D01*
X560967Y333750D01*
X560848Y333651D01*
X560742Y333539D01*
X560644Y333419D01*
X560637Y333412D01*
X560623Y333391D01*
X560602Y333356D01*
X560566Y333307D01*
X560531Y333243D01*
X560489Y333166D01*
X560447Y333074D01*
X560397Y332976D01*
X560355Y332863D01*
X560313Y332744D01*
X560271Y332610D01*
X560236Y332469D01*
X560200Y332314D01*
X560179Y332153D01*
X560165Y331984D01*
X560158Y331801D01*
Y331787D01*
Y331752D01*
Y331695D01*
X560165Y331618D01*
X560172Y331520D01*
X560186Y331407D01*
X560200Y331280D01*
X560229Y331147D01*
X560257Y330999D01*
X560292Y330851D01*
X560334Y330696D01*
X560383Y330535D01*
X560447Y330380D01*
X560524Y330225D01*
X560602Y330070D01*
X560700Y329922D01*
X560707Y329915D01*
X560721Y329887D01*
X560756Y329852D01*
X560798Y329803D01*
X560855Y329739D01*
X560918Y329669D01*
X560995Y329592D01*
X561080Y329507D01*
X561178Y329423D01*
X561284Y329331D01*
X561404Y329247D01*
X561537Y329162D01*
X561671Y329078D01*
X561819Y329001D01*
X561973Y328930D01*
X562142Y328867D01*
X562149D01*
X562184Y328853D01*
X562234Y328839D01*
X562297Y328818D01*
X562382Y328797D01*
X562480Y328769D01*
X562593Y328747D01*
X562719Y328719D01*
X562853Y328691D01*
X563001Y328663D01*
X563156Y328635D01*
X563317Y328614D01*
X563655Y328578D01*
X563831Y328572D01*
X564014Y328564D01*
X564133D01*
X564225Y328572D01*
X564330Y328578D01*
X564457Y328586D01*
X564598Y328593D01*
X564746Y328607D01*
X564914Y328628D01*
X565090Y328649D01*
X565449Y328719D01*
X565639Y328754D01*
X565822Y328804D01*
X566005Y328860D01*
X566181Y328923D01*
X566188Y328930D01*
X566223Y328937D01*
X566265Y328959D01*
X566329Y328994D01*
X566406Y329029D01*
X566497Y329078D01*
X566596Y329134D01*
X566702Y329198D01*
X566807Y329275D01*
X566920Y329360D01*
X567039Y329451D01*
X567152Y329549D01*
X567264Y329662D01*
X567370Y329782D01*
X567468Y329908D01*
X567560Y330049D01*
X567567Y330056D01*
X567581Y330084D01*
X567602Y330126D01*
X567630Y330183D01*
X567665Y330253D01*
X567708Y330337D01*
X567743Y330436D01*
X567785Y330541D01*
X567834Y330661D01*
X567869Y330788D01*
X567912Y330928D01*
X567947Y331069D01*
X567975Y331224D01*
X567996Y331379D01*
X568010Y331541D01*
X568017Y331702D01*
Y331716D01*
Y331752D01*
X568010Y331808D01*
Y331885D01*
X567996Y331977D01*
X567982Y332082D01*
X567968Y332209D01*
X567940Y332336D01*
X567905Y332476D01*
X567862Y332624D01*
X567813Y332779D01*
X567757Y332934D01*
X567687Y333088D01*
X567602Y333243D01*
X567504Y333391D01*
X567398Y333539D01*
X567391Y333546D01*
X567370Y333574D01*
X567335Y333609D01*
X567278Y333658D01*
X567215Y333722D01*
X567138Y333792D01*
X567039Y333870D01*
X566934Y333947D01*
X566807Y334031D01*
X566673Y334116D01*
X566519Y334207D01*
X566350Y334285D01*
X566174Y334369D01*
X565977Y334439D01*
X565773Y334503D01*
X565548Y334559D01*
X565871Y335846D01*
X565878D01*
X565892Y335840D01*
D02*
G37*
G36*
X564253Y350122D02*
X564359D01*
X564485Y350108D01*
X564633Y350101D01*
X564809Y350080D01*
X564992Y350052D01*
X565196Y350024D01*
X565407Y349981D01*
X565625Y349932D01*
X565850Y349876D01*
X566082Y349805D01*
X566307Y349728D01*
X566533Y349637D01*
X566758Y349531D01*
X566772Y349524D01*
X566807Y349503D01*
X566870Y349468D01*
X566948Y349419D01*
X567046Y349362D01*
X567159Y349285D01*
X567285Y349193D01*
X567419Y349095D01*
X567560Y348982D01*
X567701Y348856D01*
X567848Y348715D01*
X567996Y348567D01*
X568137Y348398D01*
X568278Y348223D01*
X568404Y348032D01*
X568524Y347836D01*
X568531Y347822D01*
X568552Y347786D01*
X568580Y347723D01*
X568615Y347646D01*
X568665Y347540D01*
X568714Y347420D01*
X568770Y347287D01*
X568819Y347132D01*
X568876Y346956D01*
X568932Y346773D01*
X568981Y346583D01*
X569030Y346372D01*
X569066Y346161D01*
X569094Y345936D01*
X569115Y345704D01*
X569122Y345471D01*
Y345465D01*
Y345457D01*
Y345436D01*
Y345408D01*
X569115Y345338D01*
X569108Y345239D01*
X569101Y345120D01*
X569087Y344979D01*
X569066Y344817D01*
X569037Y344648D01*
X569002Y344458D01*
X568960Y344261D01*
X568904Y344057D01*
X568840Y343853D01*
X568770Y343642D01*
X568679Y343424D01*
X568580Y343213D01*
X568461Y343009D01*
X568453Y342995D01*
X568432Y342960D01*
X568390Y342903D01*
X568341Y342833D01*
X568270Y342742D01*
X568193Y342636D01*
X568095Y342523D01*
X567989Y342397D01*
X567862Y342270D01*
X567729Y342130D01*
X567581Y341996D01*
X567419Y341862D01*
X567243Y341729D01*
X567060Y341602D01*
X566863Y341482D01*
X566652Y341370D01*
X566638Y341363D01*
X566603Y341348D01*
X566540Y341320D01*
X566448Y341285D01*
X566343Y341243D01*
X566216Y341194D01*
X566075Y341144D01*
X565914Y341095D01*
X565738Y341039D01*
X565548Y340990D01*
X565351Y340940D01*
X565140Y340898D01*
X564914Y340863D01*
X564689Y340835D01*
X564457Y340821D01*
X564218Y340814D01*
X564112D01*
X564056Y340821D01*
X563986D01*
X563908Y340828D01*
X563817Y340835D01*
X563718Y340842D01*
X563613Y340856D01*
X563500Y340870D01*
X563381Y340884D01*
X563120Y340926D01*
X562839Y340976D01*
X562536Y341046D01*
X562227Y341130D01*
X561910Y341236D01*
X561594Y341363D01*
X561284Y341510D01*
X560981Y341686D01*
X560834Y341785D01*
X560693Y341883D01*
X560559Y341996D01*
X560426Y342115D01*
X560419Y342122D01*
X560411Y342130D01*
X560390Y342151D01*
X560369Y342179D01*
X560334Y342207D01*
X560299Y342249D01*
X560207Y342355D01*
X560109Y342481D01*
X559989Y342636D01*
X559870Y342819D01*
X559736Y343023D01*
X559609Y343255D01*
X559490Y343508D01*
X559370Y343783D01*
X559265Y344078D01*
X559180Y344402D01*
X559110Y344740D01*
X559089Y344916D01*
X559068Y345099D01*
X559061Y345281D01*
X559054Y345471D01*
Y345479D01*
Y345486D01*
Y345507D01*
Y345535D01*
X559061Y345605D01*
Y345697D01*
X559075Y345816D01*
X559089Y345957D01*
X559110Y346112D01*
X559131Y346281D01*
X559166Y346464D01*
X559208Y346660D01*
X559265Y346865D01*
X559328Y347069D01*
X559398Y347280D01*
X559490Y347491D01*
X559588Y347702D01*
X559701Y347906D01*
X559708Y347920D01*
X559729Y347955D01*
X559764Y348011D01*
X559821Y348082D01*
X559884Y348173D01*
X559961Y348279D01*
X560060Y348391D01*
X560165Y348518D01*
X560285Y348652D01*
X560419Y348785D01*
X560566Y348926D01*
X560728Y349060D01*
X560904Y349193D01*
X561087Y349327D01*
X561284Y349447D01*
X561495Y349559D01*
X561509Y349566D01*
X561544Y349587D01*
X561608Y349616D01*
X561699Y349651D01*
X561805Y349693D01*
X561938Y349742D01*
X562086Y349791D01*
X562255Y349848D01*
X562438Y349897D01*
X562642Y349946D01*
X562853Y349995D01*
X563085Y350038D01*
X563324Y350080D01*
X563578Y350108D01*
X563838Y350122D01*
X564105Y350129D01*
X564204D01*
X564253Y350122D01*
D02*
G37*
G36*
X568960Y316484D02*
X559222D01*
Y317772D01*
X568960D01*
Y316484D01*
D02*
G37*
G36*
Y319411D02*
X568847D01*
X568805Y319418D01*
X568693Y319425D01*
X568573Y319439D01*
X568432Y319460D01*
X568285Y319495D01*
X568137Y319545D01*
X568130D01*
X568109Y319559D01*
X568074Y319573D01*
X568024Y319594D01*
X567961Y319615D01*
X567891Y319650D01*
X567813Y319692D01*
X567729Y319734D01*
X567630Y319784D01*
X567532Y319847D01*
X567314Y319981D01*
X567081Y320143D01*
X566842Y320333D01*
X566835Y320340D01*
X566814Y320361D01*
X566779Y320389D01*
X566730Y320431D01*
X566666Y320487D01*
X566596Y320558D01*
X566511Y320635D01*
X566420Y320734D01*
X566315Y320839D01*
X566202Y320952D01*
X566082Y321078D01*
X565949Y321219D01*
X565815Y321374D01*
X565674Y321536D01*
X565527Y321712D01*
X565372Y321894D01*
X565365Y321902D01*
X565358Y321916D01*
X565337Y321937D01*
X565316Y321965D01*
X565280Y322000D01*
X565245Y322042D01*
X565154Y322148D01*
X565048Y322281D01*
X564914Y322422D01*
X564774Y322584D01*
X564619Y322753D01*
X564457Y322936D01*
X564288Y323112D01*
X564119Y323295D01*
X563943Y323464D01*
X563775Y323632D01*
X563613Y323780D01*
X563451Y323921D01*
X563303Y324033D01*
X563296Y324040D01*
X563268Y324054D01*
X563226Y324083D01*
X563177Y324125D01*
X563106Y324167D01*
X563029Y324209D01*
X562937Y324266D01*
X562839Y324315D01*
X562733Y324364D01*
X562621Y324420D01*
X562374Y324512D01*
X562248Y324547D01*
X562121Y324575D01*
X561995Y324589D01*
X561868Y324596D01*
X561798D01*
X561748Y324589D01*
X561685Y324582D01*
X561615Y324568D01*
X561537Y324554D01*
X561453Y324533D01*
X561361Y324505D01*
X561263Y324470D01*
X561164Y324427D01*
X561066Y324378D01*
X560960Y324322D01*
X560862Y324252D01*
X560763Y324174D01*
X560672Y324083D01*
X560665Y324076D01*
X560651Y324062D01*
X560630Y324033D01*
X560594Y323991D01*
X560559Y323942D01*
X560517Y323879D01*
X560468Y323808D01*
X560426Y323731D01*
X560376Y323639D01*
X560334Y323541D01*
X560292Y323428D01*
X560257Y323316D01*
X560221Y323189D01*
X560200Y323055D01*
X560186Y322915D01*
X560179Y322767D01*
Y322760D01*
Y322732D01*
Y322682D01*
X560186Y322626D01*
X560193Y322549D01*
X560207Y322464D01*
X560221Y322373D01*
X560243Y322267D01*
X560271Y322162D01*
X560306Y322049D01*
X560348Y321937D01*
X560397Y321817D01*
X560461Y321705D01*
X560531Y321592D01*
X560608Y321479D01*
X560700Y321381D01*
X560707Y321374D01*
X560721Y321360D01*
X560756Y321332D01*
X560791Y321303D01*
X560848Y321261D01*
X560911Y321219D01*
X560988Y321170D01*
X561073Y321128D01*
X561164Y321078D01*
X561277Y321029D01*
X561390Y320987D01*
X561516Y320945D01*
X561657Y320917D01*
X561805Y320888D01*
X561959Y320874D01*
X562128Y320867D01*
X562002Y319636D01*
X561987D01*
X561966Y319643D01*
X561938D01*
X561868Y319650D01*
X561776Y319671D01*
X561664Y319692D01*
X561530Y319720D01*
X561382Y319756D01*
X561228Y319798D01*
X561059Y319854D01*
X560890Y319918D01*
X560714Y319995D01*
X560538Y320086D01*
X560369Y320185D01*
X560207Y320304D01*
X560053Y320431D01*
X559912Y320579D01*
X559905Y320586D01*
X559884Y320614D01*
X559842Y320663D01*
X559799Y320727D01*
X559743Y320811D01*
X559680Y320910D01*
X559617Y321029D01*
X559546Y321163D01*
X559483Y321318D01*
X559420Y321479D01*
X559356Y321662D01*
X559300Y321859D01*
X559251Y322070D01*
X559215Y322296D01*
X559194Y322535D01*
X559187Y322788D01*
Y322795D01*
Y322802D01*
Y322823D01*
Y322851D01*
X559194Y322922D01*
X559201Y323020D01*
X559208Y323140D01*
X559230Y323274D01*
X559251Y323428D01*
X559286Y323590D01*
X559328Y323766D01*
X559377Y323942D01*
X559441Y324132D01*
X559518Y324315D01*
X559609Y324498D01*
X559708Y324674D01*
X559827Y324842D01*
X559968Y325004D01*
X559975Y325011D01*
X560003Y325039D01*
X560046Y325082D01*
X560109Y325131D01*
X560179Y325194D01*
X560271Y325265D01*
X560376Y325342D01*
X560496Y325420D01*
X560630Y325490D01*
X560777Y325567D01*
X560939Y325638D01*
X561108Y325701D01*
X561291Y325750D01*
X561481Y325792D01*
X561685Y325821D01*
X561896Y325827D01*
X561995D01*
X562051Y325821D01*
X562107Y325813D01*
X562178Y325806D01*
X562255Y325799D01*
X562431Y325771D01*
X562628Y325729D01*
X562832Y325666D01*
X563043Y325588D01*
X563050D01*
X563071Y325574D01*
X563099Y325560D01*
X563141Y325539D01*
X563191Y325518D01*
X563254Y325483D01*
X563324Y325448D01*
X563402Y325398D01*
X563486Y325349D01*
X563578Y325293D01*
X563782Y325152D01*
X563887Y325075D01*
X564000Y324990D01*
X564112Y324892D01*
X564232Y324793D01*
X564239Y324786D01*
X564260Y324765D01*
X564295Y324737D01*
X564344Y324688D01*
X564408Y324624D01*
X564485Y324547D01*
X564577Y324463D01*
X564682Y324357D01*
X564795Y324238D01*
X564921Y324097D01*
X565062Y323949D01*
X565217Y323780D01*
X565379Y323597D01*
X565555Y323400D01*
X565745Y323182D01*
X565942Y322950D01*
X565949Y322936D01*
X565984Y322901D01*
X566026Y322851D01*
X566089Y322781D01*
X566160Y322690D01*
X566244Y322598D01*
X566336Y322493D01*
X566434Y322380D01*
X566638Y322141D01*
X566744Y322028D01*
X566842Y321916D01*
X566941Y321810D01*
X567025Y321719D01*
X567103Y321634D01*
X567173Y321571D01*
X567187Y321557D01*
X567229Y321522D01*
X567293Y321465D01*
X567370Y321395D01*
X567468Y321318D01*
X567574Y321233D01*
X567694Y321149D01*
X567813Y321071D01*
Y325842D01*
X568960D01*
Y319411D01*
D02*
G37*
G36*
Y361562D02*
X559222D01*
Y362850D01*
X567813D01*
Y367641D01*
X568960D01*
Y361562D01*
D02*
G37*
G36*
X564837Y373200D02*
X568960D01*
Y371912D01*
X564837D01*
X559222Y368162D01*
Y369731D01*
X562163Y371645D01*
X562170Y371652D01*
X562199Y371666D01*
X562248Y371701D01*
X562304Y371736D01*
X562382Y371785D01*
X562466Y371842D01*
X562565Y371905D01*
X562677Y371975D01*
X562797Y372046D01*
X562923Y372123D01*
X563064Y372207D01*
X563205Y372292D01*
X563500Y372468D01*
X563803Y372637D01*
X563796Y372644D01*
X563768Y372658D01*
X563725Y372679D01*
X563669Y372714D01*
X563599Y372756D01*
X563514Y372813D01*
X563416Y372869D01*
X563303Y372939D01*
X563184Y373010D01*
X563057Y373094D01*
X562916Y373178D01*
X562761Y373270D01*
X562607Y373368D01*
X562438Y373474D01*
X562093Y373699D01*
X559222Y375585D01*
Y377083D01*
X564837Y373200D01*
D02*
G37*
G36*
X568447Y384810D02*
X567117D01*
X562016Y392451D01*
Y384810D01*
X560778D01*
Y394548D01*
X562101D01*
X567209Y386900D01*
Y394548D01*
X568447D01*
Y384810D01*
D02*
G37*
G36*
X568960Y358115D02*
X561319Y353014D01*
X568960D01*
Y351776D01*
X559222D01*
Y353098D01*
X566870Y358206D01*
X559222D01*
Y359445D01*
X568960D01*
Y358115D01*
D02*
G37*
G36*
X537165Y348344D02*
X539733Y344678D01*
X538276D01*
X536813Y346866D01*
X536475Y347401D01*
X534576Y344678D01*
X533133D01*
X535708Y348322D01*
X533323Y351735D01*
X534794D01*
X535898Y350075D01*
X535905Y350067D01*
X535912Y350053D01*
X535926Y350032D01*
X535947Y349997D01*
X535976Y349955D01*
X536004Y349906D01*
X536074Y349800D01*
X536152Y349673D01*
X536236Y349547D01*
X536320Y349413D01*
X536391Y349286D01*
X536398Y349294D01*
X536405Y349308D01*
X536419Y349329D01*
X536440Y349357D01*
X536496Y349441D01*
X536574Y349547D01*
X536658Y349659D01*
X536749Y349793D01*
X536841Y349927D01*
X536932Y350053D01*
X538121Y351735D01*
X539557D01*
X537165Y348344D01*
D02*
G37*
G36*
X546263Y394709D02*
X546369Y394702D01*
X546495Y394695D01*
X546636Y394674D01*
X546798Y394653D01*
X546981Y394625D01*
X547171Y394583D01*
X547368Y394534D01*
X547572Y394477D01*
X547776Y394400D01*
X547980Y394315D01*
X548191Y394217D01*
X548388Y394104D01*
X548578Y393971D01*
X548592Y393964D01*
X548620Y393935D01*
X548676Y393893D01*
X548740Y393830D01*
X548824Y393759D01*
X548916Y393661D01*
X549014Y393555D01*
X549127Y393429D01*
X549239Y393288D01*
X549359Y393133D01*
X549471Y392957D01*
X549584Y392775D01*
X549697Y392570D01*
X549795Y392352D01*
X549894Y392120D01*
X549971Y391874D01*
X548704Y391578D01*
X548698Y391592D01*
X548690Y391628D01*
X548669Y391677D01*
X548641Y391754D01*
X548606Y391839D01*
X548564Y391937D01*
X548507Y392050D01*
X548451Y392169D01*
X548388Y392296D01*
X548311Y392423D01*
X548233Y392549D01*
X548142Y392683D01*
X548043Y392803D01*
X547945Y392922D01*
X547832Y393028D01*
X547713Y393126D01*
X547705Y393133D01*
X547684Y393147D01*
X547649Y393168D01*
X547600Y393204D01*
X547537Y393239D01*
X547459Y393281D01*
X547368Y393323D01*
X547269Y393373D01*
X547157Y393415D01*
X547037Y393457D01*
X546903Y393499D01*
X546763Y393534D01*
X546608Y393570D01*
X546446Y393591D01*
X546277Y393605D01*
X546094Y393612D01*
X545989D01*
X545911Y393605D01*
X545813Y393598D01*
X545700Y393584D01*
X545574Y393570D01*
X545440Y393541D01*
X545292Y393513D01*
X545144Y393478D01*
X544990Y393436D01*
X544828Y393387D01*
X544673Y393323D01*
X544518Y393246D01*
X544363Y393168D01*
X544216Y393070D01*
X544209Y393063D01*
X544180Y393049D01*
X544145Y393014D01*
X544096Y392971D01*
X544033Y392915D01*
X543962Y392852D01*
X543885Y392775D01*
X543801Y392690D01*
X543716Y392592D01*
X543625Y392486D01*
X543540Y392366D01*
X543456Y392233D01*
X543371Y392099D01*
X543294Y391951D01*
X543224Y391796D01*
X543160Y391628D01*
Y391621D01*
X543146Y391586D01*
X543132Y391536D01*
X543111Y391473D01*
X543090Y391389D01*
X543062Y391290D01*
X543041Y391177D01*
X543013Y391051D01*
X542984Y390917D01*
X542956Y390769D01*
X542928Y390615D01*
X542907Y390453D01*
X542872Y390115D01*
X542865Y389939D01*
X542858Y389756D01*
Y389742D01*
Y389700D01*
Y389637D01*
X542865Y389545D01*
X542872Y389440D01*
X542879Y389313D01*
X542886Y389172D01*
X542900Y389024D01*
X542921Y388856D01*
X542942Y388680D01*
X543013Y388321D01*
X543048Y388131D01*
X543097Y387948D01*
X543153Y387765D01*
X543217Y387589D01*
X543224Y387582D01*
X543231Y387547D01*
X543252Y387505D01*
X543287Y387441D01*
X543322Y387364D01*
X543371Y387272D01*
X543428Y387174D01*
X543491Y387068D01*
X543568Y386963D01*
X543653Y386850D01*
X543744Y386731D01*
X543843Y386618D01*
X543955Y386506D01*
X544075Y386400D01*
X544202Y386302D01*
X544342Y386210D01*
X544349Y386203D01*
X544378Y386189D01*
X544420Y386168D01*
X544476Y386140D01*
X544546Y386105D01*
X544631Y386062D01*
X544729Y386027D01*
X544835Y385985D01*
X544954Y385936D01*
X545081Y385900D01*
X545222Y385858D01*
X545363Y385823D01*
X545517Y385795D01*
X545672Y385774D01*
X545834Y385760D01*
X545996Y385753D01*
X546045D01*
X546101Y385760D01*
X546179D01*
X546270Y385774D01*
X546376Y385788D01*
X546502Y385802D01*
X546629Y385830D01*
X546770Y385865D01*
X546917Y385908D01*
X547072Y385957D01*
X547227Y386013D01*
X547382Y386083D01*
X547537Y386168D01*
X547684Y386266D01*
X547832Y386372D01*
X547839Y386379D01*
X547867Y386400D01*
X547902Y386435D01*
X547952Y386492D01*
X548015Y386555D01*
X548085Y386632D01*
X548163Y386731D01*
X548240Y386836D01*
X548325Y386963D01*
X548409Y387097D01*
X548501Y387251D01*
X548578Y387420D01*
X548662Y387596D01*
X548733Y387793D01*
X548796Y387997D01*
X548852Y388222D01*
X550140Y387899D01*
Y387892D01*
X550133Y387878D01*
X550126Y387856D01*
X550119Y387828D01*
X550112Y387793D01*
X550098Y387744D01*
X550062Y387638D01*
X550013Y387505D01*
X549957Y387357D01*
X549887Y387188D01*
X549802Y387005D01*
X549711Y386808D01*
X549605Y386611D01*
X549486Y386414D01*
X549352Y386210D01*
X549204Y386013D01*
X549042Y385823D01*
X548866Y385647D01*
X548676Y385478D01*
X548662Y385471D01*
X548627Y385443D01*
X548571Y385401D01*
X548486Y385352D01*
X548388Y385288D01*
X548261Y385218D01*
X548120Y385141D01*
X547959Y385063D01*
X547783Y384986D01*
X547586Y384908D01*
X547375Y384838D01*
X547150Y384775D01*
X546903Y384726D01*
X546650Y384683D01*
X546383Y384655D01*
X546101Y384648D01*
X545996D01*
X545947Y384655D01*
X545841D01*
X545707Y384669D01*
X545552Y384683D01*
X545377Y384705D01*
X545194Y384726D01*
X544990Y384761D01*
X544786Y384803D01*
X544567Y384859D01*
X544356Y384916D01*
X544145Y384993D01*
X543934Y385077D01*
X543730Y385176D01*
X543540Y385288D01*
X543526Y385295D01*
X543498Y385317D01*
X543449Y385359D01*
X543378Y385408D01*
X543294Y385471D01*
X543203Y385556D01*
X543097Y385647D01*
X542984Y385760D01*
X542865Y385886D01*
X542745Y386020D01*
X542618Y386175D01*
X542492Y386337D01*
X542372Y386520D01*
X542253Y386710D01*
X542140Y386921D01*
X542042Y387139D01*
Y387146D01*
X542035Y387153D01*
X542020Y387195D01*
X541992Y387258D01*
X541964Y387350D01*
X541922Y387463D01*
X541880Y387596D01*
X541830Y387751D01*
X541788Y387920D01*
X541739Y388110D01*
X541690Y388314D01*
X541648Y388525D01*
X541605Y388757D01*
X541577Y388989D01*
X541549Y389235D01*
X541535Y389489D01*
X541528Y389749D01*
Y389756D01*
Y389770D01*
Y389791D01*
Y389819D01*
Y389855D01*
X541535Y389897D01*
Y390002D01*
X541549Y390136D01*
X541556Y390291D01*
X541577Y390467D01*
X541598Y390657D01*
X541633Y390854D01*
X541669Y391065D01*
X541718Y391290D01*
X541774Y391515D01*
X541838Y391740D01*
X541915Y391965D01*
X542006Y392183D01*
X542105Y392402D01*
X542112Y392416D01*
X542133Y392451D01*
X542168Y392507D01*
X542211Y392592D01*
X542274Y392683D01*
X542344Y392789D01*
X542436Y392915D01*
X542534Y393042D01*
X542640Y393176D01*
X542766Y393323D01*
X542900Y393464D01*
X543048Y393605D01*
X543210Y393745D01*
X543378Y393879D01*
X543561Y394006D01*
X543758Y394125D01*
X543772Y394132D01*
X543808Y394154D01*
X543864Y394182D01*
X543948Y394217D01*
X544047Y394266D01*
X544166Y394315D01*
X544307Y394365D01*
X544455Y394421D01*
X544624Y394477D01*
X544807Y394526D01*
X545004Y394583D01*
X545208Y394625D01*
X545426Y394660D01*
X545651Y394688D01*
X545883Y394709D01*
X546122Y394716D01*
X546221D01*
X546263Y394709D01*
D02*
G37*
G36*
X537673Y360790D02*
X540241Y357124D01*
X538784D01*
X537321Y359312D01*
X536983Y359847D01*
X535084Y357124D01*
X533641D01*
X536216Y360769D01*
X533831Y364181D01*
X535302D01*
X536406Y362520D01*
X536413Y362513D01*
X536420Y362499D01*
X536434Y362478D01*
X536455Y362443D01*
X536484Y362401D01*
X536512Y362352D01*
X536582Y362246D01*
X536660Y362119D01*
X536744Y361993D01*
X536828Y361859D01*
X536899Y361732D01*
X536906Y361740D01*
X536913Y361754D01*
X536927Y361775D01*
X536948Y361803D01*
X537004Y361887D01*
X537082Y361993D01*
X537166Y362105D01*
X537257Y362239D01*
X537349Y362373D01*
X537440Y362499D01*
X538629Y364181D01*
X540065D01*
X537673Y360790D01*
D02*
G37*
G36*
X547291Y365806D02*
X547284Y365792D01*
X547248Y365764D01*
X547199Y365701D01*
X547129Y365623D01*
X547044Y365525D01*
X546946Y365405D01*
X546833Y365264D01*
X546714Y365103D01*
X546580Y364927D01*
X546432Y364730D01*
X546277Y364512D01*
X546123Y364279D01*
X545954Y364026D01*
X545792Y363759D01*
X545616Y363477D01*
X545447Y363175D01*
Y363168D01*
X545440Y363154D01*
X545426Y363133D01*
X545405Y363104D01*
X545384Y363062D01*
X545363Y363013D01*
X545328Y362957D01*
X545299Y362893D01*
X545257Y362823D01*
X545222Y362739D01*
X545131Y362563D01*
X545032Y362366D01*
X544926Y362141D01*
X544814Y361894D01*
X544701Y361627D01*
X544582Y361353D01*
X544469Y361057D01*
X544350Y360755D01*
X544244Y360445D01*
X544138Y360121D01*
X544040Y359798D01*
X544033Y359784D01*
X544026Y359741D01*
X544005Y359678D01*
X543984Y359586D01*
X543956Y359467D01*
X543920Y359333D01*
X543885Y359179D01*
X543850Y359003D01*
X543808Y358813D01*
X543773Y358609D01*
X543731Y358383D01*
X543695Y358151D01*
X543660Y357912D01*
X543632Y357659D01*
X543604Y357391D01*
X543583Y357124D01*
X542351D01*
Y357138D01*
Y357173D01*
X542359Y357244D01*
Y357328D01*
X542365Y357441D01*
X542380Y357574D01*
X542394Y357729D01*
X542415Y357898D01*
X542436Y358095D01*
X542464Y358306D01*
X542499Y358531D01*
X542541Y358777D01*
X542598Y359038D01*
X542654Y359312D01*
X542717Y359601D01*
X542795Y359896D01*
Y359903D01*
X542802Y359917D01*
X542809Y359938D01*
X542816Y359967D01*
X542830Y360009D01*
X542844Y360058D01*
X542858Y360114D01*
X542879Y360177D01*
X542921Y360318D01*
X542978Y360494D01*
X543041Y360684D01*
X543111Y360902D01*
X543196Y361134D01*
X543287Y361381D01*
X543393Y361641D01*
X543498Y361908D01*
X543618Y362183D01*
X543752Y362464D01*
X543885Y362753D01*
X544033Y363034D01*
Y363041D01*
X544040Y363048D01*
X544054Y363069D01*
X544068Y363104D01*
X544089Y363140D01*
X544117Y363182D01*
X544174Y363287D01*
X544251Y363414D01*
X544336Y363569D01*
X544441Y363738D01*
X544554Y363921D01*
X544673Y364118D01*
X544807Y364322D01*
X544955Y364533D01*
X545102Y364751D01*
X545419Y365180D01*
X545588Y365391D01*
X545757Y365588D01*
X540987D01*
Y366735D01*
X547291D01*
Y365806D01*
D02*
G37*
G36*
X529849Y366890D02*
X529912D01*
X529997Y366883D01*
X530081Y366869D01*
X530179Y366855D01*
X530391Y366819D01*
X530623Y366763D01*
X530862Y366686D01*
X530975Y366636D01*
X531087Y366580D01*
X531094D01*
X531115Y366566D01*
X531143Y366545D01*
X531186Y366524D01*
X531235Y366489D01*
X531291Y366446D01*
X531362Y366404D01*
X531432Y366348D01*
X531587Y366221D01*
X531749Y366059D01*
X531910Y365877D01*
X532058Y365666D01*
X532065Y365658D01*
X532072Y365637D01*
X532093Y365602D01*
X532121Y365560D01*
X532157Y365504D01*
X532192Y365433D01*
X532234Y365356D01*
X532276Y365264D01*
X532325Y365166D01*
X532375Y365053D01*
X532424Y364934D01*
X532480Y364807D01*
X532529Y364673D01*
X532572Y364533D01*
X532621Y364378D01*
X532663Y364223D01*
Y364216D01*
X532670Y364181D01*
X532684Y364139D01*
X532698Y364068D01*
X532712Y363984D01*
X532733Y363878D01*
X532755Y363759D01*
X532776Y363618D01*
X532797Y363463D01*
X532818Y363287D01*
X532839Y363097D01*
X532853Y362893D01*
X532867Y362675D01*
X532881Y362436D01*
X532888Y362190D01*
Y361922D01*
Y361915D01*
Y361901D01*
Y361880D01*
Y361845D01*
Y361810D01*
Y361761D01*
X532881Y361704D01*
Y361641D01*
X532874Y361493D01*
X532867Y361324D01*
X532860Y361141D01*
X532846Y360937D01*
X532825Y360719D01*
X532804Y360494D01*
X532741Y360037D01*
X532698Y359805D01*
X532649Y359580D01*
X532593Y359361D01*
X532529Y359157D01*
X532522Y359143D01*
X532515Y359108D01*
X532494Y359059D01*
X532466Y358982D01*
X532424Y358897D01*
X532382Y358792D01*
X532325Y358679D01*
X532269Y358559D01*
X532199Y358433D01*
X532114Y358299D01*
X532030Y358165D01*
X531939Y358025D01*
X531833Y357891D01*
X531720Y357764D01*
X531601Y357645D01*
X531474Y357532D01*
X531467Y357525D01*
X531439Y357511D01*
X531404Y357483D01*
X531348Y357441D01*
X531277Y357398D01*
X531200Y357349D01*
X531101Y357300D01*
X530996Y357251D01*
X530869Y357194D01*
X530735Y357145D01*
X530595Y357096D01*
X530440Y357054D01*
X530271Y357019D01*
X530095Y356990D01*
X529912Y356969D01*
X529715Y356962D01*
X529652D01*
X529581Y356969D01*
X529483Y356976D01*
X529363Y356990D01*
X529223Y357019D01*
X529075Y357047D01*
X528906Y357089D01*
X528730Y357138D01*
X528554Y357208D01*
X528371Y357286D01*
X528181Y357384D01*
X527998Y357497D01*
X527822Y357631D01*
X527654Y357785D01*
X527499Y357961D01*
Y357968D01*
X527492Y357975D01*
X527478Y357996D01*
X527457Y358018D01*
X527435Y358053D01*
X527407Y358095D01*
X527379Y358137D01*
X527351Y358193D01*
X527316Y358257D01*
X527274Y358327D01*
X527239Y358405D01*
X527196Y358489D01*
X527154Y358587D01*
X527112Y358686D01*
X527063Y358798D01*
X527020Y358911D01*
X526978Y359038D01*
X526929Y359171D01*
X526887Y359312D01*
X526844Y359467D01*
X526802Y359622D01*
X526767Y359791D01*
X526725Y359959D01*
X526690Y360149D01*
X526662Y360339D01*
X526633Y360536D01*
X526605Y360747D01*
X526584Y360965D01*
X526563Y361191D01*
X526556Y361423D01*
X526542Y361669D01*
Y361922D01*
Y361930D01*
Y361944D01*
Y361965D01*
Y362000D01*
Y362042D01*
Y362091D01*
X526549Y362148D01*
Y362211D01*
X526556Y362352D01*
X526563Y362520D01*
X526570Y362710D01*
X526584Y362915D01*
X526605Y363133D01*
X526626Y363358D01*
X526690Y363822D01*
X526732Y364054D01*
X526781Y364279D01*
X526830Y364497D01*
X526894Y364702D01*
X526901Y364716D01*
X526908Y364751D01*
X526929Y364800D01*
X526957Y364878D01*
X526999Y364962D01*
X527042Y365067D01*
X527098Y365180D01*
X527161Y365300D01*
X527225Y365426D01*
X527309Y365560D01*
X527393Y365701D01*
X527485Y365834D01*
X527590Y365968D01*
X527703Y366095D01*
X527822Y366214D01*
X527949Y366327D01*
X527956Y366334D01*
X527984Y366355D01*
X528019Y366383D01*
X528076Y366418D01*
X528146Y366460D01*
X528231Y366510D01*
X528322Y366559D01*
X528435Y366615D01*
X528554Y366665D01*
X528688Y366714D01*
X528836Y366763D01*
X528991Y366805D01*
X529159Y366847D01*
X529335Y366876D01*
X529518Y366890D01*
X529715Y366897D01*
X529793D01*
X529849Y366890D01*
D02*
G37*
G36*
X546783Y353360D02*
X546776Y353346D01*
X546740Y353318D01*
X546691Y353255D01*
X546621Y353177D01*
X546536Y353079D01*
X546438Y352959D01*
X546325Y352818D01*
X546206Y352657D01*
X546072Y352481D01*
X545924Y352284D01*
X545769Y352066D01*
X545615Y351833D01*
X545446Y351580D01*
X545284Y351313D01*
X545108Y351031D01*
X544939Y350729D01*
Y350722D01*
X544932Y350708D01*
X544918Y350687D01*
X544897Y350658D01*
X544876Y350616D01*
X544855Y350567D01*
X544820Y350511D01*
X544791Y350447D01*
X544749Y350377D01*
X544714Y350293D01*
X544623Y350117D01*
X544524Y349920D01*
X544418Y349695D01*
X544306Y349448D01*
X544193Y349181D01*
X544074Y348907D01*
X543961Y348611D01*
X543842Y348308D01*
X543736Y347999D01*
X543630Y347675D01*
X543532Y347352D01*
X543525Y347337D01*
X543518Y347295D01*
X543497Y347232D01*
X543476Y347141D01*
X543448Y347021D01*
X543412Y346887D01*
X543377Y346732D01*
X543342Y346557D01*
X543300Y346367D01*
X543265Y346163D01*
X543223Y345937D01*
X543187Y345705D01*
X543152Y345466D01*
X543124Y345213D01*
X543096Y344945D01*
X543075Y344678D01*
X541843D01*
Y344692D01*
Y344727D01*
X541851Y344798D01*
Y344882D01*
X541857Y344995D01*
X541872Y345128D01*
X541886Y345283D01*
X541907Y345452D01*
X541928Y345649D01*
X541956Y345860D01*
X541991Y346085D01*
X542033Y346331D01*
X542090Y346592D01*
X542146Y346866D01*
X542209Y347155D01*
X542287Y347450D01*
Y347457D01*
X542294Y347471D01*
X542301Y347492D01*
X542308Y347520D01*
X542322Y347563D01*
X542336Y347612D01*
X542350Y347668D01*
X542371Y347732D01*
X542413Y347872D01*
X542470Y348048D01*
X542533Y348238D01*
X542603Y348456D01*
X542688Y348688D01*
X542779Y348935D01*
X542885Y349195D01*
X542990Y349462D01*
X543110Y349737D01*
X543244Y350018D01*
X543377Y350307D01*
X543525Y350588D01*
Y350595D01*
X543532Y350602D01*
X543546Y350623D01*
X543560Y350658D01*
X543581Y350694D01*
X543609Y350736D01*
X543666Y350841D01*
X543743Y350968D01*
X543828Y351123D01*
X543933Y351292D01*
X544046Y351475D01*
X544165Y351672D01*
X544299Y351876D01*
X544447Y352087D01*
X544594Y352305D01*
X544911Y352734D01*
X545080Y352945D01*
X545249Y353142D01*
X540479D01*
Y354289D01*
X546783D01*
Y353360D01*
D02*
G37*
G36*
X554346D02*
X554339Y353346D01*
X554304Y353318D01*
X554255Y353255D01*
X554184Y353177D01*
X554100Y353079D01*
X554001Y352959D01*
X553889Y352818D01*
X553769Y352657D01*
X553635Y352481D01*
X553488Y352284D01*
X553333Y352066D01*
X553178Y351833D01*
X553009Y351580D01*
X552847Y351313D01*
X552672Y351031D01*
X552503Y350729D01*
Y350722D01*
X552496Y350708D01*
X552482Y350687D01*
X552461Y350658D01*
X552439Y350616D01*
X552418Y350567D01*
X552383Y350511D01*
X552355Y350447D01*
X552313Y350377D01*
X552277Y350293D01*
X552186Y350117D01*
X552088Y349920D01*
X551982Y349695D01*
X551870Y349448D01*
X551757Y349181D01*
X551637Y348907D01*
X551525Y348611D01*
X551405Y348308D01*
X551300Y347999D01*
X551194Y347675D01*
X551096Y347352D01*
X551088Y347337D01*
X551081Y347295D01*
X551060Y347232D01*
X551039Y347141D01*
X551011Y347021D01*
X550976Y346887D01*
X550941Y346732D01*
X550906Y346557D01*
X550863Y346367D01*
X550828Y346163D01*
X550786Y345937D01*
X550751Y345705D01*
X550716Y345466D01*
X550687Y345213D01*
X550659Y344945D01*
X550638Y344678D01*
X549407D01*
Y344692D01*
Y344727D01*
X549414Y344798D01*
Y344882D01*
X549421Y344995D01*
X549435Y345128D01*
X549449Y345283D01*
X549470Y345452D01*
X549491Y345649D01*
X549520Y345860D01*
X549555Y346085D01*
X549597Y346331D01*
X549653Y346592D01*
X549710Y346866D01*
X549773Y347155D01*
X549850Y347450D01*
Y347457D01*
X549857Y347471D01*
X549864Y347492D01*
X549871Y347520D01*
X549885Y347563D01*
X549899Y347612D01*
X549913Y347668D01*
X549935Y347732D01*
X549977Y347872D01*
X550033Y348048D01*
X550096Y348238D01*
X550167Y348456D01*
X550251Y348688D01*
X550343Y348935D01*
X550448Y349195D01*
X550554Y349462D01*
X550673Y349737D01*
X550807Y350018D01*
X550941Y350307D01*
X551088Y350588D01*
Y350595D01*
X551096Y350602D01*
X551110Y350623D01*
X551124Y350658D01*
X551145Y350694D01*
X551173Y350736D01*
X551229Y350841D01*
X551307Y350968D01*
X551391Y351123D01*
X551497Y351292D01*
X551609Y351475D01*
X551729Y351672D01*
X551862Y351876D01*
X552010Y352087D01*
X552158Y352305D01*
X552475Y352734D01*
X552643Y352945D01*
X552812Y353142D01*
X548042D01*
Y354289D01*
X554346D01*
Y353360D01*
D02*
G37*
G36*
X552026Y366890D02*
X552103D01*
X552202Y366876D01*
X552314Y366861D01*
X552441Y366840D01*
X552581Y366819D01*
X552722Y366784D01*
X552877Y366742D01*
X553032Y366686D01*
X553187Y366622D01*
X553348Y366552D01*
X553503Y366460D01*
X553651Y366362D01*
X553792Y366249D01*
X553799Y366242D01*
X553827Y366221D01*
X553862Y366179D01*
X553911Y366130D01*
X553968Y366067D01*
X554031Y365982D01*
X554101Y365891D01*
X554179Y365785D01*
X554256Y365666D01*
X554333Y365532D01*
X554411Y365384D01*
X554474Y365222D01*
X554544Y365053D01*
X554601Y364870D01*
X554643Y364673D01*
X554678Y364469D01*
X553489Y364378D01*
Y364385D01*
X553482Y364406D01*
X553475Y364448D01*
X553461Y364491D01*
X553440Y364554D01*
X553426Y364617D01*
X553369Y364772D01*
X553306Y364934D01*
X553229Y365103D01*
X553137Y365264D01*
X553088Y365335D01*
X553032Y365398D01*
X553025Y365405D01*
X553011Y365419D01*
X552982Y365447D01*
X552947Y365476D01*
X552898Y365518D01*
X552842Y365560D01*
X552779Y365609D01*
X552701Y365658D01*
X552617Y365701D01*
X552525Y365750D01*
X552434Y365792D01*
X552328Y365834D01*
X552216Y365863D01*
X552096Y365891D01*
X551969Y365905D01*
X551843Y365912D01*
X551786D01*
X551744Y365905D01*
X551695D01*
X551639Y365898D01*
X551575Y365884D01*
X551498Y365869D01*
X551343Y365834D01*
X551174Y365778D01*
X551006Y365694D01*
X550921Y365644D01*
X550837Y365588D01*
X550830Y365581D01*
X550816Y365567D01*
X550780Y365546D01*
X550745Y365511D01*
X550696Y365468D01*
X550640Y365419D01*
X550583Y365356D01*
X550513Y365285D01*
X550443Y365208D01*
X550372Y365117D01*
X550295Y365018D01*
X550224Y364913D01*
X550147Y364793D01*
X550077Y364666D01*
X550006Y364533D01*
X549943Y364392D01*
Y364385D01*
X549929Y364357D01*
X549915Y364308D01*
X549894Y364244D01*
X549866Y364167D01*
X549837Y364068D01*
X549809Y363949D01*
X549781Y363815D01*
X549753Y363667D01*
X549718Y363498D01*
X549690Y363308D01*
X549669Y363111D01*
X549648Y362893D01*
X549627Y362661D01*
X549619Y362408D01*
X549612Y362141D01*
X549619Y362148D01*
X549633Y362169D01*
X549655Y362204D01*
X549690Y362246D01*
X549732Y362302D01*
X549781Y362366D01*
X549837Y362436D01*
X549908Y362513D01*
X549978Y362591D01*
X550056Y362668D01*
X550239Y362830D01*
X550436Y362985D01*
X550548Y363055D01*
X550661Y363119D01*
X550668Y363125D01*
X550689Y363133D01*
X550724Y363147D01*
X550766Y363168D01*
X550830Y363196D01*
X550893Y363224D01*
X550970Y363252D01*
X551062Y363280D01*
X551153Y363308D01*
X551259Y363337D01*
X551477Y363393D01*
X551723Y363428D01*
X551850Y363442D01*
X552033D01*
X552096Y363435D01*
X552173Y363428D01*
X552279Y363414D01*
X552399Y363393D01*
X552532Y363365D01*
X552680Y363330D01*
X552835Y363287D01*
X552997Y363224D01*
X553166Y363154D01*
X553341Y363069D01*
X553510Y362964D01*
X553679Y362851D01*
X553848Y362710D01*
X554010Y362556D01*
X554017Y362549D01*
X554045Y362513D01*
X554087Y362464D01*
X554143Y362394D01*
X554207Y362309D01*
X554277Y362204D01*
X554355Y362084D01*
X554432Y361944D01*
X554509Y361789D01*
X554587Y361613D01*
X554657Y361430D01*
X554720Y361226D01*
X554777Y361008D01*
X554819Y360783D01*
X554847Y360536D01*
X554854Y360283D01*
Y360276D01*
Y360241D01*
Y360192D01*
X554847Y360128D01*
X554840Y360044D01*
X554833Y359952D01*
X554819Y359847D01*
X554805Y359727D01*
X554784Y359601D01*
X554756Y359467D01*
X554727Y359326D01*
X554685Y359179D01*
X554636Y359031D01*
X554587Y358883D01*
X554523Y358728D01*
X554453Y358580D01*
X554446Y358573D01*
X554432Y358545D01*
X554411Y358503D01*
X554383Y358454D01*
X554340Y358383D01*
X554291Y358306D01*
X554235Y358229D01*
X554172Y358137D01*
X554094Y358039D01*
X554017Y357940D01*
X553925Y357842D01*
X553827Y357743D01*
X553728Y357645D01*
X553616Y357546D01*
X553496Y357462D01*
X553369Y357377D01*
X553363Y357370D01*
X553341Y357356D01*
X553299Y357342D01*
X553250Y357314D01*
X553180Y357279D01*
X553102Y357244D01*
X553018Y357208D01*
X552912Y357173D01*
X552807Y357131D01*
X552687Y357096D01*
X552553Y357061D01*
X552420Y357025D01*
X552272Y356997D01*
X552124Y356983D01*
X551962Y356969D01*
X551800Y356962D01*
X551737D01*
X551702Y356969D01*
X551660D01*
X551554Y356976D01*
X551428Y356997D01*
X551280Y357019D01*
X551118Y357054D01*
X550935Y357103D01*
X550745Y357159D01*
X550548Y357229D01*
X550351Y357321D01*
X550147Y357426D01*
X549943Y357553D01*
X549739Y357701D01*
X549549Y357870D01*
X549366Y358060D01*
X549359Y358074D01*
X549324Y358109D01*
X549282Y358179D01*
X549218Y358271D01*
X549148Y358390D01*
X549106Y358461D01*
X549071Y358538D01*
X549028Y358623D01*
X548986Y358714D01*
X548937Y358820D01*
X548895Y358925D01*
X548853Y359038D01*
X548810Y359157D01*
X548761Y359291D01*
X548719Y359425D01*
X548684Y359572D01*
X548641Y359720D01*
X548606Y359882D01*
X548571Y360051D01*
X548536Y360227D01*
X548508Y360410D01*
X548487Y360600D01*
X548466Y360797D01*
X548444Y361008D01*
X548437Y361219D01*
X548423Y361444D01*
Y361676D01*
Y361683D01*
Y361711D01*
Y361746D01*
Y361803D01*
X548430Y361866D01*
Y361944D01*
X548437Y362035D01*
Y362141D01*
X548444Y362246D01*
X548459Y362373D01*
X548466Y362499D01*
X548480Y362640D01*
X548508Y362929D01*
X548557Y363245D01*
X548606Y363576D01*
X548677Y363921D01*
X548761Y364258D01*
X548860Y364596D01*
X548979Y364927D01*
X549120Y365236D01*
X549197Y365384D01*
X549282Y365518D01*
X549373Y365651D01*
X549465Y365778D01*
X549479Y365792D01*
X549507Y365827D01*
X549556Y365884D01*
X549633Y365954D01*
X549725Y366038D01*
X549831Y366130D01*
X549964Y366235D01*
X550112Y366341D01*
X550281Y366439D01*
X550464Y366545D01*
X550661Y366636D01*
X550879Y366721D01*
X551118Y366791D01*
X551364Y366847D01*
X551632Y366883D01*
X551913Y366897D01*
X551962D01*
X552026Y366890D01*
D02*
G37*
G36*
X529341Y354444D02*
X529404D01*
X529489Y354437D01*
X529573Y354423D01*
X529672Y354408D01*
X529883Y354373D01*
X530115Y354317D01*
X530354Y354240D01*
X530467Y354190D01*
X530579Y354134D01*
X530586D01*
X530607Y354120D01*
X530635Y354099D01*
X530678Y354078D01*
X530727Y354043D01*
X530783Y354000D01*
X530854Y353958D01*
X530924Y353902D01*
X531079Y353775D01*
X531241Y353614D01*
X531402Y353430D01*
X531550Y353219D01*
X531557Y353212D01*
X531564Y353191D01*
X531585Y353156D01*
X531613Y353114D01*
X531649Y353058D01*
X531684Y352987D01*
X531726Y352910D01*
X531768Y352818D01*
X531817Y352720D01*
X531867Y352607D01*
X531916Y352488D01*
X531972Y352361D01*
X532021Y352227D01*
X532064Y352087D01*
X532113Y351932D01*
X532155Y351777D01*
Y351770D01*
X532162Y351735D01*
X532176Y351693D01*
X532190Y351622D01*
X532204Y351538D01*
X532225Y351432D01*
X532247Y351313D01*
X532268Y351172D01*
X532289Y351017D01*
X532310Y350841D01*
X532331Y350651D01*
X532345Y350447D01*
X532359Y350229D01*
X532373Y349990D01*
X532380Y349744D01*
Y349476D01*
Y349469D01*
Y349455D01*
Y349434D01*
Y349399D01*
Y349364D01*
Y349315D01*
X532373Y349258D01*
Y349195D01*
X532366Y349047D01*
X532359Y348878D01*
X532352Y348695D01*
X532338Y348491D01*
X532317Y348273D01*
X532296Y348048D01*
X532233Y347591D01*
X532190Y347359D01*
X532141Y347133D01*
X532085Y346915D01*
X532021Y346711D01*
X532014Y346697D01*
X532007Y346662D01*
X531986Y346613D01*
X531958Y346535D01*
X531916Y346451D01*
X531874Y346345D01*
X531817Y346233D01*
X531761Y346113D01*
X531691Y345987D01*
X531606Y345853D01*
X531522Y345719D01*
X531431Y345579D01*
X531325Y345445D01*
X531212Y345318D01*
X531093Y345199D01*
X530966Y345086D01*
X530959Y345079D01*
X530931Y345065D01*
X530896Y345037D01*
X530840Y344995D01*
X530769Y344952D01*
X530692Y344903D01*
X530593Y344854D01*
X530488Y344805D01*
X530361Y344748D01*
X530227Y344699D01*
X530087Y344650D01*
X529932Y344608D01*
X529763Y344572D01*
X529587Y344544D01*
X529404Y344523D01*
X529207Y344516D01*
X529144D01*
X529073Y344523D01*
X528975Y344530D01*
X528855Y344544D01*
X528715Y344572D01*
X528567Y344601D01*
X528398Y344643D01*
X528222Y344692D01*
X528046Y344762D01*
X527863Y344840D01*
X527673Y344938D01*
X527490Y345051D01*
X527314Y345185D01*
X527146Y345339D01*
X526991Y345515D01*
Y345522D01*
X526984Y345529D01*
X526970Y345550D01*
X526949Y345572D01*
X526927Y345607D01*
X526899Y345649D01*
X526871Y345691D01*
X526843Y345747D01*
X526808Y345811D01*
X526766Y345881D01*
X526730Y345959D01*
X526688Y346043D01*
X526646Y346141D01*
X526604Y346240D01*
X526555Y346353D01*
X526512Y346465D01*
X526470Y346592D01*
X526421Y346725D01*
X526379Y346866D01*
X526337Y347021D01*
X526294Y347176D01*
X526259Y347345D01*
X526217Y347513D01*
X526182Y347703D01*
X526154Y347893D01*
X526125Y348090D01*
X526097Y348301D01*
X526076Y348520D01*
X526055Y348745D01*
X526048Y348977D01*
X526034Y349223D01*
Y349476D01*
Y349483D01*
Y349497D01*
Y349519D01*
Y349554D01*
Y349596D01*
Y349645D01*
X526041Y349702D01*
Y349765D01*
X526048Y349906D01*
X526055Y350075D01*
X526062Y350264D01*
X526076Y350468D01*
X526097Y350687D01*
X526118Y350912D01*
X526182Y351376D01*
X526224Y351608D01*
X526273Y351833D01*
X526323Y352052D01*
X526386Y352256D01*
X526393Y352270D01*
X526400Y352305D01*
X526421Y352354D01*
X526449Y352431D01*
X526491Y352516D01*
X526534Y352621D01*
X526590Y352734D01*
X526653Y352854D01*
X526716Y352980D01*
X526801Y353114D01*
X526885Y353255D01*
X526977Y353388D01*
X527082Y353522D01*
X527195Y353649D01*
X527314Y353768D01*
X527441Y353881D01*
X527448Y353888D01*
X527476Y353909D01*
X527511Y353937D01*
X527568Y353972D01*
X527638Y354015D01*
X527723Y354064D01*
X527814Y354113D01*
X527927Y354169D01*
X528046Y354218D01*
X528180Y354268D01*
X528328Y354317D01*
X528483Y354359D01*
X528651Y354402D01*
X528827Y354430D01*
X529010Y354444D01*
X529207Y354451D01*
X529285D01*
X529341Y354444D01*
D02*
G37*
G36*
X530274Y423765D02*
X530372Y423758D01*
X530499Y423744D01*
X530633Y423722D01*
X530787Y423694D01*
X530956Y423652D01*
X531139Y423603D01*
X531322Y423540D01*
X531519Y423462D01*
X531709Y423364D01*
X531906Y423258D01*
X532089Y423124D01*
X532272Y422977D01*
X532448Y422808D01*
X532455Y422794D01*
X532490Y422766D01*
X532532Y422709D01*
X532589Y422632D01*
X532659Y422533D01*
X532736Y422414D01*
X532814Y422273D01*
X532898Y422111D01*
X532983Y421928D01*
X533067Y421724D01*
X533137Y421499D01*
X533208Y421260D01*
X533264Y421000D01*
X533313Y420718D01*
X533341Y420416D01*
X533348Y420099D01*
Y420092D01*
Y420078D01*
Y420057D01*
Y420022D01*
Y419972D01*
Y419923D01*
X533341Y419860D01*
Y419782D01*
X528079D01*
Y419768D01*
X528086Y419733D01*
Y419670D01*
X528100Y419592D01*
X528114Y419494D01*
X528128Y419381D01*
X528156Y419262D01*
X528184Y419128D01*
X528219Y418980D01*
X528269Y418840D01*
X528318Y418692D01*
X528381Y418544D01*
X528451Y418396D01*
X528536Y418256D01*
X528627Y418122D01*
X528733Y418002D01*
X528740Y417995D01*
X528761Y417974D01*
X528796Y417946D01*
X528839Y417904D01*
X528895Y417862D01*
X528965Y417812D01*
X529050Y417756D01*
X529141Y417700D01*
X529240Y417636D01*
X529352Y417587D01*
X529472Y417531D01*
X529605Y417489D01*
X529746Y417447D01*
X529894Y417418D01*
X530049Y417397D01*
X530210Y417390D01*
X530274D01*
X530323Y417397D01*
X530379Y417404D01*
X530443Y417411D01*
X530520Y417418D01*
X530597Y417432D01*
X530773Y417475D01*
X530963Y417538D01*
X531062Y417573D01*
X531153Y417622D01*
X531245Y417672D01*
X531336Y417735D01*
X531343Y417742D01*
X531357Y417749D01*
X531378Y417770D01*
X531414Y417798D01*
X531456Y417840D01*
X531498Y417883D01*
X531547Y417939D01*
X531604Y418002D01*
X531660Y418080D01*
X531723Y418157D01*
X531780Y418249D01*
X531843Y418347D01*
X531906Y418460D01*
X531962Y418579D01*
X532019Y418706D01*
X532075Y418847D01*
X533306Y418685D01*
Y418671D01*
X533292Y418636D01*
X533271Y418579D01*
X533250Y418509D01*
X533215Y418418D01*
X533172Y418312D01*
X533123Y418192D01*
X533060Y418066D01*
X532990Y417939D01*
X532912Y417798D01*
X532821Y417658D01*
X532722Y417517D01*
X532617Y417383D01*
X532497Y417249D01*
X532363Y417123D01*
X532223Y417003D01*
X532216Y416996D01*
X532188Y416975D01*
X532145Y416947D01*
X532082Y416912D01*
X532005Y416862D01*
X531906Y416813D01*
X531801Y416757D01*
X531674Y416708D01*
X531533Y416651D01*
X531385Y416595D01*
X531217Y416546D01*
X531041Y416497D01*
X530851Y416461D01*
X530647Y416433D01*
X530429Y416412D01*
X530203Y416405D01*
X530133D01*
X530098Y416412D01*
X530056D01*
X529950Y416419D01*
X529817Y416433D01*
X529669Y416455D01*
X529500Y416483D01*
X529317Y416525D01*
X529127Y416574D01*
X528923Y416637D01*
X528719Y416715D01*
X528515Y416806D01*
X528311Y416912D01*
X528114Y417038D01*
X527924Y417186D01*
X527748Y417355D01*
X527741Y417369D01*
X527713Y417397D01*
X527663Y417453D01*
X527607Y417531D01*
X527537Y417629D01*
X527467Y417749D01*
X527382Y417883D01*
X527298Y418045D01*
X527213Y418228D01*
X527136Y418424D01*
X527058Y418643D01*
X526988Y418882D01*
X526932Y419142D01*
X526890Y419417D01*
X526854Y419712D01*
X526847Y420029D01*
Y420036D01*
Y420050D01*
Y420071D01*
Y420106D01*
X526854Y420148D01*
Y420197D01*
Y420254D01*
X526861Y420324D01*
X526875Y420472D01*
X526897Y420641D01*
X526925Y420831D01*
X526960Y421042D01*
X527009Y421253D01*
X527072Y421478D01*
X527143Y421710D01*
X527234Y421942D01*
X527340Y422168D01*
X527459Y422386D01*
X527600Y422597D01*
X527762Y422787D01*
X527776Y422801D01*
X527804Y422829D01*
X527854Y422878D01*
X527931Y422942D01*
X528022Y423019D01*
X528128Y423096D01*
X528255Y423188D01*
X528402Y423279D01*
X528564Y423371D01*
X528747Y423462D01*
X528937Y423546D01*
X529148Y423617D01*
X529380Y423680D01*
X529619Y423730D01*
X529873Y423758D01*
X530140Y423772D01*
X530203D01*
X530274Y423765D01*
D02*
G37*
G36*
X501800D02*
X501884Y423758D01*
X501983Y423751D01*
X502088Y423744D01*
X502194Y423730D01*
X502313Y423715D01*
X502560Y423673D01*
X502813Y423610D01*
X503052Y423532D01*
X503059D01*
X503080Y423518D01*
X503116Y423511D01*
X503158Y423490D01*
X503207Y423462D01*
X503263Y423434D01*
X503404Y423364D01*
X503552Y423272D01*
X503707Y423160D01*
X503847Y423033D01*
X503918Y422963D01*
X503974Y422885D01*
X503981Y422878D01*
X503988Y422864D01*
X504002Y422843D01*
X504023Y422808D01*
X504051Y422773D01*
X504080Y422723D01*
X504108Y422660D01*
X504143Y422597D01*
X504178Y422519D01*
X504213Y422442D01*
X504248Y422351D01*
X504277Y422252D01*
X504312Y422146D01*
X504347Y422041D01*
X504396Y421795D01*
X503228Y421633D01*
Y421640D01*
X503221Y421654D01*
Y421682D01*
X503207Y421724D01*
X503200Y421767D01*
X503179Y421823D01*
X503137Y421942D01*
X503073Y422076D01*
X502996Y422217D01*
X502891Y422357D01*
X502827Y422421D01*
X502757Y422477D01*
X502750Y422484D01*
X502743Y422491D01*
X502715Y422505D01*
X502686Y422526D01*
X502644Y422547D01*
X502602Y422576D01*
X502546Y422604D01*
X502482Y422632D01*
X502405Y422660D01*
X502328Y422688D01*
X502236Y422716D01*
X502145Y422737D01*
X502039Y422758D01*
X501927Y422773D01*
X501807Y422787D01*
X501603D01*
X501547Y422780D01*
X501476D01*
X501399Y422773D01*
X501314Y422766D01*
X501223Y422752D01*
X501026Y422723D01*
X500829Y422674D01*
X500737Y422639D01*
X500653Y422604D01*
X500569Y422561D01*
X500498Y422512D01*
X500491D01*
X500484Y422498D01*
X500442Y422463D01*
X500386Y422407D01*
X500322Y422329D01*
X500259Y422238D01*
X500203Y422132D01*
X500161Y422013D01*
X500154Y421942D01*
X500146Y421879D01*
Y421872D01*
Y421837D01*
X500154Y421795D01*
X500168Y421738D01*
X500182Y421675D01*
X500203Y421605D01*
X500238Y421527D01*
X500287Y421457D01*
X500294Y421450D01*
X500315Y421429D01*
X500350Y421394D01*
X500400Y421344D01*
X500463Y421295D01*
X500547Y421246D01*
X500639Y421190D01*
X500752Y421140D01*
X500759D01*
X500773Y421133D01*
X500794Y421126D01*
X500822Y421119D01*
X500857Y421105D01*
X500899Y421098D01*
X500949Y421077D01*
X501012Y421063D01*
X501089Y421042D01*
X501174Y421014D01*
X501272Y420985D01*
X501385Y420957D01*
X501511Y420922D01*
X501659Y420880D01*
X501814Y420838D01*
X501821D01*
X501828Y420831D01*
X501870Y420824D01*
X501934Y420803D01*
X502018Y420782D01*
X502124Y420753D01*
X502243Y420718D01*
X502377Y420683D01*
X502510Y420641D01*
X502806Y420556D01*
X503102Y420458D01*
X503235Y420416D01*
X503369Y420366D01*
X503481Y420324D01*
X503587Y420282D01*
X503594D01*
X503608Y420275D01*
X503636Y420261D01*
X503671Y420240D01*
X503714Y420219D01*
X503763Y420191D01*
X503876Y420120D01*
X504002Y420029D01*
X504129Y419923D01*
X504255Y419796D01*
X504375Y419649D01*
Y419642D01*
X504389Y419628D01*
X504403Y419607D01*
X504417Y419578D01*
X504445Y419536D01*
X504467Y419487D01*
X504495Y419431D01*
X504523Y419367D01*
X504544Y419297D01*
X504572Y419220D01*
X504621Y419051D01*
X504649Y418854D01*
X504664Y418636D01*
Y418629D01*
Y418607D01*
Y418579D01*
X504656Y418537D01*
Y418481D01*
X504642Y418418D01*
X504635Y418347D01*
X504621Y418270D01*
X504579Y418101D01*
X504516Y417911D01*
X504473Y417812D01*
X504431Y417707D01*
X504375Y417608D01*
X504312Y417510D01*
X504305Y417503D01*
X504298Y417489D01*
X504277Y417461D01*
X504248Y417425D01*
X504213Y417376D01*
X504164Y417327D01*
X504115Y417271D01*
X504051Y417207D01*
X503988Y417144D01*
X503911Y417081D01*
X503826Y417010D01*
X503735Y416940D01*
X503636Y416877D01*
X503531Y416813D01*
X503418Y416750D01*
X503298Y416694D01*
X503292D01*
X503270Y416680D01*
X503235Y416665D01*
X503186Y416651D01*
X503123Y416630D01*
X503045Y416602D01*
X502961Y416574D01*
X502869Y416553D01*
X502764Y416525D01*
X502651Y416497D01*
X502525Y416476D01*
X502398Y416447D01*
X502117Y416419D01*
X501814Y416405D01*
X501751D01*
X501680Y416412D01*
X501589D01*
X501469Y416426D01*
X501343Y416433D01*
X501195Y416455D01*
X501033Y416476D01*
X500864Y416504D01*
X500695Y416546D01*
X500519Y416588D01*
X500344Y416644D01*
X500175Y416708D01*
X500006Y416785D01*
X499851Y416877D01*
X499710Y416975D01*
X499703Y416982D01*
X499682Y417003D01*
X499640Y417038D01*
X499598Y417081D01*
X499541Y417144D01*
X499471Y417214D01*
X499401Y417299D01*
X499330Y417404D01*
X499253Y417517D01*
X499169Y417636D01*
X499098Y417777D01*
X499021Y417932D01*
X498950Y418094D01*
X498894Y418277D01*
X498838Y418467D01*
X498796Y418671D01*
X499978Y418854D01*
Y418847D01*
X499985Y418825D01*
X499992Y418783D01*
X499999Y418734D01*
X500013Y418678D01*
X500034Y418607D01*
X500055Y418530D01*
X500083Y418453D01*
X500154Y418277D01*
X500252Y418094D01*
X500308Y418002D01*
X500372Y417918D01*
X500449Y417840D01*
X500526Y417763D01*
X500533Y417756D01*
X500547Y417749D01*
X500576Y417728D01*
X500611Y417707D01*
X500660Y417679D01*
X500716Y417644D01*
X500780Y417608D01*
X500857Y417580D01*
X500942Y417545D01*
X501040Y417510D01*
X501146Y417475D01*
X501258Y417447D01*
X501385Y417425D01*
X501519Y417404D01*
X501659Y417397D01*
X501807Y417390D01*
X501884D01*
X501941Y417397D01*
X502011D01*
X502088Y417411D01*
X502173Y417418D01*
X502271Y417432D01*
X502468Y417475D01*
X502672Y417531D01*
X502862Y417615D01*
X502954Y417665D01*
X503031Y417721D01*
X503038Y417728D01*
X503045Y417735D01*
X503066Y417756D01*
X503094Y417784D01*
X503158Y417855D01*
X503235Y417946D01*
X503306Y418059D01*
X503369Y418199D01*
X503397Y418270D01*
X503418Y418347D01*
X503425Y418424D01*
X503432Y418509D01*
Y418516D01*
Y418530D01*
Y418551D01*
X503425Y418572D01*
X503411Y418650D01*
X503390Y418741D01*
X503348Y418840D01*
X503284Y418945D01*
X503242Y418994D01*
X503193Y419051D01*
X503137Y419100D01*
X503073Y419142D01*
X503059Y419149D01*
X503045Y419156D01*
X503024Y419170D01*
X502989Y419184D01*
X502947Y419206D01*
X502891Y419227D01*
X502834Y419255D01*
X502757Y419283D01*
X502672Y419311D01*
X502567Y419346D01*
X502454Y419381D01*
X502328Y419417D01*
X502187Y419459D01*
X502025Y419501D01*
X501849Y419543D01*
X501842D01*
X501835Y419550D01*
X501793Y419557D01*
X501722Y419578D01*
X501638Y419599D01*
X501525Y419628D01*
X501406Y419663D01*
X501272Y419698D01*
X501124Y419740D01*
X500822Y419832D01*
X500519Y419930D01*
X500379Y419979D01*
X500245Y420029D01*
X500125Y420078D01*
X500020Y420120D01*
X500013D01*
X499999Y420134D01*
X499971Y420148D01*
X499935Y420162D01*
X499893Y420191D01*
X499844Y420219D01*
X499731Y420296D01*
X499612Y420387D01*
X499485Y420500D01*
X499358Y420634D01*
X499253Y420788D01*
Y420796D01*
X499239Y420810D01*
X499232Y420831D01*
X499211Y420866D01*
X499190Y420901D01*
X499169Y420950D01*
X499147Y421007D01*
X499126Y421070D01*
X499077Y421211D01*
X499035Y421372D01*
X499007Y421548D01*
X498993Y421738D01*
Y421745D01*
Y421759D01*
Y421788D01*
X499000Y421816D01*
Y421858D01*
X499007Y421907D01*
X499021Y422027D01*
X499042Y422160D01*
X499084Y422308D01*
X499133Y422456D01*
X499204Y422611D01*
Y422618D01*
X499211Y422632D01*
X499225Y422653D01*
X499246Y422681D01*
X499295Y422752D01*
X499358Y422843D01*
X499443Y422948D01*
X499548Y423061D01*
X499661Y423174D01*
X499795Y423279D01*
X499809Y423286D01*
X499844Y423314D01*
X499907Y423349D01*
X499999Y423399D01*
X500104Y423455D01*
X500231Y423511D01*
X500386Y423568D01*
X500555Y423624D01*
X500562D01*
X500576Y423631D01*
X500604Y423638D01*
X500639Y423645D01*
X500681Y423659D01*
X500737Y423673D01*
X500801Y423687D01*
X500864Y423701D01*
X501019Y423722D01*
X501195Y423751D01*
X501385Y423765D01*
X501589Y423772D01*
X501730D01*
X501800Y423765D01*
D02*
G37*
G36*
X512382D02*
X512466Y423758D01*
X512565Y423751D01*
X512670Y423744D01*
X512776Y423730D01*
X512895Y423715D01*
X513142Y423673D01*
X513395Y423610D01*
X513634Y423532D01*
X513641D01*
X513662Y423518D01*
X513697Y423511D01*
X513740Y423490D01*
X513789Y423462D01*
X513845Y423434D01*
X513986Y423364D01*
X514134Y423272D01*
X514288Y423160D01*
X514429Y423033D01*
X514500Y422963D01*
X514556Y422885D01*
X514563Y422878D01*
X514570Y422864D01*
X514584Y422843D01*
X514605Y422808D01*
X514633Y422773D01*
X514661Y422723D01*
X514689Y422660D01*
X514725Y422597D01*
X514760Y422519D01*
X514795Y422442D01*
X514830Y422351D01*
X514858Y422252D01*
X514893Y422146D01*
X514929Y422041D01*
X514978Y421795D01*
X513810Y421633D01*
Y421640D01*
X513803Y421654D01*
Y421682D01*
X513789Y421724D01*
X513782Y421767D01*
X513761Y421823D01*
X513719Y421942D01*
X513655Y422076D01*
X513578Y422217D01*
X513472Y422357D01*
X513409Y422421D01*
X513339Y422477D01*
X513332Y422484D01*
X513325Y422491D01*
X513296Y422505D01*
X513268Y422526D01*
X513226Y422547D01*
X513184Y422576D01*
X513128Y422604D01*
X513064Y422632D01*
X512987Y422660D01*
X512909Y422688D01*
X512818Y422716D01*
X512727Y422737D01*
X512621Y422758D01*
X512508Y422773D01*
X512389Y422787D01*
X512185D01*
X512128Y422780D01*
X512058D01*
X511981Y422773D01*
X511896Y422766D01*
X511805Y422752D01*
X511608Y422723D01*
X511411Y422674D01*
X511319Y422639D01*
X511235Y422604D01*
X511151Y422561D01*
X511080Y422512D01*
X511073D01*
X511066Y422498D01*
X511024Y422463D01*
X510968Y422407D01*
X510904Y422329D01*
X510841Y422238D01*
X510785Y422132D01*
X510742Y422013D01*
X510735Y421942D01*
X510728Y421879D01*
Y421872D01*
Y421837D01*
X510735Y421795D01*
X510749Y421738D01*
X510764Y421675D01*
X510785Y421605D01*
X510820Y421527D01*
X510869Y421457D01*
X510876Y421450D01*
X510897Y421429D01*
X510932Y421394D01*
X510982Y421344D01*
X511045Y421295D01*
X511129Y421246D01*
X511221Y421190D01*
X511333Y421140D01*
X511340D01*
X511354Y421133D01*
X511376Y421126D01*
X511404Y421119D01*
X511439Y421105D01*
X511481Y421098D01*
X511530Y421077D01*
X511594Y421063D01*
X511671Y421042D01*
X511756Y421014D01*
X511854Y420985D01*
X511967Y420957D01*
X512093Y420922D01*
X512241Y420880D01*
X512396Y420838D01*
X512403D01*
X512410Y420831D01*
X512452Y420824D01*
X512515Y420803D01*
X512600Y420782D01*
X512705Y420753D01*
X512825Y420718D01*
X512959Y420683D01*
X513092Y420641D01*
X513388Y420556D01*
X513683Y420458D01*
X513817Y420416D01*
X513951Y420366D01*
X514063Y420324D01*
X514169Y420282D01*
X514176D01*
X514190Y420275D01*
X514218Y420261D01*
X514253Y420240D01*
X514296Y420219D01*
X514345Y420191D01*
X514457Y420120D01*
X514584Y420029D01*
X514711Y419923D01*
X514837Y419796D01*
X514957Y419649D01*
Y419642D01*
X514971Y419628D01*
X514985Y419607D01*
X514999Y419578D01*
X515027Y419536D01*
X515048Y419487D01*
X515076Y419431D01*
X515105Y419367D01*
X515126Y419297D01*
X515154Y419220D01*
X515203Y419051D01*
X515231Y418854D01*
X515245Y418636D01*
Y418629D01*
Y418607D01*
Y418579D01*
X515238Y418537D01*
Y418481D01*
X515224Y418418D01*
X515217Y418347D01*
X515203Y418270D01*
X515161Y418101D01*
X515098Y417911D01*
X515055Y417812D01*
X515013Y417707D01*
X514957Y417608D01*
X514893Y417510D01*
X514887Y417503D01*
X514879Y417489D01*
X514858Y417461D01*
X514830Y417425D01*
X514795Y417376D01*
X514746Y417327D01*
X514697Y417271D01*
X514633Y417207D01*
X514570Y417144D01*
X514492Y417081D01*
X514408Y417010D01*
X514317Y416940D01*
X514218Y416877D01*
X514113Y416813D01*
X514000Y416750D01*
X513880Y416694D01*
X513873D01*
X513852Y416680D01*
X513817Y416665D01*
X513768Y416651D01*
X513704Y416630D01*
X513627Y416602D01*
X513543Y416574D01*
X513451Y416553D01*
X513346Y416525D01*
X513233Y416497D01*
X513106Y416476D01*
X512980Y416447D01*
X512698Y416419D01*
X512396Y416405D01*
X512332D01*
X512262Y416412D01*
X512171D01*
X512051Y416426D01*
X511924Y416433D01*
X511777Y416455D01*
X511615Y416476D01*
X511446Y416504D01*
X511277Y416546D01*
X511101Y416588D01*
X510925Y416644D01*
X510756Y416708D01*
X510588Y416785D01*
X510433Y416877D01*
X510292Y416975D01*
X510285Y416982D01*
X510264Y417003D01*
X510222Y417038D01*
X510179Y417081D01*
X510123Y417144D01*
X510053Y417214D01*
X509982Y417299D01*
X509912Y417404D01*
X509835Y417517D01*
X509750Y417636D01*
X509680Y417777D01*
X509603Y417932D01*
X509532Y418094D01*
X509476Y418277D01*
X509420Y418467D01*
X509378Y418671D01*
X510560Y418854D01*
Y418847D01*
X510566Y418825D01*
X510574Y418783D01*
X510581Y418734D01*
X510595Y418678D01*
X510616Y418607D01*
X510637Y418530D01*
X510665Y418453D01*
X510735Y418277D01*
X510834Y418094D01*
X510890Y418002D01*
X510953Y417918D01*
X511031Y417840D01*
X511108Y417763D01*
X511115Y417756D01*
X511129Y417749D01*
X511157Y417728D01*
X511193Y417707D01*
X511242Y417679D01*
X511298Y417644D01*
X511362Y417608D01*
X511439Y417580D01*
X511523Y417545D01*
X511622Y417510D01*
X511727Y417475D01*
X511840Y417447D01*
X511967Y417425D01*
X512100Y417404D01*
X512241Y417397D01*
X512389Y417390D01*
X512466D01*
X512523Y417397D01*
X512593D01*
X512670Y417411D01*
X512755Y417418D01*
X512853Y417432D01*
X513050Y417475D01*
X513254Y417531D01*
X513444Y417615D01*
X513536Y417665D01*
X513613Y417721D01*
X513620Y417728D01*
X513627Y417735D01*
X513648Y417756D01*
X513676Y417784D01*
X513740Y417855D01*
X513817Y417946D01*
X513887Y418059D01*
X513951Y418199D01*
X513979Y418270D01*
X514000Y418347D01*
X514007Y418424D01*
X514014Y418509D01*
Y418516D01*
Y418530D01*
Y418551D01*
X514007Y418572D01*
X513993Y418650D01*
X513972Y418741D01*
X513930Y418840D01*
X513866Y418945D01*
X513824Y418994D01*
X513775Y419051D01*
X513719Y419100D01*
X513655Y419142D01*
X513641Y419149D01*
X513627Y419156D01*
X513606Y419170D01*
X513571Y419184D01*
X513529Y419206D01*
X513472Y419227D01*
X513416Y419255D01*
X513339Y419283D01*
X513254Y419311D01*
X513149Y419346D01*
X513036Y419381D01*
X512909Y419417D01*
X512769Y419459D01*
X512607Y419501D01*
X512431Y419543D01*
X512424D01*
X512417Y419550D01*
X512375Y419557D01*
X512304Y419578D01*
X512220Y419599D01*
X512107Y419628D01*
X511988Y419663D01*
X511854Y419698D01*
X511706Y419740D01*
X511404Y419832D01*
X511101Y419930D01*
X510961Y419979D01*
X510827Y420029D01*
X510707Y420078D01*
X510602Y420120D01*
X510595D01*
X510581Y420134D01*
X510552Y420148D01*
X510517Y420162D01*
X510475Y420191D01*
X510426Y420219D01*
X510313Y420296D01*
X510194Y420387D01*
X510067Y420500D01*
X509940Y420634D01*
X509835Y420788D01*
Y420796D01*
X509821Y420810D01*
X509814Y420831D01*
X509793Y420866D01*
X509771Y420901D01*
X509750Y420950D01*
X509729Y421007D01*
X509708Y421070D01*
X509659Y421211D01*
X509617Y421372D01*
X509589Y421548D01*
X509575Y421738D01*
Y421745D01*
Y421759D01*
Y421788D01*
X509581Y421816D01*
Y421858D01*
X509589Y421907D01*
X509603Y422027D01*
X509624Y422160D01*
X509666Y422308D01*
X509715Y422456D01*
X509785Y422611D01*
Y422618D01*
X509793Y422632D01*
X509807Y422653D01*
X509828Y422681D01*
X509877Y422752D01*
X509940Y422843D01*
X510025Y422948D01*
X510130Y423061D01*
X510243Y423174D01*
X510377Y423279D01*
X510391Y423286D01*
X510426Y423314D01*
X510489Y423349D01*
X510581Y423399D01*
X510686Y423455D01*
X510813Y423511D01*
X510968Y423568D01*
X511136Y423624D01*
X511143D01*
X511157Y423631D01*
X511186Y423638D01*
X511221Y423645D01*
X511263Y423659D01*
X511319Y423673D01*
X511383Y423687D01*
X511446Y423701D01*
X511601Y423722D01*
X511777Y423751D01*
X511967Y423765D01*
X512171Y423772D01*
X512311D01*
X512382Y423765D01*
D02*
G37*
G36*
X562582Y416560D02*
X561344D01*
X560225Y420782D01*
X559944Y421985D01*
X558501Y416560D01*
X557263D01*
X555110Y423617D01*
X556348D01*
X557474Y419536D01*
X557882Y418023D01*
Y418031D01*
X557889Y418045D01*
Y418066D01*
X557896Y418094D01*
X557910Y418129D01*
X557924Y418185D01*
X557939Y418249D01*
X557960Y418333D01*
X557988Y418432D01*
X558016Y418544D01*
X558051Y418685D01*
X558093Y418847D01*
X558143Y419030D01*
X558192Y419241D01*
X558227Y419360D01*
X558255Y419480D01*
X559381Y423617D01*
X560605D01*
X561668Y419522D01*
X562012Y418171D01*
X562413Y419529D01*
X563630Y423617D01*
X564791D01*
X562582Y416560D01*
D02*
G37*
G36*
X528084Y369062D02*
X526796D01*
Y378800D01*
X528084D01*
Y369062D01*
D02*
G37*
G36*
X497459Y424926D02*
X496263D01*
Y426297D01*
X497459D01*
Y424926D01*
D02*
G37*
G36*
X517863D02*
X516667D01*
Y426297D01*
X517863D01*
Y424926D01*
D02*
G37*
G36*
X569273Y423765D02*
X569344Y423758D01*
X569414Y423751D01*
X569498Y423744D01*
X569674Y423715D01*
X569871Y423673D01*
X570075Y423617D01*
X570279Y423540D01*
X570286D01*
X570300Y423532D01*
X570329Y423518D01*
X570371Y423497D01*
X570413Y423476D01*
X570462Y423448D01*
X570582Y423378D01*
X570709Y423293D01*
X570842Y423188D01*
X570969Y423068D01*
X571081Y422934D01*
Y422927D01*
X571096Y422920D01*
X571110Y422899D01*
X571124Y422871D01*
X571145Y422836D01*
X571173Y422794D01*
X571229Y422688D01*
X571292Y422561D01*
X571349Y422407D01*
X571405Y422238D01*
X571454Y422055D01*
Y422048D01*
Y422041D01*
X571461Y422020D01*
X571468Y421992D01*
Y421956D01*
X571475Y421907D01*
X571483Y421851D01*
X571489Y421788D01*
X571497Y421710D01*
X571504Y421626D01*
X571511Y421534D01*
Y421429D01*
X571518Y421309D01*
X571525Y421183D01*
Y421042D01*
Y420894D01*
Y416560D01*
X570329D01*
Y420845D01*
Y420852D01*
Y420880D01*
Y420915D01*
Y420964D01*
X570322Y421028D01*
Y421098D01*
X570314Y421175D01*
Y421253D01*
X570293Y421436D01*
X570272Y421612D01*
X570237Y421788D01*
X570216Y421865D01*
X570188Y421935D01*
Y421942D01*
X570181Y421949D01*
X570174Y421970D01*
X570160Y421999D01*
X570125Y422062D01*
X570075Y422146D01*
X570005Y422238D01*
X569921Y422336D01*
X569815Y422435D01*
X569688Y422519D01*
X569681D01*
X569674Y422526D01*
X569653Y422540D01*
X569625Y422555D01*
X569555Y422590D01*
X569456Y422632D01*
X569329Y422667D01*
X569189Y422702D01*
X569034Y422730D01*
X568858Y422737D01*
X568781D01*
X568731Y422730D01*
X568661Y422723D01*
X568584Y422709D01*
X568499Y422695D01*
X568408Y422674D01*
X568302Y422653D01*
X568197Y422618D01*
X568091Y422583D01*
X567979Y422533D01*
X567866Y422477D01*
X567753Y422414D01*
X567641Y422336D01*
X567535Y422252D01*
X567528Y422245D01*
X567514Y422231D01*
X567486Y422196D01*
X567451Y422154D01*
X567409Y422097D01*
X567360Y422027D01*
X567310Y421942D01*
X567261Y421837D01*
X567212Y421724D01*
X567163Y421591D01*
X567113Y421436D01*
X567071Y421267D01*
X567036Y421084D01*
X567008Y420880D01*
X566994Y420655D01*
X566987Y420409D01*
Y416560D01*
X565790D01*
Y423617D01*
X566867D01*
Y422611D01*
X566874Y422625D01*
X566902Y422660D01*
X566951Y422716D01*
X567008Y422794D01*
X567092Y422878D01*
X567191Y422977D01*
X567303Y423082D01*
X567437Y423195D01*
X567585Y423300D01*
X567753Y423406D01*
X567936Y423504D01*
X568140Y423589D01*
X568359Y423666D01*
X568591Y423722D01*
X568844Y423758D01*
X569111Y423772D01*
X569217D01*
X569273Y423765D01*
D02*
G37*
G36*
X525356Y416560D02*
X524244D01*
Y417453D01*
X524237Y417439D01*
X524216Y417411D01*
X524174Y417355D01*
X524118Y417292D01*
X524047Y417207D01*
X523963Y417123D01*
X523857Y417024D01*
X523745Y416933D01*
X523611Y416834D01*
X523463Y416736D01*
X523301Y416651D01*
X523125Y416567D01*
X522935Y416504D01*
X522724Y416447D01*
X522506Y416419D01*
X522267Y416405D01*
X522183D01*
X522126Y416412D01*
X522049Y416419D01*
X521964Y416433D01*
X521866Y416447D01*
X521760Y416461D01*
X521641Y416490D01*
X521521Y416518D01*
X521395Y416553D01*
X521261Y416602D01*
X521127Y416651D01*
X520987Y416715D01*
X520853Y416785D01*
X520719Y416870D01*
X520712Y416877D01*
X520691Y416891D01*
X520649Y416919D01*
X520607Y416954D01*
X520543Y417003D01*
X520473Y417060D01*
X520403Y417130D01*
X520318Y417207D01*
X520234Y417292D01*
X520142Y417390D01*
X520051Y417496D01*
X519959Y417615D01*
X519875Y417735D01*
X519783Y417869D01*
X519706Y418016D01*
X519629Y418164D01*
X519622Y418171D01*
X519615Y418199D01*
X519593Y418249D01*
X519565Y418312D01*
X519537Y418389D01*
X519509Y418481D01*
X519474Y418593D01*
X519439Y418713D01*
X519396Y418847D01*
X519361Y418994D01*
X519333Y419156D01*
X519305Y419325D01*
X519277Y419501D01*
X519256Y419684D01*
X519249Y419881D01*
X519242Y420078D01*
Y420092D01*
Y420127D01*
Y420183D01*
X519249Y420254D01*
X519256Y420352D01*
X519263Y420458D01*
X519270Y420577D01*
X519284Y420711D01*
X519305Y420859D01*
X519326Y421007D01*
X519389Y421330D01*
X519425Y421499D01*
X519474Y421661D01*
X519523Y421830D01*
X519586Y421992D01*
X519593Y421999D01*
X519600Y422027D01*
X519622Y422076D01*
X519650Y422132D01*
X519692Y422203D01*
X519734Y422287D01*
X519790Y422379D01*
X519854Y422477D01*
X519917Y422583D01*
X520001Y422688D01*
X520086Y422801D01*
X520177Y422906D01*
X520283Y423019D01*
X520396Y423117D01*
X520515Y423216D01*
X520642Y423307D01*
X520649Y423314D01*
X520677Y423328D01*
X520712Y423349D01*
X520768Y423378D01*
X520832Y423413D01*
X520909Y423455D01*
X521001Y423497D01*
X521099Y423540D01*
X521212Y423582D01*
X521331Y423624D01*
X521465Y423666D01*
X521599Y423701D01*
X521746Y423730D01*
X521894Y423751D01*
X522049Y423765D01*
X522211Y423772D01*
X522274D01*
X522316Y423765D01*
X522373D01*
X522443Y423758D01*
X522513Y423751D01*
X522591Y423736D01*
X522767Y423708D01*
X522957Y423659D01*
X523154Y423589D01*
X523344Y423497D01*
X523351D01*
X523365Y423483D01*
X523393Y423469D01*
X523428Y423448D01*
X523470Y423420D01*
X523519Y423392D01*
X523632Y423307D01*
X523766Y423209D01*
X523899Y423089D01*
X524033Y422948D01*
X524160Y422794D01*
Y426297D01*
X525356D01*
Y416560D01*
D02*
G37*
G36*
X533234Y378828D02*
X533332Y378821D01*
X533452Y378814D01*
X533586Y378792D01*
X533740Y378771D01*
X533902Y378736D01*
X534078Y378694D01*
X534254Y378645D01*
X534444Y378581D01*
X534627Y378504D01*
X534810Y378413D01*
X534986Y378314D01*
X535154Y378195D01*
X535316Y378054D01*
X535323Y378047D01*
X535351Y378019D01*
X535394Y377976D01*
X535443Y377913D01*
X535506Y377843D01*
X535577Y377751D01*
X535654Y377646D01*
X535732Y377526D01*
X535802Y377392D01*
X535879Y377245D01*
X535950Y377083D01*
X536013Y376914D01*
X536062Y376731D01*
X536104Y376541D01*
X536133Y376337D01*
X536139Y376126D01*
Y376119D01*
Y376098D01*
Y376070D01*
Y376027D01*
X536133Y375971D01*
X536125Y375915D01*
X536118Y375844D01*
X536111Y375767D01*
X536083Y375591D01*
X536041Y375394D01*
X535978Y375190D01*
X535900Y374979D01*
Y374972D01*
X535886Y374951D01*
X535872Y374923D01*
X535851Y374881D01*
X535830Y374831D01*
X535795Y374768D01*
X535760Y374698D01*
X535710Y374620D01*
X535661Y374536D01*
X535605Y374444D01*
X535464Y374240D01*
X535387Y374135D01*
X535302Y374022D01*
X535204Y373910D01*
X535105Y373790D01*
X535098Y373783D01*
X535077Y373762D01*
X535049Y373727D01*
X535000Y373677D01*
X534936Y373614D01*
X534859Y373537D01*
X534775Y373445D01*
X534669Y373340D01*
X534549Y373227D01*
X534409Y373101D01*
X534261Y372960D01*
X534092Y372805D01*
X533909Y372643D01*
X533712Y372467D01*
X533494Y372277D01*
X533262Y372080D01*
X533248Y372073D01*
X533213Y372038D01*
X533163Y371996D01*
X533093Y371933D01*
X533002Y371862D01*
X532910Y371778D01*
X532805Y371686D01*
X532692Y371588D01*
X532453Y371384D01*
X532340Y371278D01*
X532228Y371180D01*
X532122Y371081D01*
X532031Y370997D01*
X531946Y370919D01*
X531883Y370849D01*
X531869Y370835D01*
X531834Y370793D01*
X531777Y370729D01*
X531707Y370652D01*
X531630Y370554D01*
X531545Y370448D01*
X531461Y370328D01*
X531383Y370209D01*
X536154D01*
Y369062D01*
X529723D01*
Y369069D01*
Y369083D01*
Y369104D01*
Y369132D01*
Y369175D01*
X529730Y369217D01*
X529737Y369329D01*
X529751Y369449D01*
X529772Y369590D01*
X529807Y369737D01*
X529857Y369885D01*
Y369892D01*
X529871Y369913D01*
X529885Y369949D01*
X529906Y369998D01*
X529927Y370061D01*
X529962Y370131D01*
X530004Y370209D01*
X530047Y370293D01*
X530096Y370392D01*
X530159Y370490D01*
X530293Y370708D01*
X530455Y370941D01*
X530645Y371180D01*
X530652Y371187D01*
X530673Y371208D01*
X530701Y371243D01*
X530743Y371292D01*
X530799Y371356D01*
X530870Y371426D01*
X530947Y371511D01*
X531046Y371602D01*
X531151Y371707D01*
X531264Y371820D01*
X531390Y371940D01*
X531531Y372073D01*
X531686Y372207D01*
X531848Y372348D01*
X532024Y372495D01*
X532206Y372650D01*
X532214Y372657D01*
X532228Y372664D01*
X532249Y372685D01*
X532277Y372706D01*
X532312Y372742D01*
X532354Y372777D01*
X532460Y372868D01*
X532593Y372974D01*
X532734Y373108D01*
X532896Y373248D01*
X533065Y373403D01*
X533248Y373565D01*
X533424Y373734D01*
X533607Y373903D01*
X533775Y374078D01*
X533944Y374247D01*
X534092Y374409D01*
X534233Y374571D01*
X534345Y374719D01*
X534352Y374726D01*
X534366Y374754D01*
X534395Y374796D01*
X534437Y374845D01*
X534479Y374916D01*
X534521Y374993D01*
X534578Y375085D01*
X534627Y375183D01*
X534676Y375289D01*
X534732Y375401D01*
X534824Y375648D01*
X534859Y375774D01*
X534887Y375901D01*
X534901Y376027D01*
X534908Y376154D01*
Y376161D01*
Y376189D01*
Y376224D01*
X534901Y376274D01*
X534894Y376337D01*
X534880Y376407D01*
X534866Y376485D01*
X534845Y376569D01*
X534817Y376661D01*
X534782Y376759D01*
X534739Y376858D01*
X534690Y376956D01*
X534634Y377062D01*
X534563Y377160D01*
X534486Y377259D01*
X534395Y377350D01*
X534388Y377357D01*
X534374Y377371D01*
X534345Y377392D01*
X534303Y377428D01*
X534254Y377463D01*
X534191Y377505D01*
X534120Y377554D01*
X534043Y377596D01*
X533951Y377646D01*
X533853Y377688D01*
X533740Y377730D01*
X533628Y377765D01*
X533501Y377800D01*
X533367Y377822D01*
X533227Y377836D01*
X533079Y377843D01*
X532994D01*
X532938Y377836D01*
X532861Y377829D01*
X532776Y377814D01*
X532685Y377800D01*
X532579Y377779D01*
X532474Y377751D01*
X532361Y377716D01*
X532249Y377674D01*
X532129Y377625D01*
X532017Y377561D01*
X531904Y377491D01*
X531791Y377413D01*
X531693Y377322D01*
X531686Y377315D01*
X531672Y377301D01*
X531644Y377266D01*
X531615Y377231D01*
X531573Y377174D01*
X531531Y377111D01*
X531482Y377034D01*
X531440Y376949D01*
X531390Y376858D01*
X531341Y376745D01*
X531299Y376632D01*
X531257Y376506D01*
X531229Y376365D01*
X531200Y376217D01*
X531186Y376063D01*
X531179Y375894D01*
X529948Y376020D01*
Y376027D01*
Y376035D01*
X529955Y376056D01*
Y376084D01*
X529962Y376154D01*
X529983Y376246D01*
X530004Y376358D01*
X530033Y376492D01*
X530068Y376640D01*
X530110Y376794D01*
X530166Y376963D01*
X530229Y377132D01*
X530307Y377308D01*
X530398Y377484D01*
X530497Y377653D01*
X530616Y377814D01*
X530743Y377969D01*
X530891Y378110D01*
X530898Y378117D01*
X530926Y378138D01*
X530975Y378180D01*
X531039Y378223D01*
X531123Y378279D01*
X531222Y378342D01*
X531341Y378405D01*
X531475Y378476D01*
X531630Y378539D01*
X531791Y378602D01*
X531974Y378666D01*
X532171Y378722D01*
X532382Y378771D01*
X532608Y378807D01*
X532847Y378828D01*
X533100Y378835D01*
X533163D01*
X533234Y378828D01*
D02*
G37*
G36*
X489888Y422801D02*
X489895Y422815D01*
X489924Y422843D01*
X489973Y422892D01*
X490036Y422956D01*
X490121Y423026D01*
X490219Y423110D01*
X490339Y423195D01*
X490465Y423286D01*
X490613Y423378D01*
X490775Y423462D01*
X490944Y423546D01*
X491134Y423617D01*
X491331Y423680D01*
X491542Y423730D01*
X491767Y423758D01*
X491999Y423772D01*
X492076D01*
X492133Y423765D01*
X492196D01*
X492273Y423758D01*
X492365Y423744D01*
X492463Y423736D01*
X492674Y423694D01*
X492900Y423638D01*
X493132Y423568D01*
X493244Y423518D01*
X493357Y423462D01*
X493364D01*
X493385Y423448D01*
X493413Y423427D01*
X493456Y423406D01*
X493498Y423371D01*
X493554Y423335D01*
X493681Y423237D01*
X493814Y423117D01*
X493955Y422970D01*
X494082Y422801D01*
X494138Y422702D01*
X494187Y422604D01*
Y422597D01*
X494201Y422576D01*
X494208Y422547D01*
X494229Y422505D01*
X494244Y422449D01*
X494265Y422379D01*
X494293Y422294D01*
X494314Y422203D01*
X494335Y422097D01*
X494363Y421985D01*
X494384Y421851D01*
X494398Y421710D01*
X494419Y421555D01*
X494426Y421394D01*
X494440Y421218D01*
Y421028D01*
Y416560D01*
X493244D01*
Y421028D01*
Y421035D01*
Y421070D01*
Y421112D01*
X493237Y421175D01*
X493230Y421246D01*
X493223Y421330D01*
X493209Y421429D01*
X493195Y421527D01*
X493146Y421738D01*
X493075Y421956D01*
X493033Y422055D01*
X492984Y422154D01*
X492921Y422245D01*
X492850Y422329D01*
X492843Y422336D01*
X492829Y422351D01*
X492808Y422365D01*
X492780Y422393D01*
X492738Y422428D01*
X492688Y422463D01*
X492632Y422498D01*
X492569Y422540D01*
X492491Y422576D01*
X492414Y422611D01*
X492323Y422646D01*
X492224Y422681D01*
X492119Y422709D01*
X492006Y422723D01*
X491879Y422737D01*
X491753Y422744D01*
X491703D01*
X491661Y422737D01*
X491612D01*
X491556Y422730D01*
X491499Y422723D01*
X491429Y422709D01*
X491274Y422674D01*
X491105Y422625D01*
X490923Y422555D01*
X490747Y422463D01*
X490740D01*
X490726Y422449D01*
X490704Y422435D01*
X490669Y422414D01*
X490592Y422351D01*
X490493Y422266D01*
X490381Y422160D01*
X490275Y422034D01*
X490170Y421886D01*
X490085Y421717D01*
Y421710D01*
X490078Y421696D01*
X490064Y421668D01*
X490057Y421633D01*
X490043Y421584D01*
X490022Y421527D01*
X490008Y421457D01*
X489987Y421380D01*
X489966Y421288D01*
X489952Y421190D01*
X489938Y421084D01*
X489916Y420971D01*
X489909Y420845D01*
X489895Y420711D01*
X489888Y420570D01*
Y420416D01*
Y416560D01*
X488692D01*
Y426297D01*
X489888D01*
Y422801D01*
D02*
G37*
G36*
X497459Y416560D02*
X496263D01*
Y423617D01*
X497459D01*
Y416560D01*
D02*
G37*
G36*
X551402Y423765D02*
X551501Y423758D01*
X551627Y423744D01*
X551768Y423722D01*
X551930Y423694D01*
X552106Y423652D01*
X552289Y423603D01*
X552486Y423540D01*
X552683Y423462D01*
X552880Y423371D01*
X553077Y423258D01*
X553274Y423131D01*
X553464Y422984D01*
X553640Y422815D01*
X553654Y422801D01*
X553682Y422773D01*
X553724Y422716D01*
X553787Y422639D01*
X553858Y422540D01*
X553935Y422428D01*
X554020Y422287D01*
X554104Y422132D01*
X554188Y421949D01*
X554273Y421752D01*
X554350Y421541D01*
X554421Y421302D01*
X554484Y421049D01*
X554526Y420782D01*
X554561Y420493D01*
X554568Y420183D01*
Y420176D01*
Y420169D01*
Y420148D01*
Y420127D01*
Y420050D01*
X554561Y419958D01*
X554554Y419846D01*
X554547Y419712D01*
X554533Y419564D01*
X554519Y419409D01*
X554498Y419241D01*
X554470Y419065D01*
X554435Y418889D01*
X554393Y418706D01*
X554343Y418530D01*
X554294Y418361D01*
X554224Y418199D01*
X554153Y418045D01*
X554146Y418037D01*
X554132Y418009D01*
X554111Y417967D01*
X554076Y417918D01*
X554034Y417848D01*
X553984Y417777D01*
X553921Y417693D01*
X553851Y417601D01*
X553773Y417503D01*
X553682Y417404D01*
X553583Y417306D01*
X553478Y417207D01*
X553365Y417109D01*
X553239Y417010D01*
X553105Y416919D01*
X552964Y416834D01*
X552957Y416827D01*
X552929Y416813D01*
X552887Y416792D01*
X552831Y416771D01*
X552753Y416736D01*
X552669Y416701D01*
X552570Y416659D01*
X552465Y416623D01*
X552338Y416581D01*
X552211Y416539D01*
X552071Y416504D01*
X551923Y416476D01*
X551761Y416447D01*
X551599Y416426D01*
X551437Y416412D01*
X551262Y416405D01*
X551198D01*
X551163Y416412D01*
X551121D01*
X551015Y416419D01*
X550889Y416433D01*
X550748Y416455D01*
X550586Y416483D01*
X550410Y416525D01*
X550220Y416574D01*
X550030Y416637D01*
X549826Y416715D01*
X549629Y416806D01*
X549432Y416912D01*
X549235Y417038D01*
X549045Y417179D01*
X548869Y417348D01*
X548862Y417362D01*
X548827Y417390D01*
X548785Y417447D01*
X548729Y417524D01*
X548658Y417622D01*
X548581Y417742D01*
X548504Y417883D01*
X548419Y418045D01*
X548335Y418228D01*
X548250Y418432D01*
X548173Y418657D01*
X548102Y418903D01*
X548046Y419170D01*
X548004Y419452D01*
X547969Y419761D01*
X547962Y420085D01*
Y420092D01*
Y420106D01*
Y420134D01*
Y420169D01*
X547969Y420219D01*
Y420275D01*
X547976Y420338D01*
Y420409D01*
X547983Y420486D01*
X547997Y420570D01*
X548018Y420753D01*
X548053Y420957D01*
X548096Y421183D01*
X548152Y421415D01*
X548229Y421654D01*
X548314Y421893D01*
X548419Y422132D01*
X548546Y422365D01*
X548686Y422590D01*
X548855Y422794D01*
X549045Y422984D01*
X549059Y422991D01*
X549087Y423019D01*
X549137Y423054D01*
X549207Y423110D01*
X549299Y423167D01*
X549404Y423230D01*
X549524Y423307D01*
X549664Y423378D01*
X549819Y423448D01*
X549988Y423525D01*
X550171Y423589D01*
X550368Y423652D01*
X550572Y423701D01*
X550790Y423736D01*
X551022Y423765D01*
X551262Y423772D01*
X551360D01*
X551402Y423765D01*
D02*
G37*
G36*
X487524Y425151D02*
X484302D01*
Y416560D01*
X483014D01*
Y425151D01*
X479806D01*
Y426297D01*
X487524D01*
Y425151D01*
D02*
G37*
G36*
X517863Y416560D02*
X516667D01*
Y423617D01*
X517863D01*
Y416560D01*
D02*
G37*
G36*
X542282Y378961D02*
X542387Y378954D01*
X542514Y378947D01*
X542655Y378926D01*
X542817Y378905D01*
X542999Y378877D01*
X543189Y378835D01*
X543386Y378786D01*
X543591Y378729D01*
X543795Y378652D01*
X543998Y378567D01*
X544210Y378469D01*
X544407Y378356D01*
X544597Y378223D01*
X544611Y378216D01*
X544639Y378187D01*
X544695Y378145D01*
X544758Y378082D01*
X544843Y378012D01*
X544934Y377913D01*
X545033Y377808D01*
X545145Y377681D01*
X545258Y377540D01*
X545378Y377385D01*
X545490Y377210D01*
X545603Y377026D01*
X545715Y376823D01*
X545814Y376604D01*
X545912Y376372D01*
X545990Y376126D01*
X544723Y375830D01*
X544716Y375844D01*
X544709Y375880D01*
X544688Y375929D01*
X544660Y376006D01*
X544625Y376091D01*
X544582Y376189D01*
X544526Y376302D01*
X544470Y376421D01*
X544407Y376548D01*
X544329Y376675D01*
X544252Y376801D01*
X544160Y376935D01*
X544062Y377055D01*
X543963Y377174D01*
X543851Y377280D01*
X543731Y377378D01*
X543724Y377385D01*
X543703Y377399D01*
X543668Y377421D01*
X543619Y377456D01*
X543555Y377491D01*
X543478Y377533D01*
X543386Y377575D01*
X543288Y377625D01*
X543175Y377667D01*
X543056Y377709D01*
X542922Y377751D01*
X542781Y377786D01*
X542626Y377822D01*
X542465Y377843D01*
X542296Y377857D01*
X542113Y377864D01*
X542007D01*
X541930Y377857D01*
X541832Y377850D01*
X541719Y377836D01*
X541592Y377822D01*
X541459Y377793D01*
X541311Y377765D01*
X541163Y377730D01*
X541008Y377688D01*
X540846Y377639D01*
X540692Y377575D01*
X540537Y377498D01*
X540382Y377421D01*
X540234Y377322D01*
X540227Y377315D01*
X540199Y377301D01*
X540164Y377266D01*
X540115Y377224D01*
X540051Y377167D01*
X539981Y377104D01*
X539904Y377026D01*
X539819Y376942D01*
X539735Y376844D01*
X539643Y376738D01*
X539559Y376618D01*
X539474Y376485D01*
X539390Y376351D01*
X539313Y376203D01*
X539242Y376049D01*
X539179Y375880D01*
Y375873D01*
X539165Y375838D01*
X539151Y375788D01*
X539130Y375725D01*
X539109Y375640D01*
X539081Y375542D01*
X539059Y375429D01*
X539031Y375303D01*
X539003Y375169D01*
X538975Y375021D01*
X538947Y374866D01*
X538926Y374705D01*
X538890Y374367D01*
X538884Y374191D01*
X538876Y374008D01*
Y373994D01*
Y373952D01*
Y373889D01*
X538884Y373797D01*
X538890Y373692D01*
X538898Y373565D01*
X538905Y373424D01*
X538919Y373276D01*
X538940Y373108D01*
X538961Y372932D01*
X539031Y372573D01*
X539066Y372383D01*
X539116Y372200D01*
X539172Y372017D01*
X539235Y371841D01*
X539242Y371834D01*
X539249Y371799D01*
X539271Y371757D01*
X539306Y371693D01*
X539341Y371616D01*
X539390Y371525D01*
X539446Y371426D01*
X539510Y371320D01*
X539587Y371215D01*
X539672Y371102D01*
X539763Y370983D01*
X539861Y370870D01*
X539974Y370758D01*
X540094Y370652D01*
X540220Y370554D01*
X540361Y370462D01*
X540368Y370455D01*
X540396Y370441D01*
X540438Y370420D01*
X540495Y370392D01*
X540565Y370357D01*
X540649Y370314D01*
X540748Y370279D01*
X540854Y370237D01*
X540973Y370188D01*
X541100Y370153D01*
X541241Y370110D01*
X541381Y370075D01*
X541536Y370047D01*
X541691Y370026D01*
X541853Y370012D01*
X542014Y370005D01*
X542064D01*
X542120Y370012D01*
X542197D01*
X542289Y370026D01*
X542394Y370040D01*
X542521Y370054D01*
X542648Y370082D01*
X542788Y370117D01*
X542936Y370160D01*
X543091Y370209D01*
X543246Y370265D01*
X543400Y370336D01*
X543555Y370420D01*
X543703Y370518D01*
X543851Y370624D01*
X543858Y370631D01*
X543886Y370652D01*
X543921Y370687D01*
X543970Y370744D01*
X544034Y370807D01*
X544104Y370884D01*
X544182Y370983D01*
X544259Y371088D01*
X544343Y371215D01*
X544428Y371349D01*
X544519Y371503D01*
X544597Y371672D01*
X544681Y371848D01*
X544751Y372045D01*
X544815Y372249D01*
X544871Y372474D01*
X546158Y372151D01*
Y372144D01*
X546152Y372130D01*
X546144Y372108D01*
X546137Y372080D01*
X546130Y372045D01*
X546116Y371996D01*
X546081Y371890D01*
X546032Y371757D01*
X545976Y371609D01*
X545905Y371440D01*
X545821Y371257D01*
X545729Y371060D01*
X545624Y370863D01*
X545504Y370666D01*
X545370Y370462D01*
X545223Y370265D01*
X545061Y370075D01*
X544885Y369899D01*
X544695Y369730D01*
X544681Y369723D01*
X544646Y369695D01*
X544590Y369653D01*
X544505Y369604D01*
X544407Y369540D01*
X544280Y369470D01*
X544139Y369393D01*
X543977Y369315D01*
X543801Y369238D01*
X543605Y369160D01*
X543394Y369090D01*
X543168Y369027D01*
X542922Y368978D01*
X542669Y368935D01*
X542401Y368907D01*
X542120Y368900D01*
X542014D01*
X541965Y368907D01*
X541860D01*
X541726Y368921D01*
X541571Y368935D01*
X541395Y368956D01*
X541212Y368978D01*
X541008Y369013D01*
X540804Y369055D01*
X540586Y369111D01*
X540375Y369168D01*
X540164Y369245D01*
X539953Y369329D01*
X539749Y369428D01*
X539559Y369540D01*
X539545Y369548D01*
X539517Y369569D01*
X539468Y369611D01*
X539397Y369660D01*
X539313Y369723D01*
X539221Y369808D01*
X539116Y369899D01*
X539003Y370012D01*
X538884Y370139D01*
X538764Y370272D01*
X538637Y370427D01*
X538511Y370589D01*
X538391Y370772D01*
X538271Y370962D01*
X538159Y371173D01*
X538060Y371391D01*
Y371398D01*
X538053Y371405D01*
X538039Y371447D01*
X538011Y371511D01*
X537983Y371602D01*
X537941Y371715D01*
X537898Y371848D01*
X537849Y372003D01*
X537807Y372172D01*
X537758Y372362D01*
X537709Y372566D01*
X537666Y372777D01*
X537624Y373009D01*
X537596Y373241D01*
X537568Y373488D01*
X537554Y373741D01*
X537547Y374001D01*
Y374008D01*
Y374022D01*
Y374043D01*
Y374072D01*
Y374107D01*
X537554Y374149D01*
Y374254D01*
X537568Y374388D01*
X537575Y374543D01*
X537596Y374719D01*
X537617Y374909D01*
X537652Y375106D01*
X537687Y375317D01*
X537737Y375542D01*
X537793Y375767D01*
X537856Y375992D01*
X537934Y376217D01*
X538025Y376436D01*
X538124Y376654D01*
X538131Y376668D01*
X538152Y376703D01*
X538187Y376759D01*
X538229Y376844D01*
X538293Y376935D01*
X538363Y377041D01*
X538454Y377167D01*
X538553Y377294D01*
X538658Y377428D01*
X538785Y377575D01*
X538919Y377716D01*
X539066Y377857D01*
X539228Y377998D01*
X539397Y378131D01*
X539580Y378258D01*
X539777Y378377D01*
X539791Y378384D01*
X539826Y378405D01*
X539883Y378434D01*
X539967Y378469D01*
X540065Y378518D01*
X540185Y378567D01*
X540326Y378617D01*
X540474Y378673D01*
X540643Y378729D01*
X540825Y378778D01*
X541022Y378835D01*
X541226Y378877D01*
X541445Y378912D01*
X541670Y378940D01*
X541902Y378961D01*
X542141Y378968D01*
X542240D01*
X542282Y378961D01*
D02*
G37*
G36*
X559765Y384810D02*
X558301D01*
X557176Y387758D01*
X553088D01*
X552025Y384810D01*
X550667D01*
X554403Y394548D01*
X555783D01*
X559765Y384810D01*
D02*
G37*
G36*
X542368Y426291D02*
X542481D01*
X542601Y426283D01*
X542734D01*
X543016Y426262D01*
X543304Y426241D01*
X543445Y426220D01*
X543578Y426206D01*
X543705Y426185D01*
X543825Y426157D01*
X543832D01*
X543860Y426150D01*
X543902Y426136D01*
X543965Y426122D01*
X544036Y426093D01*
X544120Y426065D01*
X544212Y426037D01*
X544317Y425995D01*
X544535Y425904D01*
X544775Y425777D01*
X545014Y425636D01*
X545133Y425552D01*
X545246Y425460D01*
X545253Y425453D01*
X545281Y425432D01*
X545323Y425390D01*
X545373Y425341D01*
X545436Y425277D01*
X545513Y425200D01*
X545591Y425108D01*
X545682Y425010D01*
X545774Y424890D01*
X545865Y424764D01*
X545964Y424630D01*
X546062Y424482D01*
X546154Y424320D01*
X546238Y424159D01*
X546323Y423976D01*
X546400Y423793D01*
X546407Y423779D01*
X546414Y423744D01*
X546435Y423694D01*
X546463Y423617D01*
X546491Y423518D01*
X546520Y423406D01*
X546555Y423272D01*
X546597Y423124D01*
X546632Y422963D01*
X546667Y422780D01*
X546695Y422590D01*
X546724Y422386D01*
X546752Y422175D01*
X546773Y421949D01*
X546780Y421717D01*
X546787Y421478D01*
Y421464D01*
Y421429D01*
Y421372D01*
X546780Y421288D01*
Y421197D01*
X546773Y421084D01*
X546766Y420957D01*
X546752Y420817D01*
X546738Y420669D01*
X546724Y420507D01*
X546674Y420176D01*
X546611Y419839D01*
X546526Y419508D01*
Y419501D01*
X546512Y419473D01*
X546498Y419424D01*
X546477Y419367D01*
X546456Y419297D01*
X546421Y419212D01*
X546386Y419114D01*
X546344Y419016D01*
X546252Y418790D01*
X546133Y418551D01*
X546006Y418319D01*
X545858Y418094D01*
X545851Y418087D01*
X545837Y418073D01*
X545816Y418037D01*
X545788Y418002D01*
X545753Y417953D01*
X545703Y417897D01*
X545598Y417770D01*
X545464Y417629D01*
X545316Y417482D01*
X545148Y417341D01*
X544972Y417207D01*
X544964D01*
X544950Y417193D01*
X544922Y417179D01*
X544887Y417158D01*
X544838Y417130D01*
X544782Y417102D01*
X544718Y417067D01*
X544648Y417031D01*
X544563Y416989D01*
X544479Y416947D01*
X544381Y416912D01*
X544282Y416870D01*
X544057Y416792D01*
X543811Y416722D01*
X543804D01*
X543783Y416715D01*
X543740Y416708D01*
X543691Y416694D01*
X543628Y416687D01*
X543550Y416673D01*
X543459Y416659D01*
X543360Y416644D01*
X543248Y416623D01*
X543128Y416609D01*
X543002Y416595D01*
X542861Y416588D01*
X542720Y416574D01*
X542565Y416567D01*
X542249Y416560D01*
X538738D01*
Y426297D01*
X542277D01*
X542368Y426291D01*
D02*
G37*
%LPC*%
G36*
X555058Y393527D02*
Y393513D01*
X555051Y393485D01*
X555037Y393436D01*
X555023Y393366D01*
X555002Y393281D01*
X554980Y393183D01*
X554952Y393070D01*
X554924Y392943D01*
X554882Y392803D01*
X554847Y392655D01*
X554805Y392507D01*
X554755Y392345D01*
X554650Y392008D01*
X554530Y391663D01*
X553461Y388806D01*
X556768D01*
X555747Y391501D01*
Y391508D01*
X555740Y391515D01*
X555726Y391557D01*
X555705Y391621D01*
X555670Y391705D01*
X555635Y391811D01*
X555586Y391930D01*
X555543Y392071D01*
X555487Y392219D01*
X555431Y392374D01*
X555374Y392535D01*
X555262Y392873D01*
X555149Y393211D01*
X555100Y393373D01*
X555058Y393527D01*
D02*
G37*
G36*
X551262Y422780D02*
X551219D01*
X551177Y422773D01*
X551114D01*
X551036Y422758D01*
X550945Y422744D01*
X550846Y422723D01*
X550741Y422695D01*
X550628Y422660D01*
X550509Y422618D01*
X550382Y422561D01*
X550256Y422498D01*
X550136Y422421D01*
X550009Y422329D01*
X549890Y422224D01*
X549777Y422104D01*
X549770Y422097D01*
X549749Y422076D01*
X549721Y422034D01*
X549686Y421978D01*
X549643Y421907D01*
X549594Y421823D01*
X549538Y421717D01*
X549489Y421605D01*
X549432Y421464D01*
X549376Y421316D01*
X549327Y421154D01*
X549285Y420971D01*
X549249Y420774D01*
X549221Y420556D01*
X549200Y420331D01*
X549193Y420085D01*
Y420078D01*
Y420071D01*
Y420050D01*
Y420029D01*
X549200Y419958D01*
Y419867D01*
X549214Y419754D01*
X549221Y419621D01*
X549242Y419480D01*
X549263Y419325D01*
X549299Y419163D01*
X549334Y418994D01*
X549383Y418825D01*
X549439Y418664D01*
X549510Y418495D01*
X549587Y418340D01*
X549672Y418192D01*
X549777Y418059D01*
X549784Y418052D01*
X549805Y418031D01*
X549840Y417995D01*
X549883Y417953D01*
X549939Y417904D01*
X550009Y417848D01*
X550094Y417784D01*
X550185Y417728D01*
X550284Y417665D01*
X550396Y417601D01*
X550523Y417545D01*
X550649Y417496D01*
X550790Y417453D01*
X550945Y417418D01*
X551100Y417397D01*
X551262Y417390D01*
X551304D01*
X551346Y417397D01*
X551409Y417404D01*
X551487Y417411D01*
X551578Y417425D01*
X551677Y417447D01*
X551782Y417475D01*
X551895Y417510D01*
X552014Y417552D01*
X552141Y417608D01*
X552268Y417679D01*
X552387Y417756D01*
X552514Y417840D01*
X552634Y417946D01*
X552746Y418066D01*
X552753Y418073D01*
X552774Y418101D01*
X552802Y418136D01*
X552838Y418192D01*
X552887Y418263D01*
X552936Y418354D01*
X552985Y418460D01*
X553042Y418579D01*
X553098Y418713D01*
X553147Y418868D01*
X553204Y419037D01*
X553246Y419220D01*
X553281Y419424D01*
X553309Y419642D01*
X553330Y419874D01*
X553337Y420127D01*
Y420134D01*
Y420141D01*
Y420183D01*
X553330Y420254D01*
Y420338D01*
X553316Y420451D01*
X553309Y420577D01*
X553288Y420711D01*
X553260Y420866D01*
X553232Y421021D01*
X553189Y421183D01*
X553140Y421344D01*
X553084Y421513D01*
X553013Y421668D01*
X552936Y421823D01*
X552845Y421970D01*
X552739Y422104D01*
X552732Y422111D01*
X552711Y422132D01*
X552676Y422168D01*
X552634Y422210D01*
X552577Y422259D01*
X552507Y422315D01*
X552422Y422379D01*
X552331Y422442D01*
X552233Y422505D01*
X552120Y422569D01*
X552000Y422625D01*
X551867Y422674D01*
X551726Y422716D01*
X551578Y422752D01*
X551423Y422773D01*
X551262Y422780D01*
D02*
G37*
G36*
X522330D02*
X522295D01*
X522253Y422773D01*
X522197D01*
X522133Y422758D01*
X522049Y422744D01*
X521964Y422723D01*
X521866Y422695D01*
X521760Y422660D01*
X521655Y422618D01*
X521549Y422569D01*
X521437Y422505D01*
X521324Y422428D01*
X521212Y422343D01*
X521106Y422238D01*
X521001Y422125D01*
X520994Y422118D01*
X520979Y422097D01*
X520951Y422055D01*
X520916Y422006D01*
X520881Y421935D01*
X520832Y421844D01*
X520789Y421745D01*
X520740Y421626D01*
X520691Y421492D01*
X520642Y421344D01*
X520592Y421175D01*
X520557Y420985D01*
X520522Y420788D01*
X520494Y420570D01*
X520480Y420331D01*
X520473Y420078D01*
Y420071D01*
Y420064D01*
Y420043D01*
Y420022D01*
X520480Y419951D01*
Y419860D01*
X520494Y419747D01*
X520501Y419613D01*
X520522Y419473D01*
X520543Y419318D01*
X520571Y419156D01*
X520614Y418994D01*
X520656Y418825D01*
X520712Y418657D01*
X520775Y418495D01*
X520853Y418340D01*
X520944Y418192D01*
X521043Y418059D01*
X521050Y418052D01*
X521071Y418031D01*
X521099Y417995D01*
X521141Y417953D01*
X521198Y417904D01*
X521261Y417848D01*
X521338Y417784D01*
X521423Y417728D01*
X521521Y417665D01*
X521620Y417601D01*
X521732Y417545D01*
X521852Y417496D01*
X521979Y417453D01*
X522105Y417418D01*
X522246Y417397D01*
X522387Y417390D01*
X522422D01*
X522464Y417397D01*
X522520D01*
X522584Y417411D01*
X522661Y417425D01*
X522752Y417447D01*
X522844Y417468D01*
X522949Y417503D01*
X523055Y417545D01*
X523168Y417594D01*
X523280Y417658D01*
X523393Y417728D01*
X523505Y417812D01*
X523611Y417911D01*
X523716Y418023D01*
X523723Y418031D01*
X523737Y418052D01*
X523766Y418094D01*
X523801Y418143D01*
X523843Y418213D01*
X523892Y418298D01*
X523942Y418396D01*
X523991Y418509D01*
X524040Y418636D01*
X524089Y418783D01*
X524139Y418945D01*
X524181Y419121D01*
X524216Y419311D01*
X524244Y419515D01*
X524258Y419740D01*
X524265Y419979D01*
Y419986D01*
Y419994D01*
Y420015D01*
Y420043D01*
Y420120D01*
X524258Y420219D01*
X524251Y420338D01*
X524237Y420472D01*
X524216Y420620D01*
X524195Y420788D01*
X524167Y420957D01*
X524132Y421133D01*
X524082Y421309D01*
X524026Y421485D01*
X523963Y421654D01*
X523885Y421816D01*
X523801Y421964D01*
X523702Y422097D01*
X523695Y422104D01*
X523674Y422125D01*
X523646Y422160D01*
X523604Y422203D01*
X523548Y422259D01*
X523484Y422315D01*
X523407Y422372D01*
X523322Y422442D01*
X523231Y422505D01*
X523125Y422561D01*
X523013Y422625D01*
X522886Y422674D01*
X522760Y422716D01*
X522626Y422752D01*
X522478Y422773D01*
X522330Y422780D01*
D02*
G37*
G36*
X530147Y422787D02*
X530070D01*
X530014Y422780D01*
X529936Y422773D01*
X529859Y422758D01*
X529767Y422737D01*
X529669Y422716D01*
X529556Y422688D01*
X529451Y422653D01*
X529331Y422604D01*
X529218Y422555D01*
X529099Y422491D01*
X528979Y422414D01*
X528867Y422329D01*
X528761Y422231D01*
X528754Y422224D01*
X528740Y422203D01*
X528712Y422175D01*
X528670Y422132D01*
X528627Y422076D01*
X528578Y422006D01*
X528529Y421928D01*
X528473Y421844D01*
X528416Y421745D01*
X528360Y421633D01*
X528311Y421513D01*
X528262Y421380D01*
X528219Y421246D01*
X528184Y421091D01*
X528156Y420936D01*
X528142Y420767D01*
X532089D01*
Y420774D01*
X532082Y420810D01*
Y420852D01*
X532068Y420915D01*
X532061Y420985D01*
X532040Y421070D01*
X532026Y421168D01*
X531998Y421267D01*
X531941Y421485D01*
X531864Y421703D01*
X531758Y421914D01*
X531695Y422013D01*
X531632Y422097D01*
X531625Y422104D01*
X531604Y422125D01*
X531575Y422160D01*
X531526Y422203D01*
X531470Y422259D01*
X531407Y422315D01*
X531322Y422379D01*
X531231Y422442D01*
X531132Y422505D01*
X531020Y422569D01*
X530900Y422625D01*
X530766Y422681D01*
X530626Y422723D01*
X530471Y422758D01*
X530316Y422780D01*
X530147Y422787D01*
D02*
G37*
G36*
X542277Y425151D02*
X540025D01*
Y417707D01*
X542263D01*
X542340Y417714D01*
X542432D01*
X542537Y417721D01*
X542650Y417728D01*
X542889Y417749D01*
X543142Y417784D01*
X543388Y417826D01*
X543501Y417855D01*
X543607Y417883D01*
X543614D01*
X543628Y417890D01*
X543663Y417904D01*
X543698Y417918D01*
X543747Y417932D01*
X543797Y417960D01*
X543923Y418016D01*
X544064Y418087D01*
X544212Y418171D01*
X544352Y418277D01*
X544486Y418389D01*
X544493Y418396D01*
X544507Y418410D01*
X544528Y418439D01*
X544563Y418474D01*
X544599Y418516D01*
X544641Y418572D01*
X544690Y418643D01*
X544746Y418713D01*
X544803Y418797D01*
X544859Y418889D01*
X544922Y418994D01*
X544979Y419100D01*
X545035Y419220D01*
X545091Y419346D01*
X545148Y419480D01*
X545197Y419621D01*
Y419628D01*
X545211Y419656D01*
X545218Y419698D01*
X545239Y419761D01*
X545260Y419832D01*
X545281Y419923D01*
X545302Y420029D01*
X545330Y420148D01*
X545351Y420275D01*
X545373Y420423D01*
X545394Y420577D01*
X545415Y420739D01*
X545436Y420915D01*
X545443Y421098D01*
X545457Y421295D01*
Y421499D01*
Y421506D01*
Y421513D01*
Y421534D01*
Y421570D01*
Y421605D01*
Y421647D01*
X545450Y421752D01*
X545443Y421879D01*
X545429Y422027D01*
X545415Y422189D01*
X545394Y422365D01*
X545366Y422547D01*
X545330Y422744D01*
X545295Y422934D01*
X545246Y423131D01*
X545183Y423321D01*
X545119Y423504D01*
X545042Y423680D01*
X544950Y423842D01*
X544943Y423849D01*
X544929Y423877D01*
X544901Y423919D01*
X544859Y423976D01*
X544810Y424039D01*
X544753Y424116D01*
X544690Y424201D01*
X544613Y424292D01*
X544528Y424384D01*
X544437Y424475D01*
X544331Y424567D01*
X544226Y424658D01*
X544113Y424743D01*
X543994Y424820D01*
X543867Y424890D01*
X543733Y424947D01*
X543726D01*
X543712Y424954D01*
X543677Y424968D01*
X543635Y424982D01*
X543578Y424996D01*
X543508Y425010D01*
X543424Y425031D01*
X543332Y425052D01*
X543220Y425066D01*
X543100Y425087D01*
X542959Y425102D01*
X542812Y425123D01*
X542643Y425130D01*
X542467Y425144D01*
X542277Y425151D01*
D02*
G37*
G36*
X551730Y362387D02*
X551695D01*
X551653Y362380D01*
X551596D01*
X551526Y362366D01*
X551442Y362359D01*
X551357Y362337D01*
X551259Y362316D01*
X551153Y362281D01*
X551041Y362246D01*
X550928Y362197D01*
X550808Y362141D01*
X550696Y362077D01*
X550576Y361993D01*
X550464Y361908D01*
X550358Y361803D01*
X550351Y361796D01*
X550337Y361775D01*
X550309Y361740D01*
X550274Y361697D01*
X550224Y361641D01*
X550182Y361571D01*
X550126Y361486D01*
X550077Y361395D01*
X550028Y361289D01*
X549971Y361177D01*
X549929Y361050D01*
X549887Y360916D01*
X549845Y360769D01*
X549816Y360614D01*
X549802Y360452D01*
X549795Y360283D01*
Y360276D01*
Y360255D01*
Y360220D01*
X549802Y360177D01*
Y360121D01*
X549809Y360058D01*
X549816Y359981D01*
X549831Y359903D01*
X549859Y359720D01*
X549908Y359523D01*
X549971Y359312D01*
X550056Y359094D01*
Y359087D01*
X550070Y359073D01*
X550084Y359038D01*
X550105Y359003D01*
X550133Y358953D01*
X550161Y358904D01*
X550246Y358777D01*
X550344Y358637D01*
X550471Y358496D01*
X550619Y358355D01*
X550780Y358236D01*
X550787D01*
X550801Y358222D01*
X550830Y358208D01*
X550865Y358193D01*
X550907Y358172D01*
X550956Y358144D01*
X551012Y358116D01*
X551083Y358095D01*
X551231Y358039D01*
X551399Y357989D01*
X551582Y357961D01*
X551772Y357947D01*
X551808D01*
X551850Y357954D01*
X551899D01*
X551962Y357968D01*
X552040Y357982D01*
X552124Y357996D01*
X552223Y358025D01*
X552321Y358053D01*
X552427Y358095D01*
X552532Y358144D01*
X552645Y358200D01*
X552750Y358271D01*
X552863Y358355D01*
X552968Y358447D01*
X553074Y358552D01*
X553081Y358559D01*
X553095Y358580D01*
X553123Y358616D01*
X553158Y358665D01*
X553201Y358728D01*
X553250Y358798D01*
X553299Y358890D01*
X553348Y358988D01*
X553398Y359101D01*
X553447Y359228D01*
X553496Y359361D01*
X553538Y359509D01*
X553573Y359671D01*
X553602Y359840D01*
X553616Y360023D01*
X553623Y360213D01*
Y360227D01*
Y360255D01*
Y360311D01*
X553616Y360382D01*
X553609Y360466D01*
X553595Y360564D01*
X553581Y360670D01*
X553552Y360790D01*
X553524Y360916D01*
X553489Y361043D01*
X553447Y361177D01*
X553398Y361310D01*
X553334Y361437D01*
X553257Y361564D01*
X553180Y361690D01*
X553081Y361803D01*
X553074Y361810D01*
X553060Y361831D01*
X553025Y361859D01*
X552982Y361894D01*
X552933Y361936D01*
X552870Y361986D01*
X552793Y362042D01*
X552715Y362098D01*
X552617Y362148D01*
X552518Y362204D01*
X552406Y362253D01*
X552286Y362295D01*
X552159Y362331D01*
X552026Y362359D01*
X551878Y362380D01*
X551730Y362387D01*
D02*
G37*
G36*
X529701Y365905D02*
X529666D01*
X529624Y365898D01*
X529567Y365891D01*
X529497Y365884D01*
X529413Y365869D01*
X529328Y365848D01*
X529230Y365820D01*
X529124Y365778D01*
X529019Y365736D01*
X528906Y365680D01*
X528801Y365609D01*
X528688Y365532D01*
X528582Y365440D01*
X528484Y365328D01*
X528385Y365208D01*
X528378Y365201D01*
X528357Y365166D01*
X528329Y365110D01*
X528287Y365032D01*
X528245Y364927D01*
X528195Y364800D01*
X528139Y364645D01*
X528083Y364462D01*
X528048Y364364D01*
X528019Y364251D01*
X527991Y364139D01*
X527970Y364012D01*
X527942Y363885D01*
X527914Y363745D01*
X527893Y363597D01*
X527872Y363442D01*
X527851Y363280D01*
X527830Y363111D01*
X527816Y362936D01*
X527801Y362753D01*
X527787Y362556D01*
X527780Y362352D01*
X527773Y362141D01*
Y361922D01*
Y361915D01*
Y361894D01*
Y361866D01*
Y361817D01*
Y361761D01*
X527780Y361697D01*
Y361620D01*
Y361535D01*
X527787Y361444D01*
Y361345D01*
X527801Y361120D01*
X527822Y360881D01*
X527844Y360628D01*
X527872Y360360D01*
X527907Y360093D01*
X527956Y359826D01*
X528005Y359565D01*
X528069Y359319D01*
X528146Y359101D01*
X528188Y358996D01*
X528231Y358904D01*
X528280Y358813D01*
X528329Y358735D01*
X528336Y358728D01*
X528357Y358700D01*
X528385Y358665D01*
X528428Y358616D01*
X528484Y358552D01*
X528554Y358489D01*
X528625Y358412D01*
X528716Y358341D01*
X528807Y358271D01*
X528913Y358193D01*
X529026Y358130D01*
X529152Y358074D01*
X529279Y358018D01*
X529420Y357982D01*
X529567Y357954D01*
X529715Y357947D01*
X529750D01*
X529793Y357954D01*
X529849Y357961D01*
X529919Y357968D01*
X530004Y357989D01*
X530095Y358010D01*
X530194Y358046D01*
X530299Y358088D01*
X530412Y358137D01*
X530524Y358200D01*
X530644Y358278D01*
X530756Y358369D01*
X530876Y358475D01*
X530989Y358595D01*
X531094Y358735D01*
X531101Y358742D01*
X531115Y358777D01*
X531143Y358827D01*
X531186Y358897D01*
X531228Y358996D01*
X531270Y359115D01*
X531326Y359256D01*
X531376Y359432D01*
X531404Y359530D01*
X531425Y359636D01*
X531453Y359741D01*
X531481Y359861D01*
X531502Y359988D01*
X531523Y360121D01*
X531552Y360262D01*
X531573Y360417D01*
X531587Y360572D01*
X531608Y360740D01*
X531622Y360916D01*
X531636Y361099D01*
X531643Y361289D01*
X531650Y361493D01*
X531657Y361704D01*
Y361922D01*
Y361930D01*
Y361951D01*
Y361986D01*
Y362028D01*
Y362084D01*
Y362148D01*
X531650Y362225D01*
Y362309D01*
X531643Y362401D01*
Y362506D01*
X531629Y362724D01*
X531608Y362964D01*
X531587Y363224D01*
X531558Y363484D01*
X531523Y363752D01*
X531474Y364019D01*
X531418Y364279D01*
X531354Y364526D01*
X531277Y364744D01*
X531235Y364849D01*
X531193Y364941D01*
X531143Y365032D01*
X531094Y365110D01*
X531087Y365117D01*
X531066Y365145D01*
X531038Y365180D01*
X530996Y365236D01*
X530939Y365293D01*
X530876Y365363D01*
X530799Y365433D01*
X530714Y365511D01*
X530616Y365581D01*
X530510Y365651D01*
X530398Y365722D01*
X530271Y365778D01*
X530137Y365834D01*
X530004Y365869D01*
X529856Y365898D01*
X529701Y365905D01*
D02*
G37*
G36*
X564098Y348799D02*
X563986D01*
X563901Y348792D01*
X563796Y348785D01*
X563676Y348778D01*
X563542Y348764D01*
X563395Y348750D01*
X563240Y348729D01*
X563071Y348701D01*
X562902Y348666D01*
X562726Y348631D01*
X562550Y348581D01*
X562374Y348525D01*
X562199Y348462D01*
X562030Y348391D01*
X562023Y348384D01*
X561987Y348370D01*
X561945Y348349D01*
X561882Y348314D01*
X561812Y348272D01*
X561720Y348223D01*
X561629Y348166D01*
X561523Y348096D01*
X561418Y348018D01*
X561305Y347927D01*
X561193Y347836D01*
X561080Y347730D01*
X560967Y347610D01*
X560855Y347491D01*
X560756Y347357D01*
X560658Y347216D01*
X560651Y347209D01*
X560637Y347181D01*
X560616Y347139D01*
X560580Y347083D01*
X560545Y347005D01*
X560503Y346921D01*
X560454Y346822D01*
X560411Y346710D01*
X560362Y346583D01*
X560320Y346450D01*
X560278Y346309D01*
X560243Y346154D01*
X560207Y345999D01*
X560186Y345830D01*
X560172Y345654D01*
X560165Y345479D01*
Y345471D01*
Y345465D01*
Y345443D01*
Y345415D01*
X560172Y345345D01*
X560179Y345253D01*
X560193Y345134D01*
X560215Y344993D01*
X560243Y344838D01*
X560285Y344677D01*
X560334Y344493D01*
X560397Y344304D01*
X560475Y344114D01*
X560559Y343909D01*
X560672Y343713D01*
X560798Y343516D01*
X560939Y343318D01*
X561108Y343129D01*
X561122Y343115D01*
X561150Y343086D01*
X561207Y343037D01*
X561291Y342974D01*
X561390Y342903D01*
X561523Y342819D01*
X561671Y342728D01*
X561847Y342636D01*
X562051Y342545D01*
X562283Y342453D01*
X562543Y342376D01*
X562825Y342298D01*
X563134Y342235D01*
X563303Y342207D01*
X563472Y342186D01*
X563655Y342165D01*
X563845Y342158D01*
X564035Y342144D01*
X564316D01*
X564359Y342151D01*
X564464D01*
X564527Y342158D01*
X564675Y342172D01*
X564851Y342193D01*
X565041Y342221D01*
X565245Y342263D01*
X565463Y342312D01*
X565688Y342376D01*
X565920Y342453D01*
X566153Y342545D01*
X566378Y342650D01*
X566603Y342777D01*
X566814Y342918D01*
X567011Y343086D01*
X567025Y343100D01*
X567053Y343129D01*
X567103Y343185D01*
X567166Y343255D01*
X567243Y343354D01*
X567328Y343459D01*
X567419Y343593D01*
X567511Y343741D01*
X567609Y343903D01*
X567701Y344085D01*
X567785Y344282D01*
X567862Y344493D01*
X567926Y344712D01*
X567975Y344951D01*
X568003Y345204D01*
X568017Y345465D01*
Y345471D01*
Y345479D01*
Y345500D01*
Y345528D01*
X568010Y345563D01*
Y345605D01*
X568003Y345704D01*
X567989Y345830D01*
X567961Y345971D01*
X567933Y346133D01*
X567891Y346309D01*
X567834Y346492D01*
X567771Y346689D01*
X567687Y346886D01*
X567588Y347083D01*
X567468Y347287D01*
X567335Y347484D01*
X567173Y347674D01*
X566997Y347857D01*
X566983Y347871D01*
X566948Y347899D01*
X566892Y347941D01*
X566807Y348004D01*
X566702Y348075D01*
X566575Y348152D01*
X566427Y348244D01*
X566251Y348328D01*
X566054Y348419D01*
X565843Y348504D01*
X565604Y348581D01*
X565344Y348652D01*
X565062Y348715D01*
X564760Y348757D01*
X564443Y348792D01*
X564098Y348799D01*
D02*
G37*
G36*
X529193Y353459D02*
X529158D01*
X529116Y353452D01*
X529059Y353445D01*
X528989Y353438D01*
X528905Y353424D01*
X528820Y353402D01*
X528722Y353374D01*
X528616Y353332D01*
X528511Y353290D01*
X528398Y353233D01*
X528293Y353163D01*
X528180Y353086D01*
X528074Y352994D01*
X527976Y352882D01*
X527877Y352762D01*
X527870Y352755D01*
X527849Y352720D01*
X527821Y352664D01*
X527779Y352586D01*
X527737Y352481D01*
X527687Y352354D01*
X527631Y352199D01*
X527575Y352016D01*
X527540Y351918D01*
X527511Y351805D01*
X527483Y351693D01*
X527462Y351566D01*
X527434Y351439D01*
X527406Y351299D01*
X527385Y351151D01*
X527364Y350996D01*
X527343Y350834D01*
X527322Y350666D01*
X527308Y350490D01*
X527293Y350307D01*
X527279Y350110D01*
X527272Y349906D01*
X527265Y349695D01*
Y349476D01*
Y349469D01*
Y349448D01*
Y349420D01*
Y349371D01*
Y349315D01*
X527272Y349251D01*
Y349174D01*
Y349089D01*
X527279Y348998D01*
Y348899D01*
X527293Y348674D01*
X527314Y348435D01*
X527336Y348182D01*
X527364Y347915D01*
X527399Y347647D01*
X527448Y347380D01*
X527497Y347119D01*
X527561Y346873D01*
X527638Y346655D01*
X527680Y346549D01*
X527723Y346458D01*
X527772Y346367D01*
X527821Y346289D01*
X527828Y346282D01*
X527849Y346254D01*
X527877Y346219D01*
X527920Y346170D01*
X527976Y346106D01*
X528046Y346043D01*
X528117Y345966D01*
X528208Y345895D01*
X528299Y345825D01*
X528405Y345747D01*
X528518Y345684D01*
X528644Y345628D01*
X528771Y345572D01*
X528912Y345536D01*
X529059Y345508D01*
X529207Y345501D01*
X529242D01*
X529285Y345508D01*
X529341Y345515D01*
X529411Y345522D01*
X529496Y345543D01*
X529587Y345564D01*
X529686Y345600D01*
X529791Y345642D01*
X529904Y345691D01*
X530016Y345755D01*
X530136Y345832D01*
X530248Y345923D01*
X530368Y346029D01*
X530481Y346148D01*
X530586Y346289D01*
X530593Y346296D01*
X530607Y346331D01*
X530635Y346381D01*
X530678Y346451D01*
X530720Y346549D01*
X530762Y346669D01*
X530818Y346810D01*
X530868Y346986D01*
X530896Y347084D01*
X530917Y347190D01*
X530945Y347295D01*
X530973Y347415D01*
X530994Y347542D01*
X531015Y347675D01*
X531044Y347816D01*
X531065Y347971D01*
X531079Y348125D01*
X531100Y348294D01*
X531114Y348470D01*
X531128Y348653D01*
X531135Y348843D01*
X531142Y349047D01*
X531149Y349258D01*
Y349476D01*
Y349483D01*
Y349505D01*
Y349540D01*
Y349582D01*
Y349638D01*
Y349702D01*
X531142Y349779D01*
Y349863D01*
X531135Y349955D01*
Y350060D01*
X531121Y350279D01*
X531100Y350518D01*
X531079Y350778D01*
X531050Y351038D01*
X531015Y351306D01*
X530966Y351573D01*
X530910Y351833D01*
X530846Y352080D01*
X530769Y352298D01*
X530727Y352403D01*
X530685Y352495D01*
X530635Y352586D01*
X530586Y352664D01*
X530579Y352671D01*
X530558Y352699D01*
X530530Y352734D01*
X530488Y352790D01*
X530431Y352847D01*
X530368Y352917D01*
X530291Y352987D01*
X530206Y353065D01*
X530108Y353135D01*
X530002Y353205D01*
X529890Y353276D01*
X529763Y353332D01*
X529629Y353388D01*
X529496Y353424D01*
X529348Y353452D01*
X529193Y353459D01*
D02*
G37*
%LPD*%
D30*
X584708Y420878D02*
X605282D01*
Y427736D01*
X584708Y420878D02*
X605282Y427736D01*
X584708Y420878D02*
X659130D01*
X572770Y398526D02*
X600202D01*
X505968D02*
X572770D01*
X505968Y381000D02*
Y398526D01*
X505714Y381000D02*
X505968D01*
X554228Y311150D02*
Y342646D01*
X505714D02*
X554228D01*
Y311150D02*
X600202D01*
X505714Y342646D02*
Y381000D01*
X600202Y311150D02*
Y398526D01*
X505714Y381000D02*
X600202D01*
X381240Y389386D02*
Y389886D01*
X411240Y389386D02*
Y389886D01*
X395240Y402136D02*
X397240Y402136D01*
X395240Y377136D02*
X397240Y377136D01*
D39*
X604490Y351780D02*
G03*
X604490Y351780I-1250J0D01*
G01*
X413020Y377256D02*
G03*
X413020Y377256I-1250J0D01*
G01*
D40*
X346756Y377952D02*
G03*
X346756Y377952I-2840J0D01*
G01*
D41*
X361876Y335798D02*
G03*
X361876Y335798I-500J0D01*
G01*
D42*
X406740Y407386D02*
D03*
D43*
X482346Y367030D02*
X484886D01*
X482346Y364490D02*
Y367030D01*
Y351790D02*
Y354330D01*
Y351790D02*
X484886D01*
X495046D02*
X497586D01*
Y354330D01*
Y364490D02*
Y367030D01*
X495046D02*
X497586D01*
X482600Y389636D02*
X485140D01*
X482600Y387096D02*
Y389636D01*
Y374396D02*
Y376936D01*
Y374396D02*
X485140D01*
X495300D02*
X497840D01*
Y376936D01*
Y387096D02*
Y389636D01*
X495300D02*
X497840D01*
X615696Y338736D02*
Y339090D01*
X655728Y364490D02*
X656082D01*
X635508Y338736D02*
Y339090D01*
D44*
X486156Y403860D02*
Y404876D01*
D45*
X419770Y339506D02*
Y340006D01*
Y339506D02*
X420270D01*
X471270D02*
X471770D01*
Y340006D01*
Y391006D02*
Y391506D01*
X471270D02*
X471770D01*
X419770D02*
X420270D01*
X419770Y391006D02*
Y391506D01*
D46*
X517392Y361721D02*
D03*
X517397Y350242D02*
D03*
X517400Y373654D02*
D03*
X517160Y385039D02*
D03*
X404620Y328652D02*
D03*
D47*
X371623Y346708D02*
D03*
D48*
X591266Y370586D02*
D03*
M02*
